<svg width="66" height="89" viewBox="0 0 66 89" fill="none" xmlns="http://www.w3.org/2000/svg">
<path fill-rule="evenodd" clip-rule="evenodd" d="M32.8744 0.097102C32.8744 0.097102 26.8997 12.7998 16.7317 26.1931C5.80241 40.5798 0.0930786 48.7384 0.0930786 59.5104C0.0930786 68.6371 7.23175 74.5424 13.9464 74.5424C20.8037 74.5424 25.2544 72.0571 27.5864 63.1624C28.5344 59.5478 30.5531 60.2611 30.0144 64.1958C29.3864 68.8411 29.3357 78.9424 21.8384 88.0691H43.9064C36.4064 78.9424 36.3597 68.8411 35.7304 64.1958C35.1931 60.2611 37.2077 59.5478 38.1557 63.1624C40.4864 72.0571 44.9397 74.5424 51.7971 74.5424C58.5117 74.5424 65.6491 68.6371 65.6491 59.5104C65.6491 48.7384 59.9397 40.5798 49.0117 26.1931C38.8424 12.7998 32.8744 0.097102 32.8744 0.097102Z" fill="#231F20"/>
</svg>
