<svg width="62" height="75" viewBox="0 0 62 75" fill="none" xmlns="http://www.w3.org/2000/svg">
<path d="M31.1386 14.4056C32.28 14.4056 32.1693 13.6109 32.5146 10.5469C32.8533 7.48293 36.5466 -0.838402 47.2786 0.101597C52.0066 0.496264 63.4146 6.68826 61.8106 20.6483C61.2 25.9949 60.0986 29.9589 53.116 40.6309C52.048 42.2523 40.4106 59.9336 31.1386 74.9163C21.8706 59.9336 10.216 42.2523 9.15462 40.6309C2.17062 29.9589 1.06929 25.9949 0.446624 20.6483C-1.15604 6.68826 10.26 0.496264 14.988 0.101597C25.7213 -0.838402 29.4146 7.48293 29.752 10.5469C30.1013 13.6109 29.9933 14.4056 31.1386 14.4056Z" fill="#EC1C24"/>
</svg>
