<svg width="67" height="73" viewBox="0 0 67 73" fill="none" xmlns="http://www.w3.org/2000/svg">
<path d="M23.4844 72.1023C32.2337 61.4023 30.3271 45.7063 30.3271 45.7063C29.0177 52.9436 21.7337 57.249 18.7524 57.729C8.29508 59.4623 3.31241 51.7756 2.66174 50.5996C-4.48092 37.7543 5.93908 29.729 7.49108 28.785C16.9444 22.9783 24.5911 29.6023 24.5911 29.6023C25.9964 29.9063 25.1911 28.177 25.1911 28.177C17.3444 23.8943 16.9631 16.6343 17.2471 14.213C19.0537 -0.2617 33.2897 0.0662986 33.2897 0.0662986C33.2897 0.0662986 47.5111 -0.2617 49.3151 14.213C49.6004 16.6343 49.2177 23.8943 41.3697 28.177C41.3697 28.177 40.5657 29.9063 41.9751 29.6023C41.9751 29.6023 49.6151 22.9783 59.0724 28.785C60.6257 29.729 71.0431 37.7543 63.9017 50.5996C63.2444 51.7756 58.2644 59.4623 47.8084 57.729C44.8271 57.249 37.5471 52.9436 36.2417 45.7063C36.2417 45.7063 34.3311 61.4023 43.0804 72.1023H23.4844Z" fill="#231F20"/>
</svg>
