<svg width="133" height="203" viewBox="0 0 133 203" fill="none" xmlns="http://www.w3.org/2000/svg">
<path d="M33.7994 57.8365C37.9661 52.7405 37.0581 45.2645 37.0581 45.2645C36.4354 48.7112 32.9674 50.7619 31.5488 50.9912C26.5674 51.8179 24.1928 48.1565 23.8834 47.5952C20.4821 41.4779 25.4421 37.6565 26.1834 37.2059C30.6874 34.4392 34.3274 37.5939 34.3274 37.5939C34.9954 37.7392 34.6154 36.9152 34.6154 36.9152C30.8768 34.8765 30.6954 31.4179 30.8301 30.2645C31.6914 23.3712 38.4714 23.5272 38.4714 23.5272C38.4714 23.5272 45.2421 23.3712 46.1048 30.2645C46.2381 31.4179 46.0554 34.8765 42.3194 36.9152C42.3194 36.9152 41.9368 37.7392 42.6048 37.5939C42.6048 37.5939 46.2488 34.4392 50.7528 37.2059C51.4914 37.6565 56.4514 41.4779 53.0501 47.5952C52.7368 48.1565 50.3661 51.8179 45.3848 50.9912C43.9648 50.7619 40.4981 48.7112 39.8768 45.2645C39.8768 45.2645 38.9648 52.7405 43.1341 57.8365H33.7994Z" fill="#231F20"/>
<path d="M89.4362 57.8365C93.6028 52.7405 92.6962 45.2645 92.6962 45.2645C92.0735 48.7112 88.6042 50.7619 87.1855 50.9912C82.2042 51.8179 79.8295 48.1565 79.5202 47.5952C76.1188 41.4779 81.0788 37.6565 81.8202 37.2059C86.3242 34.4392 89.9642 37.5939 89.9642 37.5939C90.6322 37.7392 90.2508 36.9152 90.2508 36.9152C86.5148 34.8765 86.3322 31.4179 86.4668 30.2645C87.3282 23.3712 94.1082 23.5272 94.1082 23.5272C94.1082 23.5272 100.879 23.3712 101.741 30.2645C101.876 31.4179 101.693 34.8765 97.9548 36.9152C97.9548 36.9152 97.5748 37.7392 98.2415 37.5939C98.2415 37.5939 101.885 34.4392 106.389 37.2059C107.127 37.6565 112.089 41.4779 108.688 47.5952C108.375 48.1565 106.003 51.8179 101.02 50.9912C99.6028 50.7619 96.1348 48.7112 95.5135 45.2645C95.5135 45.2645 94.6015 52.7405 98.7708 57.8365H89.4362Z" fill="#231F20"/>
<path d="M33.7994 98.6373C37.9661 93.54 37.0581 86.0653 37.0581 86.0653C36.4354 89.512 32.9674 91.5627 31.5488 91.792C26.5674 92.6173 24.1928 88.9573 23.8834 88.396C20.4821 82.2787 25.4421 78.456 26.1834 78.0053C30.6874 75.24 34.3274 78.3947 34.3274 78.3947C34.9954 78.5387 34.6154 77.716 34.6154 77.716C30.8768 75.6773 30.6954 72.2187 30.8301 71.0653C31.6914 64.1707 38.4714 64.328 38.4714 64.328C38.4714 64.328 45.2421 64.1707 46.1048 71.0653C46.2381 72.2187 46.0554 75.6773 42.3194 77.716C42.3194 77.716 41.9368 78.5387 42.6048 78.3947C42.6048 78.3947 46.2488 75.24 50.7528 78.0053C51.4914 78.456 56.4514 82.2787 53.0501 88.396C52.7368 88.9573 50.3661 92.6173 45.3848 91.792C43.9648 91.5627 40.4981 89.512 39.8768 86.0653C39.8768 86.0653 38.9648 93.54 43.1341 98.6373H33.7994Z" fill="#231F20"/>
<path d="M89.4362 98.6373C93.6028 93.54 92.6962 86.0653 92.6962 86.0653C92.0735 89.512 88.6042 91.5627 87.1855 91.792C82.2042 92.6173 79.8295 88.9573 79.5202 88.396C76.1188 82.2787 81.0788 78.456 81.8202 78.0053C86.3242 75.24 89.9642 78.3947 89.9642 78.3947C90.6322 78.5387 90.2508 77.716 90.2508 77.716C86.5148 75.6773 86.3322 72.2187 86.4668 71.0653C87.3282 64.1707 94.1082 64.328 94.1082 64.328C94.1082 64.328 100.879 64.1707 101.741 71.0653C101.876 72.2187 101.693 75.6773 97.9548 77.716C97.9548 77.716 97.5748 78.5387 98.2415 78.3947C98.2415 78.3947 101.885 75.24 106.389 78.0053C107.127 78.456 112.089 82.2787 108.688 88.396C108.375 88.9573 106.003 92.6173 101.02 91.792C99.6028 91.5627 96.1348 89.512 95.5135 86.0653C95.5135 86.0653 94.6015 93.54 98.7708 98.6373H89.4362Z" fill="#231F20"/>
<path d="M98.7682 145.928C94.6016 151.025 95.5122 158.501 95.5122 158.501C96.1336 155.053 99.6042 153.002 101.023 152.772C106.006 151.946 108.379 155.608 108.688 156.17C112.09 162.286 107.127 166.108 106.388 166.56C101.886 169.325 98.2416 166.17 98.2416 166.17C97.5736 166.028 97.9562 166.849 97.9562 166.849C101.694 168.888 101.876 172.346 101.74 173.5C100.879 180.393 94.0989 180.238 94.0989 180.238C94.0989 180.238 87.3269 180.393 86.4669 173.5C86.3322 172.346 86.5149 168.888 90.2509 166.849C90.2509 166.849 90.6349 166.028 89.9629 166.17C89.9629 166.17 86.3242 169.325 81.8189 166.56C81.0789 166.108 76.1189 162.286 79.5189 156.17C79.8322 155.608 82.2042 151.946 87.1842 152.772C88.6042 153.002 92.0736 155.053 92.6936 158.501C92.6936 158.501 93.6029 151.025 89.4362 145.928H98.7682Z" fill="#231F20"/>
<path d="M43.1314 145.928C38.9647 151.025 39.8754 158.501 39.8754 158.501C40.4967 155.053 43.966 153.002 45.386 152.772C50.3674 151.946 52.7407 155.608 53.05 156.17C56.4514 162.286 51.4914 166.108 50.7514 166.56C46.2487 169.325 42.6047 166.17 42.6047 166.17C41.9367 166.028 42.3207 166.849 42.3207 166.849C46.058 168.888 46.238 172.346 46.1034 173.5C45.242 180.393 38.462 180.238 38.462 180.238C38.462 180.238 31.6887 180.393 30.8301 173.5C30.6954 172.346 30.8767 168.888 34.6154 166.849C34.6154 166.849 34.998 166.028 34.326 166.17C34.326 166.17 30.6874 169.325 26.1834 166.56C25.442 166.108 20.4821 162.286 23.882 156.17C24.1954 155.608 26.5674 151.946 31.5474 152.772C32.9674 153.002 36.4354 155.053 37.0567 158.501C37.0567 158.501 37.966 151.025 33.7994 145.928H43.1314Z" fill="#231F20"/>
<path d="M98.7682 105.126C94.6016 110.224 95.5122 117.698 95.5122 117.698C96.1336 114.252 99.6042 112.201 101.023 111.972C106.006 111.146 108.379 114.808 108.688 115.368C112.09 121.486 107.127 125.308 106.388 125.758C101.886 128.524 98.2416 125.369 98.2416 125.369C97.5736 125.225 97.9562 126.048 97.9562 126.048C101.694 128.088 101.876 131.545 101.74 132.7C100.879 139.593 94.0989 139.436 94.0989 139.436C94.0989 139.436 87.3269 139.593 86.4669 132.7C86.3322 131.545 86.5149 128.088 90.2509 126.048C90.2509 126.048 90.6349 125.225 89.9629 125.369C89.9629 125.369 86.3242 128.524 81.8189 125.758C81.0789 125.308 76.1189 121.486 79.5189 115.368C79.8322 114.808 82.2042 111.146 87.1842 111.972C88.6042 112.201 92.0736 114.252 92.6936 117.698C92.6936 117.698 93.6029 110.224 89.4362 105.126H98.7682Z" fill="#231F20"/>
<path d="M43.1314 105.126C38.9647 110.224 39.8754 117.698 39.8754 117.698C40.4967 114.252 43.966 112.201 45.386 111.972C50.3674 111.146 52.7407 114.808 53.05 115.368C56.4514 121.486 51.4914 125.308 50.7514 125.758C46.2487 128.524 42.6047 125.369 42.6047 125.369C41.9367 125.225 42.3207 126.048 42.3207 126.048C46.058 128.088 46.238 131.545 46.1034 132.7C45.242 139.593 38.462 139.436 38.462 139.436C38.462 139.436 31.6887 139.593 30.8301 132.7C30.6954 131.545 30.8767 128.088 34.6154 126.048C34.6154 126.048 34.998 125.225 34.326 125.369C34.326 125.369 30.6874 128.524 26.1834 125.758C25.442 125.308 20.4821 121.486 23.882 115.368C24.1954 114.808 26.5674 111.146 31.5474 111.972C32.9674 112.201 36.4354 114.252 37.0567 117.698C37.0567 117.698 37.966 110.224 33.7994 105.126H43.1314Z" fill="#231F20"/>
<path d="M61.6186 78.2375C65.7866 73.1402 64.8773 65.6642 64.8773 65.6642C64.2546 69.1122 60.7866 71.1629 59.3679 71.3922C54.3866 72.2175 52.0106 68.5562 51.7026 67.9949C48.2999 61.8789 53.2613 58.0562 54.0026 57.6056C58.5053 54.8402 62.1466 57.9949 62.1466 57.9949C62.8133 58.1389 62.4333 57.3162 62.4333 57.3162C58.6959 55.2762 58.5146 51.8189 58.6493 50.6655C59.5106 43.7722 66.2906 43.9282 66.2906 43.9282C66.2906 43.9282 73.0613 43.7722 73.9239 50.6655C74.0586 51.8189 73.8733 55.2762 70.1373 57.3162C70.1373 57.3162 69.7559 58.1389 70.4239 57.9949C70.4239 57.9949 74.0666 54.8402 78.5706 57.6056C79.3093 58.0562 84.2706 61.8789 80.8693 67.9949C80.5559 68.5562 78.1839 72.2175 73.2039 71.3922C71.7839 71.1629 68.3173 69.1122 67.6959 65.6642C67.6959 65.6642 66.7839 73.1402 70.9533 78.2375H61.6186Z" fill="#231F20"/>
<path d="M70.9519 125.527C66.7839 130.623 67.6932 138.099 67.6932 138.099C68.3159 134.653 71.7852 132.602 73.2052 132.373C78.1866 131.547 80.5599 135.209 80.8692 135.769C84.2706 141.887 79.3092 145.709 78.5692 146.159C74.0666 148.925 70.4239 145.77 70.4239 145.77C69.7559 145.626 70.1386 146.449 70.1386 146.449C73.8759 148.489 74.0586 151.946 73.9239 153.099C73.0612 159.994 66.2812 159.838 66.2812 159.838C66.2812 159.838 59.5079 159.994 58.6492 153.099C58.5146 151.946 58.6959 148.489 62.4332 146.449C62.4332 146.449 62.8159 145.626 62.1466 145.77C62.1466 145.77 58.5052 148.925 54.0012 146.159C53.2612 145.709 48.2999 141.887 51.7012 135.769C52.0132 135.209 54.3866 131.547 59.3679 132.373C60.7866 132.602 64.2546 134.653 64.8746 138.099C64.8746 138.099 65.7866 130.623 61.6186 125.527H70.9519Z" fill="#231F20"/>
<path fill-rule="evenodd" clip-rule="evenodd" d="M7.17053 10.595H9.63453V33.495H7.17053V10.595ZM16.4159 10.3123C12.5785 10.3123 11.9759 14.1897 11.9759 14.1897V29.5763C12.1399 30.7883 13.2265 33.455 16.5785 33.455C19.9265 33.455 20.8959 30.2643 20.8959 29.4177V14.7563C20.8959 12.4137 18.9172 10.3123 16.4159 10.3123V10.3123ZM16.4985 12.979C17.5865 12.979 18.2305 14.0297 18.2305 15.039V29.2537C18.2305 29.7403 17.5479 30.951 16.4985 30.951C15.4479 30.951 14.6372 30.147 14.6372 29.3777V14.715C14.6372 14.715 14.6039 12.979 16.4985 12.979" fill="#231F20"/>
<path fill-rule="evenodd" clip-rule="evenodd" d="M125.4 193.168H122.938V170.268H125.4V193.168ZM116.158 193.451C119.992 193.451 120.594 189.575 120.594 189.575V174.188C120.433 172.975 119.345 170.309 115.994 170.309C112.644 170.309 111.677 173.497 111.677 174.347V189.008C111.677 191.351 113.654 193.451 116.158 193.451V193.451ZM116.074 190.785C114.985 190.785 114.34 189.735 114.34 188.724V174.511C114.34 174.024 115.022 172.812 116.074 172.812C117.126 172.812 117.934 173.617 117.934 174.388V189.047C117.934 189.047 117.968 190.785 116.074 190.785" fill="#231F20"/>
<path d="M120.387 149.755C118.551 152.027 118.951 155.362 118.951 155.362C119.225 153.826 120.755 152.91 121.381 152.807C123.579 152.438 124.621 154.073 124.759 154.322C126.259 157.05 124.072 158.754 123.745 158.955C121.761 160.189 120.153 158.782 120.153 158.782C119.859 158.718 120.028 159.086 120.028 159.086C121.676 159.994 121.756 161.537 121.696 162.051C121.317 165.125 118.327 165.055 118.327 165.055C118.327 165.055 115.344 165.125 114.964 162.051C114.905 161.537 114.984 159.994 116.632 159.086C116.632 159.086 116.803 158.718 116.504 158.782C116.504 158.782 114.9 160.189 112.915 158.955C112.587 158.754 110.403 157.05 111.901 154.322C112.039 154.073 113.083 152.438 115.28 152.807C115.907 152.91 117.433 153.826 117.708 155.362C117.708 155.362 118.111 152.027 116.273 149.755H120.387Z" fill="#231F20"/>
<path d="M12.1836 54.0125C14.0222 51.7405 13.6196 48.4058 13.6196 48.4058C13.3462 49.9431 11.8169 50.8565 11.1916 50.9605C8.99556 51.3271 7.9489 49.6951 7.8129 49.4445C6.3129 46.7165 8.5009 45.0125 8.82623 44.8125C10.8116 43.5778 12.4169 44.9845 12.4169 44.9845C12.7116 45.0498 12.5436 44.6818 12.5436 44.6818C10.8956 43.7725 10.8169 42.2311 10.8756 41.7165C11.2556 38.6418 14.2449 38.7125 14.2449 38.7125C14.2449 38.7125 17.2276 38.6418 17.6076 41.7165C17.6676 42.2311 17.5876 43.7725 15.9409 44.6818C15.9409 44.6818 15.7689 45.0498 16.0662 44.9845C16.0662 44.9845 17.6716 43.5778 19.6556 44.8125C19.9836 45.0125 22.1702 46.7165 20.6689 49.4445C20.5342 49.6951 19.4889 51.3271 17.2929 50.9605C16.6676 50.8565 15.1382 49.9431 14.8636 48.4058C14.8636 48.4058 14.4609 51.7405 16.2996 54.0125H12.1836Z" fill="#231F20"/>
<path d="M132.354 195.771C132.354 199.612 129.241 202.724 125.399 202.724" stroke="#EB008B" stroke-width="0.333333" stroke-miterlimit="2.613"/>
<path d="M125.4 202.724H7.17041" stroke="#EB008B" stroke-width="0.333333" stroke-miterlimit="2.613"/>
<path d="M7.17049 202.724C3.33049 202.724 0.21582 199.612 0.21582 195.771" stroke="#EB008B" stroke-width="0.333333" stroke-miterlimit="2.613"/>
<path d="M0.216125 195.771V7.99475" stroke="#EB008B" stroke-width="0.333333" stroke-miterlimit="2.613"/>
<path d="M0.216125 7.99475C0.216125 4.15475 3.33079 1.04008 7.17079 1.04008" stroke="#EB008B" stroke-width="0.333333" stroke-miterlimit="2.613"/>
<path d="M7.17053 1.04041H125.4" stroke="#EB008B" stroke-width="0.333333" stroke-miterlimit="2.613"/>
<path d="M125.4 1.04033C129.241 1.04033 132.354 4.15366 132.354 7.995" stroke="#EB008B" stroke-width="0.333333" stroke-miterlimit="2.613"/>
<path d="M132.354 7.99475V195.771" stroke="#EB008B" stroke-width="0.333333" stroke-miterlimit="2.613"/>
</svg>
