<svg width="127" height="193" viewBox="0 0 127 193" fill="none" xmlns="http://www.w3.org/2000/svg">
<path fill-rule="evenodd" clip-rule="evenodd" d="M97.1303 32.4675C92.8263 26.6542 91.6716 21.7488 91.6716 21.7488C91.6716 21.7488 90.5196 26.6542 86.2156 32.4675C81.9143 38.2782 77.929 39.8902 77.929 39.8902C77.929 39.8902 81.9143 41.4995 86.2156 47.3142C90.5196 53.1275 91.6716 58.0328 91.6716 58.0328C91.6716 58.0328 92.8263 53.1275 97.1303 47.3142C101.433 41.4995 105.417 39.8902 105.417 39.8902C105.417 39.8902 101.433 38.2782 97.1303 32.4675Z" fill="#EC1C24"/>
<path fill-rule="evenodd" clip-rule="evenodd" d="M41.0573 32.4675C36.7533 26.6542 35.5986 21.7488 35.5986 21.7488C35.5986 21.7488 34.4466 26.6542 30.1426 32.4675C25.8386 38.2782 21.8573 39.8902 21.8573 39.8902C21.8573 39.8902 25.8386 41.4995 30.1426 47.3142C34.4466 53.1275 35.5986 58.0328 35.5986 58.0328C35.5986 58.0328 36.7533 53.1275 41.0573 47.3142C45.36 41.4995 49.3426 39.8902 49.3426 39.8902C49.3426 39.8902 45.36 38.2782 41.0573 32.4675Z" fill="#EC1C24"/>
<path fill-rule="evenodd" clip-rule="evenodd" d="M97.1303 70.2891C92.8263 64.4758 91.6716 59.5704 91.6716 59.5704C91.6716 59.5704 90.5196 64.4758 86.2156 70.2891C81.9143 76.0998 77.929 77.7104 77.929 77.7104C77.929 77.7104 81.9143 79.3224 86.2156 85.1344C90.5196 90.9478 91.6716 95.8531 91.6716 95.8531C91.6716 95.8531 92.8263 90.9478 97.1303 85.1344C101.433 79.3224 105.417 77.7104 105.417 77.7104C105.417 77.7104 101.433 76.0998 97.1303 70.2891" fill="#EC1C24"/>
<path fill-rule="evenodd" clip-rule="evenodd" d="M41.0573 70.2891C36.7533 64.4758 35.5986 59.5704 35.5986 59.5704C35.5986 59.5704 34.4466 64.4758 30.1426 70.2891C25.8386 76.0998 21.8573 77.7104 21.8573 77.7104C21.8573 77.7104 25.8386 79.3224 30.1426 85.1344C34.4466 90.9478 35.5986 95.8531 35.5986 95.8531C35.5986 95.8531 36.7533 90.9478 41.0573 85.1344C45.36 79.3224 49.3426 77.7104 49.3426 77.7104C49.3426 77.7104 45.36 76.0998 41.0573 70.2891" fill="#EC1C24"/>
<path fill-rule="evenodd" clip-rule="evenodd" d="M97.1303 108.109C92.8263 102.297 91.6716 97.392 91.6716 97.392C91.6716 97.392 90.5196 102.297 86.2156 108.109C81.9143 113.921 77.929 115.533 77.929 115.533C77.929 115.533 81.9143 117.143 86.2156 122.957C90.5196 128.769 91.6716 133.675 91.6716 133.675C91.6716 133.675 92.8263 128.769 97.1303 122.957C101.433 117.143 105.417 115.533 105.417 115.533C105.417 115.533 101.433 113.921 97.1303 108.109Z" fill="#EC1C24"/>
<path fill-rule="evenodd" clip-rule="evenodd" d="M41.0573 108.109C36.7533 102.297 35.5986 97.392 35.5986 97.392C35.5986 97.392 34.4466 102.297 30.1426 108.109C25.8386 113.921 21.8573 115.533 21.8573 115.533C21.8573 115.533 25.8386 117.143 30.1426 122.957C34.4466 128.769 35.5986 133.675 35.5986 133.675C35.5986 133.675 36.7533 128.769 41.0573 122.957C45.36 117.143 49.3426 115.533 49.3426 115.533C49.3426 115.533 45.36 113.921 41.0573 108.109Z" fill="#EC1C24"/>
<path fill-rule="evenodd" clip-rule="evenodd" d="M97.1303 145.931C92.8263 140.119 91.6716 135.214 91.6716 135.214C91.6716 135.214 90.5196 140.119 86.2156 145.931C81.9143 151.746 77.929 153.355 77.929 153.355C77.929 153.355 81.9143 154.966 86.2156 160.779C90.5196 166.594 91.6716 171.498 91.6716 171.498C91.6716 171.498 92.8263 166.594 97.1303 160.779C101.433 154.966 105.417 153.355 105.417 153.355C105.417 153.355 101.433 151.746 97.1303 145.931" fill="#EC1C24"/>
<path fill-rule="evenodd" clip-rule="evenodd" d="M41.0573 145.931C36.7533 140.119 35.5986 135.214 35.5986 135.214C35.5986 135.214 34.4466 140.119 30.1426 145.931C25.8386 151.746 21.8573 153.355 21.8573 153.355C21.8573 153.355 25.8386 154.966 30.1426 160.779C34.4466 166.594 35.5986 171.498 35.5986 171.498C35.5986 171.498 36.7533 166.594 41.0573 160.779C45.36 154.966 49.3426 153.355 49.3426 153.355C49.3426 153.355 45.36 151.746 41.0573 145.931" fill="#EC1C24"/>
<path fill-rule="evenodd" clip-rule="evenodd" d="M69.095 51.3777C64.7897 45.563 63.6363 40.659 63.6363 40.659C63.6363 40.659 62.4817 45.563 58.1777 51.3777C53.8763 57.1897 49.8937 58.799 49.8937 58.799C49.8937 58.799 53.8763 60.411 58.1777 66.223C62.4817 72.0377 63.6363 76.9417 63.6363 76.9417C63.6363 76.9417 64.7897 72.0377 69.095 66.223C73.395 60.411 77.379 58.799 77.379 58.799C77.379 58.799 73.395 57.1897 69.095 51.3777" fill="#EC1C24"/>
<path fill-rule="evenodd" clip-rule="evenodd" d="M69.095 127.021C64.7897 121.206 63.6363 116.302 63.6363 116.302C63.6363 116.302 62.4817 121.206 58.1777 127.021C53.8763 132.833 49.8937 134.445 49.8937 134.445C49.8937 134.445 53.8763 136.054 58.1777 141.868C62.4817 147.682 63.6363 152.585 63.6363 152.585C63.6363 152.585 64.7897 147.682 69.095 141.868C73.395 136.054 77.379 134.445 77.379 134.445C77.379 134.445 73.395 132.833 69.095 127.021" fill="#EC1C24"/>
<path fill-rule="evenodd" clip-rule="evenodd" d="M7.56384 10.0326H9.89984V31.7552H7.56384V10.0326ZM16.3332 9.76458C12.6932 9.76458 12.1212 13.4419 12.1212 13.4419V28.0392C12.2758 29.1886 13.3105 31.7179 16.4852 31.7179C19.6652 31.7179 20.5825 28.6912 20.5825 27.8872V13.9806C20.5825 11.7579 18.7038 9.76458 16.3332 9.76458V9.76458ZM16.4105 12.2939C17.4438 12.2939 18.0558 13.2913 18.0558 14.2499V27.7326C18.0558 28.1926 17.4092 29.3419 16.4105 29.3419C15.4158 29.3419 14.6465 28.5779 14.6465 27.8486V13.9433C14.6465 13.9433 14.6145 12.2939 16.4105 12.2939" fill="#EC1C24"/>
<path fill-rule="evenodd" clip-rule="evenodd" d="M119.71 183.212H117.374V161.49H119.71V183.212ZM110.943 183.48C114.58 183.48 115.152 179.802 115.152 179.802V165.208C114.998 164.058 113.966 161.53 110.788 161.53C107.608 161.53 106.691 164.554 106.691 165.358V179.266C106.691 181.487 108.57 183.48 110.943 183.48V183.48ZM110.864 180.951C109.83 180.951 109.218 179.954 109.218 178.998V165.514C109.218 165.052 109.864 163.902 110.864 163.902C111.86 163.902 112.627 164.667 112.627 165.396V179.304C112.627 179.304 112.659 180.951 110.864 180.951Z" fill="#EC1C24"/>
<path d="M14.3802 36.7038C14.3802 36.7038 16.2709 42.6811 20.6469 45.0931C20.6469 45.0931 16.3335 47.3104 14.3802 53.4144C12.4309 47.3104 8.11353 45.0931 8.11353 45.0931C12.4895 42.6811 14.3802 36.7038 14.3802 36.7038Z" fill="#EC1C24"/>
<path d="M112.891 156.542C112.891 156.542 111.003 150.569 106.627 148.154C106.627 148.154 110.94 145.94 112.891 139.832C114.843 145.94 119.16 148.154 119.16 148.154C114.784 150.569 112.891 156.542 112.891 156.542Z" fill="#EC1C24"/>
<path d="M126.305 185.68C126.305 189.322 123.351 192.273 119.71 192.273" stroke="#EB008B" stroke-width="0.333333" stroke-miterlimit="2.613"/>
<path d="M119.71 192.273H7.56421" stroke="#EB008B" stroke-width="0.333333" stroke-miterlimit="2.613"/>
<path d="M7.5639 192.273C3.92257 192.273 0.969238 189.323 0.969238 185.68" stroke="#EB008B" stroke-width="0.333333" stroke-miterlimit="2.613"/>
<path d="M0.96875 185.68V7.56774" stroke="#EB008B" stroke-width="0.333333" stroke-miterlimit="2.613"/>
<path d="M0.96875 7.56775C0.96875 3.92375 3.92208 0.970416 7.56342 0.970416" stroke="#EB008B" stroke-width="0.333333" stroke-miterlimit="2.613"/>
<path d="M7.56384 0.970703H119.709" stroke="#EB008B" stroke-width="0.333333" stroke-miterlimit="2.613"/>
<path d="M119.709 0.970721C123.351 0.970721 126.304 3.92272 126.304 7.56805" stroke="#EB008B" stroke-width="0.333333" stroke-miterlimit="2.613"/>
<path d="M126.305 7.56768V185.68" stroke="#EB008B" stroke-width="0.333333" stroke-miterlimit="2.613"/>
</svg>
