<svg width="134" height="205" viewBox="0 0 134 205" fill="none" xmlns="http://www.w3.org/2000/svg">
<path d="M126.451 203.974H7.49854" stroke="#EB008B" stroke-width="0.333333" stroke-miterlimit="2.613"/>
<path d="M0.5 196.977V8.05389" stroke="#EB008B" stroke-width="0.333333" stroke-miterlimit="2.613"/>
<path d="M37.7082 30.2285C38.2015 30.2285 38.1549 29.8845 38.3042 28.5565C38.4522 27.2285 40.0535 23.6218 44.7029 24.0298C46.7509 24.2005 51.6935 26.8845 51.0015 32.9325C50.7349 35.2498 50.2589 36.9685 47.2322 41.5925C46.7695 42.2952 41.7282 49.9565 37.7082 56.4512C33.6922 49.9565 28.6402 42.2952 28.1815 41.5925C25.1549 36.9685 24.6789 35.2498 24.4069 32.9325C23.7135 26.8845 28.6602 24.2005 30.7082 24.0298C35.3602 23.6218 36.9589 27.2285 37.1069 28.5565C37.2575 29.8845 37.2109 30.2285 37.7082 30.2285Z" fill="#EC1C24"/>
<path d="M96.2486 30.2285C96.7433 30.2285 96.6939 29.8845 96.8446 28.5565C96.9913 27.2285 98.5926 23.6218 103.243 24.0298C105.291 24.2005 110.235 26.8845 109.541 32.9325C109.277 35.2498 108.799 36.9685 105.774 41.5925C105.31 42.2952 100.267 49.9565 96.2486 56.4512C92.2326 49.9565 87.1819 42.2952 86.7219 41.5925C83.6966 36.9685 83.2193 35.2498 82.9486 32.9325C82.2539 26.8845 87.2019 24.2005 89.2499 24.0298C93.9006 23.6218 95.5006 27.2285 95.6473 28.5565C95.7979 29.8845 95.7526 30.2285 96.2486 30.2285Z" fill="#EC1C24"/>
<path d="M37.7082 71.7449C38.2015 71.7449 38.1549 71.3995 38.3042 70.0742C38.4522 68.7449 40.0535 65.1382 44.7029 65.5475C46.7509 65.7195 51.6935 68.4009 51.0015 74.4502C50.7349 76.7675 50.2589 78.4862 47.2322 83.1102C46.7695 83.8129 41.7282 91.4742 37.7082 97.9662C33.6922 91.4742 28.6402 83.8129 28.1815 83.1102C25.1549 78.4862 24.6789 76.7675 24.4069 74.4502C23.7135 68.4009 28.6602 65.7195 30.7082 65.5475C35.3602 65.1382 36.9589 68.7449 37.1069 70.0742C37.2575 71.3995 37.2109 71.7449 37.7082 71.7449Z" fill="#EC1C24"/>
<path d="M96.2486 71.7449C96.7433 71.7449 96.6939 71.3995 96.8446 70.0742C96.9913 68.7449 98.5926 65.1382 103.243 65.5475C105.291 65.7195 110.235 68.4009 109.541 74.4502C109.277 76.7675 108.799 78.4862 105.774 83.1102C105.31 83.8129 100.267 91.4742 96.2486 97.9662C92.2326 91.4742 87.1819 83.8129 86.7219 83.1102C83.6966 78.4862 83.2193 76.7675 82.9486 74.4502C82.2539 68.4009 87.2019 65.7195 89.2499 65.5475C93.9006 65.1382 95.5006 68.7449 95.6473 70.0742C95.7979 71.3995 95.7526 71.7449 96.2486 71.7449Z" fill="#EC1C24"/>
<path d="M96.2409 174.802C95.7449 174.802 95.7943 175.146 95.6449 176.471C95.4983 177.802 93.8969 181.406 89.2476 180.999C87.1969 180.829 82.2543 178.146 82.9489 172.097C83.2129 169.778 83.6916 168.062 86.7169 163.437C87.1796 162.734 92.2223 155.071 96.2409 148.579C100.257 155.071 105.306 162.734 105.768 163.437C108.794 168.062 109.27 169.778 109.541 172.097C110.236 178.146 105.288 180.829 103.24 180.999C98.5876 181.406 96.9889 177.802 96.8409 176.471C96.6903 175.146 96.7369 174.802 96.2409 174.802Z" fill="#EC1C24"/>
<path d="M37.6992 174.802C37.2059 174.802 37.2525 175.146 37.1045 176.471C36.9565 177.802 35.3552 181.406 30.7059 180.999C28.6552 180.829 23.7139 178.146 24.4072 172.097C24.6725 169.778 25.1499 168.062 28.1765 163.437C28.6379 162.734 33.6805 155.071 37.6992 148.579C41.7152 155.071 46.7685 162.734 47.2259 163.437C50.2525 168.062 50.7299 169.778 51.0019 172.097C51.6939 178.146 46.7472 180.829 44.6979 180.999C40.0485 181.406 38.4472 177.802 38.3005 176.471C38.1499 175.146 38.1952 174.802 37.6992 174.802Z" fill="#EC1C24"/>
<path d="M96.2409 133.285C95.7449 133.285 95.7943 133.628 95.6449 134.955C95.4983 136.285 93.8969 139.891 89.2476 139.483C87.1969 139.312 82.2543 136.629 82.9489 130.579C83.2129 128.261 83.6916 126.544 86.7169 121.92C87.1796 121.217 92.2223 113.555 96.2409 107.063C100.257 113.555 105.306 121.217 105.768 121.92C108.794 126.544 109.27 128.261 109.541 130.579C110.236 136.629 105.288 139.312 103.24 139.483C98.5876 139.891 96.9889 136.285 96.8409 134.955C96.6903 133.628 96.7369 133.285 96.2409 133.285Z" fill="#EC1C24"/>
<path d="M37.6992 133.285C37.2059 133.285 37.2525 133.628 37.1045 134.955C36.9565 136.285 35.3552 139.891 30.7059 139.483C28.6552 139.312 23.7139 136.629 24.4072 130.579C24.6725 128.261 25.1499 126.544 28.1765 121.92C28.6379 121.217 33.6805 113.555 37.6992 107.063C41.7152 113.555 46.7685 121.217 47.2259 121.92C50.2525 126.544 50.7299 128.261 51.0019 130.579C51.6939 136.629 46.7472 139.312 44.6979 139.483C40.0485 139.891 38.4472 136.285 38.3005 134.955C38.1499 133.628 38.1952 133.285 37.6992 133.285Z" fill="#EC1C24"/>
<path d="M66.979 50.9869C67.4723 50.9869 67.4256 50.6429 67.575 49.3149C67.7203 47.9869 69.3216 44.3803 73.9723 44.7883C76.0216 44.9603 80.9643 47.6416 80.271 53.6909C80.0056 56.0096 79.5296 57.7269 76.503 62.3523C76.0403 63.0536 70.9976 70.7149 66.979 77.2096C62.963 70.7149 57.911 63.0536 57.451 62.3523C54.4256 57.7269 53.9483 56.0096 53.6776 53.6909C52.9843 47.6416 57.931 44.9603 59.979 44.7883C64.6296 44.3803 66.2296 47.9869 66.3763 49.3149C66.5283 50.6429 66.4816 50.9869 66.979 50.9869Z" fill="#EC1C24"/>
<path d="M66.9699 154.044C66.4753 154.044 66.5233 154.388 66.3753 155.715C66.2273 157.044 64.6259 160.648 59.9766 160.242C57.9259 160.071 52.9846 157.388 53.6779 151.338C53.9433 149.02 54.4206 147.303 57.4473 142.679C57.9086 141.976 62.9513 134.315 66.9699 127.822C70.9859 134.315 76.0379 141.976 76.4966 142.679C79.5233 147.303 79.9993 149.02 80.2713 151.338C80.9646 157.388 76.0166 160.071 73.9686 160.242C69.3193 160.648 67.7179 157.044 67.5699 155.715C67.4206 154.388 67.4673 154.044 66.9699 154.044Z" fill="#EC1C24"/>
<path fill-rule="evenodd" clip-rule="evenodd" d="M7.49854 10.668H9.97587V33.7094H7.49854V10.668ZM16.7999 10.384C12.9372 10.384 12.3319 14.2854 12.3319 14.2854V29.7667C12.4959 30.9867 13.5892 33.6693 16.9625 33.6693C20.3319 33.6693 21.3052 30.46 21.3052 29.6067V14.8547C21.3052 12.4987 19.3159 10.384 16.7999 10.384V10.384ZM16.8825 13.068C17.9745 13.068 18.6252 14.1253 18.6252 15.14V29.4427C18.6252 29.9307 17.9385 31.1507 16.8825 31.1507C15.8252 31.1507 15.0105 30.3413 15.0105 29.5667V14.8147C15.0105 14.8147 14.9745 13.068 16.8825 13.068" fill="#EC1C24"/>
<path fill-rule="evenodd" clip-rule="evenodd" d="M126.45 194.361H123.973V171.321H126.45V194.361ZM117.152 194.645C121.01 194.645 121.616 190.745 121.616 190.745V175.263C121.452 174.045 120.358 171.361 116.988 171.361C113.616 171.361 112.642 174.567 112.642 175.425V190.174C112.642 192.531 114.634 194.645 117.152 194.645V194.645ZM117.068 191.962C115.972 191.962 115.321 190.905 115.321 189.889V175.589C115.321 175.097 116.009 173.879 117.068 173.879C118.126 173.879 118.94 174.69 118.94 175.463V190.214C118.94 190.214 118.973 191.962 117.068 191.962" fill="#EC1C24"/>
<path d="M14.4947 41.9025C14.732 41.9025 14.7067 41.7371 14.7787 41.1065C14.8493 40.4771 15.6053 38.7638 17.8067 38.9585C18.7787 39.0398 21.1213 40.3131 20.7933 43.1865C20.6653 44.2851 20.4387 45.1011 19.0067 47.2971C18.7893 47.6291 16.3987 51.2678 14.4947 54.3518C12.5933 51.2678 10.2013 47.6291 9.98266 47.2971C8.548 45.1011 8.32266 44.2851 8.196 43.1865C7.86667 40.3131 10.2107 39.0398 11.18 38.9585C13.3813 38.7638 14.14 40.4771 14.212 41.1065C14.2827 41.7371 14.26 41.9025 14.4947 41.9025Z" fill="#EC1C24"/>
<path d="M119.453 163.133C119.218 163.133 119.242 163.293 119.172 163.924C119.101 164.554 118.342 166.266 116.141 166.073C115.169 165.993 112.828 164.718 113.156 161.846C113.282 160.746 113.509 159.93 114.944 157.734C115.161 157.401 117.549 153.766 119.453 150.68C121.356 153.766 123.746 157.401 123.966 157.734C125.398 159.93 125.626 160.746 125.753 161.846C126.08 164.718 123.74 165.993 122.766 166.073C120.566 166.266 119.808 164.554 119.737 163.924C119.666 163.293 119.686 163.133 119.453 163.133Z" fill="#EC1C24"/>
<path d="M133.447 196.977C133.447 200.843 130.315 203.974 126.451 203.974" stroke="#EB008B" stroke-width="0.333333" stroke-miterlimit="2.613"/>
<path d="M7.49867 203.974C3.63467 203.974 0.5 200.843 0.5 196.977" stroke="#EB008B" stroke-width="0.333333" stroke-miterlimit="2.613"/>
<path d="M0.5 8.05408C0.5 4.18874 3.63467 1.05674 7.49867 1.05674" stroke="#EB008B" stroke-width="0.333333" stroke-miterlimit="2.613"/>
<path d="M7.49854 1.05676H126.451" stroke="#EB008B" stroke-width="0.333333" stroke-miterlimit="2.613"/>
<path d="M126.45 1.05674C130.314 1.05674 133.446 4.18874 133.446 8.05408" stroke="#EB008B" stroke-width="0.333333" stroke-miterlimit="2.613"/>
<path d="M133.447 8.05401V196.977" stroke="#EB008B" stroke-width="0.333333" stroke-miterlimit="2.613"/>
</svg>
