<svg width="133" height="203" viewBox="0 0 133 203" fill="none" xmlns="http://www.w3.org/2000/svg">
<path fill-rule="evenodd" clip-rule="evenodd" d="M36.8451 22.101C36.8451 22.101 34.3717 27.3583 30.1637 32.9023C25.6371 38.8583 23.2731 42.2356 23.2731 46.6956C23.2731 50.473 26.2291 52.9183 29.0091 52.9183C31.8464 52.9183 33.6917 51.8903 34.6531 48.2063C35.0464 46.7116 35.8811 47.0063 35.6624 48.6343C35.4011 50.557 35.3824 54.7396 32.2744 58.517H41.4131C38.3077 54.7396 38.2877 50.557 38.0251 48.6343C37.8064 47.0063 38.6411 46.7116 39.0304 48.2063C39.9957 51.8903 41.8424 52.9183 44.6784 52.9183C47.4557 52.9183 50.4117 50.473 50.4117 46.6956C50.4117 42.2356 48.0477 38.8583 43.5264 32.9023C39.3157 27.3583 36.8451 22.101 36.8451 22.101Z" fill="#231F20"/>
<path fill-rule="evenodd" clip-rule="evenodd" d="M95.7604 22.101C95.7604 22.101 93.2884 27.3583 89.0777 32.9023C84.5537 38.8583 82.1897 42.2356 82.1897 46.6956C82.1897 50.473 85.1444 52.9183 87.9257 52.9183C90.763 52.9183 92.6057 51.8903 93.571 48.2063C93.9617 46.7116 94.7977 47.0063 94.5764 48.6343C94.3164 50.557 94.2964 54.7396 91.191 58.517H100.327C97.2204 54.7396 97.203 50.557 96.9417 48.6343C96.7204 47.0063 97.555 46.7116 97.9484 48.2063C98.9097 51.8903 100.755 52.9183 103.594 52.9183C106.374 52.9183 109.328 50.473 109.328 46.6956C109.328 42.2356 106.964 38.8583 102.44 32.9023C98.2324 27.3583 95.7604 22.101 95.7604 22.101Z" fill="#231F20"/>
<path fill-rule="evenodd" clip-rule="evenodd" d="M36.8451 63.1576C36.8451 63.1576 34.3717 68.4163 30.1637 73.9576C25.6371 79.915 23.2731 83.2923 23.2731 87.751C23.2731 91.531 26.2291 93.975 29.0091 93.975C31.8464 93.975 33.6917 92.9483 34.6531 89.2643C35.0464 87.7683 35.8811 88.0643 35.6624 89.691C35.4011 91.6136 35.3824 95.7976 32.2744 99.575H41.4131C38.3077 95.7976 38.2877 91.6136 38.0251 89.691C37.8064 88.0643 38.6411 87.7683 39.0304 89.2643C39.9957 92.9483 41.8424 93.975 44.6784 93.975C47.4557 93.975 50.4117 91.531 50.4117 87.751C50.4117 83.2923 48.0477 79.915 43.5264 73.9576C39.3157 68.4163 36.8451 63.1576 36.8451 63.1576Z" fill="#231F20"/>
<path fill-rule="evenodd" clip-rule="evenodd" d="M95.7604 63.1576C95.7604 63.1576 93.2884 68.4163 89.0777 73.9576C84.5537 79.915 82.1897 83.2923 82.1897 87.751C82.1897 91.531 85.1444 93.975 87.9257 93.975C90.763 93.975 92.6057 92.9483 93.571 89.2643C93.9617 87.7683 94.7977 88.0643 94.5764 89.691C94.3164 91.6136 94.2964 95.7976 91.191 99.575H100.327C97.2204 95.7976 97.203 91.6136 96.9417 89.691C96.7204 88.0643 97.555 87.7683 97.9484 89.2643C98.9097 92.9483 100.755 93.975 103.594 93.975C106.374 93.975 109.328 91.531 109.328 87.751C109.328 83.2923 106.964 79.915 102.44 73.9576C98.2324 68.4163 95.7604 63.1576 95.7604 63.1576Z" fill="#231F20"/>
<path fill-rule="evenodd" clip-rule="evenodd" d="M95.7604 181.684C95.7604 181.684 98.2324 176.427 102.442 170.883C106.966 164.927 109.33 161.551 109.33 157.091C109.33 153.312 106.374 150.868 103.594 150.868C100.755 150.868 98.9124 151.896 97.9484 155.58C97.5564 157.074 96.7217 156.779 96.9417 155.151C97.203 153.23 97.223 149.047 100.327 145.27H91.191C94.2964 149.047 94.3164 153.23 94.5777 155.151C94.7977 156.779 93.9644 157.074 93.571 155.58C92.607 151.896 90.763 150.868 87.9257 150.868C85.1444 150.868 82.1897 153.312 82.1897 157.091C82.1897 161.551 84.555 164.927 89.0777 170.883C93.2884 176.427 95.7604 181.684 95.7604 181.684Z" fill="#231F20"/>
<path fill-rule="evenodd" clip-rule="evenodd" d="M36.8451 181.684C36.8451 181.684 39.3171 176.427 43.5264 170.883C48.0477 164.927 50.4117 161.551 50.4117 157.091C50.4117 153.312 47.4571 150.868 44.6784 150.868C41.8424 150.868 39.9984 151.896 39.0317 155.58C38.6411 157.074 37.8064 156.779 38.0264 155.151C38.2877 153.23 38.3077 149.047 41.4131 145.27H32.2757C35.3824 149.047 35.4011 153.23 35.6624 155.151C35.8837 156.779 35.0477 157.074 34.6557 155.58C33.6944 151.896 31.8477 150.868 29.0091 150.868C26.2291 150.868 23.2744 153.312 23.2744 157.091C23.2744 161.551 25.6384 164.927 30.1637 170.883C34.3731 176.427 36.8451 181.684 36.8451 181.684Z" fill="#231F20"/>
<path fill-rule="evenodd" clip-rule="evenodd" d="M95.7604 140.629C95.7604 140.629 98.2324 135.372 102.442 129.829C106.966 123.873 109.33 120.494 109.33 116.037C109.33 112.258 106.374 109.813 103.594 109.813C100.755 109.813 98.9124 110.842 97.9484 114.525C97.5564 116.02 96.7217 115.725 96.9417 114.097C97.203 112.176 97.223 107.99 100.327 104.214H91.191C94.2964 107.99 94.3164 112.176 94.5777 114.097C94.7977 115.725 93.9644 116.02 93.571 114.525C92.607 110.842 90.763 109.813 87.9257 109.813C85.1444 109.813 82.1897 112.258 82.1897 116.037C82.1897 120.494 84.555 123.873 89.0777 129.829C93.2884 135.372 95.7604 140.629 95.7604 140.629Z" fill="#231F20"/>
<path fill-rule="evenodd" clip-rule="evenodd" d="M36.8451 140.629C36.8451 140.629 39.3171 135.372 43.5264 129.829C48.0477 123.873 50.4117 120.494 50.4117 116.037C50.4117 112.258 47.4571 109.813 44.6784 109.813C41.8424 109.813 39.9984 110.842 39.0317 114.525C38.6411 116.02 37.8064 115.725 38.0264 114.097C38.2877 112.176 38.3077 107.99 41.4131 104.214H32.2757C35.3824 107.99 35.4011 112.176 35.6624 114.097C35.8837 115.725 35.0477 116.02 34.6557 114.525C33.6944 110.842 31.8477 109.813 29.0091 109.813C26.2291 109.813 23.2744 112.258 23.2744 116.037C23.2744 120.494 25.6384 123.873 30.1637 129.829C34.3731 135.372 36.8451 140.629 36.8451 140.629Z" fill="#231F20"/>
<path fill-rule="evenodd" clip-rule="evenodd" d="M66.3007 42.6283C66.3007 42.6283 63.83 47.8857 59.6193 53.4297C55.0967 59.3857 52.7327 62.763 52.7327 67.2243C52.7327 71.0017 55.6887 73.447 58.4687 73.447C61.3047 73.447 63.15 72.4177 64.114 68.735C64.506 67.2403 65.342 67.5363 65.1193 69.1643C64.858 71.0857 64.838 75.267 61.734 79.0457H70.8687C67.7647 75.267 67.746 71.0857 67.4847 69.1643C67.262 67.5363 68.0967 67.2403 68.4913 68.735C69.4513 72.4177 71.298 73.447 74.1353 73.447C76.914 73.447 79.87 71.0017 79.87 67.2243C79.87 62.763 77.5047 59.3857 72.982 53.4297C68.7727 47.8857 66.3007 42.6283 66.3007 42.6283Z" fill="#231F20"/>
<path fill-rule="evenodd" clip-rule="evenodd" d="M66.3007 161.157C66.3007 161.157 68.7727 155.898 72.9847 150.356C77.5073 144.401 79.8727 141.022 79.8727 136.564C79.8727 132.786 76.914 130.34 74.1353 130.34C71.298 130.34 69.4553 131.37 68.4913 135.052C68.0967 136.548 67.2647 136.252 67.4847 134.624C67.7473 132.701 67.766 128.518 70.8687 124.741H61.734C64.838 128.518 64.858 132.701 65.1193 134.624C65.342 136.252 64.5073 136.548 64.114 135.052C63.15 131.37 61.3047 130.34 58.4687 130.34C55.6887 130.34 52.7327 132.786 52.7327 136.564C52.7327 141.022 55.098 144.401 59.6233 150.356C63.83 155.898 66.3007 161.157 66.3007 161.157Z" fill="#231F20"/>
<path fill-rule="evenodd" clip-rule="evenodd" d="M7.15356 10.5529H9.61756V33.4675H7.15356V10.5529ZM16.4029 10.2702C12.5642 10.2702 11.9602 14.1502 11.9602 14.1502V29.5462C12.1256 30.7582 13.2122 33.4262 16.5656 33.4262C19.9176 33.4262 20.8856 30.2355 20.8856 29.3862V14.7169C20.8856 12.3729 18.9042 10.2702 16.4029 10.2702V10.2702ZM16.4856 12.9382C17.5736 12.9382 18.2216 13.9902 18.2216 14.9995V29.2235C18.2216 29.7089 17.5349 30.9209 16.4856 30.9209C15.4349 30.9209 14.6256 30.1155 14.6256 29.3475V14.6769C14.6256 14.6769 14.5909 12.9382 16.4856 12.9382" fill="#231F20"/>
<path d="M120.564 149.602C119.368 150.83 119.171 153.197 119.105 153.769C119.041 154.34 119.193 154.466 119.3 154.488C119.411 154.508 119.532 154.313 119.585 154.042C119.845 152.733 120.799 152.18 121.261 152.1C123.417 151.717 124.131 153.138 124.332 153.514C125.44 155.586 122.96 158.809 122.547 159.308C120.224 162.116 118.583 165.144 118.583 165.144C118.583 165.144 116.947 162.116 114.623 159.308C114.207 158.809 111.725 155.586 112.836 153.514C113.036 153.138 113.752 151.717 115.905 152.1C116.369 152.18 117.321 152.733 117.583 154.042C117.637 154.313 117.756 154.508 117.867 154.488C117.975 154.466 118.128 154.34 118.063 153.769C117.996 153.197 117.8 150.83 116.601 149.602H120.564Z" fill="#231F20"/>
<path fill-rule="evenodd" clip-rule="evenodd" d="M125.45 193.232H122.985V170.32H125.45V193.232ZM116.201 193.516C120.038 193.516 120.644 189.636 120.644 189.636V174.24C120.478 173.026 119.39 170.36 116.04 170.36C112.686 170.36 111.717 173.549 111.717 174.4V189.07C111.717 191.413 113.7 193.516 116.201 193.516V193.516ZM116.118 190.846C115.03 190.846 114.384 189.794 114.384 188.786V174.562C114.384 174.076 115.068 172.865 116.118 172.865C117.17 172.865 117.978 173.67 117.978 174.44V189.108C117.978 189.108 118.014 190.846 116.118 190.846" fill="#231F20"/>
<path d="M132.408 195.835C132.408 199.68 129.294 202.795 125.45 202.795" stroke="#EB008B" stroke-width="0.333333" stroke-miterlimit="2.613"/>
<path d="M125.451 202.794H7.1532" stroke="#EB008B" stroke-width="0.333333" stroke-miterlimit="2.613"/>
<path d="M7.15361 202.794C3.30961 202.794 0.194946 199.68 0.194946 195.834" stroke="#EB008B" stroke-width="0.333333" stroke-miterlimit="2.613"/>
<path d="M0.195312 195.835V7.95206" stroke="#EB008B" stroke-width="0.333333" stroke-miterlimit="2.613"/>
<path d="M0.195312 7.9519C0.195312 4.10924 3.30998 0.993238 7.15398 0.993238" stroke="#EB008B" stroke-width="0.333333" stroke-miterlimit="2.613"/>
<path d="M7.15356 0.99353H125.451" stroke="#EB008B" stroke-width="0.333333" stroke-miterlimit="2.613"/>
<path d="M125.45 0.993482C129.294 0.993482 132.408 4.10815 132.408 7.95215" stroke="#EB008B" stroke-width="0.333333" stroke-miterlimit="2.613"/>
<path d="M132.408 7.95194V195.835" stroke="#EB008B" stroke-width="0.333333" stroke-miterlimit="2.613"/>
</svg>
