<svg width="134" height="203" viewBox="0 0 134 203" fill="none" xmlns="http://www.w3.org/2000/svg">
<path d="M62.336 57.2656C66.5027 52.1696 65.5947 44.6936 65.5947 44.6936C64.972 48.1403 61.5027 50.191 60.0827 50.4203C55.1013 51.2456 52.728 47.5843 52.4187 47.0243C49.016 40.9056 53.9787 37.0843 54.7187 36.6336C59.2213 33.8683 62.864 37.023 62.864 37.023C63.532 37.1683 63.1493 36.3443 63.1493 36.3443C59.412 34.3043 59.2293 30.847 59.3653 29.6936C60.2253 22.799 67.0067 22.9563 67.0067 22.9563C67.0067 22.9563 73.78 22.799 74.6387 29.6936C74.7747 30.847 74.592 34.3043 70.8547 36.3443C70.8547 36.3443 70.472 37.1683 71.1427 37.023C71.1427 37.023 74.7813 33.8683 79.2867 36.6336C80.0267 37.0843 84.988 40.9056 81.5867 47.0243C81.2733 47.5843 78.9013 51.2456 73.9213 50.4203C72.5013 50.191 69.0333 48.1403 68.412 44.6936C68.412 44.6936 67.5027 52.1696 71.6693 57.2656H62.336Z" fill="#231F20"/>
<path d="M71.6693 145.357C67.5027 150.454 68.4107 157.93 68.4107 157.93C69.0333 154.482 72.5013 152.431 73.9213 152.201C78.9013 151.375 81.2773 155.037 81.5853 155.599C84.988 161.715 80.0267 165.537 79.2853 165.989C74.7813 168.754 71.1427 165.599 71.1427 165.599C70.4733 165.457 70.8547 166.278 70.8547 166.278C74.592 168.317 74.7747 171.775 74.6387 172.929C73.7773 179.822 66.9973 179.667 66.9973 179.667C66.9973 179.667 60.2253 179.822 59.3653 172.929C59.2293 171.775 59.4133 168.317 63.1507 166.278C63.1507 166.278 63.532 165.457 62.864 165.599C62.864 165.599 59.2213 168.754 54.7173 165.989C53.9787 165.537 49.016 161.715 52.4187 155.599C52.732 155.037 55.104 151.375 60.084 152.201C61.504 152.431 64.9707 154.482 65.5933 157.93C65.5933 157.93 66.5027 150.454 62.3347 145.357H71.6693Z" fill="#231F20"/>
<path d="M125.479 185.456C125.479 185.456 126.705 188.418 124.645 190.79C124.096 191.424 121.455 194.1 116.548 192.224C115.297 191.744 112.084 189.654 113.163 185.406C113.325 184.77 113.212 182.541 117.677 179.577C118.496 179.038 121.799 176.712 122.976 172.317H115.665V175.478H113.016V169.698H126.116C126.116 169.698 126.46 174.242 122.388 178.886C121.999 179.326 119.443 181.801 118.119 182.64C117.319 183.145 115.372 184.568 115.764 187.333C115.845 187.921 116.155 189.654 118.511 190C119.392 190.129 121.407 190.394 122.585 188.716C122.783 188.425 123.223 187.333 123.075 186.148L125.479 185.456Z" fill="#231F20"/>
<path d="M8.52668 17.166C8.52668 17.166 7.30001 14.2007 9.36001 11.8313C9.90934 11.198 12.5507 8.52201 17.4573 10.398C18.708 10.878 21.9213 12.966 20.8413 17.2153C20.68 17.8513 20.7933 20.0793 16.328 23.0447C15.5093 23.5833 12.2067 25.9087 11.0267 30.3047H18.34V27.1433H20.988V32.9233H7.88801C7.88801 32.9233 7.54401 28.3793 11.6173 23.7353C12.0067 23.2927 14.5613 20.8207 15.8867 19.982C16.6867 19.4767 18.6333 18.054 18.2413 15.2887C18.1573 14.7007 17.848 12.966 15.4947 12.622C14.6133 12.4913 12.5987 12.2247 11.42 13.906C11.2213 14.1953 10.7827 15.2887 10.9307 16.474L8.52668 17.166Z" fill="#231F20"/>
<path d="M121.104 149.184C119.267 151.456 119.665 154.791 119.665 154.791C119.941 153.255 121.471 152.339 122.097 152.236C124.293 151.867 125.339 153.502 125.476 153.751C126.976 156.479 124.787 158.183 124.461 158.384C122.477 159.618 120.871 158.211 120.871 158.211C120.576 158.147 120.744 158.515 120.744 158.515C122.391 159.423 122.472 160.966 122.413 161.48C122.033 164.554 119.044 164.483 119.044 164.483C119.044 164.483 116.059 164.554 115.679 161.48C115.62 160.966 115.7 159.423 117.348 158.515C117.348 158.515 117.519 158.147 117.22 158.211C117.22 158.211 115.616 159.618 113.632 158.384C113.304 158.183 111.117 156.479 112.617 153.751C112.755 153.502 113.799 151.867 115.997 152.236C116.621 152.339 118.151 153.255 118.425 154.791C118.425 154.791 118.827 151.456 116.989 149.184H121.104Z" fill="#231F20"/>
<path d="M12.9011 53.4415C14.7384 51.1695 14.3371 47.8349 14.3371 47.8349C14.0624 49.3722 12.5344 50.2855 11.9077 50.3895C9.71174 50.7562 8.66641 49.1242 8.52907 48.8735C7.02907 46.1455 9.21574 44.4415 9.54241 44.2415C11.5277 43.0069 13.1331 44.4135 13.1331 44.4135C13.4291 44.4789 13.2597 44.1109 13.2597 44.1109C11.6144 43.2015 11.5331 41.6602 11.5917 41.1455C11.9717 38.0709 14.9611 38.1415 14.9611 38.1415C14.9611 38.1415 17.9464 38.0709 18.3264 41.1455C18.3851 41.6602 18.3037 43.2015 16.6571 44.1109C16.6571 44.1109 16.4877 44.4789 16.7837 44.4135C16.7837 44.4135 18.3877 43.0069 20.3731 44.2415C20.6997 44.4415 22.8877 46.1455 21.3877 48.8735C21.2504 49.1242 20.2051 50.7562 18.0077 50.3895C17.3837 50.2855 15.8531 49.3722 15.5797 47.8349C15.5797 47.8349 15.1771 51.1695 17.0157 53.4415H12.9011Z" fill="#231F20"/>
<path d="M133.071 195.199C133.071 199.041 129.958 202.154 126.116 202.154" stroke="#EB008B" stroke-width="0.333333" stroke-miterlimit="2.613"/>
<path d="M126.116 202.154H7.88786" stroke="#EB008B" stroke-width="0.333333" stroke-miterlimit="2.613"/>
<path d="M7.88733 202.154C4.046 202.154 0.932663 199.04 0.932663 195.199" stroke="#EB008B" stroke-width="0.333333" stroke-miterlimit="2.613"/>
<path d="M0.932953 195.199V7.42321" stroke="#EB008B" stroke-width="0.333333" stroke-miterlimit="2.613"/>
<path d="M0.932953 7.42383C0.932953 3.58249 4.04629 0.469162 7.88762 0.469162" stroke="#EB008B" stroke-width="0.333333" stroke-miterlimit="2.613"/>
<path d="M7.88734 0.469482H126.115" stroke="#EB008B" stroke-width="0.333333" stroke-miterlimit="2.613"/>
<path d="M126.116 0.469528C129.957 0.469528 133.071 3.58153 133.071 7.42419" stroke="#EB008B" stroke-width="0.333333" stroke-miterlimit="2.613"/>
<path d="M133.071 7.42382V195.2" stroke="#EB008B" stroke-width="0.333333" stroke-miterlimit="2.613"/>
</svg>
