<svg width="127" height="193" viewBox="0 0 127 193" fill="none" xmlns="http://www.w3.org/2000/svg">
<path fill-rule="evenodd" clip-rule="evenodd" d="M68.8471 32.4167C64.5431 26.6033 63.3898 21.698 63.3898 21.698C63.3898 21.698 62.2364 26.6033 57.9324 32.4167C53.6298 38.2287 49.6471 39.8393 49.6471 39.8393C49.6471 39.8393 53.6298 41.4487 57.9324 47.2633C62.2364 53.0767 63.3898 57.9807 63.3898 57.9807C63.3898 57.9807 64.5431 53.0767 68.8471 47.2633C73.1484 41.4487 77.1338 39.8393 77.1338 39.8393C77.1338 39.8393 73.1484 38.2287 68.8471 32.4167" fill="#EC1C24"/>
<path fill-rule="evenodd" clip-rule="evenodd" d="M68.8471 145.88C64.5431 140.068 63.3898 135.162 63.3898 135.162C63.3898 135.162 62.2364 140.068 57.9324 145.88C53.6298 151.693 49.6471 153.304 49.6471 153.304C49.6471 153.304 53.6298 154.913 57.9324 160.728C62.2364 166.541 63.3898 171.444 63.3898 171.444C63.3898 171.444 64.5431 166.541 68.8471 160.728C73.1484 154.913 77.1338 153.304 77.1338 153.304C77.1338 153.304 73.1484 151.693 68.8471 145.88" fill="#EC1C24"/>
<path d="M118.856 176.386C118.856 176.386 120.02 179.198 118.064 181.446C117.545 182.048 115.039 184.587 110.385 182.807C109.199 182.352 106.151 180.371 107.175 176.34C107.328 175.736 107.221 173.623 111.456 170.811C112.233 170.299 115.365 168.094 116.483 163.923H109.548V166.92H107.035V161.44H119.461C119.461 161.44 119.788 165.751 115.924 170.156C115.553 170.574 113.132 172.919 111.876 173.716C111.116 174.194 109.268 175.544 109.641 178.167C109.719 178.723 110.013 180.371 112.247 180.698C113.081 180.82 114.995 181.072 116.111 179.478C116.3 179.204 116.716 178.167 116.576 177.042L118.856 176.386Z" fill="#EC1C24"/>
<path d="M7.92252 16.7566C7.92252 16.7566 6.75852 13.9446 8.71452 11.6966C9.23452 11.0966 11.7385 8.55791 16.3932 10.3379C17.5812 10.7912 20.6292 12.7739 19.6052 16.8032C19.4505 17.4059 19.5585 19.5219 15.3238 22.3326C14.5465 22.8459 11.4132 25.0499 10.2972 29.2192H17.2305V26.2219H19.7438V31.7032H7.31718C7.31718 31.7032 6.99185 27.3926 10.8558 22.9886C11.2238 22.5699 13.6478 20.2246 14.9038 19.4272C15.6625 18.9512 17.5092 17.5992 17.1385 14.9766C17.0598 14.4206 16.7665 12.7739 14.5318 12.4459C13.6972 12.3232 11.7852 12.0712 10.6692 13.6646C10.4798 13.9379 10.0625 14.9766 10.2038 16.1006L7.92252 16.7566Z" fill="#EC1C24"/>
<path d="M14.1341 36.6529C14.1341 36.6529 16.0248 42.6303 20.4008 45.0423C20.4008 45.0423 16.0861 47.2583 14.1341 53.3649C12.1848 47.2583 7.86609 45.0423 7.86609 45.0423C12.2434 42.6303 14.1341 36.6529 14.1341 36.6529Z" fill="#EC1C24"/>
<path d="M112.644 156.492C112.644 156.492 110.755 150.516 106.377 148.102C106.377 148.102 110.693 145.886 112.644 139.781C114.596 145.886 118.912 148.102 118.912 148.102C114.536 150.516 112.644 156.492 112.644 156.492Z" fill="#EC1C24"/>
<path d="M126.059 185.627C126.059 189.271 123.104 192.223 119.461 192.223" stroke="#EB008B" stroke-width="0.333333" stroke-miterlimit="2.613"/>
<path d="M119.462 192.223H7.31628" stroke="#EB008B" stroke-width="0.333333" stroke-miterlimit="2.613"/>
<path d="M7.31645 192.223C3.67378 192.223 0.719116 189.271 0.719116 185.627" stroke="#EB008B" stroke-width="0.333333" stroke-miterlimit="2.613"/>
<path d="M0.719482 185.627V7.51629" stroke="#EB008B" stroke-width="0.333333" stroke-miterlimit="2.613"/>
<path d="M0.719482 7.5163C0.719482 3.8723 3.67415 0.918964 7.31682 0.918964" stroke="#EB008B" stroke-width="0.333333" stroke-miterlimit="2.613"/>
<path d="M7.31641 0.919373H119.462" stroke="#EB008B" stroke-width="0.333333" stroke-miterlimit="2.613"/>
<path d="M119.462 0.919391C123.104 0.919391 126.059 3.87272 126.059 7.51672" stroke="#EB008B" stroke-width="0.333333" stroke-miterlimit="2.613"/>
<path d="M126.059 7.51629V185.627" stroke="#EB008B" stroke-width="0.333333" stroke-miterlimit="2.613"/>
</svg>
