<svg width="134" height="205" viewBox="0 0 134 205" fill="none" xmlns="http://www.w3.org/2000/svg">
<path d="M66.8783 30.1849C67.3729 30.1849 67.3249 29.8409 67.4743 28.5129C67.6209 27.1849 69.2209 23.5783 73.8729 23.9863C75.9209 24.1569 80.8649 26.8409 80.1703 32.8903C79.9049 35.2076 79.4276 36.9249 76.4023 41.5489C75.9383 42.2516 70.8956 49.9143 66.8783 56.4076C62.8623 49.9143 57.8116 42.2516 57.3516 41.5489C54.3249 36.9249 53.8476 35.2076 53.5783 32.8903C52.8836 26.8409 57.8303 24.1569 59.8796 23.9863C64.5303 23.5783 66.1303 27.1849 66.2769 28.5129C66.4289 29.8409 66.3809 30.1849 66.8783 30.1849Z" fill="#EC1C24"/>
<path d="M66.8703 174.758C66.3743 174.758 66.4237 175.102 66.2743 176.43C66.1277 177.758 64.525 181.363 59.8757 180.957C57.825 180.786 52.8837 178.102 53.5783 172.053C53.8423 169.734 54.3183 168.018 57.3463 163.393C57.8077 162.691 62.8503 155.03 66.8703 148.535C70.885 155.03 75.937 162.691 76.3957 163.393C79.4223 168.018 79.8997 169.734 80.1703 172.053C80.865 178.102 75.9157 180.786 73.869 180.957C69.2183 181.363 67.6183 177.758 67.4717 176.43C67.3197 175.102 67.3677 174.758 66.8703 174.758Z" fill="#EC1C24"/>
<path d="M125.708 187.131C125.708 187.131 126.943 190.113 124.87 192.498C124.316 193.135 121.66 195.829 116.723 193.939C115.464 193.459 112.232 191.355 113.316 187.081C113.48 186.442 113.366 184.198 117.859 181.218C118.682 180.674 122.006 178.335 123.19 173.91H115.835V177.093H113.168V171.277H126.35C126.35 171.277 126.695 175.85 122.599 180.521C122.207 180.965 119.635 183.454 118.303 184.298C117.498 184.805 115.539 186.237 115.934 189.021C116.015 189.61 116.327 191.355 118.699 191.703C119.584 191.834 121.61 192.101 122.796 190.411C122.995 190.119 123.436 189.021 123.29 187.827L125.708 187.131Z" fill="#EC1C24"/>
<path d="M8.04023 17.812C8.04023 17.812 6.80557 14.8306 8.8789 12.444C9.4309 11.808 12.0882 9.11462 17.0256 11.0026C18.2842 11.484 21.5162 13.5866 20.4296 17.8613C20.2682 18.5013 20.3816 20.744 15.8882 23.7266C15.0669 24.2693 11.7429 26.6079 10.5562 31.0319H17.9136V27.8506H20.5776V33.6653H7.39757C7.39757 33.6653 7.05223 29.0933 11.1496 24.4213C11.5416 23.9773 14.1109 21.4893 15.4456 20.6453C16.2509 20.1386 18.2096 18.7066 17.8149 15.9239C17.7309 15.3333 17.4189 13.5866 15.0496 13.24C14.1642 13.1093 12.1376 12.8413 10.9522 14.532C10.7509 14.8226 10.3109 15.924 10.4589 17.1159L8.04023 17.812Z" fill="#EC1C24"/>
<path d="M14.3966 41.8587C14.6312 41.8587 14.6086 41.6933 14.6779 41.064C14.7486 40.4333 15.5072 38.72 17.7086 38.9147C18.6792 38.996 21.0219 40.2707 20.6926 43.1427C20.5646 44.2413 20.3392 45.0573 18.9072 47.2533C18.6886 47.5853 16.2992 51.224 14.3966 54.308C12.4939 51.224 10.1019 47.5853 9.88322 47.2533C8.44989 45.0573 8.22322 44.2413 8.09789 43.1427C7.76855 40.2707 10.1099 38.996 11.0806 38.9147C13.2832 38.72 14.0406 40.4333 14.1112 41.064C14.1819 41.6933 14.1619 41.8587 14.3966 41.8587Z" fill="#EC1C24"/>
<path d="M119.351 163.089C119.116 163.089 119.14 163.25 119.069 163.881C118.999 164.511 118.24 166.225 116.039 166.03C115.068 165.95 112.727 164.675 113.053 161.803C113.181 160.702 113.407 159.886 114.841 157.691C115.059 157.358 117.448 153.722 119.351 150.637C121.253 153.722 123.644 157.358 123.863 157.691C125.296 159.886 125.523 160.702 125.651 161.803C125.979 164.675 123.636 165.95 122.665 166.03C120.464 166.225 119.705 164.511 119.635 163.881C119.564 163.25 119.585 163.089 119.351 163.089Z" fill="#EC1C24"/>
<path d="M133.346 196.934C133.346 200.8 130.214 203.931 126.349 203.931" stroke="#EB008B" stroke-width="0.333333" stroke-miterlimit="2.613"/>
<path d="M126.349 203.931H7.39746" stroke="#EB008B" stroke-width="0.333333" stroke-miterlimit="2.613"/>
<path d="M7.39724 203.931C3.53324 203.931 0.399902 200.8 0.399902 196.934" stroke="#EB008B" stroke-width="0.333333" stroke-miterlimit="2.613"/>
<path d="M0.399658 196.934V8.01092" stroke="#EB008B" stroke-width="0.333333" stroke-miterlimit="2.613"/>
<path d="M0.399658 8.0105C0.399658 4.14516 3.53299 1.01316 7.39699 1.01316" stroke="#EB008B" stroke-width="0.333333" stroke-miterlimit="2.613"/>
<path d="M7.39722 1.01318H126.349" stroke="#EB008B" stroke-width="0.333333" stroke-miterlimit="2.613"/>
<path d="M126.35 1.01316C130.215 1.01316 133.347 4.14516 133.347 8.0105" stroke="#EB008B" stroke-width="0.333333" stroke-miterlimit="2.613"/>
<path d="M133.346 8.01043V196.933" stroke="#EB008B" stroke-width="0.333333" stroke-miterlimit="2.613"/>
</svg>
