<svg width="134" height="203" viewBox="0 0 134 203" fill="none" xmlns="http://www.w3.org/2000/svg">
<path fill-rule="evenodd" clip-rule="evenodd" d="M67.0912 21.7631C67.0912 21.7631 64.6179 27.0218 60.4086 32.5658C55.8846 38.5218 53.5206 41.8991 53.5206 46.3578C53.5206 50.1364 56.4766 52.5804 59.2566 52.5804C62.0939 52.5804 63.9366 51.5524 64.9019 47.8698C65.2939 46.3738 66.1299 46.6684 65.9072 48.2978C65.6472 50.2204 65.6259 54.4018 62.5232 58.1804H71.6579C68.5539 54.4018 68.5339 50.2204 68.2739 48.2978C68.0512 46.6684 68.8859 46.3738 69.2779 47.8698C70.2419 51.5524 72.0859 52.5804 74.9246 52.5804C77.7032 52.5804 80.6592 50.1364 80.6592 46.3578C80.6592 41.8991 78.2952 38.5218 73.7712 32.5658C69.5619 27.0218 67.0912 21.7631 67.0912 21.7631Z" fill="#231F20"/>
<path fill-rule="evenodd" clip-rule="evenodd" d="M67.0892 181.35C67.0892 181.35 69.5612 176.092 73.7719 170.55C78.2959 164.59 80.6586 161.214 80.6586 156.754C80.6586 152.976 77.7026 150.532 74.9226 150.532C72.0852 150.532 70.2426 151.56 69.2772 155.244C68.8852 156.738 68.0506 156.442 68.2719 154.814C68.5332 152.893 68.5532 148.712 71.6559 144.933H62.5212C65.6266 148.712 65.6466 152.893 65.9079 154.814C66.1279 156.442 65.2946 156.738 64.9012 155.244C63.9372 151.56 62.0919 150.532 59.2546 150.532C56.4746 150.532 53.5212 152.976 53.5212 156.754C53.5212 161.214 55.8839 164.59 60.4092 170.55C64.6159 176.092 67.0892 181.35 67.0892 181.35Z" fill="#231F20"/>
<path d="M125.599 185.749C125.599 185.749 126.827 188.715 124.766 191.087C124.216 191.721 121.572 194.398 116.666 192.521C115.412 192.042 112.196 189.951 113.276 185.699C113.44 185.063 113.326 182.833 117.794 179.869C118.614 179.329 121.916 177.001 123.096 172.602H115.782V175.765H113.13V169.983H126.238C126.238 169.983 126.583 174.53 122.507 179.175C122.118 179.618 119.562 182.094 118.236 182.933C117.435 183.437 115.486 184.861 115.879 187.627C115.962 188.215 116.272 189.951 118.627 190.297C119.508 190.426 121.524 190.693 122.703 189.01C122.904 188.721 123.34 187.627 123.194 186.442L125.599 185.749Z" fill="#231F20"/>
<path d="M8.58071 17.3633C8.58071 17.3633 7.35271 14.398 9.41537 12.0247C9.96337 11.3913 12.606 8.714 17.5154 10.5913C18.7687 11.0713 21.9847 13.1607 20.9047 17.4127C20.7407 18.0487 20.854 20.278 16.3874 23.2433C15.5674 23.7847 12.262 26.1113 11.0834 30.51H18.3994V27.346H21.0514V33.1287H7.94204C7.94204 33.1287 7.59937 28.582 11.674 23.9367C12.062 23.494 14.6194 21.0207 15.9447 20.1807C16.7447 19.6753 18.6927 18.2527 18.302 15.4847C18.2194 14.8967 17.9087 13.1607 15.5514 12.8153C14.67 12.6847 12.6554 12.4193 11.4767 14.102C11.278 14.3913 10.838 15.4847 10.9874 16.67L8.58071 17.3633Z" fill="#231F20"/>
<path d="M12.6706 53.8907C13.8772 52.6641 14.0746 50.2961 14.1412 49.7241C14.2079 49.1534 14.0546 49.0281 13.9439 49.0067C13.8346 48.9841 13.7119 49.1801 13.6586 49.4507C13.3946 50.7614 12.4346 51.3121 11.9666 51.3947C9.79322 51.7761 9.07188 50.3547 8.86922 49.9774C7.74922 47.9067 10.2532 44.6841 10.6719 44.1854C13.0159 41.3787 14.6679 38.3494 14.6679 38.3494C14.6679 38.3494 16.3226 41.3787 18.6679 44.1854C19.0852 44.6841 21.5879 47.9067 20.4679 49.9774C20.2666 50.3547 19.5452 51.7761 17.3692 51.3947C16.9039 51.3121 15.9426 50.7614 15.6786 49.4507C15.6252 49.1801 15.5026 48.9841 15.3932 49.0067C15.2839 49.0281 15.1306 49.1534 15.1959 49.7241C15.2612 50.2961 15.4599 52.6641 16.6666 53.8907H12.6706Z" fill="#231F20"/>
<path d="M121.51 149.224C120.304 150.449 120.105 152.817 120.038 153.389C119.972 153.961 120.126 154.088 120.237 154.108C120.345 154.129 120.469 153.933 120.521 153.665C120.785 152.353 121.746 151.8 122.212 151.719C124.388 151.337 125.106 152.759 125.309 153.136C126.429 155.208 123.926 158.431 123.51 158.929C121.164 161.736 119.513 164.765 119.513 164.765C119.513 164.765 117.86 161.736 115.514 158.929C115.097 158.431 112.594 155.208 113.713 153.136C113.914 152.759 114.636 151.337 116.81 151.719C117.277 151.8 118.238 152.353 118.501 153.665C118.554 153.933 118.677 154.129 118.788 154.108C118.897 154.088 119.052 153.961 118.985 153.389C118.918 152.817 118.721 150.449 117.512 149.224H121.51Z" fill="#231F20"/>
<path d="M133.197 195.498C133.197 199.342 130.081 202.457 126.238 202.457" stroke="#EB008B" stroke-width="0.333333" stroke-miterlimit="2.613"/>
<path d="M126.238 202.457H7.94092" stroke="#EB008B" stroke-width="0.333333" stroke-miterlimit="2.613"/>
<path d="M7.94084 202.457C4.09818 202.457 0.982178 199.342 0.982178 195.498" stroke="#EB008B" stroke-width="0.333333" stroke-miterlimit="2.613"/>
<path d="M0.98175 195.498V7.61539" stroke="#EB008B" stroke-width="0.333333" stroke-miterlimit="2.613"/>
<path d="M0.98175 7.61523C0.98175 3.77257 4.09775 0.656568 7.94042 0.656568" stroke="#EB008B" stroke-width="0.333333" stroke-miterlimit="2.613"/>
<path d="M7.9408 0.656982H126.238" stroke="#EB008B" stroke-width="0.333333" stroke-miterlimit="2.613"/>
<path d="M126.238 0.656935C130.081 0.656935 133.197 3.7716 133.197 7.6156" stroke="#EB008B" stroke-width="0.333333" stroke-miterlimit="2.613"/>
<path d="M133.197 7.61527V195.498" stroke="#EB008B" stroke-width="0.333333" stroke-miterlimit="2.613"/>
</svg>
