<svg width="133" height="203" viewBox="0 0 133 203" fill="none" xmlns="http://www.w3.org/2000/svg">
<path d="M61.763 57.2656C65.931 52.1696 65.0217 44.6936 65.0217 44.6936C64.4004 48.1403 60.931 50.191 59.511 50.4203C54.5297 51.2456 52.155 47.5843 51.8457 47.0243C48.4444 40.9056 53.4044 37.0843 54.1457 36.6336C58.6484 33.8683 62.291 37.023 62.291 37.023C62.9577 37.1683 62.5764 36.3443 62.5764 36.3443C58.839 34.3043 58.6564 30.847 58.7924 29.6936C59.655 22.799 66.435 22.9563 66.435 22.9563C66.435 22.9563 73.2057 22.799 74.067 29.6936C74.2017 30.847 74.0177 34.3043 70.2817 36.3443C70.2817 36.3443 69.899 37.1683 70.5684 37.023C70.5684 37.023 74.2097 33.8683 78.7137 36.6336C79.4537 37.0843 84.415 40.9056 81.0137 47.0243C80.7004 47.5843 78.3284 51.2456 73.3484 50.4203C71.9297 50.191 68.4604 48.1403 67.8404 44.6936C67.8404 44.6936 66.9284 52.1696 71.0977 57.2656H61.763Z" fill="#231F20"/>
<path d="M61.763 118.466C65.931 113.37 65.0217 105.894 65.0217 105.894C64.4004 109.341 60.931 111.392 59.511 111.621C54.5297 112.446 52.155 108.785 51.8457 108.225C48.4444 102.106 53.4044 98.2849 54.1457 97.8342C58.6484 95.0689 62.291 98.2235 62.291 98.2235C62.9577 98.3675 62.5764 97.5449 62.5764 97.5449C58.839 95.5049 58.6564 92.0475 58.7924 90.8929C59.655 83.9995 66.435 84.1569 66.435 84.1569C66.435 84.1569 73.2057 83.9995 74.067 90.8929C74.2017 92.0475 74.0177 95.5049 70.2817 97.5449C70.2817 97.5449 69.899 98.3675 70.5684 98.2235C70.5684 98.2235 74.2097 95.0689 78.7137 97.8342C79.4537 98.2849 84.415 102.106 81.0137 108.225C80.7004 108.785 78.3284 112.446 73.3484 111.621C71.9297 111.392 68.4604 109.341 67.8404 105.894C67.8404 105.894 66.9284 113.37 71.0977 118.466H61.763Z" fill="#231F20"/>
<path d="M71.0964 145.357C66.9284 150.454 67.8377 157.93 67.8377 157.93C68.4604 154.482 71.9297 152.431 73.3484 152.201C78.3297 151.375 80.7044 155.037 81.0124 155.599C84.4151 161.715 79.4537 165.537 78.7124 165.989C74.2097 168.754 70.5684 165.599 70.5684 165.599C69.9004 165.457 70.2817 166.278 70.2817 166.278C74.0204 168.317 74.2017 171.775 74.0671 172.929C73.2057 179.822 66.4244 179.667 66.4244 179.667C66.4244 179.667 59.6537 179.822 58.7924 172.929C58.6564 171.775 58.8404 168.317 62.5777 166.278C62.5777 166.278 62.9604 165.457 62.2911 165.599C62.2911 165.599 58.6484 168.754 54.1444 165.989C53.4044 165.537 48.4444 161.715 51.8457 155.599C52.1591 155.037 54.5311 151.375 59.5111 152.201C60.9311 152.431 64.3977 154.482 65.0191 157.93C65.0191 157.93 65.9311 150.454 61.7631 145.357H71.0964Z" fill="#231F20"/>
<path d="M8.0644 9.74165H21.2151V12.3963L16.3284 17.0536C16.3284 17.0536 21.9991 17.227 22.3791 24.5403C22.4617 26.1603 21.5417 32.199 15.2857 32.8936C14.3711 32.991 9.5684 33.1563 7.31506 27.499L9.73373 26.4536C9.73373 26.4536 11.0724 30.067 13.9911 30.1536C14.8644 30.179 19.0417 30.4603 19.5844 25.455C19.7071 24.3096 19.5431 20.8363 16.7457 19.7496C15.7471 19.3643 14.3697 19.147 12.1137 20.7536L10.6964 19.0536L17.5817 12.1376H10.5697V15.4443H8.0644V9.74165Z" fill="#231F20"/>
<path d="M124.794 192.88H111.644V190.226L116.53 185.567C116.53 185.567 110.86 185.395 110.481 178.08C110.398 176.462 111.317 170.424 117.574 169.727C118.488 169.63 123.289 169.464 125.545 175.123L123.124 176.167C123.124 176.167 121.785 172.554 118.868 172.468C117.993 172.443 113.816 172.162 113.273 177.167C113.152 178.311 113.317 181.784 116.113 182.871C117.112 183.256 118.489 183.475 120.744 181.868L122.162 183.567L115.277 190.484H122.288V187.178H124.794V192.88Z" fill="#231F20"/>
<path d="M120.53 149.184C118.694 151.456 119.094 154.791 119.094 154.791C119.369 153.255 120.898 152.339 121.525 152.236C123.722 151.867 124.767 153.502 124.902 153.751C126.403 156.479 124.215 158.183 123.89 158.384C121.903 159.618 120.299 158.211 120.299 158.211C120.002 158.147 120.171 158.515 120.171 158.515C121.819 159.423 121.901 160.966 121.841 161.48C121.459 164.554 118.471 164.483 118.471 164.483C118.471 164.483 115.487 164.554 115.109 161.48C115.047 160.966 115.127 159.423 116.777 158.515C116.777 158.515 116.946 158.147 116.65 158.211C116.65 158.211 115.043 159.618 113.058 158.384C112.731 158.183 110.545 156.479 112.045 153.751C112.182 153.502 113.227 151.867 115.425 152.236C116.05 152.339 117.578 153.255 117.853 154.791C117.853 154.791 118.254 151.456 116.417 149.184H120.53Z" fill="#231F20"/>
<path d="M12.3281 53.4415C14.1655 51.1695 13.7641 47.8349 13.7641 47.8349C13.4908 49.3722 11.9615 50.2855 11.3348 50.3895C9.13881 50.7562 8.09348 49.1242 7.95615 48.8735C6.45615 46.1455 8.64414 44.4415 8.96948 44.2415C10.9548 43.0069 12.5601 44.4135 12.5601 44.4135C12.8575 44.4789 12.6868 44.1109 12.6868 44.1109C11.0415 43.2015 10.9601 41.6602 11.0188 41.1455C11.4001 38.0709 14.3881 38.1415 14.3881 38.1415C14.3881 38.1415 17.3721 38.0709 17.7521 41.1455C17.8135 41.6602 17.7308 43.2015 16.0841 44.1109C16.0841 44.1109 15.9135 44.4789 16.2108 44.4135C16.2108 44.4135 17.8148 43.0069 19.8015 44.2415C20.1281 44.4415 22.3148 46.1455 20.8135 48.8735C20.6775 49.1242 19.6321 50.7562 17.4361 50.3895C16.8121 50.2855 15.2801 49.3722 15.0068 47.8349C15.0068 47.8349 14.6055 51.1695 16.4428 53.4415H12.3281Z" fill="#231F20"/>
<path d="M132.499 195.199C132.499 199.041 129.384 202.154 125.544 202.154" stroke="#EB008B" stroke-width="0.333333" stroke-miterlimit="2.613"/>
<path d="M125.544 202.154H7.31494" stroke="#EB008B" stroke-width="0.333333" stroke-miterlimit="2.613"/>
<path d="M7.31505 202.154C3.47372 202.154 0.360382 199.04 0.360382 195.199" stroke="#EB008B" stroke-width="0.333333" stroke-miterlimit="2.613"/>
<path d="M0.360657 195.199V7.42321" stroke="#EB008B" stroke-width="0.333333" stroke-miterlimit="2.613"/>
<path d="M0.360657 7.42383C0.360657 3.58249 3.47399 0.469162 7.31532 0.469162" stroke="#EB008B" stroke-width="0.333333" stroke-miterlimit="2.613"/>
<path d="M7.31506 0.469482H125.544" stroke="#EB008B" stroke-width="0.333333" stroke-miterlimit="2.613"/>
<path d="M125.544 0.469528C129.384 0.469528 132.499 3.58153 132.499 7.42419" stroke="#EB008B" stroke-width="0.333333" stroke-miterlimit="2.613"/>
<path d="M132.499 7.42382V195.2" stroke="#EB008B" stroke-width="0.333333" stroke-miterlimit="2.613"/>
</svg>
