<svg width="126" height="193" viewBox="0 0 126 193" fill="none" xmlns="http://www.w3.org/2000/svg">
<path fill-rule="evenodd" clip-rule="evenodd" d="M68.3776 32.4167C64.0723 26.6033 62.9203 21.698 62.9203 21.698C62.9203 21.698 61.7656 26.6033 57.4616 32.4167C53.1603 38.2287 49.1776 39.8393 49.1776 39.8393C49.1776 39.8393 53.1603 41.4487 57.4616 47.2633C61.7656 53.0767 62.9203 57.9807 62.9203 57.9807C62.9203 57.9807 64.0723 53.0767 68.3776 47.2633C72.6789 41.4487 76.6643 39.8393 76.6643 39.8393C76.6643 39.8393 72.6789 38.2287 68.3776 32.4167" fill="#EC1C24"/>
<path fill-rule="evenodd" clip-rule="evenodd" d="M68.3776 89.1485C64.0723 83.3351 62.9203 78.4298 62.9203 78.4298C62.9203 78.4298 61.7656 83.3351 57.4616 89.1485C53.1603 94.9605 49.1776 96.5725 49.1776 96.5725C49.1776 96.5725 53.1603 98.1818 57.4616 103.995C61.7656 109.808 62.9203 114.711 62.9203 114.711C62.9203 114.711 64.0723 109.808 68.3776 103.995C72.6789 98.1818 76.6643 96.5725 76.6643 96.5725C76.6643 96.5725 72.6789 94.9605 68.3776 89.1485" fill="#EC1C24"/>
<path fill-rule="evenodd" clip-rule="evenodd" d="M68.3776 145.88C64.0723 140.068 62.9203 135.162 62.9203 135.162C62.9203 135.162 61.7656 140.068 57.4616 145.88C53.1603 151.693 49.1776 153.304 49.1776 153.304C49.1776 153.304 53.1603 154.913 57.4616 160.728C61.7656 166.541 62.9203 171.444 62.9203 171.444C62.9203 171.444 64.0723 166.541 68.3776 160.728C72.6789 154.913 76.6643 153.304 76.6643 153.304C76.6643 153.304 72.6789 151.693 68.3776 145.88" fill="#EC1C24"/>
<path d="M7.55919 9.7141H20.0325V12.2328L15.3979 16.6514C15.3979 16.6514 20.7752 16.8141 21.1365 23.7514C21.2139 25.2888 20.3432 31.0168 14.4085 31.6781C13.5419 31.7674 8.98585 31.9261 6.84985 26.5581L9.14319 25.5674C9.14319 25.5674 10.4125 28.9941 13.1805 29.0768C14.0099 29.1008 17.9739 29.3688 18.4872 24.6181C18.6032 23.5341 18.4485 20.2394 15.7939 19.2101C14.8472 18.8434 13.5392 18.6368 11.4005 20.1608L10.0552 18.5474L16.5872 11.9874H9.93519V15.1234H7.55919V9.7141Z" fill="#EC1C24"/>
<path d="M118.28 183.429H105.808V180.909L110.441 176.492C110.441 176.492 105.064 176.328 104.704 169.39C104.625 167.856 105.497 162.126 111.432 161.466C112.3 161.374 116.855 161.218 118.993 166.585L116.696 167.577C116.696 167.577 115.427 164.148 112.657 164.066C111.831 164.042 107.867 163.776 107.353 168.524C107.239 169.609 107.396 172.904 110.047 173.934C110.996 174.301 112.301 174.506 114.44 172.982L115.787 174.594L109.252 181.154H115.904V178.018H118.28V183.429Z" fill="#EC1C24"/>
<path d="M13.6661 36.6529C13.6661 36.6529 15.5554 42.6303 19.9327 45.0423C19.9327 45.0423 15.6167 47.2583 13.6661 53.3649C11.7154 47.2583 7.39673 45.0423 7.39673 45.0423C11.7754 42.6303 13.6661 36.6529 13.6661 36.6529Z" fill="#EC1C24"/>
<path d="M112.175 156.492C112.175 156.492 110.287 150.516 105.908 148.102C105.908 148.102 110.224 145.886 112.175 139.781C114.127 145.886 118.444 148.102 118.444 148.102C114.068 150.516 112.175 156.492 112.175 156.492Z" fill="#EC1C24"/>
<path d="M125.589 185.627C125.589 189.271 122.635 192.223 118.994 192.223" stroke="#EB008B" stroke-width="0.333333" stroke-miterlimit="2.613"/>
<path d="M118.993 192.223H6.84937" stroke="#EB008B" stroke-width="0.333333" stroke-miterlimit="2.613"/>
<path d="M6.84953 192.223C3.20553 192.223 0.252197 189.271 0.252197 185.627" stroke="#EB008B" stroke-width="0.333333" stroke-miterlimit="2.613"/>
<path d="M0.252686 185.627V7.51629" stroke="#EB008B" stroke-width="0.333333" stroke-miterlimit="2.613"/>
<path d="M0.252686 7.5163C0.252686 3.8723 3.20469 0.918964 6.85002 0.918964" stroke="#EB008B" stroke-width="0.333333" stroke-miterlimit="2.613"/>
<path d="M6.84961 0.919373H118.994" stroke="#EB008B" stroke-width="0.333333" stroke-miterlimit="2.613"/>
<path d="M118.993 0.919391C122.635 0.919391 125.588 3.87272 125.588 7.51672" stroke="#EB008B" stroke-width="0.333333" stroke-miterlimit="2.613"/>
<path d="M125.589 7.51629V185.627" stroke="#EB008B" stroke-width="0.333333" stroke-miterlimit="2.613"/>
</svg>
