<svg width="134" height="205" viewBox="0 0 134 205" fill="none" xmlns="http://www.w3.org/2000/svg">
<path d="M67.2448 92.4603C67.7395 92.4603 67.6915 92.115 67.8395 90.7896C67.9875 89.4603 69.5875 85.8536 74.2382 86.2616C76.2875 86.4323 81.2315 89.1163 80.5368 95.1643C80.2728 97.483 79.7955 99.2003 76.7688 103.826C76.3062 104.528 71.2622 112.188 67.2448 118.682C63.2288 112.188 58.1782 104.528 57.7182 103.826C54.6928 99.2003 54.2142 97.483 53.9435 95.1643C53.2502 89.1163 58.1982 86.4323 60.2462 86.2616C64.8955 85.8536 66.4968 89.4603 66.6435 90.7896C66.7955 92.115 66.7488 92.4603 67.2448 92.4603Z" fill="#EC1C24"/>
<path d="M67.2448 30.1849C67.7395 30.1849 67.6915 29.8409 67.8395 28.5129C67.9875 27.1849 69.5875 23.5783 74.2382 23.9863C76.2875 24.1569 81.2315 26.8409 80.5368 32.8903C80.2728 35.2076 79.7955 36.9249 76.7688 41.5489C76.3062 42.2516 71.2622 49.9143 67.2448 56.4076C63.2288 49.9143 58.1782 42.2516 57.7182 41.5489C54.6928 36.9249 54.2142 35.2076 53.9435 32.8903C53.2502 26.8409 58.1982 24.1569 60.2462 23.9863C64.8955 23.5783 66.4968 27.1849 66.6435 28.5129C66.7955 29.8409 66.7488 30.1849 67.2448 30.1849Z" fill="#EC1C24"/>
<path d="M67.2369 174.758C66.7409 174.758 66.7902 175.102 66.6409 176.43C66.4942 177.758 64.8929 181.363 60.2435 180.957C58.1929 180.786 53.2502 178.102 53.9435 172.053C54.2089 169.734 54.6862 168.018 57.7129 163.393C58.1729 162.691 63.2182 155.03 67.2369 148.535C71.2529 155.03 76.3035 162.691 76.7622 163.393C79.7889 168.018 80.2662 169.734 80.5369 172.053C81.2315 178.102 76.2835 180.786 74.2355 180.957C69.5862 181.363 67.9849 177.758 67.8369 176.43C67.6862 175.102 67.7329 174.758 67.2369 174.758Z" fill="#EC1C24"/>
<path d="M8.51883 10.3418H21.7495V13.0125L16.8335 17.6991C16.8335 17.6991 22.5362 17.8725 22.9202 25.2311C23.0028 26.8618 22.0788 32.9365 15.7828 33.6378C14.8642 33.7338 10.0322 33.9005 7.76416 28.2085L10.1988 27.1565C10.1988 27.1565 11.5455 30.7911 14.4815 30.8791C15.3602 30.9045 19.5628 31.1885 20.1082 26.1511C20.2335 25.0005 20.0668 21.5058 17.2522 20.4125C16.2482 20.0245 14.8615 19.8058 12.5935 21.4218L11.1655 19.7111L18.0935 12.7538H11.0402V16.0791H8.51883V10.3418Z" fill="#EC1C24"/>
<path d="M125.961 194.601H112.73V191.932L117.647 187.244C117.647 187.244 111.942 187.072 111.558 179.712C111.477 178.082 112.401 172.008 118.697 171.306C119.615 171.209 124.447 171.044 126.715 176.736L124.281 177.788C124.281 177.788 122.934 174.152 119.997 174.064C119.118 174.038 114.915 173.756 114.371 178.792C114.246 179.944 114.414 183.437 117.226 184.53C118.233 184.918 119.619 185.138 121.886 183.521L123.314 185.232L116.386 192.19H123.439V188.864H125.961V194.601Z" fill="#EC1C24"/>
<path d="M14.7618 41.8587C14.9964 41.8587 14.9738 41.6933 15.0431 41.064C15.1151 40.4333 15.8724 38.72 18.0724 38.9147C19.0444 38.996 21.3871 40.2707 21.0578 43.1427C20.9311 44.2413 20.7058 45.0573 19.2711 47.2533C19.0538 47.5853 16.6644 51.224 14.7618 54.308C12.8591 51.224 10.4671 47.5853 10.2484 47.2533C8.81644 45.0573 8.58844 44.2413 8.4631 43.1427C8.13377 40.2707 10.4764 38.996 11.4471 38.9147C13.6484 38.72 14.4071 40.4333 14.4778 41.064C14.5471 41.6933 14.5271 41.8587 14.7618 41.8587Z" fill="#EC1C24"/>
<path d="M119.718 163.089C119.483 163.089 119.507 163.25 119.436 163.881C119.366 164.511 118.608 166.225 116.406 166.03C115.435 165.95 113.095 164.675 113.42 161.803C113.548 160.702 113.776 159.886 115.208 157.691C115.427 157.358 117.814 153.722 119.718 150.637C121.622 153.722 124.012 157.358 124.231 157.691C125.664 159.886 125.891 160.702 126.018 161.803C126.346 164.675 124.004 165.95 123.032 166.03C120.831 166.225 120.074 164.511 120.003 163.881C119.932 163.25 119.954 163.089 119.718 163.089Z" fill="#EC1C24"/>
<path d="M133.714 196.934C133.714 200.8 130.58 203.931 126.716 203.931" stroke="#EB008B" stroke-width="0.333333" stroke-miterlimit="2.613"/>
<path d="M126.716 203.931H7.76416" stroke="#EB008B" stroke-width="0.333333" stroke-miterlimit="2.613"/>
<path d="M7.76418 203.931C3.90018 203.931 0.766846 200.8 0.766846 196.934" stroke="#EB008B" stroke-width="0.333333" stroke-miterlimit="2.613"/>
<path d="M0.766846 196.934V8.01092" stroke="#EB008B" stroke-width="0.333333" stroke-miterlimit="2.613"/>
<path d="M0.766846 8.0105C0.766846 4.14516 3.90018 1.01316 7.76418 1.01316" stroke="#EB008B" stroke-width="0.333333" stroke-miterlimit="2.613"/>
<path d="M7.76416 1.01318H126.716" stroke="#EB008B" stroke-width="0.333333" stroke-miterlimit="2.613"/>
<path d="M126.716 1.01316C130.58 1.01316 133.713 4.14516 133.713 8.0105" stroke="#EB008B" stroke-width="0.333333" stroke-miterlimit="2.613"/>
<path d="M133.714 8.01043V196.933" stroke="#EB008B" stroke-width="0.333333" stroke-miterlimit="2.613"/>
</svg>
