<svg width="133" height="203" viewBox="0 0 133 203" fill="none" xmlns="http://www.w3.org/2000/svg">
<path fill-rule="evenodd" clip-rule="evenodd" d="M66.6061 21.7631C66.6061 21.7631 64.1328 27.0218 59.9235 32.5658C55.3995 38.5218 53.0368 41.8991 53.0368 46.3578C53.0368 50.1364 55.9915 52.5804 58.7715 52.5804C61.6088 52.5804 63.4528 51.5524 64.4168 47.8698C64.8101 46.3738 65.6448 46.6684 65.4235 48.2978C65.1621 50.2204 65.1408 54.4018 62.0381 58.1804H71.1715C68.0675 54.4018 68.0501 50.2204 67.7888 48.2978C67.5648 46.6684 68.4008 46.3738 68.7928 47.8698C69.7555 51.5524 71.6008 52.5804 74.4395 52.5804C77.2168 52.5804 80.1715 50.1364 80.1715 46.3578C80.1715 41.8991 77.8088 38.5218 73.2848 32.5658C69.0781 27.0218 66.6061 21.7631 66.6061 21.7631Z" fill="#231F20"/>
<path fill-rule="evenodd" clip-rule="evenodd" d="M66.6061 83.349C66.6061 83.349 64.1328 88.6064 59.9235 94.149C55.3995 100.105 53.0368 103.484 53.0368 107.942C53.0368 111.721 55.9915 114.166 58.7715 114.166C61.6088 114.166 63.4528 113.138 64.4168 109.454C64.8101 107.96 65.6448 108.256 65.4235 109.881C65.1621 111.805 65.1408 115.988 62.0381 119.766H71.1715C68.0675 115.988 68.0501 111.805 67.7888 109.881C67.5648 108.256 68.4008 107.96 68.7928 109.454C69.7555 113.138 71.6008 114.166 74.4395 114.166C77.2168 114.166 80.1715 111.721 80.1715 107.942C80.1715 103.484 77.8088 100.105 73.2848 94.149C69.0781 88.6064 66.6061 83.349 66.6061 83.349Z" fill="#231F20"/>
<path fill-rule="evenodd" clip-rule="evenodd" d="M66.6035 181.35C66.6035 181.35 69.0755 176.092 73.2849 170.55C77.8089 164.59 80.1715 161.214 80.1715 156.754C80.1715 152.976 77.2155 150.532 74.4369 150.532C71.5995 150.532 69.7555 151.56 68.7902 155.244C68.4009 156.738 67.5649 156.442 67.7875 154.814C68.0489 152.893 68.0675 148.712 71.1689 144.933H62.0369C65.1409 148.712 65.1595 152.893 65.4235 154.814C65.6422 156.442 64.8102 156.738 64.4155 155.244C63.4529 151.56 61.6075 150.532 58.7702 150.532C55.9902 150.532 53.0369 152.976 53.0369 156.754C53.0369 161.214 55.3995 164.59 59.9235 170.55C64.1315 176.092 66.6035 181.35 66.6035 181.35Z" fill="#231F20"/>
<path d="M8.20776 9.93493H21.3651V12.5909L16.4771 17.2496C16.4771 17.2496 22.1491 17.4243 22.5291 24.7403C22.6118 26.3629 21.6931 32.4043 15.4318 33.1016C14.5184 33.1963 9.71176 33.3629 7.45709 27.7016L9.87709 26.6576C9.87709 26.6576 11.2184 30.2709 14.1384 30.3589C15.0118 30.3843 19.1918 30.6656 19.7344 25.6563C19.8571 24.5109 19.6918 21.0363 16.8931 19.9509C15.8944 19.5629 14.5144 19.3456 12.2598 20.9523L10.8398 19.2523L17.7291 12.3309H10.7144V15.6403H8.20776V9.93493Z" fill="#231F20"/>
<path d="M125.003 193.178H111.847V190.522L116.732 185.861C116.732 185.861 111.06 185.689 110.68 178.372C110.595 176.75 111.519 170.71 117.779 170.012C118.692 169.916 123.497 169.749 125.753 175.41L123.331 176.457C123.331 176.457 121.993 172.841 119.072 172.754C118.197 172.729 114.017 172.448 113.475 177.456C113.353 178.601 113.519 182.076 116.316 183.164C117.315 183.549 118.696 183.769 120.949 182.158L122.369 183.858L115.48 190.781H122.493V187.472H125.003V193.178Z" fill="#231F20"/>
<path d="M12.185 53.8907C13.393 52.6641 13.5916 50.2961 13.657 49.7241C13.7223 49.1534 13.5703 49.0281 13.4596 49.0067C13.349 48.9841 13.2276 49.1801 13.173 49.4507C12.9103 50.7614 11.949 51.3121 11.4823 51.3947C9.30764 51.7761 8.58764 50.3547 8.38497 49.9774C7.26497 47.9067 9.76897 44.6841 10.1863 44.1854C12.5303 41.3787 14.1836 38.3494 14.1836 38.3494C14.1836 38.3494 15.8383 41.3787 18.1823 44.1854C18.5996 44.6841 21.1023 47.9067 19.9823 49.9774C19.781 50.3547 19.0596 51.7761 16.885 51.3947C16.4196 51.3121 15.4583 50.7614 15.1943 49.4507C15.141 49.1801 15.0183 48.9841 14.9076 49.0067C14.7983 49.0281 14.6463 49.1534 14.7103 49.7241C14.7756 50.2961 14.9743 52.6641 16.1823 53.8907H12.185Z" fill="#231F20"/>
<path d="M121.024 149.224C119.818 150.449 119.618 152.817 119.553 153.389C119.486 153.961 119.642 154.088 119.754 154.108C119.861 154.129 119.985 153.933 120.037 153.665C120.301 152.353 121.261 151.8 121.726 151.719C123.901 151.337 124.621 152.759 124.825 153.136C125.945 155.208 123.441 158.431 123.025 158.929C120.678 161.736 119.029 164.765 119.029 164.765C119.029 164.765 117.376 161.736 115.029 158.929C114.612 158.431 112.109 155.208 113.229 153.136C113.429 152.759 114.15 151.337 116.325 151.719C116.793 151.8 117.753 152.353 118.016 153.665C118.068 153.933 118.19 154.129 118.301 154.108C118.412 154.088 118.565 153.961 118.5 153.389C118.434 152.817 118.234 150.449 117.03 149.224H121.024Z" fill="#231F20"/>
<path d="M132.71 195.498C132.71 199.342 129.596 202.457 125.752 202.457" stroke="#EB008B" stroke-width="0.333333" stroke-miterlimit="2.613"/>
<path d="M125.753 202.457H7.45673" stroke="#EB008B" stroke-width="0.333333" stroke-miterlimit="2.613"/>
<path d="M7.45641 202.457C3.61374 202.457 0.497742 199.342 0.497742 195.498" stroke="#EB008B" stroke-width="0.333333" stroke-miterlimit="2.613"/>
<path d="M0.498047 195.498V7.61539" stroke="#EB008B" stroke-width="0.333333" stroke-miterlimit="2.613"/>
<path d="M0.498047 7.61523C0.498047 3.77257 3.61405 0.656568 7.45671 0.656568" stroke="#EB008B" stroke-width="0.333333" stroke-miterlimit="2.613"/>
<path d="M7.45642 0.656982H125.752" stroke="#EB008B" stroke-width="0.333333" stroke-miterlimit="2.613"/>
<path d="M125.753 0.656935C129.597 0.656935 132.71 3.7716 132.71 7.6156" stroke="#EB008B" stroke-width="0.333333" stroke-miterlimit="2.613"/>
<path d="M132.71 7.61527V195.498" stroke="#EB008B" stroke-width="0.333333" stroke-miterlimit="2.613"/>
</svg>
