<svg width="134" height="203" viewBox="0 0 134 203" fill="none" xmlns="http://www.w3.org/2000/svg">
<path d="M34.3711 57.2656C38.5391 52.1696 37.6297 44.6936 37.6297 44.6936C37.0071 48.1403 33.5391 50.191 32.1204 50.4203C27.1404 51.2456 24.7644 47.5843 24.4551 47.0243C21.0537 40.9056 26.0137 37.0843 26.7564 36.6336C31.2577 33.8683 34.8991 37.023 34.8991 37.023C35.5671 37.1683 35.1857 36.3443 35.1857 36.3443C31.4484 34.3043 31.2671 30.847 31.4017 29.6936C32.2631 22.799 39.0431 22.9563 39.0431 22.9563C39.0431 22.9563 45.8137 22.799 46.6764 29.6936C46.8097 30.847 46.6271 34.3043 42.8911 36.3443C42.8911 36.3443 42.5097 37.1683 43.1764 37.023C43.1764 37.023 46.8204 33.8683 51.3257 36.6336C52.0617 37.0843 57.0244 40.9056 53.6217 47.0243C53.3084 47.5843 50.9377 51.2456 45.9564 50.4203C44.5364 50.191 41.0711 48.1403 40.4484 44.6936C40.4484 44.6936 39.5364 52.1696 43.7057 57.2656H34.3711Z" fill="#231F20"/>
<path d="M90.0079 57.2656C94.1759 52.1696 93.2665 44.6936 93.2665 44.6936C92.6452 48.1403 89.1759 50.191 87.7572 50.4203C82.7759 51.2456 80.4025 47.5843 80.0919 47.0243C76.6905 40.9056 81.6519 37.0843 82.3919 36.6336C86.8959 33.8683 90.5359 37.023 90.5359 37.023C91.2039 37.1683 90.8225 36.3443 90.8225 36.3443C87.0865 34.3043 86.9039 30.847 87.0399 29.6936C87.8999 22.799 94.6799 22.9563 94.6799 22.9563C94.6799 22.9563 101.452 22.799 102.313 29.6936C102.448 30.847 102.264 34.3043 98.5279 36.3443C98.5279 36.3443 98.1465 37.1683 98.8145 37.023C98.8145 37.023 102.457 33.8683 106.961 36.6336C107.699 37.0843 112.66 40.9056 109.26 47.0243C108.947 47.5843 106.575 51.2456 101.593 50.4203C100.175 50.191 96.7079 48.1403 96.0865 44.6936C96.0865 44.6936 95.1732 52.1696 99.3425 57.2656H90.0079Z" fill="#231F20"/>
<path d="M99.3412 145.357C95.1732 150.454 96.0838 157.93 96.0838 157.93C96.7052 154.482 100.175 152.431 101.596 152.201C106.577 151.375 108.949 155.037 109.26 155.599C112.66 161.715 107.699 165.537 106.96 165.989C102.457 168.754 98.8145 165.599 98.8145 165.599C98.1465 165.457 98.5292 166.278 98.5292 166.278C102.265 168.317 102.448 171.775 102.313 172.929C101.452 179.822 94.6718 179.667 94.6718 179.667C94.6718 179.667 87.8985 179.822 87.0398 172.929C86.9038 171.775 87.0865 168.317 90.8225 166.278C90.8225 166.278 91.2065 165.457 90.5358 165.599C90.5358 165.599 86.8958 168.754 82.3905 165.989C81.6518 165.537 76.6905 161.715 80.0905 155.599C80.4052 155.037 82.7758 151.375 87.7572 152.201C89.1758 152.431 92.6452 154.482 93.2652 157.93C93.2652 157.93 94.1758 150.454 90.0078 145.357H99.3412Z" fill="#231F20"/>
<path d="M43.703 145.357C39.5364 150.454 40.447 157.93 40.447 157.93C41.0684 154.482 44.5377 152.431 45.9564 152.201C50.939 151.375 53.3124 155.037 53.6217 155.599C57.0244 161.715 52.0617 165.537 51.323 165.989C46.8204 168.754 43.1764 165.599 43.1764 165.599C42.5084 165.457 42.8924 166.278 42.8924 166.278C46.6284 168.317 46.8097 171.775 46.675 172.929C45.8137 179.822 39.0337 179.667 39.0337 179.667C39.0337 179.667 32.2604 179.822 31.4017 172.929C31.267 171.775 31.4484 168.317 35.1857 166.278C35.1857 166.278 35.5697 165.457 34.899 165.599C34.899 165.599 31.2577 168.754 26.755 165.989C26.0137 165.537 21.0537 161.715 24.4537 155.599C24.7684 155.037 27.1404 151.375 32.119 152.201C33.539 152.431 37.007 154.482 37.6284 157.93C37.6284 157.93 38.539 150.454 34.371 145.357H43.703Z" fill="#231F20"/>
<path fill-rule="evenodd" clip-rule="evenodd" d="M17.0325 9.74164H18.9632V24.5856H21.4179V27.131H18.9952V30.535H20.4672V32.923H14.6125V30.5696H16.3152V27.1016H7.74188V24.943L17.0325 9.74164ZM10.9805 24.5536H16.3152V16.1483L10.9805 24.5536Z" fill="#231F20"/>
<path fill-rule="evenodd" clip-rule="evenodd" d="M116.682 192.88H114.749V178.036H112.297V175.49H114.718V172.087H113.248V169.698H119.102V172.052H117.398V175.52H125.972V177.679L116.682 192.88ZM122.733 178.067H117.398V186.474L122.733 178.067Z" fill="#231F20"/>
<path d="M120.958 149.184C119.121 151.456 119.522 154.791 119.522 154.791C119.797 153.255 121.325 152.339 121.95 152.236C124.149 151.867 125.194 153.502 125.33 153.751C126.832 156.479 124.644 158.183 124.318 158.384C122.33 159.618 120.726 158.211 120.726 158.211C120.43 158.147 120.598 158.515 120.598 158.515C122.248 159.423 122.329 160.966 122.268 161.48C121.888 164.554 118.898 164.483 118.898 164.483C118.898 164.483 115.916 164.554 115.536 161.48C115.474 160.966 115.556 159.423 117.204 158.515C117.204 158.515 117.373 158.147 117.077 158.211C117.077 158.211 115.472 159.618 113.486 158.384C113.161 158.183 110.972 156.479 112.472 153.751C112.609 153.502 113.656 151.867 115.852 152.236C116.478 152.339 118.006 153.255 118.281 154.791C118.281 154.791 118.682 151.456 116.844 149.184H120.958Z" fill="#231F20"/>
<path d="M12.7566 53.4415C14.5952 51.1695 14.1926 47.8349 14.1926 47.8349C13.9179 49.3722 12.3886 50.2855 11.7632 50.3895C9.56722 50.7562 8.52055 49.1242 8.38455 48.8735C6.88455 46.1455 9.07255 44.4415 9.39788 44.2415C11.3846 43.0069 12.9886 44.4135 12.9886 44.4135C13.2846 44.4789 13.1152 44.1109 13.1152 44.1109C11.4686 43.2015 11.3872 41.6602 11.4459 41.1455C11.8286 38.0709 14.8166 38.1415 14.8166 38.1415C14.8166 38.1415 17.8006 38.0709 18.1792 41.1455C18.2406 41.6602 18.1606 43.2015 16.5126 44.1109C16.5126 44.1109 16.3406 44.4789 16.6392 44.4135C16.6392 44.4135 18.2446 43.0069 20.2286 44.2415C20.5552 44.4415 22.7432 46.1455 21.2419 48.8735C21.1059 49.1242 20.0606 50.7562 17.8646 50.3895C17.2392 50.2855 15.7099 49.3722 15.4339 47.8349C15.4339 47.8349 15.0339 51.1695 16.8726 53.4415H12.7566Z" fill="#231F20"/>
<path d="M132.926 195.199C132.926 199.041 129.814 202.154 125.971 202.154" stroke="#EB008B" stroke-width="0.333333" stroke-miterlimit="2.613"/>
<path d="M125.971 202.154H7.74332" stroke="#EB008B" stroke-width="0.333333" stroke-miterlimit="2.613"/>
<path d="M7.74341 202.154C3.90208 202.154 0.787415 199.04 0.787415 195.199" stroke="#EB008B" stroke-width="0.333333" stroke-miterlimit="2.613"/>
<path d="M0.78772 195.199V7.42321" stroke="#EB008B" stroke-width="0.333333" stroke-miterlimit="2.613"/>
<path d="M0.78772 7.42383C0.78772 3.58249 3.90239 0.469162 7.74372 0.469162" stroke="#EB008B" stroke-width="0.333333" stroke-miterlimit="2.613"/>
<path d="M7.74344 0.469482H125.971" stroke="#EB008B" stroke-width="0.333333" stroke-miterlimit="2.613"/>
<path d="M125.971 0.469528C129.814 0.469528 132.926 3.58153 132.926 7.42419" stroke="#EB008B" stroke-width="0.333333" stroke-miterlimit="2.613"/>
<path d="M132.926 7.42382V195.2" stroke="#EB008B" stroke-width="0.333333" stroke-miterlimit="2.613"/>
</svg>
