<svg width="126" height="193" viewBox="0 0 126 193" fill="none" xmlns="http://www.w3.org/2000/svg">
<path fill-rule="evenodd" clip-rule="evenodd" d="M96.6081 32.4167C92.3041 26.6033 91.1507 21.698 91.1507 21.698C91.1507 21.698 89.9974 26.6033 85.6934 32.4167C81.3921 38.2287 77.4081 39.8393 77.4081 39.8393C77.4081 39.8393 81.3921 41.4487 85.6934 47.2633C89.9974 53.0767 91.1507 57.9807 91.1507 57.9807C91.1507 57.9807 92.3041 53.0767 96.6081 47.2633C100.911 41.4487 104.893 39.8393 104.893 39.8393C104.893 39.8393 100.911 38.2287 96.6081 32.4167" fill="#EC1C24"/>
<path fill-rule="evenodd" clip-rule="evenodd" d="M40.5364 32.4167C36.2311 26.6033 35.0791 21.698 35.0791 21.698C35.0791 21.698 33.9244 26.6033 29.6204 32.4167C25.3191 38.2287 21.3364 39.8393 21.3364 39.8393C21.3364 39.8393 25.3191 41.4487 29.6204 47.2633C33.9244 53.0767 35.0791 57.9807 35.0791 57.9807C35.0791 57.9807 36.2311 53.0767 40.5364 47.2633C44.8378 41.4487 48.8231 39.8393 48.8231 39.8393C48.8231 39.8393 44.8378 38.2287 40.5364 32.4167" fill="#EC1C24"/>
<path fill-rule="evenodd" clip-rule="evenodd" d="M96.6081 145.88C92.3041 140.068 91.1507 135.162 91.1507 135.162C91.1507 135.162 89.9974 140.068 85.6934 145.88C81.3921 151.693 77.4081 153.304 77.4081 153.304C77.4081 153.304 81.3921 154.913 85.6934 160.728C89.9974 166.541 91.1507 171.444 91.1507 171.444C91.1507 171.444 92.3041 166.541 96.6081 160.728C100.911 154.913 104.893 153.304 104.893 153.304C104.893 153.304 100.911 151.693 96.6081 145.88" fill="#EC1C24"/>
<path fill-rule="evenodd" clip-rule="evenodd" d="M40.5364 145.88C36.2311 140.068 35.0791 135.162 35.0791 135.162C35.0791 135.162 33.9244 140.068 29.6204 145.88C25.3191 151.693 21.3364 153.304 21.3364 153.304C21.3364 153.304 25.3191 154.913 29.6204 160.728C33.9244 166.541 35.0791 171.444 35.0791 171.444C35.0791 171.444 36.2311 166.541 40.5364 160.728C44.8378 154.913 48.8231 153.304 48.8231 153.304C48.8231 153.304 44.8378 151.693 40.5364 145.88" fill="#EC1C24"/>
<path fill-rule="evenodd" clip-rule="evenodd" d="M15.8568 9.71416H17.6888V23.7942H20.0141V26.2115H17.7181V29.4382H19.1128V31.7035H13.5608V29.4715H15.1741V26.1822H7.04346V24.1342L15.8568 9.71416ZM10.1168 23.7662H15.1741V15.7915L10.1168 23.7662Z" fill="#EC1C24"/>
<path fill-rule="evenodd" clip-rule="evenodd" d="M110.376 183.429H108.544V169.349H106.218V166.932H108.515V163.704H107.119V161.44H112.672V163.672H111.058V166.961H119.187V169.009L110.376 183.429ZM116.116 169.377H111.058V177.35L116.116 169.377Z" fill="#EC1C24"/>
<path d="M13.862 36.6529C13.862 36.6529 15.7513 42.6303 20.1287 45.0423C20.1287 45.0423 15.8113 47.2583 13.862 53.3649C11.91 47.2583 7.59399 45.0423 7.59399 45.0423C11.9687 42.6303 13.862 36.6529 13.862 36.6529Z" fill="#EC1C24"/>
<path d="M112.37 156.492C112.37 156.492 110.48 150.516 106.104 148.102C106.104 148.102 110.42 145.886 112.37 139.781C114.322 145.886 118.639 148.102 118.639 148.102C114.262 150.516 112.37 156.492 112.37 156.492Z" fill="#EC1C24"/>
<path d="M125.785 185.627C125.785 189.271 122.832 192.223 119.188 192.223" stroke="#EB008B" stroke-width="0.333333" stroke-miterlimit="2.613"/>
<path d="M119.187 192.223H7.04346" stroke="#EB008B" stroke-width="0.333333" stroke-miterlimit="2.613"/>
<path d="M7.04291 192.223C3.40024 192.223 0.448242 189.271 0.448242 185.627" stroke="#EB008B" stroke-width="0.333333" stroke-miterlimit="2.613"/>
<path d="M0.447876 185.627V7.51629" stroke="#EB008B" stroke-width="0.333333" stroke-miterlimit="2.613"/>
<path d="M0.447876 7.5163C0.447876 3.8723 3.39988 0.918964 7.04254 0.918964" stroke="#EB008B" stroke-width="0.333333" stroke-miterlimit="2.613"/>
<path d="M7.04297 0.919373H119.187" stroke="#EB008B" stroke-width="0.333333" stroke-miterlimit="2.613"/>
<path d="M119.188 0.919391C122.831 0.919391 125.785 3.87272 125.785 7.51672" stroke="#EB008B" stroke-width="0.333333" stroke-miterlimit="2.613"/>
<path d="M125.785 7.51629V185.627" stroke="#EB008B" stroke-width="0.333333" stroke-miterlimit="2.613"/>
</svg>
