<svg width="135" height="205" viewBox="0 0 135 205" fill="none" xmlns="http://www.w3.org/2000/svg">
<path d="M38.341 30.1849C38.8344 30.1849 38.7877 29.8409 38.9357 28.5129C39.0824 27.1849 40.6837 23.5783 45.3344 23.9863C47.3824 24.1569 52.3277 26.8409 51.6317 32.8903C51.3664 35.2076 50.8904 36.9249 47.865 41.5489C47.401 42.2516 42.3584 49.9143 38.341 56.4076C34.325 49.9143 29.2717 42.2516 28.813 41.5489C25.789 36.9249 25.3104 35.2076 25.0397 32.8903C24.3464 26.8409 29.293 24.1569 31.3424 23.9863C35.9917 23.5783 37.5917 27.1849 37.7397 28.5129C37.889 29.8409 37.8424 30.1849 38.341 30.1849Z" fill="#EC1C24"/>
<path d="M96.8802 30.1849C97.3776 30.1849 97.3269 29.8409 97.4776 28.5129C97.6242 27.1849 99.2256 23.5783 103.875 23.9863C105.924 24.1569 110.867 26.8409 110.174 32.8903C109.908 35.2076 109.431 36.9249 106.404 41.5489C105.943 42.2516 100.9 49.9143 96.8802 56.4076C92.8656 49.9143 87.8136 42.2516 87.3536 41.5489C84.3269 36.9249 83.8522 35.2076 83.5802 32.8903C82.8869 26.8409 87.8336 24.1569 89.8829 23.9863C94.5336 23.5783 96.1336 27.1849 96.2816 28.5129C96.4296 29.8409 96.3842 30.1849 96.8802 30.1849Z" fill="#EC1C24"/>
<path d="M96.8723 174.758C96.3776 174.758 96.4256 175.102 96.2763 176.429C96.1296 177.758 94.5283 181.363 89.8789 180.957C87.8296 180.786 82.8869 178.102 83.5803 172.053C83.8456 169.734 84.3229 168.018 87.3483 163.393C87.8109 162.691 92.8536 155.029 96.8723 148.535C100.888 155.029 105.94 162.691 106.4 163.393C109.426 168.018 109.902 169.734 110.174 172.053C110.867 178.102 105.919 180.786 103.871 180.957C99.2216 181.363 97.6203 177.758 97.4736 176.429C97.3229 175.102 97.3696 174.758 96.8723 174.758Z" fill="#EC1C24"/>
<path d="M38.3307 174.758C37.8373 174.758 37.8853 175.102 37.7373 176.429C37.588 177.758 35.9867 181.363 31.3373 180.957C29.288 180.786 24.3467 178.102 25.04 172.053C25.3053 169.734 25.7813 168.018 28.808 163.393C29.2693 162.691 34.312 155.029 38.3307 148.535C42.3467 155.029 47.4 162.691 47.8587 163.393C50.8853 168.018 51.36 169.734 51.632 172.053C52.328 178.102 47.38 180.786 45.3307 180.957C40.68 181.363 39.08 177.758 38.9333 176.429C38.7827 175.102 38.828 174.758 38.3307 174.758Z" fill="#EC1C24"/>
<path fill-rule="evenodd" clip-rule="evenodd" d="M17.4766 10.3418H19.4206V25.2764H21.8886V27.8391H19.4526V31.2631H20.9339V33.6658H15.0432V31.2978H16.7539V27.8084H8.12988V25.6378L17.4766 10.3418ZM11.3912 25.2458H16.7539V16.7884L11.3912 25.2458Z" fill="#EC1C24"/>
<path fill-rule="evenodd" clip-rule="evenodd" d="M117.736 194.601H115.793V179.668H113.324V177.104H115.762V173.681H114.28V171.277H120.17V173.646H118.458V177.136H127.082V179.305L117.736 194.601ZM123.824 179.697H118.458V188.154L123.824 179.697Z" fill="#EC1C24"/>
<path d="M15.1289 41.8587C15.3649 41.8587 15.3409 41.6933 15.4116 41.064C15.4836 40.4333 16.2396 38.72 18.4409 38.9147C19.4129 38.996 21.7543 40.2707 21.4263 43.1427C21.2969 44.2413 21.0729 45.0573 19.6396 47.2533C19.4223 47.5853 17.0316 51.224 15.1289 54.308C13.2263 51.224 10.8343 47.5853 10.6143 47.2533C9.18228 45.0573 8.95561 44.2413 8.83028 43.1427C8.50094 40.2707 10.8449 38.996 11.8143 38.9147C14.0156 38.72 14.7743 40.4333 14.8423 41.064C14.9143 41.6933 14.8943 41.8587 15.1289 41.8587Z" fill="#EC1C24"/>
<path d="M120.083 163.089C119.849 163.089 119.874 163.25 119.803 163.881C119.731 164.511 118.973 166.225 116.771 166.03C115.802 165.95 113.459 164.675 113.787 161.803C113.914 160.702 114.139 159.886 115.574 157.691C115.793 157.358 118.181 153.722 120.083 150.637C121.986 153.722 124.378 157.358 124.597 157.691C126.03 159.886 126.258 160.702 126.385 161.803C126.711 164.675 124.37 165.95 123.399 166.03C121.197 166.225 120.441 164.511 120.37 163.881C120.297 163.25 120.318 163.089 120.083 163.089Z" fill="#EC1C24"/>
<path d="M134.079 196.934C134.079 200.8 130.949 203.931 127.082 203.931" stroke="#EB008B" stroke-width="0.333333" stroke-miterlimit="2.613"/>
<path d="M127.082 203.931H8.12988" stroke="#EB008B" stroke-width="0.333333" stroke-miterlimit="2.613"/>
<path d="M8.13028 203.931C4.26628 203.931 1.13428 200.8 1.13428 196.934" stroke="#EB008B" stroke-width="0.333333" stroke-miterlimit="2.613"/>
<path d="M1.13403 196.934V8.01092" stroke="#EB008B" stroke-width="0.333333" stroke-miterlimit="2.613"/>
<path d="M1.13403 8.0105C1.13403 4.14516 4.26603 1.01316 8.13003 1.01316" stroke="#EB008B" stroke-width="0.333333" stroke-miterlimit="2.613"/>
<path d="M8.13013 1.01318H127.082" stroke="#EB008B" stroke-width="0.333333" stroke-miterlimit="2.613"/>
<path d="M127.082 1.01316C130.949 1.01316 134.079 4.14516 134.079 8.0105" stroke="#EB008B" stroke-width="0.333333" stroke-miterlimit="2.613"/>
<path d="M134.079 8.01043V196.933" stroke="#EB008B" stroke-width="0.333333" stroke-miterlimit="2.613"/>
</svg>
