<svg width="134" height="203" viewBox="0 0 134 203" fill="none" xmlns="http://www.w3.org/2000/svg">
<path fill-rule="evenodd" clip-rule="evenodd" d="M37.6588 21.7643C37.6588 21.7643 35.1868 27.023 30.9761 32.5656C26.4535 38.523 24.0895 41.899 24.0895 46.359C24.0895 50.1363 27.0441 52.5816 29.8241 52.5816C32.6601 52.5816 34.5068 51.5536 35.4695 47.871C35.8628 46.375 36.6975 46.6696 36.4775 48.2976C36.2148 50.2216 36.1961 54.403 33.0881 58.1816H42.2241C39.1215 54.403 39.1015 50.2216 38.8415 48.2976C38.6188 46.6696 39.4561 46.375 39.8468 47.871C40.8095 51.5536 42.6561 52.5816 45.4921 52.5816C48.2708 52.5816 51.2281 50.1363 51.2281 46.359C51.2281 41.899 48.8641 38.523 44.3401 32.5656C40.1295 27.023 37.6588 21.7643 37.6588 21.7643Z" fill="#231F20"/>
<path fill-rule="evenodd" clip-rule="evenodd" d="M96.5742 21.7643C96.5742 21.7643 94.1022 27.023 89.8915 32.5656C85.3675 38.523 83.0049 41.899 83.0049 46.359C83.0049 50.1363 85.9609 52.5816 88.7395 52.5816C91.5809 52.5816 93.4209 51.5536 94.3862 47.871C94.7782 46.375 95.6129 46.6696 95.3915 48.2976C95.1302 50.2216 95.1102 54.403 92.0062 58.1816H101.142C98.0382 54.403 98.0182 50.2216 97.7582 48.2976C97.5355 46.6696 98.3702 46.375 98.7622 47.871C99.7275 51.5536 101.57 52.5816 104.41 52.5816C107.189 52.5816 110.144 50.1363 110.144 46.359C110.144 41.899 107.778 38.523 103.254 32.5656C99.0489 27.023 96.5742 21.7643 96.5742 21.7643Z" fill="#231F20"/>
<path fill-rule="evenodd" clip-rule="evenodd" d="M96.5729 181.348C96.5729 181.348 99.0462 176.09 103.254 170.546C107.778 164.59 110.144 161.214 110.144 156.754C110.144 152.976 107.188 150.532 104.408 150.532C101.569 150.532 99.7275 151.56 98.7609 155.244C98.3702 156.737 97.5355 156.442 97.7555 154.814C98.0182 152.893 98.0382 148.71 101.141 144.933H92.0049C95.1102 148.71 95.1289 152.893 95.3915 154.814C95.6115 156.442 94.7782 156.737 94.3849 155.244C93.4209 151.56 91.5782 150.532 88.7395 150.532C85.9582 150.532 83.0049 152.976 83.0049 156.754C83.0049 161.214 85.3675 164.59 89.8915 170.546C94.1009 176.09 96.5729 181.348 96.5729 181.348Z" fill="#231F20"/>
<path fill-rule="evenodd" clip-rule="evenodd" d="M37.6588 181.348C37.6588 181.348 40.1295 176.09 44.3401 170.546C48.8615 164.59 51.2255 161.214 51.2255 156.754C51.2255 152.976 48.2708 150.532 45.4921 150.532C42.6548 150.532 40.8095 151.56 39.8468 155.244C39.4561 156.737 38.6188 156.442 38.8415 154.814C39.1001 152.893 39.1215 148.71 42.2241 144.933H33.0881C36.1961 148.71 36.2148 152.893 36.4761 154.814C36.6975 156.442 35.8628 156.737 35.4695 155.244C34.5068 151.56 32.6601 150.532 29.8241 150.532C27.0441 150.532 24.0895 152.976 24.0895 156.754C24.0895 161.214 26.4535 164.59 30.9761 170.546C35.1868 176.09 37.6588 181.348 37.6588 181.348Z" fill="#231F20"/>
<path fill-rule="evenodd" clip-rule="evenodd" d="M17.2643 9.93497H19.1936V24.7883H21.651V27.335H19.2283V30.7403H20.6976V33.1296H14.843V30.775H16.5456V27.3043H7.96698V25.1456L17.2643 9.93497ZM11.211 24.755H16.5456V16.3456L11.211 24.755Z" fill="#231F20"/>
<path fill-rule="evenodd" clip-rule="evenodd" d="M116.97 193.177H115.037V178.325H112.582V175.776H115.006V172.372H113.533V169.984H119.39V172.34H117.69V175.809H126.265V177.966L116.97 193.177ZM123.027 178.356H117.69V186.768L123.027 178.356Z" fill="#231F20"/>
<path d="M12.6979 53.8907C13.9032 52.6641 14.1032 50.2961 14.1699 49.7241C14.2339 49.1534 14.0806 49.0281 13.9686 49.0067C13.8606 48.9841 13.7392 49.1801 13.6846 49.4507C13.4232 50.7614 12.4592 51.3121 11.9939 51.3947C9.82189 51.7761 9.09923 50.3547 8.89523 49.9774C7.77523 47.9067 10.2806 44.6854 10.6992 44.1867C13.0432 41.3801 14.6952 38.3494 14.6952 38.3494C14.6952 38.3494 16.3486 41.3801 18.6952 44.1867C19.1112 44.6854 21.6152 47.9067 20.4966 49.9774C20.2926 50.3547 19.5726 51.7761 17.3979 51.3947C16.9326 51.3121 15.9699 50.7614 15.7059 49.4507C15.6526 49.1801 15.5286 48.9841 15.4206 49.0067C15.3112 49.0281 15.1579 49.1534 15.2232 49.7241C15.2872 50.2961 15.4859 52.6641 16.6926 53.8907H12.6979Z" fill="#231F20"/>
<path d="M121.538 149.224C120.328 150.449 120.131 152.817 120.066 153.389C119.999 153.961 120.154 154.088 120.263 154.108C120.372 154.129 120.495 153.933 120.548 153.665C120.812 152.353 121.772 151.8 122.242 151.719C124.416 151.337 125.135 152.759 125.338 153.136C126.455 155.208 123.952 158.431 123.535 158.929C121.19 161.736 119.539 164.765 119.539 164.765C119.539 164.765 117.887 161.736 115.54 158.929C115.124 158.431 112.62 155.208 113.739 153.136C113.94 152.759 114.663 151.337 116.839 151.719C117.304 151.8 118.264 152.353 118.527 153.665C118.582 153.933 118.703 154.129 118.814 154.108C118.922 154.088 119.078 153.961 119.011 153.389C118.947 152.817 118.747 150.449 117.539 149.224H121.538Z" fill="#231F20"/>
<path d="M133.221 195.498C133.221 199.342 130.108 202.457 126.264 202.457" stroke="#EB008B" stroke-width="0.333333" stroke-miterlimit="2.613"/>
<path d="M126.264 202.457H7.96698" stroke="#EB008B" stroke-width="0.333333" stroke-miterlimit="2.613"/>
<path d="M7.96746 202.457C4.1248 202.457 1.01013 199.342 1.01013 195.498" stroke="#EB008B" stroke-width="0.333333" stroke-miterlimit="2.613"/>
<path d="M1.01044 195.498V7.61673" stroke="#EB008B" stroke-width="0.333333" stroke-miterlimit="2.613"/>
<path d="M1.01044 7.61658C1.01044 3.77391 4.1251 0.657911 7.96777 0.657911" stroke="#EB008B" stroke-width="0.333333" stroke-miterlimit="2.613"/>
<path d="M7.96747 0.657715H126.265" stroke="#EB008B" stroke-width="0.333333" stroke-miterlimit="2.613"/>
<path d="M126.264 0.657667C130.108 0.657667 133.222 3.77367 133.222 7.61633" stroke="#EB008B" stroke-width="0.333333" stroke-miterlimit="2.613"/>
<path d="M133.221 7.61661V195.498" stroke="#EB008B" stroke-width="0.333333" stroke-miterlimit="2.613"/>
</svg>
