<svg width="133" height="203" viewBox="0 0 133 203" fill="none" xmlns="http://www.w3.org/2000/svg">
<path d="M33.7981 57.2656C37.9661 52.1696 37.0581 44.6936 37.0581 44.6936C36.4354 48.1403 32.9661 50.191 31.5461 50.4203C26.5674 51.2456 24.1928 47.5843 23.8821 47.0243C20.4808 40.9056 25.4421 37.0843 26.1821 36.6336C30.6848 33.8683 34.3261 37.023 34.3261 37.023C34.9941 37.1683 34.6128 36.3443 34.6128 36.3443C30.8754 34.3043 30.6928 30.847 30.8301 29.6936C31.6901 22.799 38.4701 22.9563 38.4701 22.9563C38.4701 22.9563 45.2421 22.799 46.1034 29.6936C46.2368 30.847 46.0541 34.3043 42.3181 36.3443C42.3181 36.3443 41.9354 37.1683 42.6034 37.023C42.6034 37.023 46.2461 33.8683 50.7501 36.6336C51.4901 37.0843 56.4514 40.9056 53.0488 47.0243C52.7368 47.5843 50.3647 51.2456 45.3834 50.4203C43.9647 50.191 40.4967 48.1403 39.8767 44.6936C39.8767 44.6936 38.9634 52.1696 43.1328 57.2656H33.7981Z" fill="#231F20"/>
<path d="M89.4374 57.2656C93.6041 52.1696 92.6948 44.6936 92.6948 44.6936C92.0721 48.1403 88.6028 50.191 87.1841 50.4203C82.2028 51.2456 79.8294 47.5843 79.5201 47.0243C76.1188 40.9056 81.0801 37.0843 81.8201 36.6336C86.3228 33.8683 89.9641 37.023 89.9641 37.023C90.6334 37.1683 90.2494 36.3443 90.2494 36.3443C86.5148 34.3043 86.3308 30.847 86.4668 29.6936C87.3268 22.799 94.1081 22.9563 94.1081 22.9563C94.1081 22.9563 100.88 22.799 101.741 29.6936C101.876 30.847 101.692 34.3043 97.9561 36.3443C97.9561 36.3443 97.5734 37.1683 98.2428 37.023C98.2428 37.023 101.884 33.8683 106.389 36.6336C107.127 37.0843 112.088 40.9056 108.688 47.0243C108.375 47.5843 106.004 51.2456 101.021 50.4203C99.6014 50.191 96.1348 48.1403 95.5134 44.6936C95.5134 44.6936 94.6028 52.1696 98.7708 57.2656H89.4374Z" fill="#231F20"/>
<path d="M61.6172 118.466C65.7865 113.37 64.8758 105.894 64.8758 105.894C64.2545 109.341 60.7852 111.392 59.3665 111.621C54.3838 112.446 52.0092 108.785 51.7012 108.225C48.2985 102.106 53.2598 98.2849 53.9998 97.8342C58.5025 95.0689 62.1452 98.2235 62.1452 98.2235C62.8132 98.3675 62.4318 97.5449 62.4318 97.5449C58.6932 95.5049 58.5118 92.0475 58.6465 90.8929C59.5092 83.9995 66.2905 84.1569 66.2905 84.1569C66.2905 84.1569 73.0625 83.9995 73.9225 90.8929C74.0572 92.0475 73.8745 95.5049 70.1372 97.5449C70.1372 97.5449 69.7545 98.3675 70.4238 98.2235C70.4238 98.2235 74.0652 95.0689 78.5705 97.8342C79.3092 98.2849 84.2705 102.106 80.8692 108.225C80.5558 108.785 78.1838 112.446 73.2025 111.621C71.7838 111.392 68.3158 109.341 67.6945 105.894C67.6945 105.894 66.7852 113.37 70.9518 118.466H61.6172Z" fill="#231F20"/>
<path d="M98.7694 145.357C94.6027 150.454 95.5121 157.93 95.5121 157.93C96.1347 154.482 99.6027 152.431 101.023 152.201C106.004 151.375 108.377 155.037 108.687 155.599C112.088 161.715 107.127 165.537 106.387 165.989C101.884 168.754 98.2427 165.599 98.2427 165.599C97.5734 165.457 97.9574 166.278 97.9574 166.278C101.692 168.317 101.876 171.775 101.741 172.929C100.879 179.822 94.0987 179.667 94.0987 179.667C94.0987 179.667 87.3267 179.822 86.4667 172.929C86.3307 171.775 86.5147 168.317 90.2507 166.278C90.2507 166.278 90.6334 165.457 89.9641 165.599C89.9641 165.599 86.3227 168.754 81.8174 165.989C81.0801 165.537 76.1187 161.715 79.5187 155.599C79.8321 155.037 82.2041 151.375 87.1854 152.201C88.6054 152.431 92.0721 154.482 92.6947 157.93C92.6947 157.93 93.6041 150.454 89.4361 145.357H98.7694Z" fill="#231F20"/>
<path d="M43.1314 145.357C38.9634 150.454 39.874 157.93 39.874 157.93C40.4954 154.482 43.9647 152.431 45.3834 152.201C50.366 151.375 52.7407 155.037 53.0487 155.599C56.4514 161.715 51.49 165.537 50.7487 165.989C46.246 168.754 42.6034 165.599 42.6034 165.599C41.9367 165.457 42.3194 166.278 42.3194 166.278C46.0567 168.317 46.2367 171.775 46.1034 172.929C45.2407 179.822 38.4607 179.667 38.4607 179.667C38.4607 179.667 31.6887 179.822 30.83 172.929C30.6927 171.775 30.8767 168.317 34.614 166.278C34.614 166.278 34.9967 165.457 34.326 165.599C34.326 165.599 30.6847 168.754 26.1807 165.989C25.442 165.537 20.4807 161.715 23.882 155.599C24.1954 155.037 26.5674 151.375 31.5474 152.201C32.966 152.431 36.434 154.482 37.0554 157.93C37.0554 157.93 37.966 150.454 33.798 145.357H43.1314Z" fill="#231F20"/>
<path d="M8.55077 9.7402H19.5841V12.3122H11.0961L10.7508 16.5775C10.7508 16.5775 14.6788 14.3642 18.5188 17.5602C19.2094 18.1402 22.6148 21.6149 20.4801 28.4815C20.0548 29.8549 17.6188 33.5549 12.6734 32.8309C12.3308 32.7842 8.53477 31.8882 7.16943 27.6669L9.60143 27.1162C9.60143 27.1162 11.4761 30.8789 13.9961 30.5709C15.3068 30.4135 18.6028 29.5455 18.5601 24.1295C18.5548 23.6589 18.5588 18.9242 14.5068 18.2402C13.1721 18.0175 11.3508 18.1975 8.96143 20.6735L7.8081 19.9069L8.55077 9.7402Z" fill="#231F20"/>
<path d="M124.019 192.88H112.986V190.31H121.474L121.818 186.044C121.818 186.044 117.893 188.258 114.051 185.062C113.359 184.482 109.955 181.006 112.089 174.14C112.515 172.767 114.95 169.068 119.897 169.791C120.238 169.838 124.037 170.734 125.398 174.954L122.967 175.506C122.967 175.506 121.094 171.743 118.571 172.052C117.263 172.21 113.966 173.076 114.009 178.492C114.015 178.963 114.013 183.695 118.062 184.38C119.398 184.604 121.218 184.424 123.607 181.948L124.762 182.715L124.019 192.88Z" fill="#231F20"/>
<path d="M120.385 149.184C118.549 151.456 118.951 154.791 118.951 154.791C119.224 153.255 120.753 152.339 121.38 152.236C123.579 151.867 124.621 153.502 124.757 153.751C126.259 156.479 124.072 158.183 123.745 158.384C121.76 159.618 120.153 158.211 120.153 158.211C119.857 158.147 120.027 158.515 120.027 158.515C121.675 159.423 121.756 160.966 121.696 161.48C121.315 164.554 118.327 164.483 118.327 164.483C118.327 164.483 115.343 164.554 114.963 161.48C114.904 160.966 114.983 159.423 116.631 158.515C116.631 158.515 116.8 158.147 116.504 158.211C116.504 158.211 114.899 159.618 112.915 158.384C112.587 158.183 110.401 156.479 111.9 153.751C112.039 153.502 113.081 151.867 115.279 152.236C115.905 152.339 117.435 153.255 117.708 154.791C117.708 154.791 118.109 151.456 116.271 149.184H120.385Z" fill="#231F20"/>
<path d="M12.1835 53.4415C14.0209 51.1695 13.6195 47.8349 13.6195 47.8349C13.3449 49.3722 11.8155 50.2855 11.1902 50.3895C8.99421 50.7562 7.94887 49.1242 7.81287 48.8735C6.31154 46.1455 8.49954 44.4415 8.82487 44.2415C10.8115 43.0069 12.4169 44.4135 12.4169 44.4135C12.7115 44.4789 12.5422 44.1109 12.5422 44.1109C10.8969 43.2015 10.8142 41.6602 10.8742 41.1455C11.2555 38.0709 14.2462 38.1415 14.2462 38.1415C14.2462 38.1415 17.2275 38.0709 17.6075 41.1455C17.6662 41.6602 17.5862 43.2015 15.9395 44.1109C15.9395 44.1109 15.7689 44.4789 16.0649 44.4135C16.0649 44.4135 17.6715 43.0069 19.6555 44.2415C19.9822 44.4415 22.1702 46.1455 20.6702 48.8735C20.5329 49.1242 19.4875 50.7562 17.2915 50.3895C16.6662 50.2855 15.1369 49.3722 14.8622 47.8349C14.8622 47.8349 14.4609 51.1695 16.2995 53.4415H12.1835Z" fill="#231F20"/>
<path d="M132.354 195.199C132.354 199.041 129.241 202.154 125.398 202.154" stroke="#EB008B" stroke-width="0.333333" stroke-miterlimit="2.613"/>
<path d="M125.398 202.154H7.17041" stroke="#EB008B" stroke-width="0.333333" stroke-miterlimit="2.613"/>
<path d="M7.17048 202.154C3.32914 202.154 0.214478 199.04 0.214478 195.199" stroke="#EB008B" stroke-width="0.333333" stroke-miterlimit="2.613"/>
<path d="M0.214783 195.199V7.42321" stroke="#EB008B" stroke-width="0.333333" stroke-miterlimit="2.613"/>
<path d="M0.214783 7.42383C0.214783 3.58249 3.32945 0.469162 7.17078 0.469162" stroke="#EB008B" stroke-width="0.333333" stroke-miterlimit="2.613"/>
<path d="M7.17053 0.469482H125.399" stroke="#EB008B" stroke-width="0.333333" stroke-miterlimit="2.613"/>
<path d="M125.398 0.469528C129.241 0.469528 132.354 3.58153 132.354 7.42419" stroke="#EB008B" stroke-width="0.333333" stroke-miterlimit="2.613"/>
<path d="M132.354 7.42382V195.2" stroke="#EB008B" stroke-width="0.333333" stroke-miterlimit="2.613"/>
</svg>
