<svg width="127" height="193" viewBox="0 0 127 193" fill="none" xmlns="http://www.w3.org/2000/svg">
<path fill-rule="evenodd" clip-rule="evenodd" d="M97.1303 32.4167C92.8263 26.6033 91.6716 21.698 91.6716 21.698C91.6716 21.698 90.5196 26.6033 86.2156 32.4167C81.9143 38.2287 77.929 39.8393 77.929 39.8393C77.929 39.8393 81.9143 41.4487 86.2156 47.2633C90.5196 53.0767 91.6716 57.9807 91.6716 57.9807C91.6716 57.9807 92.8263 53.0767 97.1303 47.2633C101.433 41.4487 105.417 39.8393 105.417 39.8393C105.417 39.8393 101.433 38.2287 97.1303 32.4167" fill="#EC1C24"/>
<path fill-rule="evenodd" clip-rule="evenodd" d="M41.0573 32.4167C36.752 26.6033 35.5986 21.698 35.5986 21.698C35.5986 21.698 34.4466 26.6033 30.1413 32.4167C25.8386 38.2287 21.8573 39.8393 21.8573 39.8393C21.8573 39.8393 25.8386 41.4487 30.1413 47.2633C34.4466 53.0767 35.5986 57.9807 35.5986 57.9807C35.5986 57.9807 36.752 53.0767 41.0573 47.2633C45.36 41.4487 49.3426 39.8393 49.3426 39.8393C49.3426 39.8393 45.36 38.2287 41.0573 32.4167" fill="#EC1C24"/>
<path fill-rule="evenodd" clip-rule="evenodd" d="M69.095 89.1485C64.791 83.3351 63.6363 78.4298 63.6363 78.4298C63.6363 78.4298 62.4817 83.3351 58.1777 89.1485C53.8763 94.9605 49.8937 96.5725 49.8937 96.5725C49.8937 96.5725 53.8763 98.1818 58.1777 103.995C62.4817 109.808 63.6363 114.711 63.6363 114.711C63.6363 114.711 64.791 109.808 69.095 103.995C73.395 98.1818 77.3803 96.5725 77.3803 96.5725C77.3803 96.5725 73.395 94.9605 69.095 89.1485" fill="#EC1C24"/>
<path fill-rule="evenodd" clip-rule="evenodd" d="M97.1303 145.88C92.8263 140.068 91.6716 135.163 91.6716 135.163C91.6716 135.163 90.5196 140.068 86.2156 145.88C81.9143 151.692 77.929 153.303 77.929 153.303C77.929 153.303 81.9143 154.914 86.2156 160.727C90.5196 166.54 91.6716 171.444 91.6716 171.444C91.6716 171.444 92.8263 166.54 97.1303 160.727C101.433 154.914 105.417 153.303 105.417 153.303C105.417 153.303 101.433 151.692 97.1303 145.88" fill="#EC1C24"/>
<path fill-rule="evenodd" clip-rule="evenodd" d="M41.0573 145.88C36.752 140.068 35.5986 135.163 35.5986 135.163C35.5986 135.163 34.4466 140.068 30.1413 145.88C25.8386 151.692 21.8573 153.303 21.8573 153.303C21.8573 153.303 25.8386 154.914 30.1413 160.727C34.4466 166.54 35.5986 171.444 35.5986 171.444C35.5986 171.444 36.752 166.54 41.0573 160.727C45.36 154.914 49.3426 153.303 49.3426 153.303C49.3426 153.303 45.36 151.692 41.0573 145.88" fill="#EC1C24"/>
<path d="M8.87379 9.71411H19.3391V12.1541H11.2885L10.9618 16.2008C10.9618 16.2008 14.6858 14.0994 18.3285 17.1314C18.9845 17.6808 22.2151 20.9781 20.1871 27.4901C19.7858 28.7928 17.4751 32.3034 12.7845 31.6141C12.4605 31.5728 8.85779 30.7221 7.56445 26.7181L9.87112 26.1941C9.87112 26.1941 11.6498 29.7648 14.0391 29.4714C15.2831 29.3234 18.4071 28.4981 18.3685 23.3608C18.3618 22.9154 18.3658 18.4261 14.5245 17.7781C13.2565 17.5634 11.5298 17.7368 9.26445 20.0848L8.16979 19.3581L8.87379 9.71411Z" fill="#EC1C24"/>
<path d="M118.4 183.429H107.932V180.992H115.982L116.31 176.942C116.31 176.942 112.588 179.044 108.945 176.013C108.286 175.461 105.058 172.166 107.084 165.653C107.488 164.35 109.797 160.841 114.489 161.529C114.812 161.573 118.416 162.42 119.706 166.425L117.4 166.95C117.4 166.95 115.624 163.378 113.233 163.672C111.99 163.82 108.864 164.645 108.905 169.782C108.91 170.228 108.908 174.716 112.749 175.366C114.017 175.58 115.744 175.406 118.009 173.058L119.104 173.785L118.4 183.429Z" fill="#EC1C24"/>
<path d="M14.3829 36.6529C14.3829 36.6529 16.2709 42.6303 20.6469 45.0423C20.6469 45.0423 16.3335 47.2583 14.3829 53.3649C12.4309 47.2583 8.11353 45.0423 8.11353 45.0423C12.4895 42.6303 14.3829 36.6529 14.3829 36.6529Z" fill="#EC1C24"/>
<path d="M112.891 156.492C112.891 156.492 111.003 150.516 106.624 148.103C106.624 148.103 110.94 145.887 112.891 139.78C114.843 145.887 119.16 148.103 119.16 148.103C114.783 150.516 112.891 156.492 112.891 156.492Z" fill="#EC1C24"/>
<path d="M126.305 185.627C126.305 189.271 123.351 192.224 119.707 192.224" stroke="#EB008B" stroke-width="0.333333" stroke-miterlimit="2.613"/>
<path d="M119.707 192.224H7.56433" stroke="#EB008B" stroke-width="0.333333" stroke-miterlimit="2.613"/>
<path d="M7.5639 192.224C3.92257 192.224 0.969238 189.272 0.969238 185.627" stroke="#EB008B" stroke-width="0.333333" stroke-miterlimit="2.613"/>
<path d="M0.96875 185.627V7.51629" stroke="#EB008B" stroke-width="0.333333" stroke-miterlimit="2.613"/>
<path d="M0.96875 7.5163C0.96875 3.8723 3.92208 0.918964 7.56342 0.918964" stroke="#EB008B" stroke-width="0.333333" stroke-miterlimit="2.613"/>
<path d="M7.56384 0.919373H119.707" stroke="#EB008B" stroke-width="0.333333" stroke-miterlimit="2.613"/>
<path d="M119.707 0.919391C123.351 0.919391 126.304 3.87272 126.304 7.51672" stroke="#EB008B" stroke-width="0.333333" stroke-miterlimit="2.613"/>
<path d="M126.305 7.51629V185.627" stroke="#EB008B" stroke-width="0.333333" stroke-miterlimit="2.613"/>
</svg>
