<svg width="134" height="205" viewBox="0 0 134 205" fill="none" xmlns="http://www.w3.org/2000/svg">
<path d="M37.7057 30.1849C38.2003 30.1849 38.1523 29.8409 38.303 28.5129C38.4497 27.1849 40.051 23.5783 44.7003 23.9863C46.7497 24.1569 51.6923 26.8409 50.999 32.8903C50.7337 35.2076 50.2563 36.9249 47.2297 41.5489C46.7683 42.2516 41.7257 49.9143 37.7057 56.4076C33.691 49.9143 28.639 42.2516 28.179 41.5489C25.1537 36.9249 24.6777 35.2076 24.4057 32.8903C23.7123 26.8409 28.659 24.1569 30.7083 23.9863C35.359 23.5783 36.959 27.1849 37.1043 28.5129C37.255 29.8409 37.2097 30.1849 37.7057 30.1849Z" fill="#EC1C24"/>
<path d="M96.2472 30.1849C96.7418 30.1849 96.6938 29.8409 96.8432 28.5129C96.9898 27.1849 98.5925 23.5783 103.24 23.9863C105.29 24.1569 110.232 26.8409 109.54 32.8903C109.274 35.2076 108.798 36.9249 105.771 41.5489C105.31 42.2516 100.267 49.9143 96.2472 56.4076C92.2312 49.9143 87.1792 42.2516 86.7205 41.5489C83.6938 36.9249 83.2178 35.2076 82.9472 32.8903C82.2525 26.8409 87.1992 24.1569 89.2472 23.9863C93.8978 23.5783 95.4978 27.1849 95.6458 28.5129C95.7965 29.8409 95.7498 30.1849 96.2472 30.1849Z" fill="#EC1C24"/>
<path d="M96.2381 174.758C95.7435 174.758 95.7915 175.102 95.6435 176.429C95.4955 177.758 93.8955 181.363 89.2448 180.957C87.1955 180.786 82.2528 178.102 82.9475 172.053C83.2115 169.734 83.6888 168.018 86.7155 163.393C87.1768 162.691 92.2208 155.029 96.2381 148.535C100.254 155.029 105.306 162.691 105.766 163.393C108.791 168.018 109.269 169.734 109.541 172.053C110.233 178.102 105.285 180.786 103.237 180.957C98.5875 181.363 96.9861 177.758 96.8381 176.429C96.6888 175.102 96.7355 174.758 96.2381 174.758Z" fill="#EC1C24"/>
<path d="M37.6977 174.758C37.203 174.758 37.251 175.102 37.1017 176.429C36.955 177.758 35.3537 181.363 30.7044 180.957C28.655 180.786 23.7124 178.102 24.4057 172.053C24.671 169.734 25.1484 168.018 28.1737 163.393C28.6364 162.691 33.679 155.029 37.6977 148.535C41.7137 155.029 46.7657 162.691 47.2257 163.393C50.251 168.018 50.727 169.734 50.999 172.053C51.6924 178.102 46.7444 180.786 44.6977 180.957C40.0457 181.363 38.4457 177.758 38.299 176.429C38.1484 175.102 38.195 174.758 37.6977 174.758Z" fill="#EC1C24"/>
<path d="M66.9764 92.4603C67.4711 92.4603 67.4231 92.115 67.5724 90.7896C67.7204 89.459 69.3217 85.8536 73.9711 86.2616C76.0191 86.4323 80.9617 89.1163 80.2697 95.1643C80.0044 97.483 79.5271 99.199 76.5004 103.823C76.0391 104.526 70.9964 112.188 66.9764 118.682C62.9604 112.188 57.9084 104.526 57.4497 103.823C54.4244 99.199 53.9471 97.483 53.6764 95.1643C52.9817 89.1163 57.9284 86.4323 59.9764 86.2616C64.6297 85.8536 66.2284 89.459 66.3751 90.7896C66.5271 92.115 66.4804 92.4603 66.9764 92.4603Z" fill="#EC1C24"/>
<path d="M8.88543 10.3418H19.9868V12.9284H11.4468L11.1001 17.2218C11.1001 17.2218 15.0494 14.9938 18.9134 18.2084C19.6094 18.7911 23.0348 22.2871 20.8868 29.1964C20.4588 30.5791 18.0081 34.3004 13.0334 33.5724C12.6894 33.5271 8.86809 32.6244 7.49609 28.3778L9.94276 27.8218C9.94276 27.8218 11.8281 31.6084 14.3628 31.2978C15.6841 31.1418 18.9988 30.2658 18.9561 24.8164C18.9508 24.3444 18.9534 19.5818 14.8788 18.8951C13.5334 18.6684 11.7014 18.8511 9.29876 21.3418L8.13743 20.5698L8.88543 10.3418Z" fill="#EC1C24"/>
<path d="M125.06 194.601H113.959V192.017H122.5L122.845 187.722C122.845 187.722 118.896 189.952 115.032 186.736C114.336 186.15 110.909 182.656 113.057 175.748C113.485 174.365 115.935 170.642 120.913 171.372C121.255 171.417 125.077 172.318 126.449 176.566L124.003 177.121C124.003 177.121 122.116 173.334 119.581 173.646C118.263 173.804 114.947 174.678 114.989 180.128C114.996 180.6 114.992 185.361 119.068 186.049C120.412 186.274 122.244 186.093 124.647 183.602L125.808 184.373L125.06 194.601Z" fill="#EC1C24"/>
<path d="M14.4947 41.8587C14.7294 41.8587 14.7067 41.6933 14.776 41.064C14.8467 40.4333 15.6054 38.72 17.8067 38.9147C18.7774 38.996 21.12 40.2707 20.792 43.1427C20.664 44.2413 20.4374 45.0573 19.0067 47.2533C18.7867 47.5853 16.3974 51.224 14.4947 54.308C12.5907 51.224 10.2 47.5853 9.98136 47.2533C8.54936 45.0573 8.32136 44.2413 8.19603 43.1427C7.8667 40.2707 10.208 38.996 11.1814 38.9147C13.3827 38.72 14.1387 40.4333 14.2094 41.064C14.2814 41.6933 14.26 41.8587 14.4947 41.8587Z" fill="#EC1C24"/>
<path d="M119.451 163.089C119.216 163.089 119.241 163.25 119.169 163.881C119.099 164.511 118.34 166.225 116.14 166.03C115.168 165.95 112.825 164.675 113.155 161.803C113.283 160.702 113.508 159.886 114.941 157.691C115.159 157.358 117.548 153.722 119.451 150.637C121.353 153.722 123.745 157.358 123.964 157.691C125.397 159.886 125.624 160.702 125.752 161.803C126.08 164.675 123.737 165.95 122.765 166.03C120.564 166.225 119.807 164.511 119.735 163.881C119.665 163.25 119.685 163.089 119.451 163.089Z" fill="#EC1C24"/>
<path d="M133.448 196.934C133.448 200.8 130.313 203.931 126.449 203.931" stroke="#EB008B" stroke-width="0.333333" stroke-miterlimit="2.613"/>
<path d="M126.449 203.931H7.49707" stroke="#EB008B" stroke-width="0.333333" stroke-miterlimit="2.613"/>
<path d="M7.4972 203.931C3.63187 203.931 0.498535 200.8 0.498535 196.934" stroke="#EB008B" stroke-width="0.333333" stroke-miterlimit="2.613"/>
<path d="M0.498535 196.934V8.01092" stroke="#EB008B" stroke-width="0.333333" stroke-miterlimit="2.613"/>
<path d="M0.498535 8.0105C0.498535 4.14516 3.63187 1.01316 7.4972 1.01316" stroke="#EB008B" stroke-width="0.333333" stroke-miterlimit="2.613"/>
<path d="M7.49731 1.01318H126.449" stroke="#EB008B" stroke-width="0.333333" stroke-miterlimit="2.613"/>
<path d="M126.449 1.01316C130.313 1.01316 133.448 4.14516 133.448 8.0105" stroke="#EB008B" stroke-width="0.333333" stroke-miterlimit="2.613"/>
<path d="M133.448 8.01043V196.933" stroke="#EB008B" stroke-width="0.333333" stroke-miterlimit="2.613"/>
</svg>
