<svg width="133" height="203" viewBox="0 0 133 203" fill="none" xmlns="http://www.w3.org/2000/svg">
<path fill-rule="evenodd" clip-rule="evenodd" d="M37.1745 21.7643C37.1745 21.7643 34.7012 27.0216 30.4919 32.5656C25.9692 38.5216 23.6039 41.899 23.6039 46.359C23.6039 50.1363 26.5599 52.5816 29.3399 52.5816C32.1785 52.5816 34.0225 51.5536 34.9839 47.8696C35.3799 46.375 36.2132 46.6696 35.9919 48.2976C35.7305 50.2203 35.7105 54.403 32.6052 58.1803H41.7412C38.6372 54.403 38.6185 50.2203 38.3572 48.2976C38.1372 46.6696 38.9705 46.375 39.3625 47.8696C40.3265 51.5536 42.1719 52.5816 45.0079 52.5816C47.7879 52.5816 50.7452 50.1363 50.7452 46.359C50.7452 41.899 48.3786 38.5216 43.8559 32.5656C39.6466 27.0216 37.1745 21.7643 37.1745 21.7643Z" fill="#231F20"/>
<path fill-rule="evenodd" clip-rule="evenodd" d="M96.0912 21.7643C96.0912 21.7643 93.6178 27.0216 89.4085 32.5656C84.8845 38.5216 82.5205 41.899 82.5205 46.359C82.5205 50.1363 85.4752 52.5816 88.2552 52.5816C91.0938 52.5816 92.9365 51.5536 93.9018 47.8696C94.2925 46.375 95.1285 46.6696 94.9072 48.2976C94.6472 50.2203 94.6258 54.403 91.5205 58.1803H100.657C97.5525 54.403 97.5338 50.2203 97.2725 48.2976C97.0512 46.6696 97.8858 46.375 98.2792 47.8696C99.2418 51.5536 101.085 52.5816 103.925 52.5816C106.705 52.5816 109.661 50.1363 109.661 46.359C109.661 41.899 107.297 38.5216 102.771 32.5656C98.5632 27.0216 96.0912 21.7643 96.0912 21.7643Z" fill="#231F20"/>
<path fill-rule="evenodd" clip-rule="evenodd" d="M96.0885 181.348C96.0885 181.348 98.5605 176.09 102.771 170.546C107.297 164.59 109.661 161.214 109.661 156.754C109.661 152.976 106.703 150.532 103.925 150.532C101.083 150.532 99.2418 151.56 98.2765 155.244C97.8858 156.737 97.0512 156.442 97.2712 154.814C97.5338 152.893 97.5525 148.71 100.657 144.933H91.5192C94.6258 148.71 94.6458 152.893 94.9072 154.814C95.1258 156.442 94.2925 156.737 93.9005 155.244C92.9365 151.56 91.0925 150.532 88.2538 150.532C85.4752 150.532 82.5205 152.976 82.5205 156.754C82.5205 161.214 84.8845 164.59 89.4085 170.546C93.6152 176.09 96.0885 181.348 96.0885 181.348Z" fill="#231F20"/>
<path fill-rule="evenodd" clip-rule="evenodd" d="M37.1745 181.348C37.1745 181.348 39.6466 176.09 43.8559 170.546C48.3772 164.59 50.7439 161.214 50.7439 156.754C50.7439 152.976 47.7879 150.532 45.0079 150.532C42.1692 150.532 40.3265 151.56 39.3625 155.244C38.9705 156.737 38.1345 156.442 38.3572 154.814C38.6159 152.893 38.6372 148.71 41.7412 144.933H32.6052C35.7105 148.71 35.7306 152.893 35.9906 154.814C36.2132 156.442 35.3799 156.737 34.9839 155.244C34.0225 151.56 32.1785 150.532 29.3399 150.532C26.5599 150.532 23.6039 152.976 23.6039 156.754C23.6039 161.214 25.9692 164.59 30.4919 170.546C34.7012 176.09 37.1745 181.348 37.1745 181.348Z" fill="#231F20"/>
<path fill-rule="evenodd" clip-rule="evenodd" d="M66.6328 83.349C66.6328 83.349 64.1608 88.6064 59.9501 94.149C55.4275 100.105 53.0635 103.484 53.0635 107.942C53.0635 111.721 56.0181 114.166 58.7968 114.166C61.6355 114.166 63.4808 113.136 64.4421 109.454C64.8381 107.958 65.6715 108.254 65.4501 109.881C65.1888 111.805 65.1688 115.988 62.0635 119.766H71.1995C68.0968 115.988 68.0755 111.805 67.8155 109.881C67.5928 108.254 68.4288 107.958 68.8208 109.454C69.7835 113.136 71.6301 114.166 74.4661 114.166C77.2448 114.166 80.2008 111.721 80.2008 107.942C80.2008 103.484 77.8368 100.105 73.3141 94.149C69.1048 88.6064 66.6328 83.349 66.6328 83.349Z" fill="#231F20"/>
<path d="M8.8645 9.93363H19.9045V12.507H11.4112L11.0672 16.775C11.0672 16.775 14.9952 14.559 18.8365 17.7576C19.5312 18.3376 22.9365 21.815 20.7992 28.6843C20.3738 30.059 17.9392 33.7616 12.9885 33.0363C12.6472 32.991 8.8485 32.0936 7.4845 27.871L9.9165 27.3176C9.9165 27.3176 11.7898 31.0843 14.3152 30.775C15.6232 30.6176 18.9232 29.7496 18.8805 24.3283C18.8752 23.859 18.8778 19.1243 14.8245 18.4403C13.4898 18.215 11.6658 18.3963 9.27516 20.8736L8.1205 20.107L8.8645 9.93363Z" fill="#231F20"/>
<path d="M124.4 193.178H113.36V190.608H121.852L122.197 186.337C122.197 186.337 118.266 188.553 114.426 185.356C113.733 184.774 110.325 181.297 112.464 174.429C112.888 173.053 115.324 169.352 120.274 170.076C120.614 170.122 124.414 171.018 125.778 175.242L123.346 175.794C123.346 175.794 121.472 172.028 118.949 172.34C117.638 172.494 114.341 173.364 114.382 178.784C114.389 179.254 114.385 183.988 118.44 184.673C119.773 184.898 121.596 184.717 123.986 182.241L125.142 183.008L124.4 193.178Z" fill="#231F20"/>
<path d="M12.211 53.8907C13.4203 52.6641 13.6176 50.2961 13.6843 49.7241C13.7496 49.1534 13.5963 49.0281 13.487 49.0067C13.375 48.9841 13.255 49.1801 13.199 49.4507C12.939 50.7614 11.9763 51.3121 11.5096 51.3947C9.33498 51.7761 8.61631 50.3547 8.41098 49.9774C7.29231 47.9067 9.79631 44.6841 10.215 44.1854C12.559 41.3787 14.2123 38.3494 14.2123 38.3494C14.2123 38.3494 15.8656 41.3787 18.2083 44.1854C18.6256 44.6841 21.1283 47.9067 20.0096 49.9774C19.807 50.3547 19.087 51.7761 16.911 51.3947C16.4483 51.3121 15.4843 50.7614 15.223 49.4507C15.1696 49.1801 15.0456 48.9841 14.9336 49.0067C14.8256 49.0281 14.6736 49.1534 14.739 49.7241C14.803 50.2961 15.0016 52.6641 16.2096 53.8907H12.211Z" fill="#231F20"/>
<path d="M121.053 149.224C119.844 150.449 119.647 152.817 119.581 153.389C119.515 153.961 119.668 154.088 119.777 154.108C119.888 154.129 120.011 153.933 120.064 153.665C120.327 152.353 121.288 151.8 121.755 151.719C123.931 151.337 124.651 152.759 124.852 153.136C125.972 155.208 123.468 158.431 123.053 158.929C120.707 161.736 119.055 164.765 119.055 164.765C119.055 164.765 117.403 161.736 115.056 158.929C114.637 158.431 112.136 155.208 113.256 153.136C113.457 152.759 114.18 151.337 116.353 151.719C116.819 151.8 117.783 152.353 118.044 153.665C118.096 153.933 118.219 154.129 118.329 154.108C118.439 154.088 118.595 153.961 118.528 153.389C118.463 152.817 118.261 150.449 117.055 149.224H121.053Z" fill="#231F20"/>
<path d="M132.74 195.498C132.74 199.342 129.624 202.457 125.781 202.457" stroke="#EB008B" stroke-width="0.333333" stroke-miterlimit="2.613"/>
<path d="M125.781 202.457H7.48389" stroke="#EB008B" stroke-width="0.333333" stroke-miterlimit="2.613"/>
<path d="M7.48441 202.457C3.64041 202.457 0.524414 199.342 0.524414 195.498" stroke="#EB008B" stroke-width="0.333333" stroke-miterlimit="2.613"/>
<path d="M0.52478 195.498V7.61539" stroke="#EB008B" stroke-width="0.333333" stroke-miterlimit="2.613"/>
<path d="M0.52478 7.61523C0.52478 3.77257 3.64078 0.656568 7.48478 0.656568" stroke="#EB008B" stroke-width="0.333333" stroke-miterlimit="2.613"/>
<path d="M7.48438 0.656982H125.782" stroke="#EB008B" stroke-width="0.333333" stroke-miterlimit="2.613"/>
<path d="M125.781 0.656935C129.624 0.656935 132.74 3.7716 132.74 7.6156" stroke="#EB008B" stroke-width="0.333333" stroke-miterlimit="2.613"/>
<path d="M132.74 7.61527V195.498" stroke="#EB008B" stroke-width="0.333333" stroke-miterlimit="2.613"/>
</svg>
