<svg width="133" height="203" viewBox="0 0 133 203" fill="none" xmlns="http://www.w3.org/2000/svg">
<path d="M34.0885 57.8365C38.2552 52.7405 37.3459 45.2645 37.3459 45.2645C36.7232 48.7112 33.2565 50.7619 31.8365 50.9912C26.8552 51.8165 24.4805 48.1552 24.1712 47.5952C20.7712 41.4765 25.7312 37.6552 26.4725 37.2045C30.9752 34.4392 34.6152 37.5939 34.6152 37.5939C35.2845 37.7392 34.9032 36.9152 34.9032 36.9152C31.1659 34.8752 30.9832 31.4179 31.1179 30.2645C31.9805 23.3699 38.7605 23.5272 38.7605 23.5272C38.7605 23.5272 45.5312 23.3699 46.3925 30.2645C46.5272 31.4179 46.3445 34.8752 42.6072 36.9152C42.6072 36.9152 42.2259 37.7392 42.8939 37.5939C42.8939 37.5939 46.5365 34.4392 51.0405 37.2045C51.7779 37.6552 56.7405 41.4765 53.3392 47.5952C53.0259 48.1552 50.6552 51.8165 45.6725 50.9912C44.2525 50.7619 40.7859 48.7112 40.1645 45.2645C40.1645 45.2645 39.2539 52.7405 43.4232 57.8365H34.0885Z" fill="#231F20"/>
<path d="M89.7252 57.8365C93.8919 52.7405 92.9825 45.2645 92.9825 45.2645C92.3612 48.7112 88.8932 50.7619 87.4745 50.9912C82.4932 51.8165 80.1185 48.1552 79.8092 47.5952C76.4079 41.4765 81.3679 37.6552 82.1092 37.2045C86.6119 34.4392 90.2519 37.5939 90.2519 37.5939C90.9212 37.7392 90.5399 36.9152 90.5399 36.9152C86.8025 34.8752 86.6212 31.4179 86.7559 30.2645C87.6172 23.3699 94.3972 23.5272 94.3972 23.5272C94.3972 23.5272 101.168 23.3699 102.031 30.2645C102.164 31.4179 101.98 34.8752 98.2452 36.9152C98.2452 36.9152 97.8625 37.7392 98.5305 37.5939C98.5305 37.5939 102.175 34.4392 106.677 37.2045C107.415 37.6552 112.377 41.4765 108.976 47.5952C108.663 48.1552 106.292 51.8165 101.311 50.9912C99.8905 50.7619 96.4239 48.7112 95.8025 45.2645C95.8025 45.2645 94.8905 52.7405 99.0599 57.8365H89.7252Z" fill="#231F20"/>
<path d="M34.0885 119.037C38.2552 113.941 37.3459 106.465 37.3459 106.465C36.7232 109.912 33.2565 111.962 31.8365 112.192C26.8552 113.017 24.4805 109.356 24.1712 108.796C20.7712 102.677 25.7312 98.8558 26.4725 98.4051C30.9752 95.6398 34.6152 98.7944 34.6152 98.7944C35.2845 98.9384 34.9032 98.1158 34.9032 98.1158C31.1659 96.0758 30.9832 92.6184 31.1179 91.4638C31.9805 84.5704 38.7605 84.7278 38.7605 84.7278C38.7605 84.7278 45.5312 84.5704 46.3925 91.4638C46.5272 92.6184 46.3445 96.0758 42.6072 98.1158C42.6072 98.1158 42.2259 98.9384 42.8939 98.7944C42.8939 98.7944 46.5365 95.6398 51.0405 98.4051C51.7779 98.8558 56.7405 102.677 53.3392 108.796C53.0259 109.356 50.6552 113.017 45.6725 112.192C44.2525 111.962 40.7859 109.912 40.1645 106.465C40.1645 106.465 39.2539 113.941 43.4232 119.037H34.0885Z" fill="#231F20"/>
<path d="M89.7252 119.037C93.8919 113.941 92.9825 106.465 92.9825 106.465C92.3612 109.912 88.8932 111.962 87.4745 112.192C82.4932 113.017 80.1185 109.356 79.8092 108.796C76.4079 102.677 81.3679 98.8558 82.1092 98.4051C86.6119 95.6398 90.2519 98.7944 90.2519 98.7944C90.9212 98.9384 90.5399 98.1158 90.5399 98.1158C86.8025 96.0758 86.6212 92.6184 86.7559 91.4638C87.6172 84.5704 94.3972 84.7278 94.3972 84.7278C94.3972 84.7278 101.168 84.5704 102.031 91.4638C102.164 92.6184 101.98 96.0758 98.2452 98.1158C98.2452 98.1158 97.8625 98.9384 98.5305 98.7944C98.5305 98.7944 102.175 95.6398 106.677 98.4051C107.415 98.8558 112.377 102.677 108.976 108.796C108.663 109.356 106.292 113.017 101.311 112.192C99.8905 111.962 96.4239 109.912 95.8025 106.465C95.8025 106.465 94.8905 113.941 99.0599 119.037H89.7252Z" fill="#231F20"/>
<path d="M99.0573 145.928C94.8907 151.025 95.8013 158.501 95.8013 158.501C96.4227 155.053 99.892 153.002 101.311 152.772C106.293 151.946 108.667 155.608 108.976 156.17C112.377 162.286 107.415 166.108 106.677 166.56C102.175 169.325 98.5307 166.17 98.5307 166.17C97.8627 166.028 98.2467 166.849 98.2467 166.849C101.983 168.888 102.164 172.346 102.029 173.5C101.168 180.393 94.388 180.238 94.388 180.238C94.388 180.238 87.6147 180.393 86.756 173.5C86.6213 172.346 86.8027 168.888 90.54 166.849C90.54 166.849 90.924 166.028 90.252 166.17C90.252 166.17 86.612 169.325 82.108 166.56C81.368 166.108 76.408 162.286 79.8067 156.17C80.12 155.608 82.4933 151.946 87.4733 152.772C88.8933 153.002 92.3613 155.053 92.9827 158.501C92.9827 158.501 93.892 151.025 89.7253 145.928H99.0573Z" fill="#231F20"/>
<path d="M43.4205 145.928C39.2539 151.025 40.1632 158.501 40.1632 158.501C40.7859 155.053 44.2552 153.002 45.6739 152.772C50.6552 151.946 53.0285 155.608 53.3379 156.17C56.7405 162.286 51.7779 166.108 51.0392 166.56C46.5365 169.325 42.8939 166.17 42.8939 166.17C42.2259 166.028 42.6085 166.849 42.6085 166.849C46.3445 168.888 46.5272 172.346 46.3925 173.5C45.5312 180.393 38.7512 180.238 38.7512 180.238C38.7512 180.238 31.9779 180.393 31.1179 173.5C30.9832 172.346 31.1659 168.888 34.9032 166.849C34.9032 166.849 35.2859 166.028 34.6152 166.17C34.6152 166.17 30.9752 169.325 26.4712 166.56C25.7312 166.108 20.7712 162.286 24.1699 156.17C24.4845 155.608 26.8552 151.946 31.8365 152.772C33.2565 153.002 36.7232 155.053 37.3459 158.501C37.3459 158.501 38.2552 151.025 34.0885 145.928H43.4205Z" fill="#231F20"/>
<path fill-rule="evenodd" clip-rule="evenodd" d="M10.0456 12.0266C6.35094 15.9413 7.57361 25.9453 7.85494 27.1053C9.62161 34.1626 14.9589 33.652 16.0323 33.3413C20.6416 31.9893 21.4189 26.804 21.4003 25.9826C21.2336 19.1853 16.2936 17.9 15.5749 17.7653C12.4683 17.172 9.9656 19.532 9.9656 19.532C9.93494 17.8533 10.7296 15.192 11.0283 14.6666C12.3643 12.3253 13.9749 12.588 15.0856 12.6546C17.2123 12.7866 18.5843 15.192 18.5843 15.192L20.7123 14.368C19.5989 11.396 16.9803 10.2733 14.4629 10.312C12.5003 10.34 11.0549 10.9546 10.0456 12.0266ZM14.1376 20.044C14.9123 19.9346 18.6163 20.5053 18.7803 25.8173C18.8363 27.6306 17.5723 30.9333 14.4963 30.9C13.4189 30.8906 10.2723 29.708 10.2749 25.324C10.2749 24.1653 10.8643 20.5053 14.1376 20.044" fill="#231F20"/>
<path fill-rule="evenodd" clip-rule="evenodd" d="M123.102 191.737C126.796 187.822 125.575 177.818 125.291 176.658C123.524 169.598 118.187 170.109 117.114 170.422C112.506 171.773 111.73 176.958 111.747 177.781C111.912 184.577 116.854 185.865 117.572 185.996C120.679 186.592 123.182 184.229 123.182 184.229C123.211 185.91 122.418 188.57 122.122 189.097C120.783 191.437 119.172 191.174 118.062 191.109C115.934 190.977 114.564 188.57 114.564 188.57L112.435 189.396C113.547 192.365 116.167 193.49 118.684 193.45C120.648 193.425 122.091 192.808 123.102 191.737ZM119.011 183.72C118.235 183.828 114.531 183.258 114.366 177.945C114.311 176.133 115.574 172.828 118.651 172.864C119.727 172.873 122.874 174.053 122.871 178.44C122.871 179.597 122.282 183.258 119.011 183.72" fill="#231F20"/>
<path d="M120.676 149.755C118.838 152.027 119.238 155.362 119.238 155.362C119.513 153.826 121.042 152.91 121.67 152.807C123.866 152.438 124.912 154.073 125.048 154.322C126.548 157.05 124.36 158.754 124.036 158.955C122.049 160.189 120.444 158.782 120.444 158.782C120.148 158.718 120.316 159.086 120.316 159.086C121.965 159.994 122.045 161.537 121.985 162.051C121.605 165.125 118.616 165.055 118.616 165.055C118.616 165.055 115.632 165.125 115.253 162.051C115.194 161.537 115.273 159.994 116.921 159.086C116.921 159.086 117.09 158.718 116.794 158.782C116.794 158.782 115.189 160.189 113.204 158.955C112.876 158.754 110.69 157.05 112.19 154.322C112.326 154.073 113.372 152.438 115.569 152.807C116.194 152.91 117.722 153.826 117.997 155.362C117.997 155.362 118.4 152.027 116.561 149.755H120.676Z" fill="#231F20"/>
<path d="M12.4727 54.0125C14.31 51.7405 13.9087 48.4058 13.9087 48.4058C13.6353 49.9431 12.1047 50.8565 11.4807 50.9605C9.28334 51.3271 8.23668 49.6951 8.10068 49.4445C6.60068 46.7165 8.78868 45.0125 9.11401 44.8125C11.1007 43.5778 12.7047 44.9845 12.7047 44.9845C13.0007 45.0498 12.8327 44.6818 12.8327 44.6818C11.1847 43.7725 11.1033 42.2311 11.1633 41.7165C11.5447 38.6418 14.5327 38.7125 14.5327 38.7125C14.5327 38.7125 17.5153 38.6418 17.8953 41.7165C17.9567 42.2311 17.8753 43.7725 16.2287 44.6818C16.2287 44.6818 16.058 45.0498 16.354 44.9845C16.354 44.9845 17.9593 43.5778 19.9447 44.8125C20.2727 45.0125 22.458 46.7165 20.958 49.4445C20.822 49.6951 19.7767 51.3271 17.5807 50.9605C16.9567 50.8565 15.426 49.9431 15.1513 48.4058C15.1513 48.4058 14.75 51.7405 16.5873 54.0125H12.4727Z" fill="#231F20"/>
<path d="M132.643 195.771C132.643 199.612 129.53 202.724 125.689 202.724" stroke="#EB008B" stroke-width="0.333333" stroke-miterlimit="2.613"/>
<path d="M125.689 202.724H7.45947" stroke="#EB008B" stroke-width="0.333333" stroke-miterlimit="2.613"/>
<path d="M7.45961 202.724C3.61828 202.724 0.504944 199.612 0.504944 195.771" stroke="#EB008B" stroke-width="0.333333" stroke-miterlimit="2.613"/>
<path d="M0.505219 195.771V7.99475" stroke="#EB008B" stroke-width="0.333333" stroke-miterlimit="2.613"/>
<path d="M0.505219 7.99475C0.505219 4.15342 3.61855 1.04008 7.45988 1.04008" stroke="#EB008B" stroke-width="0.333333" stroke-miterlimit="2.613"/>
<path d="M7.45959 1.04041H125.689" stroke="#EB008B" stroke-width="0.333333" stroke-miterlimit="2.613"/>
<path d="M125.689 1.04033C129.53 1.04033 132.643 4.15233 132.643 7.995" stroke="#EB008B" stroke-width="0.333333" stroke-miterlimit="2.613"/>
<path d="M132.643 7.99475V195.771" stroke="#EB008B" stroke-width="0.333333" stroke-miterlimit="2.613"/>
</svg>
