<svg width="127" height="193" viewBox="0 0 127 193" fill="none" xmlns="http://www.w3.org/2000/svg">
<path fill-rule="evenodd" clip-rule="evenodd" d="M97.185 32.4675C92.881 26.6542 91.7263 21.7488 91.7263 21.7488C91.7263 21.7488 90.5743 26.6542 86.2716 32.4675C81.969 38.2795 77.9836 39.8902 77.9836 39.8902C77.9836 39.8902 81.969 41.5008 86.2716 47.3142C90.5743 53.1275 91.7263 58.0315 91.7263 58.0315C91.7263 58.0315 92.881 53.1275 97.185 47.3142C101.488 41.5008 105.47 39.8902 105.47 39.8902C105.47 39.8902 101.488 38.2795 97.185 32.4675" fill="#EC1C24"/>
<path fill-rule="evenodd" clip-rule="evenodd" d="M41.1139 32.4675C36.8086 26.6542 35.6566 21.7488 35.6566 21.7488C35.6566 21.7488 34.5019 26.6542 30.1979 32.4675C25.8953 38.2795 21.9126 39.8902 21.9126 39.8902C21.9126 39.8902 25.8953 41.5008 30.1979 47.3142C34.5019 53.1275 35.6566 58.0315 35.6566 58.0315C35.6566 58.0315 36.8086 53.1275 41.1139 47.3142C45.4139 41.5008 49.3993 39.8902 49.3993 39.8902C49.3993 39.8902 45.4139 38.2795 41.1139 32.4675" fill="#EC1C24"/>
<path fill-rule="evenodd" clip-rule="evenodd" d="M97.185 89.1992C92.881 83.3859 91.7263 78.4806 91.7263 78.4806C91.7263 78.4806 90.5743 83.3859 86.2716 89.1992C81.969 95.0112 77.9836 96.6232 77.9836 96.6232C77.9836 96.6232 81.969 98.2326 86.2716 104.046C90.5743 109.859 91.7263 114.762 91.7263 114.762C91.7263 114.762 92.881 109.859 97.185 104.046C101.488 98.2326 105.47 96.6232 105.47 96.6232C105.47 96.6232 101.488 95.0112 97.185 89.1992" fill="#EC1C24"/>
<path fill-rule="evenodd" clip-rule="evenodd" d="M41.1139 89.1992C36.8086 83.3859 35.6566 78.4806 35.6566 78.4806C35.6566 78.4806 34.5019 83.3859 30.1979 89.1992C25.8953 95.0112 21.9126 96.6232 21.9126 96.6232C21.9126 96.6232 25.8953 98.2326 30.1979 104.046C34.5019 109.859 35.6566 114.762 35.6566 114.762C35.6566 114.762 36.8086 109.859 41.1139 104.046C45.4139 98.2326 49.3993 96.6232 49.3993 96.6232C49.3993 96.6232 45.4139 95.0112 41.1139 89.1992" fill="#EC1C24"/>
<path fill-rule="evenodd" clip-rule="evenodd" d="M97.185 145.932C92.881 140.12 91.7263 135.213 91.7263 135.213C91.7263 135.213 90.5743 140.12 86.2716 145.932C81.969 151.744 77.9836 153.354 77.9836 153.354C77.9836 153.354 81.969 154.965 86.2716 160.778C90.5743 166.592 91.7263 171.494 91.7263 171.494C91.7263 171.494 92.881 166.592 97.185 160.778C101.488 154.965 105.47 153.354 105.47 153.354C105.47 153.354 101.488 151.744 97.185 145.932" fill="#EC1C24"/>
<path fill-rule="evenodd" clip-rule="evenodd" d="M41.1139 145.932C36.8086 140.12 35.6566 135.213 35.6566 135.213C35.6566 135.213 34.5019 140.12 30.1979 145.932C25.8953 151.744 21.9126 153.354 21.9126 153.354C21.9126 153.354 25.8953 154.965 30.1979 160.778C34.5019 166.592 35.6566 171.494 35.6566 171.494C35.6566 171.494 36.8086 166.592 41.1139 160.778C45.4139 154.965 49.3993 153.354 49.3993 153.354C49.3993 153.354 45.4139 151.744 41.1139 145.932" fill="#EC1C24"/>
<path fill-rule="evenodd" clip-rule="evenodd" d="M10.0736 11.3913C6.5683 15.106 7.72696 24.594 7.9963 25.6953C9.67096 32.3887 14.735 31.9047 15.7523 31.61C20.1243 30.3273 20.8616 25.41 20.843 24.6287C20.6843 18.1833 15.999 16.9633 15.319 16.8353C12.371 16.2727 9.9963 18.5113 9.9963 18.5113C9.9683 16.918 10.7216 14.3953 11.0056 13.8967C12.2736 11.6753 13.8003 11.926 14.8536 11.986C16.871 12.1127 18.1723 14.3953 18.1723 14.3953L20.191 13.6127C19.1336 10.7967 16.6496 9.72735 14.2616 9.76468C12.4003 9.79268 11.031 10.3753 10.0736 11.3913ZM13.955 18.9967C14.6896 18.894 18.2016 19.4327 18.3576 24.474C18.411 26.1927 17.2123 29.3274 14.295 29.2954C13.2736 29.286 10.2883 28.1647 10.2923 24.0033C10.2923 22.9073 10.851 19.4327 13.955 18.9967Z" fill="#EC1C24"/>
<path fill-rule="evenodd" clip-rule="evenodd" d="M117.31 181.854C120.814 178.139 119.656 168.651 119.388 167.551C117.712 160.854 112.648 161.341 111.632 161.635C107.258 162.918 106.524 167.835 106.54 168.615C106.7 175.062 111.385 176.282 112.064 176.41C115.012 176.974 117.386 174.734 117.386 174.734C117.414 176.326 116.661 178.849 116.38 179.349C115.109 181.57 113.582 181.321 112.529 181.259C110.512 181.134 109.212 178.849 109.212 178.849L107.192 179.633C108.249 182.45 110.733 183.519 113.121 183.481C114.982 183.453 116.353 182.87 117.31 181.854ZM113.429 174.249C112.693 174.353 109.181 173.813 109.025 168.771C108.972 167.053 110.17 163.918 113.088 163.95C114.109 163.961 117.094 165.081 117.09 169.241C117.09 170.338 116.533 173.813 113.429 174.249" fill="#EC1C24"/>
<path d="M14.4368 36.7038C14.4368 36.7038 16.3275 42.6824 20.7035 45.0931C20.7035 45.0931 16.3875 47.3091 14.4368 53.4158C12.4861 47.3091 8.16748 45.0931 8.16748 45.0931C12.5461 42.6824 14.4368 36.7038 14.4368 36.7038Z" fill="#EC1C24"/>
<path d="M112.946 156.544C112.946 156.544 111.057 150.568 106.681 148.154C106.681 148.154 110.998 145.938 112.946 139.83C114.898 145.938 119.217 148.154 119.217 148.154C114.839 150.568 112.946 156.544 112.946 156.544Z" fill="#EC1C24"/>
<path d="M126.362 185.678C126.362 189.322 123.409 192.276 119.765 192.276" stroke="#EB008B" stroke-width="0.333333" stroke-miterlimit="2.613"/>
<path d="M119.764 192.276H7.62024" stroke="#EB008B" stroke-width="0.333333" stroke-miterlimit="2.613"/>
<path d="M7.6204 192.276C3.9764 192.276 1.02307 189.323 1.02307 185.679" stroke="#EB008B" stroke-width="0.333333" stroke-miterlimit="2.613"/>
<path d="M1.02344 185.678V7.56774" stroke="#EB008B" stroke-width="0.333333" stroke-miterlimit="2.613"/>
<path d="M1.02344 7.56708C1.02344 3.92308 3.97544 0.969745 7.62077 0.969745" stroke="#EB008B" stroke-width="0.333333" stroke-miterlimit="2.613"/>
<path d="M7.62036 0.969971H119.764" stroke="#EB008B" stroke-width="0.333333" stroke-miterlimit="2.613"/>
<path d="M119.764 0.969989C123.408 0.969989 126.362 3.92332 126.362 7.56732" stroke="#EB008B" stroke-width="0.333333" stroke-miterlimit="2.613"/>
<path d="M126.362 7.56707V185.678" stroke="#EB008B" stroke-width="0.333333" stroke-miterlimit="2.613"/>
</svg>
