<svg width="135" height="205" viewBox="0 0 135 205" fill="none" xmlns="http://www.w3.org/2000/svg">
<path d="M38.2422 92.5039C38.7368 92.5039 38.6888 92.1586 38.8368 90.8332C38.9848 89.5026 40.5862 85.8972 45.2355 86.3052C47.2835 86.4759 52.2275 89.1599 51.5342 95.2079C51.2675 97.5266 50.7915 99.2426 47.7648 103.868C47.3022 104.571 42.2608 112.232 38.2422 118.725C34.2248 112.232 29.1728 104.571 28.7142 103.868C25.6875 99.2426 25.2128 97.5266 24.9408 95.2079C24.2475 89.1599 29.1928 86.4759 31.2422 86.3052C35.8928 85.8972 37.4928 89.5026 37.6408 90.8332C37.7915 92.1586 37.7435 92.5039 38.2422 92.5039Z" fill="#EC1C24"/>
<path d="M96.7825 92.5039C97.2758 92.5039 97.2305 92.1586 97.3785 90.8332C97.5251 89.5026 99.1251 85.8972 103.777 86.3052C105.824 86.4759 110.768 89.1599 110.074 95.2079C109.809 97.5266 109.332 99.2426 106.306 103.868C105.844 104.571 100.8 112.232 96.7825 118.725C92.7651 112.232 87.7145 104.571 87.2558 103.868C84.2291 99.2426 83.7531 97.5266 83.4811 95.2079C82.7891 89.1599 87.7344 86.4759 89.7838 86.3052C94.4344 85.8972 96.0345 89.5026 96.1811 90.8332C96.3318 92.1586 96.2851 92.5039 96.7825 92.5039Z" fill="#EC1C24"/>
<path d="M38.2422 30.2285C38.7368 30.2285 38.6888 29.8845 38.8368 28.5565C38.9848 27.2285 40.5862 23.6218 45.2355 24.0298C47.2835 24.2005 52.2275 26.8845 51.5342 32.9338C51.2675 35.2512 50.7915 36.9685 47.7648 41.5925C47.3022 42.2952 42.2608 49.9578 38.2422 56.4512C34.2248 49.9578 29.1728 42.2952 28.7142 41.5925C25.6875 36.9685 25.2128 35.2512 24.9408 32.9338C24.2475 26.8845 29.1928 24.2005 31.2422 24.0298C35.8928 23.6218 37.4928 27.2285 37.6408 28.5565C37.7915 29.8845 37.7435 30.2285 38.2422 30.2285Z" fill="#EC1C24"/>
<path d="M96.7825 30.2285C97.2758 30.2285 97.2305 29.8845 97.3785 28.5565C97.5251 27.2285 99.1251 23.6218 103.777 24.0298C105.824 24.2005 110.768 26.8845 110.074 32.9338C109.809 35.2512 109.332 36.9685 106.306 41.5925C105.844 42.2952 100.8 49.9578 96.7825 56.4512C92.7651 49.9578 87.7145 42.2952 87.2558 41.5925C84.2291 36.9685 83.7531 35.2512 83.4811 32.9338C82.7891 26.8845 87.7344 24.2005 89.7838 24.0298C94.4344 23.6218 96.0345 27.2285 96.1811 28.5565C96.3318 29.8845 96.2851 30.2285 96.7825 30.2285Z" fill="#EC1C24"/>
<path d="M96.7734 174.802C96.2788 174.802 96.3268 175.146 96.1788 176.473C96.0308 177.802 94.4294 181.406 89.7801 180.999C87.7294 180.829 82.7894 178.146 83.4814 172.097C83.7481 169.778 84.2228 168.062 87.2508 163.437C87.7121 162.734 92.7548 155.073 96.7734 148.579C100.789 155.073 105.843 162.734 106.299 163.437C109.328 168.062 109.803 169.778 110.075 172.097C110.768 178.146 105.82 180.829 103.773 180.999C99.1214 181.406 97.5228 177.802 97.3748 176.473C97.2254 175.146 97.2721 174.802 96.7734 174.802Z" fill="#EC1C24"/>
<path d="M38.2318 174.802C37.7398 174.802 37.7865 175.146 37.6371 176.473C37.4905 177.802 35.8891 181.406 31.2385 180.999C29.1891 180.829 24.2478 178.146 24.9411 172.097C25.2065 169.778 25.6838 168.062 28.7091 163.437C29.1705 162.734 34.2145 155.073 38.2318 148.579C42.2478 155.073 47.3011 162.734 47.7598 163.437C50.7865 168.062 51.2638 169.778 51.5345 172.097C52.2278 178.146 47.2785 180.829 45.2318 180.999C40.5811 181.406 38.9811 177.802 38.8345 176.473C38.6838 175.146 38.7278 174.802 38.2318 174.802Z" fill="#EC1C24"/>
<path fill-rule="evenodd" clip-rule="evenodd" d="M10.6342 12.11C6.91686 16.05 8.14486 26.114 8.43019 27.2807C10.2089 34.382 15.5769 33.8687 16.6582 33.5554C21.2955 32.1954 22.0755 26.9794 22.0569 26.1514C21.8889 19.314 16.9195 18.0207 16.1969 17.886C13.0715 17.2874 10.5529 19.662 10.5529 19.662C10.5222 17.9727 11.3222 15.2954 11.6222 14.7674C12.9675 12.41 14.5875 12.6754 15.7049 12.742C17.8449 12.8754 19.2249 15.2954 19.2249 15.2954L21.3649 14.466C20.2462 11.4767 17.6102 10.3447 15.0769 10.386C13.1022 10.414 11.6502 11.0314 10.6342 12.11ZM14.7515 20.1767C15.5302 20.0674 19.2555 20.6407 19.4222 25.986C19.4782 27.8087 18.2062 31.134 15.1102 31.0994C14.0275 31.09 10.8609 29.9007 10.8662 25.4887C10.8662 24.3247 11.4595 20.6407 14.7515 20.1767" fill="#EC1C24"/>
<path fill-rule="evenodd" clip-rule="evenodd" d="M124.38 192.921C128.098 188.982 126.868 178.917 126.583 177.75C124.806 170.649 119.438 171.162 118.356 171.477C113.719 172.837 112.94 178.053 112.958 178.881C113.126 185.717 118.096 187.01 118.816 187.145C121.943 187.742 124.462 185.367 124.462 185.367C124.491 187.058 123.694 189.734 123.394 190.265C122.047 192.618 120.427 192.355 119.31 192.289C117.17 192.157 115.791 189.734 115.791 189.734L113.648 190.565C114.77 193.553 117.404 194.685 119.936 194.645C121.911 194.617 123.364 193.998 124.38 192.921ZM120.264 184.854C119.483 184.963 115.759 184.391 115.594 179.045C115.536 177.222 116.807 173.895 119.903 173.933C120.986 173.941 124.152 175.129 124.15 179.542C124.15 180.706 123.556 184.391 120.264 184.854" fill="#EC1C24"/>
<path d="M15.0286 41.9025C15.2633 41.9025 15.2406 41.7371 15.3113 41.1078C15.3819 40.4771 16.1393 38.7638 18.3393 38.9585C19.3113 39.0398 21.6553 40.3145 21.3259 43.1865C21.1993 44.2851 20.9713 45.1011 19.5406 47.2971C19.3219 47.6291 16.9326 51.2678 15.0286 54.3518C13.1259 51.2678 10.7339 47.6291 10.5166 47.2971C9.08195 45.1011 8.85662 44.2851 8.72995 43.1865C8.40062 40.3145 10.7433 39.0398 11.7126 38.9585C13.9139 38.7638 14.6726 40.4771 14.7446 41.1078C14.8153 41.7371 14.7926 41.9025 15.0286 41.9025Z" fill="#EC1C24"/>
<path d="M119.986 163.133C119.751 163.133 119.776 163.293 119.704 163.925C119.634 164.554 118.875 166.269 116.674 166.073C115.703 165.994 113.36 164.718 113.688 161.846C113.815 160.746 114.042 159.93 115.475 157.734C115.694 157.401 118.082 153.766 119.986 150.68C121.888 153.766 124.279 157.401 124.498 157.734C125.932 159.93 126.159 160.746 126.286 161.846C126.614 164.718 124.272 165.994 123.3 166.073C121.099 166.269 120.342 164.554 120.27 163.925C120.199 163.293 120.22 163.133 119.986 163.133Z" fill="#EC1C24"/>
<path d="M133.98 196.977C133.98 200.843 130.848 203.974 126.984 203.974" stroke="#EB008B" stroke-width="0.333333" stroke-miterlimit="2.613"/>
<path d="M126.984 203.974H8.03101" stroke="#EB008B" stroke-width="0.333333" stroke-miterlimit="2.613"/>
<path d="M8.03116 203.974C4.16849 203.974 1.03516 200.843 1.03516 196.977" stroke="#EB008B" stroke-width="0.333333" stroke-miterlimit="2.613"/>
<path d="M1.03516 196.977V8.05389" stroke="#EB008B" stroke-width="0.333333" stroke-miterlimit="2.613"/>
<path d="M1.03516 8.05408C1.03516 4.18874 4.16849 1.05674 8.03116 1.05674" stroke="#EB008B" stroke-width="0.333333" stroke-miterlimit="2.613"/>
<path d="M8.03125 1.05676H126.985" stroke="#EB008B" stroke-width="0.333333" stroke-miterlimit="2.613"/>
<path d="M126.984 1.05674C130.848 1.05674 133.98 4.18874 133.98 8.05408" stroke="#EB008B" stroke-width="0.333333" stroke-miterlimit="2.613"/>
<path d="M133.98 8.05401V196.977" stroke="#EB008B" stroke-width="0.333333" stroke-miterlimit="2.613"/>
</svg>
