<svg width="134" height="203" viewBox="0 0 134 203" fill="none" xmlns="http://www.w3.org/2000/svg">
<path fill-rule="evenodd" clip-rule="evenodd" d="M37.7369 22.1016C37.7369 22.1016 35.2636 27.3589 31.0529 32.9029C26.5316 38.8589 24.1663 42.2362 24.1663 46.6962C24.1663 50.4736 27.1223 52.9189 29.8996 52.9189C32.7383 52.9189 34.5823 51.8909 35.5449 48.2069C35.9396 46.7122 36.7743 47.0069 36.5529 48.6349C36.2916 50.5576 36.2716 54.7402 33.1676 58.5176H42.3023C39.1996 54.7402 39.1783 50.5576 38.9183 48.6349C38.6969 47.0069 39.5303 46.7122 39.9236 48.2069C40.8863 51.8909 42.7329 52.9189 45.5676 52.9189C48.3476 52.9189 51.3063 50.4736 51.3063 46.6962C51.3063 42.2362 48.9409 38.8589 44.4183 32.9029C40.2076 27.3589 37.7369 22.1016 37.7369 22.1016Z" fill="#231F20"/>
<path fill-rule="evenodd" clip-rule="evenodd" d="M96.6511 22.1016C96.6511 22.1016 94.1791 27.3589 89.9698 32.9029C85.4458 38.8589 83.0818 42.2362 83.0818 46.6962C83.0818 50.4736 86.0378 52.9189 88.8165 52.9189C91.6551 52.9189 93.4978 51.8909 94.4631 48.2069C94.8551 46.7122 95.6911 47.0069 95.4685 48.6349C95.2071 50.5576 95.1858 54.7402 92.0831 58.5176H101.219C98.1151 54.7402 98.0951 50.5576 97.8351 48.6349C97.6111 47.0069 98.4458 46.7122 98.8391 48.2069C99.8031 51.8909 101.647 52.9189 104.486 52.9189C107.264 52.9189 110.22 50.4736 110.22 46.6962C110.22 42.2362 107.855 38.8589 103.332 32.9029C99.1231 27.3589 96.6511 22.1016 96.6511 22.1016Z" fill="#231F20"/>
<path fill-rule="evenodd" clip-rule="evenodd" d="M37.7369 83.6862C37.7369 83.6862 35.2636 88.9435 31.0529 94.4862C26.5316 100.442 24.1663 103.821 24.1663 108.28C24.1663 112.058 27.1223 114.504 29.8996 114.504C32.7383 114.504 34.5823 113.476 35.5449 109.792C35.9396 108.297 36.7743 108.593 36.5529 110.218C36.2916 112.142 36.2716 116.325 33.1676 120.104H42.3023C39.1996 116.325 39.1783 112.142 38.9183 110.218C38.6969 108.593 39.5303 108.297 39.9236 109.792C40.8863 113.476 42.7329 114.504 45.5676 114.504C48.3476 114.504 51.3063 112.058 51.3063 108.28C51.3063 103.821 48.9409 100.442 44.4183 94.4862C40.2076 88.9435 37.7369 83.6862 37.7369 83.6862Z" fill="#231F20"/>
<path fill-rule="evenodd" clip-rule="evenodd" d="M96.6511 83.6862C96.6511 83.6862 94.1791 88.9435 89.9698 94.4862C85.4458 100.442 83.0818 103.821 83.0818 108.28C83.0818 112.058 86.0378 114.504 88.8165 114.504C91.6551 114.504 93.4978 113.476 94.4631 109.792C94.8551 108.297 95.6911 108.593 95.4685 110.218C95.2071 112.142 95.1858 116.325 92.0831 120.104H101.219C98.1151 116.325 98.0951 112.142 97.8351 110.218C97.6111 108.593 98.4458 108.297 98.8391 109.792C99.8031 113.476 101.647 114.504 104.486 114.504C107.264 114.504 110.22 112.058 110.22 108.28C110.22 103.821 107.855 100.442 103.332 94.4862C99.1231 88.9435 96.6511 83.6862 96.6511 83.6862Z" fill="#231F20"/>
<path fill-rule="evenodd" clip-rule="evenodd" d="M96.6498 181.685C96.6498 181.685 99.1218 176.428 103.332 170.884C107.855 164.928 110.22 161.552 110.22 157.092C110.22 153.313 107.263 150.869 104.484 150.869C101.644 150.869 99.8031 151.897 98.8391 155.581C98.4458 157.074 97.6111 156.78 97.8338 155.152C98.0951 153.23 98.1151 149.048 101.218 145.27H92.0805C95.1858 149.048 95.2058 153.23 95.4685 155.152C95.6898 156.78 94.8551 157.074 94.4618 155.581C93.4978 151.897 91.6538 150.869 88.8138 150.869C86.0365 150.869 83.0818 153.313 83.0818 157.092C83.0818 161.552 85.4458 164.928 89.9698 170.884C94.1778 176.428 96.6498 181.685 96.6498 181.685Z" fill="#231F20"/>
<path fill-rule="evenodd" clip-rule="evenodd" d="M37.7344 181.685C37.7344 181.685 40.2064 176.428 44.4184 170.884C48.9384 164.928 51.3024 161.552 51.3024 157.092C51.3024 153.313 48.3478 150.869 45.5678 150.869C42.7304 150.869 40.8864 151.897 39.9238 155.581C39.5304 157.074 38.6944 156.78 38.9184 155.152C39.1784 153.23 39.1998 149.048 42.3024 145.27H33.1678C36.2718 149.048 36.2918 153.23 36.5504 155.152C36.7744 156.78 35.9398 157.074 35.5451 155.581C34.5824 151.897 32.7384 150.869 29.8998 150.869C27.1224 150.869 24.1664 153.313 24.1664 157.092C24.1664 161.552 26.5318 164.928 31.0531 170.884C35.2624 176.428 37.7344 181.685 37.7344 181.685Z" fill="#231F20"/>
<path fill-rule="evenodd" clip-rule="evenodd" d="M10.6328 11.9862C6.93681 15.9049 8.15814 25.9129 8.44214 27.0742C10.2101 34.1356 15.5501 33.6249 16.6235 33.3142C21.2341 31.9609 22.0128 26.7729 21.9941 25.9502C21.8275 19.1502 16.8848 17.8636 16.1675 17.7302C13.0568 17.1356 10.5528 19.4969 10.5528 19.4969C10.5235 17.8169 11.3168 15.1542 11.6141 14.6289C12.9528 12.2849 14.5648 12.5489 15.6741 12.6142C17.8048 12.7462 19.1768 15.1542 19.1768 15.1542L21.3075 14.3289C20.1915 11.3569 17.5728 10.2316 15.0515 10.2716C13.0888 10.2982 11.6435 10.9142 10.6328 11.9862ZM14.7288 20.0089C15.5021 19.8996 19.2061 20.4689 19.3741 25.7849C19.4288 27.5982 18.1635 30.9049 15.0848 30.8716C14.0088 30.8622 10.8608 29.6796 10.8635 25.2916C10.8635 24.1342 11.4528 20.4689 14.7288 20.0089" fill="#231F20"/>
<path fill-rule="evenodd" clip-rule="evenodd" d="M123.751 191.802C127.447 187.883 126.227 177.873 125.942 176.714C124.177 169.65 118.835 170.162 117.762 170.473C113.15 171.827 112.375 177.013 112.391 177.837C112.557 184.637 117.502 185.925 118.219 186.057C121.329 186.653 123.834 184.289 123.834 184.289C123.863 185.97 123.067 188.63 122.771 189.159C121.433 191.499 119.821 191.239 118.711 191.171C116.582 191.039 115.21 188.63 115.21 188.63L113.079 189.458C114.194 192.427 116.814 193.555 119.334 193.515C121.297 193.489 122.742 192.873 123.751 191.802ZM119.658 183.778C118.885 183.886 115.178 183.318 115.013 178.001C114.958 176.189 116.222 172.882 119.301 172.915C120.378 172.926 123.526 174.107 123.523 178.497C123.523 179.654 122.933 183.318 119.658 183.778" fill="#231F20"/>
<path d="M12.7722 54.2279C13.9815 53.0012 14.1789 50.6332 14.2455 50.0612C14.3095 49.4906 14.1575 49.3652 14.0469 49.3439C13.9362 49.3212 13.8162 49.5172 13.7629 49.7879C13.4989 51.0986 12.5375 51.6492 12.0709 51.7319C9.89618 52.1132 9.17618 50.6919 8.97085 50.3146C7.85352 48.2439 10.3562 45.0212 10.7762 44.5226C13.1202 41.7159 14.7709 38.6866 14.7709 38.6866C14.7709 38.6866 16.4242 41.7159 18.7682 44.5226C19.1869 45.0212 21.6895 48.2439 20.5708 50.3146C20.3682 50.6919 19.6495 52.1132 17.4735 51.7319C17.0068 51.6492 16.0455 51.0986 15.7815 49.7879C15.7282 49.5172 15.6055 49.3212 15.4962 49.3439C15.3882 49.3652 15.2335 49.4906 15.3002 50.0612C15.3655 50.6332 15.5629 53.0012 16.7709 54.2279H12.7722Z" fill="#231F20"/>
<path d="M121.615 149.561C120.405 150.787 120.209 153.155 120.143 153.727C120.076 154.299 120.231 154.425 120.34 154.445C120.448 154.467 120.572 154.271 120.625 154.003C120.891 152.691 121.848 152.137 122.315 152.056C124.491 151.675 125.211 153.096 125.415 153.473C126.532 155.545 124.029 158.768 123.612 159.267C121.268 162.073 119.617 165.103 119.617 165.103C119.617 165.103 117.964 162.073 115.619 159.267C115.201 158.768 112.697 155.545 113.816 153.473C114.017 153.096 114.739 151.675 116.915 152.056C117.383 152.137 118.343 152.691 118.605 154.003C118.659 154.271 118.78 154.467 118.891 154.445C118.999 154.425 119.155 154.299 119.089 153.727C119.025 153.155 118.824 150.787 117.616 149.561H121.615Z" fill="#231F20"/>
<path d="M133.299 195.836C133.299 199.68 130.185 202.795 126.341 202.795" stroke="#EB008B" stroke-width="0.333333" stroke-miterlimit="2.613"/>
<path d="M126.341 202.794H8.04388" stroke="#EB008B" stroke-width="0.333333" stroke-miterlimit="2.613"/>
<path d="M8.04431 202.794C4.20297 202.794 1.08698 199.68 1.08698 195.836" stroke="#EB008B" stroke-width="0.333333" stroke-miterlimit="2.613"/>
<path d="M1.08722 195.836V7.95208" stroke="#EB008B" stroke-width="0.333333" stroke-miterlimit="2.613"/>
<path d="M1.08722 7.95264C1.08722 4.10997 4.20322 0.993971 8.04455 0.993971" stroke="#EB008B" stroke-width="0.333333" stroke-miterlimit="2.613"/>
<path d="M8.04431 0.994141H126.342" stroke="#EB008B" stroke-width="0.333333" stroke-miterlimit="2.613"/>
<path d="M126.341 0.994215C130.185 0.994215 133.3 4.10888 133.3 7.95288" stroke="#EB008B" stroke-width="0.333333" stroke-miterlimit="2.613"/>
<path d="M133.299 7.95257V195.837" stroke="#EB008B" stroke-width="0.333333" stroke-miterlimit="2.613"/>
</svg>
