<svg width="134" height="203" viewBox="0 0 134 203" fill="none" xmlns="http://www.w3.org/2000/svg">
<path d="M34.5156 57.8365C38.6823 52.7405 37.7729 45.2645 37.7729 45.2645C37.1503 48.7112 33.6823 50.7619 32.2623 50.9912C27.2823 51.8165 24.9076 48.1552 24.5983 47.5952C21.1969 41.4765 26.1583 37.6552 26.8996 37.2045C31.4023 34.4392 35.0436 37.5939 35.0436 37.5939C35.7116 37.7392 35.3289 36.9152 35.3289 36.9152C31.5929 34.8752 31.4103 31.4179 31.5449 30.2645C32.4063 23.3699 39.1876 23.5272 39.1876 23.5272C39.1876 23.5272 45.9583 23.3699 46.8196 30.2645C46.9543 31.4179 46.7716 34.8752 43.0343 36.9152C43.0343 36.9152 42.6529 37.7392 43.3209 37.5939C43.3209 37.5939 46.9623 34.4392 51.4676 37.2045C52.2063 37.6552 57.1676 41.4765 53.7663 47.5952C53.4529 48.1552 51.0809 51.8165 46.0996 50.9912C44.6796 50.7619 41.2129 48.7112 40.5916 45.2645C40.5916 45.2645 39.6809 52.7405 43.8503 57.8365H34.5156Z" fill="#231F20"/>
<path d="M90.1524 57.8365C94.3204 52.7405 93.4124 45.2645 93.4124 45.2645C92.7897 48.7112 89.3204 50.7619 87.9017 50.9912C82.9204 51.8165 80.5457 48.1552 80.2364 47.5952C76.8351 41.4765 81.7951 37.6552 82.5364 37.2045C87.0404 34.4392 90.6804 37.5939 90.6804 37.5939C91.3484 37.7392 90.9671 36.9152 90.9671 36.9152C87.2311 34.8752 87.0484 31.4179 87.1844 30.2645C88.0444 23.3699 94.8244 23.5272 94.8244 23.5272C94.8244 23.5272 101.596 23.3699 102.458 30.2645C102.592 31.4179 102.408 34.8752 98.6724 36.9152C98.6724 36.9152 98.2911 37.7392 98.9577 37.5939C98.9577 37.5939 102.602 34.4392 107.106 37.2045C107.843 37.6552 112.804 41.4765 109.403 47.5952C109.091 48.1552 106.719 51.8165 101.738 50.9912C100.319 50.7619 96.8524 48.7112 96.2311 45.2645C96.2311 45.2645 95.3177 52.7405 99.4871 57.8365H90.1524Z" fill="#231F20"/>
<path d="M34.5156 119.037C38.6823 113.941 37.7729 106.465 37.7729 106.465C37.1503 109.912 33.6823 111.962 32.2623 112.192C27.2823 113.017 24.9076 109.356 24.5983 108.796C21.1969 102.677 26.1583 98.8558 26.8996 98.4051C31.4023 95.6398 35.0436 98.7944 35.0436 98.7944C35.7116 98.9384 35.3289 98.1158 35.3289 98.1158C31.5929 96.0758 31.4103 92.6184 31.5449 91.4638C32.4063 84.5704 39.1876 84.7278 39.1876 84.7278C39.1876 84.7278 45.9583 84.5704 46.8196 91.4638C46.9543 92.6184 46.7716 96.0758 43.0343 98.1158C43.0343 98.1158 42.6529 98.9384 43.3209 98.7944C43.3209 98.7944 46.9623 95.6398 51.4676 98.4051C52.2063 98.8558 57.1676 102.677 53.7663 108.796C53.4529 109.356 51.0809 113.017 46.0996 112.192C44.6796 111.962 41.2129 109.912 40.5916 106.465C40.5916 106.465 39.6809 113.941 43.8503 119.037H34.5156Z" fill="#231F20"/>
<path d="M90.1524 119.037C94.3204 113.941 93.4124 106.465 93.4124 106.465C92.7897 109.912 89.3204 111.962 87.9017 112.192C82.9204 113.017 80.5457 109.356 80.2364 108.796C76.8351 102.677 81.7951 98.8558 82.5364 98.4051C87.0404 95.6398 90.6804 98.7944 90.6804 98.7944C91.3484 98.9384 90.9671 98.1158 90.9671 98.1158C87.2311 96.0758 87.0484 92.6184 87.1844 91.4638C88.0444 84.5704 94.8244 84.7278 94.8244 84.7278C94.8244 84.7278 101.596 84.5704 102.458 91.4638C102.592 92.6184 102.408 96.0758 98.6724 98.1158C98.6724 98.1158 98.2911 98.9384 98.9577 98.7944C98.9577 98.7944 102.602 95.6398 107.106 98.4051C107.843 98.8558 112.804 102.677 109.403 108.796C109.091 109.356 106.719 113.017 101.738 112.192C100.319 111.962 96.8524 109.912 96.2311 106.465C96.2311 106.465 95.3177 113.941 99.4871 119.037H90.1524Z" fill="#231F20"/>
<path d="M99.4857 145.928C95.3177 151.025 96.2284 158.501 96.2284 158.501C96.8497 155.053 100.319 153.002 101.739 152.772C106.722 151.946 109.095 155.608 109.403 156.17C112.804 162.286 107.843 166.108 107.104 166.56C102.602 169.325 98.9577 166.17 98.9577 166.17C98.2911 166.028 98.6737 166.849 98.6737 166.849C102.41 168.888 102.592 172.346 102.458 173.5C101.596 180.393 94.8151 180.238 94.8151 180.238C94.8151 180.238 88.0431 180.393 87.1844 173.5C87.0484 172.346 87.2311 168.888 90.9671 166.849C90.9671 166.849 91.3511 166.028 90.6804 166.17C90.6804 166.17 87.0404 169.325 82.5351 166.56C81.7951 166.108 76.8351 162.286 80.2351 156.17C80.5484 155.608 82.9204 151.946 87.9017 152.772C89.3204 153.002 92.7897 155.053 93.4097 158.501C93.4097 158.501 94.3204 151.025 90.1524 145.928H99.4857Z" fill="#231F20"/>
<path d="M43.8476 145.928C39.6809 151.025 40.5903 158.501 40.5903 158.501C41.2116 155.053 44.6823 153.002 46.1009 152.772C51.0823 151.946 53.4556 155.608 53.7649 156.17C57.1676 162.286 52.2063 166.108 51.4649 166.56C46.9623 169.325 43.3209 166.17 43.3209 166.17C42.6529 166.028 43.0356 166.849 43.0356 166.849C46.7729 168.888 46.9543 172.346 46.8196 173.5C45.9583 180.393 39.1783 180.238 39.1783 180.238C39.1783 180.238 32.4049 180.393 31.5449 173.5C31.4103 172.346 31.5929 168.888 35.3289 166.849C35.3289 166.849 35.7129 166.028 35.0423 166.17C35.0423 166.17 31.4023 169.325 26.8969 166.56C26.1583 166.108 21.1969 162.286 24.5983 156.17C24.9116 155.608 27.2823 151.946 32.2623 152.772C33.6823 153.002 37.1503 155.053 37.7716 158.501C37.7716 158.501 38.6823 151.025 34.5156 145.928H43.8476Z" fill="#231F20"/>
<path d="M62.3347 88.4362C66.5013 83.3388 65.5907 75.8642 65.5907 75.8642C64.9693 79.3108 61.5027 81.3615 60.0827 81.5922C55.1 82.4175 52.7253 78.7562 52.4173 78.1935C49.016 72.0788 53.9773 68.2562 54.7173 67.8055C59.22 65.0388 62.8613 68.1935 62.8613 68.1935C63.5293 68.3375 63.148 67.5148 63.148 67.5148C59.4107 65.4762 59.228 62.0175 59.3627 60.8655C60.2267 53.9708 67.0067 54.1255 67.0067 54.1255C67.0067 54.1255 73.7773 53.9708 74.64 60.8655C74.7747 62.0175 74.5893 65.4762 70.8533 67.5148C70.8533 67.5148 70.472 68.3375 71.14 68.1935C71.14 68.1935 74.7827 65.0388 79.2867 67.8055C80.0253 68.2562 84.9867 72.0788 81.5853 78.1935C81.2707 78.7562 78.9 82.4175 73.92 81.5922C72.5 81.3615 69.0333 79.3108 68.4107 75.8642C68.4107 75.8642 67.5 83.3388 71.6693 88.4362H62.3347Z" fill="#231F20"/>
<path d="M7.89976 10.3112H19.8318L21.3331 12.3939C21.3331 12.3939 16.1051 19.3139 13.5304 33.4939H10.9171C10.9171 33.4939 12.4571 22.8672 17.8864 12.7272H10.6491V15.5539H7.88643L7.89976 10.3112Z" fill="#231F20"/>
<path d="M126.103 193.45H114.171L112.671 191.369C112.671 191.369 117.899 184.45 120.473 170.268H123.087C123.087 170.268 121.547 180.894 116.116 191.037H123.355V188.21H126.116L126.103 193.45Z" fill="#231F20"/>
<path d="M121.103 149.755C119.267 152.027 119.667 155.362 119.667 155.362C119.941 153.826 121.471 152.91 122.097 152.807C124.295 152.438 125.339 154.073 125.475 154.322C126.976 157.05 124.788 158.754 124.463 158.955C122.477 160.189 120.871 158.782 120.871 158.782C120.575 158.718 120.743 159.086 120.743 159.086C122.392 159.994 122.473 161.537 122.413 162.051C122.033 165.125 119.043 165.055 119.043 165.055C119.043 165.055 116.06 165.125 115.68 162.051C115.621 161.537 115.7 159.994 117.348 159.086C117.348 159.086 117.517 158.718 117.221 158.782C117.221 158.782 115.616 160.189 113.632 158.955C113.304 158.754 111.119 157.05 112.617 154.322C112.755 154.073 113.799 152.438 115.996 152.807C116.623 152.91 118.151 153.826 118.425 155.362C118.425 155.362 118.827 152.027 116.988 149.755H121.103Z" fill="#231F20"/>
<path d="M12.8997 54.0125C14.7371 51.7405 14.3357 48.4058 14.3357 48.4058C14.0611 49.9431 12.5317 50.8565 11.9077 50.9605C9.7104 51.3271 8.66374 49.6951 8.52774 49.4445C7.0264 46.7165 9.21574 45.0125 9.54107 44.8125C11.5277 43.5778 13.1331 44.9845 13.1331 44.9845C13.4277 45.0498 13.2597 44.6818 13.2597 44.6818C11.6117 43.7725 11.5304 42.2311 11.5904 41.7165C11.9717 38.6418 14.9597 38.7125 14.9597 38.7125C14.9597 38.7125 17.9424 38.6418 18.3237 41.7165C18.3837 42.2311 18.3024 43.7725 16.6544 44.6818C16.6544 44.6818 16.4837 45.0498 16.7824 44.9845C16.7824 44.9845 18.3864 43.5778 20.3717 44.8125C20.6984 45.0125 22.8851 46.7165 21.3851 49.4445C21.2491 49.6951 20.2037 51.3271 18.0064 50.9605C17.3824 50.8565 15.8531 49.9431 15.5771 48.4058C15.5771 48.4058 15.1771 51.7405 17.0144 54.0125H12.8997Z" fill="#231F20"/>
<path d="M133.07 195.771C133.07 199.612 129.957 202.724 126.116 202.724" stroke="#EB008B" stroke-width="0.333333" stroke-miterlimit="2.613"/>
<path d="M126.116 202.724H7.88655" stroke="#EB008B" stroke-width="0.333333" stroke-miterlimit="2.613"/>
<path d="M7.88666 202.724C4.04399 202.724 0.931992 199.612 0.931992 195.771" stroke="#EB008B" stroke-width="0.333333" stroke-miterlimit="2.613"/>
<path d="M0.932281 195.771V7.99475" stroke="#EB008B" stroke-width="0.333333" stroke-miterlimit="2.613"/>
<path d="M0.932281 7.99475C0.932281 4.15342 4.04428 1.04008 7.88695 1.04008" stroke="#EB008B" stroke-width="0.333333" stroke-miterlimit="2.613"/>
<path d="M7.88667 1.04041H126.116" stroke="#EB008B" stroke-width="0.333333" stroke-miterlimit="2.613"/>
<path d="M126.116 1.04033C129.957 1.04033 133.071 4.15233 133.071 7.995" stroke="#EB008B" stroke-width="0.333333" stroke-miterlimit="2.613"/>
<path d="M133.07 7.99475V195.771" stroke="#EB008B" stroke-width="0.333333" stroke-miterlimit="2.613"/>
</svg>
