<svg width="127" height="193" viewBox="0 0 127 193" fill="none" xmlns="http://www.w3.org/2000/svg">
<path fill-rule="evenodd" clip-rule="evenodd" d="M96.8821 32.4675C92.5795 26.6542 91.4248 21.7488 91.4248 21.7488C91.4248 21.7488 90.2715 26.6542 85.9688 32.4675C81.6648 38.2795 77.6821 39.8902 77.6821 39.8902C77.6821 39.8902 81.6648 41.5008 85.9688 47.3142C90.2715 53.1275 91.4248 58.0315 91.4248 58.0315C91.4248 58.0315 92.5795 53.1275 96.8821 47.3142C101.185 41.5008 105.167 39.8902 105.167 39.8902C105.167 39.8902 101.185 38.2795 96.8821 32.4675" fill="#EC1C24"/>
<path fill-rule="evenodd" clip-rule="evenodd" d="M40.8105 32.4675C36.5051 26.6542 35.3531 21.7488 35.3531 21.7488C35.3531 21.7488 34.1985 26.6542 29.8945 32.4675C25.5918 38.2795 21.6091 39.8902 21.6091 39.8902C21.6091 39.8902 25.5918 41.5008 29.8945 47.3142C34.1985 53.1275 35.3531 58.0315 35.3531 58.0315C35.3531 58.0315 36.5051 53.1275 40.8105 47.3142C45.1105 41.5008 49.0958 39.8902 49.0958 39.8902C49.0958 39.8902 45.1105 38.2795 40.8105 32.4675" fill="#EC1C24"/>
<path fill-rule="evenodd" clip-rule="evenodd" d="M96.8821 89.1992C92.5795 83.3859 91.4248 78.4806 91.4248 78.4806C91.4248 78.4806 90.2715 83.3859 85.9688 89.1992C81.6648 95.0112 77.6821 96.6232 77.6821 96.6232C77.6821 96.6232 81.6648 98.2326 85.9688 104.046C90.2715 109.859 91.4248 114.762 91.4248 114.762C91.4248 114.762 92.5795 109.859 96.8821 104.046C101.185 98.2326 105.167 96.6232 105.167 96.6232C105.167 96.6232 101.185 95.0112 96.8821 89.1992" fill="#EC1C24"/>
<path fill-rule="evenodd" clip-rule="evenodd" d="M40.8105 89.1992C36.5051 83.3859 35.3531 78.4806 35.3531 78.4806C35.3531 78.4806 34.1985 83.3859 29.8945 89.1992C25.5918 95.0112 21.6091 96.6232 21.6091 96.6232C21.6091 96.6232 25.5918 98.2326 29.8945 104.046C34.1985 109.859 35.3531 114.762 35.3531 114.762C35.3531 114.762 36.5051 109.859 40.8105 104.046C45.1105 98.2326 49.0958 96.6232 49.0958 96.6232C49.0958 96.6232 45.1105 95.0112 40.8105 89.1992" fill="#EC1C24"/>
<path fill-rule="evenodd" clip-rule="evenodd" d="M96.8821 145.932C92.5795 140.12 91.4248 135.213 91.4248 135.213C91.4248 135.213 90.2715 140.12 85.9688 145.932C81.6648 151.744 77.6821 153.354 77.6821 153.354C77.6821 153.354 81.6648 154.965 85.9688 160.778C90.2715 166.592 91.4248 171.494 91.4248 171.494C91.4248 171.494 92.5795 166.592 96.8821 160.778C101.185 154.965 105.167 153.354 105.167 153.354C105.167 153.354 101.185 151.744 96.8821 145.932" fill="#EC1C24"/>
<path fill-rule="evenodd" clip-rule="evenodd" d="M40.8105 145.932C36.5051 140.12 35.3531 135.213 35.3531 135.213C35.3531 135.213 34.1985 140.12 29.8945 145.932C25.5918 151.744 21.6091 153.354 21.6091 153.354C21.6091 153.354 25.5918 154.965 29.8945 160.778C34.1985 166.592 35.3531 171.494 35.3531 171.494C35.3531 171.494 36.5051 166.592 40.8105 160.778C45.1105 154.965 49.0958 153.354 49.0958 153.354C49.0958 153.354 45.1105 151.744 40.8105 145.932" fill="#EC1C24"/>
<path fill-rule="evenodd" clip-rule="evenodd" d="M68.8471 60.8333C64.5431 55.02 63.3911 50.1147 63.3911 50.1147C63.3911 50.1147 62.2364 55.02 57.9324 60.8333C53.6298 66.6453 49.6471 68.256 49.6471 68.256C49.6471 68.256 53.6298 69.868 57.9324 75.68C62.2364 81.4933 63.3911 86.3973 63.3911 86.3973C63.3911 86.3973 64.5431 81.4933 68.8471 75.68C73.1484 69.868 77.1338 68.256 77.1338 68.256C77.1338 68.256 73.1484 66.6453 68.8471 60.8333" fill="#EC1C24"/>
<path d="M7.33072 9.76495H18.6494L20.072 11.741C20.072 11.741 15.112 18.3036 12.6707 31.7556H10.192C10.192 31.7556 11.652 21.6756 16.8027 12.0543H9.93738V14.7383H7.31738L7.33072 9.76495Z" fill="#EC1C24"/>
<path d="M119.45 183.481H108.13L106.708 181.505C106.708 181.505 111.667 174.942 114.108 161.491H116.588C116.588 161.491 115.127 171.57 109.976 181.191H116.842V178.509H119.46L119.45 183.481Z" fill="#EC1C24"/>
<path d="M14.1341 36.7038C14.1341 36.7038 16.0248 42.6824 20.4008 45.0931C20.4008 45.0931 16.0861 47.3091 14.1341 53.4158C12.1848 47.3091 7.86609 45.0931 7.86609 45.0931C12.2434 42.6824 14.1341 36.7038 14.1341 36.7038Z" fill="#EC1C24"/>
<path d="M112.644 156.544C112.644 156.544 110.755 150.568 106.379 148.154C106.379 148.154 110.695 145.938 112.644 139.83C114.596 145.938 118.913 148.154 118.913 148.154C114.536 150.568 112.644 156.544 112.644 156.544Z" fill="#EC1C24"/>
<path d="M126.059 185.678C126.059 189.322 123.105 192.276 119.461 192.276" stroke="#EB008B" stroke-width="0.333333" stroke-miterlimit="2.613"/>
<path d="M119.461 192.276H7.31689" stroke="#EB008B" stroke-width="0.333333" stroke-miterlimit="2.613"/>
<path d="M7.31706 192.276C3.67439 192.276 0.719727 189.323 0.719727 185.679" stroke="#EB008B" stroke-width="0.333333" stroke-miterlimit="2.613"/>
<path d="M0.719971 185.678V7.56774" stroke="#EB008B" stroke-width="0.333333" stroke-miterlimit="2.613"/>
<path d="M0.719971 7.56708C0.719971 3.92308 3.6733 0.969745 7.3173 0.969745" stroke="#EB008B" stroke-width="0.333333" stroke-miterlimit="2.613"/>
<path d="M7.31702 0.969971H119.461" stroke="#EB008B" stroke-width="0.333333" stroke-miterlimit="2.613"/>
<path d="M119.461 0.969989C123.105 0.969989 126.058 3.92332 126.058 7.56732" stroke="#EB008B" stroke-width="0.333333" stroke-miterlimit="2.613"/>
<path d="M126.059 7.56707V185.678" stroke="#EB008B" stroke-width="0.333333" stroke-miterlimit="2.613"/>
</svg>
