<svg width="134" height="205" viewBox="0 0 134 205" fill="none" xmlns="http://www.w3.org/2000/svg">
<path d="M37.6081 92.5039C38.1015 92.5039 38.0561 92.1586 38.2041 90.8332C38.3521 89.5026 39.9508 85.8972 44.6028 86.3052C46.6508 86.4759 51.5935 89.1599 50.9001 95.2079C50.6348 97.5266 50.1588 99.2426 47.1321 103.867C46.6695 104.569 41.6268 112.232 37.6081 118.725C33.5908 112.232 28.5401 104.569 28.0815 103.867C25.0548 99.2426 24.5788 97.5266 24.3068 95.2079C23.6148 89.1599 28.5601 86.4759 30.6095 86.3052C35.2601 85.8972 36.8601 89.5026 37.0068 90.8332C37.1575 92.1586 37.1108 92.5039 37.6081 92.5039Z" fill="#EC1C24"/>
<path d="M96.1483 92.5039C96.643 92.5039 96.595 92.1586 96.7456 90.8332C96.891 89.5026 98.491 85.8972 103.142 86.3052C105.191 86.4759 110.134 89.1599 109.442 95.2079C109.176 97.5266 108.698 99.2426 105.674 103.867C105.208 104.569 100.166 112.232 96.1483 118.725C92.131 112.232 87.0816 104.569 86.6216 103.867C83.5963 99.2426 83.119 97.5266 82.8483 95.2079C82.155 89.1599 87.1016 86.4759 89.1496 86.3052C93.8003 85.8972 95.4003 89.5026 95.547 90.8332C95.6976 92.1586 95.6523 92.5039 96.1483 92.5039Z" fill="#EC1C24"/>
<path d="M37.6081 30.2285C38.1015 30.2285 38.0561 29.8845 38.2041 28.5565C38.3521 27.2285 39.9508 23.6218 44.6028 24.0298C46.6508 24.2005 51.5935 26.8845 50.9001 32.9325C50.6348 35.2498 50.1588 36.9685 47.1321 41.5925C46.6695 42.2952 41.6268 49.9565 37.6081 56.4512C33.5908 49.9565 28.5401 42.2952 28.0815 41.5925C25.0548 36.9685 24.5788 35.2498 24.3068 32.9325C23.6148 26.8845 28.5601 24.2005 30.6095 24.0298C35.2601 23.6218 36.8601 27.2285 37.0068 28.5565C37.1575 29.8845 37.1108 30.2285 37.6081 30.2285Z" fill="#EC1C24"/>
<path d="M96.1483 30.2285C96.643 30.2285 96.595 29.8845 96.7456 28.5565C96.891 27.2285 98.491 23.6218 103.142 24.0298C105.191 24.2005 110.134 26.8845 109.442 32.9325C109.176 35.2498 108.698 36.9685 105.674 41.5925C105.208 42.2952 100.166 49.9565 96.1483 56.4512C92.131 49.9565 87.0816 42.2952 86.6216 41.5925C83.5963 36.9685 83.119 35.2498 82.8483 32.9325C82.155 26.8845 87.1016 24.2005 89.1496 24.0298C93.8003 23.6218 95.4003 27.2285 95.547 28.5565C95.6976 29.8845 95.6523 30.2285 96.1483 30.2285Z" fill="#EC1C24"/>
<path d="M96.1406 174.802C95.6459 174.802 95.6939 175.146 95.5446 176.471C95.3979 177.802 93.7966 181.406 89.1473 180.999C87.0966 180.829 82.1553 178.146 82.8486 172.097C83.1126 169.778 83.5899 168.062 86.6166 163.437C87.0793 162.734 92.1206 155.071 96.1406 148.579C100.157 155.071 105.207 162.734 105.666 163.437C108.694 168.062 109.17 169.778 109.442 172.097C110.134 178.146 105.186 180.829 103.139 180.999C98.4886 181.406 96.8873 177.802 96.7419 176.471C96.5913 175.146 96.6366 174.802 96.1406 174.802Z" fill="#EC1C24"/>
<path d="M37.5989 174.802C37.1055 174.802 37.1522 175.146 37.0042 176.471C36.8562 177.802 35.2549 181.406 30.6055 180.999C28.5549 180.829 23.6149 178.146 24.3069 172.097C24.5735 169.778 25.0482 168.062 28.0762 163.437C28.5375 162.734 33.5802 155.071 37.5989 148.579C41.6149 155.071 46.6682 162.734 47.1242 163.437C50.1535 168.062 50.6282 169.778 50.9002 172.097C51.5935 178.146 46.6455 180.829 44.5989 180.999C39.9482 181.406 38.3482 177.802 38.2002 176.471C38.0509 175.146 38.0949 174.802 37.5989 174.802Z" fill="#EC1C24"/>
<path d="M66.8775 61.3652C67.3722 61.3652 67.3242 61.0212 67.4735 59.6932C67.6188 58.3652 69.2228 54.7599 73.8708 55.1679C75.9215 55.3386 80.8642 58.0212 80.1695 64.0719C79.9055 66.3892 79.4282 68.1052 76.4015 72.7306C75.9402 73.4319 70.8975 81.0959 66.8775 87.5879C62.8629 81.0959 57.8109 73.4319 57.3509 72.7306C54.3255 68.1052 53.8469 66.3892 53.5775 64.0719C52.8829 58.0212 57.8309 55.3386 59.8788 55.1679C64.5282 54.7599 66.1295 58.3652 66.2762 59.6932C66.4282 61.0212 66.3815 61.3652 66.8775 61.3652Z" fill="#EC1C24"/>
<path d="M7.41019 10.3841H19.4182L20.9275 12.4788C20.9275 12.4788 15.6662 19.4415 13.0769 33.7095H10.4475C10.4475 33.7095 11.9955 23.0175 17.4609 12.8135H10.1755V15.6588H7.39819L7.41019 10.3841Z" fill="#EC1C24"/>
<path d="M126.339 194.645H114.331L112.823 192.551C112.823 192.551 118.084 185.589 120.673 171.321H123.305C123.305 171.321 121.752 182.01 116.289 192.217H123.572V189.371H126.351L126.339 194.645Z" fill="#EC1C24"/>
<path d="M14.3946 41.9025C14.6306 41.9025 14.6066 41.7371 14.6773 41.1065C14.7479 40.4771 15.5052 38.7638 17.7066 38.9585C18.6786 39.0398 21.0226 40.3131 20.6933 43.1865C20.5653 44.2851 20.3386 45.1011 18.9052 47.2971C18.6892 47.6291 16.2986 51.2678 14.3946 54.3518C12.4932 51.2678 10.0999 47.6291 9.88392 47.2971C8.44925 45.1011 8.22258 44.2851 8.09592 43.1865C7.76658 40.3131 10.1092 39.0398 11.0799 38.9585C13.2812 38.7638 14.0399 40.4771 14.1119 41.1065C14.1826 41.7371 14.1599 41.9025 14.3946 41.9025Z" fill="#EC1C24"/>
<path d="M119.353 163.133C119.118 163.133 119.141 163.293 119.07 163.924C119 164.554 118.241 166.266 116.041 166.073C115.068 165.993 112.728 164.718 113.054 161.846C113.181 160.746 113.408 159.93 114.842 157.734C115.061 157.401 117.448 153.766 119.353 150.68C121.254 153.766 123.646 157.401 123.865 157.734C125.298 159.93 125.525 160.746 125.652 161.846C125.98 164.718 123.638 165.993 122.666 166.073C120.465 166.266 119.706 164.554 119.636 163.924C119.565 163.293 119.586 163.133 119.353 163.133Z" fill="#EC1C24"/>
<path d="M133.346 196.977C133.346 200.843 130.214 203.974 126.35 203.974" stroke="#EB008B" stroke-width="0.333333" stroke-miterlimit="2.613"/>
<path d="M126.35 203.974H7.39819" stroke="#EB008B" stroke-width="0.333333" stroke-miterlimit="2.613"/>
<path d="M7.39846 203.974C3.53312 203.974 0.401123 200.843 0.401123 196.977" stroke="#EB008B" stroke-width="0.333333" stroke-miterlimit="2.613"/>
<path d="M0.401123 196.977V8.05389" stroke="#EB008B" stroke-width="0.333333" stroke-miterlimit="2.613"/>
<path d="M0.401123 8.05408C0.401123 4.18874 3.53312 1.05674 7.39846 1.05674" stroke="#EB008B" stroke-width="0.333333" stroke-miterlimit="2.613"/>
<path d="M7.39844 1.05676H126.35" stroke="#EB008B" stroke-width="0.333333" stroke-miterlimit="2.613"/>
<path d="M126.35 1.05674C130.214 1.05674 133.346 4.18874 133.346 8.05408" stroke="#EB008B" stroke-width="0.333333" stroke-miterlimit="2.613"/>
<path d="M133.346 8.05401V196.977" stroke="#EB008B" stroke-width="0.333333" stroke-miterlimit="2.613"/>
</svg>
