<svg width="134" height="203" viewBox="0 0 134 203" fill="none" xmlns="http://www.w3.org/2000/svg">
<path fill-rule="evenodd" clip-rule="evenodd" d="M37.2995 22.101C37.2995 22.101 34.8261 27.3583 30.6168 32.9023C26.0915 38.8583 23.7275 42.2356 23.7275 46.6956C23.7275 50.473 26.6821 52.9183 29.4648 52.9183C32.3021 52.9183 34.1461 51.8903 35.1088 48.2063C35.5021 46.7116 36.3355 47.0063 36.1155 48.6343C35.8541 50.557 35.8355 54.7396 32.7315 58.517H41.8661C38.7621 54.7396 38.7435 50.557 38.4795 48.6343C38.2608 47.0063 39.0941 46.7116 39.4861 48.2063C40.4501 51.8903 42.2955 52.9183 45.1315 52.9183C47.9115 52.9183 50.8675 50.473 50.8675 46.6956C50.8675 42.2356 48.5035 38.8583 43.9795 32.9023C39.7688 27.3583 37.2995 22.101 37.2995 22.101Z" fill="#231F20"/>
<path fill-rule="evenodd" clip-rule="evenodd" d="M96.2148 22.101C96.2148 22.101 93.7428 27.3583 89.5308 32.9023C85.0082 38.8583 82.6442 42.2356 82.6442 46.6956C82.6442 50.473 85.6015 52.9183 88.3788 52.9183C91.2188 52.9183 93.0615 51.8903 94.0255 48.2063C94.4162 46.7116 95.2535 47.0063 95.0295 48.6343C94.7708 50.557 94.7495 54.7396 91.6455 58.517H100.781C97.6775 54.7396 97.6562 50.557 97.3975 48.6343C97.1735 47.0063 98.0082 46.7116 98.4028 48.2063C99.3642 51.8903 101.209 52.9183 104.048 52.9183C106.827 52.9183 109.781 50.473 109.781 46.6956C109.781 42.2356 107.419 38.8583 102.895 32.9023C98.6868 27.3583 96.2148 22.101 96.2148 22.101Z" fill="#231F20"/>
<path fill-rule="evenodd" clip-rule="evenodd" d="M37.2995 83.6856C37.2995 83.6856 34.8261 88.9429 30.6168 94.4856C26.0915 100.442 23.7275 103.82 23.7275 108.279C23.7275 112.058 26.6821 114.503 29.4648 114.503C32.3021 114.503 34.1461 113.475 35.1088 109.791C35.5021 108.296 36.3355 108.592 36.1155 110.218C35.8541 112.142 35.8355 116.324 32.7315 120.103H41.8661C38.7621 116.324 38.7435 112.142 38.4795 110.218C38.2608 108.592 39.0941 108.296 39.4861 109.791C40.4501 113.475 42.2955 114.503 45.1315 114.503C47.9115 114.503 50.8675 112.058 50.8675 108.279C50.8675 103.82 48.5035 100.442 43.9795 94.4856C39.7688 88.9429 37.2995 83.6856 37.2995 83.6856Z" fill="#231F20"/>
<path fill-rule="evenodd" clip-rule="evenodd" d="M96.2148 83.6856C96.2148 83.6856 93.7428 88.9429 89.5308 94.4856C85.0082 100.442 82.6442 103.82 82.6442 108.279C82.6442 112.058 85.6015 114.503 88.3788 114.503C91.2188 114.503 93.0615 113.475 94.0255 109.791C94.4162 108.296 95.2535 108.592 95.0295 110.218C94.7708 112.142 94.7495 116.324 91.6455 120.103H100.781C97.6775 116.324 97.6562 112.142 97.3975 110.218C97.1735 108.592 98.0082 108.296 98.4028 109.791C99.3642 113.475 101.209 114.503 104.048 114.503C106.827 114.503 109.781 112.058 109.781 108.279C109.781 103.82 107.419 100.442 102.895 94.4856C98.6868 88.9429 96.2148 83.6856 96.2148 83.6856Z" fill="#231F20"/>
<path fill-rule="evenodd" clip-rule="evenodd" d="M96.2123 181.684C96.2123 181.684 98.6843 176.427 102.895 170.883C107.419 164.927 109.782 161.551 109.782 157.091C109.782 153.312 106.826 150.868 104.047 150.868C101.21 150.868 99.3643 151.896 98.4003 155.58C98.0083 157.074 97.1736 156.779 97.395 155.151C97.6563 153.23 97.6776 149.047 100.779 145.27H91.6456C94.7496 149.047 94.7683 153.23 95.0296 155.151C95.2496 156.779 94.4163 157.074 94.023 155.58C93.0616 151.896 91.2163 150.868 88.3776 150.868C85.6003 150.868 82.6443 153.312 82.6443 157.091C82.6443 161.551 85.0083 164.927 89.531 170.883C93.7403 176.427 96.2123 181.684 96.2123 181.684Z" fill="#231F20"/>
<path fill-rule="evenodd" clip-rule="evenodd" d="M37.297 181.684C37.297 181.684 39.769 176.427 43.9797 170.883C48.5023 164.927 50.8663 161.551 50.8663 157.091C50.8663 153.312 47.9117 150.868 45.1317 150.868C42.2943 150.868 40.4503 151.896 39.4863 155.58C39.0943 157.074 38.2583 156.779 38.4797 155.151C38.741 153.23 38.7623 149.047 41.8663 145.27H32.7317C35.8357 149.047 35.8543 153.23 36.1143 155.151C36.3357 156.779 35.5023 157.074 35.109 155.58C34.1463 151.896 32.3023 150.868 29.465 150.868C26.6823 150.868 23.7277 153.312 23.7277 157.091C23.7277 161.551 26.0917 164.927 30.617 170.883C34.825 176.427 37.297 181.684 37.297 181.684Z" fill="#231F20"/>
<path fill-rule="evenodd" clip-rule="evenodd" d="M66.7579 52.8919C66.7579 52.8919 64.2859 58.1519 60.0739 63.6932C55.5499 69.6492 53.1886 73.0279 53.1886 77.4865C53.1886 81.2665 56.1433 83.7105 58.9219 83.7105C61.7593 83.7105 63.6046 82.6825 64.5686 78.9985C64.9593 77.5039 65.7966 77.7999 65.5753 79.4265C65.3139 81.3492 65.2913 85.5319 62.1873 89.3092H71.3233C68.2179 85.5319 68.1993 81.3492 67.9406 79.4265C67.7193 77.7999 68.5513 77.5039 68.9459 78.9985C69.9086 82.6825 71.7526 83.7105 74.5899 83.7105C77.3686 83.7105 80.3273 81.2665 80.3273 77.4865C80.3273 73.0279 77.9619 69.6492 73.4366 63.6932C69.2299 58.1519 66.7579 52.8919 66.7579 52.8919Z" fill="#231F20"/>
<path d="M7.62112 10.2702H19.5611L21.0625 12.3542C21.0625 12.3542 15.8305 19.2769 13.2545 33.4662H10.6398C10.6398 33.4662 12.1811 22.8342 17.6145 12.6862H10.3718V15.5155H7.60779L7.62112 10.2702Z" fill="#231F20"/>
<path d="M125.892 193.516H113.952L112.451 191.432C112.451 191.432 117.681 184.509 120.259 170.321H122.875C122.875 170.321 121.333 180.952 115.897 191.1H123.141V188.27H125.904L125.892 193.516Z" fill="#231F20"/>
<path d="M12.336 54.2273C13.5427 53.0006 13.7414 50.6326 13.808 50.0606C13.872 49.49 13.72 49.3646 13.6094 49.3433C13.5 49.3206 13.376 49.5166 13.3227 49.7873C13.06 51.098 12.0987 51.6486 11.6334 51.7313C9.46004 52.1126 8.73737 50.6913 8.53604 50.314C7.41471 48.2433 9.92004 45.0206 10.336 44.522C12.6814 41.7153 14.3347 38.686 14.3347 38.686C14.3347 38.686 15.9867 41.7153 18.332 44.522C18.7494 45.0206 21.2534 48.2433 20.1347 50.314C19.9294 50.6913 19.2094 52.1126 17.0347 51.7313C16.5707 51.6486 15.608 51.098 15.344 49.7873C15.2907 49.5166 15.168 49.3206 15.0587 49.3433C14.9494 49.3646 14.796 49.49 14.8614 50.0606C14.9254 50.6326 15.1254 53.0006 16.332 54.2273H12.336Z" fill="#231F20"/>
<path d="M121.177 149.561C119.969 150.786 119.769 153.154 119.705 153.726C119.638 154.298 119.794 154.425 119.904 154.445C120.012 154.466 120.134 154.27 120.188 154.002C120.45 152.69 121.413 152.137 121.88 152.055C124.056 151.674 124.774 153.095 124.978 153.473C126.097 155.545 123.594 158.767 123.176 159.266C120.829 162.073 119.18 165.102 119.18 165.102C119.18 165.102 117.528 162.073 115.181 159.266C114.764 158.767 112.26 155.545 113.38 153.473C113.582 153.095 114.301 151.674 116.477 152.055C116.945 152.137 117.906 152.69 118.168 154.002C118.22 154.27 118.345 154.466 118.454 154.445C118.564 154.425 118.717 154.298 118.652 153.726C118.586 153.154 118.388 150.786 117.18 149.561H121.177Z" fill="#231F20"/>
<path d="M132.862 195.835C132.862 199.68 129.747 202.795 125.903 202.795" stroke="#EB008B" stroke-width="0.333333" stroke-miterlimit="2.613"/>
<path d="M125.904 202.794H7.60767" stroke="#EB008B" stroke-width="0.333333" stroke-miterlimit="2.613"/>
<path d="M7.60819 202.794C3.76286 202.794 0.648193 199.68 0.648193 195.834" stroke="#EB008B" stroke-width="0.333333" stroke-miterlimit="2.613"/>
<path d="M0.648438 195.835V7.95206" stroke="#EB008B" stroke-width="0.333333" stroke-miterlimit="2.613"/>
<path d="M0.648438 7.9519C0.648438 4.10924 3.7631 0.993238 7.60844 0.993238" stroke="#EB008B" stroke-width="0.333333" stroke-miterlimit="2.613"/>
<path d="M7.60815 0.99353H125.904" stroke="#EB008B" stroke-width="0.333333" stroke-miterlimit="2.613"/>
<path d="M125.904 0.993482C129.748 0.993482 132.862 4.10815 132.862 7.95215" stroke="#EB008B" stroke-width="0.333333" stroke-miterlimit="2.613"/>
<path d="M132.862 7.95194V195.835" stroke="#EB008B" stroke-width="0.333333" stroke-miterlimit="2.613"/>
</svg>
