<svg width="133" height="203" viewBox="0 0 133 203" fill="none" xmlns="http://www.w3.org/2000/svg">
<path d="M33.9427 57.8365C38.1107 52.7405 37.2027 45.2645 37.2027 45.2645C36.58 48.7112 33.1107 50.7619 31.692 50.9912C26.712 51.8165 24.336 48.1552 24.0267 47.5952C20.6253 41.4765 25.5853 37.6552 26.328 37.2045C30.8307 34.4392 34.4707 37.5939 34.4707 37.5939C35.1387 37.7392 34.7587 36.9152 34.7587 36.9152C31.0213 34.8752 30.8387 31.4179 30.9747 30.2645C31.8347 23.3699 38.6147 23.5272 38.6147 23.5272C38.6147 23.5272 45.3867 23.3699 46.248 30.2645C46.3827 31.4179 46.1987 34.8752 42.4627 36.9152C42.4627 36.9152 42.0813 37.7392 42.748 37.5939C42.748 37.5939 46.392 34.4392 50.896 37.2045C51.6347 37.6552 56.596 41.4765 53.1947 47.5952C52.8813 48.1552 50.5093 51.8165 45.528 50.9912C44.1093 50.7619 40.6427 48.7112 40.0213 45.2645C40.0213 45.2645 39.108 52.7405 43.2773 57.8365H33.9427Z" fill="#231F20"/>
<path d="M89.5806 57.8365C93.7486 52.7405 92.8393 45.2645 92.8393 45.2645C92.2166 48.7112 88.7486 50.7619 87.3286 50.9912C82.3486 51.8165 79.9726 48.1552 79.6633 47.5952C76.2633 41.4765 81.2233 37.6552 81.9646 37.2045C86.4673 34.4392 90.1086 37.5939 90.1086 37.5939C90.7766 37.7392 90.394 36.9152 90.394 36.9152C86.6593 34.8752 86.4753 31.4179 86.6113 30.2645C87.4713 23.3699 94.2526 23.5272 94.2526 23.5272C94.2526 23.5272 101.025 23.3699 101.886 30.2645C102.021 31.4179 101.837 34.8752 98.0993 36.9152C98.0993 36.9152 97.718 37.7392 98.386 37.5939C98.386 37.5939 102.029 34.4392 106.534 37.2045C107.271 37.6552 112.233 41.4765 108.831 47.5952C108.519 48.1552 106.146 51.8165 101.165 50.9912C99.746 50.7619 96.2793 48.7112 95.658 45.2645C95.658 45.2645 94.746 52.7405 98.9153 57.8365H89.5806Z" fill="#231F20"/>
<path d="M33.9427 119.037C38.1107 113.941 37.2027 106.465 37.2027 106.465C36.58 109.912 33.1107 111.962 31.692 112.192C26.712 113.017 24.336 109.356 24.0267 108.796C20.6253 102.677 25.5853 98.8558 26.328 98.4051C30.8307 95.6398 34.4707 98.7944 34.4707 98.7944C35.1387 98.9384 34.7587 98.1158 34.7587 98.1158C31.0213 96.0758 30.8387 92.6184 30.9747 91.4638C31.8347 84.5704 38.6147 84.7278 38.6147 84.7278C38.6147 84.7278 45.3867 84.5704 46.248 91.4638C46.3827 92.6184 46.1987 96.0758 42.4627 98.1158C42.4627 98.1158 42.0813 98.9384 42.748 98.7944C42.748 98.7944 46.392 95.6398 50.896 98.4051C51.6347 98.8558 56.596 102.677 53.1947 108.796C52.8813 109.356 50.5093 113.017 45.528 112.192C44.1093 111.962 40.6427 109.912 40.0213 106.465C40.0213 106.465 39.108 113.941 43.2773 119.037H33.9427Z" fill="#231F20"/>
<path d="M89.5806 119.037C93.7486 113.941 92.8393 106.465 92.8393 106.465C92.2166 109.912 88.7486 111.962 87.3286 112.192C82.3486 113.017 79.9726 109.356 79.6633 108.796C76.2633 102.677 81.2233 98.8558 81.9646 98.4051C86.4673 95.6398 90.1086 98.7944 90.1086 98.7944C90.7766 98.9384 90.394 98.1158 90.394 98.1158C86.6593 96.0758 86.4753 92.6184 86.6113 91.4638C87.4713 84.5704 94.2526 84.7278 94.2526 84.7278C94.2526 84.7278 101.025 84.5704 101.886 91.4638C102.021 92.6184 101.837 96.0758 98.0993 98.1158C98.0993 98.1158 97.718 98.9384 98.386 98.7944C98.386 98.7944 102.029 95.6398 106.534 98.4051C107.271 98.8558 112.233 102.677 108.831 108.796C108.519 109.356 106.146 113.017 101.165 112.192C99.746 111.962 96.2793 109.912 95.658 106.465C95.658 106.465 94.746 113.941 98.9153 119.037H89.5806Z" fill="#231F20"/>
<path d="M98.914 145.928C94.746 151.025 95.6553 158.501 95.6553 158.501C96.2767 155.053 99.7473 153.002 101.167 152.772C106.149 151.946 108.522 155.608 108.831 156.17C112.233 162.286 107.271 166.108 106.531 166.56C102.029 169.325 98.386 166.17 98.386 166.17C97.718 166.028 98.102 166.849 98.102 166.849C101.837 168.888 102.021 172.346 101.886 173.5C101.025 180.393 94.2433 180.238 94.2433 180.238C94.2433 180.238 87.4713 180.393 86.6113 173.5C86.4753 172.346 86.6593 168.888 90.394 166.849C90.394 166.849 90.778 166.028 90.1087 166.17C90.1087 166.17 86.4673 169.325 81.9633 166.56C81.2233 166.108 76.2633 162.286 79.6633 156.17C79.9767 155.608 82.3487 151.946 87.3287 152.772C88.7487 153.002 92.2167 155.053 92.8367 158.501C92.8367 158.501 93.7487 151.025 89.5807 145.928H98.914Z" fill="#231F20"/>
<path d="M43.276 145.928C39.108 151.025 40.0186 158.501 40.0186 158.501C40.64 155.053 44.1093 153.002 45.5293 152.772C50.512 151.946 52.8853 155.608 53.1946 156.17C56.596 162.286 51.6346 166.108 50.8946 166.56C46.392 169.325 42.748 166.17 42.748 166.17C42.0813 166.028 42.464 166.849 42.464 166.849C46.2013 168.888 46.3826 172.346 46.248 173.5C45.3866 180.393 38.6053 180.238 38.6053 180.238C38.6053 180.238 31.8333 180.393 30.9746 173.5C30.8386 172.346 31.0213 168.888 34.7586 166.849C34.7586 166.849 35.1413 166.028 34.4706 166.17C34.4706 166.17 30.8306 169.325 26.3266 166.56C25.5853 166.108 20.6253 162.286 24.0253 156.17C24.34 155.608 26.712 151.946 31.692 152.772C33.1106 153.002 36.58 155.053 37.2 158.501C37.2 158.501 38.1106 151.025 33.9426 145.928H43.276Z" fill="#231F20"/>
<path d="M61.763 88.4362C65.931 83.3388 65.0204 75.8642 65.0204 75.8642C64.399 79.3108 60.9297 81.3615 59.511 81.5922C54.5297 82.4175 52.1537 78.7562 51.8457 78.1935C48.443 72.0788 53.4044 68.2562 54.147 67.8055C58.6497 65.0388 62.291 68.1935 62.291 68.1935C62.9577 68.3375 62.5764 67.5148 62.5764 67.5148C58.839 65.4762 58.6577 62.0175 58.7924 60.8655C59.6537 53.9708 66.435 54.1255 66.435 54.1255C66.435 54.1255 73.2057 53.9708 74.067 60.8655C74.203 62.0175 74.0177 65.4762 70.2804 67.5148C70.2804 67.5148 69.899 68.3375 70.5684 68.1935C70.5684 68.1935 74.2097 65.0388 78.715 67.8055C79.4537 68.2562 84.415 72.0788 81.0137 78.1935C80.699 78.7562 78.327 82.4175 73.347 81.5922C71.9284 81.3615 68.4617 79.3108 67.839 75.8642C67.839 75.8642 66.9284 83.3388 71.0964 88.4362H61.763Z" fill="#231F20"/>
<path d="M71.0964 115.326C66.9284 120.423 67.8364 127.899 67.8364 127.899C68.459 124.451 71.9297 122.401 73.3497 122.173C78.3297 121.347 80.703 125.007 81.0137 125.569C84.415 131.686 79.4537 135.509 78.7124 135.959C74.2097 138.723 70.5684 135.569 70.5684 135.569C69.899 135.426 70.283 136.247 70.283 136.247C74.019 138.287 74.203 141.746 74.067 142.899C73.2057 149.793 66.4244 149.637 66.4244 149.637C66.4244 149.637 59.6524 149.793 58.7924 142.899C58.6577 141.746 58.839 138.287 62.5764 136.247C62.5764 136.247 62.959 135.426 62.291 135.569C62.291 135.569 58.6497 138.723 54.1444 135.959C53.4044 135.509 48.443 131.686 51.8444 125.569C52.1577 125.007 54.5297 121.347 59.511 122.173C60.9297 122.401 64.399 124.451 65.0177 127.899C65.0177 127.899 65.931 120.423 61.763 115.326H71.0964Z" fill="#231F20"/>
<path fill-rule="evenodd" clip-rule="evenodd" d="M11.2891 21.2655C11.2891 21.2655 6.77173 23.3375 7.31573 28.0429C7.50906 29.7082 9.62106 33.4935 14.8224 33.4935C20.0264 33.4935 21.6184 29.7522 21.9384 28.6802C23.3624 23.8669 17.9651 21.1655 17.9651 21.1655C20.0757 20.1349 21.5157 17.8255 21.3984 16.2549C21.0544 11.6855 17.2717 10.3109 14.5291 10.3109C11.6891 10.3029 7.75573 12.6202 7.95306 16.1069C8.14906 19.5949 11.2891 21.2655 11.2891 21.2655ZM14.7251 12.5709C16.6397 12.5709 18.9437 14.0455 18.9437 16.2055C18.9437 18.3655 16.6891 19.5949 14.5784 19.5949C12.4677 19.5949 10.2597 18.1695 10.2597 16.2055C10.2597 14.2415 12.0757 12.5709 14.7251 12.5709ZM14.7251 23.0335C17.7171 23.0335 19.6317 24.5549 19.6317 27.4535C19.6317 30.1042 16.4904 31.1855 15.0184 31.1855C13.5477 31.1855 9.96506 30.2522 9.96506 27.2575C9.96506 24.5069 12.1251 23.0335 14.7251 23.0335" fill="#231F20"/>
<path fill-rule="evenodd" clip-rule="evenodd" d="M121.569 182.499C121.569 182.499 126.086 180.427 125.542 175.721C125.35 174.055 123.238 170.268 118.038 170.268C112.834 170.268 111.241 174.011 110.921 175.081C109.497 179.895 114.896 182.596 114.896 182.596C112.786 183.629 111.344 185.937 111.461 187.509C111.805 192.076 115.586 193.451 118.33 193.451C121.17 193.461 125.104 191.143 124.906 187.656C124.71 184.169 121.569 182.499 121.569 182.499ZM118.134 191.193C116.22 191.193 113.914 189.719 113.914 187.559C113.914 185.397 116.17 184.169 118.281 184.169C120.39 184.169 122.6 185.592 122.6 187.559C122.6 189.523 120.785 191.193 118.134 191.193ZM118.134 180.729C115.141 180.729 113.226 179.208 113.226 176.309C113.226 173.659 116.368 172.579 117.84 172.579C119.312 172.579 122.894 173.511 122.894 176.508C122.894 179.257 120.736 180.729 118.134 180.729" fill="#231F20"/>
<path d="M120.531 149.755C118.695 152.027 119.095 155.362 119.095 155.362C119.37 153.826 120.899 152.91 121.525 152.807C123.723 152.438 124.766 154.073 124.903 154.322C126.403 157.05 124.217 158.754 123.89 158.955C121.905 160.189 120.298 158.782 120.298 158.782C120.003 158.718 120.171 159.086 120.171 159.086C121.819 159.994 121.901 161.537 121.842 162.051C121.461 165.125 118.473 165.055 118.473 165.055C118.473 165.055 115.487 165.125 115.107 162.051C115.049 161.537 115.127 159.994 116.777 159.086C116.777 159.086 116.946 158.718 116.649 158.782C116.649 158.782 115.043 160.189 113.059 158.955C112.731 158.754 110.546 157.05 112.045 154.322C112.183 154.073 113.226 152.438 115.425 152.807C116.05 152.91 117.579 153.826 117.853 155.362C117.853 155.362 118.254 152.027 116.417 149.755H120.531Z" fill="#231F20"/>
<path d="M12.3268 54.0125C14.1655 51.7405 13.7628 48.4058 13.7628 48.4058C13.4895 49.9431 11.9601 50.8565 11.3348 50.9605C9.13879 51.3271 8.09212 49.6951 7.95612 49.4445C6.45612 46.7165 8.64412 45.0125 8.97079 44.8125C10.9561 43.5778 12.5615 44.9845 12.5615 44.9845C12.8548 45.0498 12.6868 44.6818 12.6868 44.6818C11.0401 43.7725 10.9601 42.2311 11.0188 41.7165C11.4001 38.6418 14.3881 38.7125 14.3881 38.7125C14.3881 38.7125 17.3721 38.6418 17.7508 41.7165C17.8121 42.2311 17.7321 43.7725 16.0841 44.6818C16.0841 44.6818 15.9121 45.0498 16.2095 44.9845C16.2095 44.9845 17.8161 43.5778 19.8001 44.8125C20.1268 45.0125 22.3135 46.7165 20.8135 49.4445C20.6775 49.6951 19.6321 51.3271 17.4361 50.9605C16.8108 50.8565 15.2815 49.9431 15.0068 48.4058C15.0068 48.4058 14.6055 51.7405 16.4441 54.0125H12.3268Z" fill="#231F20"/>
<path d="M132.499 195.771C132.499 199.612 129.385 202.724 125.543 202.724" stroke="#EB008B" stroke-width="0.333333" stroke-miterlimit="2.613"/>
<path d="M125.543 202.724H7.31494" stroke="#EB008B" stroke-width="0.333333" stroke-miterlimit="2.613"/>
<path d="M7.31504 202.724C3.47371 202.724 0.359039 199.612 0.359039 195.771" stroke="#EB008B" stroke-width="0.333333" stroke-miterlimit="2.613"/>
<path d="M0.359314 195.771V7.99475" stroke="#EB008B" stroke-width="0.333333" stroke-miterlimit="2.613"/>
<path d="M0.359314 7.99475C0.359314 4.15342 3.47398 1.04008 7.31531 1.04008" stroke="#EB008B" stroke-width="0.333333" stroke-miterlimit="2.613"/>
<path d="M7.31506 1.04041H125.543" stroke="#EB008B" stroke-width="0.333333" stroke-miterlimit="2.613"/>
<path d="M125.543 1.04033C129.386 1.04033 132.499 4.15233 132.499 7.995" stroke="#EB008B" stroke-width="0.333333" stroke-miterlimit="2.613"/>
<path d="M132.499 7.99475V195.771" stroke="#EB008B" stroke-width="0.333333" stroke-miterlimit="2.613"/>
</svg>
