<svg width="126" height="193" viewBox="0 0 126 193" fill="none" xmlns="http://www.w3.org/2000/svg">
<path fill-rule="evenodd" clip-rule="evenodd" d="M96.414 32.4675C92.11 26.6542 90.9553 21.7488 90.9553 21.7488C90.9553 21.7488 89.8033 26.6542 85.4993 32.4675C81.198 38.2795 77.2126 39.8902 77.2126 39.8902C77.2126 39.8902 81.198 41.5008 85.4993 47.3142C89.8033 53.1275 90.9553 58.0315 90.9553 58.0315C90.9553 58.0315 92.11 53.1275 96.414 47.3142C100.717 41.5008 104.701 39.8902 104.701 39.8902C104.701 39.8902 100.717 38.2795 96.414 32.4675" fill="#EC1C24"/>
<path fill-rule="evenodd" clip-rule="evenodd" d="M40.3411 32.4675C36.0371 26.6542 34.8824 21.7488 34.8824 21.7488C34.8824 21.7488 33.7304 26.6542 29.4264 32.4675C25.1251 38.2795 21.1411 39.8902 21.1411 39.8902C21.1411 39.8902 25.1251 41.5008 29.4264 47.3142C33.7304 53.1275 34.8824 58.0315 34.8824 58.0315C34.8824 58.0315 36.0371 53.1275 40.3411 47.3142C44.6438 41.5008 48.6264 39.8902 48.6264 39.8902C48.6264 39.8902 44.6438 38.2795 40.3411 32.4675" fill="#EC1C24"/>
<path fill-rule="evenodd" clip-rule="evenodd" d="M96.414 89.1992C92.11 83.3859 90.9553 78.4806 90.9553 78.4806C90.9553 78.4806 89.8033 83.3859 85.4993 89.1992C81.198 95.0112 77.2126 96.6232 77.2126 96.6232C77.2126 96.6232 81.198 98.2326 85.4993 104.046C89.8033 109.859 90.9553 114.762 90.9553 114.762C90.9553 114.762 92.11 109.859 96.414 104.046C100.717 98.2326 104.701 96.6232 104.701 96.6232C104.701 96.6232 100.717 95.0112 96.414 89.1992Z" fill="#EC1C24"/>
<path fill-rule="evenodd" clip-rule="evenodd" d="M40.3411 89.1992C36.0371 83.3859 34.8824 78.4806 34.8824 78.4806C34.8824 78.4806 33.7304 83.3859 29.4264 89.1992C25.1251 95.0112 21.1411 96.6232 21.1411 96.6232C21.1411 96.6232 25.1251 98.2326 29.4264 104.046C33.7304 109.859 34.8824 114.762 34.8824 114.762C34.8824 114.762 36.0371 109.859 40.3411 104.046C44.6438 98.2326 48.6264 96.6232 48.6264 96.6232C48.6264 96.6232 44.6438 95.0112 40.3411 89.1992Z" fill="#EC1C24"/>
<path fill-rule="evenodd" clip-rule="evenodd" d="M96.414 145.932C92.11 140.12 90.9553 135.213 90.9553 135.213C90.9553 135.213 89.8033 140.12 85.4993 145.932C81.198 151.744 77.2126 153.354 77.2126 153.354C77.2126 153.354 81.198 154.965 85.4993 160.778C89.8033 166.592 90.9553 171.494 90.9553 171.494C90.9553 171.494 92.11 166.592 96.414 160.778C100.717 154.965 104.701 153.354 104.701 153.354C104.701 153.354 100.717 151.744 96.414 145.932Z" fill="#EC1C24"/>
<path fill-rule="evenodd" clip-rule="evenodd" d="M40.3411 145.932C36.0371 140.12 34.8824 135.213 34.8824 135.213C34.8824 135.213 33.7304 140.12 29.4264 145.932C25.1251 151.744 21.1411 153.354 21.1411 153.354C21.1411 153.354 25.1251 154.965 29.4264 160.778C33.7304 166.592 34.8824 171.494 34.8824 171.494C34.8824 171.494 36.0371 166.592 40.3411 160.778C44.6438 154.965 48.6264 153.354 48.6264 153.354C48.6264 153.354 44.6438 151.744 40.3411 145.932Z" fill="#EC1C24"/>
<path fill-rule="evenodd" clip-rule="evenodd" d="M68.3776 60.8333C64.0723 55.02 62.9203 50.1147 62.9203 50.1147C62.9203 50.1147 61.7656 55.02 57.4616 60.8333C53.1603 66.6453 49.1776 68.256 49.1776 68.256C49.1776 68.256 53.1603 69.868 57.4616 75.68C61.7656 81.4933 62.9203 86.3973 62.9203 86.3973C62.9203 86.3973 64.0723 81.4933 68.3776 75.68C72.6789 69.868 76.6643 68.256 76.6643 68.256C76.6643 68.256 72.6789 66.6453 68.3776 60.8333" fill="#EC1C24"/>
<path fill-rule="evenodd" clip-rule="evenodd" d="M68.3776 117.566C64.0723 111.752 62.9203 106.848 62.9203 106.848C62.9203 106.848 61.7656 111.752 57.4616 117.566C53.1603 123.378 49.1776 124.988 49.1776 124.988C49.1776 124.988 53.1603 126.599 57.4616 132.412C61.7656 138.226 62.9203 143.131 62.9203 143.131C62.9203 143.131 64.0723 138.226 68.3776 132.412C72.6789 126.599 76.6643 124.988 76.6643 124.988C76.6643 124.988 72.6789 123.378 68.3776 117.566" fill="#EC1C24"/>
<path fill-rule="evenodd" clip-rule="evenodd" d="M10.6179 20.1543C10.6179 20.1543 6.3339 22.1196 6.8499 26.5823C7.03123 28.1636 9.03523 31.7556 13.9699 31.7556C18.9046 31.7556 20.4166 28.2049 20.7206 27.1889C22.0699 22.6249 16.9499 20.0623 16.9499 20.0623C18.9512 19.0836 20.3192 16.8943 20.2072 15.4009C19.8819 11.0703 16.2926 9.76495 13.6912 9.76495C10.9979 9.75695 7.2659 11.9556 7.45256 15.2623C7.63923 18.5703 10.6179 20.1543 10.6179 20.1543ZM13.8766 11.9076C15.6926 11.9076 17.8806 13.3063 17.8806 15.3556C17.8806 17.4063 15.7392 18.5703 13.7366 18.5703C11.7352 18.5703 9.64056 17.2196 9.64056 15.3556C9.64056 13.4929 11.3632 11.9076 13.8766 11.9076ZM13.8766 21.8316C16.7166 21.8316 18.5326 23.2756 18.5326 26.0236C18.5326 28.5409 15.5526 29.5649 14.1566 29.5649C12.7592 29.5649 9.3619 28.6796 9.3619 25.8369C9.3619 23.2303 11.4099 21.8316 13.8766 21.8316" fill="#EC1C24"/>
<path fill-rule="evenodd" clip-rule="evenodd" d="M115.223 173.091C115.223 173.091 119.508 171.125 118.993 166.662C118.809 165.081 116.807 161.491 111.871 161.491C106.936 161.491 105.424 165.041 105.121 166.058C103.771 170.622 108.895 173.185 108.895 173.185C106.892 174.162 105.525 176.351 105.633 177.843C105.96 182.175 109.548 183.481 112.151 183.481C114.844 183.489 118.575 181.291 118.388 177.985C118.201 174.675 115.223 173.091 115.223 173.091ZM111.965 181.337C110.148 181.337 107.961 179.941 107.961 177.891C107.961 175.842 110.103 174.675 112.104 174.675C114.105 174.675 116.2 176.026 116.2 177.891C116.2 179.753 114.477 181.337 111.965 181.337V181.337ZM111.965 171.414C109.125 171.414 107.308 169.969 107.308 167.219C107.308 164.706 110.288 163.682 111.685 163.682C113.083 163.682 116.48 164.565 116.48 167.407C116.48 170.017 114.431 171.414 111.965 171.414" fill="#EC1C24"/>
<path d="M13.6639 36.7038C13.6639 36.7038 15.5545 42.6824 19.9305 45.0931C19.9305 45.0931 15.6172 47.3091 13.6639 53.4158C11.7159 47.3091 7.39722 45.0931 7.39722 45.0931C11.7746 42.6824 13.6639 36.7038 13.6639 36.7038Z" fill="#EC1C24"/>
<path d="M112.175 156.544C112.175 156.544 110.287 150.568 105.911 148.154C105.911 148.154 110.224 145.938 112.175 139.83C114.127 145.938 118.444 148.154 118.444 148.154C114.068 150.568 112.175 156.544 112.175 156.544Z" fill="#EC1C24"/>
<path d="M125.589 185.678C125.589 189.322 122.635 192.276 118.994 192.276" stroke="#EB008B" stroke-width="0.333333" stroke-miterlimit="2.613"/>
<path d="M118.993 192.276H6.84937" stroke="#EB008B" stroke-width="0.333333" stroke-miterlimit="2.613"/>
<path d="M6.84953 192.276C3.20553 192.276 0.252197 189.323 0.252197 185.679" stroke="#EB008B" stroke-width="0.333333" stroke-miterlimit="2.613"/>
<path d="M0.252686 185.678V7.56774" stroke="#EB008B" stroke-width="0.333333" stroke-miterlimit="2.613"/>
<path d="M0.252686 7.56708C0.252686 3.92308 3.20469 0.969745 6.85002 0.969745" stroke="#EB008B" stroke-width="0.333333" stroke-miterlimit="2.613"/>
<path d="M6.84961 0.969971H118.994" stroke="#EB008B" stroke-width="0.333333" stroke-miterlimit="2.613"/>
<path d="M118.993 0.969989C122.635 0.969989 125.588 3.92332 125.588 7.56732" stroke="#EB008B" stroke-width="0.333333" stroke-miterlimit="2.613"/>
<path d="M125.589 7.56707V185.678" stroke="#EB008B" stroke-width="0.333333" stroke-miterlimit="2.613"/>
</svg>
