<svg width="134" height="205" viewBox="0 0 134 205" fill="none" xmlns="http://www.w3.org/2000/svg">
<path d="M37.974 92.5039C38.4686 92.5039 38.4206 92.1586 38.5713 90.8332C38.7166 89.5026 40.3193 85.8972 44.9673 86.3052C47.0166 86.4759 51.9606 89.1599 51.2673 95.2079C51.002 97.5266 50.5246 99.2426 47.4993 103.867C47.0353 104.569 41.994 112.232 37.974 118.725C33.9593 112.232 28.9073 104.569 28.4473 103.867C25.422 99.2426 24.9446 97.5266 24.674 95.2079C23.9806 89.1599 28.9273 86.4759 30.9753 86.3052C35.626 85.8972 37.226 89.5026 37.3726 90.8332C37.5246 92.1586 37.478 92.5039 37.974 92.5039Z" fill="#EC1C24"/>
<path d="M96.5141 92.5039C97.0101 92.5039 96.9608 92.1586 97.1101 90.8332C97.2581 89.5026 98.8595 85.8972 103.509 86.3052C105.558 86.4759 110.501 89.1599 109.807 95.2079C109.542 97.5266 109.066 99.2426 106.039 103.867C105.577 104.569 100.534 112.232 96.5141 118.725C92.4995 112.232 87.4475 104.569 86.9888 103.867C83.9621 99.2426 83.4848 97.5266 83.2155 95.2079C82.5195 89.1599 87.4675 86.4759 89.5155 86.3052C94.1675 85.8972 95.7661 89.5026 95.9141 90.8332C96.0648 92.1586 96.0195 92.5039 96.5141 92.5039Z" fill="#EC1C24"/>
<path d="M37.974 30.2285C38.4686 30.2285 38.4206 29.8845 38.5713 28.5565C38.7166 27.2285 40.3193 23.6218 44.9673 24.0298C47.0166 24.2005 51.9606 26.8845 51.2673 32.9325C51.002 35.2498 50.5246 36.9685 47.4993 41.5925C47.0353 42.2952 41.994 49.9565 37.974 56.4512C33.9593 49.9565 28.9073 42.2952 28.4473 41.5925C25.422 36.9685 24.9446 35.2498 24.674 32.9325C23.9806 26.8845 28.9273 24.2005 30.9753 24.0298C35.626 23.6218 37.226 27.2285 37.3726 28.5565C37.5246 29.8845 37.478 30.2285 37.974 30.2285Z" fill="#EC1C24"/>
<path d="M96.5141 30.2285C97.0101 30.2285 96.9608 29.8845 97.1101 28.5565C97.2581 27.2285 98.8595 23.6218 103.509 24.0298C105.558 24.2005 110.501 26.8845 109.807 32.9325C109.542 35.2498 109.066 36.9685 106.039 41.5925C105.577 42.2952 100.534 49.9565 96.5141 56.4512C92.4995 49.9565 87.4475 42.2952 86.9888 41.5925C83.9621 36.9685 83.4848 35.2498 83.2155 32.9325C82.5195 26.8845 87.4675 24.2005 89.5155 24.0298C94.1675 23.6218 95.7661 27.2285 95.9141 28.5565C96.0648 29.8845 96.0195 30.2285 96.5141 30.2285Z" fill="#EC1C24"/>
<path d="M96.5064 174.802C96.0117 174.802 96.0597 175.146 95.9117 176.471C95.7637 177.802 94.1637 181.406 89.5131 180.999C87.4637 180.829 82.5197 178.146 83.2157 172.097C83.4797 169.778 83.9571 168.062 86.9824 163.437C87.4451 162.734 92.4891 155.071 96.5064 148.579C100.522 155.071 105.574 162.734 106.034 163.437C109.06 168.062 109.537 169.778 109.808 172.097C110.501 178.146 105.553 180.829 103.505 180.999C98.8557 181.406 97.2544 177.802 97.1077 176.471C96.9557 175.146 97.0037 174.802 96.5064 174.802Z" fill="#EC1C24"/>
<path d="M37.966 174.802C37.4714 174.802 37.5194 175.146 37.37 176.471C37.2234 177.802 35.6207 181.406 30.9727 180.999C28.922 180.829 23.9807 178.146 24.674 172.097C24.938 169.778 25.4167 168.062 28.4434 163.437C28.9047 162.734 33.9474 155.071 37.966 148.579C41.982 155.071 47.0327 162.734 47.4927 163.437C50.5194 168.062 50.9954 169.778 51.2674 172.097C51.9607 178.146 47.0127 180.829 44.9647 180.999C40.314 181.406 38.7127 177.802 38.5674 176.471C38.4167 175.146 38.4607 174.802 37.966 174.802Z" fill="#EC1C24"/>
<path d="M67.2447 61.3652C67.7394 61.3652 67.6914 61.0212 67.842 59.6932C67.9874 58.3652 69.5887 54.7599 74.238 55.1679C76.2874 55.3386 81.23 58.0212 80.5367 64.0719C80.2727 66.3892 79.7954 68.1052 76.7687 72.7306C76.306 73.4319 71.2634 81.0959 67.2447 87.5879C63.2287 81.0959 58.178 73.4319 57.718 72.7306C54.6914 68.1052 54.2154 66.3892 53.9447 64.0719C53.25 58.0212 58.198 55.3386 60.2447 55.1679C64.8967 54.7599 66.4967 58.3652 66.6434 59.6932C66.794 61.0212 66.7487 61.3652 67.2447 61.3652Z" fill="#EC1C24"/>
<path d="M67.2368 143.663C66.7408 143.663 66.7901 144.01 66.6408 145.335C66.4941 146.664 64.8928 150.27 60.2434 149.862C58.1928 149.691 53.2501 147.008 53.9448 140.959C54.2088 138.642 54.6874 136.924 57.7128 132.3C58.1754 131.598 63.2181 123.935 67.2368 117.443C71.2528 123.935 76.3034 131.598 76.7634 132.3C79.7888 136.924 80.2661 138.642 80.5368 140.959C81.2301 147.008 76.2821 149.691 74.2341 149.862C69.5848 150.27 67.9834 146.664 67.8368 145.335C67.6861 144.01 67.7328 143.663 67.2368 143.663Z" fill="#EC1C24"/>
<path fill-rule="evenodd" clip-rule="evenodd" d="M11.7643 21.405C11.7643 21.405 7.21894 23.489 7.7656 28.2237C7.95894 29.8997 10.0856 33.709 15.3176 33.709C20.5523 33.709 22.1549 29.9437 22.4776 28.8663C23.9083 24.0237 18.4789 21.3063 18.4789 21.3063C20.6029 20.2677 22.0523 17.945 21.9349 16.3637C21.5883 11.7677 17.7843 10.3837 15.0216 10.3837C12.1643 10.3757 8.20961 12.7077 8.40694 16.2157C8.60294 19.725 11.7643 21.405 11.7643 21.405ZM15.2203 12.6583C17.1443 12.6583 19.4643 14.1423 19.4643 16.3143C19.4643 18.489 17.1949 19.725 15.0709 19.725C12.9496 19.725 10.7283 18.2917 10.7283 16.3143C10.7283 14.3397 12.5536 12.6583 15.2203 12.6583ZM15.2203 23.1837C18.2323 23.1837 20.1563 24.7143 20.1563 27.6303C20.1563 30.2983 16.9976 31.3863 15.5149 31.3863C14.0349 31.3863 10.4309 30.4463 10.4309 27.433C10.4309 24.6663 12.6029 23.1837 15.2203 23.1837" fill="#EC1C24"/>
<path fill-rule="evenodd" clip-rule="evenodd" d="M122.719 183.625C122.719 183.625 127.264 181.541 126.717 176.806C126.524 175.13 124.397 171.32 119.165 171.32C113.929 171.32 112.327 175.085 112.005 176.162C110.573 181.005 116.004 183.724 116.004 183.724C113.881 184.764 112.429 187.085 112.547 188.666C112.893 193.261 116.697 194.645 119.46 194.645C122.317 194.654 126.273 192.322 126.076 188.816C125.879 185.305 122.719 183.625 122.719 183.625ZM119.263 192.373C117.336 192.373 115.017 190.888 115.017 188.716C115.017 186.542 117.288 185.305 119.411 185.305C121.532 185.305 123.756 186.737 123.756 188.716C123.756 190.69 121.928 192.373 119.263 192.373ZM119.263 181.845C116.249 181.845 114.325 180.314 114.325 177.398C114.325 174.732 117.485 173.644 118.968 173.644C120.447 173.644 124.052 174.582 124.052 177.597C124.052 180.364 121.879 181.845 119.263 181.845Z" fill="#EC1C24"/>
<path d="M14.7618 41.9025C14.9991 41.9025 14.9738 41.7371 15.0444 41.1065C15.1164 40.4771 15.8724 38.7638 18.0738 38.9585C19.0458 39.0398 21.3884 40.3131 21.0591 43.1865C20.9311 44.2851 20.7058 45.1011 19.2724 47.2971C19.0551 47.6291 16.6658 51.2678 14.7618 54.3518C12.8591 51.2678 10.4671 47.6291 10.2484 47.2971C8.81509 45.1011 8.58975 44.2851 8.46309 43.1865C8.13375 40.3131 10.4778 39.0398 11.4471 38.9585C13.6484 38.7638 14.4071 40.4771 14.4778 41.1065C14.5498 41.7371 14.5271 41.9025 14.7618 41.9025Z" fill="#EC1C24"/>
<path d="M119.719 163.133C119.484 163.133 119.509 163.293 119.439 163.924C119.367 164.554 118.608 166.266 116.407 166.073C115.436 165.993 113.093 164.718 113.421 161.846C113.549 160.746 113.775 159.93 115.209 157.734C115.427 157.401 117.816 153.766 119.719 150.68C121.621 153.766 124.013 157.401 124.232 157.734C125.665 159.93 125.892 160.746 126.02 161.846C126.347 164.718 124.005 165.993 123.033 166.073C120.832 166.266 120.075 164.554 120.004 163.924C119.932 163.293 119.953 163.133 119.719 163.133Z" fill="#EC1C24"/>
<path d="M133.714 196.977C133.714 200.843 130.582 203.974 126.718 203.974" stroke="#EB008B" stroke-width="0.333333" stroke-miterlimit="2.613"/>
<path d="M126.717 203.974H7.76538" stroke="#EB008B" stroke-width="0.333333" stroke-miterlimit="2.613"/>
<path d="M7.76551 203.974C3.89885 203.974 0.766846 200.843 0.766846 196.977" stroke="#EB008B" stroke-width="0.333333" stroke-miterlimit="2.613"/>
<path d="M0.766846 196.977V8.05389" stroke="#EB008B" stroke-width="0.333333" stroke-miterlimit="2.613"/>
<path d="M0.766846 8.05408C0.766846 4.18874 3.89885 1.05674 7.76551 1.05674" stroke="#EB008B" stroke-width="0.333333" stroke-miterlimit="2.613"/>
<path d="M7.76562 1.05676H126.718" stroke="#EB008B" stroke-width="0.333333" stroke-miterlimit="2.613"/>
<path d="M126.717 1.05674C130.581 1.05674 133.713 4.18874 133.713 8.05408" stroke="#EB008B" stroke-width="0.333333" stroke-miterlimit="2.613"/>
<path d="M133.714 8.05401V196.977" stroke="#EB008B" stroke-width="0.333333" stroke-miterlimit="2.613"/>
</svg>
