<svg width="134" height="203" viewBox="0 0 134 203" fill="none" xmlns="http://www.w3.org/2000/svg">
<path fill-rule="evenodd" clip-rule="evenodd" d="M37.8139 22.101C37.8139 22.101 35.3406 27.3583 31.1326 32.9023C26.6086 38.8583 24.2446 42.2356 24.2446 46.6956C24.2446 50.473 27.1992 52.9183 29.9779 52.9183C32.8166 52.9183 34.6619 51.8903 35.6246 48.2063C36.0179 46.7116 36.8526 47.0063 36.6312 48.6343C36.3699 50.557 36.3499 54.7396 33.2446 58.517H42.3806C39.2779 54.7396 39.2579 50.557 38.9952 48.6343C38.7752 47.0063 39.6086 46.7116 40.0019 48.2063C40.9659 51.8903 42.8112 52.9183 45.6459 52.9183C48.4259 52.9183 51.3819 50.473 51.3819 46.6956C51.3819 42.2356 49.0179 38.8583 44.4966 32.9023C40.2859 27.3583 37.8139 22.101 37.8139 22.101Z" fill="#231F20"/>
<path fill-rule="evenodd" clip-rule="evenodd" d="M96.7292 22.101C96.7292 22.101 94.2572 27.3583 90.0466 32.9023C85.5239 38.8583 83.1599 42.2356 83.1599 46.6956C83.1599 50.473 86.1159 52.9183 88.8946 52.9183C91.7319 52.9183 93.5759 51.8903 94.5399 48.2063C94.9332 46.7116 95.7679 47.0063 95.5479 48.6343C95.2852 50.557 95.2652 54.7396 92.1612 58.517H101.296C98.1906 54.7396 98.1719 50.557 97.9119 48.6343C97.6892 47.0063 98.5252 46.7116 98.9172 48.2063C99.8786 51.8903 101.727 52.9183 104.564 52.9183C107.344 52.9183 110.299 50.473 110.299 46.6956C110.299 42.2356 107.935 38.8583 103.409 32.9023C99.2012 27.3583 96.7292 22.101 96.7292 22.101Z" fill="#231F20"/>
<path fill-rule="evenodd" clip-rule="evenodd" d="M37.8139 83.6856C37.8139 83.6856 35.3406 88.9429 31.1326 94.4856C26.6086 100.442 24.2446 103.82 24.2446 108.279C24.2446 112.058 27.1992 114.503 29.9779 114.503C32.8166 114.503 34.6619 113.475 35.6246 109.791C36.0179 108.296 36.8526 108.592 36.6312 110.218C36.3699 112.142 36.3499 116.324 33.2446 120.103H42.3806C39.2779 116.324 39.2579 112.142 38.9952 110.218C38.7752 108.592 39.6086 108.296 40.0019 109.791C40.9659 113.475 42.8112 114.503 45.6459 114.503C48.4259 114.503 51.3819 112.058 51.3819 108.279C51.3819 103.82 49.0179 100.442 44.4966 94.4856C40.2859 88.9429 37.8139 83.6856 37.8139 83.6856Z" fill="#231F20"/>
<path fill-rule="evenodd" clip-rule="evenodd" d="M96.7292 83.6856C96.7292 83.6856 94.2572 88.9429 90.0466 94.4856C85.5239 100.442 83.1599 103.82 83.1599 108.279C83.1599 112.058 86.1159 114.503 88.8946 114.503C91.7319 114.503 93.5759 113.475 94.5399 109.791C94.9332 108.296 95.7679 108.592 95.5479 110.218C95.2852 112.142 95.2652 116.324 92.1612 120.103H101.296C98.1906 116.324 98.1719 112.142 97.9119 110.218C97.6892 108.592 98.5252 108.296 98.9172 109.791C99.8786 113.475 101.727 114.503 104.564 114.503C107.344 114.503 110.299 112.058 110.299 108.279C110.299 103.82 107.935 100.442 103.409 94.4856C99.2012 88.9429 96.7292 83.6856 96.7292 83.6856Z" fill="#231F20"/>
<path fill-rule="evenodd" clip-rule="evenodd" d="M96.7279 181.684C96.7279 181.684 99.1999 176.427 103.409 170.883C107.935 164.927 110.299 161.551 110.299 157.091C110.299 153.312 107.341 150.868 104.564 150.868C101.723 150.868 99.8786 151.896 98.9159 155.58C98.5252 157.074 97.6892 156.779 97.9119 155.151C98.1719 153.23 98.1906 149.047 101.296 145.27H92.1586C95.2652 149.047 95.2839 153.23 95.5479 155.151C95.7666 156.779 94.9332 157.074 94.5386 155.58C93.5759 151.896 91.7319 150.868 88.8932 150.868C86.1146 150.868 83.1599 153.312 83.1599 157.091C83.1599 161.551 85.5239 164.927 90.0466 170.883C94.2559 176.427 96.7279 181.684 96.7279 181.684Z" fill="#231F20"/>
<path fill-rule="evenodd" clip-rule="evenodd" d="M37.8126 181.684C37.8126 181.684 40.2846 176.427 44.4966 170.883C49.0179 164.927 51.3819 161.551 51.3819 157.091C51.3819 153.312 48.4259 150.868 45.6459 150.868C42.8086 150.868 40.9659 151.896 40.0019 155.58C39.6086 157.074 38.7739 156.779 38.9952 155.151C39.2566 153.23 39.2779 149.047 42.3806 145.27H33.2446C36.3499 149.047 36.3699 153.23 36.6286 155.151C36.8526 156.779 36.0179 157.074 35.6246 155.58C34.6619 151.896 32.8166 150.868 29.9779 150.868C27.1992 150.868 24.2446 153.312 24.2446 157.091C24.2446 161.551 26.6086 164.927 31.1326 170.883C35.3406 176.427 37.8126 181.684 37.8126 181.684Z" fill="#231F20"/>
<path fill-rule="evenodd" clip-rule="evenodd" d="M67.2721 52.8919C67.2721 52.8919 64.8001 58.1519 60.5895 63.6932C56.0668 69.6492 53.7015 73.0279 53.7015 77.4865C53.7015 81.2665 56.6575 83.7105 59.4388 83.7105C62.2761 83.7105 64.1175 82.6825 65.0828 78.9985C65.4761 77.5039 66.3095 77.7999 66.0895 79.4265C65.8281 81.3492 65.8081 85.5319 62.7041 89.3092H71.8401C68.7335 85.5319 68.7135 81.3492 68.4561 79.4265C68.2321 77.7999 69.0668 77.5039 69.4588 78.9985C70.4228 82.6825 72.2681 83.7105 75.1055 83.7105C77.8868 83.7105 80.8428 81.2665 80.8428 77.4865C80.8428 73.0279 78.4775 69.6492 73.9548 63.6932C69.7441 58.1519 67.2721 52.8919 67.2721 52.8919Z" fill="#231F20"/>
<path fill-rule="evenodd" clip-rule="evenodd" d="M67.2695 150.893C67.2695 150.893 69.7428 145.636 73.9548 140.092C78.4775 134.136 80.8428 130.759 80.8428 126.299C80.8428 122.52 77.8841 120.076 75.1041 120.076C72.2655 120.076 70.4228 121.104 69.4575 124.788C69.0668 126.283 68.2321 125.987 68.4548 124.359C68.7135 122.437 68.7335 118.255 71.8388 114.477H62.7015C65.8081 118.255 65.8268 122.437 66.0895 124.359C66.3081 125.987 65.4761 126.283 65.0815 124.788C64.1175 121.104 62.2748 120.076 59.4361 120.076C56.6575 120.076 53.7015 122.52 53.7015 126.299C53.7015 130.759 56.0668 134.136 60.5895 140.092C64.7975 145.636 67.2695 150.893 67.2695 150.893Z" fill="#231F20"/>
<path fill-rule="evenodd" clip-rule="evenodd" d="M12.1003 21.23C12.1003 21.23 7.57894 23.3033 8.12294 28.01C8.31494 29.6793 10.4309 33.4673 15.6336 33.4673C20.8403 33.4673 22.4336 29.722 22.7549 28.65C24.1789 23.834 18.7763 21.1313 18.7763 21.1313C20.8896 20.098 22.3309 17.79 22.2149 16.2166C21.8709 11.646 18.0856 10.27 15.3403 10.27C12.4989 10.262 8.56561 12.5806 8.76161 16.0686C8.95761 19.558 12.1003 21.23 12.1003 21.23ZM15.5363 12.5313C17.4523 12.5313 19.7603 14.006 19.7603 16.1673C19.7603 18.33 17.5016 19.558 15.3909 19.558C13.2776 19.558 11.0709 18.134 11.0709 16.1673C11.0709 14.202 12.8856 12.5313 15.5363 12.5313ZM15.5363 22.9993C18.5309 22.9993 20.4483 24.5206 20.4483 27.422C20.4483 30.0753 17.3029 31.1566 15.8323 31.1566C14.3589 31.1566 10.7749 30.222 10.7749 27.2246C10.7749 24.474 12.9349 22.9993 15.5363 22.9993" fill="#231F20"/>
<path fill-rule="evenodd" clip-rule="evenodd" d="M122.441 182.557C122.441 182.557 126.964 180.482 126.42 175.774C126.227 174.107 124.112 170.321 118.909 170.321C113.703 170.321 112.108 174.065 111.788 175.135C110.363 179.951 115.765 182.654 115.765 182.654C113.655 183.687 112.212 185.998 112.328 187.569C112.671 192.138 116.456 193.515 119.203 193.515C122.044 193.523 125.977 191.206 125.781 187.717C125.584 184.226 122.441 182.557 122.441 182.557ZM119.005 191.254C117.089 191.254 114.783 189.779 114.783 187.617C114.783 185.455 117.04 184.226 119.152 184.226C121.263 184.226 123.473 185.651 123.473 187.617C123.473 189.583 121.659 191.254 119.005 191.254V191.254ZM119.005 180.786C116.011 180.786 114.095 179.263 114.095 176.363C114.095 173.711 117.239 172.63 118.712 172.63C120.184 172.63 123.767 173.563 123.767 176.561C123.767 179.313 121.608 180.786 119.005 180.786" fill="#231F20"/>
<path d="M12.8489 54.2273C14.0583 53.0006 14.2569 50.6326 14.3209 50.0606C14.3876 49.49 14.2343 49.3646 14.1236 49.3433C14.0143 49.3206 13.8943 49.5166 13.8383 49.7873C13.5756 51.098 12.6129 51.6486 12.1476 51.7313C9.97558 52.1126 9.25425 50.6913 9.04892 50.314C7.93025 48.2433 10.4343 45.0206 10.8529 44.522C13.1969 41.7153 14.8489 38.686 14.8489 38.686C14.8489 38.686 16.5023 41.7153 18.8476 44.522C19.2649 45.0206 21.7663 48.2433 20.6489 50.314C20.4476 50.6913 19.7249 52.1126 17.5489 51.7313C17.0863 51.6486 16.1236 51.098 15.8596 49.7873C15.8063 49.5166 15.6823 49.3206 15.5729 49.3433C15.4636 49.3646 15.3116 49.49 15.3769 50.0606C15.4409 50.6326 15.6396 53.0006 16.8476 54.2273H12.8489Z" fill="#231F20"/>
<path d="M121.693 149.561C120.483 150.786 120.286 153.154 120.221 153.726C120.155 154.298 120.309 154.425 120.418 154.445C120.527 154.466 120.65 154.27 120.703 154.002C120.966 152.69 121.927 152.137 122.395 152.055C124.57 151.674 125.289 153.095 125.494 153.473C126.61 155.545 124.109 158.767 123.691 159.266C121.345 162.073 119.695 165.102 119.695 165.102C119.695 165.102 118.042 162.073 115.695 159.266C115.279 158.767 112.775 155.545 113.893 153.473C114.095 153.095 114.818 151.674 116.993 152.055C117.459 152.137 118.421 152.69 118.682 154.002C118.737 154.27 118.858 154.466 118.969 154.445C119.077 154.425 119.231 154.298 119.167 153.726C119.101 153.154 118.902 150.786 117.694 149.561H121.693Z" fill="#231F20"/>
<path d="M133.376 195.835C133.376 199.68 130.263 202.795 126.419 202.795" stroke="#EB008B" stroke-width="0.333333" stroke-miterlimit="2.613"/>
<path d="M126.419 202.794H8.12207" stroke="#EB008B" stroke-width="0.333333" stroke-miterlimit="2.613"/>
<path d="M8.12237 202.794C4.27971 202.794 1.16504 199.68 1.16504 195.834" stroke="#EB008B" stroke-width="0.333333" stroke-miterlimit="2.613"/>
<path d="M1.16534 195.835V7.95206" stroke="#EB008B" stroke-width="0.333333" stroke-miterlimit="2.613"/>
<path d="M1.16534 7.9519C1.16534 4.10924 4.28001 0.993238 8.12268 0.993238" stroke="#EB008B" stroke-width="0.333333" stroke-miterlimit="2.613"/>
<path d="M8.12244 0.99353H126.42" stroke="#EB008B" stroke-width="0.333333" stroke-miterlimit="2.613"/>
<path d="M126.419 0.993482C130.263 0.993482 133.377 4.10815 133.377 7.95215" stroke="#EB008B" stroke-width="0.333333" stroke-miterlimit="2.613"/>
<path d="M133.376 7.95194V195.835" stroke="#EB008B" stroke-width="0.333333" stroke-miterlimit="2.613"/>
</svg>
