<svg width="134" height="203" viewBox="0 0 134 203" fill="none" xmlns="http://www.w3.org/2000/svg">
<path d="M34.3724 57.8365C38.539 52.7405 37.6297 45.2645 37.6297 45.2645C37.007 48.7112 33.5404 50.7619 32.1204 50.9912C27.139 51.8179 24.7657 48.1565 24.455 47.5952C21.055 41.4779 26.015 37.6565 26.7564 37.2059C31.259 34.4392 34.899 37.5939 34.899 37.5939C35.5684 37.7392 35.187 36.9152 35.187 36.9152C31.4497 34.8765 31.267 31.4179 31.4017 30.2645C32.2644 23.3712 39.0444 23.5272 39.0444 23.5272C39.0444 23.5272 45.815 23.3712 46.6764 30.2645C46.811 31.4179 46.6284 34.8765 42.891 36.9152C42.891 36.9152 42.5097 37.7392 43.1777 37.5939C43.1777 37.5939 46.8204 34.4392 51.3244 37.2059C52.063 37.6565 57.0244 41.4779 53.623 47.5952C53.3097 48.1565 50.939 51.8179 45.9564 50.9912C44.5364 50.7619 41.0697 48.7112 40.4484 45.2645C40.4484 45.2645 39.5377 52.7405 43.707 57.8365H34.3724Z" fill="#231F20"/>
<path d="M90.009 57.8365C94.1757 52.7405 93.2664 45.2645 93.2664 45.2645C92.645 48.7112 89.177 50.7619 87.7584 50.9912C82.777 51.8179 80.4024 48.1565 80.093 47.5952C76.6917 41.4779 81.6517 37.6565 82.393 37.2059C86.897 34.4392 90.5357 37.5939 90.5357 37.5939C91.205 37.7392 90.8237 36.9152 90.8237 36.9152C87.0864 34.8765 86.905 31.4179 87.0397 30.2645C87.901 23.3712 94.681 23.5272 94.681 23.5272C94.681 23.5272 101.452 23.3712 102.314 30.2645C102.448 31.4179 102.264 34.8765 98.529 36.9152C98.529 36.9152 98.1464 37.7392 98.8144 37.5939C98.8144 37.5939 102.457 34.4392 106.962 37.2059C107.7 37.6565 112.661 41.4779 109.26 47.5952C108.946 48.1565 106.576 51.8179 101.594 50.9912C100.174 50.7619 96.7077 48.7112 96.0864 45.2645C96.0864 45.2645 95.1744 52.7405 99.3437 57.8365H90.009Z" fill="#231F20"/>
<path d="M34.3724 98.6367C38.539 93.5407 37.6297 86.0647 37.6297 86.0647C37.007 89.5127 33.5404 91.5621 32.1204 91.7927C27.139 92.6181 24.7657 88.9567 24.455 88.3954C21.055 82.2794 26.015 78.4567 26.7564 78.0061C31.259 75.2407 34.899 78.3954 34.899 78.3954C35.5684 78.5381 35.187 77.7154 35.187 77.7154C31.4497 75.6767 31.267 72.2181 31.4017 71.0661C32.2644 64.1714 39.0444 64.3274 39.0444 64.3274C39.0444 64.3274 45.815 64.1714 46.6764 71.0661C46.811 72.2181 46.6284 75.6767 42.891 77.7154C42.891 77.7154 42.5097 78.5381 43.1777 78.3954C43.1777 78.3954 46.8204 75.2407 51.3244 78.0061C52.063 78.4567 57.0244 82.2794 53.623 88.3954C53.3097 88.9567 50.939 92.6181 45.9564 91.7927C44.5364 91.5621 41.0697 89.5127 40.4484 86.0647C40.4484 86.0647 39.5377 93.5407 43.707 98.6367H34.3724Z" fill="#231F20"/>
<path d="M90.009 98.6367C94.1757 93.5407 93.2664 86.0647 93.2664 86.0647C92.645 89.5127 89.177 91.5621 87.7584 91.7927C82.777 92.6181 80.4024 88.9567 80.093 88.3954C76.6917 82.2794 81.6517 78.4567 82.393 78.0061C86.897 75.2407 90.5357 78.3954 90.5357 78.3954C91.205 78.5381 90.8237 77.7154 90.8237 77.7154C87.0864 75.6767 86.905 72.2181 87.0397 71.0661C87.901 64.1714 94.681 64.3274 94.681 64.3274C94.681 64.3274 101.452 64.1714 102.314 71.0661C102.448 72.2181 102.264 75.6767 98.529 77.7154C98.529 77.7154 98.1464 78.5381 98.8144 78.3954C98.8144 78.3954 102.457 75.2407 106.962 78.0061C107.7 78.4567 112.661 82.2794 109.26 88.3954C108.946 88.9567 106.576 92.6181 101.594 91.7927C100.174 91.5621 96.7077 89.5127 96.0864 86.0647C96.0864 86.0647 95.1744 93.5407 99.3437 98.6367H90.009Z" fill="#231F20"/>
<path d="M99.3412 145.926C95.1745 151.024 96.0852 158.498 96.0852 158.498C96.7065 155.052 100.176 153.001 101.596 152.772C106.577 151.946 108.949 155.608 109.26 156.169C112.661 162.286 107.7 166.108 106.961 166.56C102.457 169.322 98.8145 166.169 98.8145 166.169C98.1465 166.026 98.5305 166.849 98.5305 166.849C102.267 168.888 102.448 172.346 102.313 173.5C101.452 180.393 94.6719 180.237 94.6719 180.237C94.6719 180.237 87.8985 180.393 87.0399 173.5C86.9052 172.346 87.0865 168.888 90.8239 166.849C90.8239 166.849 91.2079 166.026 90.5359 166.169C90.5359 166.169 86.8972 169.322 82.3919 166.56C81.6519 166.108 76.6919 162.286 80.0905 156.169C80.4052 155.608 82.7772 151.946 87.7572 152.772C89.1772 153.001 92.6452 155.052 93.2665 158.498C93.2665 158.498 94.1759 151.024 90.0092 145.926H99.3412Z" fill="#231F20"/>
<path d="M43.7044 145.926C39.5377 151.024 40.4471 158.498 40.4471 158.498C41.0697 155.052 44.5391 153.001 45.9577 152.772C50.9391 151.946 53.3124 155.608 53.6217 156.169C57.0244 162.286 52.0631 166.108 51.3231 166.56C46.8204 169.322 43.1777 166.169 43.1777 166.169C42.5097 166.026 42.8924 166.849 42.8924 166.849C46.6297 168.888 46.8111 172.346 46.6764 173.5C45.8151 180.393 39.0351 180.237 39.0351 180.237C39.0351 180.237 32.2617 180.393 31.4017 173.5C31.2671 172.346 31.4497 168.888 35.1871 166.849C35.1871 166.849 35.5697 166.026 34.8991 166.169C34.8991 166.169 31.2591 169.322 26.7551 166.56C26.0151 166.108 21.0551 162.286 24.4551 156.169C24.7684 155.608 27.1391 151.946 32.1204 152.772C33.5404 153.001 37.0071 155.052 37.6297 158.498C37.6297 158.498 38.5391 151.024 34.3724 145.926H43.7044Z" fill="#231F20"/>
<path d="M99.3412 105.126C95.1745 110.224 96.0852 117.698 96.0852 117.698C96.7065 114.252 100.176 112.201 101.596 111.972C106.577 111.146 108.949 114.808 109.26 115.368C112.661 121.485 107.7 125.308 106.961 125.758C102.457 128.524 98.8145 125.369 98.8145 125.369C98.1465 125.225 98.5305 126.048 98.5305 126.048C102.267 128.086 102.448 131.545 102.313 132.698C101.452 139.592 94.6719 139.436 94.6719 139.436C94.6719 139.436 87.8985 139.592 87.0399 132.698C86.9052 131.545 87.0865 128.086 90.8239 126.048C90.8239 126.048 91.2079 125.225 90.5359 125.369C90.5359 125.369 86.8972 128.524 82.3919 125.758C81.6519 125.308 76.6919 121.485 80.0905 115.368C80.4052 114.808 82.7772 111.146 87.7572 111.972C89.1772 112.201 92.6452 114.252 93.2665 117.698C93.2665 117.698 94.1759 110.224 90.0092 105.126H99.3412Z" fill="#231F20"/>
<path d="M43.7044 105.126C39.5377 110.224 40.4471 117.698 40.4471 117.698C41.0697 114.252 44.5391 112.201 45.9577 111.972C50.9391 111.146 53.3124 114.808 53.6217 115.368C57.0244 121.485 52.0631 125.308 51.3231 125.758C46.8204 128.524 43.1777 125.369 43.1777 125.369C42.5097 125.225 42.8924 126.048 42.8924 126.048C46.6297 128.086 46.8111 131.545 46.6764 132.698C45.8151 139.592 39.0351 139.436 39.0351 139.436C39.0351 139.436 32.2617 139.592 31.4017 132.698C31.2671 131.545 31.4497 128.086 35.1871 126.048C35.1871 126.048 35.5697 125.225 34.8991 125.369C34.8991 125.369 31.2591 128.524 26.7551 125.758C26.0151 125.308 21.0551 121.485 24.4551 115.368C24.7684 114.808 27.1391 111.146 32.1204 111.972C33.5404 112.201 37.0071 114.252 37.6297 117.698C37.6297 117.698 38.5391 110.224 34.3724 105.126H43.7044Z" fill="#231F20"/>
<path d="M62.1914 119.036C66.3581 113.939 65.4487 106.464 65.4487 106.464C64.8274 109.911 61.3594 111.962 59.9394 112.191C54.9581 113.016 52.5834 109.356 52.2741 108.794C48.8727 102.678 53.8327 98.855 54.5741 98.4044C59.0767 95.6404 62.7181 98.7937 62.7181 98.7937C63.3861 98.9377 63.0047 98.115 63.0047 98.115C59.2674 96.0777 59.0861 92.6177 59.2207 91.4657C60.0834 84.571 66.8634 84.727 66.8634 84.727C66.8634 84.727 73.6341 84.571 74.4954 91.4657C74.6301 92.6177 74.4461 96.0777 70.7087 98.115C70.7087 98.115 70.3274 98.9377 70.9967 98.7937C70.9967 98.7937 74.6381 95.6404 79.1421 98.4044C79.8807 98.855 84.8434 102.678 81.4407 108.794C81.1274 109.356 78.7567 113.016 73.7754 112.191C72.3554 111.962 68.8887 109.911 68.2674 106.464C68.2674 106.464 67.3567 113.939 71.5261 119.036H62.1914Z" fill="#231F20"/>
<path fill-rule="evenodd" clip-rule="evenodd" d="M14.6809 10.3119C8.17294 10.6425 7.51961 17.3732 7.74361 19.1825C8.41027 24.5065 12.6529 26.1105 13.4703 26.2305C17.0369 26.7599 19.2263 24.7079 19.2263 24.7079C19.0596 30.7279 15.9969 31.2292 15.0729 31.2292C11.6263 31.2292 10.5743 28.6159 10.5743 28.6159L8.48094 29.9052C10.1103 32.1545 11.6009 33.0199 12.6196 33.2479C16.0209 34.0065 17.8436 32.8372 18.8036 32.1545C22.2743 29.6692 21.9836 21.0319 21.9423 19.6145C21.7449 12.3319 17.5529 10.3092 14.6809 10.3119ZM14.3863 12.7945C17.1343 12.7945 19.1276 14.9479 19.1276 18.3225C19.1276 21.6999 17.0369 23.8145 14.8769 23.8145C12.7169 23.8145 10.4276 21.7945 10.4276 18.4879C10.4276 14.9172 12.3596 12.7945 14.3863 12.7945" fill="#231F20"/>
<path fill-rule="evenodd" clip-rule="evenodd" d="M119.035 193.45C125.543 193.122 126.197 186.389 125.973 184.58C125.307 179.256 121.063 177.65 120.246 177.532C116.679 177.002 114.491 179.054 114.491 179.054C114.655 173.036 117.721 172.533 118.643 172.533C122.09 172.533 123.142 175.146 123.142 175.146L125.235 173.857C123.606 171.608 122.115 170.742 121.097 170.517C117.697 169.757 115.873 170.925 114.913 171.608C111.443 174.093 111.733 182.732 111.773 184.15C111.973 191.429 116.162 193.454 119.035 193.45ZM119.33 190.969C116.582 190.969 114.589 188.814 114.589 185.44C114.589 182.064 116.679 179.949 118.841 179.949C120.998 179.949 123.289 181.969 123.289 185.274C123.289 188.846 121.357 190.969 119.33 190.969" fill="#231F20"/>
<path d="M120.96 149.754C119.124 152.027 119.522 155.36 119.522 155.36C119.797 153.824 121.326 152.908 121.954 152.807C124.15 152.438 125.196 154.071 125.332 154.32C126.832 157.048 124.644 158.754 124.32 158.954C122.333 160.187 120.728 158.78 120.728 158.78C120.432 158.716 120.6 159.083 120.6 159.083C122.249 159.992 122.329 161.535 122.269 162.05C121.889 165.122 118.9 165.052 118.9 165.052C118.9 165.052 115.916 165.122 115.537 162.05C115.478 161.535 115.557 159.992 117.205 159.083C117.205 159.083 117.374 158.716 117.078 158.78C117.078 158.78 115.473 160.187 113.488 158.954C113.16 158.754 110.976 157.048 112.474 154.32C112.61 154.071 113.656 152.438 115.853 152.807C116.478 152.908 118.006 153.824 118.281 155.36C118.281 155.36 118.684 152.027 116.845 149.754H120.96Z" fill="#231F20"/>
<path d="M12.7565 54.0125C14.5939 51.7405 14.1925 48.4058 14.1925 48.4058C13.9192 49.9431 12.3885 50.8565 11.7645 50.9605C9.56721 51.3271 8.52054 49.6951 8.38587 49.4445C6.88454 46.7165 9.07254 45.0125 9.39787 44.8125C11.3845 43.5778 12.9885 44.9845 12.9885 44.9845C13.2845 45.0498 13.1165 44.6818 13.1165 44.6818C11.4685 43.7725 11.3872 42.2311 11.4472 41.7165C11.8285 38.6418 14.8179 38.7125 14.8179 38.7125C14.8179 38.7125 17.7992 38.6418 18.1805 41.7165C18.2405 42.2311 18.1592 43.7725 16.5125 44.6818C16.5125 44.6818 16.3419 45.0498 16.6392 44.9845C16.6392 44.9845 18.2432 43.5778 20.2285 44.8125C20.5565 45.0125 22.7419 46.7165 21.2419 49.4445C21.1059 49.6951 20.0605 51.3271 17.8645 50.9605C17.2405 50.8565 15.7099 49.9431 15.4352 48.4058C15.4352 48.4058 15.0339 51.7405 16.8725 54.0125H12.7565Z" fill="#231F20"/>
<path d="M132.927 195.771C132.927 199.609 129.814 202.724 125.972 202.724" stroke="#EB008B" stroke-width="0.333333" stroke-miterlimit="2.613"/>
<path d="M125.973 202.724H7.74332" stroke="#EB008B" stroke-width="0.333333" stroke-miterlimit="2.613"/>
<path d="M7.74342 202.724C3.90209 202.724 0.788757 199.609 0.788757 195.771" stroke="#EB008B" stroke-width="0.333333" stroke-miterlimit="2.613"/>
<path d="M0.789062 195.771V7.99475" stroke="#EB008B" stroke-width="0.333333" stroke-miterlimit="2.613"/>
<path d="M0.789062 7.99475C0.789062 4.15475 3.9024 1.04008 7.74373 1.04008" stroke="#EB008B" stroke-width="0.333333" stroke-miterlimit="2.613"/>
<path d="M7.74344 1.04041H125.973" stroke="#EB008B" stroke-width="0.333333" stroke-miterlimit="2.613"/>
<path d="M125.973 1.04033C129.814 1.04033 132.927 4.15366 132.927 7.995" stroke="#EB008B" stroke-width="0.333333" stroke-miterlimit="2.613"/>
<path d="M132.927 7.99475V195.771" stroke="#EB008B" stroke-width="0.333333" stroke-miterlimit="2.613"/>
</svg>
