<svg width="126" height="193" viewBox="0 0 126 193" fill="none" xmlns="http://www.w3.org/2000/svg">
<path fill-rule="evenodd" clip-rule="evenodd" d="M96.6081 32.4675C92.3054 26.6542 91.1521 21.7488 91.1521 21.7488C91.1521 21.7488 89.9988 26.6542 85.6948 32.4675C81.3934 38.2782 77.4094 39.8902 77.4094 39.8902C77.4094 39.8902 81.3934 41.4995 85.6948 47.3142C89.9988 53.1275 91.1521 58.0328 91.1521 58.0328C91.1521 58.0328 92.3054 53.1275 96.6081 47.3142C100.913 41.4995 104.895 39.8902 104.895 39.8902C104.895 39.8902 100.913 38.2782 96.6081 32.4675" fill="#EC1C24"/>
<path fill-rule="evenodd" clip-rule="evenodd" d="M40.5378 32.4675C36.2324 26.6542 35.0791 21.7488 35.0791 21.7488C35.0791 21.7488 33.9244 26.6542 29.6218 32.4675C25.3191 38.2782 21.3364 39.8902 21.3364 39.8902C21.3364 39.8902 25.3191 41.4995 29.6218 47.3142C33.9244 53.1275 35.0791 58.0328 35.0791 58.0328C35.0791 58.0328 36.2324 53.1275 40.5378 47.3142C44.8391 41.4995 48.8244 39.8902 48.8244 39.8902C48.8244 39.8902 44.8391 38.2782 40.5378 32.4675" fill="#EC1C24"/>
<path fill-rule="evenodd" clip-rule="evenodd" d="M96.6081 70.2891C92.3054 64.4758 91.1521 59.5704 91.1521 59.5704C91.1521 59.5704 89.9988 64.4758 85.6948 70.2891C81.3934 76.0998 77.4094 77.7104 77.4094 77.7104C77.4094 77.7104 81.3934 79.3224 85.6948 85.1344C89.9988 90.9478 91.1521 95.8531 91.1521 95.8531C91.1521 95.8531 92.3054 90.9478 96.6081 85.1344C100.913 79.3224 104.895 77.7104 104.895 77.7104C104.895 77.7104 100.913 76.0998 96.6081 70.2891" fill="#EC1C24"/>
<path fill-rule="evenodd" clip-rule="evenodd" d="M40.5378 70.2891C36.2324 64.4758 35.0791 59.5704 35.0791 59.5704C35.0791 59.5704 33.9244 64.4758 29.6218 70.2891C25.3191 76.0998 21.3364 77.7104 21.3364 77.7104C21.3364 77.7104 25.3191 79.3224 29.6218 85.1344C33.9244 90.9478 35.0791 95.8531 35.0791 95.8531C35.0791 95.8531 36.2324 90.9478 40.5378 85.1344C44.8391 79.3224 48.8244 77.7104 48.8244 77.7104C48.8244 77.7104 44.8391 76.0998 40.5378 70.2891" fill="#EC1C24"/>
<path fill-rule="evenodd" clip-rule="evenodd" d="M96.6081 108.109C92.3054 102.297 91.1521 97.392 91.1521 97.392C91.1521 97.392 89.9988 102.297 85.6948 108.109C81.3934 113.921 77.4094 115.533 77.4094 115.533C77.4094 115.533 81.3934 117.143 85.6948 122.957C89.9988 128.769 91.1521 133.675 91.1521 133.675C91.1521 133.675 92.3054 128.769 96.6081 122.957C100.913 117.143 104.895 115.533 104.895 115.533C104.895 115.533 100.913 113.921 96.6081 108.109" fill="#EC1C24"/>
<path fill-rule="evenodd" clip-rule="evenodd" d="M40.5378 108.109C36.2324 102.297 35.0791 97.392 35.0791 97.392C35.0791 97.392 33.9244 102.297 29.6218 108.109C25.3191 113.921 21.3364 115.533 21.3364 115.533C21.3364 115.533 25.3191 117.143 29.6218 122.957C33.9244 128.769 35.0791 133.675 35.0791 133.675C35.0791 133.675 36.2324 128.769 40.5378 122.957C44.8391 117.143 48.8244 115.533 48.8244 115.533C48.8244 115.533 44.8391 113.921 40.5378 108.109" fill="#EC1C24"/>
<path fill-rule="evenodd" clip-rule="evenodd" d="M96.6081 145.931C92.3054 140.119 91.1521 135.214 91.1521 135.214C91.1521 135.214 89.9988 140.119 85.6948 145.931C81.3934 151.746 77.4094 153.355 77.4094 153.355C77.4094 153.355 81.3934 154.966 85.6948 160.779C89.9988 166.594 91.1521 171.498 91.1521 171.498C91.1521 171.498 92.3054 166.594 96.6081 160.779C100.913 154.966 104.895 153.355 104.895 153.355C104.895 153.355 100.913 151.746 96.6081 145.931" fill="#EC1C24"/>
<path fill-rule="evenodd" clip-rule="evenodd" d="M40.5378 145.931C36.2324 140.119 35.0791 135.214 35.0791 135.214C35.0791 135.214 33.9244 140.119 29.6218 145.931C25.3191 151.746 21.3364 153.355 21.3364 153.355C21.3364 153.355 25.3191 154.966 29.6218 160.779C33.9244 166.594 35.0791 171.498 35.0791 171.498C35.0791 171.498 36.2324 166.594 40.5378 160.779C44.8391 154.966 48.8244 153.355 48.8244 153.355C48.8244 153.355 44.8391 151.746 40.5378 145.931" fill="#EC1C24"/>
<path fill-rule="evenodd" clip-rule="evenodd" d="M68.5743 89.1992C64.2703 83.3859 63.1156 78.4806 63.1156 78.4806C63.1156 78.4806 61.9623 83.3859 57.6596 89.1992C53.3569 95.0099 49.3743 96.6192 49.3743 96.6192C49.3743 96.6192 53.3569 98.2326 57.6596 104.046C61.9623 109.858 63.1156 114.762 63.1156 114.762C63.1156 114.762 64.2703 109.858 68.5743 104.046C72.8769 98.2326 76.8596 96.6192 76.8596 96.6192C76.8596 96.6192 72.8769 95.0099 68.5743 89.1992" fill="#EC1C24"/>
<path fill-rule="evenodd" clip-rule="evenodd" d="M13.6237 9.76431C7.45173 10.0776 6.83306 16.463 7.04373 18.1803C7.67573 23.2296 11.7024 24.751 12.4757 24.8656C15.8597 25.3656 17.9357 23.4216 17.9357 23.4216C17.7784 29.1296 14.8744 29.607 13.9971 29.607C10.7277 29.607 9.72906 27.1256 9.72906 27.1256L7.74373 28.3496C9.2904 30.4856 10.7051 31.3043 11.6704 31.5203C14.8957 32.2403 16.6251 31.131 17.5357 30.4856C20.8264 28.1256 20.5504 19.9323 20.5131 18.587C20.3251 11.6803 16.3504 9.76298 13.6237 9.76431ZM13.3451 12.1203C15.9517 12.1203 17.8424 14.163 17.8424 17.3643C17.8424 20.567 15.8597 22.5723 13.8117 22.5723C11.7624 22.5723 9.5904 20.6576 9.5904 17.519C9.5904 14.1336 11.4237 12.1203 13.3451 12.1203" fill="#EC1C24"/>
<path fill-rule="evenodd" clip-rule="evenodd" d="M112.609 183.481C118.781 183.169 119.401 176.782 119.189 175.065C118.557 170.015 114.531 168.495 113.757 168.381C110.375 167.881 108.297 169.826 108.297 169.826C108.455 164.118 111.36 163.638 112.237 163.638C115.505 163.638 116.504 166.119 116.504 166.119L118.491 164.897C116.943 162.762 115.528 161.941 114.564 161.727C111.337 161.007 109.609 162.115 108.699 162.762C105.407 165.119 105.683 173.313 105.72 174.658C105.909 181.565 109.883 183.485 112.609 183.481ZM112.888 181.126C110.281 181.126 108.391 179.085 108.391 175.882C108.391 172.679 110.375 170.675 112.423 170.675C114.471 170.675 116.643 172.587 116.643 175.727C116.643 179.114 114.809 181.126 112.888 181.126" fill="#EC1C24"/>
<path d="M13.8607 36.7038C13.8607 36.7038 15.7527 42.6811 20.1273 45.0931C20.1273 45.0931 15.8113 47.3104 13.8607 53.4144C11.91 47.3104 7.59399 45.0931 7.59399 45.0931C11.97 42.6811 13.8607 36.7038 13.8607 36.7038Z" fill="#EC1C24"/>
<path d="M112.371 156.542C112.371 156.542 110.48 150.569 106.106 148.154C106.106 148.154 110.422 145.94 112.371 139.832C114.323 145.94 118.64 148.154 118.64 148.154C114.263 150.569 112.371 156.542 112.371 156.542Z" fill="#EC1C24"/>
<path d="M125.785 185.68C125.785 189.322 122.833 192.273 119.189 192.273" stroke="#EB008B" stroke-width="0.333333" stroke-miterlimit="2.613"/>
<path d="M119.189 192.273H7.0448" stroke="#EB008B" stroke-width="0.333333" stroke-miterlimit="2.613"/>
<path d="M7.04424 192.273C3.40024 192.273 0.448242 189.323 0.448242 185.68" stroke="#EB008B" stroke-width="0.333333" stroke-miterlimit="2.613"/>
<path d="M0.447876 185.68V7.56774" stroke="#EB008B" stroke-width="0.333333" stroke-miterlimit="2.613"/>
<path d="M0.447876 7.56775C0.447876 3.92375 3.39988 0.970416 7.04388 0.970416" stroke="#EB008B" stroke-width="0.333333" stroke-miterlimit="2.613"/>
<path d="M7.04419 0.970703H119.188" stroke="#EB008B" stroke-width="0.333333" stroke-miterlimit="2.613"/>
<path d="M119.189 0.970721C122.833 0.970721 125.785 3.92272 125.785 7.56805" stroke="#EB008B" stroke-width="0.333333" stroke-miterlimit="2.613"/>
<path d="M125.785 7.56768V185.68" stroke="#EB008B" stroke-width="0.333333" stroke-miterlimit="2.613"/>
</svg>
