<svg width="135" height="205" viewBox="0 0 135 205" fill="none" xmlns="http://www.w3.org/2000/svg">
<path d="M38.3422 30.2285C38.8369 30.2285 38.7889 29.8845 38.9382 28.5565C39.0849 27.2285 40.6862 23.6218 45.3356 24.0298C47.3849 24.2005 52.3262 26.8845 51.6342 32.9338C51.3689 35.2512 50.8916 36.9685 47.8649 41.5925C47.4036 42.2952 42.3609 49.9578 38.3422 56.4512C34.3262 49.9578 29.2729 42.2952 28.8142 41.5925C25.7876 36.9685 25.3129 35.2512 25.0409 32.9338C24.3476 26.8845 29.2942 24.2005 31.3422 24.0298C35.9942 23.6218 37.5929 27.2285 37.7409 28.5565C37.8902 29.8845 37.8449 30.2285 38.3422 30.2285Z" fill="#EC1C24"/>
<path d="M96.8828 30.2285C97.3761 30.2285 97.3294 29.8845 97.4788 28.5565C97.6268 27.2285 99.2268 23.6218 103.877 24.0298C105.925 24.2005 110.868 26.8845 110.176 32.9338C109.909 35.2512 109.433 36.9685 106.407 41.5925C105.944 42.2952 100.901 49.9578 96.8828 56.4512C92.8668 49.9578 87.8148 42.2952 87.3561 41.5925C84.3294 36.9685 83.8521 35.2512 83.5814 32.9338C82.8881 26.8845 87.8348 24.2005 89.8828 24.0298C94.5348 23.6218 96.1334 27.2285 96.2814 28.5565C96.4321 29.8845 96.3854 30.2285 96.8828 30.2285Z" fill="#EC1C24"/>
<path d="M38.3422 71.7449C38.8369 71.7449 38.7889 71.4009 38.9382 70.0742C39.0849 68.7449 40.6862 65.1382 45.3356 65.5475C47.3849 65.7195 52.3262 68.4009 51.6342 74.4502C51.3689 76.7675 50.8916 78.4862 47.8649 83.1102C47.4036 83.8129 42.3609 91.4742 38.3422 97.9675C34.3262 91.4742 29.2729 83.8129 28.8142 83.1102C25.7876 78.4862 25.3129 76.7675 25.0409 74.4502C24.3476 68.4009 29.2942 65.7195 31.3422 65.5475C35.9942 65.1382 37.5929 68.7449 37.7409 70.0742C37.8902 71.4009 37.8449 71.7449 38.3422 71.7449Z" fill="#EC1C24"/>
<path d="M96.8828 71.7449C97.3761 71.7449 97.3294 71.4009 97.4788 70.0742C97.6268 68.7449 99.2268 65.1382 103.877 65.5475C105.925 65.7195 110.868 68.4009 110.176 74.4502C109.909 76.7675 109.433 78.4862 106.407 83.1102C105.944 83.8129 100.901 91.4742 96.8828 97.9675C92.8668 91.4742 87.8148 83.8129 87.3561 83.1102C84.3294 78.4862 83.8521 76.7675 83.5814 74.4502C82.8881 68.4009 87.8348 65.7195 89.8828 65.5475C94.5348 65.1382 96.1334 68.7449 96.2814 70.0742C96.4321 71.4009 96.3854 71.7449 96.8828 71.7449Z" fill="#EC1C24"/>
<path d="M96.8737 174.802C96.3791 174.802 96.4271 175.146 96.2791 176.473C96.1311 177.802 94.5297 181.406 89.8804 180.999C87.8297 180.829 82.8884 178.146 83.5817 172.097C83.8471 169.778 84.3244 168.062 87.3511 163.437C87.8124 162.734 92.8551 155.073 96.8737 148.579C100.89 155.073 105.943 162.734 106.4 163.437C109.427 168.062 109.903 169.778 110.176 172.097C110.868 178.146 105.922 180.829 103.872 180.999C99.2231 181.406 97.6217 177.802 97.4751 176.473C97.3244 175.146 97.3724 174.802 96.8737 174.802Z" fill="#EC1C24"/>
<path d="M38.3332 174.802C37.8385 174.802 37.8852 175.146 37.7372 176.473C37.5905 177.802 35.9892 181.406 31.3385 180.999C29.2905 180.829 24.3479 178.146 25.0412 172.097C25.3065 169.778 25.7839 168.062 28.8092 163.437C29.2719 162.734 34.3145 155.073 38.3332 148.579C42.3479 155.073 47.4012 162.734 47.8612 163.437C50.8865 168.062 51.3625 169.778 51.6345 172.097C52.3265 178.146 47.3799 180.829 45.3319 180.999C40.6812 181.406 39.0812 177.802 38.9345 176.473C38.7839 175.146 38.8292 174.802 38.3332 174.802Z" fill="#EC1C24"/>
<path d="M96.8737 133.285C96.3791 133.285 96.4271 133.628 96.2791 134.956C96.1311 136.285 94.5297 139.891 89.8804 139.483C87.8297 139.312 82.8884 136.629 83.5817 130.579C83.8471 128.261 84.3244 126.544 87.3511 121.92C87.8124 121.217 92.8551 113.556 96.8737 107.063C100.89 113.556 105.943 121.217 106.4 121.92C109.427 126.544 109.903 128.261 110.176 130.579C110.868 136.629 105.922 139.312 103.872 139.483C99.2231 139.891 97.6217 136.285 97.4751 134.956C97.3244 133.628 97.3724 133.285 96.8737 133.285Z" fill="#EC1C24"/>
<path d="M38.3332 133.285C37.8385 133.285 37.8852 133.628 37.7372 134.956C37.5905 136.285 35.9892 139.891 31.3385 139.483C29.2905 139.312 24.3479 136.629 25.0412 130.579C25.3065 128.261 25.7839 126.544 28.8092 121.92C29.2719 121.217 34.3145 113.556 38.3332 107.063C42.3479 113.556 47.4012 121.217 47.8612 121.92C50.8865 126.544 51.3625 128.261 51.6345 130.579C52.3265 136.629 47.3799 139.312 45.3319 139.483C40.6812 139.891 39.0812 136.285 38.9345 134.956C38.7839 133.628 38.8292 133.285 38.3332 133.285Z" fill="#EC1C24"/>
<path d="M67.612 92.5039C68.1054 92.5039 68.0587 92.1586 68.208 90.8332C68.356 89.5026 69.9574 85.8972 74.6067 86.3052C76.656 86.4759 81.5974 89.1599 80.9054 95.2079C80.6387 97.5266 80.1627 99.2426 77.136 103.868C76.6747 104.571 71.632 112.232 67.612 118.725C63.5974 112.232 58.544 104.571 58.0854 103.868C55.0587 99.2426 54.584 97.5266 54.3107 95.2079C53.6174 89.1599 58.564 86.4759 60.6134 86.3052C65.264 85.8972 66.864 89.5026 67.0107 90.8332C67.1614 92.1586 67.1147 92.5039 67.612 92.5039Z" fill="#EC1C24"/>
<path fill-rule="evenodd" clip-rule="evenodd" d="M15.112 10.3855C8.56398 10.7175 7.90798 17.4909 8.13198 19.3109C8.80265 24.6669 13.0733 26.2802 13.8933 26.4015C17.4813 26.9335 19.6866 24.8695 19.6866 24.8695C19.52 30.9255 16.4346 31.4322 15.5066 31.4322C12.0373 31.4322 10.98 28.8002 10.98 28.8002L8.87198 30.0975C10.5146 32.3615 12.0133 33.2322 13.0386 33.4615C16.4613 34.2255 18.2946 33.0482 19.2573 32.3615C22.7506 29.8602 22.4586 21.1695 22.4186 19.7442C22.22 12.4175 18.004 10.3829 15.112 10.3855ZM14.8146 12.8829C17.5826 12.8829 19.5853 15.0495 19.5853 18.4455C19.5853 21.8415 17.4813 23.9709 15.3093 23.9709C13.1373 23.9709 10.832 21.9389 10.832 18.6109C10.832 15.0189 12.776 12.8829 14.8146 12.8829" fill="#EC1C24"/>
<path fill-rule="evenodd" clip-rule="evenodd" d="M120.105 194.645C126.652 194.315 127.308 187.541 127.084 185.722C126.413 180.363 122.143 178.75 121.323 178.627C117.736 178.099 115.531 180.162 115.531 180.162C115.697 174.105 118.78 173.599 119.709 173.599C123.177 173.599 124.236 176.231 124.236 176.231L126.344 174.933C124.701 172.67 123.2 171.798 122.179 171.57C118.755 170.806 116.921 171.982 115.957 172.67C112.465 175.171 112.757 183.861 112.797 185.286C112.999 192.613 117.212 194.649 120.105 194.645ZM120.401 192.149C117.636 192.149 115.632 189.982 115.632 186.585C115.632 183.189 117.736 181.061 119.908 181.061C122.079 181.061 124.384 183.093 124.384 186.419C124.384 190.014 122.439 192.149 120.401 192.149" fill="#EC1C24"/>
<path d="M15.1276 41.9025C15.365 41.9025 15.3396 41.7371 15.4116 41.1078C15.4823 40.4771 16.2383 38.7638 18.4396 38.9585C19.413 39.0398 21.7556 40.3145 21.4263 43.1865C21.2996 44.2851 21.0716 45.1011 19.6396 47.2971C19.4223 47.6291 17.033 51.2678 15.1276 54.3518C13.2263 51.2678 10.8343 47.6291 10.617 47.2971C9.18362 45.1011 8.95696 44.2851 8.83029 43.1865C8.50096 40.3145 10.8436 39.0398 11.8143 38.9585C14.017 38.7638 14.7743 40.4771 14.845 41.1078C14.9156 41.7371 14.893 41.9025 15.1276 41.9025Z" fill="#EC1C24"/>
<path d="M120.086 163.133C119.851 163.133 119.877 163.293 119.805 163.925C119.734 164.554 118.975 166.269 116.774 166.073C115.803 165.994 113.462 164.718 113.79 161.846C113.918 160.746 114.143 159.93 115.577 157.734C115.794 157.401 118.183 153.766 120.086 150.68C121.989 153.766 124.379 157.401 124.599 157.734C126.033 159.93 126.259 160.746 126.387 161.846C126.714 164.718 124.373 165.994 123.401 166.073C121.199 166.269 120.443 164.554 120.371 163.925C120.301 163.293 120.321 163.133 120.086 163.133Z" fill="#EC1C24"/>
<path d="M134.082 196.977C134.082 200.843 130.947 203.974 127.084 203.974" stroke="#EB008B" stroke-width="0.333333" stroke-miterlimit="2.613"/>
<path d="M127.085 203.974H8.13135" stroke="#EB008B" stroke-width="0.333333" stroke-miterlimit="2.613"/>
<path d="M8.1315 203.974C4.2675 203.974 1.1355 200.843 1.1355 196.977" stroke="#EB008B" stroke-width="0.333333" stroke-miterlimit="2.613"/>
<path d="M1.1355 196.977V8.05389" stroke="#EB008B" stroke-width="0.333333" stroke-miterlimit="2.613"/>
<path d="M1.1355 8.05408C1.1355 4.18874 4.2675 1.05674 8.1315 1.05674" stroke="#EB008B" stroke-width="0.333333" stroke-miterlimit="2.613"/>
<path d="M8.13135 1.05676H127.085" stroke="#EB008B" stroke-width="0.333333" stroke-miterlimit="2.613"/>
<path d="M127.084 1.05674C130.947 1.05674 134.082 4.18874 134.082 8.05408" stroke="#EB008B" stroke-width="0.333333" stroke-miterlimit="2.613"/>
<path d="M134.082 8.05401V196.977" stroke="#EB008B" stroke-width="0.333333" stroke-miterlimit="2.613"/>
</svg>
