<svg width="134" height="203" viewBox="0 0 134 203" fill="none" xmlns="http://www.w3.org/2000/svg">
<path fill-rule="evenodd" clip-rule="evenodd" d="M37.3268 22.101C37.3268 22.101 34.8548 27.3583 30.6454 32.9023C26.1214 38.8583 23.7574 42.2356 23.7574 46.6956C23.7574 50.473 26.7134 52.9183 29.4934 52.9183C32.3321 52.9183 34.1748 51.8903 35.1374 48.2063C35.5321 46.7116 36.3668 47.0063 36.1454 48.6343C35.8841 50.557 35.8641 54.7396 32.7588 58.517H41.8948C38.7921 54.7396 38.7708 50.557 38.5094 48.6343C38.2894 47.0063 39.1241 46.7116 39.5161 48.2063C40.4788 51.8903 42.3254 52.9183 45.1614 52.9183C47.9401 52.9183 50.8961 50.473 50.8961 46.6956C50.8961 42.2356 48.5321 38.8583 44.0094 32.9023C39.8001 27.3583 37.3268 22.101 37.3268 22.101Z" fill="#231F20"/>
<path fill-rule="evenodd" clip-rule="evenodd" d="M66.7877 83.6856C66.7877 83.6856 64.3144 88.9429 60.1064 94.4856C55.5824 100.442 53.2184 103.82 53.2184 108.279C53.2184 112.058 56.1731 114.503 58.9517 114.503C61.7904 114.503 63.6357 113.472 64.5984 109.791C64.9917 108.295 65.825 108.591 65.605 110.218C65.3437 112.142 65.325 116.324 62.2184 120.103H71.3557C68.2517 116.324 68.2317 112.142 67.969 110.218C67.749 108.591 68.5837 108.295 68.9757 109.791C69.9397 113.472 71.7864 114.503 74.621 114.503C77.3997 114.503 80.3557 112.058 80.3557 108.279C80.3557 103.82 77.9917 100.442 73.4704 94.4856C69.2597 88.9429 66.7877 83.6856 66.7877 83.6856Z" fill="#231F20"/>
<path fill-rule="evenodd" clip-rule="evenodd" d="M96.2434 22.101C96.2434 22.101 93.7714 27.3583 89.5594 32.9023C85.0381 38.8583 82.6754 42.2356 82.6754 46.6956C82.6754 50.473 85.6301 52.9183 88.4101 52.9183C91.2474 52.9183 93.0901 51.8903 94.0541 48.2063C94.4474 46.7116 95.2821 47.0063 95.0607 48.6343C94.7981 50.557 94.7781 54.7396 91.6754 58.517H100.811C97.7061 54.7396 97.6861 50.557 97.4274 48.6343C97.2047 47.0063 98.0394 46.7116 98.4314 48.2063C99.3954 51.8903 101.239 52.9183 104.077 52.9183C106.858 52.9183 109.814 50.473 109.814 46.6956C109.814 42.2356 107.447 38.8583 102.925 32.9023C98.7154 27.3583 96.2434 22.101 96.2434 22.101Z" fill="#231F20"/>
<path fill-rule="evenodd" clip-rule="evenodd" d="M37.3268 63.1576C37.3268 63.1576 34.8548 68.4163 30.6454 73.9576C26.1214 79.915 23.7574 83.2923 23.7574 87.751C23.7574 91.531 26.7134 93.975 29.4934 93.975C32.3321 93.975 34.1748 92.9483 35.1374 89.2643C35.5321 87.7683 36.3668 88.0643 36.1454 89.691C35.8841 91.6136 35.8641 95.7976 32.7588 99.575H41.8948C38.7921 95.7976 38.7708 91.6136 38.5094 89.691C38.2894 88.0643 39.1241 87.7683 39.5161 89.2643C40.4788 92.9483 42.3254 93.975 45.1614 93.975C47.9401 93.975 50.8961 91.531 50.8961 87.751C50.8961 83.2923 48.5321 79.915 44.0094 73.9576C39.8001 68.4163 37.3268 63.1576 37.3268 63.1576Z" fill="#231F20"/>
<path fill-rule="evenodd" clip-rule="evenodd" d="M96.2434 63.1576C96.2434 63.1576 93.7714 68.4163 89.5594 73.9576C85.0381 79.915 82.6754 83.2923 82.6754 87.751C82.6754 91.531 85.6301 93.975 88.4101 93.975C91.2474 93.975 93.0901 92.9483 94.0541 89.2643C94.4474 87.7683 95.2821 88.0643 95.0607 89.691C94.7981 91.6136 94.7781 95.7976 91.6754 99.575H100.811C97.7061 95.7976 97.6861 91.6136 97.4274 89.691C97.2047 88.0643 98.0394 87.7683 98.4314 89.2643C99.3954 92.9483 101.239 93.975 104.077 93.975C106.858 93.975 109.814 91.531 109.814 87.751C109.814 83.2923 107.447 79.915 102.925 73.9576C98.7154 68.4163 96.2434 63.1576 96.2434 63.1576Z" fill="#231F20"/>
<path fill-rule="evenodd" clip-rule="evenodd" d="M96.2434 181.684C96.2434 181.684 98.7154 176.427 102.925 170.883C107.449 164.927 109.815 161.551 109.815 157.091C109.815 153.312 106.858 150.868 104.077 150.868C101.239 150.868 99.3967 151.896 98.4314 155.58C98.0407 157.074 97.2074 156.779 97.4274 155.151C97.6887 153.23 97.7061 149.047 100.811 145.27H91.6754C94.7794 149.047 94.7981 153.23 95.0621 155.151C95.2821 156.779 94.4487 157.074 94.0541 155.58C93.0927 151.896 91.2474 150.868 88.4101 150.868C85.6301 150.868 82.6754 153.312 82.6754 157.091C82.6754 161.551 85.0381 164.927 89.5607 170.883C93.7714 176.427 96.2434 181.684 96.2434 181.684Z" fill="#231F20"/>
<path fill-rule="evenodd" clip-rule="evenodd" d="M37.3268 181.684C37.3268 181.684 39.8001 176.427 44.0121 170.883C48.5321 164.927 50.8961 161.551 50.8961 157.091C50.8961 153.312 47.9415 150.868 45.1641 150.868C42.3255 150.868 40.4801 151.896 39.5161 155.58C39.1255 157.074 38.2895 156.779 38.5121 155.151C38.7708 153.23 38.7935 149.047 41.8961 145.27H32.7615C35.8668 149.047 35.8841 153.23 36.1455 155.151C36.3668 156.779 35.5335 157.074 35.1388 155.58C34.1775 151.896 32.3321 150.868 29.4961 150.868C26.7148 150.868 23.7588 153.312 23.7588 157.091C23.7588 161.551 26.1241 164.927 30.6481 170.883C34.8548 176.427 37.3268 181.684 37.3268 181.684Z" fill="#231F20"/>
<path fill-rule="evenodd" clip-rule="evenodd" d="M96.2434 140.629C96.2434 140.629 98.7154 135.372 102.925 129.829C107.449 123.873 109.815 120.494 109.815 116.037C109.815 112.258 106.858 109.813 104.077 109.813C101.239 109.813 99.3967 110.842 98.4314 114.525C98.0407 116.02 97.2074 115.725 97.4274 114.097C97.6887 112.176 97.7061 107.99 100.811 104.214H91.6754C94.7794 107.99 94.7981 112.176 95.0621 114.097C95.2821 115.725 94.4487 116.02 94.0541 114.525C93.0927 110.842 91.2474 109.813 88.4101 109.813C85.6301 109.813 82.6754 112.258 82.6754 116.037C82.6754 120.494 85.0381 123.873 89.5607 129.829C93.7714 135.372 96.2434 140.629 96.2434 140.629Z" fill="#231F20"/>
<path fill-rule="evenodd" clip-rule="evenodd" d="M37.3268 140.629C37.3268 140.629 39.8001 135.372 44.0121 129.829C48.5321 123.873 50.8961 120.494 50.8961 116.037C50.8961 112.258 47.9415 109.813 45.1641 109.813C42.3255 109.813 40.4801 110.842 39.5161 114.525C39.1255 116.02 38.2895 115.725 38.5121 114.097C38.7708 112.176 38.7935 107.99 41.8961 104.214H32.7615C35.8668 107.99 35.8841 112.176 36.1455 114.097C36.3668 115.725 35.5335 116.02 35.1388 114.525C34.1775 110.842 32.3321 109.813 29.4961 109.813C26.7148 109.813 23.7588 112.258 23.7588 116.037C23.7588 120.494 26.1241 123.873 30.6481 129.829C34.8548 135.372 37.3268 140.629 37.3268 140.629Z" fill="#231F20"/>
<path fill-rule="evenodd" clip-rule="evenodd" d="M14.5795 10.2701C8.06881 10.6008 7.41548 17.3368 7.63814 19.1461C8.30614 24.4728 12.5515 26.0768 13.3688 26.1981C16.9395 26.7274 19.1301 24.6754 19.1301 24.6754C18.9608 30.6968 15.8968 31.1994 14.9728 31.1994C11.5248 31.1994 10.4701 28.5834 10.4701 28.5834L8.37548 29.8754C10.0088 32.1261 11.4981 32.9914 12.5181 33.2181C15.9208 33.9781 17.7435 32.8088 18.7048 32.1261C22.1768 29.6381 21.8861 20.9954 21.8461 19.5768C21.6461 12.2901 17.4528 10.2674 14.5795 10.2701ZM14.2848 12.7541C17.0341 12.7541 19.0288 14.9088 19.0288 18.2861C19.0288 21.6634 16.9395 23.7808 14.7755 23.7808C12.6155 23.7808 10.3248 21.7608 10.3248 18.4514C10.3248 14.8781 12.2568 12.7541 14.2848 12.7541" fill="#231F20"/>
<path fill-rule="evenodd" clip-rule="evenodd" d="M118.993 193.516C125.504 193.188 126.159 186.448 125.933 184.641C125.268 179.313 121.021 177.708 120.205 177.586C116.635 177.061 114.444 179.11 114.444 179.11C114.611 173.088 117.676 172.585 118.6 172.585C122.049 172.585 123.103 175.202 123.103 175.202L125.197 173.91C123.565 171.66 122.075 170.794 121.056 170.569C117.652 169.808 115.831 170.977 114.868 171.66C111.397 174.149 111.687 182.79 111.725 184.208C111.927 191.494 116.12 193.518 118.993 193.516ZM119.288 191.033C116.54 191.033 114.545 188.877 114.545 185.5C114.545 182.124 116.635 180.005 118.799 180.005C120.959 180.005 123.249 182.026 123.249 185.336C123.249 188.909 121.316 191.033 119.288 191.033" fill="#231F20"/>
<path d="M12.3672 54.2273C13.5739 53.0006 13.7725 50.6326 13.8379 50.0606C13.9032 49.49 13.7512 49.3646 13.6392 49.3433C13.5299 49.3206 13.4072 49.5166 13.3525 49.7873C13.0925 51.098 12.1285 51.6486 11.6632 51.7313C9.48987 52.1126 8.76987 50.6913 8.56587 50.314C7.44587 48.2433 9.94987 45.0206 10.3685 44.522C12.7112 41.7153 14.3619 38.686 14.3619 38.686C14.3619 38.686 16.0179 41.7153 18.3619 44.522C18.7792 45.0206 21.2845 48.2433 20.1645 50.314C19.9619 50.6913 19.2419 52.1126 17.0659 51.7313C16.5992 51.6486 15.6379 51.098 15.3752 49.7873C15.3219 49.5166 15.1979 49.3206 15.0899 49.3433C14.9792 49.3646 14.8272 49.49 14.8912 50.0606C14.9552 50.6326 15.1552 53.0006 16.3632 54.2273H12.3672Z" fill="#231F20"/>
<path d="M121.207 149.561C119.999 150.786 119.8 153.154 119.735 153.726C119.668 154.298 119.823 154.425 119.934 154.445C120.042 154.466 120.166 154.27 120.22 154.002C120.482 152.69 121.443 152.137 121.91 152.055C124.086 151.674 124.804 153.095 125.008 153.473C126.126 155.545 123.622 158.767 123.206 159.266C120.858 162.073 119.21 165.102 119.21 165.102C119.21 165.102 117.559 162.073 115.212 159.266C114.795 158.767 112.29 155.545 113.408 153.473C113.612 153.095 114.332 151.674 116.508 152.055C116.974 152.137 117.935 152.69 118.198 154.002C118.252 154.27 118.374 154.466 118.483 154.445C118.592 154.425 118.747 154.298 118.682 153.726C118.616 153.154 118.418 150.786 117.211 149.561H121.207Z" fill="#231F20"/>
<path d="M132.893 195.835C132.893 199.68 129.78 202.795 125.933 202.795" stroke="#EB008B" stroke-width="0.333333" stroke-miterlimit="2.613"/>
<path d="M125.934 202.794H7.63763" stroke="#EB008B" stroke-width="0.333333" stroke-miterlimit="2.613"/>
<path d="M7.638 202.794C3.79266 202.794 0.680664 199.68 0.680664 195.834" stroke="#EB008B" stroke-width="0.333333" stroke-miterlimit="2.613"/>
<path d="M0.680969 195.835V7.95206" stroke="#EB008B" stroke-width="0.333333" stroke-miterlimit="2.613"/>
<path d="M0.680969 7.9519C0.680969 4.10924 3.79297 0.993238 7.6383 0.993238" stroke="#EB008B" stroke-width="0.333333" stroke-miterlimit="2.613"/>
<path d="M7.638 0.99353H125.934" stroke="#EB008B" stroke-width="0.333333" stroke-miterlimit="2.613"/>
<path d="M125.934 0.993482C129.78 0.993482 132.894 4.10815 132.894 7.95215" stroke="#EB008B" stroke-width="0.333333" stroke-miterlimit="2.613"/>
<path d="M132.893 7.95194V195.835" stroke="#EB008B" stroke-width="0.333333" stroke-miterlimit="2.613"/>
</svg>
