<svg width="134" height="203" viewBox="0 0 134 203" fill="none" xmlns="http://www.w3.org/2000/svg">
<path fill-rule="evenodd" clip-rule="evenodd" d="M8.07748 32.9101H14.5188V30.4421H12.5015L13.2162 26.9808H18.2242L18.9402 30.4421H17.1855V32.9235H23.4948V30.3768H21.8695L17.3148 9.7408H14.1922L9.63882 30.3141H8.07748V32.9101ZM15.7508 14.3235L17.8148 24.4915H13.7495L15.7508 14.3235Z" fill="#231F20"/>
<path fill-rule="evenodd" clip-rule="evenodd" d="M126.306 169.71L119.865 169.711V172.179H121.882L121.169 175.64H116.161L115.445 172.179H117.198V169.698H110.89V172.243H112.515L117.069 192.88H120.191L124.746 172.308H126.306V169.71ZM118.634 188.299L116.569 178.128H120.634L118.634 188.299Z" fill="#231F20"/>
<path d="M121.294 149.184C119.456 151.456 119.856 154.791 119.856 154.791C120.131 153.255 121.66 152.339 122.287 152.236C124.483 151.867 125.528 153.502 125.666 153.751C127.166 156.479 124.978 158.183 124.652 158.384C122.667 159.618 121.062 158.211 121.062 158.211C120.766 158.147 120.935 158.515 120.935 158.515C122.582 159.423 122.663 160.966 122.603 161.48C122.223 164.554 119.234 164.483 119.234 164.483C119.234 164.483 116.25 164.554 115.871 161.48C115.811 160.966 115.891 159.423 117.539 158.515C117.539 158.515 117.708 158.147 117.411 158.211C117.411 158.211 115.806 159.618 113.822 158.384C113.495 158.183 111.307 156.479 112.807 153.751C112.944 153.502 113.99 151.867 116.187 152.236C116.811 152.339 118.34 153.255 118.616 154.791C118.616 154.791 119.016 151.456 117.179 149.184H121.294Z" fill="#231F20"/>
<path d="M13.0912 53.4415C14.9285 51.1695 14.5272 47.8349 14.5272 47.8349C14.2539 49.3722 12.7245 50.2855 12.0979 50.3895C9.90188 50.7562 8.85655 49.1242 8.71921 48.8735C7.21921 46.1455 9.40588 44.4415 9.73254 44.2415C11.7179 43.0069 13.3232 44.4135 13.3232 44.4135C13.6192 44.4789 13.4499 44.1109 13.4499 44.1109C11.8032 43.2015 11.7219 41.6602 11.7819 41.1455C12.1619 38.0709 15.1512 38.1415 15.1512 38.1415C15.1512 38.1415 18.1352 38.0709 18.5152 41.1455C18.5752 41.6602 18.4939 43.2015 16.8472 44.1109C16.8472 44.1109 16.6765 44.4789 16.9739 44.4135C16.9739 44.4135 18.5779 43.0069 20.5632 44.2415C20.8899 44.4415 23.0779 46.1455 21.5779 48.8735C21.4405 49.1242 20.3952 50.7562 18.1992 50.3895C17.5739 50.2855 16.0432 49.3722 15.7699 47.8349C15.7699 47.8349 15.3685 51.1695 17.2059 53.4415H13.0912Z" fill="#231F20"/>
<path d="M133.261 195.199C133.261 199.041 130.148 202.154 126.306 202.154" stroke="#EB008B" stroke-width="0.333333" stroke-miterlimit="2.613"/>
<path d="M8.0768 202.154C4.2368 202.154 1.12213 199.04 1.12213 195.199" stroke="#EB008B" stroke-width="0.333333" stroke-miterlimit="2.613"/>
<path d="M1.12241 195.199V7.42321" stroke="#EB008B" stroke-width="0.333333" stroke-miterlimit="2.613"/>
<path d="M1.12241 7.42383C1.12241 3.58249 4.23574 0.469162 8.07707 0.469162" stroke="#EB008B" stroke-width="0.333333" stroke-miterlimit="2.613"/>
<path d="M8.07681 0.469482H126.306" stroke="#EB008B" stroke-width="0.333333" stroke-miterlimit="2.613"/>
<path d="M126.307 0.469528C130.147 0.469528 133.261 3.58153 133.261 7.42419" stroke="#EB008B" stroke-width="0.333333" stroke-miterlimit="2.613"/>
<path d="M133.261 7.42383V195.2" stroke="#EB008B" stroke-width="0.333333" stroke-miterlimit="2.613"/>
<path d="M56.4844 134.102C65.2337 123.402 63.3271 107.706 63.3271 107.706C62.0177 114.944 54.7337 119.249 51.7524 119.729C41.2951 121.462 36.3124 113.776 35.6617 112.6C28.5191 99.7543 38.9391 91.729 40.4911 90.785C49.9444 84.9783 57.5911 91.6023 57.5911 91.6023C58.9964 91.9063 58.1911 90.177 58.1911 90.177C50.3444 85.8943 49.9631 78.6343 50.2471 76.213C52.0537 61.7383 66.2897 62.0663 66.2897 62.0663C66.2897 62.0663 80.5111 61.7383 82.3151 76.213C82.6004 78.6343 82.2177 85.8943 74.3697 90.177C74.3697 90.177 73.5657 91.9063 74.9751 91.6023C74.9751 91.6023 82.6151 84.9783 92.0724 90.785C93.6257 91.729 104.043 99.7543 96.9017 112.6C96.2444 113.776 91.2644 121.462 80.8084 119.729C77.8271 119.249 70.5471 114.944 69.2417 107.706C69.2417 107.706 67.3311 123.402 76.0804 134.102H56.4844Z" fill="#231F20"/>
<path d="M126.306 202.154H8.078" stroke="#EB008B" stroke-width="0.333333" stroke-miterlimit="2.613"/>
</svg>
