<svg width="127" height="193" viewBox="0 0 127 193" fill="none" xmlns="http://www.w3.org/2000/svg">
<path fill-rule="evenodd" clip-rule="evenodd" d="M7.62109 31.6926L13.7304 31.6913V29.3513H11.8171L12.4944 26.0686H17.2451L17.9238 29.3513H16.2598V31.7046H22.2438V29.2899H20.7024L16.3824 9.71392H13.4211L9.10109 29.2286H7.62109V31.6926ZM14.8984 14.0606L16.8571 23.7059H13.0011L14.8984 14.0606Z" fill="#EC1C24"/>
<path fill-rule="evenodd" clip-rule="evenodd" d="M119.764 161.452H113.655V163.793H115.567L114.891 167.077H110.14L109.462 163.793H111.126V161.441H105.142V163.855H106.683L111.002 183.429H113.964L118.284 163.917H119.764V161.452ZM112.487 179.084L110.528 169.437H114.384L112.487 179.084Z" fill="#EC1C24"/>
<path d="M14.4382 36.6529C14.4382 36.6529 16.3275 42.6303 20.7048 45.0423C20.7048 45.0423 16.3888 47.2583 14.4382 53.3649C12.4875 47.2583 8.17017 45.0423 8.17017 45.0423C12.5462 42.6303 14.4382 36.6529 14.4382 36.6529Z" fill="#EC1C24"/>
<path d="M112.947 156.492C112.947 156.492 111.057 150.516 106.681 148.102C106.681 148.102 110.996 145.886 112.947 139.781C114.899 145.886 119.216 148.102 119.216 148.102C114.839 150.516 112.947 156.492 112.947 156.492Z" fill="#EC1C24"/>
<path d="M64.2709 128.949C64.2709 128.949 56.9509 105.793 39.9922 96.4446C39.9922 96.4446 56.7122 87.8566 64.2709 64.1939C71.8349 87.8566 88.5642 96.4446 88.5642 96.4446C71.6055 105.793 64.2709 128.949 64.2709 128.949Z" fill="#EC1C24"/>
<path d="M126.362 185.627C126.362 189.271 123.407 192.223 119.765 192.223" stroke="#EB008B" stroke-width="0.333333" stroke-miterlimit="2.613"/>
<path d="M119.765 192.223H7.61963" stroke="#EB008B" stroke-width="0.333333" stroke-miterlimit="2.613"/>
<path d="M7.61968 192.223C3.97701 192.223 1.02368 189.271 1.02368 185.627" stroke="#EB008B" stroke-width="0.333333" stroke-miterlimit="2.613"/>
<path d="M1.02344 185.627V7.51629" stroke="#EB008B" stroke-width="0.333333" stroke-miterlimit="2.613"/>
<path d="M1.02344 7.5163C1.02344 3.8723 3.97677 0.918964 7.61944 0.918964" stroke="#EB008B" stroke-width="0.333333" stroke-miterlimit="2.613"/>
<path d="M8.20508 0.919373H120.35" stroke="#EB008B" stroke-width="0.333333" stroke-miterlimit="2.613"/>
<path d="M119.765 0.919391C123.408 0.919391 126.362 3.87272 126.362 7.51672" stroke="#EB008B" stroke-width="0.333333" stroke-miterlimit="2.613"/>
<path d="M126.362 7.51629V185.627" stroke="#EB008B" stroke-width="0.333333" stroke-miterlimit="2.613"/>
</svg>
