<svg width="134" height="205" viewBox="0 0 134 205" fill="none" xmlns="http://www.w3.org/2000/svg">
<path fill-rule="evenodd" clip-rule="evenodd" d="M7.65283 33.6535L14.1328 33.6522V31.1695H12.1035L12.8222 27.6882H17.8608L18.5822 31.1695H16.8168V33.6655H23.1648V31.1042H21.5288L16.9462 10.3415H13.8035L9.2235 31.0402H7.65283V33.6535ZM15.3728 14.9522L17.4488 25.1815H13.3595L15.3728 14.9522Z" fill="#EC1C24"/>
<path fill-rule="evenodd" clip-rule="evenodd" d="M126.605 171.289L120.125 171.29V173.774H122.153L121.437 177.257H116.397L115.677 173.774H117.441V171.278H111.095V173.838H112.729L117.311 194.601H120.453L125.034 173.904H126.605V171.289ZM118.886 189.993L116.809 179.76H120.898L118.886 189.993Z" fill="#EC1C24"/>
<path d="M14.6511 41.8587C14.8857 41.8587 14.8644 41.6933 14.9324 41.064C15.0031 40.4333 15.7617 38.72 17.9631 38.9147C18.9337 38.996 21.2777 40.2707 20.9484 43.1427C20.8204 44.2413 20.5951 45.0573 19.1617 47.2533C18.9444 47.5853 16.5537 51.224 14.6511 54.308C12.7484 51.224 10.3577 47.5853 10.1391 47.2533C8.70574 45.0573 8.47908 44.2413 8.35374 43.1427C8.02441 40.2707 10.3657 38.996 11.3364 38.9147C13.5377 38.72 14.2964 40.4333 14.3671 41.064C14.4377 41.6933 14.4164 41.8587 14.6511 41.8587Z" fill="#EC1C24"/>
<path d="M119.605 163.089C119.372 163.089 119.395 163.25 119.325 163.881C119.255 164.511 118.496 166.225 116.295 166.03C115.323 165.95 112.981 164.675 113.309 161.803C113.437 160.702 113.663 159.886 115.096 157.691C115.315 157.358 117.703 153.722 119.605 150.637C121.508 153.722 123.9 157.358 124.119 157.691C125.552 159.886 125.779 160.702 125.905 161.803C126.233 164.675 123.892 165.95 122.921 166.03C120.719 166.225 119.961 164.511 119.891 163.881C119.82 163.25 119.841 163.089 119.605 163.089Z" fill="#EC1C24"/>
<path d="M133.602 196.934C133.602 200.8 130.47 203.931 126.605 203.931" stroke="#EB008B" stroke-width="0.333333" stroke-miterlimit="2.613"/>
<path d="M126.605 203.931H7.65283" stroke="#EB008B" stroke-width="0.333333" stroke-miterlimit="2.613"/>
<path d="M7.65285 203.931C3.78752 203.931 0.655518 200.8 0.655518 196.934" stroke="#EB008B" stroke-width="0.333333" stroke-miterlimit="2.613"/>
<path d="M0.655518 196.934V8.01092" stroke="#EB008B" stroke-width="0.333333" stroke-miterlimit="2.613"/>
<path d="M0.655518 8.0105C0.655518 4.14516 3.78752 1.01316 7.65285 1.01316" stroke="#EB008B" stroke-width="0.333333" stroke-miterlimit="2.613"/>
<path d="M7.65283 1.01318H126.605" stroke="#EB008B" stroke-width="0.333333" stroke-miterlimit="2.613"/>
<path d="M126.605 1.01316C130.47 1.01316 133.602 4.14516 133.602 8.0105" stroke="#EB008B" stroke-width="0.333333" stroke-miterlimit="2.613"/>
<path d="M133.602 8.01043V196.933" stroke="#EB008B" stroke-width="0.333333" stroke-miterlimit="2.613"/>
<path d="M67.1386 79.4056C68.28 79.4056 68.1693 78.6109 68.5146 75.5469C68.8533 72.4829 72.5466 64.1616 83.2786 65.1016C88.0066 65.4963 99.4146 71.6883 97.8106 85.6483C97.2 90.9949 96.0986 94.9589 89.116 105.631C88.048 107.252 76.4106 124.934 67.1386 139.916C57.8706 124.934 46.216 107.252 45.1546 105.631C38.1706 94.9589 37.0693 90.9949 36.4466 85.6483C34.844 71.6883 46.26 65.4963 50.988 65.1016C61.7213 64.1616 65.4146 72.4829 65.752 75.5469C66.1013 78.6109 65.9933 79.4056 67.1386 79.4056Z" fill="#EC1C24"/>
</svg>
