<svg width="134" height="203" viewBox="0 0 134 203" fill="none" xmlns="http://www.w3.org/2000/svg">
<path fill-rule="evenodd" clip-rule="evenodd" d="M64.8744 55.0971C64.8744 55.0971 58.8997 67.7998 48.7317 81.1931C37.8024 95.5798 32.0931 103.738 32.0931 114.51C32.0931 123.637 39.2317 129.542 45.9464 129.542C52.8037 129.542 57.2544 127.057 59.5864 118.162C60.5344 114.548 62.5531 115.261 62.0144 119.196C61.3864 123.841 61.3357 133.942 53.8384 143.069H75.9064C68.4064 133.942 68.3597 123.841 67.7304 119.196C67.1931 115.261 69.2077 114.548 70.1557 118.162C72.4864 127.057 76.9397 129.542 83.7971 129.542C90.5117 129.542 97.6491 123.637 97.6491 114.51C97.6491 103.738 91.9397 95.5798 81.0117 81.1931C70.8424 67.7998 64.8744 55.0971 64.8744 55.0971Z" fill="#231F20"/>
<path fill-rule="evenodd" clip-rule="evenodd" d="M8.04498 33.1173L14.489 33.1159V30.6479H12.4716L13.1836 27.1853H18.197L18.913 30.6479H17.157V33.1306H23.469V30.5826H21.8436L17.2877 9.93328H14.1623L9.60632 30.5186H8.04498V33.1173ZM15.7223 14.5186L17.7877 24.6933H13.7196L15.7223 14.5186Z" fill="#231F20"/>
<path fill-rule="evenodd" clip-rule="evenodd" d="M126.341 169.996L119.897 169.997V172.466H121.914L121.201 175.929H116.189L115.473 172.466H117.227V169.984H110.917V172.529H112.542L117.098 193.178H120.222L124.779 172.596H126.341V169.996ZM118.663 188.594L116.598 178.418H120.666L118.663 188.594Z" fill="#231F20"/>
<path d="M133.299 195.498C133.299 199.342 130.185 202.457 126.341 202.457" stroke="#EB008B" stroke-width="0.333333" stroke-miterlimit="2.613"/>
<path d="M126.341 202.457H8.04523" stroke="#EB008B" stroke-width="0.333333" stroke-miterlimit="2.613"/>
<path d="M8.04496 202.457C4.20229 202.457 1.08496 199.342 1.08496 195.498" stroke="#EB008B" stroke-width="0.333333" stroke-miterlimit="2.613"/>
<path d="M1.08533 195.498V7.61539" stroke="#EB008B" stroke-width="0.333333" stroke-miterlimit="2.613"/>
<path d="M1.08533 7.61523C1.08533 3.77257 4.20133 0.656568 8.04533 0.656568" stroke="#EB008B" stroke-width="0.333333" stroke-miterlimit="2.613"/>
<path d="M8.04498 0.656982H126.341" stroke="#EB008B" stroke-width="0.333333" stroke-miterlimit="2.613"/>
<path d="M126.341 0.656935C130.184 0.656935 133.3 3.7716 133.3 7.6156" stroke="#EB008B" stroke-width="0.333333" stroke-miterlimit="2.613"/>
<path d="M133.299 7.61527V195.498" stroke="#EB008B" stroke-width="0.333333" stroke-miterlimit="2.613"/>
<path d="M13.8164 53.8907C15.0244 52.6641 15.2204 50.2961 15.2884 49.7241C15.3538 49.1534 15.2004 49.0281 15.0898 49.0067C14.9791 48.9841 14.8578 49.1801 14.8044 49.4507C14.5418 50.7614 13.5791 51.3121 13.1124 51.3947C10.9391 51.7761 10.2191 50.3547 10.0151 49.9774C8.89509 47.9067 11.3991 44.6841 11.8178 44.1854C14.1618 41.3787 15.8138 38.3494 15.8138 38.3494C15.8138 38.3494 17.4684 41.3787 19.8124 44.1854C20.2298 44.6841 22.7324 47.9067 21.6138 49.9774C21.4124 50.3547 20.6911 51.7761 18.5164 51.3947C18.0498 51.3121 17.0884 50.7614 16.8244 49.4507C16.7711 49.1801 16.6484 48.9841 16.5391 49.0067C16.4284 49.0281 16.2751 49.1534 16.3404 49.7241C16.4058 50.2961 16.6044 52.6641 17.8138 53.8907H13.8164Z" fill="#231F20"/>
<path d="M120.569 149.224C119.36 150.449 119.162 152.817 119.097 153.389C119.03 153.961 119.185 154.088 119.296 154.108C119.404 154.129 119.528 153.933 119.581 153.665C119.844 152.353 120.805 151.8 121.272 151.719C123.446 151.337 124.165 152.759 124.369 153.136C125.489 155.208 122.984 158.431 122.569 158.929C120.222 161.736 118.57 164.765 118.57 164.765C118.57 164.765 116.92 161.736 114.572 158.929C114.157 158.431 111.653 155.208 112.772 153.136C112.973 152.759 113.693 151.337 115.869 151.719C116.336 151.8 117.297 152.353 117.56 153.665C117.613 153.933 117.736 154.129 117.846 154.108C117.954 154.088 118.11 153.961 118.044 153.389C117.978 152.817 117.78 150.449 116.572 149.224H120.569Z" fill="#231F20"/>
</svg>
