<svg width="134" height="203" viewBox="0 0 134 203" fill="none" xmlns="http://www.w3.org/2000/svg">
<path d="M121.492 149.831C119.655 152.104 120.055 155.437 120.055 155.437C120.329 153.901 121.859 152.987 122.485 152.883C124.683 152.515 125.727 154.148 125.864 154.399C127.364 157.127 125.176 158.831 124.851 159.031C122.865 160.265 121.259 158.859 121.259 158.859C120.964 158.795 121.132 159.161 121.132 159.161C122.78 160.071 122.861 161.612 122.801 162.128C122.421 165.2 119.432 165.131 119.432 165.131C119.432 165.131 116.448 165.2 116.068 162.128C116.009 161.612 116.088 160.071 117.737 159.161C117.737 159.161 117.907 158.795 117.609 158.859C117.609 158.859 116.004 160.265 114.02 159.031C113.692 158.831 111.507 157.127 113.005 154.399C113.143 154.148 114.187 152.515 116.385 152.883C117.011 152.987 118.539 153.901 118.813 155.437C118.813 155.437 119.215 152.104 117.377 149.831H121.492Z" fill="#231F20"/>
<path d="M13.2891 54.0885C15.1277 51.8165 14.7251 48.4818 14.7251 48.4818C14.4517 50.0178 12.9211 50.9325 12.2957 51.0365C10.1011 51.4032 9.05441 49.7712 8.91708 49.5205C7.41708 46.7912 9.60508 45.0885 9.93174 44.8885C11.9171 43.6538 13.5224 45.0605 13.5224 45.0605C13.8171 45.1258 13.6491 44.7578 13.6491 44.7578C12.0011 43.8485 11.9197 42.3072 11.9797 41.7925C12.3611 38.7192 15.3491 38.7885 15.3491 38.7885C15.3491 38.7885 18.3331 38.7192 18.7131 41.7925C18.7731 42.3072 18.6931 43.8485 17.0451 44.7578C17.0451 44.7578 16.8731 45.1258 17.1717 45.0605C17.1717 45.0605 18.7771 43.6538 20.7611 44.8885C21.0891 45.0885 23.2757 46.7912 21.7744 49.5205C21.6384 49.7712 20.5944 51.4032 18.3971 51.0365C17.7731 50.9325 16.2424 50.0178 15.9677 48.4818C15.9677 48.4818 15.5664 51.8165 17.4051 54.0885H13.2891Z" fill="#231F20"/>
<path d="M14.1979 10.388V13.0013H17.5072V27.8173C17.5072 28.2733 17.4112 28.972 17.0392 29.5306C16.7406 29.98 16.2659 30.3386 15.5206 30.408C14.7712 30.476 12.8952 30.708 12.3739 28.704C12.2086 28.0706 12.2446 26.5813 12.2446 26.5813H9.4899C9.4899 26.5813 9.48057 28.7493 9.66723 29.5266C9.99257 30.8853 11.5459 33.1306 15.0806 33.1306C16.3272 33.1306 19.6552 32.5826 20.0966 28.7893C20.2832 27.1719 20.2086 13.0013 20.2086 13.0013H23.0272V10.388H14.1979Z" fill="#231F20"/>
<path d="M122.083 193.527V190.914H118.773V176.097C118.773 175.641 118.87 174.943 119.241 174.383C119.541 173.935 120.015 173.577 120.759 173.506C121.51 173.437 123.383 173.206 123.906 175.211C124.07 175.843 124.035 177.333 124.035 177.333H126.791C126.791 177.333 126.799 175.165 126.613 174.389C126.287 173.027 124.735 170.783 121.201 170.783C119.953 170.783 116.625 171.33 116.185 175.126C115.998 176.741 116.073 190.914 116.073 190.914H113.253V193.527H122.083Z" fill="#231F20"/>
<path fill-rule="evenodd" clip-rule="evenodd" d="M47.3672 154.073L46.7312 161.87C46.7312 161.87 45.1432 154.825 44.3499 154.181C43.5565 153.537 41.4392 155.204 41.0672 152.245C40.6979 149.289 44.0859 149.934 44.3499 150.149C44.3499 150.149 47.3672 151.977 47.3672 154.073Z" fill="#DA4534"/>
<path fill-rule="evenodd" clip-rule="evenodd" d="M49.306 145.308C48.1514 147.583 47.4207 150.247 47.3154 153.482C47.3154 153.482 45.462 146.438 44.774 146.115C44.086 145.792 42.7087 145.9 42.4447 145.954C42.1794 146.007 40.7834 145.151 41.09 143.598C41.3954 142.044 43.0994 140.58 43.3194 140.58C43.3194 140.58 47.0634 140.834 47.6927 142.51C48.322 144.188 49.11 145.308 49.306 145.308Z" fill="#DA4534"/>
<path fill-rule="evenodd" clip-rule="evenodd" d="M48.138 147.995C48.138 147.995 44.4847 140.935 43.5473 140.703Z" fill="#034EA1"/>
<path fill-rule="evenodd" clip-rule="evenodd" d="M87.414 49.836L88.05 42.0386C88.05 42.0386 89.6367 49.0826 90.4313 49.7266C91.2233 50.372 93.3433 48.7053 93.714 51.6626C94.0833 54.62 90.6967 53.9746 90.4313 53.76C90.4313 53.76 87.414 51.932 87.414 49.836Z" fill="#DA4534"/>
<path fill-rule="evenodd" clip-rule="evenodd" d="M85.4765 58.6002C86.6312 56.3256 87.3605 53.6602 87.4659 50.4269C87.4659 50.4269 89.3205 57.4696 90.0072 57.7922C90.6965 58.1149 92.0725 58.0082 92.3379 57.9549C92.6019 57.9002 93.9979 58.7576 93.6912 60.3109C93.3872 61.8642 91.6819 63.3282 91.4632 63.3282C91.4632 63.3282 87.7192 63.0749 87.0885 61.3989C86.4579 59.7189 85.6712 58.6002 85.4765 58.6002Z" fill="#DA4534"/>
<path fill-rule="evenodd" clip-rule="evenodd" d="M40.1849 177.337C40.1849 177.337 37.6489 174.052 37.0249 171.888C36.3996 169.724 34.4903 165.169 34.4903 165.169C34.4903 165.169 33.7916 164.237 35.2609 164.161C36.7303 164.086 43.1609 165.469 44.5209 169.909L44.0449 170.432C44.0449 170.432 42.5383 164.984 35.1516 164.87C35.1516 164.87 37.8516 172.317 38.1636 172.97C38.4769 173.622 39.9276 176.814 40.8463 176.741C41.7663 176.666 40.1849 177.337 40.1849 177.337Z" fill="#020300"/>
<path fill-rule="evenodd" clip-rule="evenodd" d="M40.8464 176.741L44.0437 170.433C44.0437 170.433 42.5384 164.985 35.1517 164.872C35.1517 164.872 37.8517 172.318 38.1637 172.97C38.4771 173.622 39.9277 176.816 40.8464 176.741Z" fill="#DA4534"/>
<path fill-rule="evenodd" clip-rule="evenodd" d="M42.0027 174.49C42.0027 174.49 40.7693 173.54 40.632 173.459C40.492 173.379 41.5653 172.995 41.5653 172.995C41.5653 172.995 40.4733 172.026 39.8147 171.946C39.16 171.864 40.0547 171.44 40.1747 171.38C40.2947 171.319 38.8627 170.268 38.6627 170.17C38.4653 170.068 38.7627 169.684 39.12 169.684C39.4787 169.684 38.7827 169.198 38.2653 168.976C37.7493 168.755 37.6293 168.554 37.5307 168.532C37.432 168.514 37.5107 168.028 37.9867 168.07C38.4653 168.11 37.432 167.523 37.0733 167.422C36.7147 167.322 36.496 167.06 37.232 167.06C37.968 167.06 36.7747 166.171 37.5107 166.292C38.2467 166.412 38.484 166.028 38.5253 166.755C38.5627 167.484 38.9813 167.342 39.4387 167.422C39.896 167.503 39.7173 169.159 39.7373 169.482C39.756 169.804 40.5133 169.744 40.7907 169.482C41.0693 169.219 41.148 169.643 41.228 170.491C41.308 171.339 41.964 170.814 42.1813 170.632C42.4013 170.451 42.48 171.038 42.48 171.542C42.48 172.046 43.1827 172.115 43.3413 172.031C43.5013 171.954 42.0027 174.49 42.0027 174.49Z" fill="#034EA1"/>
<path fill-rule="evenodd" clip-rule="evenodd" d="M31.7421 59.4401V161.055L23.8515 161.091V51.6201L31.7421 59.4401ZM32.2061 161.523V59.2427L23.3875 50.5041V161.563L32.2061 161.523Z" fill="#034EA1"/>
<path fill-rule="evenodd" clip-rule="evenodd" d="M111 152.448L104.544 146.032V42.8506L111.015 42.8545V152.447L111 152.448Z" fill="#231F20"/>
<path fill-rule="evenodd" clip-rule="evenodd" d="M49.2721 145.204L47.5961 142.354L50.4868 142.992L49.2721 145.204Z" fill="#DA4534"/>
<path fill-rule="evenodd" clip-rule="evenodd" d="M86.4297 121.497V148.317L70.1577 138.908L61.9577 132.735L49.4271 142.745C49.4271 142.745 42.1191 140.451 36.5657 136.503C36.5657 136.503 38.0217 128.536 36.0804 127.409L39.7577 124.941L32.8177 108.124V76.3614C32.8177 76.3614 34.3231 84.0107 50.7004 85.0587C50.7004 85.0587 62.6537 87.9067 69.8817 100.195C69.8817 100.195 73.6951 113.953 88.7431 116.051L86.4297 121.497Z" fill="#231F20"/>
<path fill-rule="evenodd" clip-rule="evenodd" d="M30.237 57.9478L31.7423 59.4398V161.055L30.237 161.062V57.9478Z" fill="#DA4534"/>
<path fill-rule="evenodd" clip-rule="evenodd" d="M50.2383 143.521C50.2383 143.521 42.4796 141.359 36.1983 136.734C36.1983 136.734 32.6636 139.445 31.4089 139.127C30.1529 138.807 28.9756 138.967 28.9756 138.967C28.9756 138.967 26.9329 138.727 27.7983 136.894C28.6609 135.059 30.4676 134.981 31.0169 134.901C31.5649 134.821 31.5649 127.405 31.5649 127.405C31.5649 127.405 33.5289 126.209 35.8836 127.165L38.3183 125.411L36.8263 125.171L37.4543 124.135L35.8049 123.658L36.5916 122.701L35.2556 122.221L36.2756 121.026L34.3609 120.599L35.4423 119.245L34.1703 119.114L35.1236 117.823L33.5983 117.693L34.4249 116.401L33.1543 116.143L33.7889 115.174L32.8343 114.786L33.4703 113.753L32.0703 113.625L32.8983 112.719L31.9436 112.397L32.4529 111.427L31.9569 110.445V71.3741C31.9569 71.3741 42.2769 82.7701 46.0103 90.9368C46.0103 90.9368 57.7863 92.1034 61.8089 100.857L52.1569 106.763C52.1569 106.763 56.4903 126.91 53.2663 140.439C53.1956 140.735 50.3903 143.269 50.2383 143.521Z" fill="#034EA1"/>
<path fill-rule="evenodd" clip-rule="evenodd" d="M94.9584 121.957C95.3837 122.557 96.7557 124.644 96.7557 124.644C96.7557 124.644 96.7664 124.638 96.7917 124.63C100.252 129.01 102.79 130.944 102.79 130.944V140.104L85.9757 148.338V121.24L94.9584 121.957Z" fill="#034EA1"/>
<path fill-rule="evenodd" clip-rule="evenodd" d="M99.5208 165.335L98.8794 166.065C100.815 167.132 102.133 169.195 102.133 171.553C102.133 175.001 99.3208 177.815 95.8728 177.815C92.4248 177.815 89.6114 175.001 89.6114 171.553C89.6114 169.164 90.9608 167.083 92.9368 166.028L92.3528 165.388C91.3368 166.223 90.0368 166.727 88.6221 166.727C85.3821 166.727 82.7381 164.083 82.7381 160.843C82.7381 157.601 85.3821 154.959 88.6221 154.959C91.6914 154.959 94.2234 157.331 94.4848 160.333L95.2941 160.313C95.7074 154.693 92.9634 150.357 92.9634 150.357H98.9008C95.6688 153.375 96.6461 160.313 96.6461 160.313L97.4408 160.448C97.6448 157.391 100.203 154.959 103.313 154.959C106.553 154.959 109.195 157.601 109.195 160.841C109.195 164.083 106.553 166.727 103.313 166.727C101.87 166.727 100.546 166.201 99.5208 165.335Z" fill="#231F20"/>
<path fill-rule="evenodd" clip-rule="evenodd" d="M63.6797 168.496C63.6797 168.496 66.0624 156.276 66.1251 153.593C66.1904 150.912 67.1557 143.455 70.4411 141.557C70.4411 141.557 74.7571 139.528 76.1077 142.341C76.1077 142.341 77.5904 142.211 78.1691 143.388C78.1691 143.388 79.5877 143.584 79.7797 144.108C79.7797 144.108 81.1331 144.043 81.2624 144.632C81.2624 144.632 82.7437 144.565 83.2584 145.416C83.2584 145.416 84.7397 145.808 84.9317 146.528C84.9317 146.528 86.2211 146.987 86.2837 147.64C86.2837 147.64 87.9584 147.705 88.0237 149.211C88.0237 149.211 89.2477 155.163 83.6451 153.856C83.6451 153.856 83.0651 153.332 82.8077 154.312C82.5491 155.295 80.4664 165.888 80.4784 166.459L63.6797 168.496Z" fill="#DA4534"/>
<path d="M65.4271 168.026C65.4311 168.007 66.7884 162.302 66.7884 160.745C66.7884 159.743 67.2351 154.991 68.1257 150.867C68.6524 148.43 69.3391 146.201 70.1871 145.065C70.2124 145.022 70.2977 144.871 70.4297 144.661L70.4324 144.597H70.4697C70.9617 143.817 71.9977 142.358 72.8911 142.307C72.9977 142.301 73.1044 142.306 73.2097 142.323C73.6977 142.401 74.1324 142.715 74.4484 143.127C74.7577 143.531 74.9577 144.037 74.9857 144.505C74.9924 144.633 74.9871 144.759 74.9671 144.882C74.9257 145.149 74.8311 145.39 74.6991 145.599C74.5324 145.863 74.3057 146.074 74.0604 146.209C73.8031 146.346 73.5177 146.406 73.2484 146.362C73.1097 146.341 72.9711 146.29 72.8444 146.211C72.0617 145.719 72.2057 144.701 72.2057 144.698L72.6657 144.739C72.6657 144.741 72.5644 145.489 73.0884 145.818V145.821C73.1617 145.865 73.2391 145.893 73.3217 145.906C73.4884 145.933 73.6711 145.893 73.8404 145.802V145.801C74.0191 145.703 74.1831 145.55 74.3084 145.351C74.4071 145.195 74.4804 145.01 74.5111 144.81C74.5257 144.721 74.5284 144.627 74.5231 144.531C74.5017 144.154 74.3364 143.742 74.0804 143.407C73.8311 143.083 73.4991 142.835 73.1364 142.778C73.0657 142.769 72.9911 142.765 72.9164 142.769C72.2364 142.807 71.3484 144.062 70.8911 144.791C70.8964 145.174 70.9631 145.657 71.1137 146.13C71.2657 146.605 71.5004 147.069 71.8417 147.419C72.1697 147.758 72.6017 147.989 73.1591 148.01C73.4591 148.023 73.7991 147.977 74.1777 147.855C76.8377 147.007 75.9297 142.401 75.9271 142.387L76.3831 142.305C76.3857 142.318 77.3724 147.322 74.3177 148.295C74.0884 148.369 73.8697 148.419 73.6644 148.446C73.9804 148.765 74.3257 148.925 74.7284 148.918C75.2884 148.909 75.9804 148.591 76.8724 147.942C78.6151 146.675 78.0017 143.498 78.0004 143.49L78.4551 143.399C78.4551 143.409 79.1257 146.878 77.1431 148.318C76.4644 148.813 75.8791 149.129 75.3631 149.278C75.6924 149.621 76.0644 149.831 76.4817 149.85C77.0484 149.878 77.7244 149.565 78.5324 148.777C80.1631 147.191 79.6017 144.19 79.6017 144.182L80.0564 144.099C80.0577 144.109 80.6631 147.349 78.8551 149.109C78.1751 149.773 77.5591 150.134 77.0017 150.261C77.0417 150.345 77.0924 150.417 77.1524 150.477C77.3191 150.649 77.5657 150.735 77.8484 150.739C78.1577 150.745 78.5151 150.653 78.8777 150.465C79.4057 150.193 79.9471 149.718 80.3817 149.045C81.6404 147.094 81.1031 144.699 81.1004 144.693L81.5524 144.591C81.5537 144.599 82.1351 147.182 80.7711 149.294C80.2884 150.042 79.6844 150.569 79.0897 150.877L79.0204 150.911C79.2177 151.071 79.4977 151.219 79.8417 151.253C80.2711 151.294 80.8057 151.158 81.4217 150.646H81.4204C81.5257 150.557 81.6324 150.461 81.7364 150.355C83.2751 148.81 83.0577 145.458 83.0577 145.449L83.5177 145.418C83.5191 145.429 83.7497 148.99 82.0657 150.681C81.9457 150.802 81.8284 150.907 81.7191 150.999H81.7177C81.2177 151.417 80.7511 151.621 80.3337 151.693C80.7004 152.025 81.1217 152.169 81.5604 152.151C82.0204 152.13 82.5071 151.93 82.9817 151.577C83.2044 151.411 83.4244 151.213 83.6351 150.985C84.9004 149.617 84.7377 146.586 84.7364 146.577L85.1991 146.553C85.1991 146.562 85.3724 149.786 83.9711 151.297C83.7404 151.55 83.5004 151.767 83.2564 151.947C82.9004 152.214 82.5311 152.403 82.1671 152.511C82.2071 152.567 82.2657 152.635 82.3324 152.709C82.5324 152.927 82.8004 153.157 82.9831 153.278C83.1031 153.358 83.2577 153.413 83.5297 153.294C83.8751 153.145 84.3737 152.755 85.1297 151.927C86.6151 150.302 86.1217 147.719 86.1204 147.711L86.5751 147.633C86.5777 147.641 87.1151 150.441 85.4697 152.239C84.6631 153.122 84.1124 153.545 83.7151 153.718C83.2431 153.922 82.9564 153.815 82.7284 153.665C82.5204 153.527 82.2177 153.267 81.9924 153.019C81.9297 152.953 81.8751 152.886 81.8257 152.819C79.9284 155.191 78.8991 167.141 78.8951 167.174L78.4324 167.135C78.4364 167.099 79.4471 155.387 81.4111 152.614C80.9044 152.597 80.4231 152.403 80.0004 152.013H79.9991C79.9004 151.922 79.8031 151.818 79.7111 151.702H79.7084L79.7711 151.807C79.0804 152.218 76.7884 167.346 76.7817 167.39L76.3231 167.322C76.3311 167.279 78.3991 153.565 79.3777 151.625C79.0311 151.51 78.7577 151.315 78.5711 151.13L78.5417 151.099C78.2991 151.169 78.0657 151.205 77.8444 151.202L77.9271 151.335C77.3537 151.686 74.6124 167.682 74.6031 167.729L74.1471 167.653C74.1551 167.609 76.6297 153.206 77.5377 151.171C77.2577 151.117 77.0111 150.995 76.8217 150.802C76.6924 150.669 76.5897 150.506 76.5217 150.314L76.4591 150.313C76.4297 150.31 76.3991 150.307 76.3684 150.305L76.3844 150.43C75.9871 150.479 75.5591 152.107 75.2137 153.846C74.8524 155.663 74.6057 157.602 74.5404 158.135C74.4084 159.209 72.8257 167.842 72.8204 167.869L72.3671 167.781C72.3724 167.758 73.9484 159.153 74.0791 158.081C74.1457 157.543 74.3951 155.594 74.7577 153.758C75.0631 152.229 75.4631 150.775 75.9471 150.214C75.5684 150.085 75.2324 149.833 74.9311 149.494C74.5044 149.854 74.1231 150.947 73.8111 152.282C73.2417 154.709 72.9311 157.87 72.8911 159.054C72.8244 161.021 71.3724 167.854 71.3697 167.873L70.9164 167.777C70.9204 167.758 72.3631 160.958 72.4297 159.039C72.4684 157.835 72.7857 154.629 73.3617 152.177C73.6457 150.963 74.0017 149.922 74.4364 149.362C73.9724 149.297 73.5751 149.054 73.2164 148.646C72.8311 149.289 72.4097 150.806 72.0297 152.557C71.3484 155.674 70.8084 159.495 70.7657 160.567C70.6911 162.373 69.6644 167.734 69.6617 167.75L69.2071 167.662C69.2097 167.649 70.2311 162.318 70.3031 160.55C70.3484 159.458 70.8937 155.597 71.5764 152.458C71.9551 150.717 72.3857 149.183 72.8071 148.438C72.3297 148.355 71.9364 148.139 71.6151 147.845C71.3791 148.142 71.0857 148.85 70.8111 149.657C70.3444 151.026 69.9551 152.646 69.9551 153.102C69.9551 153.542 69.7124 155.271 69.4817 156.911C69.2764 158.375 69.0791 159.771 69.0791 160.075C69.0791 160.753 67.9831 168.029 67.9804 168.05L67.5244 167.978C67.5271 167.958 68.6151 160.734 68.6151 160.075C68.6151 159.745 68.8151 158.331 69.0231 156.846C69.2524 155.225 69.4924 153.518 69.4924 153.102C69.4924 152.609 69.8937 150.919 70.3737 149.507C70.6657 148.647 70.9991 147.878 71.3044 147.507C71.0191 147.143 70.8137 146.709 70.6751 146.27C70.5857 145.993 70.5231 145.713 70.4844 145.447C69.7137 146.553 69.0777 148.658 68.5777 150.965C67.6951 155.054 67.2537 159.758 67.2537 160.745C67.2537 162.347 65.8804 168.115 65.8764 168.131L65.4271 168.026Z" fill="#034EA1"/>
<path d="M46.0183 166.484C46.0196 166.455 46.9943 156.638 46.9943 155.646V155.604H46.9956C46.9943 154.314 46.9769 141.432 56.1903 139.048C56.4049 138.958 60.2783 137.462 68.3609 144.043L68.0689 144.4C59.9796 137.815 56.3729 139.474 56.3636 139.479L56.3476 139.484L56.3276 139.49C47.4383 141.768 47.4569 154.346 47.4596 155.604V155.646C47.4596 156.646 46.4796 166.502 46.4769 166.528L46.0183 166.484Z" fill="#034EA1"/>
<path fill-rule="evenodd" clip-rule="evenodd" d="M49.1511 145.684L47.7431 142.612L49.1511 145.684ZM58.1684 144.712C58.1684 144.712 55.1417 143.942 53.3964 144.712C53.3964 144.712 52.9524 144.712 53.4484 144.234C53.9444 143.757 54.7257 143.572 54.3337 143.094C53.9444 142.617 54.4124 142.672 54.8831 142.909C55.3511 143.148 56.2111 143.174 56.5511 142.804C56.8897 142.433 57.2284 142.645 56.8631 143.042C56.4977 143.438 57.4897 143.917 57.7497 143.969C58.0111 144.022 58.7151 144.578 58.1684 144.712ZM59.2817 147.658C59.2817 147.658 57.9497 146.841 56.8391 147.48C55.7284 148.116 55.7764 147.348 55.6791 147.3C55.5831 147.25 55.2137 147.086 54.5537 147.462C53.8937 147.838 53.9084 147.69 53.3777 147.38C52.8471 147.07 52.5897 147.365 52.1551 147.69H51.7831V145.712C51.7831 145.712 52.3804 145.812 52.5097 145.893C52.6377 145.974 53.7004 146.041 54.3431 145.828C54.9884 145.614 55.9204 145.321 57.2084 145.549C58.4977 145.778 57.9657 146.024 59.0617 145.877C60.1551 145.729 60.3324 145.745 60.1377 146.024C59.9457 146.302 59.2671 147.658 59.2817 147.658V147.658ZM57.5151 152.997C57.5151 152.997 58.9257 151.677 58.0324 150.914C57.1377 150.149 56.0591 151.296 55.9497 151.39C55.8391 151.488 54.9777 152.076 54.5844 151.693C54.1937 151.312 54.3991 150.628 55.6511 150.165C56.9031 149.705 58.1724 149.896 58.5337 150.261C58.8951 150.628 59.4111 151.488 58.0951 153.094C58.0951 153.094 57.6871 153.524 57.4671 153.396C57.2484 153.268 57.4671 152.997 57.5151 152.997V152.997ZM51.7937 159.256C51.7764 159.238 52.5271 159.238 52.6804 158.926C52.8364 158.614 52.1351 158.025 51.7937 157.833C51.4524 157.644 50.9417 157.989 51.1631 158.164C51.3844 158.336 51.7937 159.256 51.7937 159.256V159.256ZM50.4977 159.493C50.4977 159.493 51.0777 159.154 51.0777 159.018C51.0777 158.882 50.8257 157.646 49.6124 157.664C48.3991 157.685 48.1324 158.974 48.1324 158.974L48.6257 159.07C48.6257 159.07 48.9484 158.242 49.6697 158.378C50.3897 158.513 50.4977 159.493 50.4977 159.493ZM52.6724 159.908C52.6724 159.908 51.4511 160.956 50.3537 161.192C49.2604 161.428 47.2364 160.849 47.2177 160.25C47.1964 159.652 47.7231 159.93 48.9857 160.358C50.2497 160.785 52.6724 159.908 52.6724 159.908ZM46.6031 163.704L46.9097 159.378C46.9097 159.378 47.1404 158.225 47.4004 157.784C47.6591 157.344 50.5844 157.244 50.9897 157.068C51.3937 156.89 50.0937 156.041 49.8337 155.542C49.5724 155.042 50.7884 155.746 51.3071 156.305C51.8271 156.862 52.6937 156.921 52.6937 156.921C53.3577 156.95 52.4337 153.752 51.9431 153.076C51.4511 152.401 51.3644 151.668 51.3644 151.668C51.5111 149.73 54.1377 149.554 54.1377 149.554C54.1377 149.554 52.5777 150.552 52.3764 151.434C52.1751 152.314 53.1084 154.341 53.3377 155.07C53.5657 155.801 53.6964 157.097 53.4671 160.118C53.2377 163.141 49.5764 163.77 48.6297 163.737C47.6817 163.704 46.6031 163.704 46.6031 163.704ZM46.9951 161.737C46.9951 161.737 47.2444 163.186 50.0791 162.861C50.0791 162.861 51.5777 162.48 52.3097 161.156C52.3097 161.156 48.6884 162.353 47.1031 160.813L46.9951 161.737ZM58.3364 159.39C58.3364 159.39 58.9617 158.132 58.6284 157.925C58.2937 157.721 57.4071 158.5 57.4071 158.766C57.4071 159.033 58.3364 159.39 58.3364 159.39ZM61.4604 159.79L62.0031 159.669C62.0311 159.433 62.0831 158.258 60.5457 158.089C59.0097 157.92 58.8164 159.452 58.8164 159.452L59.2444 159.706C59.2444 159.706 59.2031 158.721 60.2831 158.68C61.3644 158.637 61.4604 159.79 61.4604 159.79V159.79ZM62.5017 159.745C62.4857 159.761 63.9017 159.401 63.9324 159.057C63.9631 158.713 62.1631 158.152 62.4404 158.37C62.7177 158.589 62.5017 159.745 62.5017 159.745ZM64.1551 160.706C64.1551 160.706 64.5511 160.897 63.6537 161.31C60.4151 162.397 57.9431 161.568 57.4831 161.362C57.0231 161.156 56.1324 160.221 56.4631 160.042C56.7951 159.86 57.1511 159.601 56.7951 159.161C56.4377 158.721 56.3884 158.254 57.9164 157.218C59.4471 156.182 61.6644 155.949 61.4364 156.156C61.2057 156.365 59.2684 157.322 60.1351 157.322C61.0031 157.322 63.1697 158.046 63.4497 158.358C63.7311 158.668 65.2857 159.134 65.2857 159.134C65.2857 159.134 64.9791 159.289 63.1697 160.17C61.3591 161.05 58.3257 160.508 58.2231 160.404C58.1217 160.3 56.5391 159.497 56.9737 160.352C57.4071 161.206 59.6777 161.388 60.4911 161.466C61.3071 161.544 64.1551 160.706 64.1551 160.706V160.706ZM64.1204 162.172C64.1204 162.172 59.7884 163.454 58.6697 162.941C57.5511 162.428 55.8191 161.914 56.1791 162.794C56.5404 163.674 58.9031 164.242 60.0404 164.169C61.1777 164.096 63.9751 162.83 64.1204 162.172" fill="#034EA1"/>
<path fill-rule="evenodd" clip-rule="evenodd" d="M94.914 122.034C94.942 122.329 94.938 122.443 94.9167 122.302L88.622 121.969C88.622 121.969 76.622 120.774 68.0727 110.817C59.5247 100.859 59.9354 95.0365 49.6434 92.1978L42.5273 91.0365L41.0047 82.1325C41.0047 82.1325 60.1887 82.7792 69.21 97.4885C78.03 111.872 86.646 109.9 94.914 122.034Z" fill="#034EA1"/>
<path fill-rule="evenodd" clip-rule="evenodd" d="M79.5768 143.26C79.5768 143.26 78.6662 141.782 78.0502 141.324C77.4368 140.866 76.7795 141.491 76.6155 141.699C76.6155 141.699 74.7302 140.575 73.7862 140.575C73.7862 140.575 74.8528 138.826 74.2382 138.408C73.6235 137.992 71.9835 138.534 71.9835 138.534L69.7688 136.575C69.7688 136.575 70.8755 135.451 70.2595 134.952C69.6448 134.452 68.0035 135.16 68.0035 135.16L66.0768 133.662C66.0768 133.662 66.7142 132.359 66.3488 131.988C65.9848 131.618 65.4155 131.247 64.0768 132.112L62.5355 131.164C62.5355 131.164 62.7368 128.568 62.1702 128.239C62.1702 128.239 61.1582 127.827 61.1968 129.146C61.2368 130.463 61.1155 131.206 61.1155 131.206L59.9795 132.276C59.9795 132.276 58.1955 130.258 57.8302 131.74C57.4648 133.224 57.9102 133.512 57.9102 133.512L56.0862 134.788C56.0862 134.788 54.3902 133.283 54.0248 134.396L53.9515 131.836C53.9515 131.836 55.6315 131.799 55.8142 132.466C55.9955 133.134 57.0555 127.127 59.7568 129.723C59.7568 129.723 60.1595 126.574 61.8995 126.64C63.6408 126.708 64.1355 129.444 64.1022 129.676C64.0688 129.911 67.5848 128.676 67.9782 131.447C67.9782 131.447 68.1435 133.25 68.0448 133.415C67.9462 133.583 72.1328 131.323 72.3702 136.219C72.3702 136.219 76.7448 135.018 76.0648 139.402C76.0648 139.402 79.8142 137.87 81.6755 142.828C81.5195 143.943 79.9915 143.622 79.5768 143.26Z" fill="#DA4534"/>
<path fill-rule="evenodd" clip-rule="evenodd" d="M81.1524 138.306V140.49L61.9098 125.659L54.1564 131.234V128.818L61.6271 123.474L81.1524 138.306Z" fill="#DA4534"/>
<path fill-rule="evenodd" clip-rule="evenodd" d="M71.2864 140.917L62.8531 134.377L53.1144 140.579L53.6931 137.415L62.0824 131.659L73.6837 140.745L71.2864 140.917Z" fill="#DA4534"/>
<path fill-rule="evenodd" clip-rule="evenodd" d="M70.832 141.469L62.6707 135.206L56.4867 139.182L53.9893 139.965L62.84 133.962L72.1467 141.193L70.832 141.469Z" fill="#034EA1"/>
<path fill-rule="evenodd" clip-rule="evenodd" d="M75.388 117.077C77.372 118.318 79.328 119.25 81.0973 119.95V135.065L75.388 131.021V117.077Z" fill="#EC1C24"/>
<path fill-rule="evenodd" clip-rule="evenodd" d="M23.7669 161.078V174.729L36.9096 161.078H23.7669Z" fill="#034EA1"/>
<path fill-rule="evenodd" clip-rule="evenodd" d="M23.7669 162.004V173.115L34.6349 162.004H23.7669Z" fill="#DA4534"/>
<path fill-rule="evenodd" clip-rule="evenodd" d="M23.7669 163.425V170.823L31.4976 163.425H23.7669Z" fill="#EC1C24"/>
<path fill-rule="evenodd" clip-rule="evenodd" d="M46.4921 141.216L47.0081 140.373L48.1135 141.016L47.9148 141.497L50.5641 142.501L52.3015 140.976L52.7375 137.404L46.8881 136.681L47.1268 133.952L48.8255 133.992L48.7855 134.995L53.0921 135.919L53.3295 129.857L47.8375 129.416L47.7628 126.987L49.1948 126.729L49.4055 128.013L53.5335 127.969L53.4095 122.836L47.6361 122.921V120.695L49.1948 120.525V121.295H53.2401L52.7988 116.073L47.1335 116.696L46.7241 113.924L48.0201 113.645L48.4308 114.895L52.3895 114.34L51.7068 109.557L46.3148 110.181L45.6321 107.339L47.1335 107.061L47.6815 108.101L51.1615 107.339L49.5908 102.485L44.6095 103.595L43.8575 101.099L45.0188 100.476L45.5641 101.516L49.1135 100.684L47.3401 95.6921L42.1175 97.4161L41.1895 95.1175L42.4255 94.3748L43.1068 95.6228L46.6228 94.2028L44.3148 89.3708L39.5855 91.8655L38.1428 89.5895L39.5548 88.9041L40.1695 89.9015L43.3628 88.0601L40.4761 83.2895L36.1401 85.9015L34.7015 83.6561L35.6975 82.9255L36.3601 83.7121L39.9548 81.6335L36.9681 78.2095L32.6575 80.7375V81.8588L36.0841 79.5575L37.7428 81.3548L36.7468 82.2521L35.9175 81.5215L32.7121 83.7681L35.4761 87.8668L40.1761 85.1148L41.6681 87.4735L40.4521 88.3161L39.8428 87.4735L36.0841 89.2708L38.2401 93.4815L43.4921 91.1241L44.5415 93.0881L43.6588 93.7068L43.1041 92.9201L39.1801 94.7735L40.8001 99.2575L46.7521 97.4681L47.8601 99.9388L46.5881 100.388L45.9241 99.3215L41.4361 100.652L42.8788 104.744L48.7495 103.887L49.5468 106.361L48.1015 106.716L47.6561 105.301L43.1775 106.413L44.4895 111.587L50.3161 110.752L50.8921 113.172L49.4135 113.505L49.1681 112.42L44.7361 113.253L45.5575 117.755L51.4655 117.588L51.7135 120.007L50.3988 120.173L50.1521 119.256L45.7628 119.464L46.0908 123.965H51.8761V126.716H50.3161V125.632L46.1735 125.591L46.2095 130.943L51.4908 131.317L51.3801 134.544L49.9761 134.395L49.8281 132.632L46.1735 132.705L45.4668 137.181L50.9521 138.429L50.6855 140.659L49.2895 140.76L49.0228 139.781L45.4001 138.735L45.2001 140.557L46.4921 141.216Z" fill="white"/>
<path fill-rule="evenodd" clip-rule="evenodd" d="M34.4479 137.22C31.7812 138.839 31.1586 138.523 30.9506 138.451C30.7426 138.381 30.0146 138.944 29.8759 138.275C29.7386 137.607 29.7386 136.517 29.3572 137.607C28.9759 138.697 28.6972 138.347 28.3172 138.028C27.9372 137.713 27.5906 136.904 28.8719 136.375C30.1546 135.849 31.1572 135.672 31.5052 135.249C31.8506 134.828 33.1666 133.879 32.8906 133.351C32.6119 132.823 31.8506 132.683 31.9199 131.169C31.9879 129.657 31.6079 127.125 33.0292 127.195C34.4479 127.265 36.6639 127.441 36.7679 130.044C36.8852 132.957 37.6826 135.257 34.4479 137.22Z" fill="white"/>
<path fill-rule="evenodd" clip-rule="evenodd" d="M38.0703 136.797C38.4916 135.42 39.5263 131.162 37.789 127.064C38.7783 126.136 40.4556 124.829 42.697 124.07C41.805 125.356 39.7916 128.14 40.1703 128.482C40.7183 128.974 41.8756 129.904 41.8756 129.904L39.8663 132.189L41.9943 134.537L39.9276 136.328L41.201 138.517L38.0703 136.797Z" fill="#231F20"/>
<path fill-rule="evenodd" clip-rule="evenodd" d="M93.7708 143.681V122.613L99.0948 129.765V140.865L93.7708 143.681Z" fill="#231F20"/>
<path fill-rule="evenodd" clip-rule="evenodd" d="M74.2891 116.359C72.1611 114.907 70.0277 113.091 68.0731 110.817C65.5157 107.837 63.7611 105.226 62.2784 102.957V120.721L74.2891 129.726V116.359Z" fill="#DA4534"/>
<path fill-rule="evenodd" clip-rule="evenodd" d="M54.4258 125.495L58.9324 122.265L59.0098 102.677L52.0551 107.119C52.0551 107.119 53.8604 114.217 54.4258 125.495Z" fill="#EC1C24"/>
<path fill-rule="evenodd" clip-rule="evenodd" d="M45.1041 121.427L39.2881 124.678C39.2881 124.678 35.1575 112.523 32.3775 109.1V85.2417C32.3775 85.2417 43.0761 98.7657 45.1041 121.427" fill="#EC1C24"/>
<path fill-rule="evenodd" clip-rule="evenodd" d="M43.2656 120.885L40.4389 122.384C40.4389 122.384 35.8656 110.596 33.7483 109.211V91.9854C33.7483 91.9854 42.1709 106.352 43.2656 120.885Z" fill="#231F20"/>
<path fill-rule="evenodd" clip-rule="evenodd" d="M72.8333 123.732L70.176 121.325V125.112L72.8333 127.02V123.732ZM69.1627 121.98V124.205L68.0853 123.112L69.1627 121.98ZM72.904 122.56L71.348 120.986L72.872 120.989L72.904 122.56ZM63.8427 107.989L65.3973 109.564L63.8707 109.561L63.8427 107.989ZM68.5747 120.192C69.6387 120.133 70.612 119.721 71.38 119.068C70.76 118.041 69.7667 117.733 69.116 118.392C68.7173 118.794 68.5333 119.472 68.5747 120.192V120.192ZM71.744 118.726C72.4387 118 72.9147 117.056 73.052 116.005C71.8827 115.706 70.948 116.201 70.948 117.141C70.948 117.681 71.256 118.258 71.744 118.726V118.726ZM64.9067 111.977C64.16 112.745 63.664 113.762 63.5573 114.89C63.6707 114.938 63.7867 114.981 63.9053 115.017C65.1307 115.381 66.1307 114.888 66.1307 113.916C66.1307 113.229 65.6307 112.484 64.9067 111.977V111.977ZM63.54 115.606C63.596 116.738 64.04 117.77 64.74 118.568C64.796 118.54 64.8507 118.512 64.9053 118.481C66.0267 117.865 66.388 116.8 65.708 116.112C65.2387 115.636 64.3907 115.464 63.54 115.606V115.606ZM65.176 119.005C65.9533 119.69 66.9493 120.128 68.04 120.19C68.3867 118.964 67.8987 117.966 66.9453 117.966C66.3307 117.966 65.6667 118.38 65.176 119.005V119.005ZM73.0813 115.494C73.2413 115.614 73.4013 115.733 73.5613 115.849C73.316 118.557 71.0547 120.693 68.3147 120.693C65.4133 120.693 63.0467 118.297 63.0467 115.361C63.0467 112.716 64.9667 110.51 67.4693 110.098C67.5907 110.248 67.7173 110.397 67.8453 110.548C66.9533 110.637 66.1333 110.974 65.4533 111.492C65.5013 111.614 65.5573 111.734 65.6187 111.849C66.232 112.984 67.2827 113.352 67.9627 112.664C68.2787 112.344 68.4587 111.852 68.5 111.302C68.6413 111.462 68.7853 111.62 68.9293 111.773C68.9787 112.549 69.4293 113.09 70.1333 113.09C70.1653 113.09 70.196 113.089 70.2293 113.086C70.5053 113.349 70.784 113.601 71.0613 113.849C70.9667 114.241 71.06 114.632 71.3693 114.944C71.7533 115.334 72.3947 115.521 73.0813 115.494" fill="#231F20"/>
<path fill-rule="evenodd" clip-rule="evenodd" d="M42.6967 124.072C41.802 125.357 39.7913 128.141 40.17 128.482C40.718 128.976 41.874 129.904 41.874 129.904L39.866 132.19L41.9953 134.537L39.9273 136.328L41.1993 138.517L44.186 140.158C46.01 135.957 45.038 123.538 45.038 123.538C44.2007 123.638 43.4193 123.826 42.6967 124.072Z" fill="#DA4534"/>
<path fill-rule="evenodd" clip-rule="evenodd" d="M91.3672 144.914V143.115H86.6539V138.149H90.5926V139.421H91.9086V136.938H86.7752V131.182H90.8312V132.646H91.9086V129.881H86.6526V124.942H90.6566V126.146H91.9459V123.523H86.5766V121.179L88.0072 121.57V122.719H93.0099V127.753H89.2246V126.338H87.9632V128.901H93.0072V134.158H89.3552V133.007H87.9632V135.305H93.0032V140.671H89.4072V139.558H88.0699V141.889H92.8619V144.146L91.3672 144.914ZM87.0752 147.114L90.5912 145.311V144.086H86.6552V147.114H87.0752Z" fill="white"/>
<path fill-rule="evenodd" clip-rule="evenodd" d="M44.612 139.171L43.3947 136.637L45.828 134.413L43.7587 131.695L45.888 129.161L43.5773 127.616L45.5853 124.219L45.4027 123.229L42.6653 127.431L44.7333 129.347L42.788 131.509L44.7333 134.228L42.6653 136.391L44.4893 140.653L44.612 139.171Z" fill="#020300"/>
<path fill-rule="evenodd" clip-rule="evenodd" d="M37.7891 127.063C39.5264 131.163 38.4917 135.421 38.0717 136.797L36.6984 136.041C36.6984 136.041 38.2237 130.185 36.7677 128.145C36.7677 128.145 37.1224 127.691 37.7891 127.063" fill="#DA4534"/>
<path fill-rule="evenodd" clip-rule="evenodd" d="M51.4973 105.203L50.0027 100.036L56.48 95.5337L60.0987 99.7683L51.4973 105.203Z" fill="#231F20"/>
<path fill-rule="evenodd" clip-rule="evenodd" d="M60.0716 99.6953C60.3356 100.074 60.6756 100.437 60.9423 100.841L51.9223 106.399L51.4743 105.174L60.0716 99.6953Z" fill="#DA4534"/>
<path fill-rule="evenodd" clip-rule="evenodd" d="M55.5755 94.8437C55.9235 95.0891 56.2528 95.3424 56.5675 95.6077L49.9581 100.03L49.5528 98.6384L55.5755 94.8437Z" fill="#DA4534"/>
<path fill-rule="evenodd" clip-rule="evenodd" d="M85.5091 58.7044L87.1838 61.5551L84.2944 60.9164L85.5091 58.7044Z" fill="#DA4534"/>
<path fill-rule="evenodd" clip-rule="evenodd" d="M48.3528 82.41V55.5914L64.6235 64.9994L72.8235 71.174L85.3541 61.1634C85.3541 61.1634 92.6635 63.458 98.2155 67.406C98.2155 67.406 96.7581 75.3727 98.7035 76.4994L95.0235 78.9674L101.965 95.7847V127.547C101.965 127.547 100.457 119.899 84.0808 118.85C84.0808 118.85 72.1302 116.002 64.8995 103.715C64.8995 103.715 59.4395 91.2754 44.3902 89.178L48.3528 82.41Z" fill="#231F20"/>
<path fill-rule="evenodd" clip-rule="evenodd" d="M104.544 145.961L103.039 144.469V42.8543L104.544 42.8463V145.961Z" fill="#DA4534"/>
<path fill-rule="evenodd" clip-rule="evenodd" d="M84.5429 60.388C84.5429 60.388 92.3016 62.548 98.5829 67.1747C98.5829 67.1747 102.116 64.464 103.372 64.7813C104.628 65.1013 105.806 64.94 105.806 64.94C105.806 64.94 107.848 65.18 106.984 67.0147C106.12 68.8493 104.315 68.9267 103.764 69.008C103.215 69.088 103.215 76.5027 103.215 76.5027C103.215 76.5027 101.252 77.7 98.8963 76.7427L96.4629 78.4973L97.9563 78.7373L97.3269 79.7733L98.9763 80.2507L98.1909 81.208L99.5243 81.688L98.5056 82.8827L100.42 83.308L99.3403 84.664L100.611 84.7947L99.6563 86.0853L101.183 86.216L100.356 87.5067L101.628 87.7653L100.992 88.7347L101.946 89.1227L101.31 90.156L102.71 90.284L101.883 91.1893L102.836 91.512L102.328 92.48L102.824 93.4627V132.535C102.824 132.535 92.5043 121.139 88.7696 112.972C88.7696 112.972 76.9936 111.805 72.9723 103.052L82.6229 97.1453C82.6229 97.1453 78.2909 76.9987 81.5149 63.4693C81.5869 63.1733 84.3923 60.64 84.5429 60.388Z" fill="#034EA1"/>
<path fill-rule="evenodd" clip-rule="evenodd" d="M38.6953 80.1914C38.2727 79.5914 38.0247 79.2661 38.0247 79.2661C38.0247 79.2661 38.0127 79.2714 37.99 79.2781C34.53 74.8981 31.9913 72.9647 31.9913 72.9647V63.8047L48.806 55.5701V82.6687L56.222 94.1594L49.4247 98.9821C47.958 95.5034 46.1727 92.1141 44.454 89.1554C42.466 85.5061 40.4793 82.5407 38.6953 80.1914Z" fill="#034EA1"/>
<path fill-rule="evenodd" clip-rule="evenodd" d="M35.2631 38.5729L35.9017 37.8436C33.9657 36.7756 32.6484 34.7142 32.6484 32.3556C32.6484 28.9076 35.4604 26.0942 38.9084 26.0942C42.3564 26.0942 45.1711 28.9076 45.1711 32.3556C45.1711 34.7436 43.8204 36.8262 41.8457 37.8809L42.4297 38.5209C43.4457 37.6849 44.7431 37.1822 46.1577 37.1822C49.4004 37.1822 52.0417 39.8262 52.0417 43.0662C52.0417 46.3076 49.4004 48.9502 46.1577 48.9502C43.0897 48.9502 40.5564 46.5782 40.2964 43.5756L39.4884 43.5956C39.0751 49.2142 41.8164 53.5516 41.8164 53.5516H35.8804C39.1124 50.5342 38.1351 43.5956 38.1351 43.5956L37.3404 43.4609C37.1364 46.5182 34.5764 48.9502 31.4684 48.9502C28.2297 48.9502 25.5857 46.3076 25.5857 43.0662C25.5857 39.8262 28.2297 37.1822 31.4684 37.1822C32.9124 37.1822 34.2351 37.7076 35.2631 38.5729Z" fill="#231F20"/>
<path fill-rule="evenodd" clip-rule="evenodd" d="M93.9349 27.168L90.7389 33.476C90.7389 33.476 92.2443 38.924 99.6296 39.0374C99.6296 39.0374 96.9296 31.5907 96.6189 30.9374C96.3056 30.2854 94.8523 27.0934 93.9349 27.168Z" fill="#DA4534"/>
<path fill-rule="evenodd" clip-rule="evenodd" d="M71.1003 35.4114C71.1003 35.4114 68.7216 47.6327 68.6563 50.3154C68.5909 52.9967 67.6269 60.4541 64.3416 62.3514C64.3416 62.3514 60.0256 64.3807 58.6736 61.5674C58.6736 61.5674 57.1909 61.6981 56.6123 60.5207C56.6123 60.5207 55.1949 60.3247 55.0016 59.8007C55.0016 59.8007 53.6483 59.8661 53.5203 59.2767C53.5203 59.2767 52.0389 59.3421 51.5229 58.4927C51.5229 58.4927 50.0416 58.0994 49.8496 57.3807C49.8496 57.3807 48.5616 56.9221 48.4976 56.2687C48.4976 56.2687 46.8216 56.2034 46.7576 54.6981C46.7576 54.6981 45.5336 48.7447 51.1376 50.0527C51.1376 50.0527 51.7163 50.5767 51.9749 49.5954C52.2323 48.6141 54.3149 38.0194 54.3029 37.4501L71.1003 35.4114Z" fill="#DA4534"/>
<path fill-rule="evenodd" clip-rule="evenodd" d="M45.3724 90.763C43.3271 87.095 41.2791 83.9457 39.8671 81.875C39.8417 81.5804 39.8444 81.4657 39.8644 81.607L46.1591 81.9404C46.1591 81.9404 58.1591 83.135 66.7071 93.0924C75.2564 103.05 74.8457 108.872 85.1377 111.711L92.2524 112.872L93.7791 121.776C93.7791 121.776 74.5924 121.13 65.5711 106.419C56.9791 92.407 49.7711 90.571 45.3724 90.763Z" fill="#034EA1"/>
<path fill-rule="evenodd" clip-rule="evenodd" d="M40.1484 82.2969L46.2524 82.8969L49.5831 83.5916C50.4537 83.8329 51.3137 84.1036 52.1697 84.3916L53.6577 84.9582L54.4324 85.2836L56.0417 86.0302L57.7017 86.9129L58.5417 87.4062L59.3897 87.9382L60.2364 88.5102L61.0857 89.1196L61.9297 89.7729L62.7697 90.4689L63.5991 91.2089L64.4164 91.9942L65.2204 92.8262L66.0097 93.7116C66.6044 94.4316 67.2137 95.1436 67.7844 95.8822C68.5871 96.9236 69.3671 97.9756 70.1111 99.0582C71.3977 100.936 72.6124 102.86 73.8911 104.74C74.3791 105.437 74.8911 106.112 75.4191 106.78L76.3724 107.852L76.8831 108.362L77.4191 108.852L77.9857 109.322L78.5844 109.77L79.2177 110.201L79.8911 110.608L80.6044 110.994L81.3604 111.361L82.1657 111.706L83.0204 112.029L83.9284 112.332L84.9431 112.63L89.6831 113.748L93.2204 120.868C91.8817 120.725 91.0951 120.577 89.7684 120.353C89.2497 120.261 88.7337 120.158 88.2217 120.049C87.2964 119.846 86.3804 119.62 85.4657 119.378L84.4231 119.07L83.3511 118.724L82.2524 118.336L81.1337 117.904L80.0031 117.425L78.8604 116.897L77.7151 116.318L76.5711 115.685L75.4337 114.997L74.3097 114.252L73.2017 113.445L72.1177 112.578L71.0604 111.645L70.0351 110.646L69.0484 109.576L68.1031 108.436L67.2057 107.218L66.3511 105.91L65.5084 104.568L64.6644 103.286L63.8297 102.08L63.0044 100.942L62.1857 99.8782L61.3791 98.8796L60.5804 97.9449L59.7911 97.0756L59.0124 96.2662L58.2444 95.5156L57.4871 94.8236L56.7391 94.1849L56.0044 93.6009L55.2777 93.0649L54.5631 92.5809L53.8617 92.1436L53.1724 91.7502L52.4964 91.3996L51.8324 91.0916L51.1791 90.8209L49.9231 90.3902L48.7297 90.0942L47.5991 89.9102C47.0471 89.8676 46.5004 89.8249 45.9471 89.8156C45.4097 89.8182 45.3124 89.8556 44.7791 89.8809C43.2724 87.2956 41.8791 84.7369 40.1484 82.2969Z" fill="#DA4534"/>
<path fill-rule="evenodd" clip-rule="evenodd" d="M70.3021 102.945C70.7981 102.945 71.2048 103.356 71.2048 103.859C71.2048 104.361 70.7981 104.771 70.3021 104.771C69.8048 104.771 69.3981 104.361 69.3981 103.859C69.3981 103.356 69.8048 102.945 70.3021 102.945ZM73.5555 110.196C74.0528 110.196 74.4581 110.604 74.4581 111.107C74.4581 111.609 74.0528 112.021 73.5555 112.021C73.0595 112.021 72.6541 111.609 72.6541 111.107C72.6541 110.604 73.0595 110.196 73.5555 110.196ZM62.8435 92.4347C62.7381 92.8214 62.3875 93.1067 61.9741 93.1067C61.4768 93.1067 61.0728 92.696 61.0728 92.1947C61.0728 91.8147 61.3035 91.4894 61.6288 91.352C62.0421 91.7054 62.4448 92.0654 62.8435 92.4347V92.4347ZM49.2701 84.948C49.2888 85.024 49.2995 85.1014 49.2995 85.1827C49.2995 85.6867 48.8955 86.096 48.3981 86.096C47.9008 86.096 47.4968 85.6867 47.4968 85.1827C47.4968 84.952 47.5821 84.74 47.7221 84.58C48.2421 84.688 48.7581 84.8107 49.2701 84.948V84.948ZM47.0715 88.4614C46.2648 88.4014 45.4568 88.4 44.6168 88.464C44.1888 88.4734 44.0928 88.3614 43.8195 88.0187C43.1741 87.0707 42.6115 84.7827 42.4061 83.664L45.6995 84.2254C45.4888 84.6507 45.3688 85.1334 45.3688 85.64C45.3688 86.8667 46.0608 87.9334 47.0715 88.4614ZM53.1061 90.136C53.2341 89.792 53.5648 89.5467 53.9488 89.5467C54.4448 89.5467 54.8501 89.956 54.8501 90.4587C54.8501 90.6627 54.7848 90.852 54.6701 91.0054C54.1595 90.7 53.6435 90.412 53.1061 90.136ZM63.3075 99.076C63.4088 98.6827 63.7608 98.392 64.1795 98.392C64.6768 98.392 65.0821 98.8027 65.0821 99.3054C65.0821 99.8067 64.6768 100.216 64.1795 100.216C63.8928 99.8334 63.6035 99.4534 63.3075 99.076V99.076ZM86.6581 119.041C86.3781 118.885 86.1875 118.585 86.1875 118.24C86.1875 117.737 86.5915 117.328 87.0888 117.328C87.5861 117.328 87.9915 117.737 87.9915 118.24C87.9915 118.691 87.6661 119.064 87.2435 119.139C87.0448 119.107 86.8488 119.076 86.6581 119.041ZM80.8995 112.68C81.1461 112.795 81.3955 112.904 81.6515 113.013C81.9181 113.115 82.1848 113.211 82.4515 113.305V113.311C82.4515 113.812 82.0475 114.224 81.5515 114.224C81.0528 114.224 80.6488 113.812 80.6488 113.311C80.6488 113.067 80.7448 112.844 80.8995 112.68V112.68ZM69.5768 100.76C69.3248 100.377 69.0675 99.996 68.8075 99.6174C67.4688 97.7227 66.0781 95.9014 64.5435 94.184C63.9661 94.8614 63.1141 95.2934 62.1635 95.2934C60.4395 95.2934 59.0301 93.868 59.0301 92.1214C59.0301 91.2974 59.3435 90.544 59.8581 89.9787C58.9421 89.3254 58.0061 88.72 57.0181 88.14C55.2995 87.1947 53.4968 86.3587 51.6341 85.692C51.6115 87.1947 50.5475 88.4494 49.1421 88.7454C49.8288 88.9067 50.4781 89.096 51.1168 89.32C51.5635 88.1187 52.7141 87.2587 54.0515 87.2587C55.7781 87.2587 57.1861 88.6854 57.1861 90.4307C57.1861 91.1307 56.9608 91.7774 56.5795 92.3027C57.4848 92.984 58.3395 93.7054 59.1955 94.4867C60.0341 95.3067 60.8315 96.14 61.6181 97.0094C61.7355 97.1454 61.8528 97.2827 61.9675 97.4187C62.5381 96.828 63.3328 96.4587 64.2115 96.4587C65.9381 96.4587 67.3448 97.8827 67.3448 99.6307C67.3448 100.812 66.6995 101.849 65.7448 102.393C65.7675 102.427 65.7901 102.46 65.8141 102.492C66.6661 103.791 67.4941 105.107 68.3421 106.409L70.0901 108.643C70.3195 108.964 70.5395 109.267 70.7515 109.553C71.2808 108.561 72.3208 107.885 73.5075 107.885C74.0195 107.885 74.5021 108.011 74.9301 108.232C74.2568 107.483 73.6301 106.696 73.0328 105.88C72.4608 106.484 71.6568 106.863 70.7688 106.863C69.0421 106.863 67.6341 105.439 67.6341 103.693C67.6341 102.371 68.4408 101.235 69.5768 100.76V100.76ZM87.0421 115.019C88.7675 115.019 90.1741 116.444 90.1741 118.191C90.1741 118.653 90.0755 119.095 89.8981 119.492C90.8941 119.613 90.9088 119.623 91.6715 119.745L89.5901 114.875L84.6275 114.005C84.6035 113.997 84.5781 113.989 84.5541 113.981C84.2288 115.383 82.9848 116.432 81.5021 116.432C79.7768 116.432 78.3701 115.008 78.3701 113.26C78.3701 112.653 78.5395 112.084 78.8328 111.601C77.9128 111.011 77.0795 110.351 76.3101 109.639C76.5221 110.065 76.6421 110.547 76.6421 111.057C76.6421 112.257 75.9781 113.307 75.0008 113.844C75.0861 113.907 75.1715 113.971 75.2621 114.033L77.4248 115.407C78.5128 116.008 79.5955 116.557 80.7221 117.079C81.7808 117.527 82.8341 117.931 83.9101 118.305C83.9088 118.265 83.9075 118.228 83.9075 118.191C83.9075 116.444 85.3155 115.019 87.0421 115.019" fill="#231F20"/>
<path fill-rule="evenodd" clip-rule="evenodd" d="M55.2044 60.6484C55.2044 60.6484 56.1151 62.127 56.7297 62.5844C57.3444 63.043 58.0017 62.4177 58.1657 62.2097C58.1657 62.2097 60.0524 63.3337 60.9951 63.3337C60.9951 63.3337 59.9284 65.083 60.5444 65.5004C61.1591 65.9164 62.7991 65.375 62.7991 65.375L65.0124 67.3337C65.0124 67.3337 63.9057 68.4564 64.5204 68.9564C65.1351 69.4564 66.7764 68.7484 66.7764 68.7484L68.7044 70.2484C68.7044 70.2484 68.0671 71.5497 68.4324 71.919C68.7964 72.291 69.3644 72.6617 70.7044 71.7964L72.2457 72.7444C72.2457 72.7444 72.0431 75.3404 72.6111 75.6697C72.6111 75.6697 73.6244 76.0817 73.5844 74.763C73.5431 73.4457 73.6657 72.703 73.6657 72.703L74.8017 71.631C74.8017 71.631 76.5857 73.651 76.9511 72.167C77.3164 70.6844 76.8697 70.3964 76.8697 70.3964L78.6964 69.1204C78.6964 69.1204 80.3924 70.6257 80.7551 69.5137L80.8297 72.0724C80.8297 72.0724 79.1497 72.1097 78.9671 71.443C78.7857 70.775 77.7271 76.7817 75.0231 74.1857C75.0231 74.1857 74.6231 77.335 72.8817 77.2684C71.1404 77.2004 70.6471 74.4644 70.6791 74.2324C70.7124 73.9977 67.1964 75.2324 66.8017 72.4617C66.8017 72.4617 66.6391 70.6604 66.7364 70.4924C66.8364 70.3257 62.6497 72.5857 62.4124 67.6897C62.4124 67.6897 58.0364 68.891 58.7164 64.507C58.7164 64.507 54.9684 66.039 53.1057 61.0804C53.2617 59.9657 54.7897 60.2857 55.2044 60.6484Z" fill="#DA4534"/>
<path fill-rule="evenodd" clip-rule="evenodd" d="M53.6289 65.6041V63.4188L72.8716 78.2494L80.6249 72.6748V75.0908L73.1556 80.4348L53.6289 65.6041Z" fill="#DA4534"/>
<path fill-rule="evenodd" clip-rule="evenodd" d="M63.4961 62.9921L71.9295 69.5307L81.6668 63.3281L81.0881 66.4934L72.6988 72.2494L61.0988 63.1641L63.4961 62.9921Z" fill="#DA4534"/>
<path fill-rule="evenodd" clip-rule="evenodd" d="M63.9492 62.4401L72.1092 68.7028L78.2959 64.7254L80.7932 63.9428L71.9412 69.9468L62.6332 62.7161L63.9492 62.4401Z" fill="#034EA1"/>
<path fill-rule="evenodd" clip-rule="evenodd" d="M59.3919 86.8319C57.4079 85.5906 55.4532 84.6572 53.6825 83.9586V68.8426L59.3919 72.8866V86.8319Z" fill="#EC1C24"/>
<path fill-rule="evenodd" clip-rule="evenodd" d="M103.039 144.469V42.8541L110.93 42.8181V152.289L103.039 144.469ZM102.575 42.3861V144.666L111.392 153.403V42.3461L102.575 42.3861Z" fill="#034EA1"/>
<path fill-rule="evenodd" clip-rule="evenodd" d="M105.966 49.7642C106.225 51.9522 110.131 56.0949 110.131 56.0949V52.4762C110.015 52.0389 108.925 50.3176 108.351 49.4136C107.775 48.5109 105.966 45.3309 105.966 45.3309V49.7642ZM108.514 43.2469C109.493 43.2469 110.29 44.0549 110.29 45.0442C110.29 46.0336 109.493 46.8416 108.514 46.8416C107.537 46.8416 106.739 46.0336 106.739 45.0442C106.739 44.0549 107.537 43.2469 108.514 43.2469V43.2469ZM105.966 63.4589C106.225 65.6482 110.131 69.7909 110.131 69.7909V66.1722C110.015 65.7349 108.925 64.0149 108.351 63.1096C107.775 62.2056 105.966 59.0256 105.966 59.0256V63.4589ZM108.514 56.9429C109.493 56.9429 110.29 57.7496 110.29 58.7389C110.29 59.7296 109.493 60.5362 108.514 60.5362C107.537 60.5362 106.739 59.7296 106.739 58.7389C106.739 57.7496 107.537 56.9429 108.514 56.9429V56.9429ZM105.966 77.1549C106.225 79.3429 110.131 83.4856 110.131 83.4856V79.8669C110.015 79.4296 108.925 77.7082 108.351 76.8042C107.775 75.9016 105.966 72.7216 105.966 72.7216V77.1549ZM108.514 70.6376C109.493 70.6376 110.29 71.4456 110.29 72.4349C110.29 73.4242 109.493 74.2322 108.514 74.2322C107.537 74.2322 106.739 73.4242 106.739 72.4349C106.739 71.4456 107.537 70.6376 108.514 70.6376V70.6376ZM105.966 90.8496C106.225 93.0389 110.131 97.1816 110.131 97.1816V93.5629C110.015 93.1256 108.925 91.4029 108.351 90.5002C107.775 89.5962 105.966 86.4162 105.966 86.4162V90.8496ZM108.514 84.3336C109.493 84.3336 110.29 85.1402 110.29 86.1296C110.29 87.1202 109.493 87.9269 108.514 87.9269C107.537 87.9269 106.739 87.1202 106.739 86.1296C106.739 85.1402 107.537 84.3336 108.514 84.3336V84.3336ZM105.966 104.546C106.225 106.735 110.131 110.876 110.131 110.876V107.258C110.015 106.82 108.925 105.099 108.351 104.195C107.775 103.292 105.966 100.112 105.966 100.112V104.546ZM108.514 98.0282C109.493 98.0282 110.29 98.8362 110.29 99.8256C110.29 100.815 109.493 101.623 108.514 101.623C107.537 101.623 106.739 100.815 106.739 99.8256C106.739 98.8362 107.537 98.0282 108.514 98.0282V98.0282ZM105.966 118.24C106.225 120.43 110.131 124.571 110.131 124.571V120.954C110.015 120.515 108.925 118.794 108.351 117.891C107.775 116.987 105.966 113.807 105.966 113.807V118.24ZM108.514 111.724C109.493 111.724 110.29 112.531 110.29 113.52C110.29 114.511 109.493 115.318 108.514 115.318C107.537 115.318 106.739 114.511 106.739 113.52C106.739 112.531 107.537 111.724 108.514 111.724V111.724ZM105.966 131.936C106.225 134.126 110.131 138.267 110.131 138.267V134.648C110.015 134.211 108.925 132.49 108.351 131.586C107.775 130.682 105.966 127.503 105.966 127.503V131.936ZM108.514 125.419C109.493 125.419 110.29 126.227 110.29 127.216C110.29 128.206 109.493 129.014 108.514 129.014C107.537 129.014 106.739 128.206 106.739 127.216C106.739 126.227 107.537 125.419 108.514 125.419V125.419ZM110.131 151.584V148.344C110.015 147.906 108.925 146.186 108.351 145.282C107.775 144.378 105.966 141.198 105.966 141.198V145.631C106.095 146.719 107.122 148.287 108.126 149.591L110.131 151.584ZM108.514 139.115C109.493 139.115 110.29 139.922 110.29 140.911C110.29 141.902 109.493 142.707 108.514 142.707C107.537 142.707 106.739 141.902 106.739 140.911C106.739 139.922 107.537 139.115 108.514 139.115" fill="#DA4534"/>
<path fill-rule="evenodd" clip-rule="evenodd" d="M23.7812 51.4635L30.2359 57.8809V161.062L23.7652 161.057V51.4662L23.7812 51.4635Z" fill="#231F20"/>
<path fill-rule="evenodd" clip-rule="evenodd" d="M28.8139 154.147C28.5552 151.959 24.6499 147.817 24.6499 147.817V151.435C24.7645 151.873 25.8565 153.594 26.4299 154.498C27.0045 155.402 28.8139 158.581 28.8139 158.581V154.147ZM26.2659 160.665C25.2885 160.665 24.4912 159.858 24.4912 158.867C24.4912 157.879 25.2885 157.071 26.2659 157.071C27.2432 157.071 28.0405 157.879 28.0405 158.867C28.0405 159.858 27.2432 160.665 26.2659 160.665ZM28.8139 140.453C28.5552 138.265 24.6499 134.122 24.6499 134.122V137.739C24.7645 138.177 25.8565 139.898 26.4299 140.802C27.0045 141.706 28.8139 144.886 28.8139 144.886V140.453ZM26.2659 146.969C25.2885 146.969 24.4912 146.162 24.4912 145.173C24.4912 144.183 25.2885 143.377 26.2659 143.377C27.2432 143.377 28.0405 144.183 28.0405 145.173C28.0405 146.162 27.2432 146.969 26.2659 146.969ZM28.8139 126.758C28.5552 124.569 24.6499 120.427 24.6499 120.427V124.045C24.7645 124.482 25.8565 126.203 26.4299 127.107C27.0045 128.01 28.8139 131.19 28.8139 131.19V126.758ZM26.2659 133.274C25.2885 133.274 24.4912 132.467 24.4912 131.477C24.4912 130.489 25.2885 129.681 26.2659 129.681C27.2432 129.681 28.0405 130.489 28.0405 131.477C28.0405 132.467 27.2432 133.274 26.2659 133.274V133.274ZM28.8139 113.063C28.5552 110.874 24.6499 106.731 24.6499 106.731V110.349C24.7645 110.786 25.8565 112.509 26.4299 113.411C27.0045 114.315 28.8139 117.495 28.8139 117.495V113.063ZM26.2659 119.578C25.2885 119.578 24.4912 118.771 24.4912 117.782C24.4912 116.793 25.2885 115.986 26.2659 115.986C27.2432 115.986 28.0405 116.793 28.0405 117.782C28.0405 118.771 27.2432 119.578 26.2659 119.578ZM28.8139 99.3672C28.5552 97.1779 24.6499 93.0365 24.6499 93.0365V96.6539C24.7645 97.0912 25.8565 98.8125 26.4299 99.7165C27.0045 100.619 28.8139 103.799 28.8139 103.799V99.3672ZM26.2659 105.883C25.2885 105.883 24.4912 105.075 24.4912 104.087C24.4912 103.098 25.2885 102.29 26.2659 102.29C27.2432 102.29 28.0405 103.098 28.0405 104.087C28.0405 105.075 27.2432 105.883 26.2659 105.883ZM28.8139 85.6725C28.5552 83.4832 24.6499 79.3419 24.6499 79.3419V82.9579C24.7645 83.3966 25.8565 85.1179 26.4299 86.0205C27.0045 86.9259 28.8139 90.1045 28.8139 90.1045V85.6725ZM26.2659 92.1872C25.2885 92.1872 24.4912 91.3805 24.4912 90.3912C24.4912 89.4019 25.2885 88.5966 26.2659 88.5966C27.2432 88.5966 28.0405 89.4019 28.0405 90.3912C28.0405 91.3805 27.2432 92.1872 26.2659 92.1872V92.1872ZM28.8139 71.9765C28.5552 69.7885 24.6499 65.6445 24.6499 65.6445V69.2632C24.7645 69.7006 25.8565 71.4219 26.4299 72.3259C27.0045 73.2299 28.8139 76.4085 28.8139 76.4085V71.9765ZM26.2659 78.4925C25.2885 78.4925 24.4912 77.6845 24.4912 76.6965C24.4912 75.7085 25.2885 74.9006 26.2659 74.9006C27.2432 74.9006 28.0405 75.7085 28.0405 76.6965C28.0405 77.6845 27.2432 78.4925 26.2659 78.4925ZM24.6499 52.3285V55.5672C24.7645 56.0059 25.8565 57.7272 26.4299 58.6299C27.0045 59.5339 28.8139 62.7139 28.8139 62.7139V58.2805C28.6859 57.1939 27.6579 55.6245 26.6552 54.3205L24.6499 52.3285ZM26.2659 64.7965C25.2885 64.7965 24.4912 63.9899 24.4912 63.0005C24.4912 62.0112 25.2885 61.2045 26.2659 61.2045C27.2432 61.2045 28.0405 62.0112 28.0405 63.0005C28.0405 63.9899 27.2432 64.7965 26.2659 64.7965" fill="#DA4534"/>
<path fill-rule="evenodd" clip-rule="evenodd" d="M88.2878 62.6927L87.7744 63.5353L86.6678 62.8913L86.8664 62.4113L84.2171 61.4073L82.4798 62.9327L82.0438 66.5047L87.8931 67.226L87.6558 69.9567L85.9571 69.9167L85.9971 68.914L81.6891 67.99L81.4518 74.0513L86.9438 74.4927L87.0198 76.922L85.5864 77.1794L85.3758 75.8953L81.2478 75.938L81.3718 81.0727L87.1464 80.9873V83.2127L85.5864 83.3847V82.614H81.5411L81.9824 87.8353L87.6478 87.2113L88.0571 89.9847L86.7598 90.262L86.3504 89.0127L82.3918 89.5673L83.0744 94.3513L88.4664 93.7273L89.1491 96.57L87.6478 96.846L87.1011 95.8073L83.6211 96.57L85.1904 101.423L90.1731 100.314L90.9238 102.81L89.7624 103.433L89.2171 102.393L85.6678 103.223L87.4424 108.217L92.6638 106.493L93.5931 108.79L92.3571 109.534L91.6731 108.285L88.1584 109.706L90.4664 114.538L95.1971 112.042L96.6398 114.319L95.2264 115.005L94.6118 114.007L91.4184 115.847L94.3051 120.619L98.6424 118.007L100.078 120.253L99.0838 120.982L98.4211 120.197L94.8264 122.274L97.8131 125.701L102.125 123.171V122.05L98.6971 124.351L97.0384 122.554L98.0344 121.657L98.8624 122.386L102.069 120.141L99.3051 116.042L94.6064 118.793L93.1131 116.435L94.3291 115.593L94.9371 116.435L98.6971 114.638L96.5398 110.427L91.2891 112.785L90.2384 110.821L91.1238 110.202L91.6758 110.989L95.5998 109.135L93.9824 104.651L88.0278 106.441L86.9224 103.969L88.1931 103.521L88.8571 104.587L93.3451 103.255L91.9024 99.1647L86.0318 100.022L85.2358 97.546L86.6784 97.1927L87.1264 98.6073L91.6038 97.4953L90.2918 92.322L84.4651 93.1553L83.8891 90.7367L85.3678 90.4033L85.6131 91.4873L90.0451 90.654L89.2238 86.1527L83.3158 86.3207L83.0704 83.902L84.3824 83.7353L84.6278 84.654L89.0184 84.4447L88.6918 79.9433H82.9051V77.1927H84.4651V78.2767L88.6091 78.318L88.5731 72.966L83.2904 72.5913L83.4011 69.3647L84.8051 69.514L84.9518 71.2767L88.6091 71.2033L89.3158 66.7273L83.8291 65.4793L84.0944 63.25L85.4904 63.1487L85.7571 64.1273L89.3798 65.174L89.5798 63.3513L88.2878 62.6927Z" fill="white"/>
<path fill-rule="evenodd" clip-rule="evenodd" d="M100.332 66.6874C103.001 65.0701 103.624 65.3861 103.831 65.4567C104.039 65.5274 104.767 64.9647 104.907 65.6327C105.043 66.3021 105.043 67.3914 105.424 66.3021C105.805 65.2114 106.083 65.5621 106.464 65.8794C106.845 66.1954 107.191 67.0047 105.909 67.5327C104.629 68.0594 103.624 68.2354 103.277 68.6594C102.931 69.0807 101.615 70.0301 101.892 70.5567C102.169 71.0861 102.931 71.2261 102.86 72.7394C102.792 74.2514 103.172 76.7834 101.752 76.7141C100.332 76.6434 98.116 76.4674 98.0133 73.8647C97.896 70.9501 97.1 68.6514 100.332 66.6874Z" fill="white"/>
<path fill-rule="evenodd" clip-rule="evenodd" d="M96.7096 67.1119C96.2909 68.4893 95.2563 72.7453 96.9923 76.8453C96.0056 77.7733 94.3243 79.0799 92.0829 79.8373C92.9776 78.5533 94.9896 75.7693 94.6109 75.4266C94.0656 74.9333 92.9069 74.0053 92.9069 74.0053L94.9149 71.7199L92.7869 69.3719L94.8536 67.5813L93.5816 65.3919L96.7096 67.1119Z" fill="#231F20"/>
<path fill-rule="evenodd" clip-rule="evenodd" d="M41.0104 60.2278V81.2971L35.6864 74.1438V63.0438L41.0104 60.2278Z" fill="#231F20"/>
<path fill-rule="evenodd" clip-rule="evenodd" d="M60.4921 87.5495C62.6201 89.0001 64.7548 90.8175 66.7068 93.0908C69.2655 96.0721 71.0215 98.6828 72.5041 100.951V83.1881L60.4921 74.1828V87.5495Z" fill="#DA4534"/>
<path fill-rule="evenodd" clip-rule="evenodd" d="M80.3555 78.414L75.8488 81.6433L75.7715 101.231L82.7275 96.79C82.7275 96.79 80.9208 89.69 80.3555 78.414Z" fill="#EC1C24"/>
<path fill-rule="evenodd" clip-rule="evenodd" d="M89.6784 82.483L95.4931 79.2297C95.4931 79.2297 99.6224 91.3844 102.404 94.8097V118.666C102.404 118.666 91.7051 105.143 89.6784 82.483Z" fill="#EC1C24"/>
<path fill-rule="evenodd" clip-rule="evenodd" d="M91.5156 83.0235L94.3423 81.5248C94.3423 81.5248 98.9169 93.3115 101.033 94.6981V111.923C101.033 111.923 92.6103 97.5568 91.5156 83.0235Z" fill="#231F20"/>
<path fill-rule="evenodd" clip-rule="evenodd" d="M61.9479 80.177L64.6052 82.5837V78.797L61.9479 76.8877V80.177ZM65.6185 81.929V79.7037L66.6959 80.797L65.6185 81.929ZM61.8799 81.349L63.4345 82.9223L61.9105 82.9197L61.8799 81.349ZM70.9399 95.9197L69.3852 94.3437L70.9105 94.3477L70.9399 95.9197ZM66.2079 83.7157C65.1439 83.7743 64.1705 84.1877 63.4012 84.8397C64.0225 85.8677 65.0145 86.1743 65.6639 85.517C66.0639 85.1143 66.2479 84.437 66.2079 83.7157ZM63.0385 85.1823C62.3425 85.909 61.8679 86.8543 61.7292 87.9037C62.8985 88.2023 63.8332 87.7077 63.8332 86.7677C63.8332 86.2277 63.5239 85.6503 63.0385 85.1823V85.1823ZM69.8759 91.9317C70.6212 91.1637 71.1159 90.1463 71.2252 89.017C71.1105 88.969 70.9945 88.9277 70.8772 88.893C69.6505 88.5277 68.6505 89.021 68.6505 89.993C68.6505 90.6797 69.1492 91.425 69.8759 91.9317V91.9317ZM71.2412 88.3023C71.1852 87.169 70.7412 86.1397 70.0412 85.341C69.9852 85.369 69.9292 85.3957 69.8772 85.4263C68.7545 86.0437 68.3932 87.109 69.0732 87.797C69.5412 88.273 70.3919 88.445 71.2412 88.3023ZM69.6052 84.9037C68.8292 84.217 67.8332 83.781 66.7399 83.717C66.3945 84.945 66.8812 85.9423 67.8359 85.9423C68.4505 85.9423 69.1132 85.529 69.6052 84.9037ZM61.6999 88.413C61.5412 88.293 61.3812 88.1757 61.2199 88.0597C61.4652 85.3503 63.7279 83.2157 66.4679 83.2157C69.3665 83.2157 71.7345 85.6117 71.7345 88.5463C71.7345 91.1917 69.8145 93.3983 67.3132 93.8103C67.1892 93.661 67.0639 93.5117 66.9359 93.3597C67.8279 93.2717 68.6492 92.9343 69.3292 92.417C69.2799 92.2943 69.2252 92.1743 69.1625 92.0583C68.5519 90.9237 67.4985 90.557 66.8199 91.245C66.5039 91.565 66.3225 92.057 66.2812 92.6063C66.1399 92.4463 65.9959 92.289 65.8519 92.1357C65.8025 91.3597 65.3519 90.8183 64.6492 90.8183C64.6172 90.8183 64.5852 90.8197 64.5519 90.8223C64.2759 90.5597 63.9999 90.3063 63.7199 90.0597C63.8145 89.6677 63.7212 89.277 63.4119 88.965C63.0265 88.5757 62.3879 88.3877 61.6999 88.413" fill="#231F20"/>
<path fill-rule="evenodd" clip-rule="evenodd" d="M92.0847 79.8371C92.978 78.5518 94.9914 75.7678 94.6114 75.4265C94.0647 74.9318 92.9087 74.0051 92.9087 74.0051L94.9154 71.7185L92.786 69.3718L94.854 67.5811L93.582 65.3918L90.5967 63.7505C88.7714 67.9505 89.7434 80.3691 89.7434 80.3691C90.5794 80.2705 91.362 80.0811 92.0847 79.8371Z" fill="#DA4534"/>
<path fill-rule="evenodd" clip-rule="evenodd" d="M43.4153 58.9948V60.7934H48.1273V65.7601H44.1873V64.4868H42.8727V66.9708H48.0073V72.7268H43.9487V71.2628H42.874V74.0281H48.1273V78.9668H44.1233V77.7614H42.8353V80.3854H48.2047V82.7294L46.7753 82.3388V81.1894H41.7713V76.1561H45.5567V77.5708H46.8193V75.0081H41.7727V69.7508H45.426V70.9014H46.8193V68.6041H41.778V63.2361H45.374V64.3508H46.7113V62.0201H41.918V59.7628L43.4153 58.9948ZM47.706 56.7948L44.19 58.5974V59.8228H48.1273V56.7948H47.706Z" fill="white"/>
<path fill-rule="evenodd" clip-rule="evenodd" d="M90.1693 64.7395L91.3867 67.2702L88.9533 69.4955L91.0213 72.2142L88.892 74.7475L91.2027 76.2915L89.1973 79.6902L89.3787 80.6795L92.116 76.4782L90.048 74.5622L91.9947 72.3995L90.048 69.6808L92.116 67.5182L90.292 63.2555L90.1693 64.7395Z" fill="#020300"/>
<path fill-rule="evenodd" clip-rule="evenodd" d="M96.9922 76.8463C95.2562 72.745 96.2908 68.4876 96.7095 67.1116L98.0828 67.8676C98.0828 67.8676 96.5588 73.7236 98.0135 75.7623C98.0135 75.7623 97.6588 76.2183 96.9922 76.8463Z" fill="#DA4534"/>
<path fill-rule="evenodd" clip-rule="evenodd" d="M83.2852 98.7057L84.7785 103.872L78.3012 108.375L74.6825 104.139L83.2852 98.7057Z" fill="#231F20"/>
<path fill-rule="evenodd" clip-rule="evenodd" d="M74.7109 104.214C74.4456 103.834 74.1069 103.472 73.8389 103.068L82.8589 97.5095L83.3069 98.7348L74.7109 104.214Z" fill="#DA4534"/>
<path fill-rule="evenodd" clip-rule="evenodd" d="M79.2044 109.065C78.8577 108.82 78.5284 108.566 78.2151 108.301L84.8244 103.88L85.2271 105.27L79.2044 109.065Z" fill="#DA4534"/>
<path fill-rule="evenodd" clip-rule="evenodd" d="M37.6289 181.542H90.4943L80.8543 165.934C80.8543 165.934 61.5783 170.403 46.0743 166.042L37.6289 181.542Z" fill="#034EA1"/>
<path fill-rule="evenodd" clip-rule="evenodd" d="M39.297 181.542H88.8689L79.7009 166.998C79.7009 166.998 62.9396 171.254 47.1223 167.423L39.297 181.542Z" fill="#EC1C24"/>
<path fill-rule="evenodd" clip-rule="evenodd" d="M63.1549 172.091C62.6549 172.091 62.2483 171.679 62.2483 171.174C62.2483 170.67 62.6549 170.258 63.1549 170.258C63.6536 170.258 64.0629 170.67 64.0629 171.174C64.0629 171.679 63.6536 172.091 63.1549 172.091Z" fill="white"/>
<path fill-rule="evenodd" clip-rule="evenodd" d="M75.7175 171.12C75.2841 171.12 74.9281 170.76 74.9281 170.321C74.9281 169.882 75.2841 169.524 75.7175 169.524C76.1508 169.524 76.5055 169.882 76.5055 170.321C76.5055 170.76 76.1508 171.12 75.7175 171.12Z" fill="white"/>
<path fill-rule="evenodd" clip-rule="evenodd" d="M50.5052 171.12C50.0706 171.12 49.7159 170.76 49.7159 170.321C49.7159 169.882 50.0706 169.524 50.5052 169.524C50.9399 169.524 51.2946 169.882 51.2946 170.321C51.2946 170.76 50.9399 171.12 50.5052 171.12Z" fill="white"/>
<path fill-rule="evenodd" clip-rule="evenodd" d="M50.6172 181.542H51.8892L54.2292 171.148L53.2452 170.958C53.2452 170.958 52.1879 173.223 50.1092 172.839C48.0319 172.455 47.6519 170.574 47.6519 170.383L46.7839 170.23L41.1412 181.542H42.5719L47.0559 172.454C47.0559 172.454 49.3119 174.767 52.4186 173.495L50.6172 181.542Z" fill="white"/>
<path fill-rule="evenodd" clip-rule="evenodd" d="M70.9232 181.542H71.8699L69.4565 171.239H68.1925C68.1925 171.239 66.8365 174.107 62.8552 173.902C58.8739 173.696 58.0672 171.343 58.0672 171.343L56.9792 171.088L54.8605 181.542H56.0392L57.6645 173.184C57.6645 173.184 63.7619 177.28 68.8019 172.827L70.9232 181.542Z" fill="white"/>
<path fill-rule="evenodd" clip-rule="evenodd" d="M84.7917 181.542H86.4171L79.3931 170.154L78.3517 170.52C78.3517 170.52 78.8491 171.624 76.3131 172.407C73.7757 173.19 72.5531 170.844 72.5531 170.844L71.5104 171.026L74.6997 181.542H76.0557L73.5037 173.328C77.3104 174.754 79.0757 172.084 79.0757 172.084L84.7917 181.542Z" fill="white"/>
<path fill-rule="evenodd" clip-rule="evenodd" d="M90.8815 33.8762L91.9535 31.9109C92.1375 31.9829 92.3015 32.1256 92.3015 32.3669C92.3015 32.8722 92.3802 33.4589 92.5988 33.2762C92.8175 33.0936 93.4735 32.5696 93.5535 33.4162C93.6322 34.2656 93.7135 34.6882 93.9908 34.4269C94.2695 34.1642 95.0242 34.1042 95.0442 34.4269C95.0655 34.7496 94.8855 36.4042 95.3442 36.4869C95.7988 36.5682 96.2175 36.4256 96.2575 37.1522C96.2975 37.8802 96.5362 37.4962 97.2708 37.6176C98.0068 37.7376 96.8135 36.8496 97.5495 36.8496C98.2855 36.8496 98.0668 36.5869 97.7082 36.4869C97.3522 36.3856 96.3175 35.7989 96.7948 35.8402C97.2708 35.8802 97.3522 35.3962 97.2508 35.3749C97.1522 35.3549 97.0322 35.1536 96.5162 34.9309C96.0002 34.7096 95.3028 34.2242 95.6602 34.2242C96.0188 34.2242 96.3175 33.8416 96.1188 33.7402C95.9202 33.6389 94.4882 32.5882 94.6082 32.5282C94.7268 32.4682 95.6202 32.0442 94.9655 31.9629C94.3082 31.8829 93.2148 30.9136 93.2148 30.9136C93.2148 30.9136 94.2895 30.5296 94.1495 30.4496C94.0615 30.3976 93.5282 29.9936 93.1522 29.7069L94.4255 27.3722C95.3015 28.0762 96.3562 30.3936 96.6188 30.9376C96.9295 31.5909 99.6308 39.0376 99.6308 39.0376C93.4668 38.9442 91.3988 35.1349 90.8815 33.8762ZM85.7695 58.5282L85.7828 58.5562L85.7695 58.5282ZM76.6148 59.1976C76.6148 59.1976 79.6388 59.9656 81.3855 59.1976C81.3855 59.1976 81.8282 59.1976 81.3335 59.6749C80.8388 60.1522 80.0562 60.3376 80.4468 60.8136C80.8388 61.2909 80.3695 61.2376 79.9002 61.0002C79.4308 60.7602 78.5695 60.7349 78.2308 61.1042C77.8922 61.4762 77.5522 61.2642 77.9175 60.8669C78.2828 60.4682 77.2922 59.9922 77.0308 59.9402C76.7708 59.8869 76.0668 59.3309 76.6148 59.1976V59.1976ZM75.4988 56.2496C75.4988 56.2496 76.8322 57.0682 77.9428 56.4296C79.0535 55.7922 79.0055 56.5616 79.1015 56.6096C79.1975 56.6589 79.5682 56.8216 80.2282 56.4469C80.8882 56.0709 80.8708 56.2176 81.4042 56.5282C81.9348 56.8389 82.1908 56.5442 82.6268 56.2176H82.9975V58.1949C82.9975 58.1949 82.4028 58.0976 82.2722 58.0149C82.1428 57.9349 81.0802 57.8682 80.4375 58.0802C79.7948 58.2936 78.8602 58.5882 77.5735 58.3589C76.2855 58.1296 76.8162 57.8856 75.7215 58.0322C74.6268 58.1802 74.4508 58.1629 74.6428 57.8856C74.8362 57.6069 75.5162 56.2496 75.4988 56.2496ZM77.2655 50.9109C77.2655 50.9109 75.8548 52.2322 76.7495 52.9949C77.6415 53.7589 78.7228 52.6136 78.8335 52.5176C78.9428 52.4216 79.8042 51.8336 80.1948 52.2162C80.5882 52.5976 80.3842 53.2816 79.1308 53.7429C77.8775 54.2042 76.6082 54.0149 76.2482 53.6469C75.8868 53.2816 75.3708 52.4216 76.6868 50.8149C76.6868 50.8149 77.0935 50.3856 77.3122 50.5136C77.5322 50.6402 77.3122 50.9109 77.2655 50.9109V50.9109ZM82.9868 44.6536C82.9868 44.6536 83.3962 45.5709 83.6188 45.7442C83.8415 45.9189 83.3295 46.2656 82.9868 46.0736C82.6468 45.8842 81.9468 45.2936 82.1002 44.9816C82.2535 44.6709 83.0055 44.6709 82.9868 44.6536ZM84.2855 44.4149C84.2855 44.4149 84.3922 45.3962 85.1122 45.5309C85.8322 45.6669 86.1548 44.8389 86.1548 44.8389L86.6468 44.9336C86.6468 44.9336 86.3828 46.2242 85.1695 46.2429C83.9562 46.2629 83.7028 45.0242 83.7028 44.8909C83.7028 44.7549 84.2855 44.4149 84.2855 44.4149V44.4149ZM82.1095 44.0002C82.1095 44.0002 83.3308 42.9522 84.4255 42.7176C85.5202 42.4816 87.5428 43.0602 87.5642 43.6589C87.5855 44.2576 87.0588 43.9789 85.7948 43.5522C84.5308 43.1242 82.1095 44.0002 82.1095 44.0002V44.0002ZM87.7868 42.1722L87.6802 43.0962C86.0908 41.5562 82.4708 42.7522 82.4708 42.7522C83.2028 41.4296 84.7002 41.0482 84.7002 41.0482C87.5362 40.7229 87.7868 42.1722 87.7868 42.1722V42.1722ZM76.4455 44.5162C76.4455 44.5162 77.3735 44.8762 77.3735 45.1429C77.3735 45.4082 76.4855 46.1869 76.1535 45.9829C75.8188 45.7789 76.4455 44.5162 76.4455 44.5162V44.5162ZM73.3215 44.1202C73.3215 44.1202 73.4188 45.2709 74.4988 45.2296C75.5775 45.1869 75.5362 44.2029 75.5362 44.2029L75.9655 44.4562C75.9655 44.4562 75.7722 45.9896 74.2362 45.8202C72.6975 45.6509 72.7495 44.4762 72.7788 44.2376L73.3215 44.1202ZM72.2788 44.1642C72.2788 44.1642 72.0642 45.3202 72.3415 45.5389C72.6188 45.7576 70.8188 45.1949 70.8495 44.8509C70.8802 44.5082 72.2962 44.1482 72.2788 44.1642V44.1642ZM70.6642 41.7376C70.8068 41.0776 73.6028 39.8122 74.7415 39.7389C75.8775 39.6669 78.2402 40.2349 78.6015 41.1149C78.9628 41.9936 77.2308 41.4816 76.1122 40.9669C74.9935 40.4549 70.6642 41.7376 70.6642 41.7376V41.7376ZM88.1735 43.5629C88.6922 45.6856 89.6762 49.4109 90.2855 49.9056C90.6202 50.1789 91.0708 50.1362 91.5575 50.0909C92.3468 50.0149 93.2628 49.9309 93.4842 51.6909C93.5468 52.1962 93.4935 52.5802 93.3642 52.8696C93.2002 53.2376 92.9042 53.4602 92.5668 53.5856C92.2082 53.7216 91.8015 53.7522 91.4442 53.7376C90.9868 53.7162 90.6388 53.6296 90.5762 53.5802L90.5628 53.5696L90.5535 53.5642C90.5468 53.5602 88.1335 52.0949 87.7095 50.3482C87.7868 49.3096 87.7842 48.5682 87.7842 48.3042H87.7855V48.2629C87.7855 48.2082 87.7895 48.1269 87.7948 48.0229L88.0415 44.9802L88.1735 43.5629ZM67.2228 36.1562C67.7508 36.1229 68.2908 36.0909 68.8388 36.0642C68.5628 37.2482 67.5295 41.7736 67.5295 43.1642C67.5295 44.1509 67.0855 48.8536 66.2028 52.9456C65.7028 55.2522 65.0668 57.3562 64.2975 58.4602C64.2575 58.1962 64.1948 57.9162 64.1082 57.6389C63.9668 57.2002 63.7615 56.7656 63.4748 56.4002C63.7842 56.0309 64.1148 55.2616 64.4095 54.4016C64.8895 52.9896 65.2895 51.2989 65.2895 50.8069C65.2895 50.3909 65.5295 48.6829 65.7575 47.0629C65.9655 45.5762 66.1668 44.1629 66.1668 43.8336C66.1668 43.2416 67.0375 37.3869 67.2228 36.1562V36.1562ZM57.8868 37.2482C57.4188 40.2802 55.6108 51.7442 55.0095 52.1016L55.0722 52.2069H55.0708C54.9788 52.0909 54.8828 51.9869 54.7828 51.8962H54.7815C54.3575 51.5042 53.8762 51.3109 53.3695 51.2936C55.0415 48.9349 56.0215 40.1122 56.2802 37.5056C56.6202 37.4429 56.9908 37.3776 57.3935 37.3082L57.8868 37.2482ZM60.0375 36.9882C59.4722 40.2442 57.3508 52.2709 56.8535 52.5722L56.9362 52.7069C56.7162 52.7029 56.4828 52.7376 56.2415 52.8096L56.2082 52.7789C56.0228 52.5936 55.7495 52.3989 55.4028 52.2842C56.2602 50.5856 57.9548 39.8616 58.3642 37.1896L60.0375 36.9882ZM61.8268 36.7709C61.4415 38.8802 60.3508 44.8909 60.2428 45.7736C60.1762 46.3069 59.9295 48.2456 59.5695 50.0629C59.2228 51.8016 58.7948 53.4282 58.3975 53.4789L58.4135 53.6042C58.3828 53.6002 58.3535 53.5989 58.3202 53.5962L58.2588 53.5949C58.1908 53.4016 58.0882 53.2376 57.9588 53.1069C57.7695 52.9136 57.5228 52.7909 57.2428 52.7376C58.0348 50.9629 60.0175 39.7989 60.5175 36.9296L61.8268 36.7709ZM63.2962 36.5922C62.9495 38.2656 61.9455 43.2269 61.8908 44.8549C61.8508 46.0376 61.5388 49.2002 60.9695 51.6256C60.6562 52.9602 60.2802 54.0549 59.8508 54.4149C59.5482 54.0749 59.2122 53.8256 58.8348 53.6949C59.3188 53.1322 59.7188 51.6802 60.0228 50.1509C60.3882 48.3149 60.6348 46.3656 60.7002 45.8282C60.8122 44.9242 61.9508 38.6722 62.3068 36.7122L63.2962 36.5922ZM65.0788 36.3749C64.8868 37.3989 64.0815 41.7496 64.0162 43.3416C63.9708 44.4122 63.4308 48.2336 62.7508 51.3509C62.3695 53.1029 61.9508 54.6202 61.5668 55.2629C61.2068 54.8536 60.8095 54.6122 60.3442 54.5469C60.7788 53.9869 61.1348 52.9456 61.4215 51.7322C61.9962 49.2802 62.3108 46.0709 62.3522 44.8696C62.4095 43.2296 63.4708 38.0229 63.7815 36.5336L65.0788 36.3749ZM66.4122 36.2136L66.7508 36.1896C66.5375 37.6202 65.7015 43.2416 65.7015 43.8336C65.7015 44.1376 65.5055 45.5336 65.2988 46.9976C65.0695 48.6376 64.8255 50.3669 64.8255 50.8069C64.8255 51.2629 64.4362 52.8829 63.9695 54.2522C63.6948 55.0589 63.4028 55.7669 63.1655 56.0629C62.8468 55.7682 62.4508 55.5536 61.9735 55.4709C62.3962 54.7256 62.8242 53.1922 63.2055 51.4496C63.8895 48.3122 64.4335 44.4509 64.4775 43.3589C64.5442 41.7082 65.4388 36.9562 65.5602 36.3176L66.4122 36.2136ZM71.2282 35.9789C76.6575 35.8589 82.6895 36.2442 88.2668 37.7482C88.2215 38.2256 88.1308 39.1242 88.0268 40.2042C87.6962 40.2029 86.8855 40.1976 86.1522 40.1722C85.2028 40.1376 81.5415 40.7682 81.3135 43.7922C81.0842 46.8122 81.2148 48.1069 81.4442 48.8376C81.6735 49.5682 82.6082 51.5949 82.4055 52.4762C82.2028 53.3562 80.6428 54.3536 80.6428 54.3536C80.6428 54.3536 83.2722 54.1776 83.4162 52.2402C83.4162 52.2402 83.3295 51.5082 82.8388 50.8322C82.3468 50.1562 81.4215 46.9589 82.0868 46.9869C82.0868 46.9869 82.9548 47.0469 83.4735 47.6042C83.9948 48.1616 85.2082 48.8656 84.9482 48.3669C84.6868 47.8682 83.3868 47.0162 83.7922 46.8416C84.1962 46.6656 87.1215 46.5656 87.3828 46.1256C87.4202 46.0576 87.4615 45.9736 87.4975 45.8802C87.4162 46.8056 87.3562 47.5656 87.3335 47.9869L87.1842 49.8176L87.1828 49.8362C87.1828 50.0109 87.2002 50.1869 87.2388 50.3576L87.2375 50.4189L87.2322 50.5416C86.9028 54.5896 85.3922 62.6402 78.4535 64.4189L78.4322 64.4242L78.4188 64.4296C78.4095 64.4349 74.8455 66.0709 66.8655 59.6296C67.0802 59.1829 67.2762 58.7122 67.4495 58.2242C68.4735 55.3656 68.8482 51.9589 68.8868 50.3202C68.9095 49.3696 69.2282 47.2056 69.6268 44.8136C70.0042 44.9336 71.1002 45.2936 71.3322 45.5509C71.6135 45.8616 73.7802 46.5856 74.6468 46.5856C75.5135 46.5856 73.5762 47.5442 73.3468 47.7522C73.1175 47.9589 75.3362 47.7269 76.8642 46.6896C78.3948 45.6549 78.3442 45.1869 77.9868 44.7469C77.6295 44.3069 77.9868 44.0496 78.3175 43.8669C78.6482 43.6856 77.7575 42.7536 77.2975 42.5469C76.8402 42.3402 74.3655 41.5109 71.1282 42.5989C70.2295 43.0109 70.6282 43.2029 70.6282 43.2029C70.6282 43.2029 73.4735 42.3642 74.2895 42.4429C75.1055 42.5202 77.3748 42.7029 77.8068 43.5576C78.2415 44.4109 76.6615 43.6082 76.5588 43.5056C76.4562 43.4016 73.4228 42.8562 71.6135 43.7376C70.4095 44.3229 69.8708 44.5882 69.6442 44.7002C70.2228 41.2496 70.9615 37.3629 71.2282 35.9789V35.9789ZM58.8228 61.3482C58.6908 60.5056 58.2468 56.8029 60.6042 56.0522C60.9815 55.9322 61.3215 55.8856 61.6228 55.8989C62.1802 55.9202 62.6135 56.1509 62.9428 56.4896C63.2815 56.8389 63.5175 57.3042 63.6682 57.7789C63.8188 58.2522 63.8855 58.7349 63.8908 59.1162C63.4308 59.8469 62.5455 61.1016 61.8642 61.1402C61.7908 61.1442 61.7148 61.1402 61.6442 61.1296C61.2815 61.0722 60.9508 60.8256 60.7002 60.5002C60.4455 60.1669 60.2802 59.7549 60.2575 59.3776C60.2522 59.2816 60.2562 59.1869 60.2695 59.1002C60.3015 58.8989 60.3748 58.7136 60.4735 58.5576C60.5962 58.3589 60.7628 58.2056 60.9415 58.1082L60.9428 58.1069C61.1122 58.0149 61.2935 57.9762 61.4615 58.0029C61.5415 58.0149 61.6202 58.0442 61.6922 58.0882V58.0896C62.2188 58.4202 62.1148 59.1682 62.1148 59.1696L62.5762 59.2109C62.5762 59.2082 62.7202 58.1896 61.9388 57.6976C61.8095 57.6189 61.6735 57.5682 61.5335 57.5456C61.2615 57.5029 60.9788 57.5629 60.7228 57.7002C60.4735 57.8349 60.2482 58.0442 60.0828 58.3096C59.9522 58.5176 59.8548 58.7602 59.8122 59.0282C59.7948 59.1496 59.7882 59.2762 59.7975 59.4042C59.8228 59.8722 60.0228 60.3776 60.3335 60.7816C60.6495 61.1936 61.0842 61.5082 61.5735 61.5856C61.6775 61.6016 61.7842 61.6096 61.8908 61.6016C62.7842 61.5496 63.8202 60.0909 64.3122 59.3122H64.3508L64.3522 59.2482C64.4828 59.0376 64.5695 58.8869 64.5935 58.8442C65.4428 57.7069 66.1295 55.4789 66.6548 53.0416C67.5468 48.9176 67.9922 44.1656 67.9922 43.1642C67.9922 41.7576 69.0988 36.9709 69.3162 36.0416C69.7922 36.0202 70.2695 36.0029 70.7535 35.9896C70.2695 38.5122 68.4815 47.9682 68.4242 50.3096C68.3868 51.9189 68.0202 55.2629 67.0148 58.0682C66.3722 59.8616 65.4708 61.4269 64.2335 62.1456C64.0055 62.2509 60.0988 64.0002 58.8815 61.4669L58.8228 61.3482ZM56.7615 60.3042C56.6722 59.7216 56.3615 57.0909 57.9095 55.9656C58.8002 55.3176 59.4922 55.0002 60.0535 54.9896C60.4562 54.9842 60.8002 55.1442 61.1175 55.4616C60.9095 55.4909 60.6922 55.5389 60.4642 55.6122C57.8348 56.4509 58.2002 60.2762 58.3535 61.3336C57.9308 61.3016 57.1748 61.1402 56.8188 60.4176L56.7628 60.3042H56.7615ZM55.1548 59.5602C55.0655 58.9056 54.8482 56.4962 56.2468 55.1296C57.0575 54.3456 57.7335 54.0309 58.2988 54.0589C58.7175 54.0776 59.0882 54.2869 59.4175 54.6296C58.9015 54.7802 58.3175 55.0962 57.6362 55.5909C55.9948 56.7842 56.1735 59.3722 56.2842 60.2282C55.8962 60.1456 55.3162 59.9829 55.2188 59.7216L55.1602 59.5602H55.1548ZM53.6468 59.0376C53.5522 58.4482 53.3442 56.5002 54.4015 54.8642C54.8362 54.1896 55.3748 53.7162 55.9042 53.4429C56.2668 53.2562 56.6228 53.1642 56.9322 53.1696C57.2175 53.1722 57.4628 53.2602 57.6308 53.4309C57.6895 53.4909 57.7402 53.5642 57.7802 53.6469C57.2228 53.7749 56.6068 54.1376 55.9255 54.7989C54.4108 56.2736 54.5908 58.7896 54.6895 59.5709C54.3428 59.5576 53.8042 59.4962 53.7468 59.2296L53.7042 59.0349L53.6468 59.0376ZM51.7202 58.3696C51.6975 57.8282 51.6522 54.9509 53.0442 53.5536C53.1482 53.4482 53.2562 53.3509 53.3602 53.2629H53.3588C53.9735 52.7509 54.5108 52.6149 54.9415 52.6562C55.2828 52.6896 55.5642 52.8376 55.7615 52.9976L55.6908 53.0322C55.0962 53.3402 54.4922 53.8682 54.0108 54.6149C52.9135 56.3096 53.0748 58.3122 53.1815 59.0376C52.7535 59.0056 52.0268 58.8762 51.7202 58.3722V58.3696ZM50.0402 57.2056C50.0255 56.6176 50.0335 54.1269 51.1468 52.9242C51.3575 52.6962 51.5762 52.4976 51.7988 52.3322C52.2748 51.9789 52.7628 51.7789 53.2215 51.7576C53.6602 51.7376 54.0788 51.8829 54.4482 52.2162C54.0295 52.2869 53.5642 52.4922 53.0655 52.9082H53.0642C52.9522 53.0016 52.8362 53.1069 52.7162 53.2269C51.3388 54.6109 51.2428 57.2429 51.2508 58.1629C50.8402 58.0149 50.1802 57.7202 50.0735 57.3202L50.0415 57.2056H50.0402ZM48.6375 56.0442C48.5602 55.4629 48.3802 53.3722 49.6508 51.9816C50.4095 51.1536 50.9068 50.7642 51.2508 50.6149C51.5228 50.4962 51.6788 50.5522 51.7988 50.6296C51.9815 50.7509 52.2482 50.9816 52.4495 51.2002C52.5162 51.2736 52.5735 51.3416 52.6162 51.3962C52.2482 51.5042 51.8828 51.6949 51.5228 51.9602C51.2828 52.1416 51.0415 52.3589 50.8082 52.6109C49.6855 53.8242 49.5748 56.1402 49.5762 57.0136C49.2335 56.8482 48.7575 56.5656 48.7268 56.2442L48.7055 56.0469L48.6375 56.0442ZM50.9455 50.2496C50.5588 50.4509 50.0388 50.8722 49.3108 51.6696C47.9855 53.1202 48.0775 55.2202 48.1642 55.9842C47.7282 55.8802 47.0255 55.5749 46.9882 54.6882V54.6696L46.9842 54.6536C46.9815 54.6376 45.8562 49.1562 50.9455 50.2496ZM54.4868 37.8536C54.8028 37.7869 55.2468 37.6976 55.8042 37.5922C55.5268 40.3762 54.5468 49.1002 52.9562 51.0882C52.9082 51.0229 52.8495 50.9562 52.7895 50.8882C52.5628 50.6402 52.2602 50.3816 52.0548 50.2442C52.0255 50.2269 51.9975 50.2082 51.9668 50.1909C52.0548 50.0709 52.1335 49.8962 52.1975 49.6549C52.3442 49.0976 53.0708 45.4869 53.6748 42.3416C54.0442 40.4056 54.3695 38.6416 54.4868 37.8536V37.8536ZM90.6415 62.9976C89.5428 62.8256 87.7042 62.3802 87.3055 61.3162C87.0255 60.5709 86.7148 59.9322 86.4362 59.4496C86.3468 59.2936 86.2562 59.1522 86.1695 59.0282C86.0308 58.8256 85.8988 58.6669 85.7828 58.5562L85.7655 58.5389L85.7695 58.5282C85.8095 58.4482 85.8495 58.3682 85.8882 58.2882C86.1708 57.6922 86.4255 57.0709 86.6468 56.4189C87.3215 57.6976 89.4588 61.6696 90.6415 62.9976V62.9976ZM86.8508 55.8082L86.8455 55.8096C86.9322 55.5216 87.0148 55.2296 87.0895 54.9296C87.3335 53.9602 87.5108 52.9296 87.6108 51.8296C88.1988 53.9176 89.3402 57.7349 89.9095 58.0029C90.2002 58.1376 90.5882 58.2056 90.9735 58.2322C91.5735 58.2736 92.1842 58.2189 92.3708 58.1816L92.3695 58.1842L92.3708 58.1816H92.3815C92.3908 58.1802 92.3682 58.1829 92.3695 58.1842C92.4895 58.2082 92.7108 58.3336 92.9348 58.5549L92.9375 58.5562C93.1668 58.7842 93.3855 59.1082 93.4682 59.5162C93.5135 59.7389 93.5188 59.9896 93.4642 60.2669C93.3562 60.8176 93.0548 61.3616 92.7135 61.8256C92.1642 62.5709 91.5628 63.0962 91.4642 63.0962C91.4362 63.0936 91.3668 63.0882 91.2642 63.0789L91.2895 62.9789C90.4548 62.7762 86.8588 55.8282 86.8508 55.8082V55.8082ZM97.1508 22.3669H95.4855L87.6588 36.4842C71.8415 32.6549 55.0802 36.9109 55.0802 36.9109L45.9108 22.3669H44.2868L53.9282 37.9749L54.0068 37.9576C53.8762 38.7682 53.5695 40.4322 53.2202 42.2522C52.6188 45.3922 51.8962 48.9882 51.7508 49.5362C51.5882 50.1522 51.2882 49.8776 51.2868 49.8776L51.2442 49.8416L51.1882 49.8282C45.3695 48.4682 46.4722 54.4416 46.5268 54.7296C46.6002 56.1082 47.8468 56.4136 48.3108 56.4816C48.5228 57.0496 49.3708 57.4376 49.6668 57.5576C49.9535 58.2189 51.0642 58.5962 51.3788 58.6896C51.8762 59.3976 52.9535 59.4976 53.3655 59.5082C53.6455 59.9709 54.5202 60.0282 54.8695 60.0322C55.1962 60.4629 56.1242 60.6682 56.4615 60.7296C57.0148 61.7056 58.1295 61.8016 58.5335 61.8016C60.0548 64.6216 64.4242 62.5682 64.4375 62.5629L64.4468 62.5576L64.4575 62.5522C65.3455 62.0389 66.0695 61.1429 66.6508 60.0522C74.5762 66.4162 78.3788 64.9496 78.5895 64.8602C82.0468 63.9656 84.2042 61.5936 85.5508 58.9082C85.6455 59.0322 85.8162 59.2989 86.0348 59.6802C86.3015 60.1416 86.6015 60.7562 86.8722 61.4776C87.5535 63.2949 91.4388 63.5602 91.4495 63.5602H91.4642C91.6348 63.5602 92.4535 62.9562 93.0842 62.1016C93.4642 61.5882 93.7962 60.9816 93.9188 60.3562C93.9842 60.0149 93.9788 59.7056 93.9215 59.4242C93.8175 58.9109 93.5468 58.5096 93.2615 58.2269H93.2602C92.9682 57.9376 92.6455 57.7656 92.4602 57.7309C92.3988 57.7189 92.3428 57.7176 92.2935 57.7269C92.1375 57.7589 91.5748 57.8082 91.0055 57.7696C90.6695 57.7456 90.3362 57.6922 90.1055 57.5829C89.7082 57.3989 88.7522 54.1922 88.1682 52.1176C89.0828 53.2136 90.3028 53.9536 90.3082 53.9562H90.3095C90.4535 54.0456 90.9042 54.1749 91.4228 54.1976C91.8348 54.2176 92.3055 54.1789 92.7295 54.0189C93.1735 53.8509 93.5642 53.5549 93.7868 53.0576C93.9482 52.6936 94.0188 52.2282 93.9442 51.6349C93.6682 49.4296 92.5135 49.5362 91.5148 49.6296C91.1268 49.6669 90.7655 49.7002 90.5762 49.5482C89.9095 49.0056 88.5348 43.1202 88.3068 42.1282C88.4788 40.3069 88.6468 38.5989 88.7228 37.8389L90.4842 34.6042C92.2148 38.5682 98.1202 39.8176 99.5202 39.7469C100.991 39.6722 100.293 38.7389 100.293 38.7389C100.293 38.7389 98.3815 34.1842 97.7562 32.0202C97.2242 30.1776 95.3082 27.5229 94.7508 26.7749L97.1508 22.3669Z" fill="#034EA1"/>
<path fill-rule="evenodd" clip-rule="evenodd" d="M95.4858 22.3671H45.9111L55.0804 36.9111C55.0804 36.9111 71.8418 32.6551 87.6591 36.4845L95.4858 22.3671Z" fill="#EC1C24"/>
<path fill-rule="evenodd" clip-rule="evenodd" d="M59.0651 32.789C59.4971 32.789 59.8531 33.1477 59.8531 33.5877C59.8531 34.0263 59.4971 34.385 59.0651 34.385C58.6304 34.385 58.2757 34.0263 58.2757 33.5877C58.2757 33.1477 58.6304 32.789 59.0651 32.789ZM84.1091 32.789C84.5424 32.789 84.8984 33.1477 84.8984 33.5877C84.8984 34.0263 84.5424 34.385 84.1091 34.385C83.6744 34.385 83.3211 34.0263 83.3211 33.5877C83.3211 33.1477 83.6744 32.789 84.1091 32.789V32.789ZM84.1637 22.3677H82.8917L80.5531 32.7597L81.5371 32.9503C81.5371 32.9503 82.5931 30.6863 84.6717 31.0703C86.7517 31.4543 87.1277 33.3343 87.1277 33.5263L87.9971 33.6797L93.6424 22.3677H92.2104L87.7251 31.4557C87.7251 31.4557 85.4704 29.141 82.3637 30.413L84.1637 22.3677ZM63.8571 22.3677H62.9117L65.3237 32.669H66.5877C66.5877 32.669 67.9437 29.8023 71.9264 30.0077C75.9077 30.2103 76.7131 32.5663 76.7131 32.5663L77.8024 32.8197L79.9197 22.3677H78.7451L77.1171 30.7237C77.1171 30.7237 71.0197 26.6277 65.9797 31.0823L63.8571 22.3677ZM49.9891 22.3677H48.3651L55.3877 33.7557L56.4291 33.3877C56.4291 33.3877 55.9317 32.2837 58.4691 31.501C61.0051 30.7183 62.2291 33.065 62.2291 33.065L63.2704 32.881L60.0837 22.3677H58.7264L61.2771 30.581C57.4731 29.1543 55.7037 31.8223 55.7037 31.8223L49.9891 22.3677ZM71.6264 31.817C72.1264 31.817 72.5331 32.229 72.5331 32.7343C72.5331 33.2397 72.1264 33.6503 71.6264 33.6503C71.1277 33.6503 70.7211 33.2397 70.7211 32.7343C70.7211 32.229 71.1277 31.817 71.6264 31.817Z" fill="white"/>
<path fill-rule="evenodd" clip-rule="evenodd" d="M111.014 42.8306V29.1786L97.8729 42.8306H111.014Z" fill="#034EA1"/>
<path fill-rule="evenodd" clip-rule="evenodd" d="M111.014 41.9036V30.7942L100.146 41.9036H111.014Z" fill="#DA4534"/>
<path fill-rule="evenodd" clip-rule="evenodd" d="M111.014 40.4844V33.0857L103.285 40.4844H111.014Z" fill="#EC1C24"/>
<path d="M24.7708 181.513V22.4037H110.152V181.513H24.7708ZM24.0935 182.862H111.508V21.0544H23.4148V182.862H24.0935Z" fill="#034EA1"/>
<path d="M133.197 195.849C133.197 199.688 130.082 202.802 126.241 202.802" stroke="#EB008B" stroke-width="0.333333" stroke-miterlimit="2.613"/>
<path d="M126.241 202.802H8.01295" stroke="#EB008B" stroke-width="0.333333" stroke-miterlimit="2.613"/>
<path d="M8.01308 202.802C4.17042 202.802 1.05708 199.687 1.05708 195.849" stroke="#EB008B" stroke-width="0.333333" stroke-miterlimit="2.613"/>
<path d="M1.05734 195.849V8.07022" stroke="#EB008B" stroke-width="0.333333" stroke-miterlimit="2.613"/>
<path d="M1.05734 8.07025C1.05734 4.22892 4.17068 1.11692 8.01334 1.11692" stroke="#EB008B" stroke-width="0.333333" stroke-miterlimit="2.613"/>
<path d="M8.01308 1.11719H126.241" stroke="#EB008B" stroke-width="0.333333" stroke-miterlimit="2.613"/>
<path d="M126.241 1.11716C130.082 1.11716 133.197 4.22916 133.197 8.0705" stroke="#EB008B" stroke-width="0.333333" stroke-miterlimit="2.613"/>
<path d="M133.197 8.07022V195.849" stroke="#EB008B" stroke-width="0.333333" stroke-miterlimit="2.613"/>
</svg>
