<svg width="134" height="205" viewBox="0 0 134 205" fill="none" xmlns="http://www.w3.org/2000/svg">
<path fill-rule="evenodd" clip-rule="evenodd" d="M102.847 136.708C102.847 136.708 102.549 135.782 103.21 135.414C103.871 135.052 104.234 135.812 103.773 136.279C103.311 136.742 102.847 136.708 102.847 136.708ZM103.21 133.692C103.309 134.156 102.947 134.088 102.254 134.19C101.561 134.29 101.495 133.758 101.495 133.758C102.682 132.432 103.21 133.692 103.21 133.692ZM103.606 133.096C103.606 133.096 102.847 132.963 102.847 132.302C102.847 131.638 103.309 131.075 103.838 131.175C104.366 131.274 104.497 132.466 103.606 133.096ZM106.741 128.987C106.741 128.987 106.017 129.716 105.883 128.49C105.753 127.263 106.445 125.903 106.774 126.667C107.105 127.43 106.841 128.954 106.741 128.987ZM105.025 130.214C105.025 130.214 104.234 130.511 104.234 129.914C104.234 129.318 104.862 128.82 105.291 128.854C105.718 128.888 106.05 129.618 105.025 130.214V130.214ZM107.599 132.2C107.599 132.2 106.279 132.599 105.653 131.042C105.653 131.042 105.819 129.618 106.643 129.815C107.469 130.014 107.995 130.974 107.965 131.339C107.93 131.706 107.865 132.235 107.599 132.2V132.2ZM106.938 135.018C106.938 135.018 105.423 134.586 104.993 133.526C104.563 132.466 105.125 131.539 105.783 131.968C106.445 132.402 107.139 132.899 107.337 133.13C107.535 133.359 107.701 134.851 106.938 135.018ZM105.322 138.364C105.322 138.364 104.202 138.266 104.002 137.236C104.002 137.236 104.795 136.279 104.466 135.383C104.137 134.487 103.871 133.791 104.563 134.023C105.257 134.255 106.279 135.782 106.314 135.979C106.345 136.178 107.073 137.602 105.322 138.364V138.364ZM102.549 140.354C102.549 140.354 101.231 139.659 101.495 138.896C101.759 138.132 102.814 137.602 103.475 137.736C104.137 137.867 104.893 138.828 104.466 139.591C104.037 140.354 102.979 140.454 102.549 140.354V140.354ZM100.414 138.568C100.414 138.568 99.7528 140.023 98.7635 140.222C97.7741 140.422 89.6608 139.028 86.8928 143.336C86.8928 143.336 85.7715 146.247 85.9048 146.646C86.0368 147.044 87.1555 146.714 87.6835 146.514C88.2101 146.315 89.8595 145.52 91.5755 145.52C93.2888 145.52 98.6315 145.916 100.414 143.998C102.194 142.075 102.061 140.422 102.061 140.422C102.061 140.422 104.798 142.242 105.391 138.831C105.391 138.831 107.701 138.302 107.173 135.982C107.173 135.982 107.007 135.916 107.634 135.386C108.262 134.856 108.227 133.5 107.965 132.87C107.965 132.87 108.886 131.711 108.262 130.883C107.634 130.055 107.27 129.826 107.469 129.063C107.666 128.299 107.637 126.46 107.31 126.042C106.986 125.624 106.003 125.894 105.709 126.49C105.41 127.086 104.875 126.282 104.61 125.776C104.343 125.268 104.162 125.039 104.162 125.039L103.682 125.523L105.077 127.55L105.222 128.612C105.222 128.612 103.394 128.416 103.637 130.542C103.637 130.542 102.145 131.315 102.337 132.52C102.337 132.52 101.087 133.294 101.087 133.73C101.087 134.164 100.558 133.682 100.558 133.682C100.558 133.682 100.751 130.399 99.7408 129.771L99.2595 128.514L98.7781 129.383C98.7781 129.383 101.134 132.667 99.5968 134.26C99.5968 134.26 100.509 135.034 100.509 135.563C100.509 136.094 101.519 135.466 101.663 135.227C101.807 134.984 102.721 134.55 102.577 135.323C102.431 136.094 102.097 138.026 101.134 138.026C100.171 138.026 98.7315 138.026 98.3461 137.399C97.9635 136.771 96.0888 135.804 96.0888 134.068L94.8728 132.154L94.5821 132.635C94.5821 132.635 95.7035 134.984 95.6528 135.37C95.6048 135.755 97.6235 139.011 100.414 138.568" fill="#BF0014"/>
<path fill-rule="evenodd" clip-rule="evenodd" d="M101.212 139.232C101.212 139.232 99.4616 141.057 98.4723 141.256C97.4843 141.456 91.7829 140.453 89.0123 142.953C84.4043 147.073 90.9376 144.182 93.6803 144.182C95.3949 144.182 98.0443 144.581 99.8229 142.661C101.606 140.74 101.618 140.044 101.618 140.044L101.212 139.232Z" fill="#BF0014"/>
<path fill-rule="evenodd" clip-rule="evenodd" d="M101.549 140.93C101.549 140.93 101.332 142.768 99.1667 143.588C97.0013 144.411 95.4853 144.482 95.2453 144.482C95.0053 144.482 89.4467 144.69 87.1947 145.648C87.1947 145.648 86.3293 142.08 92.564 140.864C92.564 140.864 96.808 140.69 97.5427 140.951C98.28 141.211 100.228 139.995 100.663 139.604C101.095 139.211 100.619 140.56 100.316 140.864C100.015 141.17 99.1467 142.08 97.632 142.039C96.116 141.995 90.9627 141.779 90.0107 142.995C90.0107 142.995 95.7253 143.604 97.5867 143.124C99.4493 142.648 100.316 141.951 100.793 141.255C101.268 140.56 101.611 140.826 101.549 140.93Z" fill="#3FE6FF"/>
<path fill-rule="evenodd" clip-rule="evenodd" d="M101.854 140.898L101.513 140.778L100.743 139.434L100.973 138.74L101.659 139.904L101.854 140.898Z" fill="#BF0014"/>
<path fill-rule="evenodd" clip-rule="evenodd" d="M102.549 32.3386C102.549 32.3386 100.851 35.4586 102.059 40.5706L99.3254 43.472L102.501 46.308C102.501 46.308 101.441 51.164 101.845 53.036C101.873 53.1586 101.896 53.2706 101.912 53.3746C102.236 53.94 102.593 54.5133 102.979 55.0986C102.979 55.0986 104.279 49.756 106.689 48.92V39.1066C106.689 39.1066 102.509 35.4706 102.663 32.0906C102.663 32.0906 102.628 32.124 102.565 32.1906L102.549 32.3386Z" fill="#3FE6FF"/>
<path d="M102.549 32.3386C102.549 32.3386 100.851 35.4586 102.059 40.5706L99.3254 43.472L102.501 46.308C102.501 46.308 101.441 51.164 101.845 53.036C101.873 53.1586 101.896 53.2706 101.912 53.3746C102.236 53.94 102.593 54.5133 102.979 55.0986C102.979 55.0986 104.279 49.756 106.689 48.92V39.1066C106.689 39.1066 102.509 35.4706 102.663 32.0906C102.663 32.0906 102.628 32.124 102.565 32.1906L102.549 32.3386Z" stroke="#034EA1" stroke-width="0.756" stroke-miterlimit="2.613"/>
<path d="M103.155 54.4636H102.57H103.155ZM103.683 52.9303H101.824H103.683ZM104.376 51.3956H101.768H104.376ZM105.399 49.8623H101.902H105.399ZM106.69 48.3276H102.123H106.69ZM106.69 46.7916H102.402H106.69ZM106.69 45.2583H101.327H106.69ZM106.69 43.7236H99.6108H106.69ZM106.69 42.1903H100.534H106.69ZM106.69 41.0396H101.618H106.69ZM106.69 39.8876H101.912H106.69ZM106.131 38.5756H101.712H106.131ZM104.846 37.1516H101.627H104.846ZM101.676 35.8156H103.847H101.676Z" stroke="#034EA1" stroke-width="0.756" stroke-miterlimit="2.613"/>
<path fill-rule="evenodd" clip-rule="evenodd" d="M31.1327 172.695C31.1327 172.695 32.83 169.573 31.622 164.461L34.3567 161.559L31.1807 158.726C31.1807 158.726 32.2407 153.87 31.8367 151.998C31.8113 151.875 31.7887 151.763 31.77 151.659C31.446 151.091 31.0887 150.518 30.7033 149.935C30.7033 149.935 29.4033 155.278 26.9927 156.111V165.927C26.9927 165.927 31.1727 169.562 31.0193 172.943C31.0193 172.943 31.054 172.909 31.1167 172.841L31.1327 172.695Z" fill="#3FE6FF"/>
<path d="M31.1327 172.695C31.1327 172.695 32.83 169.573 31.622 164.461L34.3567 161.559L31.1807 158.726C31.1807 158.726 32.2407 153.87 31.8367 151.998C31.8113 151.875 31.7887 151.763 31.77 151.659C31.446 151.091 31.0887 150.518 30.7033 149.935C30.7033 149.935 29.4033 155.278 26.9927 156.111V165.927C26.9927 165.927 31.1727 169.562 31.0193 172.943C31.0193 172.943 31.054 172.909 31.1167 172.841L31.1327 172.695Z" stroke="#034EA1" stroke-width="0.756" stroke-miterlimit="2.613"/>
<path d="M30.5273 150.57H31.1127H30.5273ZM29.9993 152.104H31.8567H29.9993ZM29.306 153.638H31.9153H29.306ZM28.2833 155.172H31.7807H28.2833ZM26.9927 156.706H31.5593H26.9927ZM26.9927 158.24H31.2807H26.9927ZM26.9927 159.773H32.3553H26.9927ZM26.9927 161.308H34.0713H26.9927ZM26.9927 162.841H33.1487H26.9927ZM26.9927 163.992H32.0647H26.9927ZM26.9927 165.144H31.77H26.9927ZM27.5513 166.458H31.97H27.5513ZM28.8367 167.882H32.0553H28.8367ZM32.006 169.216H29.8353H32.006Z" stroke="#034EA1" stroke-width="0.756" stroke-miterlimit="2.613"/>
<path fill-rule="evenodd" clip-rule="evenodd" d="M110.617 120.107V97.0549L106.964 99.4216C105.922 80.5162 94.4971 73.6069 94.4971 73.6069L101.094 63.9096L99.7331 62.5415C93.4011 66.3229 92.8784 62.7269 92.8784 62.7269L66.5131 97.6976L65.9131 112.438C70.8424 134.219 80.4944 143.686 80.4944 143.686L110.617 120.107Z" fill="#3F1000"/>
<path fill-rule="evenodd" clip-rule="evenodd" d="M74.1431 106.255C74.1431 106.255 79.2191 103.521 78.7031 96.8699L79.6631 95.1712C79.6631 95.1712 81.4271 102.414 74.8044 106.919L74.1431 106.255Z" fill="#3FE6FF"/>
<path fill-rule="evenodd" clip-rule="evenodd" d="M76.2801 106.414C75.9227 106.719 75.5401 107.015 75.1227 107.302L73.0281 109.059C73.3894 109.721 74.0921 110.171 74.8974 110.171C76.0721 110.171 77.0307 109.214 77.0307 108.037C77.0307 107.387 76.7387 106.805 76.2801 106.414ZM77.4214 105.283C78.4601 104.109 79.1494 102.843 79.6041 101.617C80.2214 101.993 80.6374 102.671 80.6374 103.445C80.6374 104.619 79.6774 105.578 78.5041 105.578C78.1107 105.578 77.7401 105.471 77.4214 105.283V105.283ZM80.1147 99.8621C80.5121 98.0127 80.4467 96.4221 80.3681 95.6141H80.4027C81.5801 95.6141 82.5347 96.5727 82.5347 97.7474C82.5347 98.9247 81.5801 99.8834 80.4027 99.8834C80.3054 99.8834 80.2094 99.8754 80.1147 99.8621" fill="#3FE6FF"/>
<path fill-rule="evenodd" clip-rule="evenodd" d="M95.4415 68.7631C95.4415 68.7631 95.2349 66.1925 92.1069 67.7111C92.1069 67.7111 91.8162 67.7965 92.0735 67.4018C92.3322 67.0058 94.5989 65.6245 95.6122 67.9685C95.8549 69.2298 95.4589 68.5205 95.4415 68.7631ZM88.0255 75.4458C88.0255 75.4458 86.8735 74.6325 86.3882 74.9485C85.9055 75.2631 85.6429 75.0391 85.3949 74.9085C85.1442 74.7765 84.3082 73.3698 85.7095 73.1071C87.4202 72.7871 88.6429 75.5058 88.0255 75.4458V75.4458ZM85.2309 78.4218C85.2309 78.4218 83.8762 77.9765 83.8522 79.4605C83.8269 80.9458 84.8135 81.3178 85.5282 81.2911C86.2415 81.2685 89.1735 81.0205 90.0589 77.3098C90.9482 73.5991 90.6495 73.3311 90.6282 72.8618C90.6055 72.3965 91.3815 70.1698 92.1349 69.8338C92.8882 69.5005 93.6215 69.0778 93.1335 68.7658C92.6442 68.4538 93.1335 68.0751 93.5989 68.0751C94.0655 68.0751 94.9282 68.3445 94.6855 69.2351C94.6855 69.2351 94.3749 70.3018 93.6415 70.5698C92.9109 70.8365 92.9549 71.6178 93.3109 71.8391C93.6642 72.0631 95.4389 72.0151 95.8815 70.7031C96.3255 69.3885 97.0149 67.1538 96.2349 66.0311C95.4562 64.9085 93.3615 65.1898 93.2429 65.2911C93.1229 65.3911 92.7615 64.2898 92.1429 65.0111C91.5255 65.7325 89.2322 68.4925 89.5535 70.7631C89.5535 70.7631 87.2909 70.6018 87.1615 71.5751C87.1615 71.5751 87.0975 71.9458 87.6495 71.9738C88.2042 72.0031 90.3029 74.5005 89.1002 77.1565C89.1002 77.1565 88.0255 79.9978 86.1922 79.4978C85.1189 79.3391 85.2109 78.4791 85.2309 78.4218V78.4218ZM80.3495 88.4765C80.3495 88.4765 79.4482 90.2111 77.8522 90.1538C76.2522 90.0938 75.9935 88.6205 75.9575 88.4058C75.9202 88.1898 75.2589 90.6178 77.8269 90.7605C80.3949 90.9018 80.3242 88.4631 80.3495 88.4765V88.4765ZM86.1882 81.9925C86.1882 81.9925 85.2695 82.2418 84.7695 82.0338C84.2695 81.8231 83.3095 82.0751 84.2695 82.7445C84.2695 82.7445 85.4162 83.7911 86.5442 83.4351C86.5442 83.4351 87.0855 83.0151 86.6909 82.3258C86.4695 81.8965 86.2322 81.9511 86.1882 81.9925ZM83.3162 86.6818C83.3162 86.6818 82.5682 86.6405 82.4162 86.3591C82.2669 86.0805 81.8589 89.8045 80.7002 90.9018C79.5429 92.0005 79.2869 92.9458 79.2869 92.9458C79.2869 92.9458 78.7082 92.6018 78.6442 92.1925C78.5802 91.7845 75.6842 92.8565 75.2469 90.4018C74.8069 87.9431 76.1215 85.4871 76.9975 85.3311C77.8735 85.1778 79.1629 85.6925 78.4402 86.5725C78.4402 86.5725 78.0789 86.9351 77.5642 86.9085C77.0482 86.8831 76.4815 88.8485 77.1535 89.1071C77.8215 89.3645 78.9815 89.1325 78.6722 88.6151C78.3642 88.0991 78.4149 87.8911 78.9309 87.6591C79.4455 87.4271 80.6295 86.2898 80.6535 85.3045C80.6815 84.3231 80.8069 80.3991 82.2255 78.2218C83.6442 76.0418 84.9789 75.8311 85.8975 75.8311C85.8975 75.8311 88.0255 75.8751 87.9815 77.4658C87.9815 77.4658 87.9815 78.8485 87.1082 78.7658C86.2322 78.6805 86.3975 78.3045 86.2735 77.6751C86.1455 77.0471 84.1442 76.8391 83.3095 78.6378C82.4749 80.4405 81.6815 82.8698 82.7269 84.1271C83.7682 85.3858 84.3522 85.3858 84.6869 85.2578C85.0215 85.1325 83.7829 86.7245 83.3162 86.6818" fill="#3FE6FF"/>
<path fill-rule="evenodd" clip-rule="evenodd" d="M23.0649 84.9271V107.976L26.5089 105.664C27.5463 124.567 39.1849 131.427 39.1849 131.427L32.5876 141.122L33.9489 142.492C40.2809 138.711 40.8036 142.304 40.8036 142.304L66.3449 111.635L68.0849 91.8911C63.8703 73.2418 53.1876 61.3458 53.1876 61.3458L23.0649 84.9271Z" fill="#3F1000"/>
<path fill-rule="evenodd" clip-rule="evenodd" d="M54.6536 62.0365L57.7616 67.7218C62.1549 75.9511 64.0376 80.1765 68.2069 92.1951L85.9389 67.8151L91.0962 61.1791L90.1976 59.6751H58.1296L54.6536 62.0365Z" fill="#BF0014"/>
<path fill-rule="evenodd" clip-rule="evenodd" d="M36.4298 31.7891C36.5218 32.5184 36.7564 33.3024 36.8098 33.9411C36.9098 35.1851 37.8564 35.8584 38.2831 34.0438C38.3844 33.5984 38.5484 32.9424 38.6898 32.2411C39.8204 26.6211 48.0671 27.7864 49.0764 32.3358C50.0898 36.8851 48.6738 40.5104 44.5791 45.6531C40.4858 50.7971 38.5724 54.1091 37.5644 57.3278C36.7098 53.2758 29.1044 44.1851 27.0044 40.0158C24.9018 35.8464 25.6751 30.4224 28.9178 29.0344C32.1658 27.6464 36.0871 29.1278 36.4298 31.7891Z" fill="#EC1C24"/>
<path fill-rule="evenodd" clip-rule="evenodd" d="M89.737 37.862C89.737 37.862 91.8023 44.6594 91.917 47.5367C92.0316 50.4167 93.9796 55.6567 95.5303 56.1167C95.5303 56.1167 96.2663 54.0834 99.1783 54.8127C99.1783 54.8127 102.541 55.6567 102.14 59.1047C102.14 59.1047 102.038 60.8074 100.529 61.958C100.529 61.958 96.7916 64.7114 92.241 61.4607C92.241 61.4607 89.9876 59.6434 89.8076 59.1407L64.5156 58.922C64.5156 58.922 75.8143 55.4767 75.5196 43.562C75.5196 43.562 75.0023 36.1647 72.4983 34.3887C80.861 34.0554 89.737 37.862 89.737 37.862Z" fill="#3FE6FF"/>
<path d="M89.737 37.862C89.737 37.862 91.8023 44.6594 91.917 47.5367C92.0316 50.4167 93.9796 55.6567 95.5303 56.1167C95.5303 56.1167 96.2663 54.0834 99.1783 54.8127C99.1783 54.8127 102.541 55.6567 102.14 59.1047C102.14 59.1047 102.038 60.8074 100.529 61.958C100.529 61.958 96.7916 64.7114 92.241 61.4607C92.241 61.4607 89.9876 59.6434 89.8076 59.1407L64.5156 58.922C64.5156 58.922 75.8143 55.4767 75.5196 43.562C75.5196 43.562 75.0023 36.1647 72.4983 34.3887C80.861 34.0554 89.737 37.862 89.737 37.862Z" stroke="#034EA1" stroke-width="0.377333" stroke-miterlimit="2.613"/>
<path fill-rule="evenodd" clip-rule="evenodd" d="M101.901 22.0833H44.877L54.7623 36.018C54.7623 36.018 73.9476 31.7087 89.3756 38.174L101.901 22.0833Z" fill="#BF0014"/>
<path d="M84.5182 36.6538C84.5182 36.6538 86.4128 47.7684 86.4688 49.4951C86.5248 51.2244 87.5595 55.5991 89.3368 58.2471C91.1128 60.8991 94.4968 64.1231 98.9688 62.7964C98.9688 62.7964 103.1 61.4164 101.952 57.2684C101.952 57.2684 100.746 53.9298 96.9622 54.7911C96.9622 54.7911 94.8408 55.6564 95.3555 57.6724C95.8742 59.6871 97.7662 58.4218 97.5368 57.5578C97.3062 56.6924 97.0182 56.0604 98.4542 56.2338C99.8862 56.4058 101.549 58.7658 100.576 60.0338C99.6022 61.2991 97.4808 62.4538 95.1848 61.3591C92.8902 60.2631 90.0808 57.9031 88.8782 53.4684C87.6715 49.0338 85.8382 36.9431 85.8382 36.9431M67.9648 57.3178L68.2315 58.6271L67.9648 57.3178ZM69.2462 56.4978L69.8182 58.6818L69.2462 56.4978ZM70.3528 55.6298L71.4048 58.7684L70.3528 55.6298ZM71.6728 54.3911L73.2222 58.6591L71.6728 54.3911ZM72.8208 53.1231L74.7128 58.6511L72.8208 53.1231ZM73.6795 51.6244L76.0302 58.7244L73.6795 51.6244ZM74.7128 49.6671L77.7662 58.7444L74.7128 49.6671ZM75.6302 45.9244C75.6302 45.9244 78.4302 57.8644 78.9475 58.6698L75.6302 45.9244ZM74.8848 34.9844C74.8848 34.9844 77.6955 43.9084 77.6955 47.9404C77.6955 51.9711 80.4248 58.7218 80.4248 58.7218L74.8848 34.9844ZM76.4342 35.0418C76.4342 35.0418 78.8982 43.5084 78.8982 45.6378C78.8982 47.7684 80.6755 57.0724 82.0515 58.7418L76.4342 35.0418ZM78.1542 35.3284C78.1542 35.3284 80.2168 43.9658 80.3315 47.2498C80.4462 50.5311 83.3382 58.1671 83.6835 58.6271L78.1542 35.3284ZM79.5875 35.6178C79.5875 35.6178 81.6528 43.3911 81.7675 47.5938C81.8822 51.7991 84.9288 58.7191 84.9288 58.7191L79.5875 35.6178ZM81.3088 35.7898C81.3088 35.7898 83.4302 46.6178 83.4862 48.3444C83.5448 50.0698 85.0008 56.1844 86.5488 58.6591L81.3088 35.7898ZM82.9115 36.2498C82.9115 36.2498 84.6915 45.0031 84.8062 47.5364C84.9208 50.0698 87.2542 57.0231 88.0542 58.6378L82.9115 36.2498ZM87.1568 37.2871C87.1568 37.2871 88.5902 45.2338 88.8782 47.4791C89.1622 49.7271 90.9982 55.8311 92.1462 57.4431C93.2928 59.0551 96.1595 60.8964 98.1088 59.9191C100.06 58.9404 98.6248 57.7298 97.5928 57.7298L87.1568 37.2871ZM88.5342 37.9218C88.5342 37.9218 90.4262 46.9604 90.4262 48.8044C90.4262 50.6484 92.7195 57.2111 95.2408 57.7871L88.5342 37.9218Z" stroke="#034EA1" stroke-width="0.377333" stroke-miterlimit="2.613"/>
<path fill-rule="evenodd" clip-rule="evenodd" d="M65.6808 58.6017C64.0101 59.2843 62.1795 59.623 61.1475 59.7497L90.3515 59.8563L89.4661 58.6283L65.6808 58.6017Z" fill="#3F1000"/>
<path d="M55.1003 35.5378C55.1003 35.5378 54.419 37.0125 55.2136 37.9791C56.0043 38.9431 55.6083 40.8178 55.3816 41.1565C55.1576 41.4978 52.443 46.0965 52.443 46.0965C52.443 46.0965 51.6523 47.3458 52.443 48.0258C52.443 48.0258 54.759 49.3338 55.239 50.0991C55.7216 50.8645 55.6656 51.3485 55.6083 52.0858C55.5523 52.8231 55.323 52.9658 55.7083 53.4631C56.0923 53.9605 56.3136 54.4005 56.2576 55.0631C56.2043 55.7271 57.2456 56.3885 57.4656 56.6645C57.6856 56.9378 57.5763 58.7578 57.5763 58.7578C57.5763 58.7578 58.9576 61.6565 66.8936 57.8285C74.8296 54.0031 77.8763 44.6511 73.287 34.4951C62.8416 33.1205 55.1003 35.5378 55.1003 35.5378Z" stroke="#034EA1" stroke-width="0.756" stroke-miterlimit="2.613"/>
<path fill-rule="evenodd" clip-rule="evenodd" d="M72.0884 47.435C72.0884 47.435 71.8351 48.4217 72.3511 48.8803C72.8698 49.339 73.7404 49.867 74.3964 48.8097C75.0564 47.7497 75.1498 47.487 75.1498 47.487C75.1498 47.487 74.9044 50.211 73.3364 50.523C71.7684 50.8337 71.0204 49.0203 71.0204 48.7297C71.0204 48.435 70.8751 46.8203 72.0884 47.435ZM55.5151 52.9377C55.5151 52.9377 55.4538 52.2843 56.2511 52.427C57.0444 52.571 57.8764 52.5497 58.1004 52.795C58.3258 53.039 59.3404 53.0603 59.6458 53.0003C59.9511 52.9377 60.1564 53.183 60.1978 53.3883C60.2364 53.591 60.5604 54.143 60.7258 54.2443C60.8898 54.347 60.2791 54.451 59.8711 54.143C59.4631 53.8363 58.3258 53.4897 57.6924 54.143C57.0631 54.7963 56.7778 55.1043 56.9604 55.4083C57.1444 55.7163 56.2511 55.5937 56.2898 54.755C56.3311 53.919 55.5578 52.8963 55.5151 52.9377V52.9377ZM57.6804 51.0283C57.6138 51.187 57.4538 51.823 58.8338 51.6643C60.2124 51.5057 60.3031 52.0497 61.9524 52.5497C63.6031 53.0497 64.8018 52.299 65.2538 51.0963C65.7044 49.8937 64.5058 49.3937 63.9858 49.235C63.4658 49.075 63.5591 49.5523 63.8738 49.711C64.1911 49.8697 64.9591 50.323 64.4151 51.0523C63.8738 51.779 62.5418 51.959 62.1124 51.4377C61.6818 50.9137 60.3031 50.3937 59.1938 50.2323C58.0858 50.075 57.6804 51.0283 57.6804 51.0283V51.0283ZM54.6698 47.6297C54.6698 47.6297 55.1698 47.2923 56.0431 47.591C56.9191 47.8937 57.0924 48.0083 57.2951 48.347C57.4964 48.6857 58.6178 48.6977 58.7071 48.1457C58.7938 47.591 58.7831 47.1283 58.4458 46.7137C58.1058 46.299 58.3818 46.063 58.6818 46.3363C58.6818 46.3363 59.5311 46.9017 59.4698 47.9323C59.4071 48.9617 58.5578 49.263 57.5191 49.0497C56.4804 48.8363 55.9178 48.383 55.9178 48.383C55.9178 48.383 55.6818 48.195 54.7818 48.3963C53.8924 48.4457 54.6698 47.6297 54.6698 47.6297V47.6297ZM61.5551 43.3097C61.5551 43.3097 61.5324 42.211 61.9871 42.083C62.4444 41.9537 62.7684 42.2497 62.9124 42.463C63.0564 42.6777 63.2458 43.0137 62.8458 43.1643C62.4444 43.3177 61.5551 43.3697 61.5551 43.3097V43.3097ZM60.1151 42.211C60.1151 42.211 60.4991 41.659 60.9658 41.9083C61.4351 42.1563 61.1324 42.9323 60.6911 43.1803C60.2511 43.4297 59.8124 43.4843 59.9751 42.683C60.0684 42.1643 60.1151 42.211 60.1151 42.211V42.211ZM57.4711 40.2763C57.2484 40.2763 57.7178 40.8563 58.1031 41.299C58.4898 41.7417 58.3791 42.8497 57.9378 43.2083C57.4991 43.5683 57.7738 43.8697 58.4338 43.899C59.0951 43.927 59.7564 44.3697 59.8658 44.563C59.9751 44.7577 59.8658 45.1723 60.0311 45.1723C60.1978 45.1723 60.6911 45.3097 60.9938 45.503C61.2978 45.695 62.0698 46.0003 62.0964 45.8337C62.1231 45.6697 61.7378 45.4483 61.0498 44.7297C60.3604 44.011 60.5804 43.7057 60.5804 43.7057C60.5804 43.7057 62.3991 43.899 63.0604 43.5937C63.7204 43.2897 63.7498 43.0417 65.1538 43.4563C66.5564 43.8697 66.6138 43.347 66.6138 43.347C66.6138 43.347 65.2631 42.599 64.2444 41.851C63.2271 41.107 61.6844 40.635 60.7204 40.5257C59.7564 40.4137 59.8924 40.1377 59.8924 40.1377C62.7591 39.503 66.1164 42.2403 66.1164 42.2403C66.0631 41.9083 65.0431 40.8017 63.5004 40.1923C61.9578 39.5857 60.1978 39.5857 59.9498 39.7497C59.6991 39.9163 57.4711 40.2763 57.4711 40.2763V40.2763ZM57.0978 37.263C57.0978 37.263 58.4698 37.5737 59.8751 37.539C61.2791 37.5057 65.3244 38.571 66.7644 40.7057C66.7644 40.7057 66.5591 41.0163 66.1151 40.5003C65.6684 39.9817 61.8284 38.227 59.8751 38.571C57.9204 38.9163 56.4804 38.055 57.0978 37.263Z" fill="#BF0014"/>
<path fill-rule="evenodd" clip-rule="evenodd" d="M52.2136 63.2839C52.1763 63.0599 52.767 63.0239 52.9696 63.0599C53.1736 63.0959 53.395 63.4319 53.8363 64.2652C54.279 65.0985 53.339 64.3572 53.2456 64.5812C53.1523 64.8025 52.563 65.3025 52.563 65.3025C51.087 66.0985 49.6296 64.9865 49.6296 64.9865L50.5336 64.1719C50.5336 64.1719 51.031 64.5812 51.7883 64.5239C52.5456 64.4692 52.2136 63.2839 52.2136 63.2839ZM53.0336 66.8905C53.0336 66.8905 52.367 67.8145 52.555 68.2265C52.743 68.6359 52.675 69.0465 52.2976 68.8079C51.9256 68.5679 51.583 67.4372 52.367 66.9092C53.151 66.3772 53.0336 66.8905 53.0336 66.8905ZM53.7123 68.4639C53.7123 68.4639 52.9163 67.8719 53.8856 67.4225C54.8536 66.9692 55.1643 67.3852 55.3736 67.7345C55.579 68.0812 55.8576 69.0545 56.099 67.6985C56.3443 66.3439 55.755 65.7159 54.8536 65.5079C53.9536 65.2999 52.3963 65.7532 51.843 66.2025C51.2883 66.6559 50.7683 66.4812 50.7683 66.4812C50.7683 66.4812 50.111 66.9319 50.8016 67.1439C51.4963 67.3519 51.0803 68.4292 51.427 68.9505C51.771 69.4719 52.7083 71.2105 53.7456 71.4892C53.7456 71.4892 54.071 71.4532 53.791 71.9239C53.5096 72.3932 53.7603 73.0492 54.5083 72.7372C55.255 72.4239 56.0336 72.5185 56.563 72.7999C57.0923 73.0812 58.6216 73.8959 58.995 74.5519C59.3683 75.2079 59.4923 75.4892 59.307 75.8959C59.119 76.3052 59.243 77.3679 59.8043 76.7425C60.3656 76.1172 60.5523 74.9265 59.7736 73.9892C58.995 73.0492 56.283 71.4532 55.9083 71.3279C55.9083 71.3279 53.8216 69.8905 53.8216 69.4225C53.8216 68.9505 53.8216 68.7945 54.039 68.5759C54.259 68.3572 53.9123 68.4145 53.7123 68.4639V68.4639ZM56.0963 74.4265C56.0963 74.4265 55.9403 74.4265 56.0656 75.1772C56.1896 75.9292 56.8443 75.4585 56.9083 74.5212C56.9683 73.5812 56.8123 73.5185 56.4696 73.4559C56.1296 73.3932 56.0963 74.4265 56.0963 74.4265V74.4265ZM57.8096 76.4719C57.8096 76.4719 57.2003 76.7239 57.8096 77.5185C58.4203 78.3105 60.003 80.1145 60.8283 80.1879C61.655 80.2599 62.299 80.3679 62.299 80.0052C62.299 79.6452 63.0536 79.8625 62.8763 80.5465C62.695 81.2345 62.6243 81.2679 62.4083 81.4145C62.191 81.5572 64.5283 82.6039 64.635 84.1905C64.743 85.7785 64.635 86.2105 64.635 86.2105C64.635 86.2105 65.1043 86.4265 65.283 86.4265C65.4643 86.4265 64.923 87.1119 64.2416 87.1119C63.559 87.1119 63.271 87.0785 63.271 87.0785C63.271 87.0785 61.799 88.4119 60.1443 87.0785C58.4936 85.7425 59.5336 84.2625 59.8923 84.1199C60.2536 83.9745 60.2176 84.3359 60.3243 84.6959C60.4323 85.0572 61.7256 86.3199 62.4083 84.5519C62.4083 84.5519 61.655 84.5159 62.051 83.9039C62.447 83.2892 61.9776 82.6772 61.4043 82.2425C60.8283 81.8105 59.1043 80.2599 58.743 80.0412C58.387 79.8252 56.9123 78.5265 56.875 77.2292C56.8416 75.9292 56.875 75.4239 57.4883 75.3879C58.099 75.3545 57.955 76.0759 57.8096 76.4719V76.4719ZM61.467 76.2839C61.467 76.2839 61.5043 76.7185 61.6403 76.8305C61.7776 76.9425 62.1136 78.0412 61.6043 78.2919C61.0963 78.5385 60.723 77.8412 60.723 77.2292C60.723 76.6199 61.0576 76.0345 61.467 76.2839V76.2839ZM63.3523 83.9372C63.3523 83.9372 63.7416 85.4172 62.7323 85.8852C62.7323 85.8852 62.4723 86.3745 62.9616 86.2012C63.447 86.0265 64.1416 85.3305 63.9683 84.3172C63.9683 84.3172 63.7616 83.8279 63.4683 83.8172C63.1763 83.8052 63.3523 83.9372 63.3523 83.9372" fill="#3FE6FF"/>
<path fill-rule="evenodd" clip-rule="evenodd" d="M62.1041 90.3047L63.5214 90.4007C63.5214 90.4007 64.0241 89.4007 64.5294 89.846C65.0361 90.2913 65.0121 90.3407 65.0121 90.45C65.0121 90.5567 66.4414 90.3513 66.4414 90.3513C66.4414 90.3513 66.3587 87.974 64.9041 87.8073C63.4494 87.638 62.5361 88.4353 62.3214 88.7833C61.9001 89.3407 62.1041 90.3047 62.1041 90.3047Z" fill="#3FE6FF"/>
<path fill-rule="evenodd" clip-rule="evenodd" d="M46.8813 66.3203C46.8813 66.3203 55.9333 78.7216 57.644 86.2816L58.8867 85.7243C58.8867 85.7243 53.1427 70.5469 47.908 65.6749C47.5213 65.8669 46.8813 66.3203 46.8813 66.3203Z" fill="#3FE6FF"/>
<path fill-rule="evenodd" clip-rule="evenodd" d="M45.2826 69.1823C46.0013 69.1823 46.5879 69.7663 46.5879 70.485C46.5879 71.2037 46.0013 71.789 45.2826 71.789C44.5653 71.789 43.9786 71.2037 43.9786 70.485C43.9786 69.7663 44.5653 69.1823 45.2826 69.1823ZM45.8399 67.097L41.8386 70.2317C41.8359 70.2837 41.8333 70.3383 41.8333 70.3957C41.8333 72.245 43.3426 73.7557 45.1933 73.7557C47.0426 73.7557 48.5519 72.245 48.5519 70.3957C48.5519 68.765 47.3826 67.401 45.8399 67.097V67.097ZM50.1999 76.7503C49.5479 76.7503 49.0186 77.281 49.0186 77.933C49.0186 78.5837 49.5479 79.1117 50.1999 79.1117C50.8493 79.1117 51.3786 78.5837 51.3786 77.933C51.3786 77.281 50.8493 76.7503 50.1999 76.7503V76.7503ZM50.1159 74.805C51.7933 74.805 53.1599 76.1743 53.1599 77.8517C53.1599 79.529 51.7933 80.8957 50.1159 80.8957C48.4413 80.8957 47.0719 79.529 47.0719 77.8517C47.0719 76.1743 48.4413 74.805 50.1159 74.805V74.805ZM53.0746 83.7783C52.3573 83.7783 51.7733 84.3623 51.7733 85.081C51.7733 85.797 52.3573 86.3823 53.0746 86.3823C53.7933 86.3823 54.3786 85.797 54.3786 85.081C54.3786 84.3623 53.7933 83.7783 53.0746 83.7783V83.7783ZM52.9866 81.633C54.8346 81.633 56.3413 83.141 56.3413 84.989C56.3413 86.8383 54.8346 88.349 52.9866 88.349C51.1373 88.349 49.6306 86.8383 49.6306 84.989C49.6306 83.141 51.1373 81.633 52.9866 81.633" fill="#3FE6FF"/>
<path fill-rule="evenodd" clip-rule="evenodd" d="M49.2538 92.1511L48.8258 90.7365C44.3138 95.2791 41.5205 101.531 41.5205 108.414C41.5205 112.747 42.6272 116.831 44.5725 120.394L45.5165 119.419C43.7912 116.124 42.8125 112.38 42.8125 108.414C42.8125 102.135 45.2632 96.4111 49.2538 92.1511" fill="#3FE6FF"/>
<path fill-rule="evenodd" clip-rule="evenodd" d="M59.1771 87.5651L58.9984 86.5651C50.0771 89.6958 43.7251 98.4425 43.7251 108.414C43.7251 112.128 44.6184 115.641 46.1984 118.748L47.0291 118.169C45.5558 115.229 44.7264 111.914 44.7264 108.414C44.7264 98.9345 50.7238 90.5985 59.1771 87.5651" fill="#3FE6FF"/>
<path fill-rule="evenodd" clip-rule="evenodd" d="M46.5768 115.372C45.7394 113.042 45.3221 110.859 45.2314 108.823C45.5128 108.744 45.8074 108.703 46.1128 108.703C47.9581 108.703 49.4621 110.208 49.4621 112.055C49.4621 113.742 48.2021 115.146 46.5768 115.372ZM45.3048 106.112C45.5421 103.742 46.2221 101.599 47.1714 99.6791C48.5394 100.102 49.5381 101.378 49.5381 102.88C49.5381 104.727 48.0341 106.232 46.1888 106.232C45.8834 106.232 45.5861 106.19 45.3048 106.112ZM48.4914 97.3884C49.7941 95.4111 51.3488 93.7324 52.8914 92.3444C53.5874 92.9578 54.0301 93.8564 54.0301 94.8564C54.0301 96.7031 52.5261 98.2058 50.6794 98.2058C49.8448 98.2058 49.0794 97.8991 48.4914 97.3884V97.3884ZM55.1221 90.5124C57.1221 89.0178 58.8608 88.0604 59.6821 87.6404C60.1421 88.1298 60.4221 88.7884 60.4221 89.5124C60.4221 91.0258 59.1901 92.2578 57.6781 92.2578C56.5194 92.2578 55.5261 91.5338 55.1221 90.5124" fill="#3FE6FF"/>
<path fill-rule="evenodd" clip-rule="evenodd" d="M30.8346 68.3255C30.8346 68.3255 31.1333 69.2522 30.4706 69.6175C29.8106 69.9815 29.4479 69.2189 29.9093 68.7549C30.3733 68.2922 30.8346 68.3255 30.8346 68.3255ZM30.4706 71.3415C30.3733 70.8775 30.7346 70.9429 31.4266 70.8442C32.1213 70.7442 32.1866 71.2735 32.1866 71.2735C30.9999 72.5989 30.4706 71.3415 30.4706 71.3415V71.3415ZM30.0759 71.9375C30.0759 71.9375 30.8346 72.0709 30.8346 72.7322C30.8346 73.3962 30.3733 73.9589 29.8439 73.8589C29.3159 73.7602 29.1839 72.5655 30.0759 71.9375V71.9375ZM26.9413 76.0469C26.9413 76.0469 27.6653 75.3175 27.7986 76.5442C27.9293 77.7682 27.2359 79.1282 26.9066 78.3669C26.5773 77.6042 26.8413 76.0775 26.9413 76.0469V76.0469ZM28.6573 74.8202C28.6573 74.8202 29.4479 74.5202 29.4479 75.1175C29.4479 75.7135 28.8199 76.2109 28.3933 76.1802C27.9639 76.1455 27.6319 75.4162 28.6573 74.8202ZM26.0826 72.8309C26.0826 72.8309 27.4026 72.4349 28.0293 73.9922C28.0293 73.9922 27.8626 75.4162 27.0386 75.2189C26.2133 75.0189 25.6866 74.0575 25.7199 73.6922C25.7519 73.3282 25.8173 72.7975 26.0826 72.8309V72.8309ZM26.7439 70.0162C26.7439 70.0162 28.2586 70.4455 28.6893 71.5055C29.1186 72.5655 28.5573 73.4949 27.8986 73.0629C27.2359 72.6322 26.5426 72.1349 26.3453 71.9042C26.1466 71.6722 25.9839 70.1802 26.7439 70.0162ZM28.3599 66.6669C28.3599 66.6669 29.4786 66.7682 29.6799 67.7949C29.6799 67.7949 28.8866 68.7549 29.2159 69.6482C29.5479 70.5442 29.8106 71.2402 29.1186 71.0082C28.4253 70.7762 27.4026 69.2522 27.3679 69.0549C27.3359 68.8535 26.6119 67.4295 28.3599 66.6669V66.6669ZM31.1333 64.6802C31.1333 64.6802 32.4506 65.3749 32.1866 66.1375C31.9226 66.9015 30.8679 67.4295 30.2066 67.2975C29.5479 67.1642 28.7893 66.2029 29.2159 65.4402C29.6453 64.6802 30.7026 64.5802 31.1333 64.6802ZM33.2706 66.4655C33.2706 66.4655 33.9293 65.0109 34.9186 64.8095C35.9093 64.6122 44.0213 66.0029 46.7893 61.6975C46.7893 61.6975 47.9119 58.7842 47.7773 58.3882C47.6453 57.9895 46.5266 58.3202 45.9986 58.5189C45.4719 58.7189 43.8226 59.5135 42.1066 59.5135C40.3933 59.5135 35.0506 59.1149 33.2706 61.0362C31.4879 62.9562 31.6213 64.6122 31.6213 64.6122C31.6213 64.6122 28.8839 62.7922 28.2906 66.2002C28.2906 66.2002 25.9813 66.7322 26.5093 69.0495C26.5093 69.0495 26.6746 69.1149 26.0479 69.6455C25.4199 70.1749 25.4546 71.5335 25.7173 72.1615C25.7173 72.1615 24.7959 73.3229 25.4199 74.1482C26.0479 74.9762 26.4119 75.2082 26.2133 75.9709C26.0159 76.7322 26.0453 78.5735 26.3719 78.9895C26.6986 79.4069 27.6786 79.1375 27.9746 78.5442C28.2706 77.9482 28.8066 78.7522 29.0719 79.2575C29.3399 79.7655 29.5186 79.9949 29.5186 79.9949L29.9999 79.5109L28.6053 77.4842L28.4626 76.4215C28.4626 76.4215 30.2879 76.6149 30.0479 74.4895C30.0479 74.4895 31.5373 73.7189 31.3453 72.5109C31.3453 72.5109 32.5946 71.7375 32.5946 71.3042C32.5946 70.8695 33.1239 71.3522 33.1239 71.3522C33.1239 71.3522 32.9306 74.6349 33.9413 75.2629L34.4226 76.5189L34.9039 75.6482C34.9039 75.6482 32.5479 72.3669 34.0853 70.7735C34.0853 70.7735 33.1733 70.0002 33.1733 69.4682C33.1733 68.9375 32.1626 69.5655 32.0186 69.8069C31.8733 70.0495 30.9613 70.4815 31.1053 69.7109C31.2506 68.9375 31.5853 67.0082 32.5479 67.0082C33.5093 67.0082 34.9506 67.0082 35.3359 67.6349C35.7213 68.2629 37.5959 69.2295 37.5959 70.9655L38.8106 72.8775L39.0999 72.3962C39.0999 72.3962 37.9786 70.0495 38.0293 69.6615C38.0773 69.2762 36.0586 66.0229 33.2706 66.4655" fill="#BF0014"/>
<path fill-rule="evenodd" clip-rule="evenodd" d="M32.47 65.8021C32.47 65.8021 34.2207 63.9768 35.2087 63.7755C36.198 63.5781 41.8994 64.5781 44.67 62.0808C49.278 57.9608 42.7447 60.8515 40.002 60.8515C38.286 60.8515 35.638 60.4528 33.8594 62.3728C32.0767 64.2941 32.0647 64.9875 32.0647 64.9875L32.47 65.8021Z" fill="#BF0014"/>
<path fill-rule="evenodd" clip-rule="evenodd" d="M32.1354 64.1016C32.1354 64.1016 32.35 62.2656 34.5154 61.443C36.6807 60.623 38.1967 60.5496 38.4394 60.5496C38.6767 60.5496 44.2354 60.3416 46.4887 59.3856C46.4887 59.3856 47.3554 62.951 41.118 64.1696C41.118 64.1696 36.8767 64.3443 36.1394 64.0803C35.402 63.8203 33.454 65.039 33.0194 65.4296C32.5874 65.8203 33.0634 64.4736 33.366 64.1696C33.6674 63.8643 34.5354 62.951 36.0514 62.995C37.566 63.039 42.7194 63.255 43.6714 62.039C43.6714 62.039 37.9567 61.4296 36.0954 61.907C34.2327 62.3856 33.366 63.0803 32.8887 63.7763C32.414 64.4736 32.0714 64.2083 32.1354 64.1016Z" fill="#3FE6FF"/>
<path fill-rule="evenodd" clip-rule="evenodd" d="M38.2408 136.268C38.2408 136.268 38.4475 138.842 41.5755 137.32C41.5755 137.32 41.8661 137.235 41.6088 137.632C41.3501 138.028 39.0821 139.408 38.0688 137.063C37.8301 135.802 38.2235 136.511 38.2408 136.268ZM45.6568 129.586C45.6568 129.586 46.8088 130.402 47.2941 130.086C47.7768 129.771 48.0395 129.992 48.2875 130.126C48.5368 130.258 49.3741 131.662 47.9728 131.927C46.2621 132.247 45.0395 129.526 45.6568 129.586ZM48.4515 126.61C48.4515 126.61 49.8061 127.055 49.8301 125.571C49.8555 124.086 48.8688 123.716 48.1568 123.74C47.4408 123.766 44.5088 124.014 43.6235 127.724C42.7341 131.435 43.0328 131.703 43.0568 132.17C43.0768 132.638 42.2995 134.864 41.5475 135.198C40.7941 135.531 40.0608 135.956 40.5488 136.268C41.0381 136.578 40.5488 136.956 40.0835 136.956C39.6168 136.956 38.7541 136.69 38.9968 135.799C38.9968 135.799 39.3075 134.732 40.0408 134.463C40.7715 134.195 40.7275 133.416 40.3715 133.195C40.0181 132.971 38.2435 133.016 37.8008 134.331C37.3568 135.643 36.6675 137.878 37.4461 139C38.2248 140.123 40.3235 139.844 40.4395 139.742C40.5595 139.64 40.9208 140.744 41.5381 140.023C42.1581 139.302 44.4501 136.542 44.1288 134.271C44.1288 134.271 46.3915 134.432 46.5208 133.459C46.5208 133.459 46.5848 133.088 46.0328 133.058C45.4781 133.028 43.3795 130.531 44.5821 127.875C44.5821 127.875 45.6568 125.036 47.4901 125.534C48.5635 125.692 48.4715 126.555 48.4515 126.61ZM53.3328 116.558C53.3328 116.558 54.2341 114.82 55.8301 114.88C57.4301 114.94 57.6915 116.414 57.7248 116.628C57.7595 116.842 58.4235 114.416 55.8555 114.274C53.2875 114.13 53.3581 116.568 53.3328 116.558V116.558ZM47.4941 123.042C47.4941 123.042 48.4128 122.79 48.9128 123C49.4128 123.211 50.3728 122.959 49.4128 122.287C49.4128 122.287 48.2661 121.242 47.1381 121.596C47.1381 121.596 46.5968 122.016 46.9928 122.706C47.2115 123.138 47.4501 123.083 47.4941 123.042ZM50.3661 118.35C50.3661 118.35 51.1168 118.394 51.2661 118.672C51.4155 118.954 51.8235 115.23 52.9821 114.13C54.1395 113.034 54.3955 112.088 54.3955 112.088C54.3955 112.088 54.9741 112.43 55.0381 112.842C55.1021 113.25 57.9981 112.175 58.4355 114.632C58.8755 117.088 57.5608 119.547 56.6848 119.7C55.8088 119.856 54.5195 119.339 55.2421 118.462C55.2421 118.462 55.6035 118.099 56.1181 118.126C56.6341 118.148 57.2008 116.184 56.5315 115.927C55.8608 115.667 54.7008 115.899 55.0101 116.416C55.3181 116.935 55.2675 117.14 54.7515 117.375C54.2368 117.607 53.0528 118.744 53.0288 119.727C53.0008 120.711 52.8755 124.632 51.4568 126.812C50.0381 128.992 48.7035 129.2 47.7848 129.2C47.7848 129.2 45.6568 129.159 45.7008 127.568C45.7008 127.568 45.7008 126.184 46.5768 126.268C47.4501 126.351 47.2848 126.73 47.4088 127.356C47.5368 127.987 49.5381 128.195 50.3728 126.394C51.2075 124.591 52.0008 122.162 50.9555 120.907C49.9141 119.648 49.3301 119.648 48.9955 119.774C48.6608 119.899 49.8995 118.307 50.3661 118.35" fill="#3FE6FF"/>
<path d="M106.69 48.9194V39.1074C106.69 39.1074 102.509 35.47 102.662 32.0914C102.662 32.0914 93.5848 40.9034 102.98 55.0994C102.98 55.0994 104.278 49.7554 106.69 48.9194V48.9194Z" stroke="#034EA1" stroke-width="0.756" stroke-miterlimit="2.613"/>
<path fill-rule="evenodd" clip-rule="evenodd" d="M106.507 66.0782V37.0502L110.935 33.9942V69.8622L106.507 66.0782Z" fill="#3FE6FF"/>
<path d="M106.507 66.0782V37.0502L110.935 33.9942V69.8622L106.507 66.0782Z" stroke="#034EA1" stroke-width="0.756" stroke-miterlimit="2.613"/>
<path fill-rule="evenodd" clip-rule="evenodd" d="M110.749 35.8034L108.071 37.6274V67.0967L110.749 69.8781V35.8034Z" fill="#EC1C24"/>
<path d="M110.749 35.8034L108.071 37.6274V67.0967L110.749 69.8781V35.8034Z" stroke="#034EA1" stroke-width="0.377333" stroke-miterlimit="2.613"/>
<path fill-rule="evenodd" clip-rule="evenodd" d="M59.5391 98.7787C59.5391 98.7787 54.4631 101.513 54.9791 108.161L54.0218 109.863C54.0218 109.863 52.2538 102.62 58.8778 98.112L59.5391 98.7787Z" fill="#3FE6FF"/>
<path fill-rule="evenodd" clip-rule="evenodd" d="M24.7004 106.508H24.7511L26.7191 105.609C27.7591 124.516 39.1844 131.427 39.1844 131.427L32.5871 141.123L33.4071 142.141L33.0418 142.945L31.3644 141.555L37.6378 132.688C37.6378 132.688 26.6044 122.323 24.7004 106.508" fill="#3FE6FF"/>
<path d="M31.3644 141.555L37.6378 132.688C37.6378 132.688 26.8671 123.377 24.9604 107.568" stroke="#FFF100" stroke-width="0.00533333" stroke-miterlimit="2.613"/>
<path fill-rule="evenodd" clip-rule="evenodd" d="M23.0649 106.344V135.776L30.9076 141.781L31.3649 141.554L37.6383 132.688C37.6383 132.688 26.8676 123.377 24.9609 107.568L24.6623 105.609L23.0649 106.344Z" fill="#BF0014"/>
<path fill-rule="evenodd" clip-rule="evenodd" d="M47.0573 86.4948L43.7893 79.6228C43.7893 79.6228 41.244 95.4535 27.344 105.487C27.344 105.487 27.7293 122.907 39.4493 131.094L42.28 127.476C42.28 127.476 25.976 104.531 47.0573 86.4948" fill="#EC1C24"/>
<path d="M47.0573 86.4948L43.7893 79.6228C43.7893 79.6228 41.244 95.4535 27.344 105.487C27.344 105.487 27.7293 122.907 39.4493 131.094L42.28 127.476C42.28 127.476 25.976 104.531 47.0573 86.4948V86.4948Z" stroke="#231F20" stroke-width="0.756" stroke-miterlimit="2.613"/>
<path fill-rule="evenodd" clip-rule="evenodd" d="M53.7903 62.0365L57.7449 67.6725L71.6929 67.6978L86.1169 67.7551L91.3276 60.8591L90.1983 59.6751H58.1303L53.7903 62.0365Z" fill="#3FE6FF"/>
<path fill-rule="evenodd" clip-rule="evenodd" d="M91.3449 60.7345L93.6543 62.4945L71.249 91.7998H68.2903L91.3449 60.7345Z" fill="#EC1C24"/>
<path d="M91.3449 60.7345L93.6543 62.4945L71.249 91.7998H68.2903L91.3449 60.7345Z" stroke="#231F20" stroke-width="0.377333" stroke-miterlimit="2.613"/>
<path fill-rule="evenodd" clip-rule="evenodd" d="M61.4845 91.2292H79.9844L80.7684 92.8826L76.6138 99.5732H59.9951V94.5266L61.4845 91.2292Z" fill="#BF0014"/>
<path fill-rule="evenodd" clip-rule="evenodd" d="M63.496 92.8047H65.3L61.9533 98.9447H60.1506L63.496 92.8047Z" fill="white"/>
<path fill-rule="evenodd" clip-rule="evenodd" d="M67.0233 92.8047H68.8273L65.4833 98.9447H63.678L67.0233 92.8047Z" fill="white"/>
<path fill-rule="evenodd" clip-rule="evenodd" d="M70.16 92.8047H71.9614L68.6174 98.9447H66.8147L70.16 92.8047Z" fill="white"/>
<path fill-rule="evenodd" clip-rule="evenodd" d="M73.5311 92.8047H75.3325L71.9885 98.9447H70.1858L73.5311 92.8047Z" fill="white"/>
<path fill-rule="evenodd" clip-rule="evenodd" d="M59.9946 96.4974V94.5254L60.7733 92.804H62.0066L59.9946 96.4974Z" fill="white"/>
<path fill-rule="evenodd" clip-rule="evenodd" d="M77.1366 92.8047H78.9406L75.5939 98.9447H73.7913L77.1366 92.8047Z" fill="white"/>
<path fill-rule="evenodd" clip-rule="evenodd" d="M75.5324 112.716H53.5791L58.9138 104.372H75.5324V109.419V112.716Z" fill="#BF0014"/>
<path fill-rule="evenodd" clip-rule="evenodd" d="M72.0324 111.141H70.2271L73.5711 105.002H75.3764L72.0324 111.141Z" fill="white"/>
<path fill-rule="evenodd" clip-rule="evenodd" d="M68.505 111.141H66.6997L70.045 105.002H71.849L68.505 111.141Z" fill="white"/>
<path fill-rule="evenodd" clip-rule="evenodd" d="M65.3686 111.141H63.5632L66.9072 105.002H68.7126L65.3686 111.141Z" fill="white"/>
<path fill-rule="evenodd" clip-rule="evenodd" d="M61.9972 111.141H60.1946L63.5386 105.002H65.3412L61.9972 111.141Z" fill="white"/>
<path fill-rule="evenodd" clip-rule="evenodd" d="M75.5325 107.448V109.42L74.7538 111.141H73.5205L75.5325 107.448Z" fill="white"/>
<path fill-rule="evenodd" clip-rule="evenodd" d="M58.3918 111.141H56.5864L59.9331 105.002H61.7358L58.3918 111.141Z" fill="white"/>
<path fill-rule="evenodd" clip-rule="evenodd" d="M62.3581 104.047C63.3634 104.047 64.1807 103.227 64.1807 102.222C64.1807 101.219 63.3634 100.399 62.3581 100.399C61.3554 100.399 60.5354 101.219 60.5354 102.222C60.5354 103.227 61.3554 104.047 62.3581 104.047Z" fill="#EC1C24"/>
<path fill-rule="evenodd" clip-rule="evenodd" d="M73.2589 104.047C74.2629 104.047 75.0829 103.227 75.0829 102.222C75.0829 101.219 74.2629 100.399 73.2589 100.399C72.2536 100.399 71.4363 101.219 71.4363 102.222C71.4363 103.227 72.2536 104.047 73.2589 104.047Z" fill="#EC1C24"/>
<path fill-rule="evenodd" clip-rule="evenodd" d="M57.4022 98.6198C57.7596 98.3131 58.1449 98.0158 58.5622 97.7318L60.6556 95.9718C60.2929 95.3105 59.5902 94.8625 58.7836 94.8625C57.6102 94.8625 56.6516 95.8198 56.6516 96.9971C56.6516 97.6465 56.9436 98.2265 57.4022 98.6198ZM56.2609 99.7505C55.2222 100.925 54.5329 102.19 54.0782 103.414C53.4609 103.041 53.0449 102.362 53.0449 101.589C53.0449 100.412 54.0049 99.4531 55.1782 99.4531C55.5716 99.4531 55.9422 99.5625 56.2609 99.7505V99.7505ZM53.5676 105.169C53.1702 107.018 53.2356 108.609 53.3142 109.42H53.2796C52.1022 109.42 51.1462 108.461 51.1462 107.284C51.1462 106.109 52.1022 105.15 53.2796 105.15C53.3769 105.15 53.4729 105.156 53.5676 105.169" fill="#3FE6FF"/>
<path fill-rule="evenodd" clip-rule="evenodd" d="M44.4088 79.211C44.4088 79.211 47.3835 84.735 47.5875 85.799L47.2848 86.255L43.8528 79.5137L44.4088 79.211Z" fill="#3FE6FF"/>
<path fill-rule="evenodd" clip-rule="evenodd" d="M23.0649 86.0626V91.5906C27.3316 89.8052 30.0409 80.4172 30.0409 80.4172L23.0649 86.0626Z" fill="#EC1C24"/>
<path fill-rule="evenodd" clip-rule="evenodd" d="M46.1914 22.082H101.425L90.3114 35.8527C74.6541 29.886 54.2181 33.4993 54.2181 33.4993L46.1914 22.082Z" fill="#EC1C24"/>
<path fill-rule="evenodd" clip-rule="evenodd" d="M93.7199 22.0834L87.9519 30.446C86.4026 28.3727 83.3026 29.026 83.3026 29.026L86.2599 22.0834H84.1079L80.2039 31.4474L82.2133 31.9607C82.2133 31.9607 83.3626 29.3994 85.5306 30.3594C85.5306 30.3594 86.7426 30.8407 87.0613 32.858L88.6906 33.4354L96.4986 22.0834H93.7199ZM76.0213 22.082L74.1626 28.5847C73.4013 27.2394 71.0533 26.7927 71.0533 26.7927C69.6693 26.4114 67.3786 27.786 67.3786 27.786L66.4853 22.082H64.4346L65.8346 30.3927H68.1986C68.1986 30.3927 68.7199 27.758 70.7333 28.138C72.7479 28.518 73.0959 30.658 73.1546 30.834H75.6919L78.1413 22.082H76.0213ZM53.4333 22.0834H51.4053L55.4333 31.7554L56.4559 31.4807C56.4559 31.4807 56.3999 28.722 58.8746 28.9207C61.3506 29.1194 61.5719 30.834 61.5719 30.834L62.9106 30.662L60.0559 22.0834H57.5439L59.1479 27.354C56.8439 26.9554 56.0773 28.2007 56.0773 28.2007L53.4333 22.0834ZM84.5666 31.862C85.0399 31.862 85.4253 32.2474 85.4253 32.722C85.4253 33.194 85.0399 33.5807 84.5666 33.5807C84.0946 33.5807 83.7093 33.194 83.7093 32.722C83.7093 32.2474 84.0946 31.862 84.5666 31.862ZM70.5479 29.8287C71.0239 29.8287 71.4106 30.214 71.4106 30.6887C71.4106 31.1647 71.0239 31.5527 70.5479 31.5527C70.0746 31.5527 69.6866 31.1647 69.6866 30.6887C69.6866 30.214 70.0746 29.8287 70.5479 29.8287ZM59.0093 30.5887C59.4853 30.5887 59.8706 30.9754 59.8706 31.45C59.8706 31.9247 59.4853 32.3127 59.0093 32.3127C58.5346 32.3127 58.1466 31.9247 58.1466 31.45C58.1466 30.9754 58.5346 30.5887 59.0093 30.5887Z" fill="white"/>
<path fill-rule="evenodd" clip-rule="evenodd" d="M66.8814 62.3907C66.2534 62.3907 65.7414 62.904 65.7414 63.5333C65.7414 64.1613 66.2534 64.6747 66.8814 64.6747C67.512 64.6747 68.02 64.1613 68.02 63.5333C68.02 62.904 67.512 62.3907 66.8814 62.3907ZM65.956 61.86L61.24 65.3H66.968L71.5587 61.86H65.956ZM76.2774 62.3907C75.6494 62.3907 75.136 62.904 75.136 63.5333C75.136 64.1613 75.6494 64.6747 76.2774 64.6747C76.9054 64.6747 77.416 64.1613 77.416 63.5333C77.416 62.904 76.9054 62.3907 76.2774 62.3907ZM75.352 61.86L70.6347 65.3H76.364L80.9547 61.86H75.352ZM84.3374 61.86L79.6214 65.3H85.3507L89.9387 61.86H84.3374ZM85.2614 62.3907C84.6347 62.3907 84.1227 62.904 84.1227 63.5333C84.1227 64.1613 84.6347 64.6747 85.2614 64.6747C85.8894 64.6747 86.4027 64.1613 86.4027 63.5333C86.4027 62.904 85.8894 62.3907 85.2614 62.3907ZM56.2907 62.516L57.5747 64.3853C57.8147 64.1747 57.9734 63.8747 57.9734 63.5333C57.9734 62.904 57.4614 62.3907 56.8347 62.3907C56.636 62.3907 56.4534 62.4293 56.2907 62.516V62.516ZM55.864 61.888L57.7694 64.6613L61.512 61.86H55.9067L55.864 61.888ZM54.8147 61.2347H91.1267L87.22 66.1747H58.816L54.8147 61.2347Z" fill="#3F1000"/>
<path fill-rule="evenodd" clip-rule="evenodd" d="M52.0794 62.1694C52.0794 62.1694 52.566 60.888 53.0167 61.1534C53.4647 61.4174 53.654 60.964 53.578 60.5134C53.5034 60.06 54.142 59.7974 54.7394 60.06C55.3394 60.3227 55.4154 60.0987 55.4154 59.6454C55.4154 59.196 55.6794 59.0814 56.1647 59.4587C56.1647 59.4587 57.254 60.136 57.478 59.344C57.7034 58.552 54.89 58.1414 53.7287 58.516C52.5647 58.8934 51.3274 61.2267 52.0794 62.1694ZM51.7674 63.696C51.7674 63.696 50.658 59.1747 53.246 57.932C53.246 57.932 55.822 56.7894 58.4034 59.4014C58.4034 59.4014 58.9287 59.8147 57.8794 60.268C56.83 60.7187 51.7674 63.696 51.7674 63.696" fill="#BF0014"/>
<path fill-rule="evenodd" clip-rule="evenodd" d="M40.4179 71.3438L40.2766 71.4532C40.2366 71.5492 40.1366 71.6532 39.9272 71.7425C47.1259 79.8225 49.7526 91.2158 49.7526 91.2158L50.3939 91.0892C49.4006 82.6492 41.7539 72.9825 40.4179 71.3438Z" fill="#3FE6FF"/>
<path fill-rule="evenodd" clip-rule="evenodd" d="M36.1197 81.3984C36.1197 81.3984 38.8584 81.3277 39.7677 79.9864L40.0024 79.8464L41.4531 80.8797C41.4531 80.8797 40.8197 84.7317 40.5864 85.0157C40.3544 85.297 38.4811 85.273 38.4811 85.273C38.4811 85.273 37.5717 81.797 36.1197 81.3984ZM40.4344 73.589C40.4344 73.589 38.8317 74.8771 38.5424 74.8771L38.4091 75.1304C38.4091 75.1304 40.0197 76.3051 40.1757 77.3464C40.3317 78.3904 40.4344 78.705 40.4344 78.705L42.0731 78.7584L42.3584 76.4344L40.4344 73.589ZM33.7984 88.101C33.7984 88.101 35.8824 88.3304 36.6024 87.7037C37.3224 87.0757 37.8144 86.6744 37.8144 86.6744L39.3491 88.0264L37.6451 91.9264L35.4784 91.6144L35.5397 90.0984C35.5397 90.0984 33.7811 88.101 33.7984 88.101V88.101ZM30.8784 93.713C30.8784 93.713 33.4171 94.3077 34.5064 93.169L36.0024 94.625L33.0557 98.2677L31.4237 97.765C31.4237 97.765 31.6971 95.2157 31.3317 94.9424C30.9717 94.6717 30.8784 93.713 30.8784 93.713ZM26.1157 98.5077C26.1157 98.5077 27.8957 99.417 29.7584 99.057L30.5611 100.601L26.6011 103.925L25.6184 103.122C25.6184 103.122 25.9864 99.073 25.6477 98.857C25.3104 98.641 26.1157 98.5077 26.1157 98.5077V98.5077ZM33.6051 78.065C33.4664 79.8824 32.9357 81.753 32.1824 83.5677C32.4384 83.6464 32.7117 83.6877 32.9917 83.6877C34.5571 83.6877 35.8357 82.4091 35.8357 80.8411C35.8357 79.4864 34.8784 78.3464 33.6051 78.065V78.065ZM32.0304 83.9264C31.2757 85.677 30.3291 87.3717 29.3424 88.917C29.7904 89.205 30.3184 89.3744 30.8877 89.3744C32.4531 89.3744 33.7291 88.0957 33.7291 86.5317C33.7291 85.3704 33.0317 84.3704 32.0304 83.9264V83.9264ZM29.1184 89.2677C29.8971 89.7757 30.4131 90.653 30.4131 91.6504C30.4131 93.2157 29.1357 94.4944 27.5704 94.4944C26.8837 94.4944 26.2557 94.2504 25.7611 93.8437C26.7437 92.6437 27.9491 91.065 29.1184 89.2677ZM37.3117 73.7757L33.6317 76.653C33.6424 76.8824 33.6451 77.109 33.6397 77.3384C33.9437 77.4504 34.2691 77.5104 34.6104 77.5104C36.1757 77.5104 37.4544 76.2344 37.4544 74.6664C37.4544 74.3544 37.4037 74.0544 37.3117 73.7757V73.7757ZM23.6331 96.289V99.1197C25.1104 99.0237 26.2864 97.7864 26.2864 96.281C26.2864 95.4864 25.9571 94.765 25.4264 94.2504C24.3731 95.5157 23.6491 96.2677 23.6491 96.2677L23.6331 96.289Z" fill="#3FE6FF"/>
<path fill-rule="evenodd" clip-rule="evenodd" d="M23.0649 92.2006V107.19L23.4703 107.021C40.3956 98.5619 43.7023 78.6019 43.7023 78.6019L42.5903 77.0806C42.5903 77.0806 43.0929 77.8699 40.8036 86.0806C36.8783 99.0553 23.6329 106.118 23.6329 106.118V94.9513C31.8703 85.9139 32.8863 79.5913 32.9303 77.2033L30.7436 78.9139C30.4943 86.2966 24.6809 91.0233 23.0649 92.2006Z" fill="#3FE6FF"/>
<path fill-rule="evenodd" clip-rule="evenodd" d="M47.1797 86.9194C46.357 87.6327 45.5903 88.354 44.8797 89.0807C45.1423 89.2607 45.457 89.3674 45.7957 89.3674C46.6837 89.3674 47.4117 88.638 47.4117 87.75C47.4117 87.4474 47.3263 87.162 47.1797 86.9194ZM44.2237 89.774C43.465 90.5914 42.7757 91.414 42.149 92.242C42.4357 92.5074 42.8197 92.6714 43.2423 92.6714C44.1317 92.6714 44.8557 91.946 44.8557 91.0554C44.8557 90.534 44.6063 90.0674 44.2237 89.774V89.774ZM41.361 93.334C40.7277 94.25 40.1717 95.17 39.681 96.0887C39.9397 96.266 40.2517 96.37 40.589 96.37C41.4783 96.37 42.205 95.6434 42.205 94.7527C42.205 94.1434 41.861 93.61 41.361 93.334ZM39.249 96.9354C38.797 97.862 38.4117 98.7834 38.085 99.706C38.377 99.9927 38.7743 100.167 39.2117 100.167C40.1023 100.167 40.8277 99.4434 40.8277 98.5527C40.8277 97.6714 40.1223 96.9554 39.249 96.9354V96.9354ZM37.585 101.279C37.313 102.239 37.0997 103.193 36.9437 104.135C37.217 104.346 37.5623 104.474 37.9303 104.474C38.821 104.474 39.5463 103.747 39.5463 102.857C39.5463 101.966 38.821 101.242 37.9303 101.242C37.8143 101.242 37.697 101.255 37.585 101.279ZM36.7277 105.771C36.6277 106.755 36.581 107.726 36.5863 108.677C36.8157 108.805 37.077 108.875 37.357 108.875C38.2463 108.875 38.973 108.149 38.973 107.258C38.973 106.37 38.2463 105.641 37.357 105.641C37.1343 105.641 36.921 105.687 36.7277 105.771V105.771ZM36.6223 110.039C36.6757 111.099 36.7823 112.133 36.937 113.135C37.025 113.151 37.117 113.159 37.2103 113.159C38.101 113.159 38.8263 112.433 38.8263 111.542C38.8263 110.654 38.101 109.927 37.2103 109.927C37.0023 109.927 36.805 109.966 36.6223 110.039ZM37.2223 114.747C37.4063 115.643 37.621 116.51 37.8557 117.341C38.033 117.406 38.2237 117.443 38.4237 117.443C39.313 117.443 40.0383 116.717 40.0383 115.829C40.0383 114.938 39.313 114.211 38.4237 114.211C37.9477 114.211 37.521 114.417 37.2223 114.747V114.747ZM38.361 118.969C38.6437 119.815 38.9437 120.614 39.249 121.362C39.4023 121.409 39.5637 121.435 39.7317 121.435C40.621 121.435 41.3477 120.709 41.3477 119.818C41.3477 118.927 40.621 118.203 39.7317 118.203C39.153 118.203 38.6463 118.507 38.361 118.969V118.969ZM39.929 122.93C40.3743 123.891 40.8063 124.729 41.189 125.425C41.221 125.425 41.253 125.427 41.285 125.427C42.173 125.427 42.8983 124.701 42.8983 123.813C42.8983 122.922 42.173 122.195 41.285 122.195C40.7183 122.195 40.2197 122.487 39.929 122.93" fill="#3FE6FF"/>
<path d="M26.6576 88.0753L23.387 85.802L26.6576 88.0753M29.3696 82.414L26.3643 83.39L29.3696 82.414Z" stroke="#034EA1" stroke-width="0.756" stroke-miterlimit="2.613"/>
<path fill-rule="evenodd" clip-rule="evenodd" d="M23.0649 132.18V135.032L30.9103 141.054L31.9703 139.146L23.0649 132.18Z" fill="#3FE6FF"/>
<path fill-rule="evenodd" clip-rule="evenodd" d="M23.0649 107.057V108.591L25.4263 110.503C25.3129 109.917 25.2089 109.323 25.1169 108.716L23.0649 107.057ZM23.0649 108.989L25.5249 110.979C25.6609 111.623 25.8116 112.255 25.9716 112.875L23.0649 110.524V108.989ZM23.0649 110.808V112.341L26.6743 115.26C26.4569 114.601 26.2556 113.927 26.0663 113.235L23.0649 110.808ZM23.0649 113.364L27.1703 116.683C27.4609 117.467 27.7649 118.227 28.0863 118.959L23.0649 114.899V113.364ZM23.0649 115.921L28.8396 120.591C29.3036 121.541 29.7876 122.44 30.2729 123.284L23.0649 117.456V115.921ZM23.0649 118.479V120.013L32.4503 127.601V126.683C32.1463 126.251 31.8329 125.795 31.5223 125.317L23.0649 118.479Z" fill="white"/>
<path fill-rule="evenodd" clip-rule="evenodd" d="M30.2434 127.927L28.85 126.851V125.62L30.2434 126.695V127.927ZM27.2847 125.846L25.8914 124.774V123.458L27.2847 124.531V125.846ZM33.2847 130.43L31.8914 129.356V128.042L33.2847 129.115V130.43ZM30.1594 131.026L28.7647 129.951V128.083L30.1594 129.156V131.026ZM27.202 128.818L25.806 127.742V125.875L27.202 126.951V128.818ZM33.202 133.4L31.8087 132.326V130.458L33.202 131.534V133.4ZM30.1167 136.752L28.722 135.679V134.448L30.1167 135.523V136.752ZM27.158 134.588V133.06L25.7647 131.987V133.515L27.158 134.588ZM30.1167 134.291L28.722 133.216V131.348L30.1167 132.424V134.291ZM27.158 132L25.7647 130.927V129.06L27.158 130.132V132ZM36.0874 134.878L35.682 135.451L34.694 134.69V132.82L36.0874 133.896V134.878ZM33.1607 139.015V137.643L31.7647 136.57V138.096L33.0874 139.118L33.1607 139.015ZM23.0647 121.206V122.435L24.2434 123.343V122.112L23.0647 121.206ZM23.0647 123.732V125.599L24.158 126.44V124.572L23.0647 123.732ZM23.0647 127.031V128.899L24.1167 129.708V127.842L23.0647 127.031ZM23.0647 130.13V131.359L24.1167 132.17V130.94L23.0647 130.13ZM33.1607 136.583L31.7647 135.511V133.64L33.1607 134.716V136.583Z" fill="white"/>
<path fill-rule="evenodd" clip-rule="evenodd" d="M80.7318 92.8047L80.7678 92.8834L77.0038 98.9447H76.8145L80.1571 92.8047H80.7318Z" fill="white"/>
<path fill-rule="evenodd" clip-rule="evenodd" d="M58.5118 105.003L54.5864 111.141H55.2131L58.5571 105.003H58.5118Z" fill="white"/>
<path fill-rule="evenodd" clip-rule="evenodd" d="M109.204 68.2709L108.984 68.0415L110.748 67.1069V67.4509L109.204 68.2709ZM108.074 67.0575V66.7135C108.964 66.2402 109.855 65.7682 110.748 65.2949V65.6375C109.855 66.1122 108.964 66.5829 108.074 67.0575ZM108.074 65.2442V64.9015C108.964 64.4269 109.855 63.9562 110.748 63.4815V63.8255C109.855 64.2989 108.964 64.7709 108.074 65.2442ZM108.074 63.4322V63.0855C108.964 62.6149 109.855 62.1402 110.748 61.6695V62.0135C109.855 62.4869 108.964 62.9589 108.074 63.4322ZM108.074 61.6175V61.2735C108.964 60.8015 109.855 60.3282 110.748 59.8562V60.2002C109.855 60.6722 108.964 61.1455 108.074 61.6175ZM108.074 59.8042V59.4615C108.964 58.9895 109.855 58.5162 110.748 58.0442V58.3882C109.855 58.8589 108.964 59.3335 108.074 59.8042V59.8042ZM108.074 57.9922V57.6482C108.964 57.1775 109.855 56.7029 110.748 56.2322V56.5762C109.855 57.0469 108.964 57.5202 108.074 57.9922ZM108.074 56.1802V55.8362C108.964 55.3615 109.855 54.8909 110.748 54.4189V54.7629C109.855 55.2349 108.964 55.7082 108.074 56.1802ZM108.074 54.3669V54.0229C108.964 53.5495 109.855 53.0775 110.748 52.6042V52.9509C109.855 53.4215 108.964 53.8935 108.074 54.3669V54.3669ZM108.074 52.5549V52.2109C108.964 51.7375 109.855 51.2655 110.748 50.7922V51.1349C109.855 51.6095 108.964 52.0802 108.074 52.5549ZM108.074 50.7429V50.3989C108.964 49.9242 109.855 49.4535 110.748 48.9789V49.3229C109.855 49.7975 108.964 50.2682 108.074 50.7429ZM108.074 48.9295V48.5855C108.964 48.1122 109.855 47.6402 110.748 47.1669V47.5109C109.855 47.9842 108.964 48.4562 108.074 48.9295ZM108.074 47.1149V46.7709C108.964 46.2989 109.855 45.8255 110.748 45.3535V45.6975C109.855 46.1695 108.964 46.6429 108.074 47.1149ZM108.074 45.3015V44.9589C108.964 44.4869 109.855 44.0135 110.748 43.5415V43.8855C109.855 44.3562 108.964 44.8309 108.074 45.3015ZM108.074 43.4895V43.1455C108.964 42.6749 109.855 42.2002 110.748 41.7295V42.0735C109.855 42.5442 108.964 43.0189 108.074 43.4895ZM108.074 41.6775V41.3335C108.964 40.8589 109.855 40.3882 110.748 39.9135V40.2602C109.855 40.7322 108.964 41.2055 108.074 41.6775ZM108.074 39.8642V39.5202L110.748 38.1042V38.4455L108.074 39.8642Z" fill="#BF0014"/>
<path fill-rule="evenodd" clip-rule="evenodd" d="M79.8241 142.883L75.8481 137.399C71.4534 129.17 69.7894 123.836 65.9561 112.162L47.3775 137.172L42.5854 143.852L43.4841 145.356H75.5521L79.8241 142.883Z" fill="#BF0014"/>
<path fill-rule="evenodd" clip-rule="evenodd" d="M97.2527 173.242C97.1607 172.515 96.926 171.729 96.8754 171.091C96.7727 169.846 95.8247 169.174 95.3994 170.987C95.298 171.433 95.134 172.091 94.9927 172.791C93.862 178.411 85.6154 177.245 84.606 172.695C83.5927 168.146 85.0087 164.521 89.1034 159.378C93.198 154.234 95.11 150.922 96.118 147.703C96.9727 151.758 104.578 160.849 106.678 165.015C108.781 169.185 108.007 174.609 104.765 175.997C101.517 177.385 97.5954 175.906 97.2527 173.242Z" fill="#EC1C24"/>
<path fill-rule="evenodd" clip-rule="evenodd" d="M43.9453 167.169C43.9453 167.169 41.88 160.375 41.7653 157.495C41.6506 154.615 39.7026 149.375 38.152 148.915C38.152 148.915 37.416 150.951 34.504 150.219C34.504 150.219 31.144 149.375 31.5426 145.929C31.5426 145.929 31.644 144.224 33.1533 143.076C33.1533 143.076 36.8906 140.323 41.4413 143.571C41.4413 143.571 43.6946 145.388 43.8746 145.891L69.1666 146.109C69.1666 146.109 57.868 149.555 58.1613 161.469C58.1613 161.469 58.68 168.867 61.184 170.645C52.8213 170.979 43.9453 167.169 43.9453 167.169Z" fill="#3FE6FF"/>
<path d="M43.9453 167.169C43.9453 167.169 41.88 160.375 41.7653 157.495C41.6506 154.615 39.7026 149.375 38.152 148.915C38.152 148.915 37.416 150.951 34.504 150.219C34.504 150.219 31.144 149.375 31.5426 145.929C31.5426 145.929 31.644 144.224 33.1533 143.076C33.1533 143.076 36.8906 140.323 41.4413 143.571C41.4413 143.571 43.6946 145.388 43.8746 145.891L69.1666 146.109C69.1666 146.109 57.868 149.555 58.1613 161.469C58.1613 161.469 58.68 168.867 61.184 170.645C52.8213 170.979 43.9453 167.169 43.9453 167.169Z" stroke="#034EA1" stroke-width="0.377333" stroke-miterlimit="2.613"/>
<path fill-rule="evenodd" clip-rule="evenodd" d="M31.7812 182.948H88.8053L78.9199 169.013C78.9199 169.013 59.7346 173.325 44.3066 166.857L31.7812 182.948Z" fill="#BF0014"/>
<path d="M78.5806 169.495C78.5806 169.495 79.262 168.019 78.4686 167.055C77.678 166.091 78.074 164.216 78.3006 163.875C78.5246 163.533 81.2393 158.937 81.2393 158.937C81.2393 158.937 82.03 157.688 81.2393 157.008C81.2393 157.008 78.9233 155.7 78.442 154.932C77.9606 154.167 78.0166 153.685 78.074 152.948C78.13 152.208 78.3593 152.065 77.974 151.571C77.59 151.073 77.3686 150.631 77.4246 149.968C77.478 149.307 76.4366 148.645 76.2166 148.369C75.9966 148.093 76.106 146.273 76.106 146.273C76.106 146.273 74.7233 143.375 66.7886 147.203C58.8553 151.031 55.806 160.383 60.3953 170.536C70.8406 171.913 78.5806 169.495 78.5806 169.495Z" stroke="#034EA1" stroke-width="0.756" stroke-miterlimit="2.613"/>
<path fill-rule="evenodd" clip-rule="evenodd" d="M61.5936 157.596C61.5936 157.596 61.8469 156.61 61.3309 156.154C60.8122 155.695 59.9442 155.167 59.2856 156.224C58.6256 157.282 58.5322 157.547 58.5322 157.547C58.5322 157.547 58.7776 154.82 60.3456 154.508C61.9136 154.198 62.6602 156.011 62.6602 156.304C62.6602 156.596 62.8069 158.214 61.5936 157.596ZM78.1669 152.096C78.1669 152.096 78.2282 152.75 77.4309 152.607C76.6402 152.463 75.8056 152.484 75.5802 152.236C75.3562 151.992 74.3416 151.974 74.0362 152.034C73.7309 152.096 73.5256 151.848 73.4869 151.646C73.4456 151.44 73.1216 150.891 72.9562 150.787C72.7922 150.684 73.4029 150.583 73.8109 150.891C74.2189 151.195 75.3562 151.544 75.9882 150.891C76.6189 150.236 76.9042 149.93 76.7216 149.623C76.5376 149.315 77.4309 149.44 77.3922 150.276C77.3509 151.115 78.1242 152.135 78.1669 152.096ZM76.0016 154.006C76.0682 153.846 76.2282 153.211 74.8482 153.37C73.4696 153.528 73.3789 152.984 71.7296 152.484C70.0789 151.984 68.8802 152.735 68.4282 153.938C67.9776 155.14 69.1762 155.638 69.6962 155.796C70.2162 155.958 70.1242 155.482 69.8082 155.32C69.4909 155.162 68.7216 154.708 69.2669 153.982C69.8082 153.255 71.1429 153.072 71.5696 153.596C72.0002 154.118 73.3789 154.64 74.4882 154.799C75.5962 154.958 76.0016 154.006 76.0016 154.006V154.006ZM79.0122 157.402C79.0122 157.402 78.5122 157.739 77.6389 157.44C76.7629 157.138 76.5896 157.026 76.3869 156.687C76.1882 156.348 75.0642 156.336 74.9749 156.888C74.8882 157.44 74.8989 157.906 75.2362 158.318C75.5762 158.732 75.3002 158.971 75.0002 158.695C75.0002 158.695 74.1509 158.13 74.2122 157.102C74.2749 156.072 75.1242 155.771 76.1629 155.984C77.2016 156.198 77.7629 156.651 77.7629 156.651C77.7629 156.651 78.0002 156.839 78.9002 156.638C79.7882 156.586 79.0122 157.402 79.0122 157.402V157.402ZM72.1269 161.724C72.1269 161.724 72.1496 162.82 71.6949 162.951C71.2376 163.078 70.9136 162.782 70.7696 162.568C70.6256 162.354 70.4362 162.02 70.8389 161.867C71.2376 161.716 72.1269 161.662 72.1269 161.724ZM73.5669 162.82C73.5669 162.82 73.1829 163.372 72.7149 163.124C72.2456 162.875 72.5496 162.102 72.9909 161.854C73.4309 161.604 73.8696 161.55 73.7069 162.348C73.6136 162.87 73.5669 162.82 73.5669 162.82ZM76.2109 164.755C76.4336 164.755 75.9642 164.175 75.5789 163.735C75.1922 163.291 75.3029 162.184 75.7442 161.826C76.1829 161.466 75.9082 161.162 75.2482 161.132C74.5869 161.107 73.9256 160.664 73.8162 160.471C73.7069 160.276 73.8162 159.862 73.6496 159.862C73.4842 159.862 72.9909 159.724 72.6882 159.528C72.3856 159.336 71.6149 159.034 71.5842 159.198C71.5589 159.364 71.9442 159.586 72.6322 160.304C73.3202 161.023 73.1016 161.328 73.1016 161.328C73.1016 161.328 71.2829 161.132 70.6216 161.438C69.9616 161.742 69.9322 161.992 68.5282 161.575C67.1242 161.162 67.0682 161.687 67.0682 161.687C67.0682 161.687 68.4189 162.432 69.4376 163.18C70.4549 163.927 72.0002 164.396 72.9616 164.508C73.9256 164.618 73.7882 164.896 73.7882 164.896C70.9229 165.531 67.5656 162.794 67.5656 162.794C67.6189 163.124 68.6389 164.232 70.1802 164.839C71.7242 165.448 73.4869 165.448 73.7322 165.282C73.9829 165.118 76.2109 164.755 76.2109 164.755V164.755ZM76.5842 167.768C76.5842 167.768 75.2122 167.458 73.8056 167.495C72.4016 167.528 68.3576 166.46 66.9176 164.326C66.9176 164.326 67.1229 164.018 67.5669 164.534C68.0136 165.05 71.8536 166.807 73.8056 166.46C75.7616 166.118 77.2016 166.979 76.5842 167.768Z" fill="#BF0014"/>
<path fill-rule="evenodd" clip-rule="evenodd" d="M81.4687 141.75C81.5047 141.971 80.9154 142.007 80.7127 141.971C80.5087 141.935 80.2874 141.602 79.8447 140.769C79.4034 139.935 80.3434 140.674 80.4367 140.453C80.5301 140.231 81.1194 139.729 81.1194 139.729C82.5954 138.935 84.0527 140.045 84.0527 140.045L83.1487 140.862C83.1487 140.862 82.6514 140.453 81.8927 140.507C81.1367 140.565 81.4687 141.75 81.4687 141.75ZM80.6487 138.143C80.6487 138.143 81.3154 137.219 81.1274 136.807C80.9394 136.395 81.0074 135.987 81.3847 136.226C81.7567 136.463 82.0994 137.594 81.3154 138.125C80.5314 138.657 80.6487 138.143 80.6487 138.143ZM79.9701 136.57C79.9701 136.57 80.7661 137.159 79.7967 137.611C78.8301 138.062 78.5181 137.646 78.3101 137.299C78.1034 136.95 77.8247 135.977 77.5834 137.333C77.3407 138.69 77.9301 139.315 78.8301 139.523C79.7274 139.731 81.2861 139.281 81.8394 138.829C82.3941 138.378 82.9141 138.55 82.9141 138.55C82.9141 138.55 83.5701 138.099 82.8807 137.89C82.1861 137.682 82.6021 136.605 82.2554 136.083C81.9101 135.559 80.9741 133.823 79.9367 133.545C79.9367 133.545 79.6114 133.578 79.8914 133.11C80.1727 132.641 79.9234 131.982 79.1741 132.297C78.4274 132.61 77.6487 132.515 77.1181 132.234C76.5901 131.953 75.0607 131.138 74.6874 130.482C74.3141 129.826 74.1901 129.545 74.3754 129.135C74.5634 128.729 74.4394 127.666 73.8781 128.291C73.3167 128.917 73.1301 130.107 73.9087 131.045C74.6874 131.982 77.3994 133.578 77.7741 133.703C77.7741 133.703 79.8607 135.143 79.8607 135.611C79.8607 136.083 79.8607 136.239 79.6434 136.455C79.4234 136.677 79.7701 136.617 79.9701 136.57V136.57ZM77.5847 130.607C77.5847 130.607 77.7407 130.607 77.6167 129.854C77.4927 129.105 76.8381 129.573 76.7741 130.513C76.7141 131.45 76.8701 131.513 77.2127 131.575C77.5527 131.638 77.5847 130.607 77.5847 130.607ZM75.8714 128.562C75.8714 128.562 76.4821 128.31 75.8714 127.515C75.2621 126.722 73.6794 124.919 72.8541 124.846C72.0274 124.774 71.3834 124.666 71.3834 125.026C71.3834 125.389 70.6287 125.169 70.8061 124.487C70.9874 123.799 71.0581 123.763 71.2727 123.619C71.4901 123.474 69.1541 122.43 69.0474 120.841C68.9394 119.255 69.0474 118.821 69.0474 118.821C69.0474 118.821 68.5807 118.607 68.3994 118.607C68.2181 118.607 68.7594 117.919 69.4407 117.919C70.1247 117.919 70.4114 117.955 70.4114 117.955C70.4114 117.955 71.8834 116.619 73.5381 117.955C75.1887 119.289 74.1487 120.769 73.7874 120.914C73.4287 121.057 73.4647 120.698 73.3581 120.335C73.2501 119.977 71.9554 118.714 71.2727 120.482C71.2727 120.482 72.0274 120.515 71.6314 121.13C71.2354 121.745 71.7047 122.357 72.2781 122.789C72.8541 123.223 74.5781 124.774 74.9367 124.99C75.2954 125.206 76.7701 126.505 76.8061 127.805C76.8407 129.102 76.8061 129.607 76.1941 129.643C75.5834 129.679 75.7274 128.958 75.8714 128.562V128.562ZM72.2154 128.75C72.2154 128.75 72.1781 128.313 72.0421 128.201C71.9047 128.089 71.5674 126.993 72.0781 126.742C72.5861 126.493 72.9594 127.19 72.9594 127.802C72.9594 128.414 72.6247 128.999 72.2154 128.75V128.75ZM70.3301 121.097C70.3301 121.097 69.9421 119.614 70.9501 119.146C70.9501 119.146 71.2101 118.657 70.7207 118.831C70.2354 119.005 69.5407 119.703 69.7141 120.717C69.7141 120.717 69.9207 121.206 70.2141 121.217C70.5061 121.226 70.3301 121.097 70.3301 121.097" fill="#3FE6FF"/>
<path fill-rule="evenodd" clip-rule="evenodd" d="M71.5781 114.727L70.1607 114.631C70.1607 114.631 69.6581 115.633 69.1514 115.185C68.6461 114.74 68.6701 114.691 68.6701 114.584C68.6701 114.475 67.2407 114.68 67.2407 114.68C67.2407 114.68 67.3234 117.057 68.7767 117.227C70.2327 117.396 71.1461 116.599 71.3634 116.248C71.7821 115.693 71.5781 114.727 71.5781 114.727Z" fill="#3FE6FF"/>
<path fill-rule="evenodd" clip-rule="evenodd" d="M86.7877 138.719C86.7877 138.719 77.749 126.312 76.037 118.749L74.7957 119.307C74.7957 119.307 80.5277 134.492 85.7623 139.364C86.149 139.172 86.7877 138.719 86.7877 138.719Z" fill="#3FE6FF"/>
<path fill-rule="evenodd" clip-rule="evenodd" d="M88.3997 135.852C87.6811 135.852 87.0944 135.266 87.0944 134.549C87.0944 133.83 87.6811 133.245 88.3997 133.245C89.1171 133.245 89.7037 133.83 89.7037 134.549C89.7037 135.266 89.1171 135.852 88.3997 135.852ZM87.8424 137.936L91.8437 134.802C91.8464 134.748 91.8477 134.693 91.8477 134.638C91.8477 132.786 90.3397 131.276 88.4891 131.276C86.6397 131.276 85.1304 132.786 85.1304 134.638C85.1304 136.269 86.2997 137.633 87.8424 137.936V137.936ZM83.4824 128.281C84.1344 128.281 84.6637 127.753 84.6637 127.101C84.6637 126.45 84.1344 125.92 83.4824 125.92C82.8331 125.92 82.3037 126.45 82.3037 127.101C82.3037 127.753 82.8331 128.281 83.4824 128.281V128.281ZM83.5664 130.226C81.8891 130.226 80.5224 128.86 80.5224 127.182C80.5224 125.505 81.8891 124.138 83.5664 124.138C85.2411 124.138 86.6091 125.505 86.6091 127.182C86.6091 128.86 85.2411 130.226 83.5664 130.226V130.226ZM80.6077 121.256C81.3251 121.256 81.9091 120.672 81.9091 119.953C81.9091 119.234 81.3251 118.652 80.6077 118.652C79.8891 118.652 79.3037 119.234 79.3037 119.953C79.3037 120.672 79.8891 121.256 80.6077 121.256ZM80.6984 123.401C78.8477 123.401 77.3411 121.89 77.3411 120.042C77.3411 118.193 78.8477 116.685 80.6984 116.685C82.5451 116.685 84.0517 118.193 84.0517 120.042C84.0517 121.89 82.5451 123.401 80.6984 123.401" fill="#3FE6FF"/>
<path fill-rule="evenodd" clip-rule="evenodd" d="M84.427 112.883L84.8563 114.297C89.3683 109.755 92.1603 103.503 92.1603 96.6175C92.1603 92.2842 91.055 88.2028 89.1097 84.6375L88.1657 85.6148C89.891 88.9095 90.8697 92.6535 90.8697 96.6175C90.8697 102.899 88.419 108.623 84.427 112.883Z" fill="#3FE6FF"/>
<path fill-rule="evenodd" clip-rule="evenodd" d="M74.5051 117.466L74.6838 118.466C83.6051 115.338 89.9571 106.592 89.9571 96.6169C89.9571 92.9035 89.0638 89.3929 87.4825 86.2862L86.6558 86.8649C88.1265 89.8049 88.9558 93.1169 88.9558 96.6169C88.9558 106.1 82.9585 114.436 74.5051 117.466Z" fill="#3FE6FF"/>
<path fill-rule="evenodd" clip-rule="evenodd" d="M87.1055 89.6614C87.9428 91.9894 88.3601 94.1748 88.4508 96.2108C88.1695 96.2868 87.8735 96.3281 87.5695 96.3281C85.7241 96.3281 84.2201 94.8254 84.2201 92.9788C84.2201 91.2894 85.4788 89.8854 87.1055 89.6614ZM88.3775 98.9188C88.1401 101.292 87.4628 103.435 86.5095 105.355C85.1428 104.932 84.1441 103.653 84.1441 102.151C84.1441 100.304 85.6481 98.8001 87.4935 98.8001C87.7988 98.8001 88.0961 98.8414 88.3775 98.9188ZM85.1908 107.645C83.8881 109.62 82.3335 111.301 80.7908 112.689C80.0948 112.076 79.6521 111.177 79.6521 110.177C79.6521 108.331 81.1561 106.825 83.0015 106.825C83.8375 106.825 84.6028 107.135 85.1908 107.645V107.645ZM78.5588 114.519C76.5601 116.016 74.8215 116.971 74.0001 117.393C73.5401 116.901 73.2588 116.243 73.2588 115.521C73.2588 114.008 74.4921 112.773 76.0041 112.773C77.1628 112.773 78.1561 113.5 78.5588 114.519Z" fill="#3FE6FF"/>
<path d="M26.9922 156.112V165.927C26.9922 165.927 31.1735 169.563 31.0202 172.943C31.0202 172.943 40.1002 164.131 30.7029 149.935C30.7029 149.935 29.4042 155.279 26.9922 156.112Z" stroke="#034EA1" stroke-width="0.756" stroke-miterlimit="2.613"/>
<path fill-rule="evenodd" clip-rule="evenodd" d="M27.5247 138.956V167.982L23.0967 171.04V135.169L27.5247 138.956Z" fill="#3FE6FF"/>
<path d="M27.5247 138.956V167.982L23.0967 171.04V135.169L27.5247 138.956Z" stroke="#034EA1" stroke-width="0.756" stroke-miterlimit="2.613"/>
<path fill-rule="evenodd" clip-rule="evenodd" d="M109.068 98.2162L106.964 99.4215C105.924 80.5162 94.4971 73.6068 94.4971 73.6068L101.096 63.9095L100.274 62.8935L100.641 62.0855L102.317 63.4788L96.0437 72.3442C96.0437 72.3442 107.162 82.4042 109.068 98.2162" fill="#3FE6FF"/>
<path d="M102.318 63.4792L96.0444 72.3432C96.0444 72.3432 106.814 81.6539 108.722 97.4659" stroke="#FFF100" stroke-width="0.00533333" stroke-miterlimit="2.613"/>
<path fill-rule="evenodd" clip-rule="evenodd" d="M110.617 98.6901V69.2581L102.774 63.2501L102.317 63.4795L96.0437 72.3435C96.0437 72.3435 106.813 81.6541 108.721 97.4661L109.018 99.4221L110.617 98.6901Z" fill="#BF0014"/>
<path fill-rule="evenodd" clip-rule="evenodd" d="M86.625 118.539L89.893 125.408C89.893 125.408 92.4383 109.578 106.338 99.5471C106.338 99.5471 105.956 82.1271 94.233 73.9378L91.4037 77.5551C91.4037 77.5551 107.706 100.5 86.625 118.539Z" fill="#EC1C24"/>
<path d="M86.625 118.539L89.893 125.408C89.893 125.408 92.4383 109.578 106.338 99.5471C106.338 99.5471 105.956 82.1271 94.233 73.9378L91.4037 77.5551C91.4037 77.5551 107.706 100.5 86.625 118.539Z" stroke="#231F20" stroke-width="0.756" stroke-miterlimit="2.613"/>
<path d="M49.1642 168.378C49.1642 168.378 47.2695 157.266 47.2135 155.536C47.1575 153.81 46.1255 149.435 44.3455 146.784C42.5695 144.135 39.1855 140.911 34.7135 142.238C34.7135 142.238 30.5828 143.618 31.7308 147.763C31.7308 147.763 32.9362 151.104 36.7202 150.24C36.7202 150.24 38.8415 149.375 38.3255 147.362C37.8082 145.344 35.9162 146.612 36.1455 147.476C36.3762 148.339 36.6642 148.974 35.2282 148.799C33.7962 148.628 32.1335 146.266 33.1068 145C34.0802 143.732 36.2015 142.58 38.4975 143.675C40.7922 144.768 43.6015 147.13 44.8068 151.566C46.0108 155.998 47.8442 168.091 47.8442 168.091M65.7175 147.714L65.4508 146.214L65.7175 147.714ZM64.4348 148.536L63.7615 146.276L64.4348 148.536ZM63.3295 149.402L62.2682 146.208L63.3295 149.402ZM62.0095 150.643L60.4122 146.304L62.0095 150.643ZM60.8615 151.908L58.9695 146.287L60.8615 151.908ZM60.0028 153.407L57.6615 146.295L60.0028 153.407ZM58.9695 155.364L56.0655 146.255L58.9695 155.364ZM58.0522 159.107C58.0522 159.107 55.2255 147.034 54.7082 146.227L58.0522 159.107ZM58.7975 170.047C58.7975 170.047 55.9868 161.123 55.9868 157.091C55.9868 153.06 53.3015 146.208 53.3015 146.208L58.7975 170.047ZM57.2482 169.992C57.2482 169.992 54.7842 161.526 54.7842 159.396C54.7842 157.266 53.0068 147.927 51.6308 146.255L57.2482 169.992ZM55.5268 169.703C55.5268 169.703 53.4655 161.066 53.3508 157.784C53.2362 154.5 50.3308 146.638 49.9868 146.178L55.5268 169.703ZM54.0948 169.416C54.0948 169.416 52.0295 161.64 51.9148 157.438C51.8002 153.235 48.7842 146.244 48.7842 146.244L54.0948 169.416ZM52.3735 169.242C52.3735 169.242 50.2522 158.416 50.1962 156.69C50.1375 154.962 48.7148 148.779 47.1682 146.304L52.3735 169.242ZM50.7708 168.782C50.7708 168.782 48.9908 160.028 48.8762 157.495C48.7615 154.962 46.6135 147.907 45.8095 146.295L50.7708 168.782ZM46.5255 167.747C46.5255 167.747 45.0922 159.798 44.8068 157.552C44.5202 155.307 42.6842 149.203 41.5362 147.591C40.3895 145.979 37.5228 144.135 35.5735 145.115C33.6228 146.094 35.0575 147.302 36.0895 147.302L46.5255 167.747ZM45.1482 167.112C45.1482 167.112 43.2562 158.071 43.2562 156.23C43.2562 154.386 40.9628 147.82 38.4415 147.244L45.1482 167.112Z" stroke="#034EA1" stroke-width="0.377333" stroke-miterlimit="2.613"/>
<path fill-rule="evenodd" clip-rule="evenodd" d="M68.5169 146.432C70.1862 145.747 71.5022 145.408 72.5355 145.284H43.9355V146.432H68.5169Z" fill="#3F1000"/>
<path fill-rule="evenodd" clip-rule="evenodd" d="M79.0273 142.995L75.2846 137.359L61.9899 137.334L47.5113 137.307L42.5859 143.852L43.4846 145.356H75.5526L79.0273 142.995Z" fill="#3FE6FF"/>
<path fill-rule="evenodd" clip-rule="evenodd" d="M42.3373 144.3L40.4373 142.286L62.8679 112.652H65.8266L42.3373 144.3Z" fill="#EC1C24"/>
<path d="M42.3373 144.3L40.4373 142.286L62.8679 112.652H65.8266L42.3373 144.3Z" stroke="#231F20" stroke-width="0.377333" stroke-miterlimit="2.613"/>
<path fill-rule="evenodd" clip-rule="evenodd" d="M89.2734 125.823C89.2734 125.823 86.2974 120.296 86.0947 119.235L86.3974 118.779L89.8294 125.518L89.2734 125.823Z" fill="#3FE6FF"/>
<path fill-rule="evenodd" clip-rule="evenodd" d="M110.617 118.971V113.443C106.35 115.226 103.641 124.617 103.641 124.617L110.617 118.971Z" fill="#EC1C24"/>
<path fill-rule="evenodd" clip-rule="evenodd" d="M87.4909 182.951H32.2576L43.3709 169.18C59.0282 175.148 79.4642 171.533 79.4642 171.533L87.4909 182.951Z" fill="#EC1C24"/>
<path fill-rule="evenodd" clip-rule="evenodd" d="M39.9623 182.951L45.7289 174.587C47.2796 176.659 50.3796 176.008 50.3796 176.008L47.4223 182.951H49.5743L53.4783 173.584L51.4689 173.071C51.4689 173.071 50.3223 175.633 48.1516 174.672C48.1516 174.672 46.9396 174.193 46.6209 172.175L44.9943 171.599L37.1836 182.951H39.9623ZM57.6609 182.951L59.5196 176.448C60.2809 177.792 62.6289 178.24 62.6289 178.24C64.0129 178.62 66.3036 177.245 66.3036 177.245L67.1969 182.951H69.2463L67.8476 174.641H65.4836C65.4836 174.641 64.9623 177.276 62.9489 176.893C60.9343 176.513 60.5863 174.375 60.5276 174.199H57.9903L55.5409 182.951H57.6609ZM80.2489 182.948H82.2769L78.2489 173.279L77.2263 173.552C77.2263 173.552 77.2849 176.311 74.8076 176.112C72.3316 175.915 72.1103 174.199 72.1103 174.199L70.7716 174.372L73.6263 182.948H76.1409L74.5343 177.677C76.8383 178.076 77.6049 176.833 77.6049 176.833L80.2489 182.948ZM49.1156 173.169C48.6423 173.169 48.2569 172.784 48.2569 172.311C48.2569 171.839 48.6423 171.453 49.1156 171.453C49.5876 171.453 49.9729 171.839 49.9729 172.311C49.9729 172.784 49.5876 173.169 49.1156 173.169V173.169ZM63.1343 175.205C62.6583 175.205 62.2716 174.817 62.2716 174.344C62.2716 173.867 62.6583 173.481 63.1343 173.481C63.6076 173.481 63.9956 173.867 63.9956 174.344C63.9956 174.817 63.6076 175.205 63.1343 175.205ZM74.6729 174.445C74.1969 174.445 73.8116 174.057 73.8116 173.584C73.8116 173.107 74.1969 172.719 74.6729 172.719C75.1476 172.719 75.5356 173.107 75.5356 173.584C75.5356 174.057 75.1476 174.445 74.6729 174.445Z" fill="white"/>
<path fill-rule="evenodd" clip-rule="evenodd" d="M66.8008 142.641C67.4288 142.641 67.9408 142.127 67.9408 141.501C67.9408 140.873 67.4288 140.359 66.8008 140.359C66.1728 140.359 65.6608 140.873 65.6608 141.501C65.6608 142.127 66.1728 142.641 66.8008 142.641ZM67.7248 143.171L72.4408 139.734H66.7128L62.1234 143.171H67.7248ZM57.4048 142.641C58.0328 142.641 58.5461 142.127 58.5461 141.501C58.5461 140.873 58.0328 140.359 57.4048 140.359C56.7768 140.359 56.2661 140.873 56.2661 141.501C56.2661 142.127 56.7768 142.641 57.4048 142.641ZM58.3328 143.171L63.0474 139.734H57.3181L52.7274 143.171H58.3328ZM49.3448 143.171L54.0608 139.734H48.3314L43.7421 143.171H49.3448ZM48.4194 142.641C49.0474 142.641 49.5594 142.127 49.5594 141.501C49.5594 140.873 49.0474 140.359 48.4194 140.359C47.7928 140.359 47.2794 140.873 47.2794 141.501C47.2794 142.127 47.7928 142.641 48.4194 142.641V142.641ZM77.3914 142.502L76.1021 140.641C75.8621 140.849 75.7088 141.159 75.7088 141.501C75.7088 142.127 76.2208 142.641 76.8474 142.641C77.0461 142.641 77.2288 142.591 77.3914 142.502ZM77.8288 143.133L75.9128 140.37L72.1701 143.171H77.7754L77.8288 143.133ZM78.2901 143.797H42.5554L46.4594 138.859H74.8661L78.2901 143.797Z" fill="#3F1000"/>
<path fill-rule="evenodd" clip-rule="evenodd" d="M81.6027 142.865C81.6027 142.865 81.1147 144.143 80.6654 143.881C80.2174 143.617 80.0281 144.067 80.1041 144.521C80.1801 144.971 79.5401 145.237 78.9427 144.971C78.3427 144.709 78.2667 144.935 78.2667 145.389C78.2667 145.838 78.0027 145.95 77.5174 145.575C77.5174 145.575 76.4281 144.895 76.2041 145.687C75.9787 146.479 78.792 146.893 79.9534 146.518C81.1174 146.141 82.3547 143.805 81.6027 142.865ZM81.9147 141.338C81.9147 141.338 83.0227 145.857 80.436 147.099C80.436 147.099 77.8601 148.242 75.2787 145.633C75.2787 145.633 74.7534 145.219 75.8027 144.766C76.8521 144.315 81.9147 141.338 81.9147 141.338" fill="#BF0014"/>
<path fill-rule="evenodd" clip-rule="evenodd" d="M93.2643 133.69L93.4057 133.581C93.4457 133.482 93.5457 133.381 93.755 133.292C86.5563 125.212 83.9297 113.816 83.9297 113.816L83.2883 113.945C84.2817 122.385 91.9283 132.052 93.2643 133.69Z" fill="#3FE6FF"/>
<path fill-rule="evenodd" clip-rule="evenodd" d="M97.5624 123.635C97.5624 123.635 94.8237 123.706 93.9144 125.045L93.6797 125.185L92.2291 124.151C92.2291 124.151 92.8611 120.299 93.0944 120.018C93.3291 119.737 95.1997 119.761 95.1997 119.761C95.1997 119.761 96.1104 123.237 97.5624 123.635ZM93.2451 131.445C93.2451 131.445 94.8504 130.157 95.1397 130.157L95.2731 129.903C95.2731 129.903 93.6624 128.729 93.5064 127.685C93.3504 126.641 93.2451 126.329 93.2451 126.329L91.6091 126.275L91.3237 128.599L93.2451 131.445ZM99.8837 116.93C99.8837 116.93 97.7997 116.703 97.0797 117.33C96.3597 117.958 95.8677 118.357 95.8677 118.357L94.3331 117.007L96.0371 113.107L98.2037 113.417L98.1424 114.933C98.1424 114.933 99.9037 116.93 99.8837 116.93ZM102.804 111.318C102.804 111.318 100.265 110.726 99.1757 111.865L97.6797 110.409L100.626 106.766L102.258 107.266C102.258 107.266 101.985 109.815 102.35 110.089C102.71 110.362 102.804 111.318 102.804 111.318ZM107.566 106.526C107.566 106.526 105.786 105.614 103.924 105.977L103.121 104.43L107.081 101.109L108.064 101.911C108.064 101.911 107.696 105.961 108.034 106.174C108.37 106.39 107.566 106.526 107.566 106.526V106.526ZM100.077 126.969C100.216 125.151 100.749 123.281 101.5 121.463C101.244 121.387 100.97 121.346 100.69 121.346C99.1251 121.346 97.8464 122.625 97.8464 124.19C97.8464 125.547 98.8064 126.685 100.077 126.969V126.969ZM101.65 121.105C102.406 119.354 103.353 117.659 104.34 116.117C103.892 115.829 103.364 115.659 102.794 115.659C101.229 115.659 99.9531 116.935 99.9531 118.502C99.9531 119.662 100.65 120.663 101.65 121.105V121.105ZM104.564 115.766C103.785 115.258 103.269 114.378 103.269 113.383C103.269 111.815 104.546 110.539 106.11 110.539C106.797 110.539 107.426 110.783 107.921 111.19C106.938 112.39 105.733 113.966 104.564 115.766ZM96.3704 131.258L100.05 128.378C100.04 128.151 100.037 127.922 100.042 127.693C99.7384 127.583 99.4131 127.521 99.0717 127.521C97.5064 127.521 96.2304 128.799 96.2304 130.367C96.2304 130.677 96.2784 130.977 96.3704 131.258ZM110.048 108.745V105.911C108.572 106.01 107.396 107.247 107.396 108.75C107.396 109.545 107.725 110.266 108.254 110.783C109.309 109.515 110.032 108.763 110.032 108.763L110.048 108.745Z" fill="#3FE6FF"/>
<path fill-rule="evenodd" clip-rule="evenodd" d="M110.617 112.833V97.844L110.214 98.0134C93.2864 106.469 89.9797 126.429 89.9797 126.429L91.0904 127.953C91.0904 127.953 90.5891 127.161 92.8784 118.951C96.8037 105.976 110.05 98.9147 110.05 98.9147V110.083C101.812 119.117 100.794 125.44 100.752 127.831L102.937 126.117C103.188 118.735 109.001 114.008 110.617 112.833Z" fill="#3FE6FF"/>
<path fill-rule="evenodd" clip-rule="evenodd" d="M86.5025 118.115C87.3252 117.401 88.0905 116.677 88.8025 115.953C88.5398 115.771 88.2252 115.667 87.8865 115.667C86.9985 115.667 86.2705 116.393 86.2705 117.281C86.2705 117.587 86.3558 117.869 86.5025 118.115ZM89.4612 115.26C90.2172 114.443 90.9065 113.617 91.5332 112.789C91.2465 112.524 90.8625 112.363 90.4398 112.363C89.5505 112.363 88.8265 113.088 88.8265 113.979C88.8265 114.5 89.0758 114.964 89.4612 115.26ZM92.3212 111.697C92.9545 110.784 93.5105 109.864 94.0012 108.943C93.7425 108.765 93.4292 108.661 93.0932 108.661C92.2038 108.661 91.4772 109.388 91.4772 110.279C91.4772 110.891 91.8212 111.424 92.3212 111.697ZM94.4332 108.096C94.8852 107.172 95.2705 106.248 95.5972 105.325C95.3052 105.041 94.9078 104.864 94.4678 104.864C93.5798 104.864 92.8545 105.591 92.8545 106.481C92.8545 107.36 93.5598 108.079 94.4332 108.096V108.096ZM96.0972 103.753C96.3678 102.795 96.5825 101.841 96.7385 100.896C96.4652 100.685 96.1198 100.56 95.7518 100.56C94.8612 100.56 94.1358 101.284 94.1358 102.175C94.1358 103.065 94.8612 103.792 95.7518 103.792C95.8678 103.792 95.9852 103.779 96.0972 103.753ZM96.9545 99.2626C97.0545 98.2786 97.1012 97.308 97.0958 96.3546C96.8665 96.2293 96.6052 96.1586 96.3252 96.1586C95.4358 96.1586 94.7092 96.8853 94.7092 97.7733C94.7092 98.664 95.4358 99.3906 96.3252 99.3906C96.5492 99.3906 96.7612 99.344 96.9545 99.2626V99.2626ZM97.0598 94.9946C97.0065 93.9346 96.8985 92.8986 96.7452 91.896C96.6572 91.8826 96.5638 91.872 96.4718 91.872C95.5812 91.872 94.8558 92.5986 94.8558 93.4893C94.8558 94.38 95.5812 95.1066 96.4718 95.1066C96.6798 95.1066 96.8758 95.068 97.0598 94.9946ZM96.4598 90.2866C96.2758 89.388 96.0612 88.524 95.8265 87.6933C95.6492 87.6253 95.4585 87.588 95.2585 87.588C94.3692 87.588 93.6438 88.3146 93.6438 89.2053C93.6438 90.096 94.3692 90.8226 95.2585 90.8226C95.7345 90.8226 96.1638 90.6146 96.4598 90.2866ZM95.3212 86.0653C95.0385 85.2186 94.7385 84.4173 94.4332 83.672C94.2798 83.6226 94.1185 83.596 93.9505 83.596C93.0612 83.596 92.3345 84.3226 92.3345 85.2133C92.3345 86.104 93.0612 86.8306 93.9505 86.8306C94.5292 86.8306 95.0358 86.524 95.3212 86.0653V86.0653ZM93.7532 82.1013C93.3078 81.1413 92.8758 80.3053 92.4932 79.6066H92.3972C91.5092 79.6066 90.7838 80.3306 90.7838 81.2213C90.7838 82.112 91.5092 82.8386 92.3972 82.8386C92.9638 82.8386 93.4625 82.544 93.7532 82.1013" fill="#3FE6FF"/>
<path d="M104.312 122.62L107.318 121.641L104.312 122.62ZM107.024 116.958L110.466 119.281L107.024 116.958Z" stroke="#034EA1" stroke-width="0.756" stroke-miterlimit="2.613"/>
<path fill-rule="evenodd" clip-rule="evenodd" d="M110.617 72.8541V69.9995L102.772 63.9795L101.712 65.8848L110.617 72.8541Z" fill="#3FE6FF"/>
<path fill-rule="evenodd" clip-rule="evenodd" d="M110.617 97.9766V96.4432L108.255 94.5312C108.369 95.1152 108.475 95.7112 108.565 96.3152L110.617 97.9766ZM110.617 96.0446L108.157 94.0552C108.023 93.4112 107.871 92.7792 107.709 92.1592L110.617 94.5099V96.0446ZM110.617 94.2259V92.6899L107.008 89.7739C107.224 90.4299 107.427 91.1072 107.615 91.7966L110.617 94.2259ZM110.617 91.6699L106.512 88.3486C106.224 87.5646 105.917 86.8072 105.596 86.0726L110.617 90.1352V91.6699ZM110.617 89.1126L104.843 84.4406C104.379 83.4926 103.897 82.5939 103.409 81.7472L110.617 87.5752V89.1126ZM110.617 86.5552V85.0206L101.232 77.4326V78.3486C101.539 78.7832 101.849 79.2392 102.159 79.7166L110.617 86.5552Z" fill="white"/>
<path fill-rule="evenodd" clip-rule="evenodd" d="M103.439 77.1068L104.832 78.1801V79.4121L103.439 78.3388V77.1068ZM106.397 79.1855L107.791 80.2601V81.5761L106.397 80.5028V79.1855ZM100.397 74.6041L101.791 75.6775V76.9921L100.397 75.9188V74.6041ZM103.523 74.0081L104.917 75.0828V76.9508L103.523 75.8748V74.0081ZM106.48 76.2161L107.876 77.2895V79.1561L106.48 78.0828V76.2161ZM100.48 71.6335L101.873 72.7055V74.5735L100.48 73.5001V71.6335ZM103.565 68.2788L104.96 69.3548V70.5855L103.565 69.5108V68.2788ZM106.523 70.4428V71.9708L107.917 73.0468V71.5188L106.523 70.4428ZM103.565 70.7401L104.96 71.8148V73.6828L103.565 72.6095V70.7401ZM106.523 73.0308L107.917 74.1068V75.9735L106.523 74.8988V73.0308ZM97.5947 70.1535L98.0001 69.5801L98.9881 70.3441V72.2108L97.5947 71.1348V70.1535ZM100.521 66.0161V67.3881L101.917 68.4641V66.9348L100.595 65.9161L100.521 66.0161ZM110.617 83.8281V82.5961L109.441 81.6908V82.9215L110.617 83.8281ZM110.617 81.3015V79.4348L109.523 78.5908V80.4588L110.617 81.3015ZM110.617 78.0001V76.1335L109.568 75.3228V77.1908L110.617 78.0001ZM110.617 74.9041V73.6721L109.568 72.8615V74.0935L110.617 74.9041ZM100.521 68.4508L101.917 69.5228V71.3908L100.521 70.3175V68.4508Z" fill="white"/>
<path fill-rule="evenodd" clip-rule="evenodd" d="M67.5937 104.047C68.5977 104.047 69.4177 103.227 69.4177 102.222C69.4177 101.219 68.5977 100.399 67.5937 100.399C66.5883 100.399 65.771 101.219 65.771 102.222C65.771 103.227 66.5883 104.047 67.5937 104.047Z" fill="#3FE6FF"/>
<path d="M23.3281 84.5027L52.5628 62.0414" stroke="#034EA1" stroke-width="0.756" stroke-miterlimit="2.613"/>
<path d="M81.8059 142.438L111.041 119.886" stroke="#034EA1" stroke-width="0.756" stroke-miterlimit="2.613"/>
<path fill-rule="evenodd" clip-rule="evenodd" d="M31.8281 64.1329L32.1695 64.2555L32.9388 65.5969L32.7121 66.2942L32.0255 65.1302L31.8281 64.1329Z" fill="#BF0014"/>
<path d="M133.442 196.977C133.442 200.843 130.31 203.974 126.443 203.974" stroke="#EB008B" stroke-width="0.333333" stroke-miterlimit="2.613"/>
<path d="M126.443 203.974H7.49072" stroke="#EB008B" stroke-width="0.333333" stroke-miterlimit="2.613"/>
<path d="M7.49087 203.974C3.62687 203.974 0.494873 200.843 0.494873 196.977" stroke="#EB008B" stroke-width="0.333333" stroke-miterlimit="2.613"/>
<path d="M0.494629 196.977V8.05523" stroke="#EB008B" stroke-width="0.333333" stroke-miterlimit="2.613"/>
<path d="M0.494629 8.05469C0.494629 4.19069 3.62663 1.05735 7.49063 1.05735" stroke="#EB008B" stroke-width="0.333333" stroke-miterlimit="2.613"/>
<path d="M7.49097 1.05737H126.443" stroke="#EB008B" stroke-width="0.333333" stroke-miterlimit="2.613"/>
<path d="M126.443 1.05735C130.309 1.05735 133.441 4.19069 133.441 8.05469" stroke="#EB008B" stroke-width="0.333333" stroke-miterlimit="2.613"/>
<path d="M133.441 8.05462V196.976" stroke="#EB008B" stroke-width="0.333333" stroke-miterlimit="2.613"/>
<path d="M13.4492 10.3855V13.0148H16.7812V27.9215C16.7812 28.3802 16.6839 29.0828 16.3079 29.6455C16.0079 30.0975 15.5292 30.4588 14.7825 30.5255C14.0252 30.5975 12.1412 30.8308 11.6132 28.8135C11.4479 28.1748 11.4839 26.6762 11.4839 26.6762L8.71321 26.6775C8.71321 26.6775 8.70388 28.8575 8.89188 29.6388C9.21854 31.0095 10.7812 33.2668 14.3372 33.2668C15.5919 33.2668 18.9412 32.7162 19.3839 28.8988C19.5719 27.2722 19.4959 13.0148 19.4959 13.0148H22.3319V10.3855H13.4492Z" fill="#EC1C24"/>
<path d="M121.995 194.646V192.015H118.663V177.11C118.663 176.649 118.76 175.949 119.136 175.386C119.435 174.933 119.915 174.573 120.663 174.503C121.419 174.43 123.303 174.198 123.828 176.217C123.995 176.851 123.96 178.351 123.96 178.351H126.731C126.731 178.351 126.741 176.17 126.553 175.389C126.225 174.021 124.663 171.763 121.107 171.763C119.852 171.763 116.503 172.31 116.061 176.13C115.873 177.755 115.949 192.015 115.949 192.015H113.112V194.646H121.995Z" fill="#EC1C24"/>
<path d="M13.9427 41.9037C14.18 41.9037 14.1547 41.737 14.2253 41.1064C14.2973 40.477 15.0533 38.7637 17.2547 38.9584C18.2267 39.0397 20.5707 40.313 20.2387 43.1877C20.1107 44.2864 19.8867 45.101 18.4533 47.297C18.2333 47.6304 15.844 51.2677 13.9427 54.3517C12.0373 51.2677 9.648 47.6304 9.428 47.297C7.996 45.101 7.76933 44.2864 7.644 43.1877C7.31466 40.313 9.65866 39.0397 10.628 38.9584C12.8293 38.7637 13.588 40.477 13.6587 41.1064C13.728 41.737 13.708 41.9037 13.9427 41.9037Z" fill="#EC1C24"/>
<path d="M118.9 163.133C118.662 163.133 118.69 163.294 118.62 163.925C118.545 164.554 117.789 166.266 115.588 166.073C114.616 165.993 112.274 164.718 112.602 161.846C112.729 160.747 112.956 159.93 114.392 157.734C114.608 157.401 116.996 153.766 118.9 150.679C120.802 153.766 123.194 157.401 123.412 157.734C124.844 159.93 125.073 160.747 125.198 161.846C125.528 164.718 123.184 165.993 122.214 166.073C120.013 166.266 119.254 164.554 119.184 163.925C119.112 163.294 119.134 163.133 118.9 163.133Z" fill="#EC1C24"/>
<path d="M24.0871 182.557V22.4747H109.991V182.557H24.0871ZM23.4058 183.915H111.355V21.1187H22.7231V183.915H23.4058Z" fill="#BF0014"/>
<path fill-rule="evenodd" clip-rule="evenodd" d="M23.7136 170.188L26.3896 168.365V138.896L23.7136 136.112V170.188Z" fill="#EC1C24"/>
<path d="M23.7136 170.188L26.3896 168.365V138.896L23.7136 136.112V170.188Z" stroke="#034EA1" stroke-width="0.377333" stroke-miterlimit="2.613"/>
<path fill-rule="evenodd" clip-rule="evenodd" d="M25.259 137.721L25.479 137.948L23.7136 138.883V138.539L25.259 137.721ZM26.3896 138.932V139.276C25.499 139.749 24.6083 140.224 23.7136 140.695V140.352C24.6083 139.88 25.499 139.407 26.3896 138.932V138.932ZM26.3896 140.745V141.091C25.499 141.563 24.6083 142.036 23.7136 142.508V142.164C24.6083 141.691 25.499 141.219 26.3896 140.745ZM26.3896 142.56V142.904C25.499 143.375 24.6083 143.849 23.7136 144.323V143.976C24.6083 143.505 25.499 143.031 26.3896 142.56ZM26.3896 144.372V144.716C25.499 145.188 24.6083 145.661 23.7136 146.136V145.792C24.6083 145.317 25.499 144.844 26.3896 144.372ZM26.3896 146.185V146.528C25.499 147.003 24.6083 147.473 23.7136 147.948V147.604C24.6083 147.131 25.499 146.656 26.3896 146.185ZM26.3896 147.997V148.341C25.499 148.815 24.6083 149.287 23.7136 149.76V149.416C24.6083 148.943 25.499 148.472 26.3896 147.997V147.997ZM26.3896 149.809V150.153C25.499 150.628 24.6083 151.101 23.7136 151.573V151.229C24.6083 150.755 25.499 150.284 26.3896 149.809ZM26.3896 151.623V151.967C25.499 152.44 24.6083 152.915 23.7136 153.385V153.041C24.6083 152.568 25.499 152.096 26.3896 151.623V151.623ZM26.3896 153.435V153.781C25.499 154.252 24.6083 154.727 23.7136 155.197V154.855C24.6083 154.383 25.499 153.909 26.3896 153.435ZM26.3896 155.249V155.593C25.499 156.065 24.6083 156.539 23.7136 157.011V156.667C24.6083 156.195 25.499 155.721 26.3896 155.249ZM26.3896 157.063V157.407C25.499 157.88 24.6083 158.352 23.7136 158.823V158.479C24.6083 158.008 25.499 157.533 26.3896 157.063ZM26.3896 158.875V159.219C25.499 159.693 24.6083 160.164 23.7136 160.636V160.292C24.6083 159.82 25.499 159.347 26.3896 158.875V158.875ZM26.3896 160.688V161.031C25.499 161.505 24.6083 161.976 23.7136 162.448V162.107C24.6083 161.633 25.499 161.161 26.3896 160.688ZM26.3896 162.5V162.844C25.499 163.317 24.6083 163.789 23.7136 164.263V163.919C24.6083 163.445 25.499 162.973 26.3896 162.5ZM26.3896 164.312V164.656C25.499 165.131 24.6083 165.604 23.7136 166.076V165.732C24.6083 165.257 25.499 164.787 26.3896 164.312ZM26.3896 166.125V166.472L23.7136 167.888V167.544L26.3896 166.125Z" fill="#BF0014"/>
</svg>
