<svg width="134" height="203" viewBox="0 0 134 203" fill="none" xmlns="http://www.w3.org/2000/svg">
<path d="M13.7096 53.9506C14.915 52.7226 15.1136 50.3559 15.179 49.7839C15.247 49.2119 15.091 49.0866 14.9803 49.0666C14.8723 49.0439 14.751 49.2399 14.6963 49.5106C14.431 50.8199 13.471 51.3719 13.0056 51.4546C10.8323 51.8359 10.111 50.4146 9.9083 50.0359C8.7883 47.9666 11.2923 44.7426 11.7083 44.2452C14.0523 41.4372 15.7056 38.4092 15.7056 38.4092C15.7056 38.4092 17.3576 41.4372 19.7043 44.2452C20.123 44.7426 22.6256 47.9666 21.5056 50.0359C21.3043 50.4146 20.5843 51.8359 18.4083 51.4546C17.9416 51.3719 16.979 50.8199 16.715 49.5106C16.663 49.2399 16.5403 49.0439 16.431 49.0666C16.323 49.0866 16.1683 49.2119 16.235 49.7839C16.2976 50.3559 16.4976 52.7226 17.7043 53.9506H13.7096Z" fill="#231F20"/>
<path d="M121.529 149.284C120.321 150.509 120.121 152.877 120.055 153.448C119.99 154.021 120.143 154.147 120.255 154.167C120.363 154.188 120.486 153.992 120.539 153.724C120.802 152.413 121.765 151.86 122.229 151.777C124.405 151.397 125.123 152.817 125.329 153.196C126.447 155.267 123.943 158.489 123.527 158.988C121.181 161.795 119.53 164.824 119.53 164.824C119.53 164.824 117.879 161.795 115.533 158.988C115.117 158.489 112.611 155.267 113.73 153.196C113.931 152.817 114.653 151.397 116.829 151.777C117.295 151.86 118.257 152.413 118.517 153.724C118.571 153.992 118.694 154.188 118.806 154.167C118.914 154.147 119.069 154.021 119.003 153.448C118.937 152.877 118.738 150.509 117.531 149.284H121.529Z" fill="#231F20"/>
<path fill-rule="evenodd" clip-rule="evenodd" d="M46.4427 143.268L23.148 128.074L23.3693 119.6V62.3336C23.3693 62.3336 41.8267 67.3163 47.6813 78.2443C47.6813 78.2443 61.4093 108.455 63.544 115.252C65.6813 122.05 86.7507 125.52 86.7507 125.52C86.7507 125.52 96.0747 135.79 102.196 137.523C102.196 137.523 94.8307 142.856 86.736 145.388L71.84 144.19H59.648L52.1387 142.092L46.4427 143.268Z" fill="#034EA1"/>
<path fill-rule="evenodd" clip-rule="evenodd" d="M87.4336 59.9623L110.728 75.1556L110.507 83.629V140.896C110.507 140.896 92.0483 135.914 86.195 124.986C86.195 124.986 72.4643 94.7756 70.3296 87.977C68.195 81.1796 47.127 77.7116 47.127 77.7116C47.127 77.7116 37.8016 67.4396 31.6816 65.7063C31.6816 65.7063 39.0456 60.373 47.139 57.841L62.0363 59.0396H74.2283L81.7363 61.1383L87.4336 59.9623Z" fill="#034EA1"/>
<path fill-rule="evenodd" clip-rule="evenodd" d="M87.3919 126.195L95.9785 134.429C95.9785 134.429 99.5265 122.433 94.0639 112.114C88.6039 101.794 74.7572 95.6434 74.7572 95.6434L75.7332 107.747C75.7332 107.747 87.7812 126.394 87.3919 126.195Z" fill="#00A551"/>
<path fill-rule="evenodd" clip-rule="evenodd" d="M80.8033 141.376H47.2327L49.8153 136.599H80.8033V141.376Z" fill="#00A551"/>
<path fill-rule="evenodd" clip-rule="evenodd" d="M46.4962 77.4857L37.9082 69.2524C37.9082 69.2524 34.3615 81.247 39.8228 91.5684C45.2828 101.887 59.1295 108.036 59.1295 108.036L58.1535 95.9337C58.1535 95.9337 46.1055 77.2884 46.4962 77.4857Z" fill="#00A551"/>
<path fill-rule="evenodd" clip-rule="evenodd" d="M76.0534 84.5365C75.7374 84.0325 75.408 83.5938 75.0734 83.2112L89.7907 62.1645L90.9427 62.9165L76.0534 84.5365Z" fill="#034EA1"/>
<path fill-rule="evenodd" clip-rule="evenodd" d="M53.0834 61.7109H86.6554L84.07 66.4883H53.0834V61.7109Z" fill="#00A551"/>
<path fill-rule="evenodd" clip-rule="evenodd" d="M81.5287 127.221C81.4074 127.2 81.2834 127.183 81.1594 127.159C81.1594 127.159 80.0487 126.948 78.9661 126.972V144.784H81.5287V127.221Z" fill="#231F20"/>
<path fill-rule="evenodd" clip-rule="evenodd" d="M95.879 175.534C95.879 175.534 89.9523 165.963 87.5043 163.117C85.055 160.271 84.1536 155.81 87.7616 153.222C87.7616 153.222 91.3056 150.861 93.851 155.033C93.851 155.033 94.2683 156.067 94.239 157.103L95.2363 157.037C95.2363 157.037 95.299 151.799 93.1096 148.403H98.811C98.811 148.403 96.267 152.802 96.751 156.909H97.5896C97.5896 156.909 98.3376 151.075 103.79 153.054C103.79 153.054 109.031 155.739 104.65 162.458C101.195 166.767 95.9403 175.498 95.879 175.534Z" fill="#231F20"/>
<path fill-rule="evenodd" clip-rule="evenodd" d="M45.1746 169.904L44.1879 169.901C44.1879 169.901 43.3186 167.257 44.9106 163.732C44.9106 163.732 45.0626 163.434 44.5359 162.422C44.0079 161.412 41.9146 156.808 41.9146 156.808C41.9146 156.808 41.0972 155.388 42.2306 154.502L43.7852 153.004C43.7852 153.004 43.6692 150.282 44.4519 149.825C44.4519 149.825 44.2639 147.922 44.9746 147.248C44.9746 147.248 44.7266 144.141 45.5786 143.642C45.5786 143.642 53.9572 139.43 60.5599 144.63L64.6399 148.425C64.6399 148.425 65.0826 150.098 64.1866 150.098C64.1866 150.098 64.4106 149.19 63.9626 148.906C63.5146 148.62 57.8559 141.621 50.3492 142.817C50.3492 142.817 45.9239 143.185 45.7826 145.034C45.7826 145.034 45.8119 147.453 45.5572 147.765C45.3066 148.081 45.0279 149.104 46.2586 149.161C47.4906 149.218 49.5919 149.19 49.5919 149.19C49.5919 149.19 50.1652 149.573 49.0039 149.716C49.0039 149.716 44.7852 150.45 44.7026 151.8C44.7026 151.8 44.9852 153.281 44.0252 153.549L42.6679 154.961C42.6679 154.961 41.9412 155.969 43.7279 159.364L45.2039 162.4C45.2039 162.4 45.6492 163.097 45.1746 164.368C44.6972 165.638 44.4892 169.177 45.1746 169.904Z" fill="#034EA1"/>
<path fill-rule="evenodd" clip-rule="evenodd" d="M52.8307 152.432C52.924 152.644 54.052 153.768 55.1014 152.799C56.1507 151.831 54.8347 150.26 54.8347 150.26C53.6707 149.252 50.9214 149.891 50.4654 150.26C50.0067 150.627 48.1174 151.539 47.0467 151.635C45.9787 151.735 46.2467 152.14 46.5147 152.76C46.78 153.38 47.8867 152.878 47.8867 152.878C47.8867 152.878 51.1894 150.998 52.0494 150.435C52.9067 149.872 54.4707 150.571 54.7774 152.044C55.0827 153.516 52.8307 152.432 52.8307 152.432ZM47.84 156.794C47.84 156.794 49.0267 154.727 47.332 154.575C45.636 154.424 44.7027 155.716 44.7027 155.716C44.7027 155.716 44.0254 155.932 43.9387 155.416C43.8547 154.899 44.172 154.38 44.7654 154.143C45.36 153.907 47.2907 153.326 48.0747 154.08C48.8587 154.834 48.796 157.011 47.84 156.794V156.794ZM50.664 162.875C50.664 162.875 50.1947 161.756 50.032 162.627C49.8707 163.496 50.664 163.627 50.664 162.875V162.875ZM52.5507 162.815C52.5507 162.815 52.9854 162.718 53.1 162.323C53.2147 161.931 53.1 161.551 51.9854 161.455C50.8694 161.354 50.9987 162.406 51.2734 162.916C51.548 163.424 52.5507 162.815 52.5507 162.815V162.815ZM54 162.919C52.6894 164.14 49.8694 164.724 48.4694 164.796C47.0694 164.87 47.68 164.342 47.68 164.342C47.68 164.342 48.432 164.016 48.1467 163.448C47.8587 162.883 48.6307 162.063 48.2174 161.807C47.804 161.551 47.68 161.114 48.884 160.036C50.0854 158.96 51.288 159.198 50.9654 159.216C50.6414 159.235 49.708 159.963 49.1694 160.492C48.6307 161.02 50.2307 160.968 50.4254 160.984C50.624 161.003 52.5267 160.602 52.852 160.968C53.172 161.332 53.5147 161.295 54.5747 161.35C55.6347 161.404 55.9934 161.899 55.9027 162.263C55.812 162.627 53.1 165.492 52.24 165.819C51.3774 166.148 49.384 166.239 49.0427 165.875C48.7027 165.511 49.5107 165.528 49.5107 165.528C52.132 165.947 53.6227 163.996 54.268 163.54C54.9147 163.083 54.8974 162.847 54.8974 162.847C54.34 162.482 54 162.919 54 162.919V162.919ZM56.4334 165.296C56.4334 165.296 51.952 168.147 46.996 167.258C46.996 167.258 46.596 168.147 47.6174 168.516C53.884 169.259 56.2894 165.259 56.4334 165.296" fill="#034EA1"/>
<path fill-rule="evenodd" clip-rule="evenodd" d="M76.6823 168.624C76.6823 168.624 77.3676 163.544 79.3543 161.178C81.3396 158.814 82.369 154.986 81.6836 153.664L80.997 152.133L82.369 150.393C82.369 150.393 86.569 150.316 86.793 147.44C87.0143 144.565 85.1263 143.325 84.5743 143.101C84.017 142.874 79.801 142.48 77.861 146.37C77.861 146.37 77.4543 140.254 71.265 144.058L66.7476 144.069L64.4903 149.985C64.4903 149.985 59.4676 150.134 61.069 154.94C61.069 154.94 62.453 157.308 64.053 157.158C64.053 157.158 63.325 158.861 62.7423 160.341C62.161 161.818 58.8116 171.286 58.8116 171.286L76.6823 168.624Z" fill="#CE482C"/>
<path d="M74.2396 168.798C74.2396 168.798 74.965 166.198 77.0543 161.346C79.1436 156.494 79.825 156.841 79.697 154.849C79.5703 152.857 77.993 151.556 76.6276 153.766C76.6276 153.766 76.3276 155.109 77.6516 155.194" stroke="#00A551" stroke-width="0.945333" stroke-miterlimit="2.613"/>
<path d="M72.1263 169.07C72.1263 169.07 73.9543 163.917 74.6596 162.96C75.3689 162 76.7249 157.448 76.6663 157.149" stroke="#00A551" stroke-width="0.945333" stroke-miterlimit="2.613"/>
<path d="M79.4388 156.729C79.4388 156.729 76.4308 158.287 75.2508 156.251C74.0735 154.213 75.7828 151.817 76.3135 151.339C76.8442 150.859 80.4388 150.92 81.0295 152.057" stroke="#00A551" stroke-width="0.945333" stroke-miterlimit="2.613"/>
<path d="M69.9258 169.62C69.9258 169.62 74.4618 157.973 75.3218 156.614" stroke="#00A551" stroke-width="0.945333" stroke-miterlimit="2.613"/>
<path d="M67.8086 169.857C67.8086 169.857 72.3206 158.721 72.5366 158.198C72.7513 157.673 73.6966 154.966 73.0526 154.094C72.4073 153.218 71.4606 152.651 69.7006 153.438C69.7006 153.438 68.5406 155.053 70.0433 155.753C71.5486 156.449 71.5046 155.007 71.2899 154.791" stroke="#00A551" stroke-width="0.945333" stroke-miterlimit="2.613"/>
<path d="M72.8386 157.411C72.8386 157.411 70.5186 158.677 69.0119 157.237C67.5066 155.795 67.7092 155.25 68.1372 152.617C68.1372 152.617 69.1426 150.69 71.4239 151.161C73.7052 151.634 74.9439 153.833 74.9439 153.833" stroke="#00A551" stroke-width="0.945333" stroke-miterlimit="2.613"/>
<path d="M65.8803 170.232C65.8803 170.232 66.507 166.349 67.5096 164.63C68.5123 162.912 70.4576 158.009 70.4576 158.009" stroke="#00A551" stroke-width="0.945333" stroke-miterlimit="2.613"/>
<path d="M63.3099 170.488C63.3099 170.488 66.6953 159.919 68.7633 157.18" stroke="#00A551" stroke-width="0.945333" stroke-miterlimit="2.613"/>
<path d="M61.241 170.68C61.241 170.68 64.877 159.854 65.6903 158.708C66.5063 157.562 66.569 154.253 66.3183 153.614C66.069 152.98 65.6276 151.038 63.3103 152.248C63.3103 152.248 61.461 153.742 63.2783 155.112C63.2783 155.112 64.093 155.398 64.2183 154.92" stroke="#00A551" stroke-width="0.945333" stroke-miterlimit="2.613"/>
<path d="M64.0664 157.171C64.0664 157.171 66.1344 156.439 66.4477 155.071" stroke="#00A551" stroke-width="0.945333" stroke-miterlimit="2.613"/>
<path d="M67.9675 153.509C67.9675 153.509 67.4995 150.273 64.5688 149.884" stroke="#00A551" stroke-width="0.945333" stroke-miterlimit="2.613"/>
<path d="M66.3932 150.488C66.3932 150.488 68.8586 144.316 68.8586 144.102" stroke="#00A551" stroke-width="0.945333" stroke-miterlimit="2.613"/>
<path d="M68.3919 152.128C68.3919 152.128 69.0719 145.914 71.2812 144.188" stroke="#00A551" stroke-width="0.945333" stroke-miterlimit="2.613"/>
<path d="M70.1758 151.049C70.1758 151.049 71.5771 148.2 71.5771 147.552C71.5771 146.907 72.0024 144.833 74.2558 144.833C76.5064 144.833 75.6558 146.732 75.4424 147.077C75.2304 147.424 74.3398 147.727 73.9571 146.951" stroke="#00A551" stroke-width="0.945333" stroke-miterlimit="2.613"/>
<path d="M71.9593 151.266C71.9593 151.266 72.9379 150.013 72.8113 149.409C72.6819 148.805 71.6633 147.423 71.7046 146.821M74.8139 149.973C74.8139 149.973 73.6059 149.254 72.9406 149.611L74.8139 149.973Z" stroke="#00A551" stroke-width="0.945333" stroke-miterlimit="2.613"/>
<path d="M73.276 151.956C73.276 151.956 74.424 151.265 74.6373 150.36C74.8493 149.453 76.2093 149.366 76.548 149.409C76.888 149.453 77.8627 146.353 77.8627 146.353" stroke="#00A551" stroke-width="0.945333" stroke-miterlimit="2.613"/>
<path d="M76.5899 151.135V149.409" stroke="#00A551" stroke-width="0.945333" stroke-miterlimit="2.613"/>
<path d="M77.4869 151.018C77.4869 151.018 80.4069 144.742 82.7629 144.637C85.1216 144.532 85.1216 146.854 84.8083 147.453C84.4976 148.052 83.2856 148.652 82.7629 148.086C82.2443 147.524 82.4176 146.573 82.4176 146.573" stroke="#00A551" stroke-width="0.945333" stroke-miterlimit="2.613"/>
<path d="M79.5754 151.151L81.1168 149.222" stroke="#00A551" stroke-width="0.945333" stroke-miterlimit="2.613"/>
<path d="M82.3621 150.401C82.3621 150.401 79.9421 148.669 80.2607 146.448" stroke="#00A551" stroke-width="0.945333" stroke-miterlimit="2.613"/>
<path fill-rule="evenodd" clip-rule="evenodd" d="M32.5066 167.551L35.5506 172.974C35.5506 172.974 36.7693 177.195 33.0813 178.214C33.0813 178.214 28.2066 179.05 27.4559 176.139C27.4559 176.139 26.5239 174.394 28.0653 171.008L30.2506 167.988L27.2653 163.759L30.0306 159.43C30.0306 159.43 26.9213 154.186 26.9213 151.903C26.9213 149.623 28.9573 147.339 31.6733 147.87C34.3879 148.402 35.3279 151.424 35.2773 152.698C35.2239 153.971 32.6653 158.534 32.6653 158.534L35.4333 163.044L32.5066 167.551Z" fill="#CE482C"/>
<path d="M31.2852 169.833C31.2852 169.833 34.4692 172.085 33.5772 175.14C33.5772 175.14 32.7106 176.667 31.0559 176.383C29.3999 176.097 28.6359 174.675 28.8652 173.536C29.4759 171.284 31.2852 169.833 31.2852 169.833Z" stroke="#00A551" stroke-width="0.945333" stroke-miterlimit="2.613"/>
<path d="M31.1198 157.109C31.1198 157.109 34.4691 154.607 33.5318 151.211C33.5318 151.211 32.6198 149.513 30.8798 149.831C29.1384 150.145 28.3358 151.729 28.5771 152.995C29.2171 155.499 31.1198 157.109 31.1198 157.109Z" stroke="#00A551" stroke-width="0.945333" stroke-miterlimit="2.613"/>
<path d="M33.2044 163.699L31.1684 166.677L29.3191 163.699L31.2618 160.701C31.2618 160.701 33.2604 163.699 33.2044 163.699Z" stroke="#00A551" stroke-width="0.945333" stroke-miterlimit="2.613"/>
<path fill-rule="evenodd" clip-rule="evenodd" d="M48.3255 141.896L49.1308 140.677H78.9655V141.896H48.3255Z" fill="#CE482C"/>
<path fill-rule="evenodd" clip-rule="evenodd" d="M51.4063 137.238L52.2116 136.018H78.9663V137.238H51.4063Z" fill="#CE482C"/>
<path fill-rule="evenodd" clip-rule="evenodd" d="M71.3659 137.958H69.4859C69.5019 138.469 69.9166 138.882 70.4272 138.882C70.9352 138.882 71.3512 138.469 71.3659 137.958ZM71.3659 139.922H69.4859C69.5019 139.409 69.9166 138.996 70.4272 138.996C70.9352 138.996 71.3512 139.409 71.3659 139.922ZM74.3886 137.958H72.5099C72.5232 138.469 72.9406 138.882 73.4499 138.882C73.9566 138.882 74.3739 138.469 74.3886 137.958ZM74.3886 139.922H72.5099C72.5232 139.409 72.9406 138.996 73.4499 138.996C73.9566 138.996 74.3739 139.409 74.3886 139.922ZM77.4099 137.958H75.5326C75.5459 138.469 75.9632 138.882 76.4712 138.882C76.9792 138.882 77.3952 138.469 77.4099 137.958V137.958ZM77.4099 139.922H75.5326C75.5459 139.409 75.9632 138.996 76.4712 138.996C76.9792 138.996 77.3952 139.409 77.4099 139.922ZM68.3432 137.958H66.4646C66.4779 138.469 66.8939 138.882 67.4032 138.882C67.9126 138.882 68.3299 138.469 68.3432 137.958V137.958ZM68.3432 139.922H66.4646C66.4779 139.409 66.8939 138.996 67.4032 138.996C67.9126 138.996 68.3299 139.409 68.3432 139.922ZM65.6566 137.958H63.7792C63.7912 138.469 64.2099 138.882 64.7166 138.882C65.2259 138.882 65.6419 138.469 65.6566 137.958ZM65.6566 139.922H63.7792C63.7912 139.409 64.2099 138.996 64.7166 138.996C65.2259 138.996 65.6419 139.409 65.6566 139.922ZM62.9699 137.958H61.0912C61.1059 138.469 61.5219 138.882 62.0312 138.882C62.5406 138.882 62.9566 138.469 62.9699 137.958ZM62.9699 139.922H61.0912C61.1059 139.409 61.5219 138.996 62.0312 138.996C62.5406 138.996 62.9566 139.409 62.9699 139.922ZM60.2832 137.958H58.4059C58.4192 138.469 58.8366 138.882 59.3432 138.882C59.8526 138.882 60.2699 138.469 60.2832 137.958V137.958ZM60.2832 139.922H58.4059C58.4192 139.409 58.8366 138.996 59.3432 138.996C59.8526 138.996 60.2699 139.409 60.2832 139.922ZM57.5979 137.958H55.7206C55.7312 138.469 56.1472 138.882 56.6566 138.882C57.1672 138.882 57.5819 138.469 57.5979 137.958ZM57.5979 139.922H55.7206C55.7312 139.409 56.1472 138.996 56.6566 138.996C57.1672 138.996 57.5819 139.409 57.5979 139.922ZM54.9099 137.958H53.0312C53.0459 138.469 53.4632 138.882 53.9726 138.882C54.4806 138.882 54.8966 138.469 54.9099 137.958V137.958ZM54.9099 139.922H53.0312C53.0459 139.409 53.4632 138.996 53.9726 138.996C54.4806 138.996 54.8966 139.409 54.9099 139.922V139.922ZM50.5552 138.526L50.9326 137.958H52.2232C52.2112 138.469 51.7952 138.882 51.2846 138.882C50.9912 138.882 50.7259 138.744 50.5552 138.526V138.526ZM52.2232 139.922H50.3459C50.3592 139.409 50.7766 138.996 51.2846 138.996C51.7952 138.996 52.2112 139.409 52.2232 139.922" fill="#CE482C"/>
<path fill-rule="evenodd" clip-rule="evenodd" d="M58.8033 120.021C59.6873 121.033 60.6127 121.654 61.462 122.032L47.382 143.326L44.0873 141.065L58.8033 120.021Z" fill="#231F20"/>
<path fill-rule="evenodd" clip-rule="evenodd" d="M57.8216 118.693C58.1389 119.195 58.4696 119.635 58.8029 120.021L44.0869 141.065L42.9349 140.313L57.8216 118.693Z" fill="#CE482C"/>
<path fill-rule="evenodd" clip-rule="evenodd" d="M46.5066 134.087L57.1079 118.346L56.0706 117.745L45.2479 133.258L46.5066 134.087Z" fill="#D44C2D"/>
<path fill-rule="evenodd" clip-rule="evenodd" d="M42.3634 131.236C42.8354 131.622 43.4394 131.858 44.0941 131.858C44.9634 131.858 45.7407 131.445 46.2421 130.802C46.2421 130.802 46.2434 130.802 46.2434 130.804C46.6154 130.328 46.8381 129.729 46.8381 129.078C46.8381 128.102 46.3354 127.24 45.5781 126.745C45.2074 127.218 44.9861 127.818 44.9861 128.469C44.9861 129.289 45.3394 130.03 45.9034 130.541C45.4967 130.301 45.0274 130.164 44.5261 130.164C43.6501 130.164 42.8674 130.584 42.3634 131.236ZM43.5661 129.992C42.9767 129.992 42.4954 129.505 42.4954 128.909C42.4954 128.313 42.9767 127.824 43.5661 127.824C44.1554 127.824 44.6367 128.313 44.6367 128.909C44.6367 129.505 44.1554 129.992 43.5661 129.992Z" fill="#D44C2D"/>
<path fill-rule="evenodd" clip-rule="evenodd" d="M45.6653 125.99C46.1387 126.378 46.74 126.612 47.396 126.612C48.264 126.612 49.0427 126.198 49.5453 125.556C49.9173 125.083 50.14 124.483 50.14 123.834C50.14 122.856 49.6387 121.995 48.8813 121.499C48.5093 121.974 48.2853 122.572 48.2853 123.223C48.2853 124.044 48.64 124.784 49.204 125.295C48.8013 125.055 48.3293 124.919 47.8293 124.919C46.9507 124.919 46.1693 125.339 45.6653 125.99ZM46.8667 124.747C46.2773 124.747 45.7973 124.26 45.7973 123.663C45.7973 123.068 46.2773 122.578 46.8667 122.578C47.4587 122.578 47.94 123.068 47.94 123.663C47.94 124.26 47.4587 124.747 46.8667 124.747" fill="#D44C2D"/>
<path fill-rule="evenodd" clip-rule="evenodd" d="M49.0886 120.622C49.5606 121.01 50.1632 121.245 50.8179 121.245C51.6872 121.245 52.4646 120.833 52.9672 120.19C53.3406 119.716 53.5619 119.116 53.5619 118.466C53.5619 117.489 53.0606 116.626 52.3032 116.13C51.9312 116.604 51.7086 117.205 51.7086 117.856C51.7086 118.677 52.0632 119.417 52.6272 119.928C52.2232 119.688 51.7526 119.549 51.2512 119.549C50.3739 119.549 49.5912 119.969 49.0886 120.622ZM50.2899 119.38C49.7006 119.38 49.2192 118.893 49.2192 118.296C49.2192 117.698 49.7006 117.21 50.2899 117.21C50.8792 117.21 51.3606 117.698 51.3606 118.296C51.3606 118.893 50.8792 119.38 50.2899 119.38" fill="#D44C2D"/>
<path fill-rule="evenodd" clip-rule="evenodd" d="M49.573 115.74L40.0316 129.612C40.0316 129.612 41.6956 108.446 23.837 95.5502V93.5022C23.837 93.5022 39.2436 101.33 41.6956 124.01L47.8223 114.849L49.573 115.74Z" fill="#CE482C"/>
<path fill-rule="evenodd" clip-rule="evenodd" d="M33.8164 124.987H32.1538C32.1538 124.987 31.7164 113.782 23.7498 105.956V103.992C23.7498 103.992 32.3271 108.979 33.8164 124.987Z" fill="#CE482C"/>
<path fill-rule="evenodd" clip-rule="evenodd" d="M27.8191 121.609L29.4418 122.409C29.4418 122.409 28.6964 115.028 24.2324 109.959V112.183C24.2324 112.183 28.0391 118.984 27.8191 121.609Z" fill="#CE482C"/>
<path fill-rule="evenodd" clip-rule="evenodd" d="M36.7422 126.65C35.8968 126.65 35.2128 125.954 35.2128 125.099C35.2128 124.246 35.8968 123.55 36.7422 123.55C37.5862 123.55 38.2715 124.246 38.2715 125.099C38.2715 125.954 37.5862 126.65 36.7422 126.65Z" fill="#CE482C"/>
<path fill-rule="evenodd" clip-rule="evenodd" d="M36.2683 121.422C35.4257 121.422 34.7377 120.725 34.7377 119.873C34.7377 119.018 35.4257 118.323 36.2683 118.323C37.1123 118.323 37.799 119.018 37.799 119.873C37.799 120.725 37.1123 121.422 36.2683 121.422Z" fill="#CE482C"/>
<path fill-rule="evenodd" clip-rule="evenodd" d="M34.711 116.401C33.867 116.401 33.1816 115.705 33.1816 114.849C33.1816 113.997 33.867 113.301 34.711 113.301C35.5536 113.301 36.243 113.997 36.243 114.849C36.243 115.705 35.5536 116.401 34.711 116.401Z" fill="#CE482C"/>
<path fill-rule="evenodd" clip-rule="evenodd" d="M32.7461 111.379C31.9048 111.379 31.2168 110.684 31.2168 109.831C31.2168 108.976 31.9048 108.28 32.7461 108.28C33.5901 108.28 34.2781 108.976 34.2781 109.831C34.2781 110.684 33.5901 111.379 32.7461 111.379Z" fill="#CE482C"/>
<path fill-rule="evenodd" clip-rule="evenodd" d="M30.1068 107.047C29.2628 107.047 28.5748 106.35 28.5748 105.495C28.5748 104.643 29.2628 103.946 30.1068 103.946C30.9508 103.946 31.6388 104.643 31.6388 105.495C31.6388 106.35 30.9508 107.047 30.1068 107.047Z" fill="#CE482C"/>
<path fill-rule="evenodd" clip-rule="evenodd" d="M26.2462 103.125C25.4022 103.125 24.7155 102.43 24.7155 101.576C24.7155 100.721 25.4022 100.026 26.2462 100.026C27.0902 100.026 27.7768 100.721 27.7768 101.576C27.7768 102.43 27.0902 103.125 26.2462 103.125Z" fill="#CE482C"/>
<path fill-rule="evenodd" clip-rule="evenodd" d="M29.1211 65.5079C29.8904 65.7026 30.6464 65.9426 31.3838 66.2199C30.2678 69.7853 29.6651 73.5773 29.6651 77.5066C29.6651 94.6146 41.0758 109.115 56.6024 113.648L56.5944 115.633C56.5851 115.808 56.5838 115.975 56.5931 116.131C39.7518 111.527 27.2958 95.9399 27.2958 77.5066C27.2958 73.3306 27.9344 69.2973 29.1211 65.5079" fill="#D44C2D"/>
<path fill-rule="evenodd" clip-rule="evenodd" d="M37.5782 69.573C37.9462 69.833 38.3062 70.097 38.6555 70.3623C38.0848 72.649 37.7822 75.045 37.7822 77.5063C37.7822 90.045 45.6182 100.792 56.5968 105.012C56.6208 105.198 56.6342 105.297 56.6342 105.297L56.6288 106.362C44.9382 102.092 36.5408 90.7583 36.5408 77.5063C36.5408 74.765 36.9008 72.105 37.5782 69.573" fill="#CE482C"/>
<path fill-rule="evenodd" clip-rule="evenodd" d="M43.1003 74.2943C43.4576 74.6556 43.7843 74.9996 44.0763 75.3183C44.0096 76.0396 43.975 76.7676 43.975 77.5063C43.975 85.905 48.4403 93.2836 55.0963 97.345C55.223 97.849 55.343 98.3396 55.4523 98.8183C47.9803 94.697 42.8896 86.6823 42.8896 77.5063C42.8896 76.417 42.9616 75.3436 43.1003 74.2943" fill="#CE482C"/>
<path fill-rule="evenodd" clip-rule="evenodd" d="M44.6746 75.9766C45.0919 76.4472 45.4132 76.8339 45.6306 77.0992C45.6239 77.2339 45.6239 77.3699 45.6239 77.5059C45.6239 84.6406 49.0972 90.9819 54.4226 94.8952C54.5746 95.4112 54.7199 95.9219 54.8559 96.4232C48.7052 92.4086 44.6226 85.4246 44.6226 77.5059C44.6226 76.9926 44.6412 76.4792 44.6746 75.9766" fill="#CE482C"/>
<path fill-rule="evenodd" clip-rule="evenodd" d="M52.5353 89.612C52.8166 90.2654 53.0793 90.932 53.3286 91.5987C50.8179 89.132 48.9619 85.992 48.0499 82.472C48.0966 82.5227 48.1219 82.5494 48.1219 82.5494C48.5233 82.9614 48.9073 83.4067 49.2739 83.8774C50.0246 85.984 51.1379 87.9214 52.5353 89.612Z" fill="#CE482C"/>
<path fill-rule="evenodd" clip-rule="evenodd" d="M42.4389 74.1016C42.3282 74.9176 42.2562 75.747 42.2269 76.5856C41.5855 76.5443 41.0762 76.0003 41.0762 75.3416C41.0762 74.655 41.6295 74.095 42.3055 74.095C42.3509 74.095 42.3949 74.099 42.4389 74.1016V74.1016ZM42.2095 77.511C42.2095 78.3523 42.2495 79.183 42.3309 80.0003C42.3002 80.003 42.2709 80.003 42.2415 80.003C41.5615 80.003 41.0095 79.443 41.0095 78.7576C41.0095 78.0803 41.5455 77.5283 42.2095 77.511V77.511ZM42.4389 80.919C42.5522 81.7496 42.7055 82.567 42.9002 83.367C42.8175 83.3856 42.7322 83.3963 42.6442 83.3963C41.9669 83.3963 41.4149 82.8363 41.4149 82.1496C41.4149 81.5336 41.8589 81.0203 42.4389 80.919V80.919ZM43.1322 84.2643C43.3562 85.0696 43.6215 85.8563 43.9215 86.6256C43.7922 86.6723 43.6522 86.6976 43.5042 86.6976C42.8269 86.6976 42.2735 86.1376 42.2735 85.4523C42.2735 84.8976 42.6335 84.4243 43.1322 84.2643ZM44.2749 87.4803C44.6069 88.243 44.9735 88.987 45.3775 89.707C45.2055 89.799 45.0095 89.8523 44.8015 89.8523C44.1242 89.8523 43.5735 89.2923 43.5735 88.6043C43.5735 88.111 43.8602 87.6816 44.2749 87.4803V87.4803ZM45.8455 90.5083C46.2735 91.215 46.7389 91.9016 47.2362 92.5603C47.0322 92.7083 46.7842 92.7963 46.5149 92.7963C45.8375 92.7963 45.2842 92.2376 45.2842 91.5496C45.2842 91.115 45.5069 90.7296 45.8455 90.5083V90.5083ZM47.8029 93.2896C48.3255 93.9296 48.8775 94.5443 49.4589 95.1296C49.2362 95.3456 48.9362 95.4763 48.6082 95.4763C47.9322 95.4763 47.3775 94.9163 47.3775 94.231C47.3775 93.8536 47.5415 93.5163 47.8029 93.2896V93.2896ZM50.1189 95.775C50.7202 96.3403 51.3509 96.8723 52.0042 97.3763C51.7789 97.6603 51.4309 97.8443 51.0442 97.8443C50.3655 97.8443 49.8122 97.2843 49.8122 96.5976C49.8122 96.283 49.9282 95.995 50.1189 95.775ZM52.7442 97.9216C53.4135 98.399 54.1095 98.843 54.8269 99.2496C54.6109 99.6123 54.2175 99.8536 53.7709 99.8536C53.0922 99.8536 52.5415 99.2963 52.5415 98.6096C52.5415 98.355 52.6162 98.1203 52.7442 97.9216" fill="#CE482C"/>
<path fill-rule="evenodd" clip-rule="evenodd" d="M38.6211 72.9088C38.4744 73.8355 38.3704 74.7782 38.3117 75.7342C38.3531 75.7368 38.3944 75.7382 38.4344 75.7382C39.2064 75.7382 39.8384 75.1022 39.8384 74.3182C39.8384 73.5995 39.3077 73.0022 38.6211 72.9088ZM38.3411 79.7635C38.2851 79.0182 38.2571 78.2662 38.2571 77.5062C38.2571 77.3102 38.2597 77.1142 38.2611 76.9222H38.2771C39.0504 76.9222 39.6811 77.5595 39.6811 78.3408C39.6811 79.1035 39.0864 79.7288 38.3411 79.7635V79.7635ZM38.4571 80.9462C38.5691 81.8955 38.7264 82.8288 38.9264 83.7502C39.5784 83.6248 40.0717 83.0448 40.0717 82.3515C40.0717 81.5702 39.4411 80.9302 38.6664 80.9302C38.5944 80.9302 38.5277 80.9368 38.4571 80.9462ZM39.2064 84.9062C39.4504 85.8262 39.7344 86.7288 40.0637 87.6115C40.6144 87.4195 41.0104 86.8888 41.0104 86.2688C41.0104 85.4862 40.3784 84.8462 39.6051 84.8462C39.4677 84.8462 39.3344 84.8675 39.2064 84.9062V84.9062ZM40.5011 88.7168C40.8677 89.5942 41.2744 90.4475 41.7197 91.2755C42.1744 91.0408 42.4837 90.5608 42.4837 90.0128C42.4837 89.2288 41.8531 88.5915 41.0797 88.5915C40.8731 88.5915 40.6771 88.6355 40.5011 88.7168ZM42.3051 92.3102C42.7877 93.1248 43.3091 93.9115 43.8677 94.6715C44.2264 94.4142 44.4651 93.9888 44.4651 93.5075C44.4651 92.7262 43.8331 92.0862 43.0611 92.0862C42.7824 92.0862 42.5237 92.1688 42.3051 92.3102ZM44.5864 95.6142C45.1744 96.3515 45.7984 97.0595 46.4531 97.7342C46.7291 97.4768 46.9024 97.1035 46.9024 96.6928C46.9024 95.9115 46.2717 95.2715 45.4971 95.2715C45.1517 95.2715 44.8331 95.4008 44.5864 95.6142V95.6142ZM47.2957 98.5688C47.9784 99.2155 48.6904 99.8315 49.4317 100.412C49.6291 100.164 49.7504 99.8515 49.7504 99.5102C49.7504 98.7275 49.1197 98.0902 48.3437 98.0902C47.9264 98.0902 47.5517 98.2742 47.2957 98.5688V98.5688ZM50.3784 101.12C51.1397 101.666 51.9277 102.174 52.7451 102.646C52.8744 102.43 52.9517 102.177 52.9517 101.905C52.9517 101.122 52.3197 100.484 51.5464 100.484C51.0597 100.484 50.6291 100.737 50.3784 101.12ZM53.7771 103.216C54.6064 103.649 55.4597 104.045 56.3317 104.396C56.4064 104.221 56.4477 104.03 56.4477 103.83C56.4477 103.048 55.8157 102.409 55.0437 102.409C54.4851 102.409 54.0037 102.74 53.7771 103.216" fill="#CE482C"/>
<path fill-rule="evenodd" clip-rule="evenodd" d="M55.8386 111.073L54.8532 107.417C54.8532 107.417 54.7199 106.145 53.1466 106.768C51.5732 107.39 49.3332 108.638 49.3332 108.638C49.3332 108.638 48.1372 109.34 49.4426 110.154L54.7466 112.321C54.7466 112.321 56.3439 112.914 55.8386 111.073" fill="#EC1C24"/>
<path fill-rule="evenodd" clip-rule="evenodd" d="M44.3542 105.091L44.8995 101.341C44.8995 101.341 45.2808 100.122 43.5955 100.055C41.9062 99.9872 39.3622 100.217 39.3622 100.217C39.3622 100.217 37.9848 100.375 38.8595 101.651L42.8608 105.786C42.8608 105.786 44.0875 106.982 44.3542 105.091" fill="#EC1C24"/>
<path fill-rule="evenodd" clip-rule="evenodd" d="M36.5027 95.3333L38.1173 91.916C38.1173 91.916 38.8387 90.864 37.248 90.296C35.656 89.724 33.1573 89.1853 33.1573 89.1853C33.1573 89.1853 31.7933 88.9227 32.2573 90.4027L34.8693 95.552C34.8693 95.552 35.6947 97.0627 36.5027 95.3333" fill="#EC1C24"/>
<path fill-rule="evenodd" clip-rule="evenodd" d="M32.4089 82.9583L35.2369 80.481C35.2369 80.481 36.3155 79.8103 35.0822 78.6423C33.8462 77.477 31.7702 75.969 31.7702 75.969C31.7702 75.969 30.6262 75.1783 30.4675 76.721L30.8249 82.4997C30.8249 82.4997 30.9862 84.2157 32.4089 82.9583" fill="#EC1C24"/>
<path fill-rule="evenodd" clip-rule="evenodd" d="M51.0481 106.047L47.4988 107.459C47.4988 107.459 46.5241 107.922 46.2788 106.49C46.0321 105.058 46.0908 102.519 46.0908 102.519C46.0908 102.519 46.0681 101.324 47.2281 101.927L51.4615 104.69C51.4615 104.69 52.5948 105.606 51.0481 106.047Z" fill="#EC1C24"/>
<path fill-rule="evenodd" clip-rule="evenodd" d="M41.7514 98.9974L37.9407 98.8814C37.9407 98.8814 36.8634 98.9201 37.1954 97.5054C37.5247 96.0894 38.5674 93.7787 38.5674 93.7787C38.5674 93.7787 39.0114 92.6721 39.842 93.6907L42.658 97.9161C42.658 97.9161 43.3434 99.2094 41.7514 98.9974Z" fill="#EC1C24"/>
<path fill-rule="evenodd" clip-rule="evenodd" d="M34.276 75.9765L31.3414 72.8512C31.3414 72.8512 30.46 72.0272 31.82 71.1672C33.184 70.3072 35.804 69.3032 35.804 69.3032C35.804 69.3032 37.0134 68.7792 36.884 70.2472L35.8334 75.8405C35.8334 75.8405 35.3734 77.4125 34.276 75.9765Z" fill="#EC1C24"/>
<path fill-rule="evenodd" clip-rule="evenodd" d="M35.9298 88.9493L32.0684 87.36C32.0684 87.36 30.9551 86.984 31.8271 85.6613C32.6991 84.3386 34.6364 82.3733 34.6364 82.3733C34.6364 82.3733 35.5084 81.412 35.9751 82.7733L37.2671 88.1933C37.2671 88.1933 37.4831 89.7813 35.9298 88.9493Z" fill="#EC1C24"/>
<path fill-rule="evenodd" clip-rule="evenodd" d="M31.4675 69.2473L34.6515 67.826L32.4022 66.7473L31.4675 69.2473Z" fill="#EC1C24"/>
<path fill-rule="evenodd" clip-rule="evenodd" d="M82.0222 127.292C82.7608 127.385 83.4075 127.42 83.9702 127.412V142.653H82.0222V127.292Z" fill="#D44C2D"/>
<path fill-rule="evenodd" clip-rule="evenodd" d="M42.7293 140.154L45.5626 135.515L24.3866 119.998V127.198L42.7293 140.154Z" fill="#D44C2D"/>
<path fill-rule="evenodd" clip-rule="evenodd" d="M86.2891 139.651L86.7411 139.112L87.1944 138.572L86.7411 138.034L86.2891 137.494L85.8371 138.034L85.3851 138.572L85.8371 139.112L86.2891 139.651ZM84.8971 142.742V134.346C86.8251 134.742 88.2838 136.476 88.2838 138.544C88.2838 140.611 86.8251 142.344 84.8971 142.742" fill="#D44C2D"/>
<path fill-rule="evenodd" clip-rule="evenodd" d="M90.2918 142.805C90.2664 142.817 90.2438 142.829 90.2198 142.841L88.8291 143.354L90.2344 141.515L90.2918 142.805Z" fill="#D44C2D"/>
<path fill-rule="evenodd" clip-rule="evenodd" d="M32.0443 135.774C31.735 135.774 31.483 135.471 31.483 135.102C31.483 134.732 31.735 134.43 32.0443 134.43C32.351 134.43 32.603 134.732 32.603 135.102C32.603 135.471 32.351 135.774 32.0443 135.774ZM32.3163 137.747C31.971 137.747 31.6883 137.41 31.6883 136.994C31.6883 136.579 31.971 136.24 32.3163 136.24C32.6643 136.24 32.9443 136.579 32.9443 136.994C32.9443 137.41 32.6643 137.747 32.3163 137.747V137.747ZM32.771 140.324C32.3216 140.324 31.959 139.954 31.959 139.5C31.959 139.047 32.3216 138.678 32.771 138.678C33.2203 138.678 33.5843 139.047 33.5843 139.5C33.5843 139.954 33.2203 140.324 32.771 140.324V140.324ZM33.0323 143.016C32.4923 143.016 32.047 142.568 32.047 142.019C32.047 141.468 32.4923 141.022 33.0323 141.022C33.5763 141.022 34.019 141.468 34.019 142.019C34.019 142.568 33.5763 143.016 33.0323 143.016ZM31.0336 134.502C31.0336 134.502 31.5936 135.998 30.2976 136.203C29.0056 136.412 28.3696 136.076 28.547 135.714C28.727 135.355 30.6283 133.6 31.0336 134.502ZM31.1763 137.394C31.1763 137.394 31.4296 138.34 30.611 138.596C29.7936 138.856 28.1576 139.514 28.103 138.742C28.0443 137.967 28.9203 136.878 29.539 136.735C30.1603 136.591 31.1763 136.304 31.1763 137.394V137.394ZM31.6176 140.686C31.6176 140.686 29.0803 141.751 28.8923 142.134C28.7043 142.516 27.4816 141.404 27.6776 140.918C27.875 140.43 29.539 138.742 31.1763 138.742C31.683 139.656 31.6363 140.568 31.6176 140.686V140.686ZM31.7096 142.37C31.7096 142.37 32.319 143.359 31.9696 143.502C31.623 143.642 29.811 144.599 29.759 144.703C29.707 144.81 28.6816 144.74 28.5736 143.998C28.4696 143.254 28.647 142.954 28.7856 142.795C28.9243 142.635 30.9936 141.38 31.255 141.716C31.5163 142.052 31.7096 142.37 31.7096 142.37V142.37ZM32.5083 146.246C32.8536 146.815 31.059 147.148 30.2456 146.678C29.4323 146.206 30.5336 145.656 30.5336 145.656C32.351 145.186 32.5083 146.246 32.5083 146.246V146.246ZM41.1043 139.919C41.1043 139.919 38.6203 146.799 33.4043 146.672C33.4043 146.672 32.659 144.844 31.6016 144.399C30.5456 143.959 35.391 143.896 35.1736 142.508C34.9563 141.118 35.515 138.815 35.0176 138.848C34.519 138.88 34.8963 141.435 34.2403 141.087C33.5896 140.74 34.1176 138.456 33.6416 137.719C33.1683 136.979 32.9696 134.82 33.0563 134.339C33.1403 133.856 31.8256 132.975 30.9603 133.316C30.091 133.656 27.9963 134.566 27.9963 135.702C27.9963 136.839 28.1656 136.808 28.1656 136.808C28.1656 136.808 26.8976 137.747 27.6016 139.691C27.6016 139.691 26.6456 141.172 27.9056 142.656C27.9056 142.656 27.5763 144.776 29.2883 145.314C29.2883 145.314 28.679 147.11 30.4963 147.58C30.4963 147.58 32.0816 148.878 37.419 146.167C37.419 146.167 40.8616 143.847 41.6763 140.507L41.1043 139.919Z" fill="#034EA1"/>
<path fill-rule="evenodd" clip-rule="evenodd" d="M78.9662 126.973C78.5995 126.981 78.2328 127.015 77.9168 127.095C76.6688 127.413 73.5528 126.589 72.6795 125.575C71.8088 124.562 67.3168 126.843 64.6995 122.537C64.6995 122.537 63.1968 122.835 61.3635 121.986C61.3955 122.001 61.4288 122.018 61.4622 122.031L52.2128 136.018H78.9662V126.973Z" fill="#EC1C24"/>
<path fill-rule="evenodd" clip-rule="evenodd" d="M100.646 136.94C99.1606 136.263 97.5619 135.224 95.9979 134.044V139.964C97.7619 138.944 99.4433 137.883 100.646 136.94Z" fill="#EC1C24"/>
<path fill-rule="evenodd" clip-rule="evenodd" d="M95.9973 134.044C94.82 133.156 93.66 132.187 92.5826 131.232V141.851C93.6826 141.266 94.8573 140.623 95.9973 139.963V134.044Z" fill="#231F20"/>
<path fill-rule="evenodd" clip-rule="evenodd" d="M92.5834 131.234C92.0914 130.797 91.6127 130.362 91.1634 129.942H90.9007V142.625L92.5834 141.865V131.234Z" fill="#D44C2D"/>
<path fill-rule="evenodd" clip-rule="evenodd" d="M88.4571 130.611L88.8651 131.063L89.2731 131.513L88.8651 131.965L88.4571 132.416L88.0491 131.965L87.6411 131.513L88.0491 131.063L88.4571 130.611ZM90.1918 129.025C89.5171 128.376 88.9158 127.776 88.4131 127.263C87.0904 128.156 86.2171 129.683 86.2171 131.407C86.2171 133.821 87.9318 135.847 90.1918 136.295V129.025Z" fill="#D44C2D"/>
<path fill-rule="evenodd" clip-rule="evenodd" d="M67.9636 131.47L68.6036 133.213L66.941 134.638L65.693 133.318L66.421 131.435L64.3076 131.927L63.113 130.695L64.1863 129.411L66.0223 129.938L65.7116 128.162L67.069 126.857L68.5036 127.997L68.1303 130.214L69.937 129.581L71.3423 130.974L70.125 132.242L67.9636 131.47Z" fill="#D44C2D"/>
<path fill-rule="evenodd" clip-rule="evenodd" d="M53.1719 110.232C52.7279 110.232 52.3679 109.87 52.3679 109.422C52.3679 108.974 52.7279 108.609 53.1719 108.609C53.6119 108.609 53.9733 108.974 53.9733 109.422C53.9733 109.87 53.6119 110.232 53.1719 110.232Z" fill="#231F20"/>
<path fill-rule="evenodd" clip-rule="evenodd" d="M42.2435 103.237C41.8382 103.058 41.6528 102.578 41.8275 102.169C42.0062 101.758 42.4822 101.57 42.8862 101.75C43.2915 101.93 43.4768 102.409 43.2995 102.82C43.1235 103.229 42.6475 103.417 42.2435 103.237Z" fill="#231F20"/>
<path fill-rule="evenodd" clip-rule="evenodd" d="M35.0248 92.9323C34.6915 92.6403 34.6555 92.1257 34.9435 91.787C35.2315 91.4483 35.7395 91.411 36.0755 91.703C36.4102 91.995 36.4462 92.511 36.1582 92.8483C35.8688 93.187 35.3595 93.2243 35.0248 92.9323Z" fill="#231F20"/>
<path fill-rule="evenodd" clip-rule="evenodd" d="M32.0027 80.1602C31.8134 79.7562 31.9827 79.2708 32.3814 79.0775C32.7787 78.8855 33.26 79.0562 33.452 79.4588C33.6414 79.8615 33.4734 80.3495 33.0747 80.5415C32.676 80.7375 32.1947 80.5642 32.0027 80.1602Z" fill="#231F20"/>
<path fill-rule="evenodd" clip-rule="evenodd" d="M48.8711 104.854C48.6764 104.529 48.2551 104.425 47.9351 104.622C47.6124 104.818 47.5098 105.245 47.7044 105.571C47.8991 105.895 48.3218 106.001 48.6404 105.802C48.9631 105.605 49.0658 105.179 48.8711 104.854Z" fill="#231F20"/>
<path fill-rule="evenodd" clip-rule="evenodd" d="M40.2136 97.0339C40.1616 96.6579 39.815 96.3939 39.443 96.4486C39.071 96.5006 38.8083 96.8513 38.8616 97.2286C38.915 97.6059 39.2616 97.8686 39.6323 97.8153C40.0056 97.7633 40.2656 97.4113 40.2136 97.0339Z" fill="#231F20"/>
<path fill-rule="evenodd" clip-rule="evenodd" d="M34.5834 73.1954C34.8341 72.8554 34.7634 72.37 34.4247 72.1154C34.0901 71.862 33.6087 71.9327 33.3581 72.274C33.1074 72.614 33.1767 73.1007 33.5141 73.354C33.8514 73.61 34.3301 73.5367 34.5834 73.1954Z" fill="#231F20"/>
<path fill-rule="evenodd" clip-rule="evenodd" d="M35.0964 86.3438C35.1844 85.9384 34.9284 85.5344 34.5271 85.4438C34.1257 85.3571 33.7271 85.6144 33.6377 86.0211C33.5497 86.4278 33.8057 86.8304 34.2084 86.9198C34.6097 87.0104 35.0097 86.7518 35.0964 86.3438Z" fill="#231F20"/>
<path fill-rule="evenodd" clip-rule="evenodd" d="M52.3477 76.0091C52.4677 76.0291 52.593 76.0465 52.717 76.0691C52.717 76.0691 53.8263 76.2811 54.909 76.2571V58.4465H52.3477V76.0091Z" fill="#231F20"/>
<path fill-rule="evenodd" clip-rule="evenodd" d="M37.9974 27.6954C37.9974 27.6954 43.9254 37.2674 46.3734 40.1127C48.8214 42.9581 49.7227 47.4194 46.116 50.0061C46.116 50.0061 42.5707 52.3674 40.0267 48.1954C40.0267 48.1954 39.6067 47.1621 39.6374 46.1274L38.6414 46.1927C38.6414 46.1927 38.5774 51.4301 40.7667 54.826H35.0654C35.0654 54.826 37.6094 50.4287 37.1267 46.3221H36.288C36.288 46.3221 35.5387 52.1541 30.0867 50.1754C30.0867 50.1754 24.844 47.4927 29.2254 40.7714C32.6814 36.4634 37.936 27.7314 37.9974 27.6954Z" fill="#231F20"/>
<path fill-rule="evenodd" clip-rule="evenodd" d="M88.7019 33.3268L89.6859 33.3281C89.6859 33.3281 90.5566 35.9735 88.9659 39.5001C88.9659 39.5001 88.8139 39.7948 89.3406 40.8068C89.8686 41.8175 91.9619 46.4241 91.9619 46.4241C91.9619 46.4241 92.7806 47.8428 91.6459 48.7268L90.0899 50.2255C90.0899 50.2255 90.2059 52.9455 89.4246 53.4041C89.4246 53.4041 89.6152 55.3068 88.9019 55.9815C88.9019 55.9815 89.1526 59.0881 88.2979 59.5868C88.2979 59.5868 79.9206 63.7988 73.3166 58.5988L69.2352 54.8041C69.2352 54.8041 68.7912 53.1295 69.6899 53.1295C69.6899 53.1295 69.4646 54.0388 69.9126 54.3241C70.3632 54.6095 76.0206 61.6095 83.5259 60.4135C83.5259 60.4135 87.9526 60.0441 88.0939 58.1948C88.0939 58.1948 88.0646 55.7761 88.3179 55.4641C88.5686 55.1495 88.8486 54.1255 87.6179 54.0681C86.3846 54.0108 84.2832 54.0401 84.2832 54.0401C84.2832 54.0401 83.7112 53.6561 84.8726 53.5135C84.8726 53.5135 89.0899 52.7788 89.1739 51.4295C89.1739 51.4295 88.8926 49.9481 89.8512 49.6801L91.2059 48.2681C91.2059 48.2681 91.9352 47.2601 90.1486 43.8655L88.6739 40.8295C88.6739 40.8295 88.2272 40.1321 88.7019 38.8615C89.1779 37.5908 89.3872 34.0521 88.7019 33.3268" fill="#034EA1"/>
<path d="M67.1276 59.1602L69.3836 53.2428C69.3836 53.2428 74.4076 53.0962 72.809 48.2895C72.809 48.2895 71.4263 45.9215 69.8236 46.0708C69.8236 46.0708 70.5503 44.3695 71.1343 42.8908C71.7143 41.4095 75.0636 31.9428 75.0636 31.9428" stroke="#00A551" stroke-width="0.945333" stroke-miterlimit="2.613"/>
<path fill-rule="evenodd" clip-rule="evenodd" d="M81.0457 50.7982C80.9497 50.5862 79.8243 49.4608 78.7737 50.4302C77.723 51.3982 79.0403 52.9688 79.0403 52.9688C80.2057 53.9782 82.9523 53.3382 83.411 52.9688C83.871 52.6022 85.7577 51.6902 86.8297 51.5928C87.8977 51.4968 87.6297 51.0888 87.3617 50.4675C87.095 49.8475 85.9883 50.3515 85.9883 50.3515C85.9883 50.3515 82.6857 52.2315 81.8283 52.7942C80.9683 53.3568 79.4057 52.6595 79.0977 51.1848C78.795 49.7128 81.0457 50.7982 81.0457 50.7982ZM86.035 46.4355C86.035 46.4355 84.8483 48.5022 86.5443 48.6555C88.2403 48.8048 89.1737 47.5128 89.1737 47.5128C89.1737 47.5128 89.8523 47.2968 89.9377 47.8142C90.0203 48.3302 89.7043 48.8488 89.111 49.0862C88.5177 49.3235 86.5843 49.9035 85.8003 49.1515C85.0177 48.3955 85.079 46.2195 86.035 46.4355ZM83.2137 40.3568C83.2137 40.3568 83.6817 41.4715 83.843 40.6035C84.0057 39.7328 83.2137 39.6022 83.2137 40.3568ZM81.3257 40.4128C81.3257 40.4128 80.8897 40.5115 80.7777 40.9062C80.663 41.2995 80.7777 41.6768 81.8923 41.7755C83.007 41.8728 82.875 40.8248 82.6017 40.3155C82.3283 39.8048 81.3257 40.4128 81.3257 40.4128ZM79.8763 40.3102C81.1857 39.0888 84.007 38.5035 85.407 38.4328C86.8083 38.3595 86.1977 38.8875 86.1977 38.8875C86.1977 38.8875 85.443 39.2155 85.731 39.7808C86.0177 40.3462 85.2443 41.1675 85.6577 41.4222C86.0723 41.6782 86.1977 42.1142 84.995 43.1928C83.7923 44.2688 82.5883 44.0315 82.9097 44.0128C83.235 43.9942 84.167 43.2662 84.7057 42.7368C85.2443 42.2075 83.647 42.2635 83.451 42.2435C83.251 42.2262 81.3483 42.6275 81.0257 42.2635C80.7017 41.8955 80.3603 41.9355 79.303 41.8795C78.243 41.8235 77.8843 41.3315 77.9723 40.9662C78.0643 40.6035 80.7763 37.7368 81.6363 37.4102C82.499 37.0835 84.4923 36.9902 84.8323 37.3542C85.1737 37.7182 84.3643 37.7022 84.3643 37.7022C81.7443 37.2808 80.2537 39.2342 79.607 39.6902C78.9617 40.1462 78.979 40.3822 78.979 40.3822C79.535 40.7475 79.8763 40.3102 79.8763 40.3102V40.3102ZM77.4417 37.9328C77.4417 37.9328 81.923 35.0808 86.879 35.9715C86.879 35.9715 87.2803 35.0822 86.259 34.7115C79.9923 33.9715 77.587 37.9688 77.4417 37.9328Z" fill="#034EA1"/>
<path fill-rule="evenodd" clip-rule="evenodd" d="M57.1927 34.6042C57.1927 34.6042 56.5087 39.6856 54.522 42.0509C52.5367 44.4162 51.5087 48.2442 52.194 49.5656L52.878 51.0962L51.5087 52.8376C51.5087 52.8376 47.306 52.9136 47.0847 55.7896C46.8634 58.6642 48.7487 59.9042 49.3034 60.1296C49.8594 60.3549 54.0754 60.7482 56.0167 56.8602C56.0167 56.8602 56.422 62.9749 62.6114 59.1709L67.1274 59.1602L69.3847 53.2429C69.3847 53.2429 74.4074 53.0962 72.8087 48.2896C72.8087 48.2896 71.426 45.9216 69.8247 46.0709C69.8247 46.0709 70.5513 44.3696 71.134 42.8909C71.7153 41.4096 75.0634 31.9429 75.0634 31.9429L57.1927 34.6042Z" fill="#CE482C"/>
<path d="M59.6367 34.4323C59.6367 34.4323 58.9113 37.031 56.822 41.883C54.7327 46.735 54.0513 46.3883 54.1793 48.3803C54.3073 50.375 55.8847 51.6736 57.2487 49.463C57.2487 49.463 57.5473 48.1216 56.226 48.0336" stroke="#00A551" stroke-width="0.945333" stroke-miterlimit="2.613"/>
<path d="M61.7487 34.1589C61.7487 34.1589 59.922 39.3122 59.2154 40.2709C58.5074 41.2295 57.15 45.7815 57.2087 46.0802" stroke="#00A551" stroke-width="0.945333" stroke-miterlimit="2.613"/>
<path d="M54.4388 46.5C54.4388 46.5 57.4441 44.9427 58.6241 46.9787C59.8028 49.0174 58.0921 51.412 57.5628 51.892C57.0321 52.372 53.4361 52.3094 52.8468 51.172" stroke="#00A551" stroke-width="0.945333" stroke-miterlimit="2.613"/>
<path d="M63.9531 33.6107C63.9531 33.6107 59.4158 45.2547 58.5558 46.6147" stroke="#00A551" stroke-width="0.945333" stroke-miterlimit="2.613"/>
<path d="M66.0691 33.3724C66.0691 33.3724 61.5531 44.5084 61.3398 45.0324C61.1251 45.5551 60.1798 48.2644 60.8224 49.1364C61.4678 50.0111 62.4158 50.5777 64.1758 49.7911C64.1758 49.7911 65.3371 48.1777 63.8344 47.4777C62.3278 46.7791 62.3718 48.2204 62.5851 48.4377" stroke="#00A551" stroke-width="0.945333" stroke-miterlimit="2.613"/>
<path d="M61.0378 45.8177C61.0378 45.8177 63.3604 44.5524 64.8644 45.9924C66.3671 47.4351 66.1671 47.9791 65.7404 50.6124C65.7404 50.6124 64.7338 52.5391 62.4538 52.0684C60.1711 51.5964 58.9324 49.3964 58.9324 49.3964" stroke="#00A551" stroke-width="0.945333" stroke-miterlimit="2.613"/>
<path d="M67.9962 32.9973C67.9962 32.9973 67.3695 36.88 66.3655 38.5986C65.3642 40.3173 63.4215 45.2213 63.4215 45.2213" stroke="#00A551" stroke-width="0.945333" stroke-miterlimit="2.613"/>
<path d="M70.5664 32.7422C70.5664 32.7422 67.1811 43.3102 65.1131 46.0488" stroke="#00A551" stroke-width="0.945333" stroke-miterlimit="2.613"/>
<path d="M72.6342 32.5495C72.6342 32.5495 68.9995 43.3749 68.1848 44.5215C67.3702 45.6669 67.3088 48.9762 67.5582 49.6135C67.8088 50.2495 68.2475 52.1922 70.5662 50.9815C70.5662 50.9815 72.4155 49.4869 70.5982 48.1175C70.5982 48.1175 69.7822 47.8309 69.6582 48.3095" stroke="#00A551" stroke-width="0.945333" stroke-miterlimit="2.613"/>
<path d="M69.8086 46.0586C69.8086 46.0586 67.7406 46.7919 67.4286 48.1586" stroke="#00A551" stroke-width="0.945333" stroke-miterlimit="2.613"/>
<path d="M65.9102 49.72C65.9102 49.72 66.3768 52.956 69.3088 53.3453" stroke="#00A551" stroke-width="0.945333" stroke-miterlimit="2.613"/>
<path d="M67.4818 52.7422C67.4818 52.7422 65.0164 58.9115 65.0164 59.1288" stroke="#00A551" stroke-width="0.945333" stroke-miterlimit="2.613"/>
<path d="M65.4844 51.1016C65.4844 51.1016 64.8044 57.315 62.5951 59.0416" stroke="#00A551" stroke-width="0.945333" stroke-miterlimit="2.613"/>
<path d="M63.7005 52.1798C63.7005 52.1798 62.2992 55.0291 62.2992 55.6744C62.2992 56.3224 61.8739 58.3958 59.6219 58.3958C57.3699 58.3958 58.2192 56.4958 58.4325 56.1518C58.6445 55.8051 59.5365 55.5024 59.9192 56.2798" stroke="#00A551" stroke-width="0.945333" stroke-miterlimit="2.613"/>
<path d="M61.9159 51.9632C61.9159 51.9632 60.9386 53.2166 61.0666 53.8206C61.1946 54.4246 62.2132 55.8046 62.1706 56.4086M59.0626 53.2579C59.0626 53.2579 60.2692 53.9766 60.9359 53.6166L59.0626 53.2579Z" stroke="#00A551" stroke-width="0.945333" stroke-miterlimit="2.613"/>
<path d="M60.6003 51.2735C60.6003 51.2735 59.4523 51.9642 59.2389 52.8695C59.0269 53.7762 57.6669 53.8615 57.3296 53.8202C56.9896 53.7762 56.0136 56.8749 56.0136 56.8749" stroke="#00A551" stroke-width="0.945333" stroke-miterlimit="2.613"/>
<path d="M57.2864 52.0938V53.8204" stroke="#00A551" stroke-width="0.945333" stroke-miterlimit="2.613"/>
<path d="M56.388 52.2123C56.388 52.2123 53.4693 58.487 51.112 58.5937C48.7533 58.6977 48.7533 56.375 49.0667 55.7763C49.3773 55.1777 50.592 54.579 51.112 55.1417C51.632 55.7057 51.46 56.6563 51.46 56.6563" stroke="#00A551" stroke-width="0.945333" stroke-miterlimit="2.613"/>
<path d="M54.3008 52.0781L52.7582 54.0074" stroke="#00A551" stroke-width="0.945333" stroke-miterlimit="2.613"/>
<path d="M51.5131 52.8282C51.5131 52.8282 53.9344 54.5602 53.6144 56.7815" stroke="#00A551" stroke-width="0.945333" stroke-miterlimit="2.613"/>
<path fill-rule="evenodd" clip-rule="evenodd" d="M101.37 35.6771C99.8658 32.9985 95.0191 26.6118 100.799 25.0158C109.143 23.5811 106.607 31.1211 103.627 35.2411L106.611 39.4691L103.846 43.7998C103.846 43.7998 106.955 49.0465 106.955 51.3278C106.955 53.6091 104.919 55.8891 102.202 55.3598C99.4871 54.8278 98.5485 51.8051 98.6005 50.5318C98.6525 49.2585 101.21 44.6958 101.21 44.6958L98.4445 40.1865L101.37 35.6771Z" fill="#CE482C"/>
<path d="M102.591 33.3945C100.473 31.8985 98.3553 26.8465 102.477 26.8465C106.599 26.8465 104.507 31.8599 102.591 33.3945Z" stroke="#00A551" stroke-width="0.945333" stroke-miterlimit="2.613"/>
<path d="M102.754 46.1198C102.754 46.1198 99.4085 48.6225 100.343 52.0185C100.343 52.0185 101.255 53.7145 102.997 53.3985C104.735 53.0825 105.541 51.4998 105.299 50.2345C104.658 47.7318 102.754 46.1198 102.754 46.1198Z" stroke="#00A551" stroke-width="0.945333" stroke-miterlimit="2.613"/>
<path d="M100.672 39.5312L102.707 36.5526L104.555 39.5312L102.615 42.5286L100.672 39.5312Z" stroke="#00A551" stroke-width="0.945333" stroke-miterlimit="2.613"/>
<path fill-rule="evenodd" clip-rule="evenodd" d="M85.5495 61.3333L84.7442 62.552H54.9095V61.3333H85.5495Z" fill="#CE482C"/>
<path fill-rule="evenodd" clip-rule="evenodd" d="M82.4688 65.9921L81.6635 67.2108H54.9088V65.9921H82.4688Z" fill="#CE482C"/>
<path fill-rule="evenodd" clip-rule="evenodd" d="M62.5104 65.2722H64.3878C64.3744 64.7602 63.9598 64.3469 63.4491 64.3469C62.9424 64.3469 62.5251 64.7602 62.5104 65.2722ZM62.5104 63.3082H64.3878C64.3744 63.8202 63.9598 64.2349 63.4491 64.2349C62.9424 64.2349 62.5251 63.8202 62.5104 63.3082ZM59.4878 65.2722H61.3664C61.3531 64.7602 60.9358 64.3469 60.4278 64.3469C59.9198 64.3469 59.5011 64.7602 59.4878 65.2722ZM59.4878 63.3082H61.3664C61.3531 63.8202 60.9358 64.2349 60.4278 64.2349C59.9198 64.2349 59.5011 63.8202 59.4878 63.3082ZM56.4678 65.2722H58.3438C58.3291 64.7602 57.9144 64.3469 57.4051 64.3469C56.8944 64.3469 56.4811 64.7602 56.4678 65.2722ZM56.4678 63.3082H58.3438C58.3291 63.8202 57.9144 64.2349 57.4051 64.2349C56.8944 64.2349 56.4811 63.8202 56.4678 63.3082V63.3082ZM65.5331 65.2722H67.4131C67.3984 64.7602 66.9811 64.3469 66.4718 64.3469C65.9624 64.3469 65.5451 64.7602 65.5331 65.2722ZM65.5331 63.3082H67.4131C67.3984 63.8202 66.9811 64.2349 66.4718 64.2349C65.9624 64.2349 65.5451 63.8202 65.5331 63.3082ZM68.2198 65.2722H70.0984C70.0851 64.7602 69.6691 64.3469 69.1584 64.3469C68.6491 64.3469 68.2344 64.7602 68.2198 65.2722ZM68.2198 63.3082H70.0984C70.0851 63.8202 69.6691 64.2349 69.1584 64.2349C68.6491 64.2349 68.2344 63.8202 68.2198 63.3082ZM70.9051 65.2722H72.7838C72.7704 64.7602 72.3544 64.3469 71.8451 64.3469C71.3371 64.3469 70.9211 64.7602 70.9051 65.2722ZM70.9051 63.3082H72.7838C72.7704 63.8202 72.3544 64.2349 71.8451 64.2349C71.3371 64.2349 70.9211 63.8202 70.9051 63.3082ZM73.5931 65.2722H75.4704C75.4571 64.7602 75.0384 64.3469 74.5331 64.3469C74.0238 64.3469 73.6051 64.7602 73.5931 65.2722ZM73.5931 63.3082H75.4704C75.4571 63.8202 75.0384 64.2349 74.5331 64.2349C74.0238 64.2349 73.6051 63.8202 73.5931 63.3082ZM76.2798 65.2722H78.1584C78.1438 64.7602 77.7264 64.3469 77.2184 64.3469C76.7064 64.3469 76.2931 64.7602 76.2798 65.2722ZM76.2798 63.3082H78.1584C78.1438 63.8202 77.7264 64.2349 77.2184 64.2349C76.7064 64.2349 76.2931 63.8202 76.2798 63.3082V63.3082ZM78.9651 65.2722H80.8438C80.8304 64.7602 80.4144 64.3469 79.9038 64.3469C79.3958 64.3469 78.9798 64.7602 78.9651 65.2722ZM78.9651 63.3082H80.8438C80.8304 63.8202 80.4144 64.2349 79.9038 64.2349C79.3958 64.2349 78.9798 63.8202 78.9651 63.3082V63.3082ZM83.3211 64.7016L82.9438 65.2722H81.6518C81.6664 64.7602 82.0824 64.3469 82.5931 64.3469C82.8851 64.3469 83.1491 64.4856 83.3211 64.7016V64.7016ZM81.6518 63.3082H83.5291C83.5171 63.8202 83.0998 64.2349 82.5931 64.2349C82.0824 64.2349 81.6664 63.8202 81.6518 63.3082" fill="#CE482C"/>
<path fill-rule="evenodd" clip-rule="evenodd" d="M75.073 84.2839C74.189 83.2719 72.9103 81.8146 72.061 81.4373L86.4943 59.9053L89.7903 62.1639L75.073 84.2839Z" fill="#231F20"/>
<path fill-rule="evenodd" clip-rule="evenodd" d="M87.3672 69.1433L76.7686 84.882L77.8046 85.4846L88.6272 69.9713L87.3672 69.1433Z" fill="#D44C2D"/>
<path fill-rule="evenodd" clip-rule="evenodd" d="M91.5131 71.9948C91.0398 71.6055 90.4371 71.3708 89.7825 71.3708C88.9131 71.3708 88.1371 71.7841 87.6331 72.4268C87.2598 72.9015 87.0385 73.5001 87.0385 74.1495C87.0385 75.1281 87.5411 75.9895 88.2985 76.4841C88.6678 76.0108 88.8918 75.4121 88.8918 74.7601C88.8918 73.9401 88.5371 73.2001 87.9758 72.6895C88.3785 72.9281 88.8478 73.0668 89.3491 73.0668C90.2265 73.0668 91.0091 72.6455 91.5131 71.9948V71.9948ZM90.3105 73.2361C90.9011 73.2361 91.3811 73.7228 91.3811 74.3201C91.3811 74.9161 90.9011 75.4055 90.3105 75.4055C89.7211 75.4055 89.2398 74.9161 89.2398 74.3201C89.2398 73.7228 89.7211 73.2361 90.3105 73.2361Z" fill="#D44C2D"/>
<path fill-rule="evenodd" clip-rule="evenodd" d="M88.2084 77.2396C87.7364 76.8516 87.1351 76.6169 86.4804 76.6169C85.6111 76.6169 84.8351 77.0303 84.3298 77.6716H84.3284C83.9578 78.1463 83.7351 78.7449 83.7351 79.3956C83.7351 80.3729 84.2378 81.2343 84.9951 81.7289C85.3671 81.2556 85.5898 80.6569 85.5898 80.0076C85.5898 79.1863 85.2351 78.4449 84.6724 77.9343C85.0751 78.1743 85.5471 78.3129 86.0471 78.3129C86.9231 78.3129 87.7071 77.8903 88.2084 77.2396V77.2396ZM87.0084 78.4823C87.5978 78.4823 88.0791 78.9689 88.0791 79.5649C88.0791 80.1623 87.5978 80.6516 87.0084 80.6516C86.4164 80.6516 85.9364 80.1623 85.9364 79.5649C85.9364 78.9689 86.4164 78.4823 87.0084 78.4823" fill="#D44C2D"/>
<path fill-rule="evenodd" clip-rule="evenodd" d="M84.7878 82.6081C84.3158 82.2188 83.7131 81.9841 83.0571 81.9841C82.1891 81.9841 81.4131 82.3961 80.9091 83.0388H80.9078C80.5371 83.5135 80.3145 84.1135 80.3145 84.7641C80.3145 85.7401 80.8158 86.6041 81.5745 87.0988C81.9438 86.6255 82.1678 86.0255 82.1678 85.3748C82.1678 84.5535 81.8118 83.8121 81.2491 83.3028C81.6545 83.5415 82.1238 83.6801 82.6251 83.6801C83.5011 83.6801 84.2838 83.2601 84.7878 82.6081V82.6081ZM83.5865 83.8495C84.1745 83.8495 84.6571 84.3361 84.6571 84.9335C84.6571 85.5308 84.1745 86.0188 83.5865 86.0188C82.9945 86.0188 82.5145 85.5308 82.5145 84.9335C82.5145 84.3361 82.9945 83.8495 83.5865 83.8495" fill="#D44C2D"/>
<path fill-rule="evenodd" clip-rule="evenodd" d="M84.3021 87.4896L93.8435 73.6176C93.8435 73.6176 92.1808 94.7843 110.041 107.68V109.727C110.041 109.727 94.6315 101.899 92.1808 79.2189L86.0528 88.3803L84.3021 87.4896Z" fill="#CE482C"/>
<path fill-rule="evenodd" clip-rule="evenodd" d="M100.06 78.2409H101.724C101.724 78.2409 102.159 89.4476 110.128 97.2729V99.2369C110.128 99.2369 101.547 94.2503 100.06 78.2409Z" fill="#CE482C"/>
<path fill-rule="evenodd" clip-rule="evenodd" d="M106.057 81.6211L104.436 80.8197C104.436 80.8197 105.181 88.2024 109.644 93.2704V91.0464C109.644 91.0464 105.837 84.2451 106.057 81.6211" fill="#CE482C"/>
<path fill-rule="evenodd" clip-rule="evenodd" d="M97.1342 76.5807C97.9795 76.5807 98.6648 77.2753 98.6648 78.13C98.6648 78.9833 97.9795 79.6793 97.1342 79.6793C96.2902 79.6793 95.6022 78.9833 95.6022 78.13C95.6022 77.2753 96.2902 76.5807 97.1342 76.5807Z" fill="#CE482C"/>
<path fill-rule="evenodd" clip-rule="evenodd" d="M97.6082 81.8073C98.4522 81.8073 99.1388 82.502 99.1388 83.3567C99.1388 84.2113 98.4522 84.906 97.6082 84.906C96.7642 84.906 96.0775 84.2113 96.0775 83.3567C96.0775 82.502 96.7642 81.8073 97.6082 81.8073Z" fill="#CE482C"/>
<path fill-rule="evenodd" clip-rule="evenodd" d="M99.164 86.8282C100.008 86.8282 100.696 87.5242 100.696 88.3776C100.696 89.2322 100.008 89.9282 99.164 89.9282C98.3213 89.9282 97.6346 89.2322 97.6346 88.3776C97.6346 87.5242 98.3213 86.8282 99.164 86.8282Z" fill="#CE482C"/>
<path fill-rule="evenodd" clip-rule="evenodd" d="M101.129 91.8503C101.973 91.8503 102.66 92.545 102.66 93.3997C102.66 94.253 101.973 94.9503 101.129 94.9503C100.285 94.9503 99.5996 94.253 99.5996 93.3997C99.5996 92.545 100.285 91.8503 101.129 91.8503Z" fill="#CE482C"/>
<path fill-rule="evenodd" clip-rule="evenodd" d="M103.769 96.1822C104.613 96.1822 105.299 96.8796 105.299 97.7329C105.299 98.5862 104.613 99.2836 103.769 99.2836C102.925 99.2836 102.24 98.5862 102.24 97.7329C102.24 96.8796 102.925 96.1822 103.769 96.1822Z" fill="#CE482C"/>
<path fill-rule="evenodd" clip-rule="evenodd" d="M107.629 100.104C108.472 100.104 109.161 100.799 109.161 101.654C109.161 102.508 108.472 103.203 107.629 103.203C106.786 103.203 106.1 102.508 106.1 101.654C106.1 100.799 106.786 100.104 107.629 100.104Z" fill="#CE482C"/>
<path fill-rule="evenodd" clip-rule="evenodd" d="M55.0352 96.6016C55.0352 96.6016 49.6632 80.927 46.0886 77.4163C46.0886 77.4163 46.9206 75.0576 52.7179 76.071C52.7179 76.071 54.7126 76.451 55.9579 76.1323C57.2046 75.8176 60.3246 76.6403 61.1952 77.6536C62.0672 78.667 66.5592 76.387 69.1752 80.6936C69.1752 80.6936 73.2899 79.8696 76.2206 84.8096C76.2206 84.8096 77.4059 85.6323 77.2806 87.5963L77.2432 97.9323C77.2432 97.9323 79.2699 114.687 85.9152 121.498C85.9152 121.498 88.5619 124.303 88.3846 126.156C88.2086 128.008 79.7992 127.411 79.0926 127.231C78.3886 127.052 74.7446 128.068 72.9206 125.796C72.9206 125.796 67.1126 127.643 64.7832 122.804C64.7832 122.804 58.1686 122.547 56.9299 116.934C57.2272 101.907 55.3592 98.0923 55.0352 96.6016Z" fill="#231F20"/>
<path fill-rule="evenodd" clip-rule="evenodd" d="M104.757 137.721C103.986 137.528 103.23 137.288 102.493 137.011C103.61 133.444 104.21 129.653 104.21 125.724C104.21 108.617 92.8006 94.1146 77.2739 89.5813L77.2806 87.596C77.2926 87.4213 77.2926 87.2546 77.2846 87.0986C94.1259 91.7026 106.582 107.291 106.582 125.724C106.582 129.901 105.941 133.932 104.757 137.721Z" fill="#D44C2D"/>
<path fill-rule="evenodd" clip-rule="evenodd" d="M96.2982 133.656C95.9315 133.396 95.5729 133.132 95.2195 132.867C95.7902 130.58 96.0955 128.184 96.0955 125.724C96.0955 113.184 88.2582 102.439 77.2782 98.2189C77.2555 98.0309 77.2435 97.9323 77.2435 97.9323L77.2475 96.8683C88.9382 101.139 97.3355 112.471 97.3355 125.724C97.3355 128.466 96.9755 131.126 96.2982 133.656Z" fill="#CE482C"/>
<path fill-rule="evenodd" clip-rule="evenodd" d="M90.7761 128.935C90.4174 128.574 90.0907 128.23 89.8001 127.911C89.8667 127.19 89.9001 126.462 89.9001 125.724C89.9001 117.324 85.4347 109.947 78.7801 105.884C78.6521 105.38 78.5347 104.888 78.4227 104.414C85.8974 108.531 90.9867 116.547 90.9867 125.724C90.9867 126.812 90.9134 127.886 90.7761 128.935Z" fill="#CE482C"/>
<path fill-rule="evenodd" clip-rule="evenodd" d="M89.2019 127.254C88.7845 126.782 88.4632 126.398 88.2472 126.13C88.2512 125.995 88.2525 125.859 88.2525 125.725C88.2525 118.589 84.7792 112.249 79.4525 108.334C79.3005 107.818 79.1552 107.307 79.0219 106.806C85.1712 110.821 89.2539 117.806 89.2539 125.725C89.2539 126.237 89.2352 126.75 89.2019 127.254Z" fill="#CE482C"/>
<path fill-rule="evenodd" clip-rule="evenodd" d="M81.3412 113.617C81.0599 112.964 80.7972 112.3 80.5466 111.631C83.0572 114.096 84.9159 117.237 85.8252 120.759C85.7786 120.708 85.7546 120.68 85.7546 120.68C85.3532 120.268 84.9692 119.824 84.6012 119.352C83.8519 117.244 82.7386 115.308 81.3412 113.617Z" fill="#CE482C"/>
<path fill-rule="evenodd" clip-rule="evenodd" d="M91.4374 129.126C91.5468 128.31 91.6201 127.485 91.6481 126.644C92.2908 126.688 92.8001 127.229 92.8001 127.888C92.8001 128.573 92.2454 129.133 91.5694 129.133C91.5228 129.133 91.4801 129.13 91.4374 129.126ZM91.6681 125.718C91.6681 124.877 91.6281 124.048 91.5441 123.229C91.5761 123.226 91.6054 123.226 91.6348 123.226C92.3148 123.226 92.8681 123.786 92.8681 124.473C92.8681 125.149 92.3308 125.701 91.6681 125.718V125.718ZM91.4374 122.31C91.3241 121.48 91.1681 120.662 90.9774 119.861C91.0574 119.844 91.1441 119.833 91.2308 119.833C91.9094 119.833 92.4628 120.393 92.4628 121.081C92.4628 121.696 92.0174 122.209 91.4374 122.31ZM90.7428 118.964C90.5201 118.161 90.2548 117.376 89.9561 116.604C90.0841 116.557 90.2268 116.53 90.3721 116.53C91.0494 116.53 91.6028 117.092 91.6028 117.776C91.6028 118.333 91.2428 118.805 90.7428 118.964V118.964ZM89.6001 115.749C89.2694 114.988 88.9028 114.242 88.4988 113.524C88.6708 113.43 88.8641 113.377 89.0748 113.377C89.7508 113.377 90.3028 113.937 90.3028 114.624C90.3028 115.12 90.0174 115.546 89.6001 115.749V115.749ZM88.0334 112.722C87.6028 112.013 87.1361 111.328 86.6414 110.669C86.8441 110.521 87.0921 110.432 87.3601 110.432C88.0388 110.432 88.5908 110.992 88.5908 111.68C88.5908 112.116 88.3694 112.498 88.0334 112.722V112.722ZM86.0734 109.94C85.5508 109.3 84.9988 108.685 84.4174 108.098C84.6388 107.882 84.9388 107.753 85.2681 107.753C85.9468 107.753 86.4988 108.313 86.4988 108.997C86.4988 109.376 86.3334 109.712 86.0734 109.94ZM83.7561 107.453C83.1561 106.889 82.5268 106.357 81.8721 105.854C82.0961 105.57 82.4454 105.386 82.8321 105.386C83.5108 105.386 84.0641 105.946 84.0641 106.633C84.0641 106.948 83.9481 107.234 83.7561 107.453V107.453ZM81.1308 105.306C80.4614 104.83 79.7654 104.385 79.0494 103.98C79.2654 103.617 79.6588 103.376 80.1054 103.376C80.7828 103.376 81.3348 103.934 81.3348 104.62C81.3348 104.876 81.2601 105.109 81.1308 105.306" fill="#CE482C"/>
<path fill-rule="evenodd" clip-rule="evenodd" d="M95.2566 130.322C95.4032 129.394 95.5072 128.451 95.5646 127.495C95.5232 127.492 95.4832 127.49 95.4419 127.49C94.6686 127.49 94.0379 128.128 94.0379 128.912C94.0379 129.63 94.5686 130.228 95.2566 130.322ZM95.5326 123.466C95.5912 124.211 95.6206 124.963 95.6206 125.724C95.6206 125.918 95.6179 126.115 95.6166 126.307H95.5992C94.8259 126.307 94.1952 125.671 94.1952 124.888C94.1952 124.126 94.7899 123.502 95.5326 123.466V123.466ZM95.4192 122.283C95.3059 121.334 95.1499 120.399 94.9486 119.48C94.2979 119.604 93.8046 120.184 93.8046 120.878C93.8046 121.662 94.4366 122.298 95.2099 122.298C95.2792 122.298 95.3499 122.294 95.4192 122.283V122.283ZM94.6686 118.326C94.4272 117.404 94.1392 116.5 93.8126 115.618C93.2619 115.81 92.8659 116.342 92.8659 116.96C92.8659 117.744 93.4979 118.383 94.2699 118.383C94.4099 118.383 94.5432 118.362 94.6686 118.326V118.326ZM93.3766 114.514C93.0099 113.635 92.6019 112.783 92.1552 111.954C91.7019 112.19 91.3926 112.668 91.3926 113.216C91.3926 114 92.0232 114.64 92.7966 114.64C93.0046 114.64 93.1979 114.594 93.3766 114.514V114.514ZM91.5699 110.919C91.0872 110.106 90.5672 109.318 90.0099 108.559C89.6472 108.815 89.4099 109.239 89.4099 109.722C89.4099 110.506 90.0419 111.143 90.8166 111.143C91.0939 111.143 91.3526 111.06 91.5699 110.919V110.919ZM89.2886 107.615C88.7019 106.878 88.0792 106.17 87.4232 105.495C87.1472 105.752 86.9752 106.126 86.9752 106.535C86.9752 107.319 87.6059 107.958 88.3779 107.958C88.7259 107.958 89.0459 107.828 89.2886 107.615V107.615ZM86.5806 104.66C85.8992 104.014 85.1859 103.399 84.4472 102.819C84.2459 103.064 84.1259 103.378 84.1259 103.719C84.1259 104.503 84.7566 105.14 85.5312 105.14C85.9472 105.14 86.3259 104.955 86.5806 104.66V104.66ZM83.5006 102.11C82.7352 101.564 81.9472 101.055 81.1326 100.583C81.0019 100.799 80.9259 101.052 80.9259 101.324C80.9259 102.107 81.5579 102.746 82.3312 102.746C82.8166 102.746 83.2472 102.492 83.5006 102.11V102.11ZM80.0992 100.016C79.2699 99.5803 78.4152 99.1843 77.5446 98.835C77.4686 99.007 77.4272 99.1977 77.4272 99.4003C77.4272 100.183 78.0592 100.82 78.8339 100.82C79.3899 100.82 79.8726 100.492 80.0992 100.016Z" fill="#CE482C"/>
<path fill-rule="evenodd" clip-rule="evenodd" d="M78.0364 92.1563L79.0231 95.8109C79.0231 95.8109 79.1564 97.0829 80.7297 96.4616C82.3017 95.8389 84.5404 94.5936 84.5404 94.5936C84.5404 94.5936 85.7391 93.8883 84.4337 93.0763L79.1297 90.9109C79.1297 90.9109 77.5297 90.3149 78.0364 92.1563Z" fill="#EC1C24"/>
<path fill-rule="evenodd" clip-rule="evenodd" d="M89.5221 98.138L88.9768 101.889C88.9768 101.889 88.5941 103.109 90.2821 103.174C91.9688 103.245 94.5141 103.013 94.5141 103.013C94.5141 103.013 95.8901 102.854 95.0168 101.578L91.0168 97.4433C91.0168 97.4433 89.7875 96.2473 89.5221 98.138Z" fill="#EC1C24"/>
<path fill-rule="evenodd" clip-rule="evenodd" d="M97.3763 107.896L95.759 111.313C95.759 111.313 95.0377 112.364 96.6283 112.933C98.2203 113.505 100.719 114.044 100.719 114.044C100.719 114.044 102.08 114.308 101.619 112.827L99.007 107.677C99.007 107.677 98.1817 106.167 97.3763 107.896Z" fill="#EC1C24"/>
<path fill-rule="evenodd" clip-rule="evenodd" d="M101.469 120.27L98.6368 122.748C98.6368 122.748 97.5595 123.42 98.7941 124.586C100.027 125.752 102.106 127.26 102.106 127.26C102.106 127.26 103.251 128.051 103.41 126.508L103.05 120.73C103.05 120.73 102.89 119.014 101.469 120.27" fill="#EC1C24"/>
<path fill-rule="evenodd" clip-rule="evenodd" d="M82.8269 97.185L86.3762 95.7703C86.3762 95.7703 87.3495 95.3076 87.5962 96.7396C87.8442 98.1716 87.7855 100.712 87.7855 100.712C87.7855 100.712 87.8082 101.905 86.6469 101.302L82.4149 98.5396C82.4149 98.5396 81.2815 97.6236 82.8269 97.185" fill="#EC1C24"/>
<path fill-rule="evenodd" clip-rule="evenodd" d="M92.1251 104.232L95.9371 104.346C95.9371 104.346 97.0118 104.309 96.6811 105.724C96.3518 107.141 95.3091 109.45 95.3091 109.45C95.3091 109.45 94.8664 110.557 94.0331 109.538L91.2184 105.313C91.2184 105.313 90.5318 104.018 92.1251 104.232" fill="#EC1C24"/>
<path fill-rule="evenodd" clip-rule="evenodd" d="M99.6003 127.253L102.535 130.378C102.535 130.378 103.416 131.203 102.055 132.063C100.694 132.922 98.0737 133.926 98.0737 133.926C98.0737 133.926 96.8617 134.45 96.991 132.982L98.043 127.389C98.043 127.389 98.5017 125.818 99.6003 127.253" fill="#EC1C24"/>
<path fill-rule="evenodd" clip-rule="evenodd" d="M97.944 114.28L101.805 115.869C101.805 115.869 102.921 116.245 102.051 117.569C101.179 118.891 99.2414 120.857 99.2414 120.857C99.2414 120.857 98.368 121.817 97.9 120.456L96.608 115.036C96.608 115.036 96.392 113.448 97.944 114.28" fill="#EC1C24"/>
<path fill-rule="evenodd" clip-rule="evenodd" d="M102.409 133.982L99.2235 135.403L101.474 136.482L102.409 133.982Z" fill="#EC1C24"/>
<path fill-rule="evenodd" clip-rule="evenodd" d="M51.8541 75.9375C51.1141 75.8442 50.4688 75.8095 49.9048 75.8188V60.5762H51.8541V75.9375Z" fill="#D44C2D"/>
<path fill-rule="evenodd" clip-rule="evenodd" d="M91.1472 63.0756L88.3125 67.7142L109.488 83.2289V76.0315L91.1472 63.0756Z" fill="#D44C2D"/>
<path fill-rule="evenodd" clip-rule="evenodd" d="M47.586 63.5782L47.1354 64.1169L46.6834 64.6569L47.1354 65.1956L47.586 65.7356L48.0394 65.1956L48.49 64.6569L48.0394 64.1169L47.586 63.5782ZM48.978 60.4876V68.8849C47.0514 68.4862 45.5914 66.7529 45.5914 64.6862C45.5914 62.6182 47.0514 60.8849 48.978 60.4876Z" fill="#D44C2D"/>
<path fill-rule="evenodd" clip-rule="evenodd" d="M43.5847 60.4245C43.6101 60.4139 43.6327 60.4005 43.6567 60.3885L45.0487 59.8752L43.6407 61.7125L43.5847 60.4245Z" fill="#D44C2D"/>
<path fill-rule="evenodd" clip-rule="evenodd" d="M101.833 67.4558C102.14 67.4558 102.392 67.7585 102.392 68.1278C102.392 68.4972 102.14 68.7998 101.833 68.7998C101.525 68.7998 101.272 68.4972 101.272 68.1278C101.272 67.7585 101.525 67.4558 101.833 67.4558ZM101.56 65.4825C101.904 65.4825 102.187 65.8198 102.187 66.2358C102.187 66.6505 101.904 66.9892 101.56 66.9892C101.212 66.9892 100.931 66.6505 100.931 66.2358C100.931 65.8198 101.212 65.4825 101.56 65.4825V65.4825ZM101.104 62.9052C101.552 62.9052 101.919 63.2758 101.919 63.7292C101.919 64.1825 101.552 64.5518 101.104 64.5518C100.656 64.5518 100.292 64.1825 100.292 63.7292C100.292 63.2758 100.656 62.9052 101.104 62.9052ZM100.841 60.2132C101.385 60.2132 101.828 60.6612 101.828 61.2105C101.828 61.7612 101.385 62.2078 100.841 62.2078C100.3 62.2078 99.8587 61.7612 99.8587 61.2105C99.8587 60.6612 100.3 60.2132 100.841 60.2132V60.2132ZM102.841 68.7278C102.841 68.7278 102.283 67.2318 103.579 67.0265C104.872 66.8198 105.507 67.1532 105.329 67.5158C105.149 67.8758 103.249 69.6305 102.841 68.7278V68.7278ZM102.7 65.8358C102.7 65.8358 102.447 64.8892 103.265 64.6332C104.083 64.3745 105.719 63.7158 105.775 64.4892C105.831 65.2625 104.957 66.3518 104.336 66.4945C103.716 66.6385 102.7 66.9252 102.7 65.8358ZM102.259 62.5438C102.259 62.5438 104.799 61.4785 104.984 61.0958C105.173 60.7132 106.395 61.8252 106.197 62.3132C105.999 62.7998 104.336 64.4892 102.7 64.4892C102.195 63.5732 102.24 62.6612 102.259 62.5438ZM102.167 60.8598C102.167 60.8598 101.557 59.8705 101.905 59.7278C102.253 59.5865 104.065 58.6318 104.117 58.5252C104.169 58.4198 105.195 58.4892 105.3 59.2318C105.407 59.9772 105.232 60.2758 105.091 60.4345C104.952 60.5945 102.881 61.8492 102.621 61.5145C102.36 61.1772 102.167 60.8598 102.167 60.8598ZM101.368 56.9838C101.023 56.4145 102.819 56.0838 103.632 56.5518C104.444 57.0252 103.341 57.5732 103.341 57.5732C101.525 58.0452 101.368 56.9838 101.368 56.9838ZM92.7707 63.3105C92.7707 63.3105 95.256 56.4305 100.472 56.5572C100.472 56.5572 101.22 58.3878 102.275 58.8292C103.331 59.2705 98.4854 59.3332 98.7027 60.7212C98.92 62.1105 98.3614 64.4145 98.8587 64.3825C99.356 64.3505 98.9827 61.7945 99.6347 62.1438C100.288 62.4892 99.7587 64.7732 100.235 65.5118C100.708 66.2505 100.905 68.4092 100.82 68.8905C100.736 69.3732 102.051 70.2545 102.917 69.9145C103.783 69.5732 105.879 68.6638 105.879 67.5278C105.879 66.3918 105.712 66.4198 105.712 66.4198C105.712 66.4198 106.976 65.4825 106.273 63.5385C106.273 63.5385 107.229 62.0572 105.972 60.5745C105.972 60.5745 106.299 58.4518 104.588 57.9172C104.588 57.9172 105.197 56.1198 103.38 55.6478C103.38 55.6478 101.795 54.3518 96.4574 57.0625C96.4574 57.0625 93.0147 59.3812 92.2014 62.7212L92.7707 63.3105Z" fill="#034EA1"/>
<path fill-rule="evenodd" clip-rule="evenodd" d="M54.9088 76.2566C55.2768 76.2499 55.6435 76.2139 55.9581 76.1326C57.2048 75.8179 60.3248 76.6406 61.1955 77.6539C62.0675 78.6672 66.5581 76.3872 69.1755 80.6939C69.1755 80.6939 70.6795 80.3939 72.5128 81.2446V81.2432C72.4808 81.2286 72.4475 81.2139 72.4141 81.1979L81.6635 67.2112H54.9088V76.2566Z" fill="#EC1C24"/>
<path fill-rule="evenodd" clip-rule="evenodd" d="M33.2292 66.2891C34.7159 66.9664 36.3132 68.0051 37.8772 69.1851V63.2664C36.1146 64.2864 34.4319 65.3437 33.2292 66.2891Z" fill="#EC1C24"/>
<path fill-rule="evenodd" clip-rule="evenodd" d="M37.8776 69.1849C39.0563 70.0729 40.2163 71.0423 41.2936 71.9969V61.3796C40.1936 61.9636 39.019 62.6063 37.8776 63.2676V69.1849Z" fill="#231F20"/>
<path fill-rule="evenodd" clip-rule="evenodd" d="M41.293 71.9949C41.7863 72.4322 42.2623 72.8656 42.7143 73.2896H42.9756V60.6069L41.293 61.3642V71.9949Z" fill="#D44C2D"/>
<path fill-rule="evenodd" clip-rule="evenodd" d="M45.4193 72.6198L45.0113 72.1664L44.6033 71.7158L45.0113 71.2624L45.4193 70.8131L45.8273 71.2624L46.234 71.7158L45.8273 72.1664L45.4193 72.6198ZM43.6833 74.2051C44.358 74.8544 44.9607 75.4531 45.4647 75.9664C46.7847 75.0731 47.6607 73.5491 47.6607 71.8224C47.6607 69.4064 45.9447 67.3838 43.6833 66.9358V74.2051Z" fill="#D44C2D"/>
<path fill-rule="evenodd" clip-rule="evenodd" d="M65.9128 71.7604L65.2728 70.0151L66.9368 68.5911L68.1822 69.9111L67.4555 71.7938L69.5688 71.3018L70.7648 72.5338L69.6902 73.8178L67.8528 73.2911L68.1648 75.0684L66.8075 76.3724L65.3742 75.2324L65.7462 73.0151L63.9382 73.6484L62.5342 72.2551L63.7502 70.9871L65.9128 71.7604Z" fill="#D44C2D"/>
<path fill-rule="evenodd" clip-rule="evenodd" d="M80.7044 92.9961C81.1484 92.9961 81.5084 93.3601 81.5084 93.8068C81.5084 94.2548 81.1484 94.6201 80.7044 94.6201C80.2631 94.6201 79.9017 94.2548 79.9017 93.8068C79.9017 93.3601 80.2631 92.9961 80.7044 92.9961Z" fill="#231F20"/>
<path fill-rule="evenodd" clip-rule="evenodd" d="M91.6328 99.9922C92.0408 100.172 92.2234 100.651 92.0488 101.06C91.8714 101.471 91.3941 101.659 90.9914 101.479C90.5861 101.299 90.3994 100.819 90.5754 100.41C90.7541 100 91.2274 99.8109 91.6328 99.9922Z" fill="#231F20"/>
<path fill-rule="evenodd" clip-rule="evenodd" d="M98.8516 110.297C99.1836 110.59 99.2209 111.104 98.9329 111.442C98.6449 111.781 98.1356 111.818 97.8009 111.526C97.4663 111.234 97.4316 110.718 97.7183 110.381C98.0076 110.042 98.5156 110.005 98.8516 110.297Z" fill="#231F20"/>
<path fill-rule="evenodd" clip-rule="evenodd" d="M101.872 123.068C102.063 123.473 101.895 123.958 101.495 124.152C101.096 124.345 100.615 124.174 100.426 123.77C100.235 123.366 100.403 122.88 100.804 122.688C101.202 122.493 101.682 122.665 101.872 123.068Z" fill="#231F20"/>
<path fill-rule="evenodd" clip-rule="evenodd" d="M85.0053 98.375C85.1999 98.7003 85.6213 98.8043 85.9439 98.6083C86.2639 98.411 86.3666 97.9843 86.1719 97.659C85.9773 97.3336 85.5546 97.2296 85.2346 97.427C84.9133 97.6243 84.8093 98.0496 85.0053 98.375Z" fill="#231F20"/>
<path fill-rule="evenodd" clip-rule="evenodd" d="M93.6615 106.195C93.7149 106.57 94.0615 106.835 94.4322 106.782C94.8042 106.729 95.0669 106.378 95.0149 106.001C94.9629 105.625 94.6149 105.359 94.2442 105.414C93.8695 105.467 93.6095 105.818 93.6615 106.195Z" fill="#231F20"/>
<path fill-rule="evenodd" clip-rule="evenodd" d="M99.2929 130.034C99.0436 130.374 99.1142 130.859 99.4502 131.115C99.7876 131.367 100.268 131.295 100.517 130.955C100.766 130.615 100.7 130.13 100.364 129.875C100.024 129.619 99.5449 129.691 99.2929 130.034Z" fill="#231F20"/>
<path fill-rule="evenodd" clip-rule="evenodd" d="M98.78 116.885C98.692 117.292 98.948 117.695 99.3507 117.784C99.7507 117.873 100.149 117.615 100.239 117.208C100.325 116.801 100.071 116.397 99.668 116.308C99.2667 116.219 98.8653 116.477 98.78 116.885Z" fill="#231F20"/>
<path fill-rule="evenodd" clip-rule="evenodd" d="M61.1315 99.2708L62.1102 100.625L63.2515 101.757L62.1102 102.893L61.1315 104.245L60.2342 102.919L59.0128 101.757L60.2075 100.568L61.1315 99.2708Z" fill="#CE482C"/>
<path fill-rule="evenodd" clip-rule="evenodd" d="M72.9545 99.2708L73.9331 100.625L75.0731 101.757L73.9331 102.893L72.9545 104.245L72.0558 102.919L70.8345 101.757L72.0305 100.568L72.9545 99.2708Z" fill="#CE482C"/>
<path fill-rule="evenodd" clip-rule="evenodd" d="M64.4774 104.168H69.5227V99.0601H64.4774V104.168Z" fill="#CE482C"/>
<path fill-rule="evenodd" clip-rule="evenodd" d="M59.6186 92.1186C59.3052 91.9319 58.8972 92.0439 58.7159 92.3639C58.5346 92.6826 58.6412 93.0946 58.9572 93.2799C59.2746 93.4639 59.6799 93.3546 59.8639 93.0346C60.0452 92.7132 59.9359 92.3039 59.6186 92.1186ZM61.9026 88.4172C61.3559 88.0986 60.6532 88.2892 60.3386 88.8412C60.0239 89.3946 60.2106 90.1066 60.7572 90.4252C61.3026 90.7452 62.0066 90.5546 62.3212 90.0026C62.6372 89.4479 62.4492 88.7372 61.9026 88.4172ZM64.8866 83.5212C65.8132 84.0626 66.1319 85.2652 65.5972 86.2026C65.0639 87.1412 63.8719 87.4626 62.9479 86.9226C62.0226 86.3799 61.7026 85.1772 62.2386 84.2399C62.7719 83.3026 63.9612 82.9799 64.8866 83.5212V83.5212ZM57.0839 96.1306L57.2692 96.0799L66.2626 87.7159C66.2626 87.7159 69.1572 84.9559 66.1946 82.4746C63.2279 79.9892 61.4146 82.5239 60.8092 84.4212C60.1999 86.3172 57.0839 96.1306 57.0839 96.1306V96.1306ZM62.6479 93.6332C62.8586 93.9452 62.7786 94.3719 62.4732 94.5866C62.1626 94.7999 61.7426 94.7172 61.5319 94.4066C61.3186 94.0946 61.4012 93.6666 61.7079 93.4532C62.0146 93.2426 62.4372 93.3212 62.6479 93.6332ZM66.6826 91.0679C67.0452 91.6039 66.9092 92.3439 66.3759 92.7132C65.8426 93.0812 65.1106 92.9412 64.7506 92.4026C64.3852 91.8652 64.5239 91.1239 65.0546 90.7559C65.5879 90.3879 66.3186 90.5266 66.6826 91.0679ZM71.8412 87.6666C72.4559 88.5786 72.2226 89.8306 71.3226 90.4532C70.4212 91.0772 69.1839 90.8412 68.5666 89.9279C67.9492 89.0159 68.1852 87.7626 69.0866 87.1412C69.9866 86.5172 71.2252 86.7532 71.8412 87.6666ZM58.5586 96.3279L58.7532 96.3652L70.5586 92.1466C70.5586 92.1466 74.3852 90.5359 73.0972 87.6039C71.8119 84.6692 68.4972 85.7346 67.1079 87.2106C65.7186 88.6852 58.5586 96.3279 58.5586 96.3279V96.3279ZM56.6572 91.8866C56.3226 91.8866 56.0479 92.1639 56.0479 92.5026C56.0479 92.8412 56.3226 93.1199 56.6572 93.1199C56.9932 93.1199 57.2666 92.8412 57.2666 92.5026C57.2666 92.1639 56.9932 91.8866 56.6572 91.8866ZM56.7959 87.8746C56.2146 87.8746 55.7426 88.3546 55.7426 88.9426C55.7426 89.5292 56.2146 90.0079 56.7959 90.0079C57.3732 90.0079 57.8492 89.5292 57.8492 88.9426C57.8492 88.3546 57.3732 87.8746 56.7959 87.8746ZM56.9492 82.5852C57.9292 82.5852 58.7319 83.3959 58.7319 84.3906C58.7319 85.3852 57.9292 86.1972 56.9492 86.1972C55.9639 86.1972 55.1626 85.3852 55.1626 84.3906C55.1626 83.3959 55.9639 82.5852 56.9492 82.5852V82.5852ZM56.4599 96.2626C56.4599 96.2626 54.4826 86.9946 54.1052 85.2012C53.7279 83.4066 54.0226 80.5439 57.5119 81.1426C61.0012 81.7399 59.9506 85.2852 59.9506 85.2852L56.5879 96.1359L56.4599 96.2626ZM53.3439 91.9692C53.4719 92.3052 53.5946 92.6306 53.7106 92.9426C54.7172 94.0759 55.4426 94.8946 55.4426 94.8946L55.4919 94.7186L53.0919 83.6119C53.0919 83.6119 52.2679 80.0039 48.9466 81.2372C48.8626 81.2679 48.7812 81.3012 48.7012 81.3346C48.9279 81.7599 49.1546 82.2066 49.3799 82.6666C50.1959 82.3346 51.1492 82.6546 51.5959 83.4452C52.0839 84.3092 51.7866 85.4172 50.9319 85.9092C50.9199 85.9186 50.9052 85.9252 50.8906 85.9346C51.1172 86.4506 51.3372 86.9706 51.5532 87.4866C51.5772 87.4719 51.5986 87.4586 51.6226 87.4426C52.1266 87.1506 52.7732 87.3306 53.0612 87.8399C53.3492 88.3506 53.1719 89.0052 52.6679 89.2946C52.5666 89.3559 52.4559 89.3959 52.3452 89.4172C52.6359 90.1386 52.9106 90.8386 53.1639 91.5012C53.1746 91.2972 53.2839 91.1026 53.4706 90.9946C53.7612 90.8252 54.1359 90.9292 54.3026 91.2239C54.4679 91.5199 54.3666 91.8986 54.0759 92.0652C53.8306 92.2052 53.5346 92.1586 53.3439 91.9692" fill="#EC1C24"/>
<path fill-rule="evenodd" clip-rule="evenodd" d="M74.0586 110.849C74.3759 111.032 74.7826 110.922 74.9639 110.601C75.1439 110.282 75.0372 109.872 74.7226 109.688C74.4066 109.502 73.9999 109.612 73.8146 109.932C73.6346 110.253 73.7439 110.664 74.0586 110.849ZM71.7759 114.548C72.3226 114.868 73.0279 114.677 73.3426 114.125C73.6559 113.57 73.4692 112.86 72.9226 112.542C72.3746 112.221 71.6719 112.412 71.3572 112.964C71.0412 113.518 71.2306 114.229 71.7759 114.548V114.548ZM68.7919 119.445C67.8666 118.904 67.5479 117.701 68.0826 116.764C68.6172 115.826 69.8066 115.504 70.7332 116.044C71.6559 116.585 71.9759 117.789 71.4426 118.726C70.9079 119.664 69.7186 119.985 68.7919 119.445V119.445ZM76.5972 106.836L76.4092 106.885L67.4159 115.25C67.4159 115.25 64.5226 118.01 67.4866 120.493C70.4506 122.977 72.2639 120.444 72.8719 118.546C73.4772 116.649 76.5972 106.836 76.5972 106.836V106.836ZM71.0292 109.333C70.8186 109.021 70.8999 108.594 71.2066 108.38C71.5146 108.169 71.9372 108.248 72.1466 108.56C72.3586 108.87 72.2786 109.3 71.9719 109.513C71.6626 109.724 71.2412 109.644 71.0292 109.333ZM66.9972 111.901C66.6346 111.362 66.7719 110.622 67.3026 110.253C67.8346 109.885 68.5666 110.026 68.9306 110.564C69.2946 111.101 69.1546 111.844 68.6226 112.21C68.0919 112.578 67.3612 112.437 66.9972 111.901V111.901ZM61.8386 115.3C61.2226 114.388 61.4572 113.136 62.3586 112.512C63.2599 111.888 64.4972 112.125 65.1106 113.04C65.7279 113.95 65.4959 115.204 64.5932 115.825C63.6932 116.448 62.4559 116.213 61.8386 115.3V115.3ZM75.1212 106.637L74.9252 106.601L63.1199 110.821C63.1199 110.821 59.2932 112.43 60.5826 115.362C61.8679 118.296 65.1826 117.232 66.5719 115.756C67.9599 114.28 75.1212 106.637 75.1212 106.637V106.637ZM77.0212 111.081C77.3572 111.081 77.6306 110.802 77.6306 110.464C77.6306 110.124 77.3572 109.846 77.0212 109.846C76.6852 109.846 76.4119 110.124 76.4119 110.464C76.4119 110.802 76.6852 111.081 77.0212 111.081ZM76.8839 115.092C77.4666 115.092 77.9386 114.612 77.9386 114.024C77.9386 113.437 77.4666 112.958 76.8839 112.958C76.3039 112.958 75.8292 113.437 75.8292 114.024C75.8292 114.612 76.3039 115.092 76.8839 115.092ZM76.7306 120.382C75.7506 120.382 74.9492 119.57 74.9492 118.576C74.9492 117.581 75.7506 116.768 76.7306 116.768C77.7146 116.768 78.5159 117.581 78.5159 118.576C78.5159 119.57 77.7146 120.382 76.7306 120.382ZM77.2186 106.704C77.2186 106.704 79.1972 115.972 79.5732 117.766C79.9519 119.56 79.6572 122.422 76.1652 121.822C72.6772 121.226 73.7279 117.681 73.7279 117.681L77.0919 106.83L77.2186 106.704ZM79.8532 110.821C79.6826 110.326 79.5172 109.833 79.3626 109.341C78.6812 108.576 78.2346 108.07 78.2346 108.07L78.1879 108.248L80.5866 119.357C80.5866 119.357 81.4106 122.961 84.7332 121.729C85.1599 121.57 85.5106 121.39 85.7999 121.192C85.5332 120.873 85.3519 120.68 85.3519 120.68C85.1492 120.472 84.9492 120.256 84.7532 120.029C84.6826 120.09 84.6012 120.144 84.5172 120.193C83.6626 120.686 82.5692 120.384 82.0826 119.521C81.6066 118.68 81.8772 117.606 82.6812 117.097C82.3986 116.614 82.1279 116.117 81.8679 115.608C81.4012 115.766 80.8706 115.576 80.6172 115.125C80.3372 114.628 80.4959 113.994 80.9719 113.693C80.7212 113.114 80.4839 112.526 80.2599 111.937C80.2452 111.95 80.2266 111.961 80.2092 111.972C79.9186 112.141 79.5439 112.037 79.3786 111.742C79.2119 111.446 79.3132 111.069 79.6052 110.901C79.6826 110.854 79.7679 110.828 79.8532 110.821" fill="#EC1C24"/>
<path fill-rule="evenodd" clip-rule="evenodd" d="M35.2474 181.299H84.606L76.8794 167.997C76.8794 167.997 56.0114 173.234 44.29 169.349L35.2474 181.299Z" fill="#034EA1"/>
<path fill-rule="evenodd" clip-rule="evenodd" d="M37.8634 181.299H82.8994L75.9647 170.109C75.9647 170.109 58.2567 174.331 44.5407 171.29L37.8634 181.299Z" fill="#EC1C24"/>
<path fill-rule="evenodd" clip-rule="evenodd" d="M77.7708 181.3H79.2601L74.7601 173.361C74.7601 173.361 74.0535 177.584 68.9401 174.332H68.6068L69.6628 181.3H70.8521L70.1028 176.781C72.7228 177.542 75.0508 175.853 75.0508 175.853L77.7708 181.3Z" fill="#034EA1"/>
<path fill-rule="evenodd" clip-rule="evenodd" d="M65.8476 181.3H66.9103L65.3956 174.492L64.577 174.737C64.577 174.737 62.213 178.709 57.245 175.292L56.001 175.262L54.757 181.3H55.9023L56.8503 176.953C61.5156 179.662 64.6983 176.122 64.6983 176.122L65.8476 181.3Z" fill="#034EA1"/>
<path fill-rule="evenodd" clip-rule="evenodd" d="M50.9584 181.3H52.2584L52.9651 175.098L52.3371 174.878C52.3371 174.878 50.2931 177.786 47.7304 175.57C47.7304 175.57 47.1291 174.904 46.6944 174.185L45.9304 174.128L41.8091 181.3H43.5357L45.9304 176.042C45.9304 176.042 48.8744 178.534 51.6304 176.844L50.9584 181.3Z" fill="#034EA1"/>
<path fill-rule="evenodd" clip-rule="evenodd" d="M71.9883 174.461C71.5136 174.461 71.1296 174.07 71.1296 173.592C71.1296 173.112 71.5136 172.722 71.9883 172.722C72.4603 172.722 72.8456 173.112 72.8456 173.592C72.8456 174.07 72.4603 174.461 71.9883 174.461ZM60.7603 175.42C60.2883 175.42 59.9043 175.029 59.9043 174.549C59.9043 174.072 60.2883 173.682 60.7603 173.682C61.2349 173.682 61.6189 174.072 61.6189 174.549C61.6189 175.029 61.2349 175.42 60.7603 175.42ZM49.4936 175.156C49.0189 175.156 48.6336 174.766 48.6336 174.285C48.6336 173.808 49.0189 173.418 49.4936 173.418C49.9656 173.418 50.3509 173.808 50.3509 174.285C50.3509 174.766 49.9656 175.156 49.4936 175.156Z" fill="#034EA1"/>
<path fill-rule="evenodd" clip-rule="evenodd" d="M98.6289 21.9298H49.2703L56.9956 35.2324C56.9956 35.2324 77.8649 29.9964 89.5849 33.8804L98.6289 21.9298Z" fill="#034EA1"/>
<path fill-rule="evenodd" clip-rule="evenodd" d="M96.0117 21.9298H50.9784L57.9131 33.1205C57.9131 33.1205 75.6184 28.8992 89.3357 31.9378L96.0117 21.9298Z" fill="#EC1C24"/>
<path fill-rule="evenodd" clip-rule="evenodd" d="M56.1055 21.9297H54.6161L59.1188 29.8684C59.1188 29.8684 59.8215 25.6457 64.9362 28.8991H65.2682L64.2122 21.9297H63.0242L63.7722 26.4484C61.1522 25.6871 58.8268 27.3777 58.8268 27.3777L56.1055 21.9297Z" fill="#034EA1"/>
<path fill-rule="evenodd" clip-rule="evenodd" d="M68.0287 21.9298H66.9647L68.4807 28.7365L69.2994 28.4925C69.2994 28.4925 71.6634 24.5205 76.6314 27.9378L77.8741 27.9684L79.1207 21.9298H77.9727L77.0274 26.2765C72.3581 23.5671 69.1781 27.1071 69.1781 27.1071L68.0287 21.9298Z" fill="#034EA1"/>
<path fill-rule="evenodd" clip-rule="evenodd" d="M82.918 21.9298H81.618L80.91 28.1311L81.5394 28.3511C81.5394 28.3511 83.5834 25.4431 86.1474 27.6591C86.1474 27.6591 86.7487 28.3258 87.1834 29.0445L87.946 29.1005L92.066 21.9298H90.338L87.946 27.1898C87.946 27.1898 85.002 24.6951 82.2474 26.3858L82.918 21.9298Z" fill="#034EA1"/>
<path fill-rule="evenodd" clip-rule="evenodd" d="M61.8894 28.7683C62.3614 28.7683 62.7467 29.159 62.7467 29.6363C62.7467 30.1176 62.3614 30.5083 61.8894 30.5083C61.4147 30.5083 61.0281 30.1176 61.0281 29.6363C61.0281 29.159 61.4147 28.7683 61.8894 28.7683ZM73.1161 27.8096C73.5881 27.8096 73.9734 28.2003 73.9734 28.6803C73.9734 29.1563 73.5881 29.5496 73.1161 29.5496C72.6427 29.5496 72.2561 29.1563 72.2561 28.6803C72.2561 28.2003 72.6427 27.8096 73.1161 27.8096ZM84.3827 28.0736C84.8561 28.0736 85.2427 28.463 85.2427 28.943C85.2427 29.4216 84.8561 29.8123 84.3827 29.8123C83.9107 29.8123 83.5241 29.4216 83.5241 28.943C83.5241 28.463 83.9107 28.0736 84.3827 28.0736Z" fill="#034EA1"/>
<path d="M132.974 195.555C132.974 199.399 129.859 202.513 126.014 202.513" stroke="#EB008B" stroke-width="0.333333" stroke-miterlimit="2.613"/>
<path d="M126.014 202.513H7.71692" stroke="#EB008B" stroke-width="0.333333" stroke-miterlimit="2.613"/>
<path d="M0.760437 195.555V7.67468" stroke="#EB008B" stroke-width="0.333333" stroke-miterlimit="2.613"/>
<path d="M0.760437 7.67456C0.760437 3.83056 3.8751 0.715894 7.71777 0.715894" stroke="#EB008B" stroke-width="0.333333" stroke-miterlimit="2.613"/>
<path d="M7.71753 0.716187H126.015" stroke="#EB008B" stroke-width="0.333333" stroke-miterlimit="2.613"/>
<path d="M132.974 7.67455V195.555" stroke="#EB008B" stroke-width="0.333333" stroke-miterlimit="2.613"/>
<path d="M13.6432 9.99216V12.6068H16.9579V27.4322C16.9579 27.8882 16.8592 28.5882 16.4872 29.1468C16.1886 29.5962 15.7112 29.9535 14.9699 30.0228C14.2179 30.0922 12.3419 30.3242 11.8192 28.3188C11.6552 27.6855 11.6912 26.1922 11.6912 26.1922L8.93392 26.1948C8.93392 26.1948 8.92458 28.3642 9.11125 29.1402C9.43792 30.5028 10.9899 32.7468 14.5286 32.7468C15.7752 32.7468 19.1059 32.2002 19.5446 28.4042C19.7339 26.7868 19.6592 12.6068 19.6592 12.6068H22.4792V9.99216H13.6432Z" fill="#231F20"/>
<path d="M121.592 193.234V190.62H118.279V175.796C118.279 175.338 118.376 174.638 118.748 174.081C119.046 173.633 119.523 173.27 120.267 173.204C121.018 173.133 122.892 172.901 123.415 174.909C123.579 175.54 123.546 177.034 123.546 177.034H126.302C126.302 177.034 126.31 174.864 126.124 174.085C125.798 172.722 124.246 170.48 120.707 170.48C119.459 170.48 116.13 171.026 115.691 174.822C115.502 176.44 115.576 190.62 115.576 190.62H112.756V193.234H121.592Z" fill="#231F20"/>
<path d="M24.2227 181.214V22.0163H109.652V181.214H24.2227ZM23.5454 182.563H111.009V20.6656H22.8667V182.563H23.5454Z" fill="#034EA1"/>
<path d="M126.014 0.714805C129.86 0.714805 132.974 3.83081 132.974 7.6748" stroke="#EB008B" stroke-width="0.333333" stroke-miterlimit="2.613"/>
<path d="M7.71746 202.514C3.8748 202.514 0.760132 199.401 0.760132 195.556" stroke="#EB008B" stroke-width="0.333333" stroke-miterlimit="2.613"/>
</svg>
