<svg width="134" height="203" viewBox="0 0 134 203" fill="none" xmlns="http://www.w3.org/2000/svg">
<path fill-rule="evenodd" clip-rule="evenodd" d="M95.5937 88.6745L98.467 79.8492L100.459 79.5572L99.903 88.2612L95.2404 88.7319L95.5937 88.6745Z" fill="#EC1C24"/>
<path fill-rule="evenodd" clip-rule="evenodd" d="M98.2579 68.116L99.8099 66.808L99.7566 81.2867C97.9579 82.9453 96.8152 84.3733 96.1526 88.3053L93.1552 89.8253L86.7366 87.196C88.6686 79.36 93.1019 73.2867 98.2579 68.116Z" fill="#CE482C"/>
<path d="M99.8073 81.3268C99.8073 81.3268 97.0726 83.6401 96.21 88.0535" stroke="#00A551" stroke-width="0.869333" stroke-miterlimit="2.613" stroke-linecap="round" stroke-linejoin="round"/>
<path fill-rule="evenodd" clip-rule="evenodd" d="M39.0287 115.044L36.1567 123.867L34.1633 124.162L34.982 115.454L39.3793 114.984L39.0287 115.044Z" fill="#EB008B"/>
<path fill-rule="evenodd" clip-rule="evenodd" d="M36.3645 135.602L34.8125 136.908L34.8645 122.43C36.6645 120.771 37.8072 119.344 38.4685 115.411L41.4672 113.891L47.8872 116.52C45.9538 124.356 41.5218 130.431 36.3645 135.602Z" fill="#CE482C"/>
<path d="M34.7539 122.43C34.7539 122.43 37.4886 120.118 38.3512 115.703" stroke="#00A551" stroke-width="0.869333" stroke-miterlimit="2.613" stroke-linecap="round" stroke-linejoin="round"/>
<path fill-rule="evenodd" clip-rule="evenodd" d="M89.5 181.543L77.88 162.315C67.3627 164.234 55.6814 166.359 43.3654 163.506L32.3521 181.542L89.5 181.543Z" fill="#CE482C"/>
<path d="M89.5273 86.6849C89.5273 86.6849 93.706 75.5489 99.762 70.4769" stroke="#00A551" stroke-width="0.869333" stroke-miterlimit="2.613" stroke-linecap="round" stroke-linejoin="round"/>
<path d="M93.9166 89.2656C93.9166 89.2656 97.3086 80.7216 99.9126 78.411" stroke="#00A551" stroke-width="0.869333" stroke-miterlimit="2.613" stroke-linecap="round" stroke-linejoin="round"/>
<path d="M94.3163 88.1954C94.3163 88.1954 93.119 85.5274 95.6897 84.9474" stroke="#00A551" stroke-width="0.869333" stroke-miterlimit="2.613" stroke-linecap="round" stroke-linejoin="round"/>
<path d="M91.7969 87.9167C91.7969 87.9167 93.0142 83.1594 96.5795 83.4221" stroke="#00A551" stroke-width="0.869333" stroke-miterlimit="2.613" stroke-linecap="round" stroke-linejoin="round"/>
<path fill-rule="evenodd" clip-rule="evenodd" d="M71.5872 69.6094L73.4926 67.3667L74.2246 70.676L77.5219 72.1454L80.3779 71.632L85.3606 69.94L87.0472 70.8227L78.4752 89.7934L77.0446 94.6094L69.7539 94.1307L71.5126 83.1747L74.2246 76.4107L75.4699 73.396L71.5872 69.6094Z" fill="#CE482C"/>
<path fill-rule="evenodd" clip-rule="evenodd" d="M54.8711 64.8412C54.8711 64.8412 57.4658 64.7372 58.6058 63.3825C59.0511 62.6852 59.7044 63.1505 59.9364 62.8052C59.9364 62.8052 59.9551 64.4238 60.9924 64.9438C62.0298 65.4665 64.8298 65.7785 65.6604 65.2572C65.5391 69.1412 69.9244 69.8438 72.4444 68.6932C72.5791 70.7478 73.7898 71.9798 76.3178 72.8385C72.8964 79.1558 71.5924 86.2238 71.0511 93.5625L76.8844 93.3545C78.2551 85.4225 81.2391 77.2558 86.1711 70.5132C87.9871 70.5572 90.0044 70.2585 90.2964 66.9172C90.3484 66.5278 89.4298 66.3492 89.9791 66.2838C94.9004 65.7052 93.3098 63.0398 93.2538 61.7625L98.9471 65.0345L99.0298 67.6985C94.7751 71.9185 90.8111 77.8132 87.6004 85.5985L94.4058 89.1838C93.1551 92.2345 95.0471 94.2892 97.5098 92.8105C97.5098 96.7732 97.4071 99.6372 99.0471 102.165C100.364 104.128 102.891 104.481 106.223 102.956C108.095 103.328 108.91 103.039 108.404 101.028C109.315 100.065 108.931 98.6092 108.743 98.0212C109.678 95.3652 108.486 96.8958 108.906 94.0625C108.718 93.1572 107.491 92.8305 107.455 92.4412C107.42 92.0465 107.383 91.2865 107.011 91.1105L98.8324 90.9372L98.8458 90.1932L110.672 90.9092V117.221C109.91 119.203 104.604 114.232 100.392 107.739C98.6324 105.024 97.6391 101.259 97.0124 98.7092L86.0324 93.1118C83.0218 99.4785 82.3018 119.236 96.6924 136.888L89.0804 140.599C82.3431 131.164 78.4684 122 77.2431 111.497L76.7951 106.275L56.4018 106.281L56.2831 93.4838L62.8578 93.4972C62.3258 82.6412 59.2311 73.0292 54.8711 64.8412Z" fill="#231F20"/>
<path fill-rule="evenodd" clip-rule="evenodd" d="M104.898 91.6172L106.398 91.7572C106.398 91.7572 106.964 91.9399 106.897 92.2212C106.829 92.5052 106.498 92.7199 106.35 92.5545C106.204 92.3879 105.113 91.9999 104.898 91.6172ZM103.164 98.3092C103.164 98.3092 103.03 97.8385 103.398 97.4345C103.766 97.0332 103.932 96.9999 104.336 97.0665C104.736 97.1345 105.34 97.9065 105.104 98.3425C104.87 98.7785 103.968 98.9145 103.565 98.7105C103.164 98.5105 103.197 98.4425 103.164 98.3092ZM103.988 99.8892C103.988 99.8892 103.366 99.2892 104.136 99.1879C104.905 99.0879 105.293 99.2905 105.293 99.2905L105.225 100.271C105.225 100.271 104.422 100.708 104.257 100.407C104.088 100.104 104.056 99.9572 103.988 99.8892V99.8892ZM106.978 102.439C107.074 102.391 106.549 101.36 107.326 101.339C108.102 101.32 108.416 101.519 108.296 101.565C108.174 101.615 108.061 101.868 108.128 102.071C108.194 102.271 108.326 102.539 108.093 102.573C107.86 102.607 106.765 102.547 106.978 102.439ZM105.538 101.599C105.538 101.599 105.405 101.565 105.272 101.399C105.138 101.231 105.34 101.029 106.076 101.231C106.812 101.432 106.578 101.599 106.31 101.935C106.041 102.271 105.537 102.607 105.573 102.137C105.606 101.667 105.538 101.599 105.538 101.599ZM105.668 100.513C106.1 100.388 105.302 99.3599 105.976 99.1479C106.648 98.9372 107.525 98.8332 107.725 98.6639C107.926 98.4972 108.168 98.3932 108.296 98.2959C108.421 98.1985 108.153 98.5679 108.228 98.8999C108.301 99.2319 108.426 99.4372 108.561 99.7052C108.696 99.9745 108.641 100.527 108.361 100.841C108.081 101.156 108.016 100.808 107.113 100.86C106.208 100.86 105.149 100.661 105.668 100.513V100.513ZM105.473 97.5359C105.473 97.5359 105.306 96.9999 105.841 96.4945C106.374 95.9919 108.117 95.6559 108.117 95.6559C108.117 95.6559 108.149 96.3279 108.384 96.4265C108.617 96.5292 108.752 96.1945 108.652 96.8652C108.55 97.5359 108.818 97.7052 108.417 97.8719C108.016 98.0399 105.976 99.2505 105.841 98.6772C105.706 98.1065 105.473 97.9399 105.473 97.5359V97.5359ZM104.098 94.1452C104.098 94.1452 106.142 93.6079 106.609 93.4399C107.078 93.2732 107.078 93.0039 107.078 93.0039C107.078 93.0039 106.945 92.7345 107.648 93.3079C108.35 93.8772 108.45 93.4065 108.55 94.0785C108.652 94.7505 108.717 95.0185 108.149 95.1865C107.58 95.3545 105.909 95.7905 105.909 95.7905C105.909 95.7905 106.076 95.1865 105.205 94.7839C104.336 94.3799 104.201 94.2132 104.098 94.1452ZM103.866 94.7505C103.866 94.7505 104.134 94.7839 104.736 94.9519C105.34 95.1199 105.706 95.8585 105.538 96.1932C105.372 96.5292 104.234 96.4265 103.901 96.2279C103.565 96.0265 103.766 95.9585 103.598 95.6225C103.43 95.2879 103.866 94.7505 103.866 94.7505V94.7505ZM97.9437 95.4879C97.9437 95.4879 97.709 93.4745 98.313 92.7679C98.9143 92.0639 99.417 91.4932 101.658 91.4932C103.901 91.4932 104.134 91.5599 104.134 91.5599C104.134 91.5599 105.104 92.4999 105.638 92.6692C106.174 92.8359 106.31 92.9039 106.31 92.9039C106.31 92.9039 104.436 93.5759 104.098 93.3719C103.766 93.1719 103.633 94.2465 102.896 94.2785C102.16 94.3119 101.49 94.5479 101.49 94.5479C101.49 94.5479 101.76 94.6559 102.16 95.2265C102.561 95.7985 102.461 96.4625 102.293 97.3692C102.126 98.2759 102.529 98.8799 102.794 99.0132C103.062 99.1479 103.265 99.3159 102.998 100.256C102.729 101.197 102.66 101.432 102.66 101.432C102.66 101.432 103.13 101.633 103.365 101.297C103.598 100.961 103.43 100.693 103.932 100.795C104.436 100.895 105.138 101.733 105.238 102.103C105.34 102.473 105.841 102.539 105.072 102.875C104.302 103.211 101.056 104.555 99.617 102.203C98.1783 99.8545 97.9437 95.7572 97.9437 95.4879V95.4879ZM97.5037 92.7799C97.509 96.7732 97.4077 99.6372 99.0463 102.165C100.365 104.128 102.89 104.481 106.222 102.956C108.094 103.328 108.91 103.039 108.405 101.028C109.316 100.065 108.93 98.6092 108.744 98.0212C109.678 95.3652 108.485 96.8959 108.906 94.0625C108.717 93.1572 107.49 92.8305 107.454 92.4412C107.421 92.0465 107.382 91.2865 107.012 91.1105L98.8317 90.9372L97.5037 92.7799Z" fill="#034EA1"/>
<path fill-rule="evenodd" clip-rule="evenodd" d="M92.8918 66.547C92.7652 65.7163 94.0998 63.963 94.8678 65.9377C94.9478 67.911 94.2518 67.7377 92.7452 68.907C92.5038 68.6803 86.8985 71.4243 85.3025 73.651C84.8132 74.3337 84.7012 74.9657 85.2305 75.4537C86.7825 75.515 85.9878 74.6177 86.3665 73.8563C86.7492 72.9683 88.6398 72.5883 89.0172 72.791C89.7718 73.3203 89.1572 74.439 87.8972 75.7123C86.6838 76.7017 81.4372 81.9257 81.2852 82.763C81.1345 83.6017 81.1345 84.743 81.7412 84.591C82.3478 84.4377 82.3478 84.363 82.2718 83.6777C82.1958 82.9923 82.1958 82.687 82.8038 82.2323C83.4105 81.7737 85.0798 81.4683 84.9252 82.6123C85.1305 83.6857 80.4612 88.859 78.3638 92.1323C77.9412 92.443 78.1252 94.7297 79.2158 94.271C80.1158 93.779 78.9172 93.4643 78.9492 93.1257C78.9492 93.1257 79.3945 92.167 80.3025 91.827C80.8932 91.8043 82.2998 91.415 81.9332 93.235C81.8105 93.8417 81.4292 94.595 80.8385 95.8203C79.4665 98.6977 78.2105 100.898 77.6305 102.094C77.1998 102.979 77.0265 103.844 77.6972 104.968C78.0825 105.615 78.7545 105.255 78.7638 104.66C78.8918 104.172 78.0172 103.295 78.6558 102.468C79.5305 101.702 80.4972 101.118 81.2612 102.322C82.0252 103.526 80.9825 104.676 80.0012 106.648C79.0198 108.62 77.7825 113.096 78.4372 113.643C78.8345 115.276 80.2598 115.232 79.9678 113.862C79.1918 113.238 78.9998 112.571 80.0278 111.938C80.8998 111.719 81.7985 112.328 81.4732 113.752C81.1412 115.178 80.8398 119.559 81.0572 121.311C81.2772 123.066 82.1745 124.123 82.1745 124.123C82.6812 124.631 83.4585 124.243 82.9372 123.026C82.1745 123.023 81.2158 121.35 82.4172 120.691C83.2545 120.399 84.1892 120.35 84.6598 121.64C85.6212 123.17 85.0612 127.852 85.0118 129.602C85.5825 131.456 85.9678 133.006 87.2358 132.238C88.2558 131.479 86.5572 131.124 86.3265 130.416C86.4278 129.711 86.5558 129.251 86.9332 129.008C87.9532 128.864 89.5865 129.73 89.1398 132.991C89.4878 137.742 90.2998 138.3 90.7932 139.839L92.3038 139.299C92.3038 139.299 91.2092 138.295 91.3078 137.487C91.4105 136.927 91.2678 136.168 92.6625 136.427C93.2705 136.687 93.9692 138.354 93.9692 138.354L95.1825 137.495C95.1825 137.495 94.5265 135.523 93.2118 134.966C91.4012 134.26 91.0532 135.263 90.5598 135.363C90.5598 135.363 90.3598 133.19 90.2518 130.118C89.0545 125.511 86.2292 126.891 86.2292 126.891C86.2292 126.891 86.9745 121.628 86.0892 119.85C85.2345 118.07 82.7372 118.171 82.3825 119.02C82.5158 116.566 83.4785 114.111 83.6158 111.656C83.5852 110.175 82.4478 109.463 80.2038 109.519C80.9638 107.003 82.2865 105.479 83.0732 103.94C84.0998 101.923 83.0878 99.3363 80.6105 99.1617C81.8572 97.5603 82.7438 96.2417 83.3625 95.135C84.6905 92.7563 85.7265 89.8497 81.8158 89.2843C83.8518 87.383 85.9278 85.1243 87.5612 83.019C88.7278 80.4657 87.6852 79.7137 85.6398 79.7817C85.5372 79.211 88.1412 77.1617 89.3278 76.3857C92.8398 74.0883 92.4292 72.523 91.5038 71.2323C94.2532 69.971 96.0945 68.6857 96.8425 67.8643C98.1972 66.3777 97.6838 64.6457 96.1598 63.9017C94.9692 63.3217 94.3092 63.363 93.3758 64.143C91.8158 65.4483 91.1652 66.771 91.8758 67.2497C92.3358 67.6243 92.9372 67.155 92.8918 66.547Z" fill="#D44C2D"/>
<path fill-rule="evenodd" clip-rule="evenodd" d="M45.1238 22.1746L56.7424 41.4012C67.2598 39.4839 78.9411 37.3572 91.2584 40.2106L102.272 22.1746H45.1238Z" fill="#CE482C"/>
<path fill-rule="evenodd" clip-rule="evenodd" d="M55.6445 40.0457L54.0725 36.7657L60.9712 35.187L61.9405 36.2803L63.0272 34.9443L72.2285 33.971L73.1978 35.187L74.5298 33.971L83.4845 34.459L84.2138 35.4297L85.9072 34.579L93.5325 36.159L91.9592 38.9537C92.2085 37.4537 62.2725 35.6177 55.6445 40.0457Z" fill="#231F20"/>
<path fill-rule="evenodd" clip-rule="evenodd" d="M55.0391 38.138L56.5084 40.8673C64.1657 39.3313 77.8017 37.2366 91.3084 39.826L92.1351 37.214C87.9777 36.326 81.4511 35.206 75.0217 35.4806C68.7084 35.75 60.0817 36.7286 55.0391 38.138Z" fill="#EC1C24"/>
<path fill-rule="evenodd" clip-rule="evenodd" d="M79.1407 30.7265L78.1033 32.2705L80.058 32.2892L79.1407 30.7265ZM79.206 28.6279L81.9127 33.2319L76.1473 33.1772L79.206 28.6279Z" fill="#231F20"/>
<path fill-rule="evenodd" clip-rule="evenodd" d="M91.4466 32.0014L90.0613 33.2387L91.952 33.7414L91.4466 32.0014ZM92.0306 29.9841L93.5146 35.1147L87.9426 33.6334L92.0306 29.9841Z" fill="#231F20"/>
<path fill-rule="evenodd" clip-rule="evenodd" d="M66.961 30.7618L66.061 32.3884L68.0116 32.2391L66.961 30.7618ZM66.845 28.6658L69.941 33.0191L64.1917 33.4604L66.845 28.6658Z" fill="#231F20"/>
<path fill-rule="evenodd" clip-rule="evenodd" d="M54.5508 33.0951L53.9388 34.8484L55.8348 34.3724L54.5508 33.0951ZM54.0814 31.0471L57.8681 34.8138L53.2988 36.0938L52.6708 34.8311L54.0814 31.0471Z" fill="#231F20"/>
<path fill-rule="evenodd" clip-rule="evenodd" d="M79.4194 25.3464C78.778 25.3464 78.2527 25.8398 78.2527 26.4451C78.2527 27.0491 78.778 27.5424 79.4194 27.5424C80.0594 27.5424 80.5847 27.0491 80.5847 26.4451C80.5847 25.8398 80.0594 25.3464 79.4194 25.3464Z" fill="#231F20"/>
<path fill-rule="evenodd" clip-rule="evenodd" d="M93.0508 26.8568C92.4295 26.7008 91.8001 27.0475 91.6495 27.6328C91.5001 28.2182 91.8855 28.8262 92.5081 28.9848C93.1295 29.1435 93.7561 28.7955 93.9055 28.2115C94.0575 27.6235 93.6708 27.0168 93.0508 26.8568Z" fill="#231F20"/>
<path fill-rule="evenodd" clip-rule="evenodd" d="M66.7773 25.379C66.1373 25.435 65.6573 25.971 65.7093 26.5737C65.764 27.175 66.3266 27.6217 66.9653 27.5657C67.604 27.511 68.0826 26.9737 68.0306 26.3724C67.9786 25.7684 67.4146 25.323 66.7773 25.379Z" fill="#231F20"/>
<path fill-rule="evenodd" clip-rule="evenodd" d="M53.4571 27.8203C52.8371 27.9816 52.4558 28.5909 52.6091 29.1776C52.7624 29.7603 53.3931 30.1069 54.0144 29.9429C54.6344 29.7816 55.0144 29.1696 54.8624 28.5856C54.7091 28.0003 54.0798 27.6563 53.4571 27.8203Z" fill="#231F20"/>
<path fill-rule="evenodd" clip-rule="evenodd" d="M85.4478 28.5443C84.9025 28.5456 84.4545 28.9656 84.4572 29.4816C84.4572 29.9976 84.9052 30.4163 85.4505 30.4163C85.9972 30.4149 86.4425 29.9949 86.4425 29.4789C86.4425 28.9629 85.9945 28.5443 85.4478 28.5443Z" fill="#231F20"/>
<path fill-rule="evenodd" clip-rule="evenodd" d="M73.0989 27.7943C72.5562 27.865 72.1669 28.341 72.2375 28.8516C72.3029 29.3623 72.7975 29.721 73.3429 29.6516C73.8855 29.5783 74.2735 29.1036 74.2055 28.593C74.1375 28.081 73.6389 27.721 73.0989 27.7943Z" fill="#231F20"/>
<path fill-rule="evenodd" clip-rule="evenodd" d="M60.0964 29.1303C59.5737 29.2943 59.2724 29.8263 59.4257 30.3196C59.5777 30.813 60.1284 31.081 60.6524 30.9196C61.1751 30.7583 61.4764 30.2236 61.3231 29.7316C61.1711 29.2396 60.6204 28.969 60.0964 29.1303Z" fill="#231F20"/>
<path fill-rule="evenodd" clip-rule="evenodd" d="M81.9987 30.0092C84.488 32.3145 88.3693 31.6585 88.476 31.2892C87.1907 32.7105 85.9907 33.4732 84.596 33.2732C83.1827 33.0745 82.2853 31.4718 81.9987 30.0092Z" fill="#231F20"/>
<path fill-rule="evenodd" clip-rule="evenodd" d="M69.8645 29.6902C72.6312 31.6555 76.3965 30.5049 76.4538 30.1275C75.3618 31.7009 74.2725 32.6089 72.8632 32.5942C71.4365 32.5769 70.3378 31.1049 69.8645 29.6902Z" fill="#231F20"/>
<path fill-rule="evenodd" clip-rule="evenodd" d="M57.2317 31.5469C60.2904 33.0163 63.8064 31.2443 63.801 30.8616C62.9877 32.5989 62.0677 33.6803 60.6784 33.9029C59.2677 34.1283 57.937 32.8603 57.2317 31.5469Z" fill="#231F20"/>
<path d="M102.272 21.6875L90.9148 40.2115C78.6001 37.3568 67.0508 39.3408 56.5335 41.2595L45.1241 21.6875" stroke="#034EA1" stroke-width="1.512" stroke-miterlimit="2.613"/>
<path fill-rule="evenodd" clip-rule="evenodd" d="M36.3867 51.0938C36.248 52.9005 35.8333 56.7992 34.4493 58.4698H39.8893C39.8893 58.4698 37.2507 52.7632 38.3573 50.1192C39.012 48.7912 39.2387 49.7392 39.5067 51.0658C40.2507 55.5992 47.0693 55.4218 48.2467 51.3938C49.4253 47.3672 47.2507 43.7192 43.4293 38.9992C39.6107 34.2778 37.8253 30.4579 37.0413 28.1245C36.244 32.4045 30.1013 39.9605 27.448 44.0672C24.7973 48.1725 25.792 52.8232 28.8187 54.0978C31.8467 55.3725 34.9547 52.9485 35.2733 50.5058C35.528 48.5418 36.4533 50.2338 36.3867 51.0938Z" fill="#231F20"/>
<path fill-rule="evenodd" clip-rule="evenodd" d="M97.0221 153.435C97.1608 151.628 97.5754 147.731 98.9594 146.058H93.5181C93.5181 146.058 96.1608 151.766 95.0501 154.411C94.3981 155.74 94.1728 154.79 93.8994 153.463C93.1581 148.93 86.3394 149.107 85.1621 153.135C83.9834 157.163 86.1568 160.81 89.9781 165.531C93.7981 170.251 95.5821 174.071 96.3688 176.402C97.1648 172.124 103.309 164.568 105.959 160.462C108.61 156.356 107.617 151.706 104.59 150.431C101.561 149.158 98.4554 151.58 98.1354 154.026C97.8808 155.987 96.9568 154.295 97.0221 153.435Z" fill="#231F20"/>
<path d="M49.6367 59.6954C49.6367 59.6954 53.1327 54.2421 54.2901 50.8888C55.4447 47.5341 57.1101 41.0594 56.8327 41.2008" stroke="#034EA1" stroke-width="0.869333" stroke-miterlimit="2.613" stroke-linecap="round" stroke-linejoin="round"/>
<path d="M56.4323 62.9949C56.4323 62.9949 57.9603 64.4429 59.8149 61.9415C61.6669 59.4415 66.4776 41.2322 66.1123 39.9402" stroke="#034EA1" stroke-width="0.869333" stroke-miterlimit="2.613" stroke-linecap="round" stroke-linejoin="round"/>
<path d="M59.8151 61.8255C59.9537 62.0308 62.1337 62.3642 63.7804 56.9082C65.4257 51.4535 68.0657 39.5522 67.7177 39.4655" stroke="#034EA1" stroke-width="0.869333" stroke-miterlimit="2.613" stroke-linecap="round" stroke-linejoin="round"/>
<path d="M61.6797 60.8881C61.6104 61.4561 63.9237 61.2654 65.9957 54.6854C68.0704 48.1041 69.3771 39.3547 69.3771 39.3547" stroke="#034EA1" stroke-width="0.869333" stroke-miterlimit="2.613" stroke-linecap="round" stroke-linejoin="round"/>
<path d="M66.9036 55.4089L64.7836 60.4502" stroke="#034EA1" stroke-width="0.869333" stroke-miterlimit="2.613" stroke-linecap="round" stroke-linejoin="round"/>
<path d="M63.0273 60.8151C63.0273 60.8151 63.6353 63.6084 65.51 61.0577C67.3873 58.5057 67.69 56.9271 67.69 56.9271" stroke="#034EA1" stroke-width="0.869333" stroke-miterlimit="2.613" stroke-linecap="round" stroke-linejoin="round"/>
<path d="M61.6967 61.1185C61.6967 61.1185 63.3327 64.6412 65.51 62.7572C67.69 60.8745 68.4153 57.9012 68.4153 57.9012" stroke="#034EA1" stroke-width="0.869333" stroke-miterlimit="2.613" stroke-linecap="round" stroke-linejoin="round"/>
<path d="M60.7904 61.5443C62.0184 66.2323 66.8184 64.5443 67.7504 62.575C68.6997 60.5723 69.4437 58.9923 69.2624 58.9923" stroke="#034EA1" stroke-width="0.869333" stroke-miterlimit="2.613" stroke-linecap="round" stroke-linejoin="round"/>
<path d="M66.7799 63.9727C66.7799 63.9727 66.4186 66.8887 68.2946 67.6767C70.1706 68.466 71.7439 68.6487 72.8346 67.7993C73.9226 66.9473 75.4986 63.9727 75.4986 63.9727" stroke="#034EA1" stroke-width="0.869333" stroke-miterlimit="2.613" stroke-linecap="round" stroke-linejoin="round"/>
<path d="M71.0194 60.875C71.0194 60.875 70.0314 62.5456 69.9287 63.3643C69.8247 64.1843 70.2047 66.6336 71.6234 65.187C73.0461 63.739 73.0754 62.455 73.0754 62.455" stroke="#034EA1" stroke-width="0.869333" stroke-miterlimit="2.613" stroke-linecap="round" stroke-linejoin="round"/>
<path d="M70.0507 59.9636C70.0507 59.9636 68.5374 63.3649 68.4147 64.4583C68.2947 65.5516 69.0227 67.0703 70.2321 67.0703C71.4414 67.0703 72.2907 67.1303 73.0161 65.9169C73.7427 64.7009 74.1667 63.3649 74.1667 63.3649" stroke="#034EA1" stroke-width="0.869333" stroke-miterlimit="2.613" stroke-linecap="round" stroke-linejoin="round"/>
<path d="M76.224 64.5183C75.4 66.2769 74.5666 70.6009 77.7373 70.3489C79.4986 70.2116 81.0426 68.1476 81.308 66.4636" stroke="#034EA1" stroke-width="0.869333" stroke-miterlimit="2.613" stroke-linecap="round" stroke-linejoin="round"/>
<path d="M77.5546 65.2474C77.5546 65.2474 75.9973 66.9847 76.8306 68.1634C77.6599 69.3407 79.3186 67.9767 79.7639 65.9741" stroke="#034EA1" stroke-width="0.869333" stroke-miterlimit="2.613" stroke-linecap="round" stroke-linejoin="round"/>
<path d="M90.9322 40.5899C90.8442 45.8072 90.7976 51.8099 90.2722 58.1246C88.2349 63.8459 85.7469 65.7952 83.0522 66.0286" stroke="#034EA1" stroke-width="0.869333" stroke-miterlimit="2.613" stroke-linecap="round" stroke-linejoin="round"/>
<path d="M85.6783 65.2865C85.6783 65.2865 86.745 67.7585 87.4837 67.4291C88.2223 67.0985 87.1543 64.4638 86.9903 63.9718" stroke="#034EA1" stroke-width="0.869333" stroke-miterlimit="2.613" stroke-linecap="round" stroke-linejoin="round"/>
<path d="M84.3658 65.7006C84.3658 65.7006 85.5125 70.2286 87.8098 69.0752C90.0085 67.9712 88.7765 65.2552 87.7285 63.4766" stroke="#034EA1" stroke-width="0.869333" stroke-miterlimit="2.613" stroke-linecap="round" stroke-linejoin="round"/>
<path d="M89.6393 63.6602C89.6393 63.6602 90.5713 64.2135 90.4859 62.5108C90.4019 60.8042 89.8073 59.7375 89.8073 59.7375L90.2313 58.5442C90.2313 58.5442 91.6339 60.4642 91.8046 61.6562C91.9739 62.8522 93.2059 64.7682 89.8499 65.2375" stroke="#034EA1" stroke-width="0.869333" stroke-miterlimit="2.613" stroke-linecap="round" stroke-linejoin="round"/>
<path d="M89.9349 66.0482C94.5749 66.8362 93.9629 60.3336 91.9309 58.5442C89.9509 56.7976 90.4776 56.1096 90.4776 56.1096" stroke="#034EA1" stroke-width="0.869333" stroke-miterlimit="2.613" stroke-linecap="round" stroke-linejoin="round"/>
<path d="M90.5912 52.1328C90.5912 52.1328 92.2125 54.3662 91.9592 58.3262" stroke="#034EA1" stroke-width="0.869333" stroke-miterlimit="2.613" stroke-linecap="round" stroke-linejoin="round"/>
<path d="M90.7957 48.6797C90.7957 48.6797 92.7677 51.2677 92.9703 52.893C93.173 54.517 93.6277 56.853 92.8197 59.3384" stroke="#034EA1" stroke-width="0.869333" stroke-miterlimit="2.613" stroke-linecap="round" stroke-linejoin="round"/>
<path fill-rule="evenodd" clip-rule="evenodd" d="M84.1289 60.6941C82.8929 61.1768 80.6249 60.9008 80.6249 60.6941C80.6249 60.6941 81.7929 61.5914 82.6863 61.3154C83.5823 61.0394 84.1289 60.6941 84.1289 60.6941ZM78.6289 58.6928C78.6289 58.6928 79.6609 58.6234 80.4876 58.5554C81.0356 58.1408 81.9316 58.0021 82.1369 58.3474C82.3423 58.6928 82.4809 58.5554 83.3743 58.2781C84.2676 58.0021 84.4743 58.4168 84.4743 58.4168L86.1943 58.6928L86.2636 59.6594C86.2636 59.6594 85.0956 59.1074 84.0623 59.5914C83.0316 60.0728 82.3423 59.8661 81.5169 59.6594C80.6929 59.4528 78.4249 59.8661 78.4249 59.8661L78.6289 58.6928ZM85.6369 57.6621C84.9863 57.3528 83.6036 57.0768 83.6476 56.7194C83.8889 54.7194 85.6703 56.6101 86.8263 57.1248C87.6169 57.4794 89.1023 56.9821 88.9609 56.1101C88.8209 55.2368 88.2396 55.1461 88.3436 55.1448C88.4489 55.1448 89.4449 55.8621 89.4863 56.3848C89.6823 59.0048 86.6489 58.1381 85.6369 57.6621ZM78.5609 57.8648C79.4263 57.4768 81.5143 57.3701 81.4489 56.8981C81.1316 54.6101 78.1116 57.1794 76.6369 57.7968C74.9876 58.4848 74.2729 57.2448 74.6436 56.2781C75.0103 55.3128 76.2236 54.8301 76.0876 54.8301C75.9463 54.8288 74.0729 55.5994 73.9556 56.2781C73.3063 59.9928 77.1023 58.5208 78.5609 57.8648ZM79.6476 52.5434C79.4516 52.4128 78.7116 54.1888 79.6916 54.4661C80.5209 54.6408 80.3449 54.5968 81.3463 54.0728C82.3476 53.5501 82.4783 53.5914 82.8263 53.6794C83.1756 53.7661 83.4796 54.3341 83.0449 54.4221C82.6076 54.5088 81.9983 54.4661 81.6503 54.8154C81.3009 55.1648 79.5169 55.2968 78.9943 54.7274C78.8196 54.2034 77.9489 53.3314 79.6476 52.5434V52.5434ZM89.6623 47.7808C89.8809 47.8381 89.9689 47.9421 90.2716 47.9114L90.4903 47.4301C90.4903 47.4301 90.1876 46.9941 89.8369 47.1248C89.4903 47.2554 89.6623 47.7808 89.6623 47.7808ZM86.1356 47.2128L85.2223 47.5181C85.2223 47.5181 85.0036 47.6488 85.2223 47.9554C85.4396 48.2621 85.1783 48.5221 85.8316 48.5221C86.4863 48.5221 86.3089 47.9114 86.1356 47.2128V47.2128ZM86.7036 47.2554C86.6583 47.6488 86.9623 48.0861 87.1369 48.3488C87.3129 48.6114 88.4436 48.7834 88.8369 48.5661C89.2276 48.3488 89.4903 46.9061 89.4903 46.9061L88.9236 46.8208C88.9236 46.8208 88.9983 47.1514 88.9236 47.6928C88.8489 48.2368 87.7836 48.2741 87.4436 47.9994C87.1009 47.7234 87.1823 47.0808 87.1823 47.0808L86.7036 47.2554ZM85.8756 46.2941C85.8756 46.2941 86.3529 46.0328 87.4009 45.8154C88.4436 45.5968 90.3156 45.9008 90.3156 45.9008C90.3156 45.9008 90.4463 45.4634 89.9249 45.2474C89.4023 45.0288 88.7063 44.9408 87.9209 44.9408C87.1396 44.9408 87.0049 44.8514 85.9196 45.6381C84.8289 46.4261 85.8756 46.2941 85.8756 46.2941ZM85.2223 45.5074C85.9289 43.8141 90.1063 44.5288 90.4463 44.6794L90.3156 44.1541C90.4196 44.1194 89.7903 43.6741 88.2263 43.6728C86.9196 43.5861 86.3089 43.8474 85.4369 43.9354C84.5689 44.0234 85.2223 44.5474 84.9609 44.8968C84.6983 45.2474 85.2223 45.5074 85.2223 45.5074V45.5074ZM84.2183 43.7608C84.2183 43.7608 84.1756 42.4501 84.6996 42.6248C85.2223 42.7994 86.0929 42.9301 86.9623 42.5368C87.8329 42.1434 87.7463 42.4061 88.6623 42.4061C89.5769 42.4061 89.0969 42.3621 89.7076 42.5368C90.3156 42.7114 90.8809 42.9741 90.8809 42.9741L91.0116 44.5474L91.9276 45.0714C91.9276 45.0714 91.6236 46.1194 91.1876 46.2941C90.7516 46.4688 90.7956 47.2128 90.7956 47.2128C90.7956 47.2128 91.4489 48.5234 90.6636 48.6981C89.8809 48.8728 89.0529 49.3101 87.0489 49.1341C85.0476 48.9608 85.3943 49.2221 85.4836 49.5288C85.5676 49.8328 85.6116 51.4501 85.7009 51.8434C85.7876 52.2368 86.0929 52.8928 86.0929 53.3314C86.0929 53.7661 85.7449 54.5088 85.2223 54.5088C84.6996 54.5088 84.3076 54.3341 84.8729 53.9421C85.4396 53.5501 85.4396 53.7234 85.4396 53.1981C85.4396 52.6741 84.7849 49.5728 84.5689 48.6981C84.3503 47.8234 84.0023 46.0754 84.1756 45.4208C84.3503 44.7661 84.4809 44.6794 84.2183 43.7608V43.7608ZM78.2183 47.0554C78.3943 47.0341 78.7436 46.9901 78.9183 47.2768C78.9383 47.7994 78.6769 47.8008 78.5689 48.0634C78.4596 48.3274 77.9569 48.3928 77.9569 48.3928C77.9569 48.3928 77.8916 47.8888 78.0449 47.8008C78.1969 47.7141 78.2183 47.0554 78.2183 47.0554V47.0554ZM72.8143 47.4341C72.8143 47.4341 73.9863 47.1754 74.2063 47.2128C74.4263 47.2501 74.1729 47.6554 74.3209 47.8394C74.4676 48.0234 73.6209 47.9141 73.3663 47.6914C73.1076 47.4701 72.8143 47.4341 72.8143 47.4341V47.4341ZM74.6143 47.0274L75.5356 46.9914C75.5356 46.9914 75.4983 47.9501 76.2689 47.9141C77.0423 47.8781 76.7823 47.0474 77.1143 47.0274L77.7409 46.9914C77.3409 48.0941 77.2636 48.5621 76.0329 48.4754C75.1703 48.4141 74.4369 47.3314 74.6143 47.0274V47.0274ZM71.4516 46.6208C71.4516 46.6208 72.8143 45.5528 74.6143 44.8888C76.4169 44.2234 78.1809 44.8888 78.1809 44.8888C78.1809 44.8888 78.9516 45.4034 78.2916 45.5888C77.6303 45.7741 76.1583 45.4408 74.2476 46.0674C72.3356 46.6954 71.8583 47.1394 71.8583 47.1394C71.8583 47.1394 71.0476 47.2501 71.4516 46.6208V46.6208ZM76.4903 50.3808C79.0303 49.2261 79.6449 47.9088 79.6743 47.5474C79.7063 47.1848 79.4356 46.4914 79.5543 46.2781C79.6756 46.0674 79.8249 45.7368 80.0969 45.4368C80.3663 45.1354 79.6743 44.7741 79.6156 44.9248C79.5543 45.0728 79.5249 45.1048 79.1049 44.9248C78.6836 44.7421 78.4436 44.3208 76.9129 44.2301C75.3796 44.1408 74.8996 44.2914 73.5463 44.8328C72.1956 45.3768 70.3929 47.0941 70.3929 47.0941C70.3929 47.0941 70.6329 47.6981 71.7743 47.7581C72.9156 47.8181 72.5556 47.9381 73.1863 48.2394C73.4663 48.5994 75.5383 48.8808 76.6529 49.0421C77.0903 49.1048 76.9009 49.0914 77.5143 49.2034C77.3916 49.3861 76.4303 50.3488 76.4903 50.3808" fill="#034EA1"/>
<path fill-rule="evenodd" clip-rule="evenodd" d="M73.1262 91.7943C73.1262 91.169 75.5116 79.9316 76.3409 77.745C77.1702 75.5596 79.1089 71.513 79.8369 71.201C80.5636 70.8876 82.8742 65.985 82.8742 65.985L84.9476 70.149C84.9476 70.149 80.8689 77.0156 79.7649 79.9316C78.6556 82.8436 76.4782 91.169 76.7556 91.6903C76.7556 92.2116 73.1262 91.8983 73.1262 91.7943Z" fill="#EC1C24"/>
<path d="M84.9478 70.1484C84.9478 70.1484 80.8678 77.0151 79.7638 79.9311C78.6558 82.8431 76.4771 91.1698 76.7545 91.6898C76.7545 92.2111 73.1265 91.8991 73.1265 91.7938C73.1265 91.1698 75.5118 79.9311 76.3411 77.7444C77.1705 75.5604 79.1091 71.5124 79.8371 71.2004" stroke="#00A551" stroke-width="0.869333" stroke-miterlimit="2.613" stroke-linecap="round" stroke-linejoin="round"/>
<path fill-rule="evenodd" clip-rule="evenodd" d="M59.854 69.0781C59.854 69.0781 59.266 67.6434 60.8007 67.3341C62.0274 66.5781 61.346 65.8461 61.1047 65.6408C60.978 65.4354 58.674 65.0434 58.3394 66.6941C58.0034 68.3461 58.562 69.3261 59.15 70.0808C59.7354 70.8355 60.5994 72.1528 62.6074 72.0968C64.6154 72.0408 64.5047 71.8181 64.7567 71.4821C65.006 71.1461 64.5874 71.1461 63.834 71.2008C63.082 71.2568 61.5487 71.3688 61.882 70.1381C62.2167 68.9061 62.5234 69.3821 63.334 69.1848C64.1434 68.9901 64.8954 68.5701 64.366 67.5341C63.834 66.4994 62.3007 66.8621 61.91 67.8408C61.5207 68.8234 60.9354 69.7168 61.018 69.9141C61.1034 70.1088 59.75 69.5328 59.854 69.0781ZM67.3754 71.6901C66.97 71.6901 66.6434 72.0194 66.6434 72.4221C66.6434 72.8261 66.97 73.1528 67.3754 73.1528C67.7754 73.1528 68.1047 72.8261 68.1047 72.4221C68.1047 72.0194 67.7754 71.6901 67.3754 71.6901ZM71.7194 75.9688L73.5887 78.1221L71.9367 80.0568C69.5394 78.0648 67.854 80.7568 69.71 82.6848L67.5634 85.4768L65.1087 82.7208C66.518 81.5021 66.5487 78.2008 62.9927 79.9848L61.378 78.1221L63.246 75.9688C63.85 76.7235 64.4367 76.8181 65.4007 76.6021C67.2274 75.1248 65.6927 73.4248 65.2554 72.3501L67.41 70.4821L69.71 72.5341C67.0314 76.1768 70.2314 77.6248 71.7194 75.9688ZM62.5874 78.0874C62.5874 78.4901 62.9154 78.8181 63.3194 78.8181C63.7194 78.8181 64.0474 78.4901 64.0474 78.0874C64.0474 77.6848 63.7194 77.3568 63.3194 77.3568C62.9154 77.3568 62.5874 77.6848 62.5874 78.0874V78.0874ZM67.2807 79.7581C68.1647 79.7581 68.8874 79.0368 68.8874 78.1528C68.8874 77.2675 68.1647 76.5461 67.2807 76.5461C66.3954 76.5461 65.674 77.2675 65.674 78.1528C65.674 79.0368 66.3954 79.7581 67.2807 79.7581ZM67.2567 83.5661C67.6594 83.5661 67.9874 83.2394 67.9874 82.8354C67.9874 82.4354 67.6594 82.1061 67.2567 82.1061C66.854 82.1061 66.5274 82.4354 66.5274 82.8354C66.5274 83.2394 66.854 83.5661 67.2567 83.5661ZM72.378 78.0874C72.378 78.4901 72.05 78.8181 71.6487 78.8181C71.246 78.8181 70.918 78.4901 70.918 78.0874C70.918 77.6848 71.246 77.3568 71.6487 77.3568C72.05 77.3568 72.378 77.6848 72.378 78.0874ZM71.0434 71.7861C71.0434 71.7861 72.9727 70.9034 73.742 72.2528C74.51 73.6061 74.3634 74.6421 72.9554 74.6874C71.5487 74.7314 71.7154 73.8594 71.5234 73.5701C71.33 73.2808 70.998 73.4581 70.4647 74.0514C69.9314 74.6461 69.2327 74.7088 69.986 73.1848C70.706 71.7861 71.0434 71.7861 71.0434 71.7861V71.7861ZM64.2047 82.4408C64.2047 82.4408 62.3647 83.6194 62.926 85.1061C63.49 86.5954 63.998 86.1341 64.3567 86.1848C64.7154 86.2368 65.3274 85.4141 64.7674 84.5941C64.0527 83.9794 63.8474 83.0555 64.2047 82.4408" fill="#CE482C"/>
<path fill-rule="evenodd" clip-rule="evenodd" d="M66.8177 87.3569L64.1324 89.6742C63.7791 91.5529 64.2017 95.3876 62.8991 95.3462C62.2311 95.0676 60.1164 94.5862 61.0124 96.8156C62.0124 97.6689 64.6697 98.1302 65.6311 94.6222L65.9431 90.9276C66.2337 90.2369 67.4004 90.4262 67.5031 91.1142C67.1764 93.8036 67.3751 94.9409 67.8804 96.1262C68.2844 97.7342 69.2204 98.0262 70.6257 97.6302C72.0511 96.8782 71.7604 94.9982 70.1884 95.3129C69.1111 95.3622 69.2791 92.4169 69.1257 90.2369L66.8177 87.3569Z" fill="#CE482C"/>
<path fill-rule="evenodd" clip-rule="evenodd" d="M103.331 104.658C104.661 104.658 105.747 105.742 105.747 107.074C105.747 108.404 104.661 109.487 103.331 109.487C102 109.487 100.915 108.404 100.915 107.074C100.915 105.742 102 104.658 103.331 104.658Z" fill="#CE482C"/>
<path fill-rule="evenodd" clip-rule="evenodd" d="M105.663 106.753C105.091 107.914 104.724 108.001 104.119 107.963C103.821 107.943 102.991 107.529 102.616 106.613C103.717 107.351 103.715 107.561 104.209 107.565C104.676 107.569 105.044 107.281 105.663 106.753Z" fill="#00A551"/>
<path d="M100.094 87.5053V37.9279L104.362 33.7746L108.628 38.0573V88.2839" stroke="#034EA1" stroke-width="1.13333" stroke-miterlimit="2.613" stroke-linecap="round" stroke-linejoin="round"/>
<path fill-rule="evenodd" clip-rule="evenodd" d="M103.586 88.026L104.307 42.9687L104.749 87.766L103.586 88.026Z" fill="#034EA1"/>
<path fill-rule="evenodd" clip-rule="evenodd" d="M110.837 88.4089L100.197 87.6089C100.197 87.6089 94.9998 88.0915 94.4905 89.2529C93.9865 90.4142 93.4211 92.3315 94.7971 92.8409C96.1731 93.3489 97.4971 93.4995 97.9331 92.5569C98.3651 91.6115 98.8385 90.2142 98.8385 90.2142L110.693 90.7329L110.837 88.4089Z" fill="#CE482C"/>
<path fill-rule="evenodd" clip-rule="evenodd" d="M87.8867 94.1016C87.8867 94.1016 86.4587 104.334 87.2053 105.016C87.9533 105.698 92.304 109.79 93.46 112.312C94.616 114.836 96.8587 119.066 96.1107 124.59C95.36 130.115 94.7773 129.628 94.7773 129.628L98.788 135.526C103.675 133.318 107.675 130.338 110.821 126.632C96 117.958 91.1773 106.822 89.5533 94.899L87.8867 94.1016Z" fill="#EC1C24"/>
<path d="M87.8867 94.1016C87.8867 94.1016 86.4587 104.334 87.2053 105.016C87.9533 105.698 92.304 109.79 93.46 112.312C94.616 114.836 96.8587 119.066 96.1107 124.59C95.36 130.115 94.7773 129.628 94.7773 129.628L98.788 135.526C103.675 133.318 107.675 130.338 110.821 126.632C96 117.958 91.1773 106.822 89.5533 94.899L87.8867 94.1016Z" stroke="#034EA1" stroke-width="0.869333" stroke-miterlimit="2.613" stroke-linecap="round" stroke-linejoin="round"/>
<path d="M88.3621 141.154L98.7874 135.526C103.674 133.318 107.674 130.338 110.822 126.632" stroke="#034EA1" stroke-width="0.869333" stroke-miterlimit="2.613" stroke-linecap="round" stroke-linejoin="round"/>
<path fill-rule="evenodd" clip-rule="evenodd" d="M94.9623 129.721C94.7863 129.473 94.8023 129.983 94.6316 129.732C89.9116 122.744 87.6623 113.741 87.0623 104.915L87.5436 105.544L87.7649 107.181L90.5876 110.137L88.8956 111.461L88.2063 110.581C88.4116 112.356 88.6009 113.352 89.2703 113.915L90.1476 113.6L89.5223 112.341L91.5916 111.399L93.5356 115.049L91.2156 115.677L90.7756 114.921L89.8343 115.489L90.7756 118.637L92.2169 118.511L91.8423 116.748L94.0396 116.433C94.4236 117.713 94.6969 119.455 94.9143 121.407L92.5956 121.344L92.4716 119.896H91.1543L91.3396 122.476L92.4716 124.743L92.6569 122.728L94.8529 122.792L94.2249 128.015L94.9623 129.721Z" fill="#034EA1"/>
<path fill-rule="evenodd" clip-rule="evenodd" d="M110.941 118.358L110.539 118.439C107.325 119.245 102.985 112.229 100.573 109.49C98.1654 106.747 96.1574 98.1195 96.1574 98.1195L89.4054 94.6515C89.4054 94.6515 91.5761 107.771 96.2361 113.575C100.896 119.382 105.879 124.97 110.459 126.099L110.941 118.358Z" fill="#CE482C"/>
<path d="M110.941 118.358L110.539 118.439C107.325 119.245 102.985 112.229 100.573 109.49C98.1655 106.747 96.1575 98.1195 96.1575 98.1195" stroke="#00A551" stroke-width="0.756" stroke-miterlimit="2.613" stroke-linecap="round" stroke-linejoin="round"/>
<path d="M89.4049 94.6511C89.4049 94.6511 91.5756 107.771 96.2356 113.575C100.896 119.382 105.878 124.97 110.458 126.099" stroke="#034EA1" stroke-width="0.756" stroke-miterlimit="2.613" stroke-linecap="round" stroke-linejoin="round"/>
<path d="M91.1198 95.5833C93.0438 110.011 100.141 118.798 110.769 124.321" stroke="#00A551" stroke-width="0.869333" stroke-miterlimit="2.613" stroke-linecap="round" stroke-linejoin="round"/>
<path fill-rule="evenodd" clip-rule="evenodd" d="M97.7044 107.13C96.3244 108.232 94.5857 107.378 94.2337 107.201C93.8791 107.022 93.4537 105.672 93.3831 104.818C93.3124 103.965 96.0391 102.508 96.0391 102.508C95.5031 103.226 94.9231 103.98 94.7657 104.889L97.0311 104.641C97.3391 104.701 97.3271 105.221 97.1031 105.316L95.0817 106.346C95.3657 107.144 96.4764 107.19 97.7044 107.13Z" fill="#00A551"/>
<path fill-rule="evenodd" clip-rule="evenodd" d="M95.7539 101.366C94.3112 102.389 92.6259 101.435 92.2819 101.238C91.9419 101.041 91.5939 99.6686 91.5712 98.8113C91.5485 97.9553 94.1445 96.8699 94.1445 96.8699C93.5645 97.5579 93.1579 98.0619 92.9472 98.9606L95.2245 98.8433C95.5272 98.9206 95.4872 99.4406 95.2565 99.5206L93.1819 100.435C93.4165 101.246 94.5219 101.357 95.7539 101.366Z" fill="#00A551"/>
<path fill-rule="evenodd" clip-rule="evenodd" d="M100.926 112.109C99.7576 113.437 97.8976 112.904 97.519 112.792C97.1403 112.679 96.483 111.424 96.2656 110.596C96.043 109.768 98.4723 107.855 98.4723 107.855C98.0683 108.659 97.6323 109.5 97.6363 110.424L99.823 109.779C100.136 109.784 100.218 110.299 100.014 110.431L98.2056 111.803C98.623 112.536 99.7243 112.385 100.926 112.109Z" fill="#00A551"/>
<path fill-rule="evenodd" clip-rule="evenodd" d="M105.057 116.914C104.149 118.43 102.225 118.239 101.832 118.198C101.439 118.157 100.565 117.039 100.199 116.266C99.8347 115.493 101.877 113.171 101.877 113.171C101.627 114.034 101.351 114.942 101.52 115.849L103.555 114.821C103.863 114.767 104.033 115.261 103.859 115.427L102.328 117.102C102.872 117.747 103.927 117.401 105.057 116.914Z" fill="#00A551"/>
<path fill-rule="evenodd" clip-rule="evenodd" d="M109.931 120.238C109.458 121.942 107.55 122.266 107.158 122.328C106.768 122.393 105.631 121.546 105.076 120.896C104.516 120.245 105.876 117.469 105.876 117.469C105.862 118.366 105.834 119.316 106.236 120.146L107.928 118.616C108.212 118.485 108.508 118.914 108.382 119.122L107.347 121.14C108.042 121.62 108.97 121.008 109.931 120.238Z" fill="#00A551"/>
<path d="M92.2043 80.9219C92.2043 80.9219 96.8577 81.3752 94.9563 76.4526" stroke="#00A551" stroke-width="0.869333" stroke-miterlimit="2.613" stroke-linecap="round" stroke-linejoin="round"/>
<path d="M91.6523 82.3789C91.6523 82.3789 99.363 83.6843 95.907 75.1963" stroke="#00A551" stroke-width="0.869333" stroke-miterlimit="2.613" stroke-linecap="round" stroke-linejoin="round"/>
<path fill-rule="evenodd" clip-rule="evenodd" d="M99.8372 73.0312C96.6652 76.0099 99.6945 78.6846 99.8372 78.6846V73.0312Z" fill="#00A551"/>
<path fill-rule="evenodd" clip-rule="evenodd" d="M44.1823 64.2409L46.5449 63.3276L47.7276 63.6929L48.6356 64.7863L50.6343 64.3303L51.7263 65.0609L53.2703 64.6036H54.7249C59.7009 72.4916 62.1396 82.2183 62.9943 93.5129H56.2689C54.3623 83.1943 50.6929 73.3409 44.1823 64.2409Z" fill="#CE482C"/>
<path fill-rule="evenodd" clip-rule="evenodd" d="M47.9088 64.3307C52.4435 71.7053 56.4368 79.8347 57.8155 91.596H61.8115C60.4461 81.7187 58.1208 72.5387 54.0875 64.604L51.7261 64.8773L50.6341 64.604L47.9088 64.3307Z" fill="#EC1C24"/>
<path d="M47.9088 64.3307C52.4435 71.7053 56.4368 79.8347 57.8155 91.596H61.8115C60.4461 81.7187 58.1208 72.5387 54.0875 64.604L51.7261 64.8773L50.6341 64.604L47.9088 64.3307Z" stroke="#00A551" stroke-width="0.869333" stroke-miterlimit="2.613" stroke-linecap="round" stroke-linejoin="round"/>
<path d="M45.095 117.031C45.095 117.031 40.915 128.169 34.859 133.241" stroke="#00A551" stroke-width="0.869333" stroke-miterlimit="2.613" stroke-linecap="round" stroke-linejoin="round"/>
<path d="M40.7071 114.453C40.7071 114.453 37.3124 122.994 34.7097 125.306" stroke="#00A551" stroke-width="0.869333" stroke-miterlimit="2.613" stroke-linecap="round" stroke-linejoin="round"/>
<path d="M40.3073 115.521C40.3073 115.521 41.502 118.189 38.934 118.769" stroke="#00A551" stroke-width="0.869333" stroke-miterlimit="2.613" stroke-linecap="round" stroke-linejoin="round"/>
<path d="M42.8255 115.8C42.8255 115.8 41.6082 120.557 38.0402 120.294" stroke="#00A551" stroke-width="0.869333" stroke-miterlimit="2.613" stroke-linecap="round" stroke-linejoin="round"/>
<path fill-rule="evenodd" clip-rule="evenodd" d="M62.6914 134.189L60.8301 136.381L60.1114 133.146L56.8874 131.709L54.0954 132.213L49.2221 133.865L47.5754 133.002L55.9581 114.456L57.3528 109.746L64.4834 110.214L62.7634 120.925L60.1114 127.54L58.8954 130.485L62.6914 134.189Z" fill="#CE482C"/>
<path fill-rule="evenodd" clip-rule="evenodd" d="M79.75 138.876C79.75 138.876 77.1567 138.979 76.0167 140.334C75.5727 141.032 74.9194 140.568 74.6874 140.911C74.6874 140.911 74.6674 139.294 73.63 138.774C72.5927 138.251 69.7927 137.94 68.9647 138.459C69.0834 134.578 64.6967 133.875 62.178 135.026C62.0447 132.968 60.8314 131.738 58.3047 130.88C61.726 124.563 63.03 117.492 63.5714 110.156L57.7394 110.364C56.366 118.294 53.3834 126.46 48.4527 133.203C46.6354 133.162 44.618 133.459 44.3274 136.799C44.2754 137.19 45.1927 137.367 44.642 137.432C39.722 138.012 41.314 140.678 41.3687 141.954L35.6727 138.682L35.59 136.018C39.8487 131.799 43.8087 125.904 47.0234 118.119L40.214 114.534C41.4674 111.482 39.5754 109.427 37.1114 110.906C37.1114 106.943 37.214 104.08 35.5767 101.552C34.2567 99.5896 31.7327 99.2376 28.3994 100.763C26.5287 100.39 25.7127 100.678 26.218 102.69C25.306 103.654 25.6914 105.107 25.8794 105.692C24.9447 108.351 26.1367 106.822 25.7167 109.655C25.9047 110.56 27.1327 110.886 27.1674 111.276C27.202 111.67 27.2407 112.43 27.61 112.607L35.79 112.779L35.778 113.523L23.3234 112.808V86.495C24.0847 84.515 30.4527 88.9016 34.81 97.0016C36.3434 99.8483 36.8367 102.312 37.6114 105.299L48.59 110.604C51.602 104.238 52.3207 84.4816 37.93 66.8283L45.542 63.119C52.2794 72.5523 56.1554 81.719 57.3767 92.219L57.8274 97.443L78.2194 97.4376L78.3394 110.799L73.0794 111.35C73.6114 122.207 75.3914 130.687 79.75 138.876Z" fill="#231F20"/>
<path fill-rule="evenodd" clip-rule="evenodd" d="M29.724 112.099L28.2227 111.96C28.2227 111.96 27.66 111.776 27.7267 111.496C27.7934 111.214 28.1227 110.998 28.272 111.164C28.42 111.328 29.5094 111.719 29.724 112.099ZM31.4587 105.408C31.4587 105.408 31.592 105.878 31.2227 106.282C30.8574 106.684 30.6907 106.716 30.288 106.65C29.8867 106.583 29.2827 105.81 29.5187 105.375C29.752 104.938 30.6547 104.804 31.0574 105.006C31.4587 105.207 31.4254 105.274 31.4587 105.408ZM30.6347 103.828C30.6347 103.828 31.2547 104.427 30.4854 104.528C29.7174 104.63 29.3294 104.427 29.3294 104.427L29.3974 103.446C29.3974 103.446 30.2 103.011 30.3667 103.31C30.5347 103.615 30.5667 103.76 30.6347 103.828ZM27.644 101.279C27.5467 101.327 28.0734 102.359 27.296 102.378C26.5214 102.396 26.208 102.199 26.328 102.151C26.448 102.103 26.5614 101.848 26.4947 101.648C26.428 101.446 26.296 101.178 26.5294 101.144C26.7627 101.112 27.8574 101.172 27.644 101.279ZM29.084 102.118C29.084 102.118 29.216 102.151 29.352 102.318C29.484 102.486 29.2827 102.688 28.548 102.486C27.812 102.287 28.0454 102.118 28.312 101.782C28.5827 101.446 29.084 101.111 29.048 101.58C29.0147 102.05 29.084 102.118 29.084 102.118V102.118ZM28.9534 103.204C28.5227 103.33 29.32 104.356 28.6467 104.57C27.9747 104.78 27.0974 104.884 26.8974 105.051C26.696 105.219 26.4574 105.324 26.328 105.42C26.2 105.518 26.4694 105.15 26.3947 104.818C26.3227 104.484 26.196 104.282 26.06 104.011C25.9254 103.742 25.9814 103.19 26.2614 102.875C26.5414 102.56 26.6054 102.908 27.5094 102.855C28.4134 102.855 29.4747 103.056 28.9534 103.204V103.204ZM29.1494 106.18C29.1494 106.18 29.3174 106.716 28.7814 107.222C28.2454 107.724 26.5054 108.06 26.5054 108.06C26.5054 108.06 26.4734 107.39 26.24 107.288C26.0054 107.187 25.8707 107.523 25.9707 106.851C26.0707 106.18 25.804 106.012 26.2054 105.844C26.6054 105.678 28.6467 104.468 28.7814 105.039C28.916 105.61 29.1494 105.779 29.1494 106.18V106.18ZM30.5227 109.571C30.5227 109.571 28.48 110.11 28.0134 110.276C27.5427 110.444 27.5427 110.712 27.5427 110.712C27.5427 110.712 27.6774 110.982 26.9747 110.411C26.2734 109.84 26.1707 110.31 26.0707 109.638C25.9707 108.967 25.904 108.699 26.4734 108.531C27.0427 108.364 28.7147 107.927 28.7147 107.927C28.7147 107.927 28.5467 108.531 29.4187 108.934C30.288 109.336 30.42 109.504 30.5227 109.571V109.571ZM30.756 108.967C30.756 108.967 30.488 108.934 29.8867 108.766C29.2827 108.599 28.916 107.859 29.084 107.523C29.252 107.187 30.388 107.288 30.7214 107.49C31.0574 107.69 30.8574 107.759 31.0254 108.094C31.1907 108.43 30.756 108.967 30.756 108.967V108.967ZM36.68 108.228C36.68 108.228 36.9134 110.242 36.3094 110.948C35.708 111.654 35.2054 112.224 32.9654 112.224C30.7214 112.224 30.488 112.156 30.488 112.156C30.488 112.156 29.5187 111.216 28.9827 111.048C28.448 110.88 28.312 110.812 28.312 110.812C28.312 110.812 30.1867 110.142 30.5227 110.344C30.8574 110.544 30.9907 109.471 31.7267 109.438C32.4627 109.404 33.132 109.17 33.132 109.17C33.132 109.17 32.8627 109.06 32.4627 108.49C32.0614 107.919 32.1614 107.255 32.3294 106.348C32.496 105.442 32.0934 104.839 31.8267 104.703C31.5587 104.57 31.3574 104.402 31.6254 103.46C31.8934 102.52 31.96 102.287 31.96 102.287C31.96 102.287 31.492 102.083 31.256 102.419C31.0254 102.755 31.1907 103.026 30.6907 102.924C30.1867 102.823 29.484 101.984 29.384 101.615C29.2827 101.244 28.7814 101.178 29.5507 100.842C30.32 100.506 33.568 99.1616 35.004 101.514C36.444 103.864 36.68 107.96 36.68 108.228V108.228ZM37.1174 110.938C37.112 106.943 37.2134 104.08 35.5774 101.552C34.256 99.5896 31.7334 99.2376 28.4 100.763C26.5294 100.39 25.712 100.678 26.2174 102.69C25.3067 103.654 25.692 105.107 25.8787 105.692C24.944 108.351 26.1374 106.822 25.716 109.655C25.9054 110.56 27.1334 110.886 27.168 111.276C27.2014 111.67 27.2414 112.43 27.6094 112.607L35.7907 112.779L37.1174 110.938Z" fill="#034EA1"/>
<path fill-rule="evenodd" clip-rule="evenodd" d="M41.4194 137.169C41.538 138 40.282 139.753 39.5594 137.78C39.4834 135.807 40.1407 135.981 41.558 134.812C41.7847 135.036 47.0607 132.295 48.566 130.065C49.0247 129.385 49.1314 128.751 48.6327 128.264C47.1714 128.201 47.918 129.099 47.5607 129.86C47.2047 130.748 45.426 131.128 45.0674 130.925C44.3567 130.396 44.9367 129.279 46.122 128.005C47.266 127.016 52.2047 121.792 52.346 120.953C52.4914 120.117 52.4914 118.975 51.9194 119.128C51.3474 119.279 51.3474 119.355 51.4194 120.04C51.4914 120.724 51.4914 121.029 50.918 121.487C50.346 121.944 48.7767 122.248 48.9194 121.105C48.7274 120.031 53.1234 114.859 55.0994 111.584C55.4954 111.273 55.3234 108.988 54.294 109.447C53.4474 109.937 54.5794 110.252 54.546 110.591C54.546 110.591 54.1274 111.552 53.2754 111.891C52.7167 111.912 51.3914 112.303 51.7367 110.483C51.8514 109.876 52.2127 109.123 52.7674 107.897C54.0594 105.021 55.2434 102.82 55.7887 101.623C56.194 100.739 56.3567 99.8721 55.7247 98.7481C55.3647 98.1027 54.73 98.4627 54.722 99.0574C54.6034 99.5454 55.4247 100.421 54.8234 101.249C54.0007 102.016 53.09 102.601 52.3714 101.396C51.6514 100.191 52.6314 99.0401 53.5567 97.0681C54.482 95.0974 55.646 90.6214 55.0274 90.0734C54.6527 88.4401 53.3127 88.4841 53.59 89.8547C54.3194 90.4814 54.5007 91.1481 53.5327 91.7787C52.71 91.9974 51.8634 91.3881 52.174 89.9641C52.4807 88.5401 52.7674 84.1574 52.5607 82.4054C52.3554 80.6521 51.51 79.5934 51.51 79.5934C51.034 79.0854 50.3007 79.4747 50.7914 80.6907C51.51 80.6934 52.4127 82.3667 51.282 83.0267C50.494 83.3174 49.614 83.3667 49.17 82.0774C48.2647 80.5481 48.7927 75.8641 48.8394 74.1161C48.3007 72.2627 47.942 70.7107 46.746 71.4801C45.7834 72.2374 47.386 72.5934 47.6007 73.3001C47.506 74.0067 47.386 74.4667 47.0314 74.7081C46.0687 74.8521 44.534 73.9894 44.9527 70.7267C44.626 65.9747 43.8607 65.4174 43.3967 63.8801L41.974 64.4187C41.974 64.4187 43.0034 65.4227 42.91 66.2307C42.8167 66.7894 42.9487 67.5494 41.634 67.2894C41.0647 67.0294 40.4074 65.3641 40.4074 65.3641L39.262 66.2214C39.262 66.2214 39.882 68.1934 41.1207 68.7507C42.8247 69.4587 43.15 68.4534 43.6154 68.3547C43.6154 68.3547 43.8034 70.5294 43.906 73.5987C45.0314 78.2067 47.6927 76.8267 47.6927 76.8267C47.6927 76.8267 46.9914 82.0907 47.826 83.8694C48.63 85.6481 50.982 85.5467 51.314 84.6974C51.186 87.1507 50.2807 89.6067 50.154 92.0614C50.1834 93.5414 51.2527 94.2534 53.3647 94.1974C52.6487 96.7134 51.4034 98.2374 50.6647 99.7774C49.698 101.793 50.65 104.38 52.982 104.556C51.8087 106.157 50.9754 107.476 50.3914 108.584C49.1407 110.961 48.1674 113.869 51.846 114.432C49.9327 116.336 47.9754 118.593 46.4407 120.697C45.3394 123.251 46.322 124.003 48.2487 123.937C48.342 124.505 45.8914 126.555 44.7754 127.333C41.47 129.631 41.858 131.193 42.726 132.484C40.1367 133.745 38.4047 135.032 37.7007 135.853C36.4234 137.34 36.9087 139.071 38.3434 139.815C39.4634 140.396 40.086 140.355 40.9634 139.573C42.4327 138.267 43.046 136.945 42.3767 136.467C41.9447 136.093 41.3767 136.563 41.4194 137.169Z" fill="#D44C2D"/>
<path fill-rule="evenodd" clip-rule="evenodd" d="M78.9765 163.672L80.5512 166.951L73.6512 168.531L72.6818 167.437L71.5952 168.772L62.3925 169.745L61.4245 168.531L60.0925 169.745L51.1365 169.259L50.4098 168.287L48.7165 169.136L41.0898 167.557L42.6632 164.765C42.4125 166.263 72.3512 168.101 78.9765 163.672Z" fill="#231F20"/>
<path fill-rule="evenodd" clip-rule="evenodd" d="M79.5833 165.58L78.114 162.852C70.458 164.385 56.8206 166.48 43.314 163.893L42.4886 166.502C46.6446 167.39 53.17 168.51 59.6006 168.237C65.914 167.968 74.5406 166.989 79.5833 165.58Z" fill="#EC1C24"/>
<path fill-rule="evenodd" clip-rule="evenodd" d="M55.4831 172.991L56.5191 171.448L54.5657 171.43L55.4831 172.991ZM55.4177 175.087L52.7097 170.484L58.4751 170.542L55.4177 175.087Z" fill="#231F20"/>
<path fill-rule="evenodd" clip-rule="evenodd" d="M43.1758 171.716L44.5611 170.479L42.6718 169.976L43.1758 171.716ZM42.5931 173.735L41.1078 168.602L46.6798 170.084L42.5931 173.735Z" fill="#231F20"/>
<path fill-rule="evenodd" clip-rule="evenodd" d="M67.6601 172.956L68.5614 171.328L66.6121 171.478L67.6601 172.956ZM67.7761 175.052L64.6814 170.698L70.4307 170.256L67.7761 175.052Z" fill="#231F20"/>
<path fill-rule="evenodd" clip-rule="evenodd" d="M80.0716 170.622L80.6849 168.868L78.7876 169.344L80.0716 170.622ZM80.5409 172.669L76.7556 168.901L81.3249 167.622L81.9529 168.885L80.5409 172.669Z" fill="#231F20"/>
<path fill-rule="evenodd" clip-rule="evenodd" d="M55.2044 178.37C55.8444 178.37 56.3684 177.878 56.3684 177.271C56.3684 176.667 55.8444 176.175 55.2044 176.175C54.5631 176.175 54.0377 176.667 54.0377 177.271C54.0377 177.878 54.5631 178.37 55.2044 178.37Z" fill="#231F20"/>
<path fill-rule="evenodd" clip-rule="evenodd" d="M41.5716 176.859C42.193 177.018 42.8223 176.669 42.973 176.083C43.121 175.498 42.737 174.89 42.1156 174.731C41.493 174.573 40.865 174.922 40.7143 175.507C40.5663 176.093 40.949 176.701 41.5716 176.859Z" fill="#231F20"/>
<path fill-rule="evenodd" clip-rule="evenodd" d="M67.8451 178.339C68.4851 178.284 68.9651 177.745 68.9131 177.144C68.8611 176.541 68.2958 176.096 67.6558 176.151C67.0171 176.205 66.5398 176.744 66.5918 177.345C66.6438 177.947 67.2064 178.393 67.8451 178.339Z" fill="#231F20"/>
<path fill-rule="evenodd" clip-rule="evenodd" d="M81.1652 175.898C81.7852 175.734 82.1679 175.125 82.0146 174.538C81.8599 173.956 81.2292 173.612 80.6079 173.776C79.9879 173.937 79.6066 174.546 79.7612 175.13C79.9132 175.716 80.5439 176.06 81.1652 175.898Z" fill="#231F20"/>
<path fill-rule="evenodd" clip-rule="evenodd" d="M49.1745 175.172C49.7211 175.172 50.1678 174.751 50.1678 174.235C50.1651 173.72 49.7171 173.3 49.1718 173.3C48.6251 173.303 48.1785 173.723 48.1785 174.237C48.1798 174.753 48.6278 175.175 49.1745 175.172Z" fill="#231F20"/>
<path fill-rule="evenodd" clip-rule="evenodd" d="M61.5248 175.923C62.0661 175.853 62.4541 175.378 62.3861 174.865C62.3208 174.355 61.8248 173.995 61.2808 174.067C60.7368 174.138 60.3501 174.613 60.4168 175.125C60.4861 175.635 60.9808 175.995 61.5248 175.923Z" fill="#231F20"/>
<path fill-rule="evenodd" clip-rule="evenodd" d="M74.5273 174.586C75.0486 174.425 75.3513 173.89 75.1966 173.398C75.0433 172.903 74.4953 172.635 73.9713 172.797C73.4473 172.959 73.1473 173.494 73.2993 173.986C73.4513 174.479 74.0019 174.747 74.5273 174.586Z" fill="#231F20"/>
<path fill-rule="evenodd" clip-rule="evenodd" d="M52.6237 173.708C50.1344 171.403 46.2544 172.059 46.145 172.427C47.4317 171.008 48.633 170.244 50.0264 170.442C51.4397 170.643 52.337 172.244 52.6237 173.708Z" fill="#231F20"/>
<path fill-rule="evenodd" clip-rule="evenodd" d="M64.7566 174.027C61.9926 172.062 58.2273 173.211 58.1699 173.59C59.2606 172.015 60.3499 171.107 61.7593 171.123C63.1859 171.141 64.2846 172.614 64.7566 174.027Z" fill="#231F20"/>
<path fill-rule="evenodd" clip-rule="evenodd" d="M77.3893 172.169C74.332 170.7 70.816 172.472 70.8213 172.855C71.6346 171.117 72.5546 170.036 73.9453 169.815C75.356 169.588 76.684 170.857 77.3893 172.169Z" fill="#231F20"/>
<path d="M32.3074 181.807L43.7074 163.506C56.0207 166.359 67.57 164.375 78.0874 162.457L89.1114 181.247" stroke="#034EA1" stroke-width="1.512" stroke-miterlimit="2.613"/>
<path d="M88.181 143.622C88.181 143.81 87.7183 141.776 86.4943 142.101C85.269 142.426 84.7423 144.125 85.269 144.978C87.1676 148.04 91.7716 144.188 89.3916 141.494C87.7156 139.596 86.9756 140.258 84.5516 141.165C82.1303 142.076 75.9716 155.809 76.121 162.78" stroke="#034EA1" stroke-width="0.869333" stroke-miterlimit="2.613" stroke-linecap="round" stroke-linejoin="round"/>
<path d="M84.9857 144.022C84.9857 144.022 81.4897 149.474 80.3323 152.829C79.179 156.184 77.5123 162.657 77.7897 162.518" stroke="#034EA1" stroke-width="0.869333" stroke-miterlimit="2.613" stroke-linecap="round" stroke-linejoin="round"/>
<path d="M78.1914 140.721C78.1914 140.721 76.6581 139.276 74.8074 141.776C72.9541 144.276 68.1447 162.484 68.5101 163.779" stroke="#034EA1" stroke-width="0.869333" stroke-miterlimit="2.613" stroke-linecap="round" stroke-linejoin="round"/>
<path d="M74.8073 141.892C74.6687 141.687 72.4873 141.353 70.842 146.808C69.1953 152.263 66.5567 164.164 66.9047 164.253" stroke="#034EA1" stroke-width="0.869333" stroke-miterlimit="2.613" stroke-linecap="round" stroke-linejoin="round"/>
<path d="M72.9415 142.828C73.0108 142.261 70.6988 142.452 68.6268 149.031C66.5521 155.612 65.2441 164.363 65.2441 164.363" stroke="#034EA1" stroke-width="0.869333" stroke-miterlimit="2.613" stroke-linecap="round" stroke-linejoin="round"/>
<path d="M67.7188 148.307L69.8387 143.267" stroke="#034EA1" stroke-width="0.869333" stroke-miterlimit="2.613" stroke-linecap="round" stroke-linejoin="round"/>
<path d="M71.595 142.901C71.595 142.901 70.987 140.108 69.111 142.658C67.235 145.209 66.931 146.789 66.931 146.789" stroke="#034EA1" stroke-width="0.869333" stroke-miterlimit="2.613" stroke-linecap="round" stroke-linejoin="round"/>
<path d="M72.9257 142.599C72.9257 142.599 71.2897 139.075 69.111 140.959C66.9324 142.842 66.207 145.818 66.207 145.818" stroke="#034EA1" stroke-width="0.869333" stroke-miterlimit="2.613" stroke-linecap="round" stroke-linejoin="round"/>
<path d="M73.8333 142.173C72.6053 137.485 67.8053 139.172 66.8707 141.141C65.9227 143.145 65.1787 144.724 65.36 144.724" stroke="#034EA1" stroke-width="0.869333" stroke-miterlimit="2.613" stroke-linecap="round" stroke-linejoin="round"/>
<path d="M67.8399 139.745C67.8399 139.745 68.2026 136.828 66.3266 136.04C64.4519 135.25 62.8759 135.068 61.7866 135.917C60.6999 136.769 59.1252 139.745 59.1252 139.745" stroke="#034EA1" stroke-width="0.869333" stroke-miterlimit="2.613" stroke-linecap="round" stroke-linejoin="round"/>
<path d="M63.6028 142.841C63.6028 142.841 64.5894 141.171 64.6908 140.352C64.7974 139.533 64.4188 137.084 62.9988 138.529C61.5774 139.977 61.5481 141.263 61.5481 141.263" stroke="#034EA1" stroke-width="0.869333" stroke-miterlimit="2.613" stroke-linecap="round" stroke-linejoin="round"/>
<path d="M64.5716 143.753C64.5716 143.753 66.0849 140.351 66.2076 139.258C66.3262 138.165 65.5996 136.646 64.3916 136.646C63.1796 136.646 62.3316 136.586 61.6062 137.801C60.8782 139.015 60.4569 140.351 60.4569 140.351" stroke="#034EA1" stroke-width="0.869333" stroke-miterlimit="2.613" stroke-linecap="round" stroke-linejoin="round"/>
<path d="M58.3998 139.198C59.2238 137.439 60.0558 133.117 56.8838 133.367C55.1238 133.506 53.5785 135.569 53.3145 137.254" stroke="#034EA1" stroke-width="0.869333" stroke-miterlimit="2.613" stroke-linecap="round" stroke-linejoin="round"/>
<path d="M57.0677 138.469C57.0677 138.469 58.6237 136.733 57.7931 135.554C56.9624 134.376 55.3024 135.741 54.8597 137.742" stroke="#034EA1" stroke-width="0.869333" stroke-miterlimit="2.613" stroke-linecap="round" stroke-linejoin="round"/>
<path d="M43.6902 163.126C43.7782 157.91 43.8235 151.906 44.3502 145.592C46.3875 139.87 48.8755 137.922 51.5702 137.689" stroke="#034EA1" stroke-width="0.869333" stroke-miterlimit="2.613" stroke-linecap="round" stroke-linejoin="round"/>
<path d="M48.944 138.428C48.944 138.428 47.8787 135.958 47.1387 136.29C46.4014 136.619 47.4694 139.252 47.632 139.746" stroke="#034EA1" stroke-width="0.869333" stroke-miterlimit="2.613" stroke-linecap="round" stroke-linejoin="round"/>
<path d="M50.2578 138.018C50.2578 138.018 49.1085 133.49 46.8111 134.644C44.6138 135.746 45.8445 138.462 46.8938 140.24" stroke="#034EA1" stroke-width="0.869333" stroke-miterlimit="2.613" stroke-linecap="round" stroke-linejoin="round"/>
<path d="M44.9844 140.056C44.9844 140.056 44.0511 139.503 44.1364 141.208C44.2204 142.913 44.8151 143.979 44.8151 143.979L44.3911 145.173C44.3911 145.173 42.9884 143.253 42.8178 142.06C42.6484 140.867 41.4151 138.948 44.7724 138.479" stroke="#034EA1" stroke-width="0.869333" stroke-miterlimit="2.613" stroke-linecap="round" stroke-linejoin="round"/>
<path d="M44.6875 137.669C40.0475 136.88 40.6595 143.383 42.6915 145.173C44.6702 146.92 44.1462 147.609 44.1462 147.609" stroke="#034EA1" stroke-width="0.869333" stroke-miterlimit="2.613" stroke-linecap="round" stroke-linejoin="round"/>
<path d="M44.03 151.586C44.03 151.586 42.4086 149.35 42.6646 145.391" stroke="#034EA1" stroke-width="0.869333" stroke-miterlimit="2.613" stroke-linecap="round" stroke-linejoin="round"/>
<path d="M43.8267 155.035C43.8267 155.035 41.8547 152.449 41.6507 150.825C41.4494 149.199 40.9934 146.863 41.8041 144.378" stroke="#034EA1" stroke-width="0.869333" stroke-miterlimit="2.613" stroke-linecap="round" stroke-linejoin="round"/>
<path fill-rule="evenodd" clip-rule="evenodd" d="M50.491 143.024C51.7296 142.54 53.9976 142.817 53.9976 143.024C53.9976 143.024 52.8283 142.126 51.9336 142.402C51.0416 142.677 50.491 143.024 50.491 143.024ZM55.9936 145.024C55.9936 145.024 54.9603 145.094 54.1363 145.162C53.5843 145.576 52.691 145.714 52.4856 145.369C52.2803 145.024 52.139 145.162 51.2483 145.44C50.3536 145.714 50.1483 145.3 50.1483 145.3L48.4296 145.024L48.359 144.057C48.359 144.057 49.5296 144.61 50.5603 144.128C51.591 143.644 52.2803 143.852 53.1056 144.057C53.9296 144.266 56.1976 143.852 56.1976 143.852L55.9936 145.024ZM48.9843 146.057C49.6363 146.365 51.0176 146.641 50.975 146.997C50.7336 148.997 48.951 147.108 47.7963 146.593C47.0043 146.238 45.519 146.737 45.6616 147.608C45.803 148.481 46.3843 148.572 46.279 148.573C46.1723 148.573 45.1776 147.854 45.1363 147.333C44.9403 144.712 47.9736 145.578 48.9843 146.057ZM56.0616 145.852C55.1963 146.24 53.1083 146.348 53.1736 146.818C53.4896 149.108 56.5096 146.538 57.9856 145.922C59.635 145.232 60.3483 146.474 59.9803 147.438C59.6136 148.405 58.399 148.888 58.535 148.888C58.675 148.888 60.5496 148.117 60.667 147.438C61.3176 143.726 57.519 145.196 56.0616 145.852V145.852ZM54.975 151.174C55.1723 151.305 55.911 149.529 54.9323 149.252C54.103 149.076 54.2776 149.121 53.2776 149.646C52.2763 150.169 52.1443 150.125 51.7963 150.038C51.4496 149.95 51.143 149.384 51.579 149.294C52.0136 149.208 52.6243 149.253 52.9723 148.902C53.319 148.552 55.1056 148.421 55.6296 148.99C55.8016 149.513 56.6723 150.388 54.975 151.174ZM44.9603 155.938C44.7403 155.878 44.6536 155.776 44.351 155.805L44.131 156.285C44.131 156.285 44.435 156.724 44.7843 156.594C45.1323 156.461 44.9603 155.938 44.9603 155.938ZM48.4856 156.505L49.4016 156.2C49.4016 156.2 49.619 156.068 49.4016 155.761C49.183 155.456 49.4456 155.194 48.7923 155.194C48.1363 155.194 48.3123 155.805 48.4856 156.505ZM47.919 156.461C47.963 156.068 47.6603 155.63 47.4843 155.368C47.3096 155.108 46.179 154.932 45.7856 155.152C45.3936 155.368 45.1323 156.81 45.1323 156.81L45.699 156.897C45.699 156.897 45.6256 156.568 45.699 156.024C45.7736 155.482 46.8376 155.445 47.1816 155.718C47.5216 155.993 47.4416 156.636 47.4416 156.636L47.919 156.461ZM48.7483 157.422C48.7483 157.422 48.2683 157.685 47.223 157.904C46.179 158.121 44.3056 157.816 44.3056 157.816C44.3056 157.816 44.1763 158.253 44.6976 158.472C45.2203 158.689 45.9163 158.778 46.7016 158.778C47.4843 158.778 47.6163 158.865 48.7043 158.077C49.7936 157.292 48.7483 157.422 48.7483 157.422V157.422ZM49.4016 158.209C48.6936 159.904 44.5163 159.188 44.1763 159.04L44.3056 159.564C44.2043 159.597 44.8323 160.045 46.3976 160.045C47.703 160.13 48.3123 159.868 49.183 159.781C50.0536 159.696 49.4016 159.17 49.663 158.821C49.9243 158.472 49.4016 158.209 49.4016 158.209V158.209ZM50.403 159.957C50.403 159.957 50.447 161.268 49.9243 161.094C49.4016 160.917 48.5296 160.786 47.6603 161.18C46.7883 161.573 46.875 161.31 45.9616 161.31C45.047 161.31 45.5243 161.354 44.9163 161.18C44.3056 161.005 43.739 160.742 43.739 160.742L43.611 159.17L42.6963 158.646C42.6963 158.646 42.999 157.597 43.435 157.422C43.8683 157.248 43.827 156.505 43.827 156.505C43.827 156.505 43.1736 155.194 43.959 155.02C44.7403 154.844 45.5696 154.408 47.5723 154.581C49.575 154.758 49.2256 154.496 49.139 154.189C49.0536 153.884 49.0096 152.266 48.9216 151.873C48.835 151.48 48.5296 150.826 48.5296 150.388C48.5296 149.95 48.8776 149.208 49.4016 149.208C49.9243 149.208 50.315 149.384 49.7496 149.776C49.183 150.169 49.183 149.993 49.183 150.518C49.183 151.044 49.835 154.145 50.0536 155.02C50.2723 155.892 50.6203 157.641 50.447 158.297C50.2723 158.95 50.1416 159.04 50.403 159.957V159.957ZM56.403 156.662C56.2296 156.682 55.879 156.726 55.703 156.442C55.6843 155.917 55.9443 155.917 56.055 155.654C56.1643 155.39 56.667 155.324 56.667 155.324C56.667 155.324 56.731 155.829 56.5763 155.917C56.4243 156.004 56.403 156.662 56.403 156.662V156.662ZM61.8083 156.284C61.8083 156.284 60.639 156.542 60.4163 156.505C60.1963 156.468 60.4496 156.062 60.3003 155.878C60.155 155.693 60.999 155.805 61.2563 156.025C61.515 156.248 61.8083 156.284 61.8083 156.284ZM60.0083 156.689L59.0896 156.726C59.0896 156.726 59.1256 155.768 58.3536 155.805C57.5816 155.841 57.839 156.669 57.5083 156.689L56.883 156.726C57.2803 155.622 57.3576 155.156 58.5896 155.242C59.4523 155.302 60.1856 156.386 60.0083 156.689V156.689ZM63.1696 157.094C63.1696 157.094 61.8083 158.164 60.0083 158.829C58.207 159.493 56.4403 158.829 56.4403 158.829C56.4403 158.829 55.6683 158.313 56.331 158.128C56.9923 157.942 58.4643 158.274 60.375 157.649C62.2883 157.021 62.7656 156.578 62.7656 156.578C62.7656 156.578 63.575 156.468 63.1696 157.094ZM58.1296 153.337C55.5936 154.49 54.9776 155.81 54.947 156.17C54.9163 156.533 55.1883 157.225 55.0683 157.438C54.947 157.649 54.7963 157.98 54.5256 158.281C54.255 158.582 54.947 158.944 55.007 158.794C55.0683 158.644 55.0963 158.612 55.519 158.794C55.939 158.974 56.179 159.396 57.711 159.488C59.243 159.577 59.723 159.426 61.0763 158.885C62.427 158.341 64.231 156.622 64.231 156.622C64.231 156.622 63.9883 156.02 62.8483 155.96C61.707 155.9 62.067 155.778 61.4363 155.478C61.1563 155.117 59.087 154.836 57.967 154.674C57.5323 154.612 57.7216 154.628 57.111 154.513C57.2296 154.332 58.1923 153.368 58.1296 153.337" fill="#034EA1"/>
<path fill-rule="evenodd" clip-rule="evenodd" d="M61.1874 112.499C61.1874 113.109 58.8528 124.097 58.0434 126.235C57.2314 128.371 55.3341 132.327 54.6248 132.632C53.9168 132.937 51.6554 137.732 51.6554 137.732L49.6261 133.661C49.6261 133.661 53.6141 126.947 54.6968 124.097C55.7768 121.249 57.9074 113.109 57.6381 112.599C57.6381 112.091 61.1874 112.396 61.1874 112.499Z" fill="#EC1C24"/>
<path d="M49.6262 133.661C49.6262 133.661 53.6142 126.947 54.6969 124.097C55.7769 121.248 57.9076 113.11 57.6382 112.599C57.6382 112.091 61.1876 112.396 61.1876 112.499C61.1876 113.11 58.8529 124.097 58.0436 126.235C57.2316 128.371 55.3342 132.327 54.6249 132.632" stroke="#00A551" stroke-width="0.869333" stroke-miterlimit="2.613" stroke-linecap="round" stroke-linejoin="round"/>
<path fill-rule="evenodd" clip-rule="evenodd" d="M74.2617 134.776C74.2617 134.776 74.831 136.165 73.347 136.464C72.163 137.192 72.8217 137.901 73.051 138.099C73.1777 138.297 75.4004 138.675 75.7244 137.08C76.0457 135.484 75.5097 134.539 74.943 133.809C74.3777 133.081 73.5417 131.809 71.6044 131.864C69.663 131.916 69.7724 132.136 69.5297 132.459C69.2884 132.783 69.691 132.783 70.4177 132.729C71.1457 132.675 72.627 132.567 72.303 133.755C71.9804 134.945 71.683 134.485 70.903 134.675C70.1217 134.861 69.395 135.268 69.9057 136.268C70.4177 137.268 71.899 136.916 72.2777 135.971C72.6524 135.027 73.2204 134.161 73.139 133.971C73.059 133.783 74.363 134.34 74.2617 134.776ZM67.003 132.255C67.391 132.255 67.7084 131.937 67.7084 131.549C67.7084 131.161 67.391 130.845 67.003 130.845C66.6164 130.845 66.2977 131.161 66.2977 131.549C66.2977 131.937 66.6164 132.255 67.003 132.255ZM62.807 128.128L61.0017 126.047L62.595 124.18C64.9097 126.103 66.5404 123.505 64.7457 121.64L66.8177 118.948L69.187 121.605C67.8297 122.781 67.8004 125.971 71.2324 124.249L72.7897 126.047L70.9857 128.128C70.4044 127.399 69.8404 127.305 68.9057 127.516C67.143 128.941 68.6244 130.581 69.047 131.62L66.9657 133.424L64.7457 131.443C67.3337 127.925 64.243 126.527 62.807 128.128ZM71.623 126.081C71.623 125.692 71.3057 125.376 70.9177 125.376C70.5297 125.376 70.2137 125.692 70.2137 126.081C70.2137 126.469 70.5297 126.787 70.9177 126.787C71.3057 126.787 71.623 126.469 71.623 126.081ZM67.0924 124.467C66.235 124.467 65.539 125.164 65.539 126.019C65.539 126.872 66.235 127.569 67.0924 127.569C67.9457 127.569 68.6444 126.872 68.6444 126.019C68.6444 125.164 67.9457 124.467 67.0924 124.467ZM67.115 120.791C66.7257 120.791 66.4097 121.107 66.4097 121.495C66.4097 121.883 66.7257 122.2 67.115 122.2C67.503 122.2 67.819 121.883 67.819 121.495C67.819 121.107 67.503 120.791 67.115 120.791V120.791ZM62.1697 126.081C62.1697 125.692 62.4857 125.376 62.875 125.376C63.263 125.376 63.5804 125.692 63.5804 126.081C63.5804 126.469 63.263 126.787 62.875 126.787C62.4857 126.787 62.1697 126.469 62.1697 126.081ZM63.459 132.165C63.459 132.165 61.595 133.017 60.8537 131.713C60.1124 130.408 60.2524 129.407 61.6124 129.364C62.971 129.32 62.8097 130.163 62.9964 130.44C63.1804 130.721 63.503 130.548 64.015 129.975C64.5297 129.404 65.207 129.343 64.4804 130.813C63.7857 132.165 63.459 132.165 63.459 132.165V132.165ZM70.0617 121.877C70.0617 121.877 71.839 120.739 71.295 119.304C70.7524 117.867 70.2604 118.312 69.9124 118.263C69.5697 118.213 68.9764 119.005 69.519 119.799C70.2097 120.391 70.407 121.284 70.0617 121.877" fill="#CE482C"/>
<path fill-rule="evenodd" clip-rule="evenodd" d="M67.5391 117.133L70.1311 114.893C70.4737 113.079 70.0644 109.378 71.3244 109.417C71.9684 109.687 74.0097 110.154 73.1457 107.998C72.1791 107.174 69.6137 106.729 68.6831 110.117L68.3844 113.685C68.1017 114.35 66.9764 114.167 66.8764 113.502C67.1924 110.907 67.0031 109.809 66.5151 108.663C66.1217 107.113 65.2191 106.83 63.8617 107.214C62.4857 107.939 62.7684 109.755 64.2857 109.45C65.3244 109.403 65.1631 112.246 65.3084 114.35L67.5391 117.133Z" fill="#CE482C"/>
<path fill-rule="evenodd" clip-rule="evenodd" d="M31.2904 99.0599C29.9611 99.0599 28.8771 97.9746 28.8771 96.6453C28.8771 95.3146 29.9611 94.2293 31.2904 94.2293C32.6224 94.2293 33.7077 95.3146 33.7077 96.6453C33.7077 97.9746 32.6224 99.0599 31.2904 99.0599Z" fill="#CE482C"/>
<path fill-rule="evenodd" clip-rule="evenodd" d="M28.9584 96.9649C29.5317 95.8022 29.8997 95.7155 30.5037 95.7555C30.801 95.7729 31.633 96.1862 32.005 97.1049C30.9037 96.3649 30.9064 96.1569 30.413 96.1515C29.9477 96.1489 29.5784 96.4369 28.9584 96.9649Z" fill="#00A551"/>
<path d="M34.53 116.211V165.79L30.262 169.943L25.9927 165.659V115.432" stroke="#034EA1" stroke-width="1.13333" stroke-miterlimit="2.613" stroke-linecap="round" stroke-linejoin="round"/>
<path fill-rule="evenodd" clip-rule="evenodd" d="M31.0364 115.693L30.3151 160.747L29.8738 115.95L31.0364 115.693Z" fill="#034EA1"/>
<path fill-rule="evenodd" clip-rule="evenodd" d="M23.3751 115.307L34.4258 116.107C34.4258 116.107 39.6245 115.627 40.1285 114.463C40.6365 113.302 41.1991 111.386 39.8258 110.878C38.4511 110.37 37.1245 110.217 36.6885 111.162C36.2551 112.105 35.7831 113.505 35.7831 113.505L23.5191 112.985L23.3751 115.307Z" fill="#CE482C"/>
<path fill-rule="evenodd" clip-rule="evenodd" d="M46.7369 109.615C46.7369 109.615 48.1649 99.384 47.4169 98.7026C46.6689 98.0213 42.3196 93.9266 41.1636 91.404C40.0076 88.88 37.7649 84.6506 38.5129 79.1253C39.2609 73.6013 39.8462 74.088 39.8462 74.088L35.8329 68.192C30.9462 70.4013 26.9476 73.3786 23.7996 77.0853C38.6222 85.76 43.4449 96.896 45.0702 108.817L46.7369 109.615Z" fill="#EC1C24"/>
<path d="M46.7369 109.615C46.7369 109.615 48.1649 99.384 47.4169 98.7026C46.6689 98.0213 42.3196 93.9266 41.1636 91.404C40.0076 88.88 37.7649 84.6506 38.5129 79.1253C39.2609 73.6013 39.8462 74.088 39.8462 74.088L35.8329 68.192C30.9462 70.4013 26.9476 73.3786 23.7996 77.0853C38.6222 85.76 43.4449 96.896 45.0702 108.817L46.7369 109.615Z" stroke="#034EA1" stroke-width="0.869333" stroke-miterlimit="2.613" stroke-linecap="round" stroke-linejoin="round"/>
<path d="M46.2591 62.5625L35.8337 68.1919C30.9471 70.4012 26.9484 73.3785 23.7991 77.0852" stroke="#034EA1" stroke-width="0.869333" stroke-miterlimit="2.613" stroke-linecap="round" stroke-linejoin="round"/>
<path fill-rule="evenodd" clip-rule="evenodd" d="M39.6602 73.9948C39.8362 74.2428 39.8215 73.7348 39.9895 73.9842C44.7082 80.9735 46.9588 89.9762 47.5588 98.8015L47.0802 98.1735L46.8575 96.5362L44.0335 93.5788L45.7282 92.2562L46.4175 93.1362C46.2108 91.3615 46.0215 90.3642 45.3522 89.8015L44.4735 90.1162L45.1015 91.3735L43.0295 92.3202L41.0855 88.6682L43.4082 88.0388L43.8455 88.7948L44.7895 88.2282L43.8455 85.0802L42.4042 85.2055L42.7815 86.9682L40.5842 87.2842C40.1975 86.0028 39.9268 84.2628 39.7068 82.3095L42.0268 82.3722L42.1522 83.8202H43.4695L43.2802 81.2415L42.1522 78.9735L41.9655 80.9895L39.7708 80.9255L40.3975 75.7015L39.6602 73.9948Z" fill="#034EA1"/>
<path fill-rule="evenodd" clip-rule="evenodd" d="M23.6809 85.3594L24.0836 85.278C27.2956 84.4727 31.6369 91.4874 34.0476 94.2287C36.4569 96.97 38.4663 105.599 38.4663 105.599L45.2156 109.065C45.2156 109.065 43.0463 95.9474 38.3863 90.1407C33.7263 84.3354 27.9903 78.242 23.4103 77.1127L23.6809 85.3594Z" fill="#CE482C"/>
<path d="M23.6809 85.3594L24.0836 85.278C27.2956 84.4727 31.6369 91.4874 34.0476 94.2287C36.4569 96.97 38.4662 105.599 38.4662 105.599" stroke="#00A551" stroke-width="0.756" stroke-miterlimit="2.613" stroke-linecap="round" stroke-linejoin="round"/>
<path d="M45.2161 109.065C45.2161 109.065 43.0468 95.9477 38.3868 90.1411C33.7268 84.3357 27.9908 78.2424 23.4108 77.1131" stroke="#034EA1" stroke-width="0.756" stroke-miterlimit="2.613" stroke-linecap="round" stroke-linejoin="round"/>
<path d="M43.5038 108.134C41.5771 93.7062 34.4825 84.9195 23.8531 79.3955" stroke="#00A551" stroke-width="0.869333" stroke-miterlimit="2.613" stroke-linecap="round" stroke-linejoin="round"/>
<path fill-rule="evenodd" clip-rule="evenodd" d="M36.918 96.5886C38.298 95.486 40.0353 96.3393 40.39 96.5166C40.7433 96.6953 41.1686 98.0446 41.2393 98.898C41.3113 99.7526 38.582 101.209 38.582 101.209C39.1206 100.49 39.6993 99.7366 39.8566 98.8286L37.5913 99.0766C37.282 99.0153 37.2953 98.4966 37.5206 98.4006L39.538 97.37C39.258 96.574 38.146 96.5273 36.918 96.5886Z" fill="#00A551"/>
<path fill-rule="evenodd" clip-rule="evenodd" d="M38.8698 102.35C40.3124 101.329 41.9964 102.281 42.3391 102.48C42.6818 102.677 43.0284 104.049 43.0498 104.906C43.0724 105.761 40.4791 106.846 40.4791 106.846C41.0578 106.158 41.4644 105.654 41.6751 104.756L39.3978 104.874C39.0938 104.797 39.1364 104.276 39.3658 104.196L41.4404 103.282C41.2071 102.472 40.0991 102.362 38.8698 102.35Z" fill="#00A551"/>
<path fill-rule="evenodd" clip-rule="evenodd" d="M33.6979 91.6069C34.8632 90.2789 36.7245 90.8122 37.1032 90.9242C37.4832 91.0389 38.1392 92.2936 38.3579 93.1216C38.5792 93.9482 36.1499 95.8616 36.1499 95.8616C36.5512 95.0602 36.9899 94.2176 36.9859 93.2949L34.7979 93.9376C34.4872 93.9322 34.4045 93.4189 34.6099 93.2856L36.4152 91.9136C35.9992 91.1829 34.8965 91.3309 33.6979 91.6069Z" fill="#00A551"/>
<path fill-rule="evenodd" clip-rule="evenodd" d="M29.5651 86.8034C30.4717 85.286 32.3971 85.4767 32.7904 85.518C33.1837 85.5594 34.0557 86.6767 34.4237 87.45C34.7877 88.2234 32.7437 90.546 32.7437 90.546C32.9957 89.6834 33.2731 88.7754 33.1037 87.8687L31.0691 88.8954C30.7597 88.9487 30.5891 88.4567 30.7651 88.2887L32.2944 86.6154C31.7517 85.9687 30.6957 86.3154 29.5651 86.8034Z" fill="#00A551"/>
<path fill-rule="evenodd" clip-rule="evenodd" d="M24.6914 83.4792C25.1634 81.7765 27.0727 81.4512 27.4634 81.3885C27.8554 81.3245 28.9901 82.1699 29.5474 82.8205C30.1047 83.4712 28.7461 86.2499 28.7461 86.2499C28.7621 85.3499 28.7887 84.4019 28.3861 83.5712L26.6941 85.1019C26.4114 85.2325 26.1141 84.8032 26.2394 84.5952L27.2754 82.5765C26.5794 82.0965 25.6514 82.7099 24.6914 83.4792Z" fill="#00A551"/>
<path d="M42.4167 122.794C42.4167 122.794 37.762 122.344 39.666 127.265" stroke="#00A551" stroke-width="0.869333" stroke-miterlimit="2.613" stroke-linecap="round" stroke-linejoin="round"/>
<path d="M42.97 121.337C42.97 121.337 35.2607 120.032 38.714 128.52" stroke="#00A551" stroke-width="0.869333" stroke-miterlimit="2.613" stroke-linecap="round" stroke-linejoin="round"/>
<path fill-rule="evenodd" clip-rule="evenodd" d="M34.7838 130.685C37.9545 127.706 34.9278 125.032 34.7851 125.032L34.7838 130.685Z" fill="#00A551"/>
<path fill-rule="evenodd" clip-rule="evenodd" d="M90.4415 139.492L88.1175 140.39L86.9561 140.028L86.0641 138.955L84.0961 139.404L83.0255 138.687L81.5081 139.134H80.0801C75.1881 131.38 72.7921 121.82 71.9495 110.722H78.5601C80.4335 120.862 84.0401 130.547 90.4415 139.492Z" fill="#CE482C"/>
<path fill-rule="evenodd" clip-rule="evenodd" d="M86.7774 139.404C82.3187 132.153 78.3961 124.164 77.0414 112.604H73.1121C74.4534 122.313 76.7401 131.336 80.7027 139.134L83.0267 138.865L84.0961 139.134L86.7774 139.404Z" fill="#EC1C24"/>
<path d="M86.7774 139.404C82.3187 132.153 78.3961 124.164 77.0414 112.604H73.1121C74.4534 122.313 76.7401 131.336 80.7027 139.134L83.0267 138.865L84.0961 139.134L86.7774 139.404Z" stroke="#00A551" stroke-width="0.869333" stroke-miterlimit="2.613" stroke-linecap="round" stroke-linejoin="round"/>
<path fill-rule="evenodd" clip-rule="evenodd" d="M56.9172 106.399H76.6453V98.7893H56.9172V106.399Z" fill="#EC1C24"/>
<path fill-rule="evenodd" clip-rule="evenodd" d="M66.9128 98.9921C68.9261 98.9921 70.5634 100.631 70.5634 102.643C70.5634 104.655 68.9261 106.295 66.9128 106.295C64.9034 106.295 63.2621 104.655 63.2621 102.643C63.2621 100.631 64.9034 98.9921 66.9128 98.9921Z" fill="#CE482C"/>
<path fill-rule="evenodd" clip-rule="evenodd" d="M66.9128 100.148C68.2874 100.148 69.4088 101.27 69.4088 102.643C69.4088 104.015 68.2874 105.136 66.9128 105.136C65.5394 105.136 64.4194 104.015 64.4194 102.643C64.4194 101.27 65.5394 100.148 66.9128 100.148Z" fill="#CE482C"/>
<path fill-rule="evenodd" clip-rule="evenodd" d="M66.9128 101.497C67.5461 101.497 68.0608 102.012 68.0608 102.643C68.0608 103.275 67.5461 103.789 66.9128 103.789C66.2808 103.789 65.7701 103.275 65.7701 102.643C65.7701 102.012 66.2808 101.497 66.9128 101.497Z" fill="#231F20"/>
<path d="M83.4636 66.0287C83.205 67.2087 85.317 72.6434 89.2876 69.8154C90.9916 68.6034 89.501 61.81 88.305 62.078" stroke="#034EA1" stroke-width="0.869333" stroke-miterlimit="2.613" stroke-linecap="round" stroke-linejoin="round"/>
<path d="M61.0014 136.643C61.0014 136.643 61.3227 133.315 59.5574 132.562C57.7934 131.813 56.6614 130.755 54.852 132.294C52.3934 134.389 51.4854 138.097 51.6294 137.81" stroke="#034EA1" stroke-width="0.869333" stroke-miterlimit="2.613" stroke-linecap="round" stroke-linejoin="round"/>
<path d="M51.1588 137.689C51.4161 136.51 49.3054 131.073 45.3348 133.901C43.6308 135.113 45.1214 141.906 46.3188 141.641" stroke="#034EA1" stroke-width="0.869333" stroke-miterlimit="2.613" stroke-linecap="round" stroke-linejoin="round"/>
<path d="M86.8203 140.254C86.8203 140.254 86.3296 136.862 81.9229 140.955C77.5149 145.053 73.6096 162.958 74.1083 162.958" stroke="#034EA1" stroke-width="0.869333" stroke-miterlimit="2.613" stroke-linecap="round" stroke-linejoin="round"/>
<path d="M84.0208 139.435C84.0208 139.435 82.5034 136.742 79.2394 141.776C75.9741 146.807 72.4754 162.139 72.1248 163.424" stroke="#034EA1" stroke-width="0.869333" stroke-miterlimit="2.613" stroke-linecap="round" stroke-linejoin="round"/>
<path d="M81.4543 139.201C81.4543 139.201 80.229 137.914 77.373 141.777C74.5157 145.637 71.2783 158.685 70.4023 163.873" stroke="#034EA1" stroke-width="0.869333" stroke-miterlimit="2.613" stroke-linecap="round" stroke-linejoin="round"/>
<path d="M46.4401 60.0938C46.4401 59.9071 46.9028 61.9418 48.1281 61.6164C49.3521 61.2884 49.8788 59.5911 49.3521 58.7391C47.4561 55.6764 42.8481 59.5311 45.2294 62.2218C46.9054 64.1218 47.6454 63.4591 50.0708 62.5524C52.4934 61.6431 58.6508 47.9084 58.5014 40.9351" stroke="#034EA1" stroke-width="0.869333" stroke-miterlimit="2.613" stroke-linecap="round" stroke-linejoin="round"/>
<path d="M47.8021 63.4636C47.8021 63.4636 48.2928 66.8569 52.7008 62.7609C57.1075 58.6636 61.0115 40.7596 60.5155 40.7583" stroke="#034EA1" stroke-width="0.869333" stroke-miterlimit="2.613" stroke-linecap="round" stroke-linejoin="round"/>
<path d="M50.6016 64.2826C50.6016 64.2826 52.1162 66.9746 55.3842 61.9412C58.6482 56.9092 62.1469 41.5786 62.4962 40.2906" stroke="#034EA1" stroke-width="0.869333" stroke-miterlimit="2.613" stroke-linecap="round" stroke-linejoin="round"/>
<path d="M53.168 64.5156C53.168 64.5156 54.3933 65.8036 57.2493 61.941C60.1066 58.0796 63.3426 45.033 64.22 39.8436" stroke="#034EA1" stroke-width="0.869333" stroke-miterlimit="2.613" stroke-linecap="round" stroke-linejoin="round"/>
<path d="M73.6197 67.073C73.6197 67.073 73.2997 70.401 75.0637 71.1543C76.8304 71.9036 77.7384 72.657 79.7717 71.4223C81.8037 70.1876 82.5877 65.9276 82.5877 65.9276" stroke="#034EA1" stroke-width="0.869333" stroke-miterlimit="2.613" stroke-linecap="round" stroke-linejoin="round"/>
<path d="M133.238 195.557C133.238 199.401 130.124 202.516 126.28 202.516" stroke="#231F20" stroke-width="0.666667" stroke-miterlimit="2.613"/>
<path d="M126.28 202.516H7.98401" stroke="#231F20" stroke-width="0.666667" stroke-miterlimit="2.613"/>
<path d="M7.98441 202.516C4.14041 202.516 1.02441 199.401 1.02441 195.557" stroke="#231F20" stroke-width="0.666667" stroke-miterlimit="2.613"/>
<path d="M1.02478 195.557V7.67471" stroke="#231F20" stroke-width="0.666667" stroke-miterlimit="2.613"/>
<path d="M1.02478 7.67456C1.02478 3.83056 4.14078 0.715894 7.98478 0.715894" stroke="#231F20" stroke-width="0.666667" stroke-miterlimit="2.613"/>
<path d="M7.98444 0.716187H126.28" stroke="#231F20" stroke-width="0.666667" stroke-miterlimit="2.613"/>
<path d="M126.28 0.716139C130.124 0.716139 133.239 3.83081 133.239 7.6748" stroke="#231F20" stroke-width="0.666667" stroke-miterlimit="2.613"/>
<path d="M133.238 7.67453V195.557" stroke="#231F20" stroke-width="0.666667" stroke-miterlimit="2.613"/>
<path d="M24.4153 181.214V22.0163H109.847V181.214H24.4153ZM23.738 182.566H111.203V20.667H23.0593V182.566H23.738Z" fill="#034EA1"/>
<path fill-rule="evenodd" clip-rule="evenodd" d="M21.6888 30.5861V33.0701H15.3875V30.5861H17.6768L14.0061 22.4341L11.8768 25.8141V30.5861H13.8835V33.0701H7.28748V30.5861H9.15281V12.4381H7.28748V9.99274H13.5901V12.4381H11.8768V20.7607L17.1235 12.4381H15.3875V9.99274H21.6888V12.4381H20.3168L15.7315 19.7034L20.5941 30.5861H21.6888Z" fill="#231F20"/>
<path fill-rule="evenodd" clip-rule="evenodd" d="M112.573 172.641V170.157H118.876V172.641H116.586L120.256 180.793L122.388 177.413V172.641H120.378V170.157H126.976V172.641H125.112V190.789H126.976V193.237H120.673V190.789H122.388V182.466L117.14 190.789H118.876V193.237H112.573V190.789H113.946L118.533 183.523L113.668 172.641H112.573Z" fill="#231F20"/>
<path d="M12.4896 53.9506C13.6989 52.7226 13.8963 50.3559 13.9616 49.7839C14.0283 49.2119 13.8749 49.0866 13.7643 49.0666C13.6549 49.0439 13.5349 49.2399 13.4776 49.5106C13.2149 50.8199 12.2536 51.3719 11.7869 51.4546C9.61359 51.8359 8.89359 50.4146 8.68959 50.0359C7.56959 47.9666 10.0749 44.7426 10.4949 44.2452C12.8376 41.4372 14.4883 38.4092 14.4883 38.4092C14.4883 38.4092 16.1416 41.4372 18.4869 44.2452C18.9056 44.7426 21.4069 47.9666 20.2896 50.0359C20.0856 50.4146 19.3643 51.8359 17.1909 51.4546C16.7243 51.3719 15.7643 50.8199 15.4976 49.5106C15.4456 49.2399 15.3229 49.0439 15.2136 49.0666C15.1043 49.0866 14.9496 49.2119 15.0163 49.7839C15.0816 50.3559 15.2803 52.7226 16.4869 53.9506H12.4896Z" fill="#231F20"/>
<path d="M121.772 149.284C120.564 150.509 120.365 152.877 120.301 153.448C120.233 154.021 120.387 154.147 120.497 154.167C120.608 154.188 120.731 153.992 120.784 153.724C121.047 152.413 122.008 151.86 122.475 151.777C124.649 151.397 125.369 152.817 125.572 153.196C126.692 155.267 124.187 158.489 123.772 158.988C121.425 161.795 119.775 164.824 119.775 164.824C119.775 164.824 118.123 161.795 115.776 158.988C115.359 158.489 112.855 155.267 113.975 153.196C114.177 152.817 114.897 151.397 117.073 151.777C117.539 151.86 118.501 152.413 118.764 153.724C118.816 153.992 118.939 154.188 119.048 154.167C119.159 154.147 119.312 154.021 119.248 153.448C119.181 152.877 118.983 150.509 117.775 149.284H121.772Z" fill="#231F20"/>
</svg>
