<svg width="134" height="203" viewBox="0 0 134 203" fill="none" xmlns="http://www.w3.org/2000/svg">
<path fill-rule="evenodd" clip-rule="evenodd" d="M78.8164 148.335C74.1737 148.179 70.7871 147.563 65.6884 145.109C56.9217 147.075 53.6817 147.489 48.0791 147.301C48.0791 147.301 41.5524 136.209 36.871 132.952C32.191 129.696 47.3124 131.687 47.3124 131.687L84.2164 133.133C84.2164 133.133 78.455 149.059 78.8164 148.335Z" fill="#DA4534"/>
<path fill-rule="evenodd" clip-rule="evenodd" d="M33.2473 76.9844L35.3153 73.1911H37.2633L34.586 78.0844L33.2473 76.9844Z" fill="#DA4534"/>
<path fill-rule="evenodd" clip-rule="evenodd" d="M27.0481 93.2694L28.0055 92.7254L28.0881 91.7627L28.5055 90.2561L28.4215 89.2947L27.0068 89.0014L26.4641 90.4227V91.9707L26.2575 93.0187L27.0481 93.2694Z" fill="#DA4534"/>
<path fill-rule="evenodd" clip-rule="evenodd" d="M26.694 92.2147C27.0433 91.9654 27.2167 92.1454 27.5207 92.1774C27.442 92.5227 27.2313 93.0694 27.018 92.9507C26.5447 92.6867 26.61 92.4734 26.694 92.2147ZM27.1407 89.1667C27.302 88.8601 28.2887 89.7107 28.2887 89.7107C28.3753 90.3987 28.0553 91.4241 27.766 91.5027C27.0793 91.6907 27.4167 91.2081 27.2353 91.3614C26.846 91.6961 26.5167 91.3907 26.5873 91.3121C26.9793 90.8707 26.9807 89.4707 27.1407 89.1667ZM26.5553 88.7734C26.5553 88.7734 25.926 92.0027 25.9953 92.6347C26.0647 93.2681 26.4927 93.7587 27.3913 93.4081C28.2913 93.0574 28.8047 90.4401 28.8833 90.2161C29.2033 89.2947 27.6047 88.8881 26.5553 88.7734" fill="#034EA1"/>
<path fill-rule="evenodd" clip-rule="evenodd" d="M32.3763 78.4088C32.6643 78.1222 33.5656 79.7262 33.5656 79.7262C33.5656 79.7262 32.9083 79.5208 32.5003 79.0262C32.0896 78.5328 32.3763 78.4088 32.3763 78.4088ZM28.9403 88.0342H29.6896L29.9096 88.6102L29.6456 89.1435C29.6456 89.1435 29.3816 89.4528 28.9403 89.4088C28.4989 89.3648 28.5869 88.6995 28.5869 88.6995L28.9403 88.0342ZM30.3083 86.6142C30.5283 87.5915 29.4696 87.3702 29.4696 87.3702L28.9843 86.8808C28.9843 86.8808 29.1616 86.7475 29.2483 86.1275C29.3376 85.5062 29.8669 85.9942 29.8669 85.9942L30.3083 86.6142ZM31.4109 84.0875L31.7203 84.7528C31.7203 84.7528 31.8083 85.5062 31.5429 85.7275C31.2789 85.9502 30.7496 85.8182 30.3963 85.8622C30.0429 85.9048 29.4309 84.8368 29.9096 84.3982C30.3909 83.9582 30.8829 83.8208 31.4109 84.0875ZM30.8829 82.8888C30.1763 81.8262 31.8083 81.7808 32.3389 82.1355C32.8669 82.4902 32.4696 83.1995 32.4696 83.1995L31.7203 83.6435L30.8829 82.8888ZM27.1403 89.1662L28.2896 89.7115C28.2896 89.7115 26.8296 89.0182 27.1403 89.1662ZM28.7203 87.4608C28.9429 87.9968 27.9589 88.6595 27.9589 88.6595C27.0883 88.3502 26.6283 87.6302 26.3963 86.7035C26.2696 86.2035 26.8683 85.6902 27.2069 86.0862C27.5896 86.5355 28.4976 86.9248 28.7203 87.4608V87.4608ZM28.9989 85.1435C29.4443 86.0048 28.4483 86.3422 28.4483 86.3422C27.9603 86.1688 27.6669 85.7288 27.2443 85.3808C26.8256 85.0342 26.6043 84.5448 26.6749 84.0342C26.7456 83.5248 27.0096 83.0235 27.3469 83.4182C27.7269 83.8648 28.9989 85.1435 28.9989 85.1435V85.1435ZM30.9096 83.6795C29.0123 83.7395 29.3416 84.6195 29.3416 84.6195C28.7816 84.2688 28.1696 83.6462 27.7429 83.0968C27.3176 82.5475 27.0643 81.5728 27.5549 81.0168C28.0456 80.4608 28.1936 80.1115 28.5043 80.7008C28.8549 81.3648 30.9096 83.6795 30.9096 83.6795V83.6795ZM32.4923 81.4715C30.6069 81.1195 30.3269 82.1035 30.3269 82.1035C30.3269 82.1035 28.9296 81.0488 28.8589 79.9248C28.7896 78.8022 29.2083 78.7315 30.1176 78.4502C31.0256 78.1688 31.3043 77.8875 31.0949 78.5208C30.8843 79.1542 32.4923 81.4715 32.4923 81.4715V81.4715ZM30.1176 91.5835L30.3963 91.1608L29.6976 89.8968L30.3963 88.7035C30.3043 88.2115 29.9536 87.7448 30.3789 87.7288C30.6123 87.7195 30.9056 87.4675 30.8149 87.0182C30.6296 86.1035 32.3509 86.3848 32.2123 84.9822C32.0723 83.5768 33.4016 82.8048 33.4016 82.8048C33.4016 82.8048 35.0749 82.7342 34.5176 84.2088C33.9589 85.6835 34.1696 86.1742 34.1696 86.1742L34.8669 86.3155C34.8669 86.3155 34.8336 84.3955 35.2163 83.4368C35.4949 82.7342 33.6803 81.8915 32.7723 80.8382C31.8616 79.7848 30.9563 76.7662 32.7003 77.3262C34.4483 77.8875 34.7963 78.8728 34.7963 78.8728C34.7963 78.8728 39.6176 82.6635 39.6176 84.1382C39.6176 84.7355 40.5363 85.2715 40.1963 84.0688C39.9003 83.0075 38.4736 80.7408 37.1723 79.8542C35.4643 78.6928 33.4709 76.7662 32.5629 76.7662C31.6536 76.7648 31.1949 76.9448 30.3963 77.5382C29.7376 78.0262 29.1389 77.8182 28.7896 78.5208C28.4403 79.2222 28.6496 79.5035 27.6709 80.1355C26.6936 80.7688 26.5549 81.4702 26.6936 82.3822C26.8336 83.2955 26.0656 82.7648 25.9949 83.7875C25.9256 84.8102 26.6936 84.8915 26.3456 85.4742C25.9963 86.0528 25.4363 86.8782 26.2056 87.8608C26.9723 88.8435 26.5549 88.7728 26.5549 88.7728L28.9989 90.1768L30.1176 91.5835Z" fill="#034EA1"/>
<path fill-rule="evenodd" clip-rule="evenodd" d="M97.8008 81.4194C101.185 82.318 104.967 84.2047 109.191 87.494L110.447 86.7407V76.2114C107.621 75.9167 104.871 75.39 102.282 74.3487L99.3541 79.1914L98.1061 79.13L97.8008 81.4194Z" fill="#034EA1"/>
<path fill-rule="evenodd" clip-rule="evenodd" d="M35.8099 122.5C32.3019 121.601 28.3792 119.713 24.0019 116.424L22.6965 117.177V127.708C25.6272 128.003 28.4819 128.528 31.1632 129.569L34.2165 124.565L35.5085 124.628L35.8099 122.5Z" fill="#034EA1"/>
<path fill-rule="evenodd" clip-rule="evenodd" d="M24.8295 115.637C28.0508 118.982 32.7175 121.218 38.6348 121.843C50.6908 123.117 61.4388 111.717 61.5495 103.094C61.6628 94.47 60.0735 91.6113 57.8335 88.7193L58.7255 87.6313C59.8401 89.2686 62.6801 95.0246 62.6761 98.5833C63.4401 102.143 62.0948 110.751 56.2975 116.033C50.5001 121.315 40.4855 128.809 24.0015 116.425L24.8295 115.637Z" fill="#DA4534"/>
<path d="M58.7252 87.6314C59.8399 89.2688 62.6799 95.0248 62.6759 98.5834C63.4399 102.143 62.0946 110.751 56.2972 116.033C50.4999 121.315 40.4852 128.809 24.0012 116.425" stroke="#00ADEE" stroke-width="0.944" stroke-miterlimit="2.613"/>
<path fill-rule="evenodd" clip-rule="evenodd" d="M96.3659 70.7083H50.3272L56.9539 56.6883H63.6272C67.0525 59.2576 69.4485 59.4669 74.7819 56.6883H85.6272C88.6152 61.6776 91.6045 65.8256 96.3659 70.7083Z" fill="#DA4534"/>
<path fill-rule="evenodd" clip-rule="evenodd" d="M33.5847 150.385C40.0807 160.315 47.402 171.423 53.8913 181.309H48.3593L29.8313 152.547C30.6567 151.956 32.186 151.776 33.5847 150.385Z" fill="#EC1C24"/>
<path fill-rule="evenodd" clip-rule="evenodd" d="M100.214 53.4844C93.7189 43.555 86.6896 32.495 80.2002 22.6084H85.2522L103.779 51.3724C102.954 51.963 101.612 52.0937 100.214 53.4844Z" fill="#EC1C24"/>
<path fill-rule="evenodd" clip-rule="evenodd" d="M32.97 65.8202L31.9714 63.2656L34.6034 64.6349C35.5687 62.4762 39.0767 62.8722 39.6834 64.7269L42.6754 63.6322L41.2234 66.3669C43.0087 67.7349 42.614 70.6536 40.5914 71.0176L41.3154 73.4789L39.4087 72.5682C37.87 74.5442 36.114 74.3909 34.3314 72.4762L31.9727 73.4789L33.1514 71.2002C31.6407 70.5016 30.5807 67.3416 32.97 65.8202Z" fill="#034EA1"/>
<path fill-rule="evenodd" clip-rule="evenodd" d="M32.97 65.8202L34.6034 64.6349C35.5687 62.4762 39.0767 62.8722 39.6834 64.7269L41.2234 66.3669C43.0087 67.7349 42.614 70.6536 40.5914 71.0176L39.4087 72.5682C37.87 74.5442 36.114 74.3909 34.3314 72.4762L33.1514 71.2002C31.6407 70.5016 30.5807 67.3416 32.97 65.8202Z" fill="#034EA1"/>
<path fill-rule="evenodd" clip-rule="evenodd" d="M64.7031 98.22L62.8671 98.248C62.7831 97.0253 62.3391 96.536 62.3537 95.264C62.4457 87.4947 64.9084 78.192 70.4244 70.708H73.8711C71.3311 75.3027 69.2484 79.86 67.7217 84.4467C66.1937 89.0307 65.2164 93.644 64.7031 98.22Z" fill="#DA4534"/>
<path fill-rule="evenodd" clip-rule="evenodd" d="M59.224 39.3046C59.6106 46.5832 60.8626 52.9152 63.4946 56.3526L64.4386 57.5739L57.1426 57.4686L59.224 39.3046Z" fill="#231F20"/>
<path fill-rule="evenodd" clip-rule="evenodd" d="M110.727 67.4349C109.505 66.5269 108.911 65.5776 107.996 64.2762C99.1532 51.6802 89.8652 35.9109 80.8332 21.9896H77.5212C86.1785 39.9949 90.7758 45.4816 97.1585 57.8029C103.539 70.1256 105.315 72.1256 110.556 73.4629L110.727 67.4349Z" fill="#231F20"/>
<path d="M80.8333 22.6081H85.252L103.779 51.3721C102.953 51.9641 101.841 51.8614 100.444 53.2521" stroke="#034EA1" stroke-width="1.13333" stroke-miterlimit="2.613"/>
<path fill-rule="evenodd" clip-rule="evenodd" d="M110.258 51.5078V46.1745C106.827 44.4145 103.947 31.7531 105.375 22.6078H85.2525L103.573 51.3718C101.585 51.2491 110.262 49.8785 110.258 51.5078Z" fill="#DA4534"/>
<path d="M67.0169 22.6745C66.6622 24.4998 65.5102 27.1718 63.9622 29.4585C62.6889 31.3385 61.1409 32.9692 59.5369 33.6812L59.2556 33.0438C60.7316 32.3905 62.1822 30.8532 63.3889 29.0705C64.8836 26.8625 65.9942 24.2932 66.3329 22.5438L67.0169 22.6745Z" fill="#034EA1"/>
<path d="M78.3385 35.315L78.3705 35.2857C80.6412 37.751 83.0892 40.1457 85.8252 42.0977C83.8532 38.179 81.2785 36.419 77.9105 33.575C78.0452 34.1457 78.1892 34.727 78.3385 35.315ZM79.0892 38.1057C81.4478 41.263 84.7052 44.3057 88.0412 46.4324C87.5225 45.4337 86.9998 44.415 86.4692 43.3724C83.5892 41.531 81.0332 39.1044 78.6852 36.635C78.8132 37.1217 78.9492 37.6124 79.0892 38.1057V38.1057ZM90.1465 50.399C89.6465 49.475 89.1505 48.5444 88.6518 47.599C85.2678 45.7857 82.0825 42.739 79.5905 39.8377C80.8692 44.1137 86.3932 48.1497 90.1465 50.399ZM81.4225 45.4244C84.2305 48.8897 87.8758 52.279 92.0958 53.9217C91.6478 53.1297 91.2065 52.3364 90.7692 51.539C89.2212 50.7577 87.0465 49.2164 84.9692 47.4537C83.3772 46.1017 81.8358 44.6177 80.6665 43.2364C80.9092 43.963 81.1612 44.6924 81.4225 45.4244V45.4244ZM82.8692 49.223C84.6278 50.9404 86.6865 52.8017 88.8172 54.4164C90.6465 55.8017 92.5305 57.003 94.3212 57.7657C93.7438 56.7884 93.1785 55.819 92.6252 54.851C88.5292 53.5097 84.9599 50.4697 82.1212 47.3097C82.3625 47.9497 82.6145 48.5857 82.8692 49.223V49.223ZM90.8292 58.047C92.6412 59.2364 94.4919 60.279 96.3985 61.199C95.8865 60.3697 95.3892 59.551 94.9012 58.739C92.8012 57.9964 90.5585 56.6097 88.3985 54.9737C86.6932 53.6817 85.0345 52.2324 83.5358 50.8244C84.9852 54.2137 87.7078 55.999 90.8292 58.047V58.047ZM92.7212 61.551C94.6652 62.827 96.6572 63.935 98.7092 64.903C96.4932 61.403 93.9612 60.935 90.4492 58.6297C88.7172 57.495 87.0252 56.227 85.3625 54.8044C86.8545 57.8417 89.9145 59.7084 92.7212 61.551V61.551ZM95.4358 65.4564C97.0332 66.3097 98.5998 66.963 100.377 67.4817C98.5385 64.7137 95.2345 64.0337 92.3425 62.135C90.5799 60.979 88.8572 59.6844 87.1652 58.2324C89.2425 61.9217 91.6705 63.447 95.4358 65.4564V65.4564ZM102.076 69.9257C99.0558 69.2817 94.0278 67.8644 91.8732 65.2297C91.2852 64.5097 90.7105 63.755 90.1558 62.971C91.9772 64.2324 93.5572 65.2444 95.1092 66.0724C97.8598 67.5417 100.265 67.4764 102.076 69.9257V69.9257ZM77.0132 29.4284L81.6278 33.5977C80.0798 30.4177 79.3225 29.1724 76.5759 26.9764C76.7105 27.8097 76.8612 28.635 77.0132 29.4284ZM77.6465 32.4457L83.4718 37.3644C81.9812 34.339 79.7732 32.807 77.2425 30.5724C77.3665 31.175 77.5038 31.8084 77.6465 32.4457ZM67.0212 22.3484C67.1799 24.2777 68.2692 26.8937 70.4679 29.0764C72.0479 30.647 74.2012 31.9897 76.9932 32.6897C76.9025 32.287 76.8118 31.8857 76.7278 31.4924C74.6412 30.9777 72.6012 29.8257 70.9945 28.2604C69.3652 26.6724 68.1759 24.651 67.8252 22.4284L68.5105 22.3217C68.8359 24.3844 69.9492 26.271 71.4785 27.7604C72.9132 29.159 74.7118 30.2084 76.5678 30.7297C76.4878 30.3457 76.4012 29.9044 76.3412 29.5964C74.4065 28.919 72.8679 27.9257 71.7519 26.795C70.4079 25.4337 69.6719 23.8657 69.5865 22.395L70.2799 22.355C70.3545 23.6617 71.0238 25.0657 72.2452 26.3044C73.2145 27.2884 74.5358 28.1644 76.1892 28.799C76.0945 28.287 76.0065 27.791 75.9279 27.3097C74.7039 26.891 73.6092 26.1924 72.8225 25.331C72.0425 24.475 71.5638 23.455 71.5545 22.3777L72.2465 22.3724C72.2545 23.267 72.6665 24.127 73.3345 24.8617C73.9665 25.555 74.8279 26.1324 75.8012 26.5204C75.7532 26.211 75.7092 25.9097 75.6678 25.6177C75.1212 25.4257 74.5732 25.043 74.1585 24.495C73.7452 23.947 73.4638 23.231 73.4545 22.3777L74.1479 22.3724C74.1545 23.063 74.3785 23.6377 74.7105 24.075C74.9519 24.3964 75.2505 24.643 75.5612 24.8097C75.4478 23.9164 75.3692 23.107 75.3252 22.3977L76.0172 22.3524C76.0825 23.3657 76.2159 24.583 76.4185 25.9604L78.8745 27.9244L76.1612 22.2577L76.8865 22.2244C83.2505 35.363 89.4439 48.6377 97.1385 61.0724C100.708 66.8457 102.732 69.9484 104.497 71.755C106.224 73.5217 107.735 74.0577 110.295 74.7057L110.125 75.383C107.789 74.7897 106.039 73.6964 103.68 73.391C102.56 73.2444 101.335 73.0857 99.6892 72.5884C100.089 72.8457 100.488 73.0857 100.888 73.3084C103.852 74.955 106.877 75.6484 110.204 75.6084L110.213 76.303C106.764 76.3457 103.628 75.627 100.555 73.919C99.4719 73.3177 98.3972 72.5937 97.3212 71.7364C97.2038 71.6897 97.0892 71.6404 96.9705 71.591L97.0118 71.4897C95.1505 69.9657 93.2785 68.043 91.3385 65.6724C83.7772 56.4284 79.8612 44.9084 77.1692 33.4484C74.0772 32.7404 71.7065 31.287 69.9812 29.5724C67.6532 27.2617 66.4985 24.4697 66.3292 22.4017L67.0212 22.3484ZM65.2199 22.307L64.5012 22.3097C64.1759 23.9977 63.4385 25.8764 62.4172 27.471C61.5185 28.8724 60.4065 30.0497 59.1732 30.6724L59.4812 31.2937C60.8372 30.6124 62.0399 29.3457 62.9999 27.8484C64.0692 26.179 64.8785 24.075 65.2199 22.307V22.307ZM63.6292 22.395L62.9345 22.355C62.8719 23.455 62.3745 24.6204 61.7185 25.6484C60.8812 26.963 59.7972 28.0417 59.0212 28.487L59.3652 29.0937C60.2239 28.6004 61.4065 27.4324 62.3039 26.0257C63.0172 24.907 63.5572 23.627 63.6292 22.395V22.395ZM61.7959 22.3777C61.7865 23.463 61.4665 24.367 61.0079 25.127C60.5572 25.8777 59.9745 26.4857 59.4265 26.9924L58.9572 26.479C59.4665 26.0084 60.0052 25.4484 60.4145 24.7684C60.8145 24.1017 61.0945 23.3124 61.1039 22.3724L61.7959 22.3777ZM97.6745 71.131C100.487 72.2737 102.228 72.5004 103.765 72.7004C104.048 72.7364 104.321 72.7737 104.596 72.8124C104.4 72.6377 104.201 72.4484 104.003 72.2417C101.409 69.5884 97.4665 69.635 94.1092 67.7924C95.3118 69.0777 96.4958 70.187 97.6745 71.131" fill="#034EA1"/>
<path fill-rule="evenodd" clip-rule="evenodd" d="M85.7617 22.6836H87.9817L87.0391 23.8796L85.7617 22.6836Z" fill="#231F20"/>
<path fill-rule="evenodd" clip-rule="evenodd" d="M89.6771 22.6835H91.0451C90.7877 23.4249 92.4597 24.6382 91.2077 24.8222C89.9597 25.0049 90.0731 23.5102 89.6771 22.6835Z" fill="#231F20"/>
<path d="M88.8255 23.026C88.8255 23.026 88.4228 27.2033 94.4428 29.9553C94.6135 30.554 92.6561 36.886 100.656 39.2806C100.212 42.1993 101.421 45.7833 104.401 46.81C104.144 49.378 104.743 50.318 105.677 50.7446" stroke="#231F20" stroke-width="1.13333" stroke-miterlimit="2.613"/>
<path fill-rule="evenodd" clip-rule="evenodd" d="M92.2265 30.4973L92.9185 31.2333L92.1812 31.9226L91.4905 31.1879L92.2265 30.4973Z" fill="#231F20"/>
<path fill-rule="evenodd" clip-rule="evenodd" d="M98.6107 39.8229L99.3013 40.5589L98.564 41.2482L97.8747 40.5136L98.6107 39.8229Z" fill="#231F20"/>
<path fill-rule="evenodd" clip-rule="evenodd" d="M103.168 47.4544L103.708 48.3064L102.859 48.8464L102.316 47.9944L103.168 47.4544Z" fill="#231F20"/>
<path fill-rule="evenodd" clip-rule="evenodd" d="M99.039 32.3438C99.4137 32.3438 99.719 32.0384 99.719 31.6624C99.719 31.2878 99.4137 30.9824 99.039 30.9824C98.6644 30.9824 98.359 31.2878 98.359 31.6624C98.359 32.0384 98.6644 32.3438 99.039 32.3438Z" fill="#231F20"/>
<path fill-rule="evenodd" clip-rule="evenodd" d="M104.742 41.6693C105.115 41.6693 105.422 41.364 105.422 40.988C105.422 40.6133 105.115 40.308 104.742 40.308C104.367 40.308 104.059 40.6133 104.059 40.988C104.059 41.364 104.367 41.6693 104.742 41.6693Z" fill="#231F20"/>
<path fill-rule="evenodd" clip-rule="evenodd" d="M94.5287 25.7565C94.902 25.7565 95.21 25.4511 95.21 25.0751C95.21 24.7005 94.902 24.3951 94.5287 24.3951C94.154 24.3951 93.8474 24.7005 93.8474 25.0751C93.8474 25.4511 94.154 25.7565 94.5287 25.7565Z" fill="#231F20"/>
<path fill-rule="evenodd" clip-rule="evenodd" d="M100.231 35.0806C100.605 35.0806 100.912 34.7752 100.912 34.4006C100.912 34.0259 100.605 33.7192 100.231 33.7192C99.8559 33.7192 99.5492 34.0259 99.5492 34.4006C99.5492 34.7752 99.8559 35.0806 100.231 35.0806Z" fill="#231F20"/>
<path fill-rule="evenodd" clip-rule="evenodd" d="M105.934 44.0651C106.307 44.0651 106.614 43.7597 106.614 43.3851C106.614 43.0091 106.307 42.7037 105.934 42.7037C105.558 42.7037 105.251 43.0091 105.251 43.3851C105.251 43.7597 105.558 44.0651 105.934 44.0651Z" fill="#231F20"/>
<path fill-rule="evenodd" clip-rule="evenodd" d="M97.0806 26.9609L97.422 24.9929C97.7006 24.3383 95.6486 24.0103 96.0593 25.3356C96.4726 26.6583 97.2513 26.7889 97.0806 26.9609Z" fill="#231F20"/>
<path fill-rule="evenodd" clip-rule="evenodd" d="M102.784 36.2864L103.125 34.3184C103.402 33.6637 101.35 33.3357 101.761 34.661C102.176 35.9837 102.953 36.1157 102.784 36.2864Z" fill="#231F20"/>
<path fill-rule="evenodd" clip-rule="evenodd" d="M98.0078 28.8437L99.2678 30.393C99.5812 31.033 101.175 29.6984 99.9038 29.141C98.6358 28.5837 98.0252 29.0864 98.0078 28.8437Z" fill="#231F20"/>
<path fill-rule="evenodd" clip-rule="evenodd" d="M103.71 38.1705L104.971 39.7185C105.284 40.3585 106.876 39.0239 105.607 38.4665C104.338 37.9092 103.728 38.4119 103.71 38.1705Z" fill="#231F20"/>
<path fill-rule="evenodd" clip-rule="evenodd" d="M97.4817 27.8659L99.8257 27.3899C100.656 27.4139 100.403 25.0045 99.0204 26.0339C97.6391 27.0619 97.7297 27.9792 97.4817 27.8659Z" fill="#231F20"/>
<path fill-rule="evenodd" clip-rule="evenodd" d="M103.185 37.1914L105.528 36.7168C106.358 36.7381 106.104 34.3301 104.724 35.3594C103.342 36.3874 103.432 37.3048 103.185 37.1914Z" fill="#231F20"/>
<path fill-rule="evenodd" clip-rule="evenodd" d="M95.974 26.961L97.6767 29.7836C97.6767 29.7836 96.234 30.5996 96.234 31.541C96.234 32.4823 96.4007 32.5223 96.8273 32.4356C97.2513 32.3516 97.8753 33.549 97.1673 33.7196C96.4567 33.8903 95.442 32.7783 95.638 31.3236C95.838 29.8703 96.71 28.5103 96.71 28.5103C96.71 28.5103 95.346 28.625 94.1327 28.4303C93.0607 28.2583 92.1327 27.8103 91.9353 27.2543C91.5087 26.065 92.342 25.7636 92.8273 25.9343C93.31 26.1063 92.3447 27.517 93.506 27.5596C94.6687 27.601 95.0393 27.5596 95.974 26.961" fill="#231F20"/>
<path fill-rule="evenodd" clip-rule="evenodd" d="M101.677 36.2864L103.38 39.1091C103.38 39.1091 101.936 39.9251 101.936 40.8677C101.936 41.8077 102.104 41.8477 102.529 41.7624C102.953 41.6771 103.578 42.8744 102.869 43.0451C102.16 43.2157 101.144 42.1037 101.341 40.6491C101.538 39.1957 102.413 37.8357 102.413 37.8357C102.413 37.8357 101.049 37.9517 99.8357 37.7557C98.7637 37.5837 97.8357 37.1357 97.6371 36.5797C97.2117 35.3904 98.0437 35.0891 98.5277 35.2597C99.0131 35.4304 98.0464 36.8424 99.2091 36.8851C100.37 36.9277 100.742 36.8851 101.677 36.2864" fill="#231F20"/>
<path fill-rule="evenodd" clip-rule="evenodd" d="M107.38 45.2708L108.146 46.6388C107.087 48.0681 106.679 48.8254 106.235 49.6161C105.823 48.6281 106.559 47.4948 107.007 46.5628C107.007 46.5628 106.752 46.9348 105.538 46.7401C104.466 46.5668 103.538 46.1201 103.339 45.5628C102.912 44.3748 103.746 44.0721 104.231 44.2428C104.715 44.4148 103.748 45.8254 104.911 45.8681C106.074 45.9108 106.443 45.8681 107.38 45.2708Z" fill="#231F20"/>
<path fill-rule="evenodd" clip-rule="evenodd" d="M65.0156 53.5625C66.0769 52.7131 66.4822 52.7131 67.6929 52.8438C68.9009 52.9745 69.4889 53.9518 69.4889 53.9518C69.4889 53.9518 68.0742 53.3651 67.1889 53.2345C66.3062 53.1051 65.0156 53.5625 65.0156 53.5625ZM65.2102 51.6705C65.2102 51.6705 66.1836 52.0625 67.0916 51.9305C67.9982 51.8011 68.7116 51.6705 68.7116 51.6705C68.7116 51.6705 67.8049 52.4531 67.0262 52.3878C66.2476 52.3225 66.0529 52.5185 65.2102 51.6705ZM62.7449 49.5838C62.4209 48.6065 63.1356 49.7798 63.8476 49.5185C64.5596 49.2571 64.6262 48.9318 65.4689 49.2571C66.3129 49.5838 66.8316 49.5838 67.6742 49.2571C68.5169 48.9318 68.9716 49.3225 69.4889 49.3878C70.0089 49.4531 70.2676 49.3878 70.7862 48.8025C71.3062 48.2145 71.3062 49.9105 71.3062 49.9105C71.3062 49.9105 71.9916 51.4451 71.3729 50.9531C70.4342 50.2078 69.4889 49.9758 68.5169 50.3678C67.5449 50.7571 67.2849 51.4091 65.8582 50.8225C64.4316 50.2371 63.7169 51.3438 63.7169 51.3438L62.7449 49.5838ZM65.5996 45.3465C65.5996 45.3465 65.2942 44.4985 66.6369 44.8238C66.8409 44.8731 67.6089 45.9318 68.4516 45.9318C69.2956 45.9318 70.0996 46.3078 69.7502 44.9558C69.2862 43.1598 70.2382 44.8185 70.1382 45.6065C70.0396 46.3958 69.1422 46.5571 68.1276 46.4558C67.1142 46.3518 65.9876 45.8678 65.5996 45.3465V45.3465ZM70.2676 37.7838C70.2676 37.7838 71.4356 36.2185 73.5756 36.5438C75.7156 36.8691 76.8836 37.9145 77.2089 38.8265C76.8836 37.9145 71.8249 36.6745 70.2676 37.7838V37.7838ZM72.4089 43.1305L72.0196 43.3251C72.0196 43.3251 68.9089 40.6878 69.4889 39.7398C69.9929 38.9198 69.5556 38.9558 69.5556 38.9558L69.2956 38.0438C69.2956 38.0438 70.7862 35.5011 73.3809 35.8931C75.9769 36.2838 76.8622 37.5425 77.9222 38.1745L78.6209 38.1758L78.8289 39.0878L77.0129 39.1505C77.0129 39.1505 75.7822 39.9345 74.7436 40.3905C73.7062 40.8465 72.2142 41.3691 70.5942 40.2598C70.2836 40.7798 70.2102 41.2838 72.4089 43.1305ZM69.6969 33.9398C70.2342 33.6478 72.5596 32.9425 75.2889 33.8571C78.0182 34.7705 78.0996 35.3331 78.0996 35.3331C78.0996 35.3331 76.3649 34.6691 74.3782 34.2558C72.3942 33.8385 71.3209 34.4198 69.9156 35.0025C68.5102 35.5838 69.1582 34.2318 69.6969 33.9398V33.9398ZM74.9049 38.8131C75.4836 38.7025 75.8622 38.8958 76.1729 39.1051L74.8396 39.8465L74.9049 38.8131ZM63.8782 38.9451C64.4569 38.8331 64.7702 39.2211 65.0182 39.6931L63.8782 40.2385V38.9451ZM70.5356 38.9505L71.3622 38.7011C71.3622 38.7011 71.3329 39.6451 72.5009 39.7105C73.6702 39.7758 73.6356 38.5985 73.6356 38.5985C73.6356 38.5985 74.1116 38.4971 74.2556 38.7465C74.3996 38.9945 74.3769 39.6878 73.7249 40.1905C73.0716 40.6945 70.6169 40.6198 70.5356 38.9505V38.9505ZM60.1569 39.4078L60.9849 39.1571C60.9849 39.1571 61.1516 39.9065 62.0596 39.9065C62.9689 39.9065 62.8036 38.9905 62.8036 38.9905C62.8036 38.9905 63.2796 38.8878 63.4249 39.1385C63.5689 39.3865 63.5489 39.9065 63.2169 40.3198C62.3076 41.2358 60.2409 41.4025 60.1569 39.4078ZM59.6542 35.3358C59.6662 35.7905 59.6796 36.2425 59.6956 36.6905C62.1689 35.6771 65.2022 37.0491 65.2022 37.4945C65.2022 37.9945 65.9449 35.7505 63.8782 34.9198C62.5142 34.3691 60.7182 34.9078 59.6542 35.3358ZM59.9102 40.9931C61.3889 42.1065 64.0516 40.7451 64.1276 40.8198C64.2102 40.9038 63.3822 42.2598 62.3902 42.9811C62.0596 43.3971 64.0436 42.2345 64.0436 42.2345L63.3009 44.0625C63.3009 44.0625 62.7196 45.8078 63.3822 46.1411C64.0436 46.4718 65.0996 46.8491 65.6142 47.4691L65.5329 46.3891C65.5329 46.3891 65.3676 46.3065 64.3756 45.8905C63.3822 45.4758 63.9622 43.7291 63.9622 43.7291C63.9622 43.7291 64.4582 41.7345 65.4502 39.0745C66.4422 36.4145 65.1182 34.9198 63.9622 34.1705C63.0356 33.5731 60.5729 33.9318 59.6262 34.0985C59.5662 30.9865 59.5742 27.7905 59.5822 24.6438L59.5862 22.6078H58.8929L58.8876 24.6438C58.8609 37.3318 58.8289 50.8291 63.2196 56.5638C63.4169 56.8225 63.6236 57.0598 63.8382 57.2731C65.7462 59.1825 68.2702 59.4345 70.9742 58.7025C71.8102 58.4771 72.6622 58.1545 73.5209 57.7585H86.3209L85.5489 55.9905H76.6876C77.4649 55.4865 78.2316 54.9425 78.9756 54.3718C80.5676 53.1531 82.0622 51.8185 83.3596 50.5238L82.8702 50.0331C81.5929 51.3078 80.1209 52.6225 78.5542 53.8198C76.0609 55.7305 73.3329 57.3438 70.7942 58.0331C68.3222 58.7025 66.0316 58.4878 64.3302 56.7851C64.1369 56.5905 63.9489 56.3758 63.7689 56.1438C61.3929 53.0385 60.3569 47.4838 59.9102 40.9931V40.9931ZM59.7102 37.1825C62.3902 36.0678 64.9542 38.0785 64.9542 38.0785C62.7222 37.3691 60.9729 37.6478 59.7502 38.1385C59.7369 37.8198 59.7236 37.5011 59.7102 37.1825Z" fill="#034EA1"/>
<path d="M56.1172 60.1249H87.5625" stroke="#034EA1" stroke-width="0.945333" stroke-miterlimit="2.613"/>
<path fill-rule="evenodd" clip-rule="evenodd" d="M59.7487 62.4831H62.8007L61.0047 65.0778H57.9527L59.7487 62.4831Z" fill="#231F20"/>
<path fill-rule="evenodd" clip-rule="evenodd" d="M80.8698 68.9713H77.8191L79.6151 66.3753H82.6644L80.8698 68.9713Z" fill="#231F20"/>
<path fill-rule="evenodd" clip-rule="evenodd" d="M90.138 68.9713H87.0873L88.8833 66.3753H91.934L90.138 68.9713Z" fill="#231F20"/>
<path fill-rule="evenodd" clip-rule="evenodd" d="M68.4323 62.4831H71.4829L69.6869 65.0778H66.6363L68.4323 62.4831Z" fill="#231F20"/>
<path fill-rule="evenodd" clip-rule="evenodd" d="M72.1861 68.9713H69.1354L70.9314 66.3753H73.9821L72.1861 68.9713Z" fill="#231F20"/>
<path fill-rule="evenodd" clip-rule="evenodd" d="M77.5834 62.4831H80.634L78.838 65.0778H75.7874L77.5834 62.4831Z" fill="#231F20"/>
<path fill-rule="evenodd" clip-rule="evenodd" d="M63.2694 68.9713H60.2188L62.0148 66.3753H65.0654L63.2694 68.9713Z" fill="#231F20"/>
<path fill-rule="evenodd" clip-rule="evenodd" d="M86.6172 62.4831H89.6692L87.8732 65.0778H84.8225L86.6172 62.4831Z" fill="#231F20"/>
<path fill-rule="evenodd" clip-rule="evenodd" d="M55.2904 68.9713H52.2397L54.0357 66.3753H57.0864L55.2904 68.9713Z" fill="#231F20"/>
<path d="M54.944 62.5364H89.4387" stroke="#231F20" stroke-width="0.945333" stroke-miterlimit="2.613"/>
<path d="M94.4844 68.9193H51.4244" stroke="#231F20" stroke-width="0.945333" stroke-miterlimit="2.613"/>
<path fill-rule="evenodd" clip-rule="evenodd" d="M53.2317 87.1809L53.2117 87.2169C56.3704 85.8623 58.6024 82.6276 58.6024 78.8703C58.6024 70.6409 48.7424 70.4169 52.9557 70.4169H58.4757C60.7904 72.0423 62.3184 76.0596 62.0424 79.7009C61.7677 83.3396 59.413 87.7503 55.9637 90.1223L53.2317 87.1809Z" fill="#DA4534"/>
<path d="M56.1354 70.5546C58.4514 72.1813 59.9794 76.1973 59.7048 79.8386C59.4301 83.4773 57.1954 87.2453 54.5874 88.6013" stroke="#00ADEE" stroke-width="0.945333" stroke-miterlimit="2.613"/>
<path fill-rule="evenodd" clip-rule="evenodd" d="M48.4674 71.5546L49.1261 73.4186L46.5368 78.9506L52.0101 85.5853C54.1261 84.4093 55.5994 81.8386 55.5994 78.8693C55.5994 74.7933 52.8208 71.4679 49.4141 71.4679C49.0928 71.4679 48.7741 71.4973 48.4674 71.5546Z" fill="#034EA1"/>
<path fill-rule="evenodd" clip-rule="evenodd" d="M53.2123 87.2174L52.0109 85.5854C54.1269 84.4094 55.5989 81.8387 55.5989 78.8694C55.5989 74.7934 52.8203 71.4667 49.4136 71.4667C46.8136 71.4667 50.1136 70.9627 52.4816 70.2467C56.0203 71.3934 58.6029 74.8281 58.6029 78.8694C58.6029 82.6281 56.3696 85.8614 53.2123 87.2174Z" fill="#231F20"/>
<path d="M96.3659 70.7083H50.7445" stroke="#231F20" stroke-width="0.945333" stroke-miterlimit="2.613"/>
<path fill-rule="evenodd" clip-rule="evenodd" d="M68.9648 98.2694H70.1582C72.3728 89.6454 78.1408 81.7854 87.4968 80.1254C96.8542 78.4654 100.021 79.2961 100.021 79.2961L102.773 74.5907C100.434 74.5907 96.4222 70.7081 96.4222 70.7081H84.8782C82.5968 70.5734 78.2648 75.3801 74.7728 81.4014C71.4942 87.0547 68.8342 94.0414 68.9648 98.2694Z" fill="#EC1C24"/>
<path d="M70.1251 98.2694C72.3411 89.6454 78.1411 81.7854 87.4971 80.1254C96.8544 78.4654 100.021 79.2961 100.021 79.2961L102.773 74.5907" stroke="#034EA1" stroke-width="0.945333" stroke-miterlimit="2.613"/>
<path fill-rule="evenodd" clip-rule="evenodd" d="M68.9648 98.2694H64.4955C65.0342 88.3174 67.6008 79.6521 73.8715 70.7081H84.8782C82.5968 70.5734 78.2648 75.3801 74.7728 81.4014C71.4942 87.0547 68.8342 94.0414 68.9648 98.2694Z" fill="#231F20"/>
<path fill-rule="evenodd" clip-rule="evenodd" d="M62.6302 95.6198C62.3236 93.5438 60.7729 90.0384 58.9782 86.9638C62.8729 80.1224 62.4129 75.9371 58.7156 70.7078H70.4249C68.2809 74.4451 67.8236 76.1984 65.5622 82.0918C63.3036 87.9864 62.9116 92.7758 62.6302 95.6198Z" fill="#231F20"/>
<path d="M62.6302 95.6198C62.3235 93.5438 60.7729 90.0384 58.9782 86.9638" stroke="#231F20" stroke-width="0.945333" stroke-miterlimit="2.613"/>
<path fill-rule="evenodd" clip-rule="evenodd" d="M75.9374 85.6588L79.3774 82.7521C79.3774 82.7521 79.6534 80.6788 78.4148 80.4015C77.1761 80.1255 75.7988 80.9561 76.6268 82.8921C76.2134 83.0295 73.7361 83.8588 75.9374 85.6588Z" fill="white"/>
<path fill-rule="evenodd" clip-rule="evenodd" d="M84.6081 76.5287C84.6081 76.5287 85.0214 78.6047 86.3974 78.3273C87.7721 78.05 87.3614 76.9433 87.2228 75.698C88.3681 74.5913 87.2681 71.41 84.7468 73.6233C81.5801 73.07 80.4788 76.6673 84.6081 76.5287Z" fill="white"/>
<path fill-rule="evenodd" clip-rule="evenodd" d="M93.8281 77.4973C93.8281 77.4973 94.3788 78.6039 95.6175 78.3266C96.8561 78.0493 96.4428 77.2199 96.3055 75.9746C97.4521 74.8679 95.8001 71.9639 93.6908 74.1773C90.5255 73.6239 89.6988 77.6359 93.8281 77.4973Z" fill="white"/>
<path fill-rule="evenodd" clip-rule="evenodd" d="M77.5377 76.5639H72.8697L72.2604 77.9719H76.551C75.7737 79.0999 75.0777 80.1612 74.4537 81.1612H70.815L70.207 82.1012H73.8804C73.1044 83.3906 72.4537 84.5732 71.903 85.6666H68.9764L68.6204 86.6039H71.4444C70.8217 87.9226 70.3497 89.1012 69.983 90.1719H67.6697L67.3137 90.8279H69.7684C69.3697 92.0919 69.1204 93.1986 68.9297 94.2052H66.643L66.4724 94.8626H68.8124C68.643 95.8386 68.519 96.7266 68.3497 97.5839H66.363L66.1057 98.2612H65.2657C65.3284 97.7532 65.3897 97.2452 65.451 96.7399H67.1244L67.483 96.0839H65.5324C65.655 95.1159 65.779 94.1532 65.915 93.1986H67.787L68.123 92.1412H66.0697C66.2484 90.9746 66.447 89.8159 66.6777 88.6692H68.7364L69.2284 87.7306H66.8764C67.1204 86.6252 67.3977 85.5306 67.7217 84.4466H70.8604L71.4684 83.2266H68.1084C68.243 82.8226 68.3857 82.4212 68.535 82.0212C68.7884 81.3466 69.0457 80.7186 69.3044 80.1292H72.9137L73.523 79.1919H69.735C70.4484 77.6959 71.1764 76.4399 71.903 75.2506H76.151L76.8337 74.4066H72.4244C73.1617 73.2132 73.8937 72.0439 74.5977 70.7079H77.135L75.6004 73.0186H80.1657C79.207 74.2652 78.3364 75.4452 77.5377 76.5639Z" fill="#DA4534"/>
<path fill-rule="evenodd" clip-rule="evenodd" d="M62.0027 80.1289C61.9627 80.4689 61.9053 80.8142 61.8307 81.1609H65.1253C65.5427 80.1609 66.02 79.1009 66.5653 77.9716H62.2733L62.5933 76.5636H66.5147C67.0827 75.4449 67.712 74.2662 68.4133 73.0182H64.5933L65.6547 70.7089H63.116C62.6867 72.0449 62.1973 73.2129 61.704 74.4062H66.1147L65.604 75.2502H61.5507C61.9213 76.5089 62.1107 77.8662 62.0707 79.1916H63.788L63.372 80.1289H62.0027ZM59.9253 88.6689C60.1907 89.1689 60.4427 89.6729 60.6827 90.1716H62.5107C62.656 89.1009 62.884 87.9222 63.236 86.6036H60.412L60.5747 85.6662H63.5013C63.8253 84.5729 64.2347 83.3902 64.744 82.1009H61.5947C61.4867 82.4756 61.36 82.8516 61.216 83.2262H62.5653L62.208 84.4462H60.6893C60.24 85.3716 59.6933 86.2702 59.0627 87.1076C59.1813 87.3142 59.3 87.5209 59.4173 87.7302H61.252L60.9533 88.6689H59.9253ZM60.9907 90.8276C61.536 92.0209 61.9867 93.1636 62.2867 94.1556C62.28 93.7929 62.28 93.4182 62.288 93.0276C62.3027 92.3462 62.344 91.6169 62.428 90.8276H60.9907Z" fill="#DA4534"/>
<path d="M58.4752 70.4166C60.7899 72.0419 62.3192 76.0593 62.0432 79.7006C61.7685 83.3393 59.4125 87.7499 55.9632 90.1219" stroke="#231F20" stroke-width="0.945333" stroke-miterlimit="2.613"/>
<path d="M58.7252 87.6314C59.8399 89.2688 62.6799 95.0248 62.6759 98.5834C63.4399 102.143 62.0946 110.751 56.2972 116.033C50.4999 121.315 40.4852 128.809 24.0012 116.425" stroke="#034EA1" stroke-width="0.945333" stroke-miterlimit="2.613"/>
<path fill-rule="evenodd" clip-rule="evenodd" d="M52.918 92.7278L57.834 88.7184C60.0727 91.6118 61.6633 94.4704 61.55 103.093C61.4393 111.716 50.6913 123.117 38.634 121.844C32.718 121.217 28.0513 118.981 24.83 115.637L30.122 111.324C32.1073 113.369 34.6087 114.956 40.454 115.32C46.2993 115.685 54.7193 109.588 55.094 101.026C55.2393 97.8758 53.7847 94.6171 52.918 92.7278Z" fill="#231F20"/>
<path fill-rule="evenodd" clip-rule="evenodd" d="M31.8867 109.883L30.1227 111.324C32.1067 113.368 34.6093 114.956 40.4547 115.32C46.3 115.685 54.7187 109.587 55.0933 101.025C55.2387 97.8788 53.788 94.6228 52.9187 92.7321L50.7947 94.4654C51.5253 96.2121 52.3093 98.5321 52.2053 100.792C51.8587 108.736 45.312 113.119 39.8893 112.781C36.3027 112.557 33.7427 111.275 31.8867 109.883Z" fill="#DA4534"/>
<path fill-rule="evenodd" clip-rule="evenodd" d="M46.6419 97.8516L50.7939 94.4649C51.5259 96.2129 52.3099 98.5329 52.2059 100.792C51.8592 108.736 45.3125 113.118 39.8899 112.781C36.3019 112.557 33.7419 111.274 31.8872 109.882L35.9832 106.542C36.9765 107.328 38.3752 108.085 40.3872 108.212C43.2485 108.388 46.8445 105.878 47.2485 102.977C47.6219 100.289 47.0632 98.7916 46.6419 97.8516Z" fill="#034EA1"/>
<path fill-rule="evenodd" clip-rule="evenodd" d="M46.5456 97.638C46.9696 98.5633 47.6509 100.077 47.2483 102.977C46.8456 105.878 43.2483 108.389 40.3869 108.211C38.2403 108.077 36.7909 107.223 35.7896 106.383L46.5456 97.638Z" fill="#EC1C24"/>
<path fill-rule="evenodd" clip-rule="evenodd" d="M22.7812 114.758L53.1292 89.7779L54.4692 91.4685L22.7812 117.307V114.758Z" fill="#DA4534"/>
<path fill-rule="evenodd" clip-rule="evenodd" d="M47.4036 82.7292L22.7809 102.921V112.026L52.1142 88.1918L47.4036 82.7292Z" fill="#034EA1"/>
<path fill-rule="evenodd" clip-rule="evenodd" d="M46.6146 81.6666L23.1919 100.529V97.2506L45.1612 79.9066L46.6146 81.6666Z" fill="#EC1C24"/>
<path d="M46.6146 81.6666L23.1919 100.529V97.2506L45.1612 79.9066L46.6146 81.6666Z" stroke="#034EA1" stroke-width="0.944" stroke-miterlimit="2.613"/>
<path fill-rule="evenodd" clip-rule="evenodd" d="M26.1797 103.656C26.8211 103.656 27.3464 104.18 27.3464 104.823C27.3464 105.464 26.8211 105.99 26.1797 105.99C25.5371 105.99 25.0131 105.464 25.0131 104.823C25.0131 104.18 25.5371 103.656 26.1797 103.656ZM34.9491 96.9055C35.5744 96.9055 36.0864 97.4162 36.0864 98.0442C36.0864 98.6695 35.5744 99.1802 34.9491 99.1802C34.3224 99.1802 33.8117 98.6695 33.8117 98.0442C33.8117 97.4162 34.3224 96.9055 34.9491 96.9055V96.9055ZM27.8304 102.618C27.3704 102.271 26.7984 102.066 26.1797 102.066C24.6597 102.066 23.4224 103.303 23.4224 104.823C23.4224 106.342 24.6597 107.58 26.1797 107.58C27.6997 107.58 28.9357 106.342 28.9357 104.823C28.9357 104.462 28.8664 104.116 28.7397 103.798L29.1491 103.47L29.3131 103.663C29.8091 104.25 30.6384 104.436 31.2637 103.99C31.8917 103.542 32.0891 102.623 31.5917 102.036L31.3237 101.72L33.2797 100.147C33.7397 100.514 34.3184 100.731 34.9491 100.731C36.4291 100.731 37.6357 99.5229 37.6357 98.0442C37.6357 97.5962 37.5251 97.1775 37.3317 96.8042L37.6091 96.5802L38.1304 97.1322C38.6584 97.6935 39.4571 97.9069 40.0837 97.4615C40.7104 97.0135 40.9384 96.0682 40.4091 95.5082L39.7784 94.8362L41.5411 93.4189C41.9971 93.7722 42.5677 93.9815 43.1864 93.9815C44.6651 93.9815 45.8731 92.7762 45.8731 91.2949C45.8731 90.8335 45.7557 90.3989 45.5477 90.0175L46.0037 89.6455L46.3851 90.1162C46.8704 90.7135 47.6504 90.9869 48.3091 90.5855C48.9677 90.1869 49.2637 89.2615 48.7797 88.6642L48.1557 87.8949L50.2371 86.1989L49.2837 85.0002L47.2037 86.7215L46.7597 86.1749C46.2757 85.5789 45.4944 85.3029 44.8371 85.7029C44.1784 86.1029 43.8811 87.0295 44.3664 87.6269L45.0637 88.4882L44.4997 88.9535C44.1104 88.7349 43.6611 88.6095 43.1864 88.6095C41.7064 88.6095 40.4984 89.8149 40.4984 91.2949C40.4984 91.6042 40.5517 91.9029 40.6491 92.1802L38.7384 93.7349L38.2104 93.1749C37.6851 92.6162 36.8851 92.4015 36.2584 92.8482C35.6304 93.2949 35.4051 94.2415 35.9304 94.7989L36.5837 95.4922L36.3011 95.7229C35.9024 95.4895 35.4397 95.3562 34.9491 95.3562C33.4691 95.3562 32.2624 96.5642 32.2624 98.0442C32.2624 98.3415 32.3104 98.6282 32.4011 98.8949L30.3464 100.568L29.8704 100.003C29.3731 99.4162 28.5424 99.2295 27.9157 99.6762C27.2891 100.123 27.0931 101.043 27.5891 101.628L28.1824 102.331L27.8304 102.618ZM43.1864 90.1589C43.8131 90.1589 44.3224 90.6695 44.3224 91.2949C44.3224 91.9215 43.8131 92.4322 43.1864 92.4322C42.5597 92.4322 42.0491 91.9215 42.0491 91.2949C42.0491 90.6695 42.5597 90.1589 43.1864 90.1589Z" fill="white"/>
<path fill-rule="evenodd" clip-rule="evenodd" d="M33.9219 70.5612C34.8259 70.5612 35.5619 69.5985 35.5619 68.4198C35.5619 67.2398 34.8259 66.2758 33.9219 66.2758C33.0192 66.2758 32.2819 67.2398 32.2819 68.4198C32.2819 69.5985 33.0192 70.5612 33.9219 70.5612Z" fill="#DA4534"/>
<path fill-rule="evenodd" clip-rule="evenodd" d="M38.836 65.5415C38.8654 66.6322 38.092 67.5549 37.108 67.5989C36.1227 67.6442 35.3014 66.7935 35.268 65.7002C35.2387 64.6095 36.012 63.6869 36.996 63.6429C37.98 63.5989 38.8054 64.4482 38.836 65.5415Z" fill="#DA4534"/>
<path fill-rule="evenodd" clip-rule="evenodd" d="M40.6705 70.5456C39.7505 70.9389 38.6238 70.4522 38.1518 69.4576C37.6798 68.4616 38.0425 67.3362 38.9625 66.9429C39.8798 66.5496 41.0078 67.0362 41.4798 68.0309C41.9532 69.0256 41.5878 70.1522 40.6705 70.5456Z" fill="#DA4534"/>
<path fill-rule="evenodd" clip-rule="evenodd" d="M35.1224 72.444C34.6944 71.4946 35.0077 70.5773 36.0437 70.068C37.081 69.5586 38.2784 69.9186 38.7077 70.8666C39.1384 71.8173 38.8237 72.7346 37.7877 73.2453C36.7504 73.752 35.5544 73.3933 35.1224 72.444Z" fill="#DA4534"/>
<path fill-rule="evenodd" clip-rule="evenodd" d="M36.7486 66.8164L38.3233 68.5164L36.7406 69.7484L35.0513 68.2831L36.7486 66.8164Z" fill="#DA4534"/>
<path fill-rule="evenodd" clip-rule="evenodd" d="M34.6946 68.6466H38.504V68.1H34.6946V68.6466Z" fill="#034EA1"/>
<path fill-rule="evenodd" clip-rule="evenodd" d="M36.5067 66.4586H37.0533V70.2893H36.5067V66.4586Z" fill="#034EA1"/>
<path fill-rule="evenodd" clip-rule="evenodd" d="M29.0429 113.121L27.2229 114.998L27.8749 117.581L29.7429 118.706L29.4629 116.5C31.3469 117.377 31.3616 118.721 31.9843 119.74L34.1803 120.489L33.2923 118.52L35.4403 119.269L37.5869 121.381L39.5496 121.429L38.1936 119.505L39.4549 119.504C40.4816 120.068 41.1816 120.817 42.3976 121.242L44.4976 120.961L42.8176 119.458L44.5909 119.224L46.9256 120.396C47.5643 120.13 48.2483 119.912 48.8416 119.458C48.2629 119.082 47.6883 118.706 47.1123 118.33L49.1203 117.534L51.7816 117.909C52.4336 117.552 52.9483 117.06 53.4616 116.453L51.7816 115.89L53.5563 114.482L55.7963 114.342L57.1043 112.698L55.2376 112.512C56.4576 110.174 56.9909 110.328 59.0176 109.554L59.8589 107.584L57.7109 108.098L58.2243 106.316C59.0496 105.893 59.7816 105.472 60.5136 104.954C60.7149 104.328 60.7936 103.641 60.7456 102.889L58.9243 103.781L58.8789 102.092L60.7936 98.8997L60.5136 96.5517L58.6443 98.8997L58.2243 96.6477L59.7656 93.9251L58.9243 92.0464L57.4296 94.2531C57.0723 93.1744 56.7456 92.0944 56.2629 91.0157L54.9096 92.0464L55.7496 94.5824L54.1176 93.9717C54.4203 94.7557 54.5363 95.6091 55.0389 96.0517C55.3776 96.3491 55.8229 96.8277 56.6829 97.4451L56.8709 99.0411L55.4229 98.0544V100.026L57.1976 101.622V103.313L57.0576 103.265L55.3763 101.716C55.2976 102.373 55.2683 103.032 55.2843 103.688L56.5896 105.8L56.1709 107.16L54.7696 105.001C54.4896 105.628 54.3029 106.346 54.0216 106.973L54.8629 109.226L53.8829 110.869L53.3229 108.614L52.0149 110.164L52.1083 112.932L50.8483 113.92L50.9869 111.526L49.2603 112.698L48.8869 115.186L46.9723 116.125L47.6269 114.013L45.8989 114.95C45.8989 114.95 44.8709 117.581 42.9096 117.674L43.7963 115.844C43.9256 115.581 42.4736 115.641 41.9283 115.844L40.4816 117.628H38.7083L40.2483 115.937H37.9536L35.8136 117.346L34.1323 116.782L36.4669 115.704L33.5243 114.622L31.1443 115.374L29.8376 114.624L32.5923 114.106C32.5923 114.106 31.3309 112.65 29.0429 113.121Z" fill="#DA4534"/>
<path d="M36.6836 73.72L34.6623 77.816" stroke="#034EA1" stroke-width="0.944" stroke-miterlimit="2.613"/>
<path fill-rule="evenodd" clip-rule="evenodd" d="M33.3984 76.7734C32.3837 76.7734 32.5184 74.7401 30.5717 73.5334C28.5984 72.3134 25.8944 70.6401 25.8944 70.6401C25.8944 70.6401 24.7157 73.6668 26.9917 75.5854C29.2677 77.5054 31.2917 77.3934 31.2917 77.3934L33.3984 76.7734Z" fill="#DA4534"/>
<path d="M35.1224 72.9193L33.4304 77.1406" stroke="#034EA1" stroke-width="0.944" stroke-miterlimit="2.613"/>
<path fill-rule="evenodd" clip-rule="evenodd" d="M57.22 22.6081C57.2107 29.8241 55.8987 41.6214 49.4054 52.8454C44.708 60.9641 47.0694 70.5801 49.1307 73.2761C53.8867 64.0121 57.2107 58.3574 57.24 57.8454C57.9067 46.0987 60.1574 39.4081 59.2387 22.6081H57.22Z" fill="#EC1C24"/>
<path d="M57.22 22.6081C57.2107 29.8241 55.8987 41.6214 49.4054 52.8454C44.708 60.9641 47.0694 70.5801 49.1307 73.2761C53.8867 64.0121 57.2107 58.3574 57.24 57.8454C57.9067 46.0987 60.1574 39.4081 59.2387 22.6081H57.22Z" stroke="#034EA1" stroke-width="0.945333" stroke-miterlimit="2.613"/>
<path fill-rule="evenodd" clip-rule="evenodd" d="M27.8815 73.6745C29.3255 74.7518 30.8615 75.6411 32.4921 76.3438L33.0188 76.6878L32.6321 77.1158C32.6321 77.1158 27.3215 74.4478 27.8815 73.6745Z" fill="#034EA1"/>
<path fill-rule="evenodd" clip-rule="evenodd" d="M34.7969 78.0287C34.7969 78.0287 36.3342 76.062 37.6609 75.9927C38.9889 75.922 44.5782 75.9927 44.5782 75.9927C44.5782 75.9927 43.9476 77.7487 42.4102 78.3807C40.8756 79.0127 37.9396 78.5207 37.1716 79.154C36.4036 79.7847 36.4036 79.6447 36.4036 79.6447L34.7969 78.0287Z" fill="#DA4534"/>
<path fill-rule="evenodd" clip-rule="evenodd" d="M36.0546 79.1536C36.0546 79.1536 37.2426 78.0283 38.2893 77.8176C39.3386 77.6083 41.9613 77.1536 41.224 77.1163C40.488 77.0776 36.484 77.1269 35.5653 78.6616C35.216 79.3629 36.0546 79.1536 36.0546 79.1536Z" fill="#034EA1"/>
<path fill-rule="evenodd" clip-rule="evenodd" d="M36.7486 66.8164L35.0513 68.2831L36.7406 69.7484L38.3233 68.5164L36.7486 66.8164ZM36.7833 66.0084L39.2246 68.6457L36.7726 70.5577L34.1486 68.2844L36.7833 66.0084Z" fill="#034EA1"/>
<path fill-rule="evenodd" clip-rule="evenodd" d="M100.363 126.935L98.294 130.727H96.346L99.0233 125.834L100.363 126.935Z" fill="#DA4534"/>
<path fill-rule="evenodd" clip-rule="evenodd" d="M106.563 110.65L105.605 111.192L105.523 112.156L105.104 113.662L105.189 114.624L106.604 114.918L107.145 113.495V111.947L107.355 110.9L106.563 110.65Z" fill="#DA4534"/>
<path fill-rule="evenodd" clip-rule="evenodd" d="M106.917 111.704C106.567 111.954 106.393 111.774 106.09 111.74C106.169 111.396 106.379 110.848 106.594 110.968C107.067 111.232 107.001 111.446 106.917 111.704ZM106.469 114.752C106.309 115.058 105.322 114.208 105.322 114.208C105.237 113.519 105.555 112.495 105.845 112.415C106.53 112.228 106.194 112.711 106.375 112.556C106.763 112.223 107.094 112.527 107.022 112.607C106.633 113.047 106.63 114.447 106.469 114.752V114.752ZM107.055 115.146C107.055 115.146 107.685 111.915 107.615 111.283C107.546 110.651 107.117 110.159 106.219 110.51C105.319 110.862 104.806 113.479 104.729 113.702C104.406 114.622 106.007 115.028 107.055 115.146" fill="#034EA1"/>
<path fill-rule="evenodd" clip-rule="evenodd" d="M101.233 125.509C100.948 125.797 100.045 124.193 100.045 124.193C100.045 124.193 100.702 124.398 101.11 124.892C101.52 125.385 101.233 125.509 101.233 125.509ZM104.669 115.884H103.921L103.7 115.308L103.964 114.776C103.964 114.776 104.229 114.466 104.669 114.509C105.112 114.553 105.022 115.218 105.022 115.218L104.669 115.884ZM103.302 117.304C103.081 116.328 104.141 116.549 104.141 116.549L104.626 117.037C104.626 117.037 104.449 117.17 104.361 117.792C104.273 118.413 103.744 117.925 103.744 117.925L103.302 117.304ZM102.201 119.83L101.89 119.166C101.89 119.166 101.802 118.413 102.068 118.19C102.332 117.969 102.862 118.101 103.213 118.057C103.566 118.013 104.18 119.082 103.7 119.521C103.22 119.961 102.729 120.097 102.201 119.83ZM102.729 121.029C103.434 122.093 101.802 122.138 101.273 121.784C100.744 121.426 101.141 120.718 101.141 120.718L101.89 120.276L102.729 121.029ZM106.469 114.753L105.321 114.208C105.321 114.208 106.781 114.901 106.469 114.753V114.753ZM104.89 116.458C104.669 115.922 105.65 115.258 105.65 115.258C106.524 115.568 106.982 116.289 107.214 117.216C107.34 117.714 106.742 118.228 106.404 117.832C106.021 117.382 105.113 116.994 104.89 116.458ZM104.61 118.774C104.168 117.913 105.161 117.577 105.161 117.577C105.65 117.75 105.945 118.19 106.366 118.537C106.785 118.884 107.005 119.374 106.934 119.884C106.865 120.394 106.6 120.894 106.264 120.5C105.882 120.054 104.61 118.774 104.61 118.774ZM102.7 120.238C104.598 120.178 104.27 119.298 104.27 119.298C104.829 119.649 105.441 120.272 105.868 120.821C106.294 121.372 106.548 122.346 106.054 122.901C105.564 123.458 105.417 123.806 105.106 123.218C104.756 122.554 102.7 120.238 102.7 120.238ZM101.117 122.448C103.005 122.8 103.284 121.816 103.284 121.816C103.284 121.816 104.681 122.87 104.752 123.993C104.82 125.117 104.402 125.188 103.493 125.469C102.586 125.749 102.308 126.03 102.516 125.398C102.725 124.765 101.117 122.448 101.117 122.448ZM103.493 112.336L103.214 112.758L103.913 114.022L103.213 115.216C103.308 115.706 103.658 116.174 103.232 116.19C102.997 116.198 102.705 116.45 102.796 116.901C102.982 117.814 101.26 117.534 101.397 118.937C101.537 120.341 100.21 121.114 100.21 121.114C100.21 121.114 98.5344 121.185 99.0944 119.709C99.6517 118.234 99.4424 117.745 99.4424 117.745L98.7424 117.602C98.7424 117.602 98.7757 119.524 98.393 120.481C98.1157 121.184 99.9304 122.028 100.838 123.081C101.748 124.134 102.654 127.153 100.909 126.592C99.1624 126.03 98.8144 125.046 98.8144 125.046C98.8144 125.046 93.993 121.256 93.993 119.78C93.993 119.184 93.0757 118.648 93.413 119.849C93.7104 120.91 95.137 123.177 96.4384 124.064C98.1464 125.225 100.141 127.153 101.048 127.153C101.957 127.153 102.416 126.974 103.214 126.38C103.873 125.893 104.472 126.098 104.82 125.398C105.169 124.696 104.96 124.414 105.938 123.782C106.917 123.15 107.056 122.448 106.917 121.537C106.778 120.622 107.545 121.153 107.616 120.13C107.685 119.106 106.917 119.026 107.265 118.445C107.616 117.865 108.174 117.041 107.406 116.058C106.637 115.076 107.056 115.146 107.056 115.146L104.61 113.741L103.493 112.336Z" fill="#034EA1"/>
<path fill-rule="evenodd" clip-rule="evenodd" d="M100.641 138.099L101.638 140.651L99.0073 139.284C98.0407 141.443 94.5327 141.047 93.9273 139.192L90.934 140.287L92.386 137.552C90.602 136.183 90.9953 133.266 93.0207 132.902L92.2953 130.439L94.2007 131.35C95.742 129.375 97.4967 129.527 99.2793 131.442L101.638 130.439L100.458 132.719C101.971 133.416 103.03 136.578 100.641 138.099Z" fill="#034EA1"/>
<path fill-rule="evenodd" clip-rule="evenodd" d="M100.641 138.099L99.0073 139.284C98.0406 141.443 94.5326 141.047 93.9273 139.192L92.386 137.552C90.602 136.183 90.9953 133.266 93.0206 132.902L94.2006 131.35C95.742 129.375 97.4966 129.527 99.2793 131.442L100.458 132.719C101.971 133.416 103.03 136.578 100.641 138.099Z" fill="#034EA1"/>
<path fill-rule="evenodd" clip-rule="evenodd" d="M99.6888 137.643C98.7808 137.643 98.0475 136.682 98.0475 135.501C98.0475 134.317 98.7808 133.357 99.6888 133.357C100.595 133.357 101.329 134.317 101.329 135.501C101.329 136.682 100.595 137.643 99.6888 137.643Z" fill="#DA4534"/>
<path fill-rule="evenodd" clip-rule="evenodd" d="M94.776 138.378C94.7453 137.286 95.5186 136.363 96.5026 136.318C97.488 136.275 98.3106 137.126 98.3426 138.218C98.372 139.31 97.5986 140.232 96.6133 140.276C95.6293 140.32 94.804 139.47 94.776 138.378Z" fill="#DA4534"/>
<path fill-rule="evenodd" clip-rule="evenodd" d="M92.9401 133.372C93.8588 132.979 94.9868 133.467 95.4588 134.462C95.9295 135.456 95.5681 136.583 94.6481 136.976C93.7308 137.37 92.6015 136.883 92.1308 135.887C91.6588 134.892 92.0228 133.766 92.9401 133.372Z" fill="#DA4534"/>
<path fill-rule="evenodd" clip-rule="evenodd" d="M98.4869 131.475C98.9162 132.424 98.6029 133.34 97.5656 133.851C96.5282 134.359 95.3322 134 94.9029 133.05C94.4709 132.1 94.7856 131.183 95.8229 130.674C96.8589 130.164 98.0576 130.524 98.4869 131.475Z" fill="#DA4534"/>
<path fill-rule="evenodd" clip-rule="evenodd" d="M96.8607 137.102L95.2874 135.402L96.87 134.171L98.558 135.635L96.8607 137.102Z" fill="#DA4534"/>
<path fill-rule="evenodd" clip-rule="evenodd" d="M98.9173 135.817H95.108V135.271H98.9173V135.817Z" fill="#034EA1"/>
<path fill-rule="evenodd" clip-rule="evenodd" d="M97.104 137.461H96.5573V133.631H97.104V137.461Z" fill="#034EA1"/>
<path d="M96.9271 130.199L98.9484 126.102" stroke="#034EA1" stroke-width="0.944" stroke-miterlimit="2.613"/>
<path fill-rule="evenodd" clip-rule="evenodd" d="M100.211 127.146C101.227 127.146 101.092 129.179 103.038 130.384C105.011 131.604 107.716 133.278 107.716 133.278C107.716 133.278 108.895 130.251 106.62 128.332C104.344 126.414 102.32 126.526 102.32 126.526L100.211 127.146Z" fill="#DA4534"/>
<path d="M98.4869 131L100.18 126.779" stroke="#034EA1" stroke-width="0.944" stroke-miterlimit="2.613"/>
<path fill-rule="evenodd" clip-rule="evenodd" d="M105.729 130.243C104.285 129.166 102.749 128.277 101.117 127.574L100.592 127.231L100.979 126.802C100.979 126.802 106.288 129.471 105.729 130.243Z" fill="#034EA1"/>
<path fill-rule="evenodd" clip-rule="evenodd" d="M98.8139 125.889C98.8139 125.889 97.2765 127.857 95.9512 127.927C94.6219 127.996 89.0339 127.927 89.0339 127.927C89.0339 127.927 89.6619 126.171 91.1992 125.537C92.7352 124.907 95.6712 125.399 96.4392 124.765C97.2072 124.135 97.2072 124.273 97.2072 124.273L98.8139 125.889Z" fill="#DA4534"/>
<path fill-rule="evenodd" clip-rule="evenodd" d="M97.556 124.766C97.556 124.766 96.368 125.891 95.32 126.1C94.272 126.31 91.6493 126.766 92.3867 126.802C93.1227 126.84 97.128 126.792 98.044 125.258C98.3947 124.555 97.556 124.766 97.556 124.766Z" fill="#034EA1"/>
<path fill-rule="evenodd" clip-rule="evenodd" d="M96.8607 137.102L98.558 135.635L96.87 134.171L95.2874 135.402L96.8607 137.102ZM96.8273 137.911L94.386 135.272L96.8393 133.36L99.4607 135.635L96.8273 137.911Z" fill="#034EA1"/>
<path fill-rule="evenodd" clip-rule="evenodd" d="M68.9076 105.699L70.7436 105.671C70.8262 106.893 71.2716 107.383 71.2582 108.654C71.1649 116.423 68.7022 125.727 63.1876 133.211H59.7396C62.2822 128.617 64.3609 124.058 65.8889 119.473C67.4182 114.887 68.3942 110.274 68.9076 105.699Z" fill="#DA4534"/>
<path fill-rule="evenodd" clip-rule="evenodd" d="M74.3855 164.613C74.0001 157.333 72.7468 151.003 70.1148 147.565L69.1721 146.344L76.4695 146.451L74.3855 164.613Z" fill="#231F20"/>
<path d="M57.0364 181.74C48.3791 163.805 43.9404 154.342 36.7684 142.709C29.5964 131.076 28.2311 130.024 22.9897 128.688" stroke="#004281" stroke-width="1.13333" stroke-miterlimit="2.613"/>
<path d="M52.7774 181.31H48.36L29.8307 152.547C30.656 151.955 31.9307 151.892 33.328 150.503" stroke="#034EA1" stroke-width="1.13333" stroke-miterlimit="2.613"/>
<path fill-rule="evenodd" clip-rule="evenodd" d="M23.069 152.41V157.742C26.5397 159.505 29.453 172.165 28.0077 181.31H48.3597L29.8304 152.547C31.8397 152.669 23.065 154.039 23.069 152.41Z" fill="#DA4534"/>
<path d="M72.1614 181.671C72.1788 179.584 73.3614 178.191 74.4174 177.184" stroke="#034EA1" stroke-width="1.13333" stroke-miterlimit="2.613"/>
<path d="M61.7096 181.671C61.6923 179.584 59.8296 177.697 57.4843 176.901" stroke="#034EA1" stroke-width="1.13333" stroke-miterlimit="2.613"/>
<path d="M59.8086 181.671C59.7912 179.937 58.6099 178.825 57.5526 178.593" stroke="#034EA1" stroke-width="1.13333" stroke-miterlimit="2.613"/>
<path d="M70.3281 181.671C70.4815 178.951 72.9561 175.935 74.4175 175.068" stroke="#034EA1" stroke-width="1.13333" stroke-miterlimit="2.613"/>
<path d="M63.6784 181.671C63.5237 178.951 61.1184 175.865 56.7371 174.432" stroke="#034EA1" stroke-width="1.13333" stroke-miterlimit="2.613"/>
<path d="M68.7669 181.671C69.3962 178.315 71.5296 174.243 74.2829 172.812" stroke="#034EA1" stroke-width="1.13333" stroke-miterlimit="2.613"/>
<path d="M65.4414 181.671C64.7454 177.115 60.5761 173.396 56.3307 172.531" stroke="#034EA1" stroke-width="1.13333" stroke-miterlimit="2.613"/>
<path d="M66.9349 181.671C67.5643 178.315 70.7843 172.128 74.2149 170.556" stroke="#034EA1" stroke-width="1.13333" stroke-miterlimit="2.613"/>
<path d="M66.9349 181.671C66.6442 178.032 63.3576 172.128 56.0589 170.556" stroke="#034EA1" stroke-width="1.13333" stroke-miterlimit="2.613"/>
<path fill-rule="evenodd" clip-rule="evenodd" d="M87.974 166.46C84.6487 166.46 81.9367 163.748 81.9367 160.424C81.9367 157.098 84.6487 154.385 87.974 154.385C90.994 154.385 93.434 156.456 93.8727 159.356C93.9153 159.42 94.51 159.253 94.5527 159.132C94.466 154.42 93.5553 151.38 91.8353 149.032H98.706C96.9047 152.24 96.2073 155.761 96.1953 159.32L96.782 159.426C97.262 156.572 99.7527 154.385 102.737 154.385C106.062 154.385 108.775 157.098 108.775 160.424C108.775 163.748 106.062 166.46 102.737 166.46C101.282 166.46 99.9447 165.941 98.9007 165.078L98.49 165.532C100.402 166.646 101.691 168.718 101.691 171.084C101.691 174.62 98.8073 177.505 95.27 177.505C91.734 177.505 88.8487 174.62 88.8487 171.084C88.8487 168.628 90.2393 166.485 92.2767 165.406L91.9927 164.922C90.9247 165.877 89.5153 166.46 87.974 166.46Z" fill="#231F20"/>
<path d="M57.5443 177.812L53.7576 174.698" stroke="#034EA1" stroke-width="1.13333" stroke-miterlimit="2.613"/>
<path d="M57.0703 174.247L51.0769 168.855" stroke="#034EA1" stroke-width="1.13333" stroke-miterlimit="2.613"/>
<path d="M56.4401 171.234L48.8921 164.976" stroke="#034EA1" stroke-width="1.13333" stroke-miterlimit="2.613"/>
<path d="M55.4934 168.22C52.7081 165.207 49.6041 162.353 46.8174 160.608" stroke="#034EA1" stroke-width="1.13333" stroke-miterlimit="2.613"/>
<path d="M54.8633 165.523C52.3913 162.195 47.3953 157.753 44.45 156.326" stroke="#034EA1" stroke-width="1.13333" stroke-miterlimit="2.613"/>
<path d="M53.8672 162.146C51.3952 158.815 45.5032 153.949 42.5579 152.518" stroke="#034EA1" stroke-width="1.13333" stroke-miterlimit="2.613"/>
<path d="M52.6549 158.388C49.8669 154.899 45.3469 150.617 40.5056 149.189" stroke="#034EA1" stroke-width="1.13333" stroke-miterlimit="2.613"/>
<path d="M51.0768 154.422C47.5008 150.935 42.6621 146.81 38.4541 145.383" stroke="#034EA1" stroke-width="1.13333" stroke-miterlimit="2.613"/>
<path d="M49.1822 150.299C45.1342 146.651 40.6089 143.795 36.0862 141.733" stroke="#034EA1" stroke-width="1.13333" stroke-miterlimit="2.613"/>
<path d="M47.2904 146.81C43.2411 143.163 38.6371 140.226 34.1131 138.164" stroke="#004281" stroke-width="1.13333" stroke-miterlimit="2.613"/>
<path d="M44.2929 141.893C39.7702 138.721 36.6609 136.975 32.4529 135.865" stroke="#034EA1" stroke-width="1.13333" stroke-miterlimit="2.613"/>
<path d="M40.7656 137.227C36.2282 134.427 33.1416 134.143 30.8536 133.636" stroke="#004281" stroke-width="1.13333" stroke-miterlimit="2.613"/>
<path d="M36.5078 132.626C32.1265 130.778 29.9878 131.052 27.7025 130.544" stroke="#004281" stroke-width="1.13333" stroke-miterlimit="2.613"/>
<path fill-rule="evenodd" clip-rule="evenodd" d="M47.8489 181.236H45.6289L46.5716 180.038L47.8489 181.236Z" fill="#231F20"/>
<path fill-rule="evenodd" clip-rule="evenodd" d="M43.9336 181.03H42.5656C42.8229 180.289 41.1509 179.075 42.4016 178.891C43.6509 178.709 43.5363 180.203 43.9336 181.03Z" fill="#231F20"/>
<path d="M44.7838 181.191C44.7838 181.191 45.1878 176.97 39.1678 174.187C38.9972 173.581 40.9545 167.182 32.9545 164.761C33.3985 161.811 32.1892 158.189 29.2078 157.15C29.4652 154.555 28.8692 153.605 27.9318 153.173" stroke="#231F20" stroke-width="1.13333" stroke-miterlimit="2.613"/>
<path fill-rule="evenodd" clip-rule="evenodd" d="M41.3841 173.422L40.6921 172.685L41.4281 171.995L42.1201 172.731L41.3841 173.422Z" fill="#231F20"/>
<path fill-rule="evenodd" clip-rule="evenodd" d="M35.0013 164.095L34.3107 163.359L35.0467 162.67L35.7373 163.406L35.0013 164.095Z" fill="#231F20"/>
<path fill-rule="evenodd" clip-rule="evenodd" d="M30.4426 156.465L29.9013 155.613L30.752 155.071L31.2933 155.923L30.4426 156.465Z" fill="#231F20"/>
<path fill-rule="evenodd" clip-rule="evenodd" d="M34.5716 172.936C34.1956 172.936 33.8916 172.631 33.8916 172.255C33.8916 171.879 34.1956 171.575 34.5716 171.575C34.9476 171.575 35.2543 171.879 35.2543 172.255C35.2543 172.631 34.9476 172.936 34.5716 172.936Z" fill="#231F20"/>
<path fill-rule="evenodd" clip-rule="evenodd" d="M28.8697 163.612C28.4937 163.612 28.1884 163.307 28.1884 162.929C28.1884 162.555 28.4937 162.249 28.8697 162.249C29.2444 162.249 29.5497 162.555 29.5497 162.929C29.5497 163.307 29.2444 163.612 28.8697 163.612Z" fill="#231F20"/>
<path fill-rule="evenodd" clip-rule="evenodd" d="M39.0833 179.523C38.706 179.523 38.402 179.218 38.402 178.843C38.402 178.469 38.706 178.162 39.0833 178.162C39.458 178.162 39.7633 178.469 39.7633 178.843C39.7633 179.218 39.458 179.523 39.0833 179.523Z" fill="#231F20"/>
<path fill-rule="evenodd" clip-rule="evenodd" d="M33.3802 170.198C33.0042 170.198 32.7002 169.893 32.7002 169.518C32.7002 169.142 33.0042 168.838 33.3802 168.838C33.7562 168.838 34.0629 169.142 34.0629 169.518C34.0629 169.893 33.7562 170.198 33.3802 170.198Z" fill="#231F20"/>
<path fill-rule="evenodd" clip-rule="evenodd" d="M27.6771 161.215C27.3024 161.215 26.9971 160.909 26.9971 160.533C26.9971 160.159 27.3024 159.853 27.6771 159.853C28.0531 159.853 28.3597 160.159 28.3597 160.533C28.3597 160.909 28.0531 161.215 27.6771 161.215Z" fill="#231F20"/>
<path fill-rule="evenodd" clip-rule="evenodd" d="M36.53 176.957L36.1886 178.925C35.9113 179.581 37.9633 179.906 37.5513 178.584C37.138 177.26 36.3593 177.128 36.53 176.957Z" fill="#231F20"/>
<path fill-rule="evenodd" clip-rule="evenodd" d="M30.8268 167.631L30.4855 169.599C30.2081 170.254 32.2615 170.582 31.8481 169.258C31.4361 167.934 30.6561 167.802 30.8268 167.631Z" fill="#231F20"/>
<path fill-rule="evenodd" clip-rule="evenodd" d="M35.6027 175.073L34.3414 173.526C34.0294 172.885 32.4347 174.22 33.7054 174.778C34.9761 175.336 35.5854 174.833 35.6027 175.073Z" fill="#231F20"/>
<path fill-rule="evenodd" clip-rule="evenodd" d="M29.8997 165.749L28.6397 164.201C28.3277 163.559 26.7344 164.894 28.0024 165.453C29.2731 166.01 29.8824 165.507 29.8997 165.749Z" fill="#231F20"/>
<path fill-rule="evenodd" clip-rule="evenodd" d="M36.1276 176.052L33.7862 176.528C32.9542 176.505 33.2089 178.913 34.5902 177.884C35.9716 176.856 35.8796 175.94 36.1276 176.052Z" fill="#231F20"/>
<path fill-rule="evenodd" clip-rule="evenodd" d="M30.4257 166.728L28.0831 167.202C27.2524 167.18 27.5071 169.588 28.8871 168.557C30.2684 167.529 30.1791 166.613 30.4257 166.728Z" fill="#231F20"/>
<path fill-rule="evenodd" clip-rule="evenodd" d="M37.6354 176.957L35.9341 174.134C35.9341 174.134 37.3754 173.32 37.3754 172.377C37.3754 171.436 37.2101 171.396 36.7834 171.482C36.3594 171.568 35.7354 170.37 36.4434 170.198C37.1528 170.028 38.1688 171.141 37.9714 172.594C37.7741 174.048 36.9008 175.409 36.9008 175.409C36.9008 175.409 38.2634 175.292 39.4768 175.489C40.5488 175.661 41.4768 176.108 41.6754 176.664C42.1021 177.853 41.2701 178.156 40.7834 177.985C40.3008 177.813 41.2661 176.401 40.1048 176.36C38.9408 176.317 38.5714 176.36 37.6354 176.957Z" fill="#231F20"/>
<path fill-rule="evenodd" clip-rule="evenodd" d="M31.9322 167.631L30.2322 164.809C30.2322 164.809 31.6736 163.993 31.6736 163.051C31.6736 162.111 31.5082 162.07 31.0816 162.157C30.6562 162.242 30.0322 161.045 30.7402 160.874C31.4509 160.703 32.4669 161.815 32.2682 163.269C32.0709 164.723 31.1989 166.083 31.1989 166.083C31.1989 166.083 32.5602 165.967 33.7749 166.162C34.8469 166.335 35.7736 166.781 35.9736 167.339C36.3989 168.529 35.5682 168.83 35.0816 168.659C34.5976 168.487 35.5642 167.075 34.4016 167.033C33.2389 166.991 32.8696 167.033 31.9322 167.631Z" fill="#231F20"/>
<path fill-rule="evenodd" clip-rule="evenodd" d="M26.2317 158.648L25.465 157.28C26.5237 155.848 26.9317 155.094 27.3744 154.302C27.7877 155.291 27.0517 156.423 26.6024 157.356C26.6024 157.356 26.8597 156.984 28.073 157.179C29.145 157.351 30.073 157.799 30.2704 158.355C30.697 159.544 29.865 159.846 29.3797 159.676C28.8957 159.504 29.861 158.092 28.6997 158.05C27.537 158.008 27.1677 158.05 26.2317 158.648Z" fill="#231F20"/>
<path fill-rule="evenodd" clip-rule="evenodd" d="M68.5964 150.357C68.5964 150.357 67.3057 150.814 66.4204 150.682C65.5364 150.553 64.1204 149.966 64.1204 149.966C64.1204 149.966 64.7097 150.943 65.9204 151.074C67.1284 151.206 67.5337 151.206 68.5964 150.357ZM68.4017 152.247C68.4017 152.247 67.4271 151.857 66.5204 151.987C65.6124 152.117 64.8991 152.247 64.8991 152.247C64.8991 152.247 65.8071 151.466 66.5844 151.531C67.3631 151.597 67.5591 151.401 68.4017 152.247V152.247ZM70.8657 154.333L69.8937 152.573C69.8937 152.573 69.1804 153.682 67.7524 153.097C66.3257 152.509 66.0671 153.162 65.0924 153.551C64.1204 153.942 63.1777 153.71 62.2391 152.966C61.6191 152.473 62.3044 154.007 62.3044 154.007C62.3044 154.007 62.3044 155.705 62.8231 155.117C63.3431 154.53 63.6004 154.463 64.1204 154.53C64.6391 154.597 65.0924 154.987 65.9364 154.661C66.7791 154.333 67.2977 154.333 68.1404 154.661C68.9844 154.987 69.0497 154.661 69.7631 154.399C70.4764 154.139 71.1897 155.313 70.8657 154.333V154.333ZM68.0124 158.573C68.0124 158.573 68.3177 159.421 66.9737 159.094C66.7684 159.045 66.0017 157.986 65.1591 157.986C64.3151 157.986 63.5124 157.609 63.8617 158.963C64.3244 160.758 63.3724 159.101 63.4711 158.311C63.5711 157.523 64.4684 157.361 65.4831 157.463C66.4964 157.567 67.6231 158.051 68.0124 158.573V158.573ZM63.3431 166.135C61.7857 167.245 56.7271 166.005 56.4017 165.093C56.7271 166.005 57.8951 167.05 60.0337 167.375C62.1751 167.701 63.3431 166.135 63.3431 166.135V166.135ZM61.2017 160.789C63.4004 162.634 63.3271 163.138 63.0177 163.658C61.3964 162.55 59.9031 163.071 58.8657 163.529C57.8284 163.985 56.5977 164.766 56.5977 164.766L54.7804 164.83L54.9897 165.742L55.6884 165.743C56.7497 166.375 57.6351 167.635 60.2297 168.026C62.8231 168.417 64.3151 165.875 64.3151 165.875L64.0551 164.961C64.0551 164.961 63.6177 164.998 64.1204 164.179C64.7031 163.231 61.5911 160.594 61.5911 160.594L61.2017 160.789ZM63.9137 169.979C64.4511 169.689 65.1017 168.334 63.6951 168.917C62.2911 169.498 61.2151 170.081 59.2311 169.663C57.2457 169.249 55.5111 168.583 55.5111 168.583C55.5111 168.583 55.5924 169.149 58.3217 170.062C61.0511 170.977 63.3777 170.271 63.9137 169.979V169.979ZM58.7057 165.105L58.7711 164.07L57.4364 164.813C57.7484 165.023 58.1271 165.215 58.7057 165.105ZM69.7324 164.974C69.1524 165.086 68.8404 164.698 68.5924 164.226L69.7324 163.679V164.974ZM63.0751 164.967L62.2471 165.218C62.2471 165.218 62.2777 164.274 61.1084 164.209C59.9404 164.143 59.9751 165.319 59.9751 165.319C59.9751 165.319 59.5004 165.422 59.3551 165.171C59.2111 164.925 59.2337 164.23 59.8857 163.727C60.5391 163.225 62.9924 163.299 63.0751 164.967ZM73.4524 164.51L72.6257 164.761C72.6257 164.761 72.4591 164.013 71.5511 164.013C70.6417 164.013 70.8057 164.927 70.8057 164.927C70.8057 164.927 70.3311 165.031 70.1857 164.781C70.0431 164.533 70.0631 164.013 70.3924 163.597C71.3017 162.682 73.3697 162.515 73.4524 164.51V164.51ZM74.5177 166.425C71.6284 168.173 68.6564 165.841 68.6564 165.841C71.3217 166.687 73.3004 166.123 74.5151 165.475C74.4857 164.654 74.3791 163.853 74.1137 163.347C72.7911 161.518 69.5684 163.182 69.4844 163.099C69.4017 163.015 70.2284 161.658 71.2204 160.938C71.5511 160.522 69.5671 161.685 69.5671 161.685L70.3097 159.857C70.3097 159.857 70.8897 158.109 70.2284 157.778C69.5671 157.446 68.5124 157.07 67.9951 156.449L68.0777 157.529C68.0777 157.529 68.2431 157.611 69.2351 158.029C70.2284 158.443 69.6497 160.19 69.6497 160.19C69.6497 160.19 69.1524 162.183 68.1617 164.843C67.1684 167.503 68.4924 168.999 69.6497 169.749C70.8057 170.495 74.3617 169.749 74.3617 169.749V168.499C74.3617 168.499 74.3657 168.466 74.3737 168.403C73.4297 168.829 71.2964 169.629 69.7324 168.999C67.6657 168.169 68.4084 165.925 68.4084 166.425C68.4084 166.905 71.9457 168.469 74.4977 166.938C74.5071 166.774 74.5137 166.599 74.5177 166.425Z" fill="#034EA1"/>
<path d="M74.371 181.31C74.3884 168.115 74.667 153.511 70.115 147.564C65.5644 141.619 56.1324 148.01 50.4964 153.64" stroke="#034EA1" stroke-width="1.13333" stroke-miterlimit="2.613"/>
<path fill-rule="evenodd" clip-rule="evenodd" d="M57.8033 147.927H48.0593L47.29 146.159H60.8566L57.8033 147.927Z" fill="#034EA1"/>
<path d="M57.8033 147.927H48.0593L47.29 146.159H60.8566L57.8033 147.927Z" stroke="#004281" stroke-width="0.756" stroke-miterlimit="2.613"/>
<path d="M77.4935 143.794H45.6681" stroke="#034EA1" stroke-width="0.945333" stroke-miterlimit="2.613"/>
<path fill-rule="evenodd" clip-rule="evenodd" d="M73.8607 141.435H70.81L72.6073 138.842H75.6567L73.8607 141.435Z" fill="#231F20"/>
<path fill-rule="evenodd" clip-rule="evenodd" d="M52.7409 134.948H55.7916L53.9969 137.542H50.9449L52.7409 134.948Z" fill="#231F20"/>
<path fill-rule="evenodd" clip-rule="evenodd" d="M43.4713 134.948H46.522L44.726 137.542H41.6753L43.4713 134.948Z" fill="#231F20"/>
<path fill-rule="evenodd" clip-rule="evenodd" d="M65.1784 141.435H62.1277L63.9237 138.842H66.9744L65.1784 141.435Z" fill="#231F20"/>
<path fill-rule="evenodd" clip-rule="evenodd" d="M61.4245 134.948H64.4752L62.6792 137.542H59.6285L61.4245 134.948Z" fill="#231F20"/>
<path fill-rule="evenodd" clip-rule="evenodd" d="M56.026 141.435H52.9753L54.7713 138.842H57.822L56.026 141.435Z" fill="#231F20"/>
<path fill-rule="evenodd" clip-rule="evenodd" d="M70.3412 134.948H73.3919L71.5959 137.542H68.5452L70.3412 134.948Z" fill="#231F20"/>
<path fill-rule="evenodd" clip-rule="evenodd" d="M46.9921 141.435H43.9415L45.7375 138.842H48.7881L46.9921 141.435Z" fill="#231F20"/>
<path fill-rule="evenodd" clip-rule="evenodd" d="M78.3203 134.948H81.3696L79.5736 137.542H76.5229L78.3203 134.948Z" fill="#231F20"/>
<path d="M78.6667 141.383H44.1707" stroke="#231F20" stroke-width="0.945333" stroke-miterlimit="2.613"/>
<path d="M39.1263 135H82.1876" stroke="#231F20" stroke-width="0.945333" stroke-miterlimit="2.613"/>
<path fill-rule="evenodd" clip-rule="evenodd" d="M80.3802 116.738L80.4002 116.701C77.2416 118.057 75.0069 121.292 75.0069 125.049C75.0069 133.276 84.8669 133.5 80.6549 133.5H75.1349C72.8203 131.876 71.2922 127.86 71.5669 124.218C71.8429 120.578 74.1976 116.169 77.6469 113.796L80.3802 116.738Z" fill="#DA4534"/>
<path d="M77.4752 133.362C75.1592 131.737 73.6312 127.722 73.9059 124.081C74.1819 120.441 76.4139 116.673 79.0245 115.318" stroke="#034EA1" stroke-width="0.945333" stroke-miterlimit="2.613"/>
<path fill-rule="evenodd" clip-rule="evenodd" d="M85.1445 132.365L84.4845 130.501L87.0738 124.969L81.6018 118.334C79.4845 119.51 78.0112 122.081 78.0112 125.05C78.0112 129.126 80.7898 132.451 84.1965 132.451C84.5178 132.451 84.8352 132.422 85.1445 132.365" fill="#034EA1"/>
<path fill-rule="evenodd" clip-rule="evenodd" d="M80.3997 116.7L81.5997 118.334C79.4837 119.51 78.0117 122.08 78.0117 125.05C78.0117 129.126 80.7904 132.451 84.197 132.451C86.797 132.451 83.497 132.955 81.1277 133.672C77.589 132.524 75.0064 129.088 75.0064 125.05C75.0064 121.291 77.241 118.058 80.3997 116.7" fill="#231F20"/>
<path d="M37.026 133.211H82.8673" stroke="#231F20" stroke-width="0.945333" stroke-miterlimit="2.613"/>
<path fill-rule="evenodd" clip-rule="evenodd" d="M64.6445 105.648H63.4525C61.2365 114.272 55.4698 122.132 46.1138 123.794C36.7552 125.454 33.5898 124.623 33.5898 124.623L30.8378 129.327C33.1765 129.327 37.1872 133.211 37.1872 133.211H48.7312C51.0138 133.346 55.3458 128.536 58.8378 122.518C62.1165 116.863 64.7765 109.876 64.6445 105.648Z" fill="#EC1C24"/>
<path d="M63.4844 105.648C61.2697 114.272 55.4697 122.132 46.1137 123.794C36.755 125.454 33.5897 124.623 33.5897 124.623L30.8377 129.327" stroke="#034EA1" stroke-width="0.945333" stroke-miterlimit="2.613"/>
<path fill-rule="evenodd" clip-rule="evenodd" d="M64.6445 105.648H69.1152C68.5765 115.602 66.0099 124.266 59.7392 133.211H48.7312C51.0139 133.346 55.3459 128.536 58.8379 122.518C62.1165 116.863 64.7765 109.876 64.6445 105.648Z" fill="#231F20"/>
<path fill-rule="evenodd" clip-rule="evenodd" d="M70.9805 108.299C71.2872 110.374 72.8379 113.881 74.6325 116.954C70.7379 123.797 71.1979 127.981 74.8965 133.211H63.1872C65.3312 129.473 65.7885 127.721 68.0485 121.827C70.3072 115.933 70.6979 111.143 70.9805 108.299Z" fill="#231F20"/>
<path d="M70.9805 108.299C71.2872 110.374 72.8379 113.881 74.6325 116.954" stroke="#231F20" stroke-width="0.945333" stroke-miterlimit="2.613"/>
<path fill-rule="evenodd" clip-rule="evenodd" d="M57.6719 118.26L54.2332 121.166C54.2332 121.166 53.9572 123.239 55.1972 123.516C56.4346 123.794 57.8106 122.963 56.9839 121.026C57.3972 120.888 59.8746 120.059 57.6719 118.26Z" fill="white"/>
<path fill-rule="evenodd" clip-rule="evenodd" d="M49.0027 127.391C49.0027 127.391 48.588 125.315 47.2147 125.592C45.8373 125.868 46.252 126.975 46.388 128.22C45.2413 129.327 46.3427 132.508 48.864 130.296C52.0307 130.849 53.132 127.252 49.0027 127.391Z" fill="white"/>
<path fill-rule="evenodd" clip-rule="evenodd" d="M39.7826 126.422C39.7826 126.422 39.2319 125.315 37.9932 125.593C36.7546 125.869 37.1679 126.698 37.3052 127.943C36.1586 129.05 37.8106 131.955 39.9199 129.742C43.0839 130.295 43.9119 126.283 39.7826 126.422Z" fill="white"/>
<path fill-rule="evenodd" clip-rule="evenodd" d="M56.0729 127.354H60.7423L61.3503 125.946H57.0583C57.8369 124.818 58.5329 123.758 59.1556 122.757H62.7956L63.4036 121.818H59.7303C60.5063 120.529 61.1569 119.345 61.7089 118.253H64.6329L64.9903 117.314H62.1649C62.7889 115.995 63.2623 114.818 63.6276 113.747H65.9409L66.2969 113.091H63.8423C64.2396 111.827 64.4903 110.721 64.6796 109.711H66.9689L67.1383 109.054H64.7996C64.9676 108.078 65.0916 107.191 65.2596 106.334H67.2476L67.5049 105.657H68.3449C68.2823 106.165 68.2209 106.673 68.1583 107.179H66.4849L66.1276 107.835H68.0783C67.9556 108.802 67.8316 109.765 67.6956 110.721H65.8236L65.4876 111.775H67.5396C67.3636 112.943 67.1623 114.102 66.9329 115.25H64.8743L64.3809 116.187H66.7343C66.4903 117.293 66.2129 118.387 65.8889 119.473H62.7503L62.1423 120.693H65.5023C65.3676 121.097 65.2236 121.497 65.0743 121.898C64.8223 122.573 64.5636 123.201 64.3049 123.789H60.6956L60.0889 124.726H63.8756C63.1636 126.223 62.4343 127.478 61.7063 128.669H57.4596L56.7769 129.513H61.1876C60.4489 130.706 59.7169 131.875 59.0116 133.211H56.4743L58.0103 130.898H53.4436C54.4023 129.651 55.2743 128.474 56.0729 127.354Z" fill="#DA4534"/>
<path fill-rule="evenodd" clip-rule="evenodd" d="M71.6081 123.789C71.6481 123.449 71.7054 123.104 71.7801 122.757H68.4854C68.0668 123.758 67.5908 124.817 67.0454 125.946H71.3361L71.0174 127.354H67.0961C66.5268 128.474 65.8988 129.65 65.1974 130.898H69.0174L67.9561 133.21H70.4948C70.9241 131.874 71.4134 130.706 71.9094 129.513H67.4974L68.0054 128.669H72.0601C71.6908 127.409 71.4988 126.052 71.5388 124.726H69.8228L70.2388 123.789H71.6081ZM73.6868 115.25C73.4214 114.749 73.1668 114.246 72.9281 113.748H71.1014C70.9561 114.817 70.7268 115.996 70.3748 117.314H73.1988L73.0348 118.253H70.1094C69.7841 119.345 69.3774 120.529 68.8654 121.817H72.0161C72.1254 121.442 72.2508 121.068 72.3948 120.693H71.0454L71.4014 119.473H72.9228C73.3694 118.548 73.9174 117.648 74.5481 116.81C74.4281 116.604 74.3108 116.396 74.1948 116.188H72.3588L72.6574 115.25H73.6868ZM72.6201 113.092C72.0748 111.898 71.6241 110.756 71.3254 109.762C71.3308 110.126 71.3308 110.5 71.3214 110.89C71.3068 111.573 71.2681 112.302 71.1814 113.092H72.6201Z" fill="#DA4534"/>
<path d="M75.1355 133.5C72.8208 131.875 71.2915 127.86 71.5661 124.219C71.8421 120.579 74.1981 116.169 77.6475 113.796" stroke="#231F20" stroke-width="0.945333" stroke-miterlimit="2.613"/>
<path fill-rule="evenodd" clip-rule="evenodd" d="M108.78 88.2812C105.56 84.9358 100.893 82.6998 94.976 82.0758C82.9186 80.7998 72.172 92.2025 72.06 100.825C71.948 109.448 73.5373 112.308 75.7773 115.2L74.884 116.288C73.7706 114.649 70.9306 108.893 70.9346 105.335C70.172 101.776 71.5173 93.1665 77.3133 87.8852C83.1106 82.6038 93.1253 75.1092 109.609 87.4932L108.78 88.2812Z" fill="#DA4534"/>
<path d="M74.8841 116.288C73.7708 114.649 70.9308 108.893 70.9348 105.334C70.1721 101.776 71.5174 93.1664 77.3134 87.8851C83.1108 82.6037 93.1254 75.1091 109.609 87.4931" stroke="#034EA1" stroke-width="0.944" stroke-miterlimit="2.613"/>
<path fill-rule="evenodd" clip-rule="evenodd" d="M80.6914 111.193L75.7768 115.201C73.5381 112.307 71.9474 109.447 72.0594 100.826C72.1714 92.2033 82.9194 80.7993 94.9768 82.0753C100.893 82.7007 105.559 84.9367 108.779 88.2807L103.49 92.5953C101.505 90.55 99.0008 88.9633 93.1581 88.5993C87.3128 88.234 78.8901 94.3313 78.5168 102.893C78.3714 106.043 79.8274 109.302 80.6914 111.193Z" fill="#231F20"/>
<path fill-rule="evenodd" clip-rule="evenodd" d="M101.724 94.0352L103.489 92.5952C101.505 90.5499 99.0013 88.9632 93.1573 88.5992C87.312 88.2339 78.8906 94.3312 78.5173 102.894C78.3706 106.039 79.8226 109.295 80.6906 111.186L82.816 109.453C82.084 107.706 81.3013 105.387 81.4053 103.127C81.752 95.1819 88.2986 90.7992 93.7213 91.1379C97.308 91.3619 99.8693 92.6432 101.724 94.0352Z" fill="#DA4534"/>
<path fill-rule="evenodd" clip-rule="evenodd" d="M86.9688 106.068L82.8168 109.453C82.0834 107.706 81.3008 105.386 81.4048 103.128C81.7514 95.1824 88.2981 90.7997 93.7208 91.1384C97.3088 91.3624 99.8701 92.6437 101.723 94.0357L97.6261 97.3757C96.6354 96.5904 95.2354 95.8331 93.2234 95.7077C90.3608 95.5304 86.7661 98.0411 86.3621 100.941C85.9888 103.63 86.5474 105.126 86.9688 106.068Z" fill="#034EA1"/>
<path fill-rule="evenodd" clip-rule="evenodd" d="M87.0651 106.28C86.6411 105.356 85.9584 103.841 86.3624 100.941C86.7651 98.0412 90.3611 95.5292 93.2237 95.7079C95.3704 95.8412 96.8197 96.6959 97.8211 97.5332L87.0651 106.28Z" fill="#EC1C24"/>
<path fill-rule="evenodd" clip-rule="evenodd" d="M79.1407 112.451L110.382 86.6118V89.1612L80.4033 113.925L79.1407 112.451Z" fill="#DA4534"/>
<path fill-rule="evenodd" clip-rule="evenodd" d="M86.2057 121.19L110.83 100.997V91.8914L81.4964 115.726L86.2057 121.19Z" fill="#034EA1"/>
<path fill-rule="evenodd" clip-rule="evenodd" d="M86.7825 122.25L110.248 103.183V106.462L88.5505 124.073L86.7825 122.25Z" fill="#EC1C24"/>
<path d="M86.7825 122.25L110.248 103.183V106.462L88.5505 124.073L86.7825 122.25Z" stroke="#034EA1" stroke-width="0.944" stroke-miterlimit="2.613"/>
<path fill-rule="evenodd" clip-rule="evenodd" d="M107.431 100.263C106.79 100.263 106.264 99.739 106.264 99.0964C106.264 98.4537 106.79 97.9297 107.431 97.9297C108.074 97.9297 108.598 98.4537 108.598 99.0964C108.598 99.739 108.074 100.263 107.431 100.263ZM98.6616 107.014C98.0363 107.014 97.5256 106.502 97.5256 105.875C97.5256 105.248 98.0363 104.739 98.6616 104.739C99.2883 104.739 99.7989 105.248 99.7989 105.875C99.7989 106.502 99.2883 107.014 98.6616 107.014ZM105.779 101.302C106.24 101.648 106.812 101.854 107.431 101.854C108.95 101.854 110.188 100.615 110.188 99.0964C110.188 97.5777 108.95 96.339 107.431 96.339C105.912 96.339 104.674 97.5777 104.674 99.0964C104.674 99.4577 104.743 99.8017 104.872 100.12L104.462 100.448L104.299 100.256C103.802 99.6697 102.972 99.4817 102.347 99.9297C101.719 100.376 101.522 101.295 102.018 101.883L102.287 102.198L100.331 103.772C99.8723 103.406 99.2923 103.188 98.6616 103.188C97.1816 103.188 95.9736 104.396 95.9736 105.875C95.9736 106.322 96.0843 106.742 96.2789 107.115L96.0003 107.338L95.4789 106.786C94.9536 106.224 94.1536 106.011 93.5269 106.458C92.9016 106.904 92.6723 107.851 93.2003 108.411L93.8323 109.08L92.0696 110.5C91.6136 110.146 91.0429 109.936 90.4243 109.936C88.9456 109.936 87.7376 111.143 87.7376 112.623C87.7376 113.084 87.8549 113.52 88.0616 113.9L87.6056 114.271L87.2256 113.802C86.7389 113.206 85.9603 112.932 85.3016 113.332C84.6429 113.732 84.3469 114.656 84.8309 115.255L85.4563 116.023L83.3749 117.719L84.3269 118.916L86.4069 117.198L86.8509 117.744C87.3336 118.34 88.1163 118.615 88.7749 118.215C89.4323 117.816 89.7283 116.888 89.2456 116.291L88.5456 115.43L89.1096 114.964C89.5003 115.184 89.9496 115.31 90.4243 115.31C91.9043 115.31 93.1123 114.103 93.1123 112.623C93.1123 112.314 93.0589 112.015 92.9616 111.739L94.8709 110.183L95.4003 110.744C95.9243 111.302 96.7256 111.518 97.3523 111.071C97.9789 110.624 98.2056 109.678 97.6803 109.119L97.0269 108.427L97.3096 108.195C97.7083 108.428 98.1709 108.563 98.6616 108.563C100.142 108.563 101.348 107.354 101.348 105.875C101.348 105.578 101.3 105.291 101.211 105.023L103.263 103.351L103.742 103.916C104.236 104.502 105.068 104.69 105.694 104.242C106.322 103.795 106.518 102.875 106.022 102.291L105.427 101.588L105.779 101.302ZM90.4243 113.76C89.7976 113.76 89.2896 113.25 89.2896 112.623C89.2896 111.998 89.7976 111.487 90.4243 111.487C91.0509 111.487 91.5629 111.998 91.5629 112.623C91.5629 113.25 91.0509 113.76 90.4243 113.76" fill="white"/>
<path fill-rule="evenodd" clip-rule="evenodd" d="M104.568 90.7969L106.388 88.9209L105.734 86.3382L103.868 85.2116L104.148 87.4182C102.262 86.5422 102.25 85.1969 101.626 84.1796L99.4304 83.4289L100.318 85.3996L98.1704 84.6489L96.0224 82.5369L94.0624 82.4902L95.4171 84.4142H94.1544C93.1291 83.8516 92.4277 83.0996 91.2131 82.6769L89.1131 82.9582L90.7944 84.4609L89.0197 84.6956L86.6864 83.5222C86.0464 83.7889 85.3624 84.0076 84.7704 84.4609C85.3464 84.8356 85.9224 85.2116 86.4971 85.5876L84.4904 86.3849L81.8291 86.0102C81.1757 86.3662 80.6624 86.8582 80.1477 87.4636L81.8291 88.0289L80.0544 89.4356L77.8144 89.5782L76.5064 91.2196L78.3744 91.4076C77.1531 93.7449 76.6184 93.5916 74.5931 94.3649L73.7517 96.3356L75.8997 95.8209L75.3864 97.6022C74.5611 98.0262 73.8304 98.4476 73.0984 98.9636C72.8957 99.5902 72.8171 100.278 72.8651 101.029L74.6864 100.138L74.7331 101.826L72.8171 105.018L73.0984 107.365L74.9664 105.018L75.3864 107.27L73.8451 109.993L74.6864 111.872L76.1797 109.665C76.5384 110.745 76.8651 111.825 77.3477 112.904L78.7011 111.872L77.8597 109.337L79.4944 109.948C79.1891 109.164 79.0757 108.308 78.5704 107.868C78.2331 107.569 77.7877 107.092 76.9277 106.474L76.7397 104.878L78.1877 105.864V103.893L76.4131 102.297V100.606L76.5531 100.654L78.2331 102.204C78.3131 101.546 78.3424 100.888 78.3277 100.232L77.0197 98.1196L77.4397 96.7582L78.8411 98.9169C79.1211 98.2916 79.3077 97.5702 79.5891 96.9449L78.7491 94.6929L79.7277 93.0489L80.2877 95.3036L81.5957 93.7556L81.5024 90.9849L82.7624 89.9996L82.6237 92.3929L84.3504 91.2196L84.7237 88.7316L86.6384 87.7942L85.9851 89.9049L87.7117 88.9662C87.7117 88.9662 88.7397 86.3382 90.7011 86.2449L89.8144 88.0756C89.6851 88.3382 91.1371 88.2782 91.6824 88.0756L93.1277 86.2916H94.9024L93.3624 87.9822H95.6584L97.7971 86.5729L99.4784 87.1356L97.1437 88.2156L100.085 89.2942L102.466 88.5449L103.773 89.2942L101.02 89.8129C101.02 89.8129 102.28 91.2676 104.568 90.7969" fill="#DA4534"/>
<path fill-rule="evenodd" clip-rule="evenodd" d="M76.3906 181.31C76.4013 174.094 77.712 162.298 84.2053 151.074C88.904 142.955 86.5426 133.338 84.48 130.643C79.724 139.907 76.4 145.562 76.3706 146.074C75.704 157.82 73.452 164.51 74.3706 181.31H76.3906Z" fill="#EC1C24"/>
<path d="M76.3906 181.31C76.4013 174.094 77.712 162.298 84.2053 151.074C88.904 142.955 86.5426 133.338 84.48 130.643C79.724 139.907 76.4 145.562 76.3706 146.074C75.704 157.82 73.452 164.51 74.3706 181.31H76.3906Z" stroke="#034EA1" stroke-width="0.945333" stroke-miterlimit="2.613"/>
<path d="M57.9388 181.671C57.4081 173.265 52.1721 150.952 42.0041 138.492C35.7241 130.795 30.0348 127.877 23.2575 127.961" stroke="#034EA1" stroke-width="1.13333" stroke-miterlimit="2.613"/>
<path fill-rule="evenodd" clip-rule="evenodd" d="M61.8997 98.2473H71.6717C71.3504 100.693 70.9877 102.955 71.4011 105.581L61.8997 105.763C62.4517 103.318 62.4517 100.691 61.8997 98.2473Z" fill="#231F20"/>
<path fill-rule="evenodd" clip-rule="evenodd" d="M65.0806 99.9674V103.258C64.942 103.299 64.7913 103.323 64.6393 103.323C63.7486 103.323 63.022 102.554 63.022 101.611C63.022 100.67 63.7486 99.9021 64.6393 99.9021C64.7913 99.9021 64.942 99.9248 65.0806 99.9674Z" fill="#DA4534"/>
<path fill-rule="evenodd" clip-rule="evenodd" d="M68.8919 103.664V100.245H68.9252C69.8159 100.245 70.5412 101.013 70.5412 101.955C70.5412 102.897 69.8159 103.664 68.9252 103.664H68.8919Z" fill="#DA4534"/>
<path fill-rule="evenodd" clip-rule="evenodd" d="M68.2109 100.539V103.37C67.8869 103.762 67.4309 104.008 66.9269 104.008C66.3776 104.008 65.8856 103.716 65.5589 103.26V100.648C65.8856 100.192 66.3776 99.9017 66.9269 99.9017C67.4309 99.9017 67.8869 100.147 68.2109 100.539Z" fill="#DA4534"/>
<path fill-rule="evenodd" clip-rule="evenodd" d="M22.8854 136.437C24.1041 137.339 24.6988 138.279 25.6148 139.572C34.4588 152.071 43.7468 167.719 52.7774 181.533H56.0894C47.4321 163.667 42.8348 158.221 36.4521 145.995C30.0708 133.768 28.2961 131.784 23.0548 130.455L22.8854 136.437Z" fill="#231F20"/>
<path d="M46.4869 78.8803L45.1109 79.9869L54.4682 91.4683L55.8456 90.2243L46.4869 78.8803Z" stroke="#034EA1" stroke-width="0.945333" stroke-miterlimit="2.613"/>
<path d="M87.1224 125.039L88.4997 123.932L79.141 112.451L77.7637 113.695L87.1224 125.039Z" stroke="#034EA1" stroke-width="0.945333" stroke-miterlimit="2.613"/>
<path d="M132.875 195.849C132.875 199.688 129.76 202.802 125.919 202.802" stroke="#EB008B" stroke-width="0.333333" stroke-miterlimit="2.613"/>
<path d="M125.919 202.802H7.69135" stroke="#EB008B" stroke-width="0.333333" stroke-miterlimit="2.613"/>
<path d="M7.69141 202.802C3.84875 202.802 0.735413 199.687 0.735413 195.849" stroke="#EB008B" stroke-width="0.333333" stroke-miterlimit="2.613"/>
<path d="M0.735718 195.849V8.07022" stroke="#EB008B" stroke-width="0.333333" stroke-miterlimit="2.613"/>
<path d="M0.735718 8.07025C0.735718 4.22892 3.84905 1.11692 7.69172 1.11692" stroke="#EB008B" stroke-width="0.333333" stroke-miterlimit="2.613"/>
<path d="M7.69144 1.11719H125.919" stroke="#EB008B" stroke-width="0.333333" stroke-miterlimit="2.613"/>
<path d="M125.919 1.11716C129.761 1.11716 132.875 4.22916 132.875 8.0705" stroke="#EB008B" stroke-width="0.333333" stroke-miterlimit="2.613"/>
<path d="M132.875 8.07022V195.849" stroke="#EB008B" stroke-width="0.333333" stroke-miterlimit="2.613"/>
<path fill-rule="evenodd" clip-rule="evenodd" d="M14.3438 12.9479C12.5064 12.9479 11.0184 14.3852 11.0184 16.1612V22.0932C11.3518 22.1825 11.6931 22.2892 12.0344 22.4199C14.9024 23.4919 16.5718 25.5598 17.6678 27.1305V16.1612C17.6678 14.3852 16.1784 12.9479 14.3438 12.9479ZM14.3438 31.0558C15.2118 31.0558 16.0011 30.7292 16.5944 30.1998C15.8251 29.1385 15.3478 28.0958 14.4184 27.1305C13.2131 25.8732 12.0958 25.2345 11.0184 24.8292V27.8412C11.0184 29.6172 12.5064 31.0558 14.3438 31.0558V31.0558ZM21.1984 32.7732C21.1984 32.7732 19.6558 33.0025 18.2104 31.9972C17.1784 32.9198 15.8118 33.4785 14.3118 33.4785C11.0931 33.4785 8.48243 30.8972 8.48243 27.7105V24.2532C7.71043 24.2132 6.99576 24.2345 6.99576 24.2345V21.6825C6.99576 21.6825 7.58243 21.6199 8.48243 21.6665V16.1572C8.48243 12.9719 11.0931 10.3879 14.3118 10.3879C17.5304 10.3879 20.1398 12.9719 20.1398 16.1572V27.7105C20.1398 28.4665 19.9918 29.1878 19.7251 29.8478C20.1744 30.2078 20.6478 30.4345 21.1984 30.5158V32.7732Z" fill="#231F20"/>
<path fill-rule="evenodd" clip-rule="evenodd" d="M119.268 190.969C121.106 190.969 122.594 189.53 122.594 187.754V181.823C122.26 181.733 121.919 181.626 121.578 181.498C118.71 180.425 117.039 178.354 115.944 176.789V187.754C115.944 189.53 117.434 190.969 119.268 190.969ZM119.268 172.862C118.399 172.862 117.608 173.187 117.018 173.717C117.787 174.778 118.264 175.821 119.191 176.789C120.399 178.045 121.516 178.681 122.594 179.086V176.075C122.594 174.301 121.106 172.862 119.268 172.862V172.862ZM112.412 171.146C112.412 171.146 113.956 170.915 115.402 171.919C116.434 170.997 117.799 170.438 119.3 170.438C122.519 170.438 125.13 173.021 125.13 176.207V179.665C125.899 179.703 126.616 179.682 126.616 179.682V182.233C126.616 182.233 126.027 182.297 125.13 182.25V187.758C125.13 190.945 122.519 193.529 119.3 193.529C116.082 193.529 113.472 190.945 113.472 187.758V176.207C113.472 175.451 113.62 174.731 113.887 174.07C113.438 173.711 112.963 173.483 112.412 173.402V171.146Z" fill="#231F20"/>
<path d="M120.908 149.831C119.072 152.104 119.472 155.437 119.472 155.437C119.745 153.901 121.276 152.987 121.902 152.883C124.1 152.515 125.144 154.148 125.278 154.399C126.78 157.127 124.592 158.831 124.266 159.031C122.281 160.265 120.676 158.859 120.676 158.859C120.38 158.795 120.548 159.161 120.548 159.161C122.196 160.071 122.277 161.612 122.218 162.128C121.837 165.2 118.846 165.131 118.846 165.131C118.846 165.131 115.864 165.2 115.485 162.128C115.425 161.612 115.504 160.071 117.153 159.161C117.153 159.161 117.322 158.795 117.026 158.859C117.026 158.859 115.42 160.265 113.436 159.031C113.108 158.831 110.922 157.127 112.422 154.399C112.56 154.148 113.604 152.515 115.801 152.883C116.426 152.987 117.956 153.901 118.229 155.437C118.229 155.437 118.63 152.104 116.793 149.831H120.908Z" fill="#231F20"/>
<path d="M12.7044 54.0885C14.543 51.8165 14.1404 48.4818 14.1404 48.4818C13.867 50.0178 12.3364 50.9325 11.7124 51.0365C9.51502 51.4032 8.46835 49.7712 8.33235 49.5205C6.83369 46.7912 9.02035 45.0885 9.34569 44.8885C11.3324 43.6538 12.9377 45.0605 12.9377 45.0605C13.2324 45.1258 13.0644 44.7578 13.0644 44.7578C11.4164 43.8485 11.335 42.3072 11.3937 41.7925C11.7777 38.7192 14.7644 38.7885 14.7644 38.7885C14.7644 38.7885 17.7484 38.7192 18.1284 41.7925C18.1884 42.3072 18.1084 43.8485 16.4617 44.7578C16.4617 44.7578 16.2897 45.1258 16.5857 45.0605C16.5857 45.0605 18.1924 43.6538 20.1764 44.8885C20.5044 45.0885 22.691 46.7912 21.191 49.5205C21.055 49.7712 20.0097 51.4032 17.8124 51.0365C17.187 50.9325 15.659 50.0178 15.383 48.4818C15.383 48.4818 14.9817 51.8165 16.8217 54.0885H12.7044Z" fill="#231F20"/>
<path d="M24.1145 181.513V22.405H109.496V181.513H24.1145ZM23.4372 182.862H110.852V21.057H22.7585V182.862H23.4372Z" fill="#034EA1"/>
<path fill-rule="evenodd" clip-rule="evenodd" d="M34.6328 38.5729L35.2728 37.8436C33.3368 36.7756 32.0195 34.7142 32.0195 32.3556C32.0195 28.9076 34.8315 26.0942 38.2795 26.0942C41.7275 26.0942 44.5421 28.9076 44.5421 32.3556C44.5421 34.7436 43.1928 36.8262 41.2168 37.8809L41.8008 38.5209C42.8181 37.6849 44.1155 37.1822 45.5302 37.1822C48.7715 37.1822 51.4141 39.8262 51.4141 43.0662C51.4141 46.3076 48.7715 48.9502 45.5302 48.9502C42.4608 48.9502 39.9275 46.5782 39.6675 43.5756L38.8581 43.5956C38.4448 49.2142 41.1902 53.5516 41.1902 53.5516H35.2528C38.4835 50.5342 37.5075 43.5956 37.5075 43.5956L36.7115 43.4609C36.5075 46.5182 33.9488 48.9502 30.8408 48.9502C27.6022 48.9502 24.9568 46.3076 24.9568 43.0662C24.9568 39.8262 27.6022 37.1822 30.8408 37.1822C32.2835 37.1822 33.6062 37.7076 34.6328 38.5729Z" fill="#231F20"/>
</svg>
