<svg width="135" height="205" viewBox="0 0 135 205" fill="none" xmlns="http://www.w3.org/2000/svg">
<path fill-rule="evenodd" clip-rule="evenodd" d="M13.7279 40.7058C13.7772 41.0938 13.8999 41.5084 13.9252 41.8458C13.9799 42.5058 14.4759 42.8618 14.6986 41.9004C14.7519 41.6644 14.8372 41.3178 14.9106 40.9458C15.5026 37.9684 19.8186 38.5858 20.3492 40.9978C20.8786 43.4058 20.1386 45.3258 17.9932 48.0498C15.8506 50.7738 14.8492 52.5284 14.3212 54.2324C13.8746 52.0858 9.89325 47.2711 8.79325 45.0631C7.69458 42.8538 8.09592 39.9818 9.79592 39.2471C11.4946 38.5124 13.5479 39.2964 13.7279 40.7058Z" fill="#EC1C24"/>
<path fill-rule="evenodd" clip-rule="evenodd" d="M121.027 164.206C120.978 163.82 120.855 163.403 120.827 163.066C120.774 162.408 120.279 162.052 120.055 163.012C120.001 163.247 119.919 163.596 119.842 163.966C119.253 166.943 114.934 166.326 114.405 163.916C113.875 161.508 114.617 159.586 116.761 156.864C118.903 154.138 119.903 152.386 120.431 150.679C120.878 152.828 124.862 157.64 125.959 159.848C127.061 162.058 126.659 164.93 124.957 165.664C123.261 166.4 121.207 165.615 121.027 164.206Z" fill="#EC1C24"/>
<path fill-rule="evenodd" clip-rule="evenodd" d="M87.2227 90.797C89.0373 83.5263 90.9387 77.649 95.716 72.3543L94.8053 70.4556L84.76 74.1303L83.3987 91.7756C84.456 90.857 85.732 90.8676 87.2227 90.797Z" fill="#3F1000"/>
<path d="M87.2227 90.797C89.0373 83.5263 90.9387 77.649 95.716 72.3543L94.8053 70.4556L84.76 74.1303L83.3987 91.7756C84.456 90.857 85.732 90.8676 87.2227 90.797Z" stroke="#231F20" stroke-width="0.756" stroke-miterlimit="2.613"/>
<path fill-rule="evenodd" clip-rule="evenodd" d="M47.4635 113.635C45.6502 120.906 43.9902 127.217 38.8635 132.513L39.9475 134.589L49.9915 130.917L51.2862 112.654C50.2315 113.575 48.9529 113.565 47.4635 113.635Z" fill="#3F1000"/>
<path d="M47.4635 113.635C45.6502 120.906 43.9902 127.217 38.8635 132.513L39.9475 134.589L49.9915 130.917L51.2862 112.654C50.2315 113.575 48.9529 113.565 47.4635 113.635Z" stroke="#231F20" stroke-width="0.756" stroke-miterlimit="2.613"/>
<path fill-rule="evenodd" clip-rule="evenodd" d="M37.9895 32.9323C38.0815 33.6643 38.3095 34.455 38.3601 35.0977C38.4615 36.3497 39.3815 37.0257 39.7948 35.2017C39.8961 34.7523 40.0548 34.091 40.1908 33.3857C41.2948 27.731 49.3281 28.9043 50.3148 33.4817C51.3001 38.0603 49.9215 41.7083 45.9335 46.883C41.9415 52.0603 40.0761 55.3937 39.0948 58.6323C38.2655 54.5523 30.8548 45.4057 28.8055 41.211C26.7615 37.0163 27.5108 31.5563 30.6721 30.159C33.8348 28.7617 37.6548 30.2523 37.9895 32.9323Z" fill="#EC1C24"/>
<path fill-rule="evenodd" clip-rule="evenodd" d="M105.104 21.8229C103.567 31.8176 104.484 42.0136 107.116 51.0749C103.935 50.3229 100.845 50.1123 98.2027 51.1562L98.2893 51.1096L88.3293 21.8229H105.104Z" fill="#3FE6FF"/>
<path d="M105.104 21.8229C103.567 31.8176 104.484 42.0136 107.116 51.0749C103.935 50.3229 100.845 50.1123 98.2027 51.1562L98.2893 51.1096L88.3293 21.8229H105.104Z" stroke="#034EA1" stroke-width="1.32267" stroke-miterlimit="2.613"/>
<path fill-rule="evenodd" clip-rule="evenodd" d="M57.121 54.7708C57.2557 47.6588 61.6397 42.8881 63.309 41.1041C63.0837 38.6348 62.9317 35.5628 62.817 32.6921C57.789 35.6055 49.5623 46.7055 49.6263 59.1561L57.121 54.7708Z" fill="#3F1000"/>
<path d="M64.5144 21.8621C64.5144 21.9954 63.521 23.9554 62.145 23.9007" stroke="#034EA1" stroke-width="1.512" stroke-miterlimit="2.613"/>
<path d="M78.1106 21.8621C78.1106 22.0621 80.0826 24.0634 82.5613 24.1541" stroke="#034EA1" stroke-width="1.512" stroke-miterlimit="2.613"/>
<path d="M66.5768 21.862C66.5768 21.862 63.9021 25.4714 62.2195 25.6274" stroke="#034EA1" stroke-width="1.512" stroke-miterlimit="2.613"/>
<path d="M75.8359 21.9845C75.8359 21.9845 79.7533 26.1525 82.9613 26.2405" stroke="#034EA1" stroke-width="1.512" stroke-miterlimit="2.613"/>
<path d="M68.1836 21.8621C68.1836 22.4114 64.0556 27.3407 62.3743 27.1967" stroke="#034EA1" stroke-width="1.512" stroke-miterlimit="2.613"/>
<path d="M73.9778 21.862C74.9738 24.4553 79.0338 28.1593 83.3738 28.286" stroke="#034EA1" stroke-width="1.512" stroke-miterlimit="2.613"/>
<path d="M70.1704 21.862C70.0171 22.726 65.8118 28.2247 62.4158 28.9447" stroke="#034EA1" stroke-width="1.512" stroke-miterlimit="2.613"/>
<path d="M72.3254 21.862C72.8454 24.7114 79.1334 30.2554 83.7588 30.002" stroke="#034EA1" stroke-width="1.512" stroke-miterlimit="2.613"/>
<path d="M84.9063 34.9818C84.4823 34.9805 81.8583 38.5232 83.309 42.5578C84.761 46.5912 86.2783 47.3752 87.8383 48.0005" stroke="#034EA1" stroke-width="1.32267" stroke-miterlimit="2.613"/>
<path d="M85.6978 37.6042C85.6978 37.6042 84.7698 39.3909 85.0085 41.4162C85.2485 43.4402 86.3645 44.0829 87.3218 44.9269" stroke="#034EA1" stroke-width="1.32267" stroke-miterlimit="2.613"/>
<path d="M88.7251 52.026C88.7251 52.026 87.7971 54.0367 88.0331 56.0594C88.2744 58.086 89.8224 59.3927 90.7797 60.2367" stroke="#034EA1" stroke-width="1.32267" stroke-miterlimit="2.613"/>
<path d="M65.3045 48.8282C64.5392 49.4402 63.9752 50.7028 64.0165 51.7655" stroke="#034EA1" stroke-width="1.32267" stroke-miterlimit="2.613"/>
<path d="M64.729 47.4479C63.9784 47.8626 62.129 50.4319 62.3957 52.5413" stroke="#034EA1" stroke-width="1.32267" stroke-miterlimit="2.613"/>
<path d="M64.0794 45.0078C62.2488 46.5318 59.8621 49.9892 59.8008 53.6505" stroke="#034EA1" stroke-width="1.32267" stroke-miterlimit="2.613"/>
<path fill-rule="evenodd" clip-rule="evenodd" d="M95.9479 22.026C95.7026 22.9607 94.8932 23.7114 93.8506 23.8594C92.8106 24.0087 91.3346 23.1447 90.3306 22.1154C90.6239 22.026 91.0359 22.0607 91.3266 21.9714C91.8439 22.3434 92.7159 22.8287 93.1546 22.81C93.5946 22.7914 94.0866 22.562 94.4172 21.798C94.7399 21.8874 95.6252 21.9367 95.9479 22.026Z" fill="#3F1000"/>
<path fill-rule="evenodd" clip-rule="evenodd" d="M91.8398 26.03C91.8398 26.118 93.9478 24.8167 95.6451 25.19C95.1864 25.9927 94.0144 26.8007 92.0971 26.638C92.1224 27.3073 93.1944 28.1127 92.7891 29.502C91.5224 28.6873 91.8824 27.4273 91.6464 26.4927C91.1531 25.7433 90.3891 24.714 90.5598 23.5153C91.1998 23.9313 91.8318 24.8433 91.8398 26.03Z" fill="#3F1000"/>
<path fill-rule="evenodd" clip-rule="evenodd" d="M95.5325 37.1145C95.5325 37.2025 97.6418 35.8999 99.3365 36.2732C98.8765 37.0759 97.7071 37.8852 95.7885 37.7239C95.8165 38.3932 96.8858 39.1959 96.4805 40.5865C95.2151 39.7705 95.5765 38.5105 95.3391 37.5759C94.8458 36.8265 94.0805 35.7972 94.2538 34.5985C94.8911 35.0145 95.5245 35.9265 95.5325 37.1145Z" fill="#3F1000"/>
<path fill-rule="evenodd" clip-rule="evenodd" d="M99.2213 48.047C99.2213 48.1377 101.331 46.8337 103.025 47.2083C102.565 48.011 101.24 48.779 99.4 48.6563C98.58 48.3257 97.796 46.5443 97.9413 45.5337C98.58 45.9483 99.2133 46.8617 99.2213 48.047Z" fill="#3F1000"/>
<path fill-rule="evenodd" clip-rule="evenodd" d="M99.1328 31.6407C99.6381 31.6407 100.049 31.2207 100.049 30.7061C100.049 30.1901 99.6381 29.7714 99.1328 29.7714C98.6301 29.7714 98.2168 30.1901 98.2168 30.7061C98.2168 31.2207 98.6301 31.6407 99.1328 31.6407Z" fill="#3F1000"/>
<path fill-rule="evenodd" clip-rule="evenodd" d="M102.827 42.724C103.329 42.724 103.743 42.3053 103.743 41.7893C103.743 41.2733 103.329 40.8547 102.827 40.8547C102.321 40.8547 101.911 41.2733 101.911 41.7893C101.911 42.3053 102.321 42.724 102.827 42.724Z" fill="#3F1000"/>
<path fill-rule="evenodd" clip-rule="evenodd" d="M96.2043 28.3191C97.1043 28.7871 96.9509 29.5698 96.8683 29.8671C96.7829 30.1644 97.9629 29.8418 97.8149 28.5658C97.6643 27.2911 96.1283 26.2204 95.1029 27.2364C94.0776 28.2551 93.3776 29.3498 93.0896 32.1298C94.1203 33.3524 95.3323 35.0751 97.1216 35.3191C98.9109 35.5631 99.5789 34.0218 99.2376 33.0698C98.8976 32.1204 97.8709 31.9671 98.0349 32.2711C98.2003 32.5724 98.2816 33.9111 97.2456 34.1898C96.2136 34.4684 94.2949 32.9298 94.1003 32.5778C93.9043 32.2298 95.4616 31.6591 95.5963 32.0964C95.7309 32.5364 95.7963 32.6538 95.9149 33.2818C96.8629 32.6764 96.8896 31.9351 96.0229 31.3471C96.0229 31.3471 96.7069 30.0364 94.9323 29.7298C95.1589 30.4071 95.3509 30.7898 94.7656 31.1244C94.1803 31.4591 93.4083 31.9511 93.8216 30.7418C94.2336 29.5338 95.3003 27.8484 96.2043 28.3191Z" fill="#3F1000"/>
<path fill-rule="evenodd" clip-rule="evenodd" d="M99.8945 39.4036C100.796 39.8703 100.645 40.6543 100.558 40.9503C100.473 41.2476 101.657 40.9249 101.506 39.6516C101.357 38.3756 99.8185 37.3049 98.7945 38.3196C97.7705 39.3383 97.0678 40.4343 96.7825 43.2129C97.8118 44.4369 99.0238 46.1583 100.812 46.4036C102.601 46.6489 103.27 45.1063 102.928 44.1543C102.588 43.2036 101.562 43.0516 101.728 43.3543C101.892 43.6556 101.973 44.9943 100.94 45.2729C99.9078 45.5516 97.9878 44.0129 97.7905 43.6636C97.5945 43.3129 99.1545 42.7423 99.2891 43.1796C99.4211 43.6196 99.4865 43.7369 99.6091 44.3649C100.556 43.7609 100.584 43.0209 99.7158 42.4303C99.7158 42.4303 100.397 41.1196 98.6251 40.8129C98.8505 41.4916 99.0451 41.8729 98.4598 42.2089C97.8705 42.5436 97.0998 43.0343 97.5145 41.8249C97.9265 40.6196 98.9931 38.9316 99.8945 39.4036Z" fill="#3F1000"/>
<path fill-rule="evenodd" clip-rule="evenodd" d="M33.1588 140.492C32.8148 139.276 31.7854 138.388 30.5748 138.388C29.3628 138.388 28.3334 139.276 27.9881 140.492H26.2214V142.304C25.1934 142.738 24.4788 143.708 24.4788 144.834C24.4788 145.956 25.1934 146.927 26.2214 147.359V149.58H28.5868C29.1014 150.38 29.9774 150.91 30.9694 150.91C31.9614 150.91 32.8374 150.38 33.3521 149.58H35.1241V147.19C36.3561 146.862 37.2628 145.792 37.2628 144.528C37.2628 143.263 36.3561 142.192 35.1241 141.867V140.492H33.1588Z" fill="#BF0014"/>
<path d="M31.3973 138.805C31.3973 138.805 31.4706 131.685 31.4706 129.851C31.4706 128.015 31.1106 125.887 31.1106 125.887" stroke="#034EA1" stroke-width="0.756" stroke-miterlimit="2.613"/>
<path d="M29.5391 139.026L29.7537 126.034" stroke="#034EA1" stroke-width="0.756" stroke-miterlimit="2.613"/>
<path fill-rule="evenodd" clip-rule="evenodd" d="M29.6927 125.854V132.01L25.3887 137.852C25.3887 137.852 24.6741 134.477 25.1767 132.201C25.6607 129.994 27.5567 126.089 29.6927 125.854Z" fill="#3FE6FF"/>
<path fill-rule="evenodd" clip-rule="evenodd" d="M31.4231 126.034C32.8351 126.354 33.6004 127.165 34.5431 128.015C35.7591 129.118 36.7618 129.925 37.0484 131.245C37.3338 132.565 37.6178 133.154 37.5484 133.154C37.4778 133.154 35.9738 133.375 34.1164 131.758C32.2564 130.143 31.9698 129.779 31.4698 129.339L31.4231 126.034Z" fill="#3FE6FF"/>
<path d="M31.4701 129.339C31.9701 129.779 32.2567 130.144 34.1154 131.757C35.9741 133.375 37.4781 133.153 37.5487 133.153C37.6181 133.153 37.3327 132.565 37.0487 131.245C36.7621 129.924 35.7594 129.117 34.5434 128.016C33.3274 126.917 32.1114 125.888 29.8954 125.888C27.6781 125.888 25.6767 129.924 25.1767 132.2C24.6741 134.477 25.3887 137.852 25.3887 137.852L29.8247 131.833" stroke="#034EA1" stroke-width="0.756" stroke-miterlimit="2.613"/>
<path fill-rule="evenodd" clip-rule="evenodd" d="M35.2589 130.659C35.2589 130.659 32.7829 128.784 31.3976 128.383V127.349C31.2643 127.075 34.9136 129.065 35.2589 130.659Z" fill="#BF0014"/>
<path fill-rule="evenodd" clip-rule="evenodd" d="M26.6978 133.555C26.6978 133.555 28.0178 130.085 29.7618 128.519V127.481C29.8925 127.131 26.3991 130.883 26.6978 133.555Z" fill="#BF0014"/>
<path fill-rule="evenodd" clip-rule="evenodd" d="M70.8736 51.4583C71.2643 51.2289 71.7363 51.1689 72.1416 51.2343C73.007 51.3743 73.735 51.7009 73.735 51.7009C73.735 51.7009 72.8336 50.8356 71.8256 50.8596C71.259 50.8743 70.7296 50.8903 70.4883 51.1276C70.0563 51.5463 70.5456 51.6489 70.8736 51.4583ZM73.6896 48.8516C73.327 49.2729 72.9696 49.7156 71.9616 49.7396C70.9523 49.7636 70.051 48.8983 70.051 48.8983C70.051 48.8983 70.7776 49.2263 71.6443 49.3649C72.5096 49.5049 73.6896 48.8516 73.6896 48.8516V48.8516ZM68.2763 46.5183C68.215 47.0783 68.383 47.8249 68.7763 48.2916C68.955 48.4143 69.6136 48.1876 69.959 47.9663C70.3043 47.7449 71.6496 48.9663 72.599 48.3849C73.5243 47.8196 74.4176 48.1036 74.4176 48.1036C74.6856 48.1196 74.9083 48.2289 75.0856 48.4316H75.4176L75.2376 46.8903C75.2376 46.8903 74.7976 46.5783 74.4176 46.8903C74.039 47.2036 73.4283 47.2729 72.507 46.7503C72.091 46.5156 71.6976 47.0236 71.1416 47.0156C70.891 47.0103 70.3683 46.7129 70.1403 46.5649C69.3696 46.7969 68.3656 47.4503 68.2763 46.5183V46.5183ZM79.5456 35.1129C79.8656 35.3196 80.1883 35.7316 80.1883 35.7316C79.919 35.9849 79.4536 36.2316 79.1843 36.1009C79.2923 35.8129 79.439 35.4009 79.5456 35.1129ZM75.499 35.3743C75.479 35.2116 74.6696 35.0183 74.6696 35.5943C74.6696 36.1689 74.5123 36.1209 74.6936 36.2236C74.8736 36.3276 75.2696 36.3196 75.551 36.3196C75.4843 35.9356 75.5456 35.7623 75.499 35.3743ZM76.687 34.9076C76.727 35.0316 76.743 35.8543 77.4403 35.8743C78.135 35.8956 78.0483 35.4489 78.143 35.1529C78.235 34.8596 78.7696 34.8129 78.7856 35.2583C78.6603 36.5996 77.775 36.7396 76.9296 36.6063C76.163 36.4863 75.9363 35.0716 75.9363 35.0716L76.687 34.9076ZM65.6323 34.9076L64.9523 35.1529C64.9523 35.1529 65.187 36.3903 65.9523 36.5129C66.799 36.6476 67.531 36.0943 67.5163 35.1129L66.875 35.1529C66.875 35.1529 66.799 35.7529 66.3136 35.7316C65.8296 35.7089 65.6723 35.0316 65.6323 34.9076V34.9076ZM68.039 35.1956C68.039 35.6076 67.9163 35.9369 67.679 36.3076C68.343 36.2796 68.7763 35.7543 68.879 35.5263C69.0763 35.0903 68.039 35.1956 68.039 35.1956ZM64.1096 34.9889C64.1096 34.9889 63.587 34.9476 63.6683 35.4423C63.747 35.9369 63.867 36.2649 63.9483 36.2649C64.0283 36.2649 64.2683 36.5129 64.6283 36.4303C64.6283 36.1009 64.2683 35.4023 64.1096 34.9889V34.9889ZM73.947 34.3743C73.947 34.3743 73.9043 36.3983 73.1216 36.8303C72.5963 37.1196 73.9656 36.8596 74.2176 37.0169L77.5803 39.1409L77.6976 39.0209L75.2523 37.1929C75.2523 37.1929 74.971 36.8103 75.887 36.8103C76.8016 36.8103 77.4376 37.0983 78.3523 36.9529C79.2656 36.8103 80.463 36.0863 80.463 36.0863C80.463 36.0863 81.0043 35.6183 81.731 36.0863C81.967 35.7183 81.5403 35.5703 81.1323 35.2316C80.5216 34.7276 79.6896 34.1983 78.9136 34.0529C77.3656 33.7636 75.987 33.3409 73.947 34.3743V34.3743ZM73.9723 34.3223C75.5176 31.7036 80.7136 33.2689 81.8443 34.8276C80.887 33.3796 78.1256 32.3876 77.103 32.3916C76.0816 32.3943 74.3056 32.4396 73.4776 33.2783C72.6483 34.1156 73.9723 34.4969 73.9723 34.3223V34.3223ZM73.6336 32.2569C74.7563 30.5596 80.7443 31.9676 82.0843 33.2676C81.0256 31.6356 77.4376 30.4143 76.3096 30.3769C75.1803 30.3409 73.8443 30.1849 72.9283 31.3183C72.0123 32.4489 73.6336 32.4503 73.6336 32.2569ZM63.7043 34.2076C65.7443 32.6583 68.9856 34.6436 68.9856 34.7129C69.079 34.8676 69.2723 34.8129 69.3203 34.1169C69.343 33.7716 68.1763 33.3223 67.227 33.1236C66.275 32.9263 65.3963 32.8356 64.5483 33.1249C63.7043 33.4143 63.7043 34.2076 63.7043 34.2076V34.2076ZM63.8456 32.6903C65.6056 31.6796 69.0576 33.3409 69.0576 33.3409C69.0576 33.3409 68.9376 31.9276 67.507 31.4836C66.079 31.0396 65.5243 31.1849 64.339 31.6276C63.1523 32.0716 63.8456 32.6903 63.8456 32.6903ZM62.647 30.8823C62.647 30.8823 65.9563 30.0156 67.3656 30.5223C68.7736 31.0289 70.5336 32.6903 70.2536 34.4969C69.9723 36.3036 68.915 40.8796 68.6323 41.9423C68.351 42.9996 69.163 43.0729 69.9016 43.6036C70.271 43.8676 70.5056 43.6116 70.551 43.1849C70.587 42.8516 71.787 42.5809 72.3283 42.9529C73.5056 43.7609 73.8776 43.5809 74.2416 43.4889C74.6056 43.3956 75.1803 43.0969 74.619 42.2289C74.0563 41.3623 75.6043 42.8076 75.043 43.7476C74.479 44.6876 73.9856 44.6143 72.8603 44.0369C71.7336 43.4583 70.8883 43.4583 70.8883 44.5409C70.8883 45.5543 68.2816 43.2423 68.2816 43.3156C68.2816 43.3849 67.7203 42.3023 68.071 41.2183C68.4216 40.1329 68.7736 37.9663 68.7736 37.9663C68.7736 37.9663 67.9296 38.6169 67.2243 39.1956C66.5203 39.7729 68.2123 37.4609 68.2123 37.4609C68.2123 37.4609 68.8456 36.3756 67.3656 36.9529C65.887 37.5343 63.6323 37.0263 62.9296 36.4476L62.647 30.8823Z" fill="#BF0014"/>
<path fill-rule="evenodd" clip-rule="evenodd" d="M23.991 79.2082L39.955 66.0002C42.367 68.4789 49.8683 73.5496 52.7043 74.8802C48.955 78.2269 43.739 81.0882 40.863 91.1482C37.9896 101.208 39.1563 103.244 38.103 110.348C37.2896 115.831 38.4003 109.13 31.5536 110.446C30.3563 110.675 28.183 112.2 26.4496 112.706C24.7176 113.211 23.991 113.643 23.991 113.948V79.2082Z" fill="#3F1000"/>
<path d="M52.7044 74.8803C48.9538 78.227 43.7378 81.0883 40.8631 91.1483C37.9898 101.208 39.1564 103.244 38.1031 110.35L37.7324 112.302" stroke="#034EA1" stroke-width="0.642667" stroke-miterlimit="2.613"/>
<path fill-rule="evenodd" clip-rule="evenodd" d="M79.6341 57.2996C78.8301 57.3596 78.0101 57.3929 77.1927 57.4062L77.2647 58.4382C78.1274 58.4302 78.9994 58.3982 79.8487 58.3382L79.6341 57.2996ZM76.2021 57.4116C75.1381 57.4036 74.0981 57.3622 73.1341 57.2996L73.1407 58.3276C74.1247 58.3849 75.1861 58.4276 76.2727 58.4382L76.2021 57.4116ZM69.6354 56.9329C69.7527 56.9529 69.8674 56.9716 69.9821 56.9876C70.5727 57.0702 71.2674 57.1489 72.0247 57.2156L72.0061 58.2529C71.2314 58.1956 70.5247 58.1329 69.9207 58.0702C69.7861 58.0542 69.6474 58.0396 69.5061 58.0182L69.6354 56.9329ZM68.5447 56.7089C67.8687 56.5476 67.1621 56.3409 66.4621 56.1142L66.0661 57.1742C66.8554 57.4276 67.6421 57.6489 68.3847 57.8129L68.5447 56.7089ZM65.4154 55.7609C64.5901 55.4689 63.7967 55.1609 63.0941 54.8729L62.6781 55.9196C63.3954 56.2156 64.1821 56.5236 64.9914 56.8102L65.4154 55.7609ZM61.8967 54.3702C60.9234 53.9476 60.2981 53.6489 60.2981 53.6489L59.3821 54.2862C59.3821 54.3782 60.2247 54.8356 61.4874 55.4036L61.8967 54.3702ZM84.6341 56.3676L84.8527 57.4396C85.2207 57.3102 85.5661 57.1636 85.8794 57.0022L85.6247 55.9396C85.3194 56.0969 84.9901 56.2396 84.6341 56.3676ZM83.6061 57.8049L83.3874 56.7396C82.5394 56.9476 81.6047 57.1022 80.6274 57.2089L80.8421 58.2529C81.8194 58.1542 82.7567 58.0076 83.6061 57.8049" fill="#3F1000"/>
<path fill-rule="evenodd" clip-rule="evenodd" d="M43.5625 63.7396C43.5625 63.7396 55.8998 74.1983 69.2865 75.0156C82.6732 75.8329 90.0065 72.4916 94.5905 70.7583C94.9265 66.1823 91.2118 63.4556 87.6678 60.7396C86.5465 59.8823 85.6678 56.9063 85.4025 55.0649C81.7825 57.0463 73.9412 56.7996 70.2012 56.3049C66.4625 55.8103 60.7945 53.0863 60.7945 53.0863L43.5625 63.7396Z" fill="#3FE6FF"/>
<path fill-rule="evenodd" clip-rule="evenodd" d="M43.0913 63.5807C43.0913 63.5807 48.9286 68.3154 56.7846 71.7114L57.1419 74.3234C51.3566 72.034 45.8059 68.81 41.6899 65.2714L43.0913 63.5807Z" fill="#EC1C24"/>
<path fill-rule="evenodd" clip-rule="evenodd" d="M45.1497 62.2683C45.823 62.755 46.651 63.3283 47.6083 63.9536L47.463 61.0803L45.1497 62.2683ZM51.239 66.1563C52.5777 66.911 54.043 67.6723 55.5977 68.3883L54.6017 64.7416L51.239 66.1563ZM59.7057 70.0683C61.3857 70.667 63.1297 71.175 64.9097 71.547L63.0883 67.8096L59.7057 70.0683ZM69.855 72.1776C71.4177 72.2603 72.895 72.2896 74.2923 72.271L72.211 69.5443L69.855 72.1776ZM79.4723 71.987C81.1963 71.8123 82.7763 71.571 84.2217 71.2843L81.5043 68.839L79.4723 71.987ZM89.3763 69.9616C90.5563 69.591 91.615 69.211 92.5737 68.8523L90.5963 67.383L89.3763 69.9616Z" fill="#3F1000"/>
<path fill-rule="evenodd" clip-rule="evenodd" d="M56.6613 57.3437C57.4253 57.7531 58.4613 58.2784 59.6693 58.8251C59.5347 59.0384 59.3853 59.2264 59.2227 59.3717L57.1347 60.4691L56.608 58.1171C56.576 57.8251 56.5973 57.5677 56.6613 57.3437ZM63.532 60.3744C64.6387 60.7557 65.7893 61.0917 66.9427 61.3464L66.584 61.9064L64.5333 63.3277L63.608 61.0811C63.5627 60.8171 63.5373 60.5811 63.532 60.3744V60.3744ZM70.812 61.8624C72.0627 61.9531 73.2973 62.0104 74.5053 62.0264C74.4787 62.1877 74.4013 62.3544 74.256 62.5317L72.6907 64.4144L71.1973 62.4837C70.9973 62.2531 70.876 62.0464 70.812 61.8624V61.8624ZM78.4013 61.9317C79.8013 61.8437 81.1493 61.6877 82.4267 61.4664C82.464 61.4997 82.4973 61.5344 82.5267 61.5677L80.752 64.1877L78.78 62.2077C78.6493 62.1091 78.5227 62.0184 78.4013 61.9317ZM81.848 66.1824L84.856 62.1144L88.924 64.8984L86.708 69.8384L81.848 66.1824ZM73.2573 66.9317L76.3747 63.4557L80.2427 66.5184L76.4493 71.3851L73.2573 66.9317ZM64.612 65.6557L68.9013 62.9291L71.7427 66.8931L67.584 71.0864L64.612 65.6557ZM56.4733 62.8771L60.9453 61.0704L63.0693 65.1331L57.94 68.2157L56.4733 62.8771ZM52.2693 59.4944C53.092 59.4944 53.7667 60.1797 53.7667 61.0211C53.7667 61.8624 53.092 62.5464 52.2693 62.5464C51.448 62.5464 50.7733 61.8624 50.7733 61.0211C50.7733 60.1797 51.448 59.4944 52.2693 59.4944V59.4944ZM59.9707 62.8517C60.7947 62.8517 61.4653 63.5384 61.4653 64.3771C61.4653 65.2184 60.7947 65.9064 59.9707 65.9064C59.1467 65.9064 58.4747 65.2184 58.4747 64.3771C58.4747 63.5384 59.1467 62.8517 59.9707 62.8517ZM68.4413 64.9277C69.264 64.9277 69.936 65.6117 69.936 66.4531C69.936 67.2944 69.264 67.9797 68.4413 67.9797C67.6173 67.9797 66.9453 67.2944 66.9453 66.4531C66.9453 65.6117 67.6173 64.9277 68.4413 64.9277ZM85.7653 63.8411C86.5907 63.8411 87.2613 64.5264 87.2613 65.3677C87.2613 66.2077 86.5907 66.8931 85.7653 66.8931C84.944 66.8931 84.272 66.2077 84.272 65.3677C84.272 64.5264 84.944 63.8411 85.7653 63.8411ZM76.72 65.1251C77.5413 65.1251 78.2133 65.8104 78.2133 66.6504C78.2133 67.4917 77.5413 68.1771 76.72 68.1771C75.8947 68.1771 75.2227 67.4917 75.2227 66.6504C75.2227 65.8104 75.8947 65.1251 76.72 65.1251V65.1251ZM69.7627 61.7757C69.668 61.7677 69.5747 61.7584 69.4787 61.7504C69.084 61.7131 68.684 61.6611 68.284 61.5984C68.232 61.8304 68.184 62.0371 68.1387 62.2037L64.0533 64.8411L61.6267 60.3717C61.556 60.3464 61.58 60.0384 61.6413 59.6691C61.4213 59.5811 61.204 59.4891 60.9893 59.4011C60.7867 59.7371 60.6293 59.9771 60.5867 59.9584L56.2427 61.6744L54.892 57.5157L53.9267 58.0104L55.18 62.2677L49.972 64.3464L49.6827 59.7944L48.4307 60.3877L48.6027 64.5891C49.068 64.8797 49.5587 65.1797 50.068 65.4824L55.372 63.3571L56.8587 68.9504C57.284 69.1331 57.716 69.3104 58.1507 69.4837L63.572 66.1277L66.8387 71.8877C67.348 71.9637 67.8573 72.0264 68.3733 72.0731L72.3507 67.8104L75.7067 72.2397C76.2653 72.2211 76.8093 72.1957 77.3427 72.1611L81.1267 67.2157L86.1587 70.8571C86.7333 70.7184 87.2827 70.5757 87.808 70.4291L89.904 65.6331L93.0867 67.8104L92.7 66.1277L90.3613 64.5371L91.28 62.6504L90.0347 62.4997L89.4373 63.9091L85.0387 60.9171C84.6707 61.0291 84.2947 61.1331 83.9107 61.2344L80.932 65.7317L77.0107 62.3904C76.6293 62.4224 76.244 62.4477 75.8573 62.4717L72.5427 66.1277L69.916 62.4011C69.836 62.3957 69.7973 62.1117 69.7627 61.7757" fill="#3F1000"/>
<path fill-rule="evenodd" clip-rule="evenodd" d="M63.6016 77.2839C63.6016 77.2839 61.707 79.3252 62.655 81.9479C63.6016 84.5732 64.4536 86.0319 64.4536 86.0319C64.4536 86.0319 63.8976 86.4839 63.6136 86.8052C63.1416 87.3359 63.2496 87.8305 63.8843 87.5865C64.9243 87.1825 64.4536 86.4199 66.063 87.3905C67.6736 88.3625 69.9456 88.9452 70.7016 91.3745C71.4603 93.8052 68.6203 97.1092 66.063 94.1932C63.507 91.2785 65.4003 89.9172 65.4936 89.8199C65.8736 89.4292 65.7936 90.1772 66.7256 90.3052C67.6563 90.4345 67.8603 89.2372 67.1043 88.9452C66.3483 88.6532 64.5483 88.8492 64.263 90.6959C63.979 92.5412 64.6416 93.6092 66.063 94.8719C67.483 96.1359 69.1296 95.8959 69.9456 95.9425C70.3776 95.9665 70.219 96.6412 70.5176 96.7705C70.9323 96.9559 71.503 95.8879 71.3656 95.3599C70.983 93.8825 71.2536 94.2132 71.659 93.8252C72.063 93.4345 71.8843 90.9399 70.8936 89.9172C69.7243 88.7132 72.1243 89.7705 72.5016 88.6532C72.707 88.0439 72.3456 87.7812 71.7976 87.8825C71.251 87.9839 70.7976 88.1305 70.5123 88.1692C68.2403 88.4612 66.063 86.9039 65.0216 85.1559C63.979 83.4065 63.2203 81.0759 64.263 78.9372C65.3043 76.7999 66.3483 76.2159 68.8083 76.3119C71.271 76.4092 73.3523 78.8385 73.5443 81.2679C73.7323 83.6985 71.555 86.0292 70.3243 84.9612C69.091 83.8932 68.051 84.9612 68.7123 86.0319C69.3763 87.0985 70.515 87.1959 71.7443 86.8079C72.975 86.4199 74.3963 83.7972 74.3003 82.2399C74.2056 80.6852 73.9216 79.1305 73.9216 79.1305C73.9216 79.1305 75.627 78.9372 75.627 77.8679C75.627 76.7999 75.1523 76.0212 74.3003 76.7999C73.4496 77.5759 73.7323 78.2559 72.6883 77.2839C71.6496 76.3119 69.4723 75.5359 67.3896 75.7292C65.3043 75.9239 65.0216 76.6039 64.7376 76.3119C64.4536 76.0212 64.4056 74.8545 63.1283 74.5625C61.8496 74.2732 61.3923 76.2025 62.371 76.0212C63.3483 75.8412 63.2523 76.8985 63.6016 77.2839Z" fill="#BF0014"/>
<path fill-rule="evenodd" clip-rule="evenodd" d="M71.9063 83.6979C71.501 83.4499 71.093 83.3885 70.5063 83.6979C70.5063 83.6979 71.1663 82.9165 71.601 83.0125C72.0357 83.1099 72.269 83.5752 71.9063 83.6979Z" fill="#EC1C24"/>
<path fill-rule="evenodd" clip-rule="evenodd" d="M69.552 91.0312C69.284 91.0859 68.8707 91.1952 68.3787 90.9352C68.3787 90.9352 68.868 91.6219 69.2973 91.6072C69.7253 91.5912 69.824 90.9739 69.552 91.0312Z" fill="#EC1C24"/>
<path fill-rule="evenodd" clip-rule="evenodd" d="M65.6365 90.9506C65.8619 90.9972 66.2032 91.0892 66.6152 90.8719C66.6152 90.8719 66.2059 91.4452 65.8499 91.4319C65.4939 91.4172 65.4125 90.9066 65.6365 90.9506Z" fill="#EC1C24"/>
<path fill-rule="evenodd" clip-rule="evenodd" d="M69.6379 92.888C69.3646 92.8547 68.9713 92.8254 68.5833 92.416C68.5833 92.416 69.0246 93.4867 69.4366 93.6094C69.8473 93.732 69.9113 92.9214 69.6379 92.888Z" fill="#EC1C24"/>
<path fill-rule="evenodd" clip-rule="evenodd" d="M66.1302 92.388C66.4035 92.3547 66.6742 92.0787 67.0622 91.6693C67.0622 91.6693 66.9262 92.924 66.3329 93.1093C65.7369 93.2947 65.8569 92.4213 66.1302 92.388Z" fill="#EC1C24"/>
<path fill-rule="evenodd" clip-rule="evenodd" d="M67.3242 93.2318C67.5482 92.9531 67.5975 92.4145 67.6589 91.6305C67.6589 91.6305 68.4375 93.1065 68.0295 93.8305C67.6202 94.5545 67.0989 93.5105 67.3242 93.2318Z" fill="#EC1C24"/>
<path fill-rule="evenodd" clip-rule="evenodd" d="M71.8646 82.0755C70.9273 82.1928 70.5313 82.5622 69.9873 83.2728C69.9873 83.2728 70.2486 81.8728 71.2033 81.5022C72.1606 81.1328 72.45 81.8048 71.8646 82.0755Z" fill="#EC1C24"/>
<path fill-rule="evenodd" clip-rule="evenodd" d="M70.9556 80.3464C69.8476 80.6771 69.3716 82.0491 69.033 82.8824C69.033 82.8824 69.2836 80.5264 70.173 79.8464C71.0583 79.1691 72.0663 80.0158 70.9556 80.3464Z" fill="#EC1C24"/>
<path fill-rule="evenodd" clip-rule="evenodd" d="M69.4061 79.1798C68.4808 79.8571 68.4995 81.2558 68.4661 82.1251C68.4661 82.1251 67.8995 79.9118 68.4995 78.9971C69.1008 78.0838 70.3328 78.5025 69.4061 79.1798Z" fill="#EC1C24"/>
<path fill-rule="evenodd" clip-rule="evenodd" d="M66.3789 78.711C67.2949 78.8723 67.7242 79.9163 68.0269 80.547C68.0269 80.547 67.7509 78.7003 67.0069 78.2443C66.2616 77.787 65.4616 78.5523 66.3789 78.711Z" fill="#EC1C24"/>
<path fill-rule="evenodd" clip-rule="evenodd" d="M65.6758 80.5183C66.6011 80.4276 67.2825 81.3209 67.7371 81.8489C67.7371 81.8489 66.9971 80.1409 66.1625 79.8983C65.3238 79.6569 64.7518 80.6063 65.6758 80.5183Z" fill="#EC1C24"/>
<path fill-rule="evenodd" clip-rule="evenodd" d="M65.8892 83.0495C66.7252 82.4922 67.9105 83.4455 68.4412 83.8909C68.4412 83.8909 67.3718 81.8309 65.9038 81.9189C64.4305 82.0109 65.0505 83.6069 65.8892 83.0495Z" fill="#EC1C24"/>
<path fill-rule="evenodd" clip-rule="evenodd" d="M66.0037 84.5208C66.5237 84.1741 67.2597 84.7688 67.5917 85.0448C67.5917 85.0448 66.9277 83.7635 66.0104 83.8181C65.0944 83.8755 65.4797 84.8701 66.0037 84.5208Z" fill="#EC1C24"/>
<path d="M94.2759 69.2161C94.2759 69.2161 95.3399 72.8588 97.1145 73.9508" stroke="#034EA1" stroke-width="1.32267" stroke-miterlimit="2.613"/>
<path fill-rule="evenodd" clip-rule="evenodd" d="M56.7004 71.6641L60.5484 94.2267C61.8684 94.3027 73.0231 99.3147 74.2004 100.625C75.3671 101.407 75.0604 100.088 74.9591 100.021L73.9471 99.3281L82.3751 74.4187L77.2338 75.1974L71.2511 98.0307C68.7498 96.7627 66.4178 95.6667 63.7498 94.4841L60.9991 73.4187L56.7004 71.6641Z" fill="#BF0014"/>
<path fill-rule="evenodd" clip-rule="evenodd" d="M74.9596 100.271L73.9463 99.3282L82.3756 74.4188L84.761 74.1308L83.6396 91.5282C79.6023 92.2708 76.6836 101.875 74.9596 100.271Z" fill="#EC1C24"/>
<path d="M74.9596 100.271L73.9463 99.3282L82.3756 74.4188L84.761 74.1308L83.6396 91.5282C79.6023 92.2708 76.6836 101.875 74.9596 100.271Z" stroke="#034EA1" stroke-width="0.756" stroke-miterlimit="2.613"/>
<path d="M81.4402 76.6875L84.5682 76.2142" stroke="#034EA1" stroke-width="0.756" stroke-miterlimit="2.613"/>
<path d="M80.8621 79.1849L84.3354 78.4716" stroke="#034EA1" stroke-width="0.756" stroke-miterlimit="2.613"/>
<path fill-rule="evenodd" clip-rule="evenodd" d="M60.8606 94.6798C65.3126 96.2998 69.9166 98.3625 74.3686 101.338L73.9099 103.765L72.2326 102.276L71.5686 102.836L69.0246 100.164L68.1113 100.71L65.8979 98.4398L65.1339 98.9865L62.3686 97.3051L61.8526 97.5785C61.9273 97.5811 61.3806 94.9145 60.8606 94.6798Z" fill="#3F1000"/>
<path d="M51.8359 74.9869C51.8359 74.9869 54.5853 76.6803 57.9946 77.5723" stroke="#034EA1" stroke-width="1.32267" stroke-miterlimit="2.613"/>
<path fill-rule="evenodd" clip-rule="evenodd" d="M29.19 91.3178C30.486 91.3205 31.1473 91.1791 31.1473 91.1791C30.998 90.7338 30.7647 90.2138 30.0527 89.3751C29.902 90.0111 29.6927 90.6325 29.19 91.3178ZM31.9967 95.3418C31.9673 94.0178 31.8167 93.3458 31.8167 93.3458C31.3847 93.5085 30.8793 93.7578 30.074 94.5031C30.6993 94.6431 31.314 94.8445 31.9967 95.3418ZM35.874 92.4925C34.5767 92.4431 33.9113 92.5578 33.9113 92.5578C34.046 93.0085 34.2607 93.5365 34.9407 94.4018C35.114 93.7738 35.346 93.1591 35.874 92.4925V92.4925ZM33.134 88.4765C33.1887 89.7991 33.3567 90.4685 33.3567 90.4685C33.7833 90.2965 34.2833 90.0365 35.0727 89.2738C34.4447 89.1458 33.826 88.9605 33.134 88.4765ZM31.914 87.2845C32.6167 87.1125 33.5407 87.0005 34.2433 86.8285C34.574 87.0005 34.9073 87.0005 35.2407 87.1698C35.7567 88.0031 36.4953 89.2365 37.0127 90.0698C35.5727 90.1458 35.0193 90.8458 34.1327 91.3778L34.2967 91.5698L37.1793 91.2085C37.3087 91.8151 37.4473 92.8965 37.5113 93.1978C37.5767 93.5031 37.6793 94.5631 36.4593 94.9605C35.2407 95.3591 34.3913 96.9711 34.2967 96.2138C34.2073 95.4565 33.5407 94.3751 33.022 93.4271L32.8127 93.5965L33.2447 96.8391C32.2847 96.8965 31.102 96.9538 30.142 97.0111C29.4953 95.9658 28.958 94.9791 28.314 93.9378C29.3487 93.5178 30.3233 93.3365 31.4593 92.2791L31.3607 92.1178C29.734 92.1565 28.8287 92.4218 27.7033 92.6871V90.8671C27.7033 90.8671 27.15 89.3311 27.9793 88.9898C28.8113 88.6485 29.9753 87.8338 30.586 87.3965C30.75 88.0418 31.582 89.6898 32.1367 90.8671L32.3993 90.7551L31.914 87.2845ZM36.7553 100.291L37.822 99.3231C37.822 99.3231 38.1993 100.034 37.8847 101C37.57 101.968 36.4407 102.742 36.4407 102.742C36.4407 102.742 36.8793 104.487 36.5033 105.839C36.1247 107.195 34.5527 108.742 32.9207 108.678C31.2833 108.615 29.6487 107.842 29.7753 107.968C29.8993 108.096 29.274 110.291 27.9513 110.742C26.6313 111.195 25.25 110.291 25.0593 108.872C24.8713 107.454 25.314 106.807 26.3193 106.872C27.326 106.938 27.638 107.842 27.5127 108.422C27.386 109.003 27.4487 109.13 26.6953 109.066C25.9407 109.003 26.0647 109.776 27.134 109.903C28.2047 110.034 28.7073 108.872 28.394 107.646C28.0793 106.419 27.198 104.227 27.5127 103.13C27.8287 102.034 28.518 100.872 28.518 100.872C28.518 100.872 29.5873 103.776 30.0913 104.034C30.594 104.291 30.9953 104.443 31.2833 103.388C31.45 102.776 32.7927 103.58 32.542 104.422C32.29 105.258 31.1607 105.711 31.7873 106.744C32.4167 107.776 34.3647 107.388 35.0553 106.679C35.7487 105.968 36.1247 104.099 34.9313 103.26C34.2793 102.802 33.3847 102.698 33.41 101.534C33.438 100.367 34.2993 100.206 34.9313 100.291C36.3767 100.484 36.5633 100.484 36.7553 100.291V100.291ZM34.3033 81.4658L34.9633 80.5831C34.5233 80.2218 34.0153 80.1325 33.7087 79.4978C34.4367 79.5671 34.8967 79.5205 35.6247 79.2271C36.3513 78.9325 34.83 78.3458 34.5673 77.3965C34.3033 76.4458 33.774 76.0391 33.178 76.0391C32.258 76.0391 33.5713 73.2005 35.162 73.3938C36.7527 73.5858 36.41 74.2325 36.2193 74.9538C36.022 75.7005 36.286 77.2605 37.2767 77.5991C38.2687 77.9378 36.9647 76.3485 38.07 76.1071C38.9953 75.9031 39.39 76.3778 39.1273 77.8698C38.8633 79.3618 38.666 79.4978 37.674 80.3125C36.6807 81.1245 36.2193 82.2111 36.2193 82.2111L37.0127 83.2965C37.0127 83.2965 37.8727 83.7031 38.7313 82.5498C39.5913 81.3965 40.5167 79.2271 40.7793 77.5311C41.0433 75.8365 42.83 74.0031 44.1513 74.0725C45.4713 74.1405 46.0007 75.0885 46.1327 76.1751C46.266 77.2605 45.87 77.5991 45.3393 77.5311C44.8127 77.4631 44.4807 77.0578 44.4807 77.0578C44.4807 77.0578 44.8793 75.3591 44.282 75.0885C43.6873 74.8178 42.5633 74.8858 42.7647 76.6485C42.962 78.4138 43.4233 78.5471 43.0287 79.2938C42.63 80.0418 41.6393 79.8365 41.5727 79.0911C41.5113 78.4111 40.5167 80.3125 41.3767 80.9218C42.234 81.5338 43.2327 81.3805 43.8873 79.2271C44.2487 78.0365 43.8407 78.6151 45.142 78.9565C46.442 79.2965 47.5887 77.7365 47.39 75.5631C47.19 73.3938 46.0673 72.9191 45.3393 72.7165C44.614 72.5125 42.7647 72.8511 41.706 74.0058C40.6487 75.1565 40.3847 75.3591 40.3847 75.3591C40.3847 75.3591 39.4567 72.9191 37.8727 72.3778C36.286 71.8338 36.0887 71.7658 34.5673 72.2391C33.0473 72.7165 32.334 74.1231 31.99 75.3591C31.858 75.8365 30.4713 76.7165 30.6687 77.8018C30.7553 78.2765 31.0353 78.9685 30.934 79.3965C30.8007 79.9458 30.4273 80.1231 30.8007 80.3125C31.9247 80.3125 32.782 79.5658 32.782 79.5658C33.1913 80.4031 33.7193 80.9898 34.3033 81.4658Z" fill="#3FE6FF"/>
<path fill-rule="evenodd" clip-rule="evenodd" d="M29.2264 99.6042C28.8584 100.169 27.0344 99.8802 27.4344 98.8668C27.8318 97.8522 28.5984 97.0828 29.8424 97.2188C31.0851 97.3535 31.3971 98.7348 31.1491 99.5202C30.9011 100.309 30.5544 100.692 29.9438 100.424C29.3344 100.153 29.2264 99.6042 29.2264 99.6042Z" fill="#EC1C24"/>
<path fill-rule="evenodd" clip-rule="evenodd" d="M36.4623 84.026C36.9703 83.5887 38.5449 84.3874 37.9143 85.3154C37.2849 86.2394 36.3689 86.6594 35.2143 86.1714C34.0596 85.6874 34.2049 84.1714 34.5929 83.554C34.9836 82.9354 35.3876 82.602 35.8996 83.034C36.4129 83.466 36.4623 84.026 36.4623 84.026Z" fill="#EC1C24"/>
<path d="M30.3516 125.484C30.9129 125.244 31.1556 125.26 32.7756 123.799C34.3969 122.339 37.2249 117.414 37.7262 111.99" stroke="#034EA1" stroke-width="1.13333" stroke-miterlimit="2.613"/>
<path d="M27.569 127.167C27.569 127.167 27.1197 125.12 27.7623 124.656C28.4037 124.197 30.2063 124.131 30.2063 125.185C30.2063 125.469 30.3343 125.909 30.6077 125.683" stroke="#034EA1" stroke-width="1.13333" stroke-miterlimit="2.613"/>
<path d="M27.5051 124.328L30.6544 121.886C30.6544 121.886 29.9344 121.894 30.2478 121.578C30.6491 121.17 31.5771 120.94 31.3624 120.238C30.9771 118.984 29.7811 119.083 28.7891 119.907L25.7664 122.414C25.1891 123.008 26.7344 124.922 27.5051 124.328Z" stroke="#034EA1" stroke-width="1.13333" stroke-miterlimit="2.613"/>
<path d="M24.8032 120.039L27.2472 118.124C29.8925 116.052 30.9085 118.567 29.1752 119.776L25.7672 122.151C25.1885 122.744 23.9685 120.766 24.8032 120.039Z" stroke="#034EA1" stroke-width="1.13333" stroke-miterlimit="2.613"/>
<path d="M25.6718 119.359L27.8918 117.797C30.2704 116.117 28.5184 115.029 27.5051 115.617L24.5464 117.333C23.8118 118.089 24.3291 120.305 25.6718 119.359Z" stroke="#034EA1" stroke-width="1.13333" stroke-miterlimit="2.613"/>
<path d="M24.3229 114.542L26.2829 113.771C28.2616 112.992 28.5176 115.028 27.5056 115.618L24.5469 117.334C23.8123 118.088 23.6763 114.796 24.3229 114.542Z" stroke="#034EA1" stroke-width="1.13333" stroke-miterlimit="2.613"/>
<path fill-rule="evenodd" clip-rule="evenodd" d="M31.297 119.708C31.297 119.708 31.6183 119.247 31.4263 118.192L32.197 116.542L31.9116 116.508L30.1396 119.18L31.297 119.708Z" fill="#BF0014"/>
<path d="M26.2825 113.836C26.2825 113.836 31.9411 110.472 34.2545 111.396C36.5691 112.32 37.1465 113.904 37.0851 115.42" stroke="#034EA1" stroke-width="1.13333" stroke-miterlimit="2.613"/>
<path d="M26.3463 113.836C26.2823 114.519 26.413 115.2 26.861 115.883" stroke="#034EA1" stroke-width="0.642667" stroke-miterlimit="2.613"/>
<path d="M26.9908 115.75C26.9268 116.433 27.5694 117.313 28.0188 117.401" stroke="#034EA1" stroke-width="0.642667" stroke-miterlimit="2.613"/>
<path d="M27.8919 117.599C27.8253 118.279 28.6626 119.356 29.1119 119.446" stroke="#034EA1" stroke-width="0.642667" stroke-miterlimit="2.613"/>
<path d="M28.5964 120.039C28.5338 120.719 29.4978 121.536 29.9471 121.623" stroke="#034EA1" stroke-width="0.642667" stroke-miterlimit="2.613"/>
<path fill-rule="evenodd" clip-rule="evenodd" d="M53.6667 76.7527C53.6667 76.7527 54.7973 77.1327 55.736 77.7367C56.376 78.1434 56.056 78.4714 55.736 78.5554C54.6693 78.1461 53.9733 77.6541 53.6667 76.7527ZM45.1813 85.6874L46.5213 83.5914C46.7387 83.7527 47.4133 84.6127 47.5413 85.5341L48.0013 88.8754L44.6253 90.0727C43.8107 90.3621 43.6573 90.2474 42.9253 89.8914L43.9333 87.6514C44.7347 87.5754 45.5987 87.5621 46.3413 87.7914C45.64 87.3341 45.252 86.6327 45.1813 85.6874V85.6874ZM51.1947 78.8807L52.9493 77.3261C53.1147 77.5421 53.6107 78.3781 53.4107 79.2834L52.6453 82.7247L49.2827 82.8887C48.4227 82.9301 48.3373 82.6767 47.7253 82.1301L49.4187 80.4141L51.7693 81.4167L51.1947 78.8807ZM41.884 92.9034L42.4907 90.6141C42.748 90.6981 44.38 91.4167 44.6667 92.2994L45.5453 95.0207L42.708 97.2421C42.528 97.3861 41.5507 97.5394 40.7467 97.4354L41.3053 95.1674C42.0907 94.7087 42.876 94.4927 43.6627 94.5207C42.8813 94.1714 42.3507 93.5727 41.884 92.9034V92.9034ZM40.252 100.99L40.504 98.7554C40.7707 98.7967 42.452 99.2714 42.9093 100.075L44.188 102.338L41.876 104.93C41.7227 105.102 40.592 105.001 39.872 105.214L40.0827 103.195C40.788 102.619 42.0053 102.526 42.784 102.427C41.9627 102.209 40.8707 101.458 40.252 100.99V100.99ZM39.6013 110.138L39.856 107.722C40.1213 107.763 40.712 107.493 41.3147 108.375L43.42 111.469L41.1347 113.627C40.968 113.786 40.0347 113.982 39.2227 114.005L39.4293 112.162C40.1387 111.586 40.704 111.242 41.4853 111.143C40.9 110.802 40.2213 110.849 39.6013 110.138V110.138ZM38.1093 117.977L38.756 115.947C39.0053 116.05 40.028 116.671 40.4387 117.503L41.82 120.31L38.3653 121.998C38.16 122.097 37.0987 121.969 36.428 121.893L37.1133 120.07C37.928 119.671 39.1107 119.493 39.8947 119.578C39.1387 119.174 38.612 118.573 38.1093 117.977ZM34.3307 124.693L35.5293 123.343C35.5293 123.343 36.92 124.495 36.96 125.406C36.9987 126.321 36.8053 127.946 36.8453 128.225C36.884 128.503 35.9547 128.779 35.2587 128.581C34.5627 128.383 34.64 125.805 34.3307 124.693V124.693ZM53.256 76.2527C53.256 76.2527 45.12 81.8954 42.044 89.7554C38.9693 97.6141 39.4693 107.794 38.9693 111.229C38.4667 114.665 37.168 121.034 32.1707 126.226L35.1173 128.597L35.7987 129.226L37.3773 129.283L37.592 125.419L40.016 124.599L39.2373 122.154L42.6893 120.482L40.7333 116.998L43.1107 116.007L41.944 113.597L44.1947 111.63L42.3453 108.539L44.3213 107.026L42.6387 105.026L45.0747 102.562L43.8267 100.174L45.5427 99.0261L44.1507 96.9821L46.2267 95.2887L45.6253 92.3954C46.392 92.1101 46.9213 92.1274 47.3933 91.6621L46.5627 89.8541L48.9813 89.2367L48.276 86.3367L50.9467 86.2661L50.244 83.5341L53.0827 83.3207L53.8987 80.3314L56.1947 80.9247L56.804 77.2714L53.256 76.2527Z" fill="#BF0014"/>
<path d="M57.7409 82.2005C57.0076 82.2005 49.5623 87.6592 48.2089 93.5805C46.8529 99.5032 46.3049 109.583 45.2543 115.687C44.2049 121.791 40.0183 129.263 37.0823 131.146" stroke="#034EA1" stroke-width="0.945333" stroke-miterlimit="2.613"/>
<path d="M58.2773 83.9844C55.7626 85.0631 49.7706 90.6324 48.82 96.3884C47.8706 102.146 48.04 108.624 47.3933 114.179" stroke="#034EA1" stroke-width="0.945333" stroke-miterlimit="2.613"/>
<path d="M49.6965 93.4271C51.4352 94.4924 52.7965 97.4511 52.5672 100.331C52.2992 103.724 50.3019 106.588 47.8152 106.867" stroke="#034EA1" stroke-width="1.32267" stroke-miterlimit="2.613"/>
<path fill-rule="evenodd" clip-rule="evenodd" d="M48.0247 104.753C48.178 101.917 48.3767 99.0727 48.8207 96.3887C48.8767 96.042 48.954 95.6927 49.046 95.3487C49.8807 96.614 50.3833 98.318 50.2367 99.9927C50.0673 101.917 49.2327 103.654 48.0247 104.753Z" fill="#EC1C24"/>
<path d="M48.0247 104.753C48.178 101.917 48.3767 99.0727 48.8207 96.3887C48.8767 96.042 48.954 95.6927 49.046 95.3487C49.8807 96.614 50.3833 98.318 50.2367 99.9927C50.0673 101.917 49.2327 103.654 48.0247 104.753Z" stroke="#034EA1" stroke-width="0.945333" stroke-miterlimit="2.613"/>
<path fill-rule="evenodd" clip-rule="evenodd" d="M51.5819 110.797L50.9126 109.592L52.2299 108.794C51.8499 108.248 51.3152 107.852 50.7246 107.748C49.5726 107.542 48.7139 108.393 48.7139 109.789C48.7139 110.174 48.7832 110.552 48.9112 110.904L50.1486 110.094L50.7392 111.158C49.8659 111.48 48.9379 111.649 47.9792 111.649C47.8632 111.649 47.7486 111.646 47.6339 111.641C47.5712 112.456 47.4979 113.261 47.4072 114.045C47.7672 114.081 48.1272 114.102 48.4939 114.102C55.2166 114.102 60.6992 107.657 60.6992 99.753C60.6992 94.2756 58.0646 89.4996 54.2139 87.081C53.4966 87.8023 52.7739 88.6143 52.1019 89.4943C53.4019 90.2476 54.5432 91.3463 55.4419 92.6903L54.3912 93.3956L53.4979 92.4196C53.0392 92.7916 52.8219 93.117 52.7606 93.657C52.6392 94.7116 53.4192 95.4476 54.6352 95.3796C54.9699 95.3623 55.2939 95.2783 55.5952 95.1463L54.8646 94.065L55.8739 93.385C56.5446 94.557 57.0432 95.885 57.3232 97.3103L56.0859 97.393L55.7606 96.005C55.1432 96.1036 54.7726 96.289 54.4352 96.7583C53.7766 97.669 54.0099 98.8156 55.1739 99.4063C55.4979 99.5676 55.9512 99.6303 56.2979 99.6663L56.1806 98.2703L57.4672 98.185C57.5459 98.7783 57.5846 99.3876 57.5846 100.008C57.5846 100.724 57.5299 101.43 57.4259 102.112L56.0166 101.98L56.2539 100.436C55.6006 100.352 55.0699 100.401 54.5966 100.776C53.6726 101.51 53.6032 102.693 54.6152 103.633C54.8966 103.893 55.2192 104.092 55.5579 104.232L55.8659 102.893L57.2566 103.018C56.8926 104.654 56.2432 106.149 55.3779 107.42L54.2619 106.492L55.0112 105.229C54.9726 105.068 54.2646 104.706 53.8872 104.769C52.7232 104.885 51.8286 105.94 52.1966 107.286C52.2992 107.658 52.5032 108.078 52.7192 108.38L53.6592 107.185L54.8086 108.18C53.8979 109.3 52.8019 110.196 51.5819 110.797Z" fill="#BF0014"/>
<path fill-rule="evenodd" clip-rule="evenodd" d="M50.1238 92.5782C50.1238 92.5782 51.8211 92.9088 52.5064 91.8928C52.8638 91.3648 51.2664 90.7182 51.3624 90.6222L50.1238 92.5782Z" fill="#BF0014"/>
<path fill-rule="evenodd" clip-rule="evenodd" d="M36.6575 144.529C36.6575 145.737 35.6122 146.722 34.3335 146.722C33.0522 146.722 32.0068 145.737 32.0068 144.529C32.0068 143.318 33.0522 142.335 34.3335 142.335C35.6122 142.335 36.6575 143.318 36.6575 144.529Z" fill="#3FE6FF"/>
<path fill-rule="evenodd" clip-rule="evenodd" d="M30.9698 150.289C29.7152 150.289 28.6938 149.224 28.6938 147.917C28.6938 146.609 29.7152 145.544 30.9698 145.544C32.2205 145.544 33.2445 146.609 33.2445 147.917C33.2445 149.224 32.2205 150.289 30.9698 150.289Z" fill="#3FE6FF"/>
<path fill-rule="evenodd" clip-rule="evenodd" d="M25.0847 144.833C25.0847 143.625 26.1261 142.64 27.4074 142.64C28.69 142.64 29.734 143.625 29.734 144.833C29.734 146.041 28.69 147.027 27.4074 147.027C26.1261 147.027 25.0847 146.041 25.0847 144.833Z" fill="#3FE6FF"/>
<path fill-rule="evenodd" clip-rule="evenodd" d="M30.5743 139.008C31.7583 139.008 32.7223 140.073 32.7223 141.38C32.7223 142.688 31.7583 143.756 30.5743 143.756C29.3903 143.756 28.4263 142.688 28.4263 141.38C28.4263 140.073 29.3903 139.008 30.5743 139.008Z" fill="#3FE6FF"/>
<path d="M62.3398 21.823C62.5772 31.5083 63.2425 42.675 64.8212 47.279C66.4012 51.8857 69.1052 56.5657 75.2225 54.9977C81.3385 53.427 85.2038 47.9483 85.7958 46.6283" stroke="#034EA1" stroke-width="1.512" stroke-miterlimit="2.613"/>
<path d="M60.7942 53.086C60.7942 53.086 66.4622 55.81 70.2022 56.3047C73.9409 56.7993 81.7822 57.0473 85.4022 55.0647" stroke="#034EA1" stroke-width="1.32267" stroke-miterlimit="2.613"/>
<path d="M57.2957 55.3126C57.2957 55.3126 65.137 59.2766 70.565 59.8939C75.9917 60.5126 81.5437 60.3886 86.125 58.6566" stroke="#034EA1" stroke-width="1.32267" stroke-miterlimit="2.613"/>
<path d="M55.2461 56.5522C55.2461 56.5522 62.8448 61.1335 69.4794 61.7495C76.1141 62.3695 82.3848 62.0002 86.9701 60.2655" stroke="#034EA1" stroke-width="1.32267" stroke-miterlimit="2.613"/>
<path d="M66.186 50.3698C64.854 51.1951 55.4727 55.8098 46.534 61.6124C35.0434 69.0698 23.77 79.3484 23.77 79.5604" stroke="#034EA1" stroke-width="1.32267" stroke-miterlimit="2.613"/>
<path d="M88.1431 49.0312C88.1431 49.0312 85.2018 51.2005 85.6258 56.0099C86.0498 60.8205 89.4431 62.3645 91.2485 62.6379" stroke="#034EA1" stroke-width="1.32267" stroke-miterlimit="2.613"/>
<path d="M57.5131 74.8021C51.4491 72.4141 45.8064 68.8101 41.6904 65.2715" stroke="#034EA1" stroke-width="1.32267" stroke-miterlimit="2.613"/>
<path fill-rule="evenodd" clip-rule="evenodd" d="M82.1992 21.823L92.8726 69.4617L99.2166 68.2683L84.0819 22.0777L82.1992 21.823Z" fill="#3F1000"/>
<path d="M82.1992 21.823L92.8726 69.4617L99.2166 68.2683L84.0819 22.0777L82.1992 21.823Z" stroke="#034EA1" stroke-width="1.13333" stroke-miterlimit="2.613"/>
<path fill-rule="evenodd" clip-rule="evenodd" d="M88.3295 21.823L98.2895 51.1096L94.0229 52.4216L84.0815 22.0776L88.3295 21.823Z" fill="#EC1C24"/>
<path d="M88.3295 21.823L98.2895 51.1096L94.0229 52.4216L84.0815 22.0776L88.3295 21.823Z" stroke="#034EA1" stroke-width="1.13333" stroke-miterlimit="2.613"/>
<path fill-rule="evenodd" clip-rule="evenodd" d="M58.9636 76.1875C59.6316 76.1875 60.1743 75.6302 60.1743 74.9502C60.1743 74.2688 59.6316 73.7142 58.9636 73.7142C58.2969 73.7142 57.7529 74.2688 57.7529 74.9502C57.7529 75.6302 58.2969 76.1875 58.9636 76.1875Z" fill="white"/>
<path fill-rule="evenodd" clip-rule="evenodd" d="M78.7019 78.5547C79.3685 78.5547 79.9099 77.9974 79.9099 77.3174C79.9099 76.636 79.3685 76.0814 78.7019 76.0814C78.0325 76.0814 77.4885 76.636 77.4885 77.3174C77.4885 77.9974 78.0325 78.5547 78.7019 78.5547Z" fill="white"/>
<path fill-rule="evenodd" clip-rule="evenodd" d="M59.5974 77.6198C60.2334 77.6198 60.7521 78.1478 60.7521 78.7972C60.7521 79.4452 60.2334 79.9745 59.5974 79.9745C58.9628 79.9745 58.4468 79.4452 58.4468 78.7972C58.4468 78.1478 58.9628 77.6198 59.5974 77.6198Z" fill="white"/>
<path fill-rule="evenodd" clip-rule="evenodd" d="M77.4076 79.987C76.7929 79.987 76.2903 80.5857 76.2903 81.3204C76.2903 82.055 76.7929 82.6537 77.4076 82.6537C78.0263 82.6537 78.5289 82.055 78.5289 81.3204C78.5289 80.5857 78.0263 79.987 77.4076 79.987Z" fill="white"/>
<path fill-rule="evenodd" clip-rule="evenodd" d="M60.1185 81.5312C60.7211 81.5312 61.2118 82.0312 61.2118 82.6459C61.2118 83.2606 60.7211 83.7632 60.1185 83.7632C59.5171 83.7632 59.0251 83.2606 59.0251 82.6459C59.0251 82.0312 59.5171 81.5312 60.1185 81.5312Z" fill="white"/>
<path fill-rule="evenodd" clip-rule="evenodd" d="M76.6446 83.6016C76.0406 83.6016 75.5513 84.1696 75.5513 84.8643C75.5513 85.5603 76.0406 86.1283 76.6446 86.1283C77.2446 86.1283 77.7366 85.5603 77.7366 84.8643C77.7366 84.1696 77.2446 83.6016 76.6446 83.6016Z" fill="white"/>
<path fill-rule="evenodd" clip-rule="evenodd" d="M60.8112 85.5495C61.2899 85.5495 61.6806 85.9482 61.6806 86.4349C61.6806 86.9215 61.2899 87.3202 60.8112 87.3202C60.3339 87.3202 59.9446 86.9215 59.9446 86.4349C59.9446 85.9482 60.3339 85.5495 60.8112 85.5495Z" fill="white"/>
<path fill-rule="evenodd" clip-rule="evenodd" d="M75.6704 87.0885C75.1771 87.0885 74.7744 87.5525 74.7744 88.1245C74.7744 88.6952 75.1771 89.1619 75.6704 89.1619C76.1624 89.1619 76.5664 88.6952 76.5664 88.1245C76.5664 87.5525 76.1624 87.0885 75.6704 87.0885Z" fill="white"/>
<path fill-rule="evenodd" clip-rule="evenodd" d="M61.2748 90.4011C61.6908 90.4011 62.0268 90.0571 62.0268 89.6331C62.0268 89.2078 61.6908 88.8625 61.2748 88.8625C60.8602 88.8625 60.5215 89.2078 60.5215 89.6331C60.5215 90.0571 60.8602 90.4011 61.2748 90.4011Z" fill="white"/>
<path fill-rule="evenodd" clip-rule="evenodd" d="M74.6757 92.2996C75.1451 92.2996 75.5264 91.8462 75.5264 91.2862C75.5264 90.7289 75.1451 90.2729 74.6757 90.2729C74.2091 90.2729 73.8264 90.7289 73.8264 91.2862C73.8264 91.8462 74.2091 92.2996 74.6757 92.2996Z" fill="white"/>
<path fill-rule="evenodd" clip-rule="evenodd" d="M73.9726 95.1355C74.3619 95.1355 74.6779 94.7835 74.6779 94.3515C74.6779 93.9195 74.3619 93.5675 73.9726 93.5675C73.5872 93.5675 73.2712 93.9195 73.2712 94.3515C73.2712 94.7835 73.5872 95.1355 73.9726 95.1355Z" fill="white"/>
<path fill-rule="evenodd" clip-rule="evenodd" d="M72.8919 98.2136C73.2119 98.2136 73.4732 97.8883 73.4732 97.4896C73.4732 97.0883 73.2119 96.763 72.8919 96.763C72.5719 96.763 72.3105 97.0883 72.3105 97.4896C72.3105 97.8883 72.5719 98.2136 72.8919 98.2136Z" fill="white"/>
<path d="M43.5625 63.7396C43.5625 63.7396 55.8998 74.1982 69.2865 75.0156C82.6732 75.8329 89.8092 72.2889 94.8825 70.5542" stroke="#034EA1" stroke-width="1.32267" stroke-miterlimit="2.613"/>
<path d="M30.9478 148.323V141.118" stroke="#034EA1" stroke-width="0.756" stroke-miterlimit="2.613"/>
<path d="M27.418 144.721H34.4753" stroke="#034EA1" stroke-width="0.756" stroke-miterlimit="2.613"/>
<path fill-rule="evenodd" clip-rule="evenodd" d="M30.8034 146.161C30.0394 146.161 29.4194 145.531 29.4194 144.749C29.4194 143.968 30.0394 143.336 30.8034 143.336C31.5674 143.336 32.1901 143.968 32.1901 144.749C32.1901 145.531 31.5674 146.161 30.8034 146.161Z" fill="#EC1C24"/>
<path d="M30.8034 146.161C30.0394 146.161 29.4194 145.531 29.4194 144.749C29.4194 143.968 30.0394 143.336 30.8034 143.336C31.5674 143.336 32.1901 143.968 32.1901 144.749C32.1901 145.531 31.5674 146.161 30.8034 146.161Z" stroke="#034EA1" stroke-width="0.756" stroke-miterlimit="2.613"/>
<path fill-rule="evenodd" clip-rule="evenodd" d="M96.763 172.112C96.671 171.38 96.4457 170.591 96.395 169.948C96.2937 168.695 95.371 168.021 94.959 169.844C94.8564 170.292 94.6977 170.953 94.5617 171.659C93.459 177.315 85.4244 176.14 84.439 171.563C83.4524 166.984 84.831 163.336 88.8217 158.161C92.811 152.984 94.6764 149.651 95.6577 146.412C96.487 150.492 103.902 159.639 105.947 163.833C107.994 168.028 107.242 173.489 104.08 174.885C100.918 176.281 97.0977 174.792 96.763 172.112Z" fill="#EC1C24"/>
<path fill-rule="evenodd" clip-rule="evenodd" d="M29.6485 182.266C31.1885 172.271 30.2712 162.075 27.6392 153.015C30.8205 153.766 33.9085 153.976 36.5498 152.932L36.4645 152.979L46.4232 182.266H29.6485Z" fill="#3FE6FF"/>
<path d="M29.6485 182.266C31.1885 172.271 30.2712 162.075 27.6392 153.015C30.8205 153.766 33.9085 153.976 36.5498 152.932L36.4645 152.979L46.4232 182.266H29.6485Z" stroke="#034EA1" stroke-width="1.32267" stroke-miterlimit="2.613"/>
<path fill-rule="evenodd" clip-rule="evenodd" d="M77.6692 150.081C77.5345 157.19 73.1145 162.157 71.4438 163.941C71.6692 166.409 71.8225 169.482 71.9372 172.351C76.9665 169.441 85.2265 158.143 85.1652 145.693L77.6692 150.081Z" fill="#3F1000"/>
<path d="M70.2383 182.599C70.2383 182.466 71.2343 180.506 72.6103 180.56" stroke="#034EA1" stroke-width="1.512" stroke-miterlimit="2.613"/>
<path d="M56.6418 182.599C56.6418 182.399 54.6712 180.396 52.1912 180.307" stroke="#034EA1" stroke-width="1.512" stroke-miterlimit="2.613"/>
<path d="M68.1758 182.599C68.1758 182.599 70.8518 178.99 72.5331 178.834" stroke="#034EA1" stroke-width="1.512" stroke-miterlimit="2.613"/>
<path d="M58.9193 182.477C58.9193 182.477 55.0019 178.307 51.7913 178.219" stroke="#034EA1" stroke-width="1.512" stroke-miterlimit="2.613"/>
<path d="M66.5691 182.599C66.5691 182.05 70.6984 177.12 72.3784 177.263" stroke="#034EA1" stroke-width="1.512" stroke-miterlimit="2.613"/>
<path d="M60.7773 182.599C59.7787 180.003 55.7187 176.302 51.3813 176.175" stroke="#034EA1" stroke-width="1.512" stroke-miterlimit="2.613"/>
<path d="M64.582 182.599C64.7367 181.735 68.9407 176.235 72.3367 175.515" stroke="#034EA1" stroke-width="1.512" stroke-miterlimit="2.613"/>
<path d="M62.427 182.599C61.9097 179.75 55.619 174.206 50.9963 174.459" stroke="#034EA1" stroke-width="1.512" stroke-miterlimit="2.613"/>
<path d="M49.8463 170.065C50.2703 170.065 52.897 166.521 51.445 162.486C49.9943 158.453 48.4743 157.669 46.9143 157.046" stroke="#034EA1" stroke-width="1.32267" stroke-miterlimit="2.613"/>
<path d="M49.0572 167.44C49.0572 167.44 49.9852 165.654 49.7466 163.631C49.5066 161.604 48.3892 160.962 47.4319 160.118" stroke="#034EA1" stroke-width="1.32267" stroke-miterlimit="2.613"/>
<path d="M46.0287 153.018C46.0287 153.018 46.958 151.008 46.7193 148.985C46.4807 146.961 44.93 145.652 43.9727 144.81" stroke="#034EA1" stroke-width="1.32267" stroke-miterlimit="2.613"/>
<path d="M69.4478 156.216C70.2144 155.607 70.7798 154.342 70.7371 153.279" stroke="#034EA1" stroke-width="1.32267" stroke-miterlimit="2.613"/>
<path d="M70.0259 157.596C70.7739 157.182 72.6232 154.612 72.3592 152.503" stroke="#034EA1" stroke-width="1.32267" stroke-miterlimit="2.613"/>
<path d="M70.6758 160.036C72.5038 158.512 74.8931 155.055 74.9518 151.394" stroke="#034EA1" stroke-width="1.32267" stroke-miterlimit="2.613"/>
<path fill-rule="evenodd" clip-rule="evenodd" d="M38.8074 182.063C39.05 181.128 39.8594 180.377 40.902 180.229C41.9447 180.081 43.4194 180.943 44.422 181.972C44.1314 182.063 43.7167 182.029 43.426 182.12C42.9087 181.745 42.038 181.26 41.598 181.279C41.1607 181.297 40.666 181.527 40.3354 182.289C40.0127 182.201 39.1274 182.151 38.8074 182.063Z" fill="#3F1000"/>
<path fill-rule="evenodd" clip-rule="evenodd" d="M42.9139 178.057C42.9139 177.969 40.8045 179.273 39.1099 178.899C39.5685 178.096 40.7379 177.289 42.6579 177.451C42.6299 176.781 41.5579 175.976 41.9632 174.585C43.2299 175.401 42.8699 176.661 43.1072 177.596C43.5992 178.347 44.3659 179.375 44.1925 180.573C43.5552 180.159 42.9205 179.245 42.9139 178.057Z" fill="#3F1000"/>
<path fill-rule="evenodd" clip-rule="evenodd" d="M39.22 166.974C39.22 166.889 37.1133 168.187 35.416 167.815C35.876 167.013 37.0453 166.206 38.964 166.365C38.9373 165.698 37.868 164.893 38.2733 163.502C39.54 164.318 39.1787 165.578 39.4147 166.513C39.9093 167.261 40.6733 168.291 40.5013 169.487C39.8613 169.073 39.2307 168.162 39.22 166.974Z" fill="#3F1000"/>
<path fill-rule="evenodd" clip-rule="evenodd" d="M35.5312 156.042C35.5312 155.954 33.4258 157.255 31.7285 156.883C32.1872 156.078 33.5125 155.31 35.3538 155.432C36.1752 155.763 36.9565 157.547 36.8138 158.555C36.1725 158.14 35.5418 157.227 35.5312 156.042Z" fill="#3F1000"/>
<path fill-rule="evenodd" clip-rule="evenodd" d="M35.6196 174.318C35.1143 174.318 34.7036 173.9 34.7036 173.383C34.7036 172.87 35.1143 172.448 35.6196 172.448C36.1276 172.448 36.5356 172.87 36.5356 173.383C36.5356 173.9 36.1276 174.318 35.6196 174.318Z" fill="#3F1000"/>
<path fill-rule="evenodd" clip-rule="evenodd" d="M31.9282 163.234C31.4229 163.234 31.0122 162.817 31.0122 162.3C31.0122 161.784 31.4229 161.365 31.9282 161.365C32.4335 161.365 32.8442 161.784 32.8442 162.3C32.8442 162.817 32.4335 163.234 31.9282 163.234Z" fill="#3F1000"/>
<path fill-rule="evenodd" clip-rule="evenodd" d="M38.5508 175.771C37.6481 175.301 37.8014 174.519 37.8868 174.224C37.9694 173.924 36.7894 174.247 36.9401 175.523C37.0908 176.799 38.6254 177.867 39.6494 176.852C40.6761 175.833 41.3774 174.74 41.6641 171.959C40.6348 170.735 39.4228 169.013 37.6321 168.768C35.8441 168.525 35.1761 170.068 35.5174 171.019C35.8588 171.971 36.8841 172.12 36.7174 171.82C36.5548 171.516 36.4708 170.177 37.5068 169.899C38.5388 169.62 40.4588 171.159 40.6548 171.511C40.8508 171.859 39.2908 172.429 39.1561 171.992C39.0241 171.552 38.9601 171.435 38.8374 170.807C37.8894 171.411 37.8628 172.153 38.7294 172.743C38.7294 172.743 38.0481 174.052 39.8201 174.359C39.5934 173.683 39.4014 173.299 39.9868 172.965C40.5761 172.628 41.3468 172.137 40.9308 173.347C40.5201 174.555 39.4521 176.24 38.5508 175.771Z" fill="#3F1000"/>
<path fill-rule="evenodd" clip-rule="evenodd" d="M34.8581 164.688C33.9568 164.218 34.1075 163.436 34.1941 163.138C34.2795 162.841 33.0981 163.164 33.2475 164.437C33.3981 165.716 34.9341 166.786 35.9595 165.769C36.9848 164.75 37.6848 163.657 37.9728 160.876C36.9408 159.652 35.7288 157.93 33.9408 157.688C32.1515 157.44 31.4821 158.982 31.8248 159.936C32.1648 160.885 33.1915 161.037 33.0275 160.734C32.8608 160.433 32.7808 159.094 33.8141 158.816C34.8475 158.537 36.7675 160.076 36.9621 160.428C37.1581 160.776 35.6008 161.346 35.4661 160.909C35.3315 160.469 35.2661 160.352 35.1461 159.724C34.1995 160.33 34.1715 161.068 35.0395 161.66C35.0395 161.66 34.3555 162.969 36.1301 163.276C35.9021 162.597 35.7075 162.216 36.2955 161.881C36.8821 161.548 37.6528 161.054 37.2408 162.264C36.8288 163.469 35.7595 165.157 34.8581 164.688Z" fill="#3F1000"/>
<path fill-rule="evenodd" clip-rule="evenodd" d="M101.594 64.5547C101.94 65.768 102.967 66.656 104.18 66.656C105.392 66.656 106.422 65.7707 106.767 64.5547H108.534V62.74C109.559 62.3093 110.276 61.3387 110.276 60.2133C110.276 59.088 109.559 58.1173 108.534 57.6853V55.464H106.168C105.651 54.664 104.775 54.136 103.786 54.136C102.792 54.136 101.918 54.664 101.4 55.464H99.6283V57.8547C98.399 58.1827 97.491 59.252 97.491 60.5187C97.491 61.7813 98.399 62.852 99.6283 63.18V64.5547H101.594Z" fill="#BF0014"/>
<path d="M103.357 66.2396C103.357 66.2396 103.285 73.3596 103.285 75.1929C103.285 77.0289 103.642 79.1569 103.642 79.1569" stroke="#034EA1" stroke-width="0.756" stroke-miterlimit="2.613"/>
<path d="M105.216 66.0183L105.001 79.0103" stroke="#034EA1" stroke-width="0.756" stroke-miterlimit="2.613"/>
<path fill-rule="evenodd" clip-rule="evenodd" d="M105.06 79.1902V73.0342L109.364 67.1955C109.364 67.1955 110.08 70.5702 109.578 72.8462C109.092 75.0515 107.197 78.9555 105.06 79.1902Z" fill="#3FE6FF"/>
<path fill-rule="evenodd" clip-rule="evenodd" d="M103.329 79.0131C101.92 78.6904 101.152 77.8824 100.209 77.0291C98.9935 75.9277 97.9935 75.1197 97.7055 73.7997C97.4188 72.4797 97.1348 71.8904 97.2042 71.8904C97.2775 71.8904 98.7802 71.6717 100.639 73.2864C102.497 74.9011 102.783 75.2677 103.285 75.7077L103.329 79.0131Z" fill="#3FE6FF"/>
<path d="M103.285 75.7082C102.783 75.2682 102.497 74.9016 100.64 73.2869C98.7799 71.6722 97.2772 71.8909 97.2039 71.8909C97.1345 71.8909 97.4199 72.4789 97.7052 73.7989C97.9932 75.1202 98.9932 75.9269 100.209 77.0282C101.425 78.1296 102.641 79.1562 104.859 79.1562C107.077 79.1562 109.079 75.1203 109.579 72.8469C110.08 70.5696 109.364 67.1949 109.364 67.1949L104.931 73.2109" stroke="#034EA1" stroke-width="0.756" stroke-miterlimit="2.613"/>
<path fill-rule="evenodd" clip-rule="evenodd" d="M99.4946 74.3855C99.4946 74.3855 101.972 76.2628 103.356 76.6615V77.6975C103.488 77.9708 99.8413 75.9788 99.4946 74.3855Z" fill="#BF0014"/>
<path fill-rule="evenodd" clip-rule="evenodd" d="M108.057 71.4896C108.057 71.4896 106.737 74.9589 104.993 76.5256V77.5629C104.86 77.9136 108.353 74.1616 108.057 71.4896Z" fill="#BF0014"/>
<path fill-rule="evenodd" clip-rule="evenodd" d="M63.8816 153.586C63.4909 153.815 63.0162 153.875 62.6109 153.81C61.7456 153.671 61.0189 153.343 61.0189 153.343C61.0189 153.343 61.9189 154.209 62.9296 154.185C63.4962 154.171 64.0229 154.154 64.2656 153.919C64.6976 153.501 64.2096 153.395 63.8816 153.586ZM61.0629 156.193C61.4256 155.774 61.7829 155.329 62.7936 155.305C63.8016 155.281 64.7016 156.146 64.7016 156.146C64.7016 156.146 63.9749 155.818 63.1109 155.679C62.2456 155.539 61.0629 156.193 61.0629 156.193V156.193ZM66.4762 158.526C66.5376 157.966 66.3722 157.222 65.9762 156.753C65.7989 156.633 65.1389 156.859 64.7962 157.081C64.4482 157.302 63.1056 156.081 62.1562 156.659C61.2296 157.225 60.3349 156.941 60.3349 156.941C60.0669 156.925 59.8456 156.815 59.6669 156.613H59.3349L59.5176 158.154C59.5176 158.154 59.9576 158.466 60.3349 158.154C60.7162 157.841 61.3269 157.771 62.2456 158.294C62.6616 158.531 63.0576 158.023 63.6109 158.029C63.8629 158.034 64.3856 158.331 64.6122 158.479C65.3856 158.247 66.3869 157.594 66.4762 158.526V158.526ZM55.2069 169.93C54.8869 169.725 54.5669 169.313 54.5669 169.313C54.8336 169.059 55.2989 168.815 55.5682 168.943C55.4616 169.231 55.3136 169.643 55.2069 169.93V169.93ZM59.2562 169.67C59.2762 169.834 60.0829 170.026 60.0829 169.45C60.0829 168.875 60.2402 168.925 60.0602 168.821C59.8789 168.717 59.4829 168.725 59.2042 168.725C59.2709 169.11 59.2096 169.283 59.2562 169.67V169.67ZM58.0656 170.138C58.0256 170.013 58.0096 169.19 57.3136 169.17C56.6176 169.149 56.7056 169.597 56.6136 169.891C56.5176 170.185 55.9829 170.231 55.9696 169.786C56.0949 168.446 56.9789 168.305 57.8256 168.438C58.5896 168.559 58.8189 169.971 58.8189 169.971L58.0656 170.138ZM69.1242 170.138L69.8016 169.891C69.8016 169.891 69.5682 168.654 68.8002 168.531C67.9549 168.395 67.2216 168.95 67.2362 169.93L67.8776 169.891C67.8776 169.891 67.9562 169.291 68.4389 169.313C68.9256 169.337 69.0816 170.013 69.1242 170.138ZM66.7162 169.849C66.7162 169.438 66.8362 169.107 67.0762 168.739C66.4109 168.766 65.9762 169.291 65.8736 169.521C65.6762 169.955 66.7162 169.849 66.7162 169.849ZM70.6456 170.055C70.6456 170.055 71.1669 170.097 71.0856 169.602C71.0082 169.107 70.8856 168.779 70.8042 168.779C70.7242 168.779 70.4856 168.531 70.1242 168.614C70.1242 168.943 70.4856 169.643 70.6456 170.055V170.055ZM60.8082 170.671C60.8082 170.671 60.8509 168.646 61.6336 168.214C62.1562 167.925 60.7869 168.185 60.5376 168.029L57.1749 165.903L57.0549 166.026L59.5002 167.851C59.5002 167.851 59.7842 168.234 58.8682 168.234C57.9536 168.234 57.3176 167.946 56.4029 168.091C55.4869 168.234 54.2896 168.958 54.2896 168.958C54.2896 168.958 53.7482 169.425 53.0216 168.958C52.7856 169.326 53.2122 169.474 53.6229 169.813C54.2309 170.318 55.0656 170.846 55.8389 170.993C57.3896 171.281 58.7656 171.703 60.8082 170.671V170.671ZM60.7802 170.722C59.2349 173.341 54.0429 171.777 52.9096 170.217C53.8682 171.665 56.6309 172.657 57.6496 172.654C58.6736 172.649 60.4482 172.605 61.2776 171.769C62.1082 170.927 60.7802 170.547 60.7802 170.722V170.722ZM61.1216 172.789C59.9962 174.485 54.0082 173.078 52.6709 171.777C53.7282 173.409 57.3176 174.63 58.4442 174.667C59.5722 174.703 60.9096 174.859 61.8242 173.726C62.7402 172.597 61.1216 172.597 61.1216 172.789V172.789ZM71.0496 170.837C69.0082 172.386 65.7696 170.401 65.7696 170.331C65.6762 170.177 65.4802 170.231 65.4349 170.927C65.4096 171.274 66.5762 171.722 67.5282 171.919C68.4776 172.119 69.3589 172.209 70.2042 171.919C71.0496 171.63 71.0496 170.837 71.0496 170.837V170.837ZM70.9082 172.354C69.1469 173.365 65.6976 171.703 65.6976 171.703C65.6976 171.703 65.8176 173.117 67.2456 173.559C68.6762 174.003 69.2309 173.862 70.4162 173.417C71.6029 172.971 70.9082 172.354 70.9082 172.354ZM72.1056 174.159C72.1056 174.159 68.7962 175.029 67.3869 174.521C65.9789 174.015 64.2189 172.354 64.5002 170.547C64.7829 168.742 65.8402 164.165 66.1216 163.105C66.4016 162.045 65.5936 161.971 64.8536 161.443C64.4829 161.177 64.2482 161.433 64.2016 161.859C64.1656 162.193 62.9656 162.463 62.4269 162.094C61.2482 161.286 60.8749 161.463 60.5122 161.555C60.1469 161.649 59.5722 161.947 60.1349 162.815C60.6989 163.682 59.1482 162.237 59.7122 161.297C60.2776 160.357 60.7669 160.43 61.8949 161.007C63.0216 161.586 63.8669 161.586 63.8669 160.503C63.8669 159.49 66.4722 161.805 66.4722 161.731C66.4722 161.659 67.0362 162.742 66.6856 163.829C66.3309 164.911 65.9789 167.078 65.9789 167.078C65.9789 167.078 66.8242 166.43 67.5282 165.851C68.2322 165.271 66.5429 167.583 66.5429 167.583C66.5429 167.583 65.9082 168.67 67.3869 168.091C68.8669 167.513 71.1202 168.018 71.8256 168.597L72.1056 174.159Z" fill="#BF0014"/>
<path fill-rule="evenodd" clip-rule="evenodd" d="M110.15 126.638L94.7977 139.045C92.387 136.565 84.887 131.495 82.0483 130.165C85.7977 126.818 91.0163 123.955 93.8897 113.895C96.763 103.835 95.5963 101.799 96.651 94.6953C97.4657 89.214 96.3523 95.9167 103.202 94.5993C104.396 94.37 106.574 92.846 108.304 92.338C110.038 91.8327 110.15 91.5073 110.15 91.414V126.638Z" fill="#3F1000"/>
<path d="M82.0481 130.164C85.7988 126.817 91.0174 123.956 93.8894 113.896C96.7628 103.836 95.5961 101.8 96.6508 94.6947L97.0201 92.7427" stroke="#034EA1" stroke-width="0.642667" stroke-miterlimit="2.613"/>
<path fill-rule="evenodd" clip-rule="evenodd" d="M55.1185 147.747C55.9225 147.685 56.7452 147.651 57.5598 147.638L57.4878 146.607C56.6252 146.614 55.7572 146.646 54.9038 146.706L55.1185 147.747ZM58.5532 147.635C59.6145 147.641 60.6545 147.682 61.6212 147.745L61.6118 146.717C60.6292 146.659 59.5665 146.617 58.4798 146.609L58.5532 147.635ZM65.1172 148.111C65.0025 148.094 64.8852 148.075 64.7732 148.057C64.1798 147.977 63.4892 147.895 62.7278 147.831L62.7478 146.791C63.5238 146.849 64.2292 146.914 64.8318 146.977C64.9692 146.99 65.1052 147.005 65.2465 147.026L65.1172 148.111ZM66.2078 148.338C66.8865 148.499 67.5905 148.703 68.2905 148.93L68.6865 147.873C67.8998 147.619 67.1118 147.398 66.3678 147.231L66.2078 148.338ZM69.3372 149.283C70.1625 149.578 70.9558 149.886 71.6612 150.171L72.0745 149.127C71.3598 148.829 70.5705 148.521 69.7625 148.234L69.3372 149.283ZM72.8585 150.674C73.8318 151.097 74.4545 151.395 74.4545 151.395L75.3745 150.758C75.3745 150.666 74.5305 150.211 73.2652 149.641L72.8585 150.674ZM50.1225 148.677L49.8998 147.605C49.5318 147.734 49.1892 147.881 48.8745 148.042L49.1318 149.105C49.4332 148.947 49.7652 148.805 50.1225 148.677V148.677ZM51.1465 147.239L51.3678 148.305C52.2158 148.097 53.1505 147.942 54.1252 147.838L53.9132 146.791C52.9332 146.89 51.9985 147.037 51.1465 147.239Z" fill="#3F1000"/>
<path fill-rule="evenodd" clip-rule="evenodd" d="M91.1902 141.305C91.1902 141.305 78.8528 130.846 65.4662 130.031C52.0822 129.211 44.7488 132.554 40.1648 134.286C39.8262 138.862 43.5435 141.589 47.0848 144.305C48.2062 145.162 49.0848 148.138 49.3528 149.979C52.9702 147.999 60.8115 148.245 64.5515 148.742C68.2902 149.237 73.9608 151.958 73.9608 151.958L91.1902 141.305Z" fill="#3FE6FF"/>
<path fill-rule="evenodd" clip-rule="evenodd" d="M91.6615 141.466C91.6615 141.466 85.8242 136.729 77.9695 133.336L77.6108 130.721C83.3962 133.01 88.9468 136.237 93.0655 139.773L91.6615 141.466Z" fill="#EC1C24"/>
<path fill-rule="evenodd" clip-rule="evenodd" d="M89.6054 142.776C88.9294 142.289 88.1027 141.716 87.1441 141.093L87.2894 143.967L89.6054 142.776ZM83.5134 138.888C82.1761 138.133 80.7134 137.372 79.1574 136.656L80.1521 140.303L83.5134 138.888ZM75.0467 134.976C73.3707 134.38 71.6254 133.869 69.8454 133.5L71.6641 137.235L75.0467 134.976ZM64.8974 132.869C63.3347 132.787 61.8574 132.757 60.4601 132.773L62.5441 135.5L64.8974 132.869ZM55.2827 133.057C53.5561 133.232 51.9787 133.473 50.5321 133.763L53.2507 136.205L55.2827 133.057ZM45.3761 135.083C44.1974 135.456 43.1374 135.836 42.1814 136.192L44.1587 137.661L45.3761 135.083Z" fill="#3F1000"/>
<path fill-rule="evenodd" clip-rule="evenodd" d="M78.0911 147.701C77.3271 147.294 76.2925 146.766 75.0845 146.219C75.2205 146.007 75.3698 145.818 75.5311 145.673L77.6191 144.575L78.1445 146.927C78.1765 147.219 78.1578 147.477 78.0911 147.701ZM71.2205 144.67C70.1151 144.291 68.9645 143.953 67.8098 143.701L68.1685 143.138L70.2191 141.717L71.1471 143.966C71.1925 144.229 71.2151 144.463 71.2205 144.67V144.67ZM63.9418 143.182C62.6911 143.091 61.4551 143.034 60.2471 143.018C60.2751 142.859 60.3525 142.69 60.4965 142.513L62.0618 140.63L63.5551 142.561C63.7578 142.791 63.8805 143.001 63.9418 143.182V143.182ZM56.3511 143.113C54.9525 143.203 53.6031 143.357 52.3271 143.578C52.2885 143.547 52.2551 143.51 52.2271 143.477L54.0018 140.857L55.9725 142.837C56.1058 142.935 56.2298 143.029 56.3511 143.113ZM52.9045 138.862L49.8991 142.93L45.8285 140.146L48.0445 135.209L52.9045 138.862ZM61.4978 138.113L58.3778 141.589L54.5098 138.526L58.3045 133.659L61.4978 138.113ZM70.1431 139.391L65.8511 142.115L63.0098 138.151L67.1711 133.961L70.1431 139.391ZM78.2805 142.17L73.8098 143.974L71.6831 139.911L76.8151 136.831L78.2805 142.17ZM82.4831 145.553C81.6605 145.553 80.9885 144.865 80.9885 144.023C80.9885 143.185 81.6605 142.498 82.4831 142.498C83.3085 142.498 83.9791 143.185 83.9791 144.023C83.9791 144.865 83.3085 145.553 82.4831 145.553V145.553ZM74.7845 142.193C73.9605 142.193 73.2871 141.506 73.2871 140.667C73.2871 139.826 73.9605 139.138 74.7845 139.138C75.6071 139.138 76.2805 139.826 76.2805 140.667C76.2805 141.506 75.6071 142.193 74.7845 142.193ZM66.3138 140.117C65.4885 140.117 64.8165 139.433 64.8165 138.591C64.8165 137.75 65.4885 137.065 66.3138 137.065C67.1365 137.065 67.8071 137.75 67.8071 138.591C67.8071 139.433 67.1365 140.117 66.3138 140.117ZM48.9871 141.203C48.1645 141.203 47.4911 140.518 47.4911 139.677C47.4911 138.837 48.1645 138.151 48.9871 138.151C49.8098 138.151 50.4831 138.837 50.4831 139.677C50.4831 140.518 49.8098 141.203 48.9871 141.203V141.203ZM58.0351 139.919C57.2111 139.919 56.5391 139.234 56.5391 138.394C56.5391 137.553 57.2111 136.867 58.0351 136.867C58.8578 136.867 59.5298 137.553 59.5298 138.394C59.5298 139.234 58.8578 139.919 58.0351 139.919V139.919ZM64.9911 143.269C65.0858 143.277 65.1778 143.283 65.2738 143.294C65.6698 143.334 66.0685 143.383 66.4698 143.446C66.5205 143.217 66.5685 143.007 66.6165 142.841L70.6991 140.203L73.1285 144.673C73.1965 144.698 73.1738 145.006 73.1125 145.378C73.3338 145.463 73.5511 145.555 73.7631 145.643C73.9685 145.307 74.1245 145.067 74.1671 145.086L78.5111 143.37L79.8631 147.529L80.8285 147.034L79.5725 142.777L84.7831 140.698L85.0698 145.253L86.3258 144.657L86.1525 140.455C85.6858 140.165 85.1951 139.865 84.6845 139.562L79.3805 141.687L77.8938 136.094C77.4685 135.911 77.0391 135.734 76.6031 135.562L71.1805 138.917L67.9151 133.157C67.4045 133.083 66.8951 133.021 66.3818 132.974L62.4045 137.234L59.0485 132.805C58.4898 132.823 57.9431 132.849 57.4125 132.886L53.6271 137.829L48.5938 134.187C48.0218 134.326 47.4738 134.469 46.9471 134.617L44.8485 139.411L41.6685 137.234L42.0551 138.917L44.3938 140.507L43.4725 142.395L44.7178 142.545L45.3151 141.135L49.7151 144.127C50.0831 144.015 50.4578 143.911 50.8418 143.81L53.8205 139.313L57.7445 142.654C58.1258 142.622 58.5085 142.597 58.8951 142.575L62.2125 138.917L64.8391 142.643C64.9165 142.649 64.9551 142.933 64.9911 143.269" fill="#3F1000"/>
<path fill-rule="evenodd" clip-rule="evenodd" d="M71.1535 127.76C71.1535 127.76 73.0482 125.719 72.1015 123.096C71.1535 120.471 70.2988 119.015 70.2988 119.015C70.2988 119.015 70.8575 118.56 71.1388 118.239C71.6108 117.708 71.5028 117.214 70.8682 117.458C69.8308 117.864 70.2988 118.624 68.6908 117.654C67.0815 116.682 64.8095 116.099 64.0508 113.67C63.2935 111.239 66.1348 107.938 68.6908 110.851C71.2482 113.766 69.3548 115.127 69.2588 115.224C68.8788 115.615 68.9588 114.867 68.0295 114.739C67.0975 114.61 66.8922 115.807 67.6482 116.099C68.4068 116.391 70.2068 116.195 70.4895 114.348C70.7735 112.503 70.1122 111.435 68.6908 110.172C67.2695 108.908 65.6228 109.148 64.8095 109.102C64.3748 109.078 64.5335 108.406 64.2362 108.274C63.8215 108.091 63.2522 109.156 63.3895 109.684C63.7722 111.162 63.5015 110.831 63.0962 111.222C62.6908 111.61 62.8682 114.104 63.8628 115.127C65.0295 116.334 62.6295 115.274 62.2508 116.391C62.0468 117 62.4095 117.26 62.9548 117.162C63.5015 117.06 63.9588 116.914 64.2402 116.875C66.5135 116.586 68.6908 118.138 69.7335 119.888C70.7735 121.638 71.5322 123.968 70.4895 126.11C69.4482 128.247 68.4068 128.831 65.9455 128.732C63.4842 128.635 61.4002 126.206 61.2122 123.776C61.0202 121.346 63.1988 119.015 64.4308 120.083C65.6615 121.151 66.7015 120.083 66.0402 119.015C65.3788 117.946 64.2402 117.848 63.0108 118.236C61.7802 118.624 60.3588 121.25 60.4522 122.804C60.5482 124.359 60.8308 125.914 60.8308 125.914C60.8308 125.914 59.1255 126.11 59.1255 127.176C59.1255 128.247 59.6002 129.023 60.4522 128.247C61.3042 127.468 61.0202 126.788 62.0642 127.76C63.1028 128.732 65.2815 129.511 67.3655 129.315C69.4508 129.12 69.7335 128.44 70.0162 128.732C70.2988 129.023 70.3482 130.19 71.6268 130.482C72.9042 130.774 73.3602 128.844 72.3842 129.023C71.4042 129.203 71.5015 128.148 71.1535 127.76Z" fill="#BF0014"/>
<path fill-rule="evenodd" clip-rule="evenodd" d="M62.8503 121.346C63.2556 121.594 63.6596 121.656 64.2489 121.346C64.2489 121.346 63.5903 122.128 63.1529 122.032C62.7169 121.934 62.4836 121.472 62.8503 121.346Z" fill="#EC1C24"/>
<path fill-rule="evenodd" clip-rule="evenodd" d="M65.2005 114.016C65.4712 113.958 65.8818 113.849 66.3765 114.112C66.3765 114.112 65.8845 113.422 65.4565 113.437C65.0272 113.456 64.9325 114.07 65.2005 114.016Z" fill="#EC1C24"/>
<path fill-rule="evenodd" clip-rule="evenodd" d="M69.1159 114.094C68.8906 114.047 68.5492 113.955 68.1399 114.172C68.1399 114.172 68.5466 113.599 68.9039 113.615C69.2586 113.627 69.3399 114.14 69.1159 114.094Z" fill="#EC1C24"/>
<path fill-rule="evenodd" clip-rule="evenodd" d="M65.1172 112.159C65.3906 112.192 65.7839 112.219 66.1719 112.628C66.1719 112.628 65.7279 111.558 65.3172 111.435C64.9079 111.315 64.8439 112.123 65.1172 112.159Z" fill="#EC1C24"/>
<path fill-rule="evenodd" clip-rule="evenodd" d="M68.6224 112.656C68.3491 112.69 68.0784 112.968 67.6904 113.375C67.6904 113.375 67.8264 112.12 68.4224 111.935C69.0158 111.75 68.8958 112.623 68.6224 112.656Z" fill="#EC1C24"/>
<path fill-rule="evenodd" clip-rule="evenodd" d="M67.4283 111.813C67.2043 112.091 67.155 112.63 67.095 113.414C67.095 113.414 66.3163 111.941 66.7256 111.214C67.1336 110.49 67.6536 111.534 67.4283 111.813Z" fill="#EC1C24"/>
<path fill-rule="evenodd" clip-rule="evenodd" d="M62.888 122.969C63.8253 122.851 64.2213 122.485 64.7653 121.771C64.7653 121.771 64.504 123.171 63.5506 123.542C62.5933 123.914 62.304 123.242 62.888 122.969Z" fill="#EC1C24"/>
<path fill-rule="evenodd" clip-rule="evenodd" d="M63.797 124.698C64.905 124.367 65.381 122.998 65.7223 122.165C65.7223 122.165 65.469 124.521 64.5823 125.198C63.697 125.875 62.689 125.029 63.797 124.698Z" fill="#EC1C24"/>
<path fill-rule="evenodd" clip-rule="evenodd" d="M65.3464 125.865C66.2744 125.187 66.253 123.789 66.2864 122.922C66.2864 122.922 66.853 125.133 66.253 126.047C65.6544 126.961 64.4197 126.542 65.3464 125.865Z" fill="#EC1C24"/>
<path fill-rule="evenodd" clip-rule="evenodd" d="M68.3763 126.333C67.4589 126.175 67.0283 125.128 66.7256 124.497C66.7256 124.497 67.0016 126.344 67.7456 126.803C68.4936 127.257 69.2923 126.492 68.3763 126.333Z" fill="#EC1C24"/>
<path fill-rule="evenodd" clip-rule="evenodd" d="M69.0795 124.529C68.1542 124.617 67.4702 123.723 67.0168 123.195C67.0168 123.195 67.7568 124.906 68.5942 125.146C69.4288 125.389 70.0035 124.438 69.0795 124.529Z" fill="#EC1C24"/>
<path fill-rule="evenodd" clip-rule="evenodd" d="M68.8671 121.995C68.0271 122.552 66.8444 121.599 66.3137 121.153C66.3137 121.153 67.3804 123.213 68.8511 123.125C70.3244 123.033 69.7044 121.437 68.8671 121.995Z" fill="#EC1C24"/>
<path fill-rule="evenodd" clip-rule="evenodd" d="M68.7513 120.523C68.2286 120.87 67.4926 120.275 67.1606 119.999C67.1606 119.999 67.8273 121.283 68.742 121.226C69.658 121.169 69.2726 120.174 68.7513 120.523Z" fill="#EC1C24"/>
<path d="M40.4777 135.828C40.4777 135.828 39.4124 132.188 37.6377 131.093" stroke="#034EA1" stroke-width="1.32267" stroke-miterlimit="2.613"/>
<path fill-rule="evenodd" clip-rule="evenodd" d="M78.0521 133.383L74.2055 110.82C72.8841 110.744 61.7295 105.729 60.5548 104.419C59.3881 103.637 59.6948 104.956 59.7935 105.023L60.8055 105.716L52.3801 130.625L57.5215 129.847L63.5041 107.013C66.0041 108.281 68.3348 109.377 71.0028 110.557L73.7535 131.628L78.0521 133.383Z" fill="#BF0014"/>
<path fill-rule="evenodd" clip-rule="evenodd" d="M59.7928 105.024L60.8061 105.717L52.3795 130.625L49.9915 130.917L51.1128 113.726C55.1528 112.985 60.0608 105.209 59.7928 105.024Z" fill="#EC1C24"/>
<path d="M59.7928 105.024L60.8061 105.717L52.3795 130.625L49.9915 130.917L51.1128 113.726C55.1528 112.985 60.0608 105.209 59.7928 105.024Z" stroke="#034EA1" stroke-width="0.756" stroke-miterlimit="2.613"/>
<path d="M53.315 128.357L50.187 128.833" stroke="#034EA1" stroke-width="0.756" stroke-miterlimit="2.613"/>
<path d="M53.8933 125.862L50.4199 126.575" stroke="#034EA1" stroke-width="0.756" stroke-miterlimit="2.613"/>
<path fill-rule="evenodd" clip-rule="evenodd" d="M73.8931 110.365C69.4425 108.747 64.8371 106.685 60.3838 103.709L60.8425 101.279L62.5225 102.769L63.1865 102.209L65.7278 104.883L66.6425 104.334L68.8571 106.605L69.6185 106.058L72.3838 107.742L72.9025 107.466C72.8251 107.466 73.3718 110.13 73.8931 110.365Z" fill="#3F1000"/>
<path d="M82.918 130.06C82.918 130.06 80.1686 128.365 76.762 127.475" stroke="#034EA1" stroke-width="1.32267" stroke-miterlimit="2.613"/>
<path fill-rule="evenodd" clip-rule="evenodd" d="M105.562 113.727C104.266 113.724 103.608 113.867 103.608 113.867C103.754 114.311 103.988 114.833 104.7 115.672C104.85 115.036 105.06 114.412 105.562 113.727ZM102.757 109.703C102.785 111.027 102.938 111.699 102.938 111.699C103.368 111.536 103.873 111.287 104.681 110.541C104.054 110.404 103.438 110.203 102.757 109.703ZM98.8811 112.552C100.176 112.604 100.842 112.487 100.842 112.487C100.709 112.036 100.493 111.508 99.8131 110.643C99.6384 111.273 99.4091 111.888 98.8811 112.552ZM101.618 116.568C101.564 115.245 101.398 114.576 101.398 114.576C100.969 114.748 100.469 115.011 99.6797 115.771C100.308 115.899 100.926 116.084 101.618 116.568ZM102.838 117.76C102.136 117.932 101.213 118.047 100.512 118.216C100.178 118.047 99.8464 118.047 99.5144 117.875C98.9957 117.041 98.2571 115.811 97.7397 114.975C99.1797 114.899 99.7357 114.199 100.622 113.667L100.456 113.476L97.5731 113.836C97.4437 113.229 97.3051 112.148 97.2411 111.847C97.1757 111.541 97.0757 110.481 98.2931 110.084C99.5144 109.685 100.364 108.073 100.456 108.831C100.549 109.588 101.213 110.672 101.73 111.62L101.94 111.448L101.508 108.205C102.47 108.151 103.65 108.091 104.613 108.036C105.257 109.079 105.794 110.063 106.441 111.107C105.405 111.529 104.432 111.708 103.296 112.765L103.393 112.927C105.018 112.888 105.924 112.625 107.052 112.36V114.177C107.052 114.177 107.605 115.713 106.773 116.055C105.941 116.396 104.78 117.213 104.169 117.648C104.002 117.003 103.17 115.355 102.616 114.18L102.353 114.289L102.838 117.76ZM98.0011 104.753L96.9304 105.721C96.9304 105.721 96.5531 105.011 96.8677 104.044C97.1824 103.076 98.3117 102.303 98.3117 102.303C98.3117 102.303 97.8757 100.56 98.2517 99.2052C98.6277 97.8519 100.201 96.3026 101.836 96.3666C103.469 96.4319 105.104 97.2052 104.977 97.0759C104.853 96.9479 105.482 94.7532 106.801 94.3026C108.121 93.8492 109.502 94.7532 109.693 96.1719C109.881 97.5906 109.441 98.2372 108.436 98.1746C107.43 98.1092 107.116 97.2052 107.24 96.6252C107.368 96.0439 107.304 95.9146 108.057 95.9786C108.813 96.0439 108.688 95.2706 107.618 95.1412C106.549 95.0106 106.045 96.1719 106.361 97.3986C106.676 98.6252 107.554 100.817 107.24 101.915C106.926 103.011 106.234 104.172 106.234 104.172C106.234 104.172 105.165 101.268 104.662 101.011C104.161 100.753 103.757 100.601 103.469 101.656C103.302 102.268 101.96 101.464 102.21 100.625C102.462 99.7866 103.594 99.3332 102.966 98.3026C102.338 97.2706 100.39 97.6559 99.6971 98.3666C99.0064 99.0759 98.6304 100.948 99.8211 101.787C100.473 102.243 101.368 102.347 101.345 103.513C101.317 104.68 100.456 104.839 99.8211 104.753C98.3757 104.56 98.1891 104.56 98.0011 104.753ZM100.452 123.579L99.7904 124.461C100.232 124.823 100.737 124.915 101.044 125.547C100.318 125.479 99.8557 125.524 99.1291 125.817C98.4011 126.112 99.9224 126.7 100.185 127.651C100.452 128.599 100.978 129.005 101.574 129.005C102.494 129.005 101.181 131.844 99.5917 131.651C98.0011 131.459 98.3424 130.812 98.5331 130.091C98.7304 129.347 98.4677 127.784 97.4757 127.445C96.4837 127.107 97.7877 128.696 96.6824 128.937C95.7571 129.141 95.3624 128.667 95.6251 127.175C95.8891 125.683 96.0904 125.547 97.0811 124.735C98.0717 123.92 98.5331 122.833 98.5331 122.833L97.7424 121.751C97.7424 121.751 96.8824 121.341 96.0237 122.495C95.1637 123.648 94.2384 125.817 93.9731 127.513C93.7091 129.208 91.9237 131.041 90.6011 130.975C89.2811 130.907 88.7517 129.956 88.6197 128.869C88.4877 127.784 88.8824 127.445 89.4131 127.513C89.9424 127.584 90.2717 127.989 90.2717 127.989C90.2717 127.989 89.8757 129.685 90.4704 129.956C91.0651 130.227 92.1891 130.159 91.9904 128.396C91.7931 126.633 91.3291 126.497 91.7264 125.751C92.1224 125.005 93.1131 125.208 93.1797 125.953C93.2411 126.633 94.2384 124.735 93.3771 124.123C92.5211 123.513 91.5224 123.664 90.8677 125.817C90.5064 127.008 90.9117 126.429 89.6104 126.088C88.3104 125.748 87.1664 127.311 87.3651 129.479C87.5624 131.651 88.6864 132.128 89.4131 132.331C90.1411 132.533 91.9904 132.196 93.0477 131.041C94.1037 129.888 94.3704 129.685 94.3704 129.685C94.3704 129.685 95.2957 132.125 96.8824 132.669C98.4677 133.211 98.6637 133.279 100.185 132.805C101.705 132.331 102.42 130.924 102.762 129.685C102.894 129.211 104.284 128.328 104.086 127.243C104.001 126.771 103.717 126.076 103.82 125.648C103.952 125.101 104.325 124.924 103.954 124.735C102.832 124.735 101.97 125.479 101.97 125.479C101.562 124.641 101.034 124.055 100.452 123.579" fill="#3FE6FF"/>
<path fill-rule="evenodd" clip-rule="evenodd" d="M105.529 105.44C105.894 104.878 107.722 105.164 107.321 106.18C106.921 107.192 106.154 107.964 104.911 107.828C103.67 107.692 103.357 106.31 103.606 105.524C103.851 104.738 104.198 104.352 104.809 104.62C105.419 104.891 105.529 105.44 105.529 105.44Z" fill="#EC1C24"/>
<path fill-rule="evenodd" clip-rule="evenodd" d="M98.2929 121.018C97.7849 121.456 96.2089 120.657 96.8383 119.729C97.4689 118.805 98.3836 118.385 99.5383 118.873C100.693 119.357 100.55 120.873 100.161 121.49C99.7716 122.109 99.3649 122.445 98.8529 122.01C98.3396 121.578 98.2929 121.018 98.2929 121.018Z" fill="#EC1C24"/>
<path d="M104.401 79.5626C103.84 79.7999 103.597 79.7839 101.977 81.2452C100.358 82.7052 97.5277 87.6332 97.0264 93.0546" stroke="#034EA1" stroke-width="1.13333" stroke-miterlimit="2.613"/>
<path d="M107.186 77.8803C107.186 77.8803 107.635 79.9243 106.991 80.3856C106.349 80.8496 104.549 80.9136 104.549 79.8589C104.549 79.5749 104.421 79.1376 104.145 79.3643" stroke="#034EA1" stroke-width="1.13333" stroke-miterlimit="2.613"/>
<path d="M107.25 80.7162L104.098 83.1588C104.098 83.1588 104.819 83.1508 104.506 83.4682C104.103 83.8748 103.175 84.1042 103.393 84.8068C103.777 86.0602 104.973 85.9615 105.963 85.1375L108.986 82.6308C109.563 82.0362 108.021 80.1228 107.25 80.7162Z" stroke="#034EA1" stroke-width="1.13333" stroke-miterlimit="2.613"/>
<path d="M109.949 85.0052L107.506 86.9199C104.862 88.9919 103.845 86.4785 105.578 85.2679L108.985 82.8932C109.564 82.2999 110.786 84.2812 109.949 85.0052Z" stroke="#034EA1" stroke-width="1.13333" stroke-miterlimit="2.613"/>
<path d="M109.081 85.6875L106.863 87.2501C104.482 88.9275 106.234 90.0155 107.25 89.4275L110.209 87.7115C110.942 86.9581 110.423 84.7395 109.081 85.6875Z" stroke="#034EA1" stroke-width="1.13333" stroke-miterlimit="2.613"/>
<path d="M110.431 90.5027L108.47 91.2733C106.491 92.0547 106.235 90.016 107.25 89.4267L110.208 87.7107C110.943 86.9587 111.076 90.248 110.431 90.5027Z" stroke="#034EA1" stroke-width="1.13333" stroke-miterlimit="2.613"/>
<path fill-rule="evenodd" clip-rule="evenodd" d="M103.457 85.336C103.457 85.336 103.134 85.7974 103.326 86.8547L102.556 88.5027L102.841 88.5387L104.613 85.8627L103.457 85.336Z" fill="#BF0014"/>
<path d="M108.47 91.2083C108.47 91.2083 102.814 94.5723 100.498 93.6483C98.1834 92.727 97.6061 91.1403 97.6674 89.6243" stroke="#034EA1" stroke-width="1.13333" stroke-miterlimit="2.613"/>
<path d="M108.406 91.2084C108.47 90.5257 108.344 89.847 107.892 89.1644" stroke="#034EA1" stroke-width="0.642667" stroke-miterlimit="2.613"/>
<path d="M107.764 89.2943C107.828 88.6116 107.186 87.7316 106.735 87.6463" stroke="#034EA1" stroke-width="0.642667" stroke-miterlimit="2.613"/>
<path d="M106.863 87.4479C106.927 86.7652 106.093 85.6879 105.641 85.5985" stroke="#034EA1" stroke-width="0.642667" stroke-miterlimit="2.613"/>
<path d="M106.156 85.0052C106.223 84.3226 105.258 83.5106 104.806 83.4212" stroke="#034EA1" stroke-width="0.642667" stroke-miterlimit="2.613"/>
<path fill-rule="evenodd" clip-rule="evenodd" d="M81.0884 128.292C81.0884 128.292 79.9564 127.912 79.0164 127.31C78.379 126.901 78.6964 126.573 79.0164 126.492C80.0857 126.901 80.7817 127.39 81.0884 128.292ZM89.571 119.357L88.231 121.453C88.0137 121.292 87.339 120.432 87.2137 119.51L86.7524 116.169L90.1284 114.972C90.9417 114.685 91.095 114.797 91.827 115.156L90.8217 117.396C90.0177 117.466 89.1564 117.482 88.4124 117.253C89.1164 117.71 89.5017 118.412 89.571 119.357ZM83.5604 126.164L81.8057 127.718C81.6377 127.502 81.143 126.669 81.3417 125.761L82.107 122.32L85.4697 122.156C86.3324 122.114 86.4177 122.368 87.0284 122.914L85.335 124.633L82.983 123.63L83.5604 126.164ZM92.8697 112.141L92.2617 114.43C92.0057 114.346 90.3724 113.628 90.0897 112.745L89.211 110.024L92.0444 107.802C92.2257 107.658 93.2044 107.508 94.0084 107.612L93.4497 109.877C92.6617 110.336 91.879 110.552 91.0924 110.524C91.871 110.873 92.4057 111.472 92.8697 112.141ZM94.503 104.054L94.2484 106.292C93.9857 106.25 92.3004 105.776 91.843 104.969L90.5644 102.706L92.8764 100.114C93.0297 99.9423 94.163 100.044 94.8817 99.8303L94.6724 101.849C93.9644 102.425 92.7497 102.521 91.9684 102.617C92.791 102.836 93.883 103.586 94.503 104.054ZM95.1524 94.909L94.8977 97.325C94.6337 97.2836 94.0417 97.5516 93.439 96.669L91.335 93.5756L93.6204 91.417C93.787 91.261 94.7204 91.0623 95.5297 91.0396L95.323 92.8823C94.615 93.4583 94.0484 93.8023 93.267 93.901C93.855 94.2423 94.5324 94.1983 95.1524 94.909ZM96.643 87.0703L95.999 89.097C95.747 88.9943 94.7257 88.373 94.315 87.541L92.9337 84.7343L96.3897 83.0463C96.5924 82.9476 97.6564 83.0756 98.3257 83.1516L97.6417 84.9743C96.827 85.3743 95.6417 85.5516 94.859 85.469C95.6164 85.8703 96.143 86.4716 96.643 87.0703ZM100.422 80.3516L99.2244 81.701C99.2244 81.701 97.8324 80.5516 97.7924 79.6383C97.7537 78.7236 97.947 77.0983 97.9097 76.8196C97.871 76.5436 98.7977 76.265 99.495 76.4636C100.19 76.6636 100.115 79.2423 100.422 80.3516ZM81.499 128.792C81.499 128.792 89.6324 123.149 92.711 115.289C95.7857 107.432 95.283 97.2503 95.7857 93.8156C96.2857 90.3823 97.5857 84.0103 102.582 78.8183L99.6377 76.4476L98.9537 75.8183L97.3764 75.7636L97.1604 79.625L94.7364 80.445L95.515 82.8903L92.0657 84.5623L94.019 88.0463L91.6417 89.037L92.811 91.4476L90.5577 93.417L92.407 96.5076L90.4337 98.0183L92.1164 100.018L89.6804 102.482L90.9284 104.87L89.211 106.018L90.6017 108.062L88.527 109.756L89.1297 112.649C88.363 112.934 87.831 112.917 87.3617 113.382L88.1924 115.19L85.771 115.81L86.4764 118.71L83.8057 118.778L84.511 121.51L81.6724 121.724L80.8537 124.713L78.5577 124.12L77.9497 127.773L81.499 128.792Z" fill="#BF0014"/>
<path d="M77.0129 122.844C77.7449 122.844 85.1903 117.388 86.5436 111.464C87.8996 105.541 88.4516 95.4611 89.5009 89.3571C90.5503 83.2558 94.7343 75.7811 97.6729 73.8984" stroke="#034EA1" stroke-width="0.945333" stroke-miterlimit="2.613"/>
<path d="M76.4778 121.06C78.9898 119.981 84.9844 114.412 85.9351 108.656C86.8844 102.901 86.7138 96.4199 87.3618 90.8666" stroke="#034EA1" stroke-width="0.945333" stroke-miterlimit="2.613"/>
<path d="M85.0561 111.617C83.3174 110.552 81.9587 107.593 82.1854 104.713C82.4534 101.323 84.4507 98.456 86.9374 98.18" stroke="#034EA1" stroke-width="1.32267" stroke-miterlimit="2.613"/>
<path fill-rule="evenodd" clip-rule="evenodd" d="M86.7279 100.294C86.5772 103.128 86.3759 105.972 85.9345 108.656C85.8759 109.005 85.8012 109.352 85.7065 109.696C84.8719 108.433 84.3719 106.726 84.5172 105.052C84.6852 103.13 85.5225 101.39 86.7279 100.294Z" fill="#EC1C24"/>
<path d="M86.7279 100.294C86.5772 103.128 86.3759 105.972 85.9345 108.656C85.8759 109.005 85.8012 109.352 85.7065 109.696C84.8719 108.433 84.3719 106.726 84.5172 105.052C84.6852 103.13 85.5225 101.39 86.7279 100.294Z" stroke="#034EA1" stroke-width="0.945333" stroke-miterlimit="2.613"/>
<path fill-rule="evenodd" clip-rule="evenodd" d="M83.1706 94.2474L83.8399 95.4554L82.5226 96.25C82.9026 96.7967 83.4399 97.1927 84.0306 97.2994C85.1799 97.502 86.0386 96.654 86.0386 95.2554C86.0386 94.87 85.9692 94.4927 85.8426 94.1434L84.6039 94.9527L84.0132 93.8874C84.8892 93.5674 85.8172 93.3954 86.7746 93.3954C86.8919 93.3954 87.0066 93.398 87.1212 93.4034C87.1826 92.5887 87.2546 91.786 87.3452 90.9994C86.9892 90.9634 86.6252 90.942 86.2612 90.942C79.5386 90.942 74.0532 97.39 74.0532 105.294C74.0532 110.769 76.6879 115.547 80.5412 117.963C81.2572 117.242 81.9799 116.433 82.6532 115.553C81.3532 114.797 80.2119 113.698 79.3119 112.354L80.3626 111.649L81.2546 112.625C81.7132 112.253 81.9306 111.93 81.9946 111.387C82.1172 110.333 81.3359 109.597 80.1172 109.665C79.7826 109.682 79.4586 109.766 79.1572 109.898L79.8879 110.982L78.8799 111.659C78.2079 110.487 77.7106 109.162 77.4292 107.734L78.6679 107.651L78.9946 109.039C79.6119 108.941 79.9799 108.755 80.3172 108.289C80.9759 107.375 80.7426 106.231 79.5786 105.638C79.2559 105.477 78.8026 105.414 78.4546 105.378L78.5746 106.775L77.2852 106.862C77.2092 106.269 77.1679 105.659 77.1679 105.039C77.1679 104.321 77.2226 103.614 77.3266 102.933L78.7386 103.065L78.4986 104.611C79.1532 104.693 79.6852 104.643 80.1586 104.266C81.0799 103.537 81.1492 102.351 80.1372 101.411C79.8572 101.151 79.5359 100.953 79.1959 100.813L78.8866 102.151L77.4959 102.026C77.8599 100.39 78.5092 98.8954 79.3772 97.6247L80.4906 98.554L79.7412 99.8154C79.7799 99.9794 80.4879 100.338 80.8666 100.278C82.0292 100.159 82.9239 99.1047 82.5559 97.758C82.4559 97.386 82.2519 96.9687 82.0332 96.666L81.0932 97.8594L79.9466 96.8647C80.8572 95.7447 81.9532 94.8487 83.1706 94.2474Z" fill="#BF0014"/>
<path fill-rule="evenodd" clip-rule="evenodd" d="M84.6315 112.469C84.6315 112.469 82.9328 112.135 82.2488 113.154C81.8915 113.682 83.4862 114.326 83.3902 114.422L84.6315 112.469Z" fill="#BF0014"/>
<path fill-rule="evenodd" clip-rule="evenodd" d="M98.095 60.5183C98.095 59.3103 99.1403 58.3249 100.422 58.3249C101.702 58.3249 102.746 59.3103 102.746 60.5183C102.746 61.7263 101.702 62.7116 100.422 62.7116C99.1403 62.7116 98.095 61.7263 98.095 60.5183Z" fill="#3FE6FF"/>
<path fill-rule="evenodd" clip-rule="evenodd" d="M103.785 54.7527C105.037 54.7527 106.061 55.8207 106.061 57.1274C106.061 58.4354 105.037 59.5007 103.785 59.5007C102.532 59.5007 101.508 58.4354 101.508 57.1274C101.508 55.8207 102.532 54.7527 103.785 54.7527Z" fill="#3FE6FF"/>
<path fill-rule="evenodd" clip-rule="evenodd" d="M109.671 60.2136C109.671 61.4189 108.627 62.4069 107.345 62.4069C106.064 62.4069 105.021 61.4189 105.021 60.2136C105.021 59.0056 106.064 58.0189 107.345 58.0189C108.627 58.0189 109.671 59.0056 109.671 60.2136Z" fill="#3FE6FF"/>
<path fill-rule="evenodd" clip-rule="evenodd" d="M104.181 66.0365C102.997 66.0365 102.033 64.9712 102.033 63.6645C102.033 62.3565 102.997 61.2912 104.181 61.2912C105.364 61.2912 106.326 62.3565 106.326 63.6645C106.326 64.9712 105.364 66.0365 104.181 66.0365Z" fill="#3FE6FF"/>
<path d="M72.4139 182.56C72.1766 172.875 71.5126 162.369 69.9312 157.765C68.3512 153.159 65.6472 148.479 59.5326 150.047C53.4152 151.617 49.5486 157.099 48.9592 158.415" stroke="#034EA1" stroke-width="1.512" stroke-miterlimit="2.613"/>
<path d="M73.961 151.958C73.961 151.958 68.2904 149.237 64.5504 148.742C60.8117 148.245 52.9704 148 49.353 149.98" stroke="#034EA1" stroke-width="1.32267" stroke-miterlimit="2.613"/>
<path d="M77.457 149.732C77.457 149.732 69.6157 145.768 64.1904 145.15C58.761 144.532 53.2117 144.656 48.6277 146.388" stroke="#034EA1" stroke-width="1.32267" stroke-miterlimit="2.613"/>
<path d="M79.509 148.495C79.509 148.495 71.9077 143.914 65.273 143.295C58.6397 142.675 52.3677 143.047 47.7837 144.779" stroke="#034EA1" stroke-width="1.32267" stroke-miterlimit="2.613"/>
<path d="M68.5664 154.675C69.9024 153.849 79.2797 149.235 88.2184 143.432C99.7117 135.975 111.289 125.38 111.289 125.169" stroke="#034EA1" stroke-width="1.32267" stroke-miterlimit="2.613"/>
<path d="M46.6092 156.013C46.6092 156.013 49.5506 153.844 49.1292 149.034C48.7052 144.224 45.3106 142.68 43.5039 142.406" stroke="#034EA1" stroke-width="1.32267" stroke-miterlimit="2.613"/>
<path d="M77.2395 130.245C83.3062 132.63 88.9462 136.237 93.0648 139.773" stroke="#034EA1" stroke-width="1.32267" stroke-miterlimit="2.613"/>
<path fill-rule="evenodd" clip-rule="evenodd" d="M52.3282 182.292L41.8815 135.232L35.5388 136.422L50.4468 182.034L52.3282 182.292Z" fill="#3F1000"/>
<path d="M52.3282 182.292L41.8815 135.232L35.5388 136.422L50.4468 182.034L52.3282 182.292Z" stroke="#034EA1" stroke-width="1.13333" stroke-miterlimit="2.613"/>
<path fill-rule="evenodd" clip-rule="evenodd" d="M46.4233 182.38L36.4646 152.979L40.7313 151.667L50.6713 182.126L46.4233 182.38Z" fill="#EC1C24"/>
<path d="M46.4233 182.38L36.4646 152.979L40.7313 151.667L50.6713 182.126L46.4233 182.38Z" stroke="#034EA1" stroke-width="1.13333" stroke-miterlimit="2.613"/>
<path fill-rule="evenodd" clip-rule="evenodd" d="M75.7889 131.331C75.1209 131.331 74.5796 130.776 74.5796 130.093C74.5796 129.412 75.1209 128.859 75.7889 128.859C76.4583 128.859 76.9996 129.412 76.9996 130.093C76.9996 130.776 76.4583 131.331 75.7889 131.331Z" fill="white"/>
<path fill-rule="evenodd" clip-rule="evenodd" d="M56.0534 128.964C56.7228 128.964 57.2641 128.409 57.2641 127.726C57.2641 127.045 56.7228 126.492 56.0534 126.492C55.3841 126.492 54.8428 127.045 54.8428 127.726C54.8428 128.409 55.3841 128.964 56.0534 128.964Z" fill="white"/>
<path fill-rule="evenodd" clip-rule="evenodd" d="M75.1549 127.425C74.5189 127.425 74.0029 126.897 74.0029 126.247C74.0029 125.599 74.5189 125.07 75.1549 125.07C75.7896 125.07 76.3096 125.599 76.3096 126.247C76.3096 126.897 75.7896 127.425 75.1549 127.425Z" fill="white"/>
<path fill-rule="evenodd" clip-rule="evenodd" d="M57.345 125.057C57.9623 125.057 58.465 124.459 58.465 123.724C58.465 122.989 57.9623 122.391 57.345 122.391C56.7303 122.391 56.2263 122.989 56.2263 123.724C56.2263 124.459 56.7303 125.057 57.345 125.057Z" fill="white"/>
<path fill-rule="evenodd" clip-rule="evenodd" d="M74.6353 123.516C74.0327 123.516 73.542 123.013 73.542 122.398C73.542 121.781 74.0327 121.281 74.6353 121.281C75.238 121.281 75.7273 121.781 75.7273 122.398C75.7273 123.013 75.238 123.516 74.6353 123.516Z" fill="white"/>
<path fill-rule="evenodd" clip-rule="evenodd" d="M58.1119 121.443C58.7146 121.443 59.2039 120.875 59.2039 120.18C59.2039 119.484 58.7146 118.916 58.1119 118.916C57.5092 118.916 57.0186 119.484 57.0186 120.18C57.0186 120.875 57.5092 121.443 58.1119 121.443Z" fill="white"/>
<path fill-rule="evenodd" clip-rule="evenodd" d="M73.9415 119.495C73.4642 119.495 73.0735 119.099 73.0735 118.61C73.0735 118.123 73.4642 117.724 73.9415 117.724C74.4202 117.724 74.8108 118.123 74.8108 118.61C74.8108 119.099 74.4202 119.495 73.9415 119.495Z" fill="white"/>
<path fill-rule="evenodd" clip-rule="evenodd" d="M59.0833 117.956C59.5753 117.956 59.9793 117.492 59.9793 116.922C59.9793 116.349 59.5753 115.885 59.0833 115.885C58.5899 115.885 58.1873 116.349 58.1873 116.922C58.1873 117.492 58.5899 117.956 59.0833 117.956Z" fill="white"/>
<path fill-rule="evenodd" clip-rule="evenodd" d="M73.4804 116.182C73.0631 116.182 72.7271 115.836 72.7271 115.412C72.7271 114.988 73.0631 114.644 73.4804 114.644C73.8951 114.644 74.2311 114.988 74.2311 115.412C74.2311 115.836 73.8951 116.182 73.4804 116.182Z" fill="white"/>
<path fill-rule="evenodd" clip-rule="evenodd" d="M60.0767 114.768C60.5461 114.768 60.9261 114.315 60.9261 113.758C60.9261 113.198 60.5461 112.744 60.0767 112.744C59.6074 112.744 59.2261 113.198 59.2261 113.758C59.2261 114.315 59.6074 114.768 60.0767 114.768Z" fill="white"/>
<path fill-rule="evenodd" clip-rule="evenodd" d="M60.78 111.477C61.168 111.477 61.4827 111.125 61.4827 110.693C61.4827 110.261 61.168 109.909 60.78 109.909C60.3894 109.909 60.0747 110.261 60.0747 110.693C60.0747 111.125 60.3894 111.477 60.78 111.477Z" fill="white"/>
<path fill-rule="evenodd" clip-rule="evenodd" d="M61.8606 108.281C62.1806 108.281 62.442 107.959 62.442 107.557C62.442 107.156 62.1806 106.831 61.8606 106.831C61.542 106.831 61.2793 107.156 61.2793 107.557C61.2793 107.959 61.542 108.281 61.8606 108.281Z" fill="white"/>
<path d="M91.1901 141.305C91.1901 141.305 78.8528 130.846 65.4661 130.031C52.0821 129.211 44.9435 132.755 39.8701 134.49" stroke="#034EA1" stroke-width="1.32267" stroke-miterlimit="2.613"/>
<path d="M103.807 56.7213V63.9266" stroke="#034EA1" stroke-width="0.756" stroke-miterlimit="2.613"/>
<path d="M107.337 60.3256H100.277" stroke="#034EA1" stroke-width="0.756" stroke-miterlimit="2.613"/>
<path fill-rule="evenodd" clip-rule="evenodd" d="M103.949 58.8828C104.713 58.8828 105.336 59.5161 105.336 60.2975C105.336 61.0761 104.713 61.7081 103.949 61.7081C103.185 61.7081 102.565 61.0761 102.565 60.2975C102.565 59.5161 103.185 58.8828 103.949 58.8828Z" fill="#EC1C24"/>
<path d="M103.949 58.8828C104.713 58.8828 105.336 59.5161 105.336 60.2975C105.336 61.0761 104.713 61.7081 103.949 61.7081C103.185 61.7081 102.565 61.0761 102.565 60.2975C102.565 59.5161 103.185 58.8828 103.949 58.8828Z" stroke="#034EA1" stroke-width="0.756" stroke-miterlimit="2.613"/>
<path d="M133.85 196.979C133.85 200.843 130.717 203.977 126.852 203.977" stroke="#EB008B" stroke-width="0.333333" stroke-miterlimit="2.613"/>
<path d="M126.852 203.977H7.89966" stroke="#EB008B" stroke-width="0.333333" stroke-miterlimit="2.613"/>
<path d="M7.89981 203.977C4.03581 203.977 0.903809 200.843 0.903809 196.979" stroke="#EB008B" stroke-width="0.333333" stroke-miterlimit="2.613"/>
<path d="M0.903564 196.979V8.05527" stroke="#EB008B" stroke-width="0.333333" stroke-miterlimit="2.613"/>
<path d="M0.903564 8.05469C0.903564 4.18935 4.03556 1.05735 7.89956 1.05735" stroke="#EB008B" stroke-width="0.333333" stroke-miterlimit="2.613"/>
<path d="M7.89966 1.05737H126.852" stroke="#EB008B" stroke-width="0.333333" stroke-miterlimit="2.613"/>
<path d="M126.852 1.05735C130.717 1.05735 133.85 4.18935 133.85 8.05469" stroke="#EB008B" stroke-width="0.333333" stroke-miterlimit="2.613"/>
<path d="M133.85 8.05466V196.979" stroke="#EB008B" stroke-width="0.333333" stroke-miterlimit="2.613"/>
<path fill-rule="evenodd" clip-rule="evenodd" d="M14.5924 12.961C12.7444 12.961 11.2484 14.4076 11.2484 16.1956V22.161C11.5818 22.2516 11.9244 22.3596 12.2684 22.489C15.1564 23.5703 16.8364 25.6516 17.9364 27.229V16.1956C17.9364 14.4076 16.4404 12.961 14.5924 12.961ZM14.5924 31.1796C15.4658 31.1796 16.2618 30.8516 16.8578 30.3196C16.0844 29.2503 15.6031 28.2036 14.6684 27.229C13.4538 25.9663 12.3324 25.3223 11.2484 24.9143V27.945C11.2484 29.7316 12.7444 31.1796 14.5924 31.1796ZM21.4911 32.9063C21.4911 32.9063 19.9391 33.1383 18.4831 32.1276C17.4471 33.0543 16.0684 33.6196 14.5618 33.6196C11.3244 33.6196 8.69777 31.0196 8.69777 27.8143V24.3343C7.92044 24.2943 7.20044 24.3156 7.20044 24.3156V21.749C7.20044 21.749 7.78844 21.685 8.69777 21.733V16.1903C8.69777 12.985 11.3244 10.385 14.5618 10.385C17.7991 10.385 20.4244 12.985 20.4244 16.1903V27.8143C20.4244 28.5743 20.2751 29.2996 20.0071 29.9636C20.4578 30.325 20.9364 30.5543 21.4911 30.6356V32.9063Z" fill="#EC1C24"/>
<path fill-rule="evenodd" clip-rule="evenodd" d="M120.16 192.07C122.008 192.07 123.507 190.622 123.507 188.836V182.868C123.171 182.778 122.825 182.672 122.484 182.542C119.596 181.461 117.916 179.38 116.816 177.802V188.836C116.816 190.622 118.312 192.07 120.16 192.07ZM120.16 173.854C119.284 173.854 118.491 174.18 117.895 174.713C118.669 175.781 119.149 176.828 120.081 177.802C121.296 179.068 122.42 179.709 123.507 180.117V177.086C123.507 175.302 122.008 173.854 120.16 173.854V173.854ZM113.261 172.125C113.261 172.125 114.813 171.896 116.269 172.906C117.307 171.977 118.684 171.414 120.191 171.414C123.431 171.414 126.056 174.013 126.056 177.218V180.698C126.832 180.737 127.552 180.716 127.552 180.716V183.281C127.552 183.281 126.961 183.346 126.056 183.297V188.841C126.056 192.046 123.431 194.646 120.191 194.646C116.956 194.646 114.329 192.046 114.329 188.841V177.218C114.329 176.458 114.477 175.734 114.745 175.068C114.295 174.706 113.816 174.48 113.261 174.396V172.125Z" fill="#EC1C24"/>
<path d="M24.3203 182.146V22.062H110.226V182.146H24.3203ZM23.639 183.503H111.59V20.706H22.959V183.503H23.639Z" fill="#BF0014"/>
</svg>
