<svg width="134" height="203" viewBox="0 0 134 203" fill="none" xmlns="http://www.w3.org/2000/svg">
<path fill-rule="evenodd" clip-rule="evenodd" d="M41.7345 114.068C41.6251 113.854 41.5145 113.641 41.4038 113.429C44.5398 107.825 49.4131 102.336 53.8878 96.8931C53.6158 97.0491 54.5665 97.3798 54.2945 97.5371C49.6545 102.552 44.8678 108.393 41.7345 114.068Z" fill="#CE482C"/>
<path fill-rule="evenodd" clip-rule="evenodd" d="M37.5678 51.461C37.4305 53.285 37.0225 57.2157 35.6558 58.8997H41.0225C41.0225 58.8997 38.4185 53.1463 39.5118 50.4797C40.1545 49.1383 40.3785 50.097 40.6451 51.433C41.3758 56.005 48.0998 55.825 49.2625 51.7663C50.4251 47.7037 48.2811 44.0263 44.5145 39.2663C40.7465 34.505 38.9878 30.6543 38.2118 28.3023C37.4265 32.617 31.3691 40.237 28.7545 44.3757C26.1398 48.5157 27.1185 53.2063 30.1038 54.4917C33.0918 55.7757 36.1545 53.3303 36.4705 50.8677C36.7211 48.889 37.6318 50.597 37.5678 51.461Z" fill="#231F20"/>
<path fill-rule="evenodd" clip-rule="evenodd" d="M49.8151 65.7865L33.7111 80.8665C33.7111 80.8665 35.0044 84.5625 37.5924 84.7105C40.1804 84.8571 39.3177 86.3358 42.9124 86.3358C46.5097 86.3358 48.0897 84.4145 48.0897 84.4145L58.8777 74.9531L49.8151 65.7865Z" fill="#034EA1"/>
<path fill-rule="evenodd" clip-rule="evenodd" d="M53.3697 61.4741L51.0071 64.4781C55.4697 68.1221 59.4577 72.0621 62.3911 76.6541C63.6911 78.6621 64.8204 81.4421 64.2297 83.7447L80.2137 96.9834H88.6324L89.8284 94.7141L53.3697 61.4741Z" fill="#EC1C24"/>
<path fill-rule="evenodd" clip-rule="evenodd" d="M53.7643 97.1017H68.2536L61.1256 90.363L53.7643 97.1017Z" fill="#034EA1"/>
<path d="M95.7722 21.5443C95.9708 23.383 96.5095 24.8563 98.2295 25.1043" stroke="#034EA1" stroke-width="1.13333" stroke-miterlimit="2.613"/>
<path d="M94.4232 21.5443C94.6192 23.383 95.3979 26.0803 97.7512 26.6563" stroke="#034EA1" stroke-width="1.13333" stroke-miterlimit="2.613"/>
<path d="M86.5964 21.5443C86.0818 23.7923 84.7871 27.1429 81.5164 26.2896" stroke="#034EA1" stroke-width="1.13333" stroke-miterlimit="2.613"/>
<path d="M93.1107 21.5443C93.2281 23.5469 94.6841 27.3883 97.6734 28.1256" stroke="#034EA1" stroke-width="1.13333" stroke-miterlimit="2.613"/>
<path d="M87.7085 21.5443C87.5925 23.5469 85.8591 28.7776 80.5645 28.0029" stroke="#034EA1" stroke-width="1.13333" stroke-miterlimit="2.613"/>
<path d="M91.5222 21.5443C91.6408 23.547 93.2515 29.3496 97.6342 30.1696" stroke="#034EA1" stroke-width="1.13333" stroke-miterlimit="2.613"/>
<path d="M89.0586 21.5443C88.9826 24.2403 86.9306 30.4923 79.6106 29.5963" stroke="#034EA1" stroke-width="1.13333" stroke-miterlimit="2.613"/>
<path fill-rule="evenodd" clip-rule="evenodd" d="M51.681 21.5443C52.913 24.1243 56.0796 37.0096 52.2463 46.439L62.1396 50.0003L77.097 21.5443H51.681Z" fill="#CE482C"/>
<path d="M90.2904 21.5443C90.4077 23.547 91.1064 29.839 97.7117 31.7216" stroke="#034EA1" stroke-width="1.13333" stroke-miterlimit="2.613"/>
<path d="M90.2904 21.5443C90.1744 26.651 87.0904 32.4537 78.2598 30.9043" stroke="#034EA1" stroke-width="1.13333" stroke-miterlimit="2.613"/>
<path d="M71.6016 21.5339C71.6016 21.5339 71.6016 27.7006 65.487 28.1752C66.295 31.6152 66.0643 36.5979 60.1816 37.7832C61.563 43.2752 59.7536 45.2499 55.4483 47.5099" stroke="#231F20" stroke-width="1.13333" stroke-miterlimit="2.613"/>
<path fill-rule="evenodd" clip-rule="evenodd" d="M67.4922 30.2853C67.8642 30.2853 68.1708 29.9746 68.1708 29.5906C68.1708 29.2106 67.8642 28.8986 67.4922 28.8986C67.1215 28.8986 66.8162 29.2106 66.8162 29.5906C66.8162 29.9746 67.1215 30.2853 67.4922 30.2853Z" fill="#231F20"/>
<path fill-rule="evenodd" clip-rule="evenodd" d="M69.2252 23.7045C69.7212 23.7045 70.1292 23.2885 70.1292 22.7818C70.1292 22.2711 69.7212 21.8565 69.2252 21.8565C68.7279 21.8565 68.3212 22.2711 68.3212 22.7818C68.3212 23.2885 68.7279 23.7045 69.2252 23.7045Z" fill="#231F20"/>
<path fill-rule="evenodd" clip-rule="evenodd" d="M65.9858 24.5574C66.4031 24.5574 66.7391 24.2107 66.7391 23.788C66.7391 23.364 66.4031 23.0187 65.9858 23.0187C65.5711 23.0187 65.2351 23.364 65.2351 23.788C65.2351 24.2107 65.5711 24.5574 65.9858 24.5574Z" fill="#231F20"/>
<path fill-rule="evenodd" clip-rule="evenodd" d="M60.7918 34.0013C61.2065 34.0013 61.5438 33.656 61.5438 33.232C61.5438 32.8067 61.2065 32.4613 60.7918 32.4613C60.3758 32.4613 60.0385 32.8067 60.0385 33.232C60.0385 33.656 60.3758 34.0013 60.7918 34.0013Z" fill="#231F20"/>
<path fill-rule="evenodd" clip-rule="evenodd" d="M55.5612 43.6875C55.9785 43.6875 56.3145 43.3408 56.3145 42.9168C56.3145 42.4928 55.9785 42.1475 55.5612 42.1475C55.1465 42.1475 54.8092 42.4928 54.8092 42.9168C54.8092 43.3408 55.1465 43.6875 55.5612 43.6875Z" fill="#231F20"/>
<path fill-rule="evenodd" clip-rule="evenodd" d="M61.8464 31.8334C62.2597 31.8334 62.5984 31.4867 62.5984 31.064C62.5984 30.64 62.2597 30.2947 61.8464 30.2947C61.4291 30.2947 61.0931 30.64 61.0931 31.064C61.0931 31.4867 61.4291 31.8334 61.8464 31.8334Z" fill="#231F20"/>
<path fill-rule="evenodd" clip-rule="evenodd" d="M56.6484 41.2787C57.0631 41.2787 57.4018 40.932 57.4018 40.508C57.4018 40.084 57.0631 39.7374 56.6484 39.7374C56.2338 39.7374 55.8964 40.084 55.8964 40.508C55.8964 40.932 56.2338 41.2787 56.6484 41.2787Z" fill="#231F20"/>
<path fill-rule="evenodd" clip-rule="evenodd" d="M62.2227 39.8828C62.5947 39.8828 62.8987 39.5735 62.8987 39.1895C62.8987 38.8095 62.5947 38.4975 62.2227 38.4975C61.8493 38.4975 61.544 38.8095 61.544 39.1895C61.544 39.5735 61.8493 39.8828 62.2227 39.8828Z" fill="#231F20"/>
<path fill-rule="evenodd" clip-rule="evenodd" d="M63.2252 24.0703C63.2626 23.1889 64.6679 22.8823 64.6199 24.0716C64.5719 25.2583 63.6559 26.1489 63.6559 26.1489C63.5426 25.4716 63.1839 24.9529 63.2252 24.0703Z" fill="#231F20"/>
<path fill-rule="evenodd" clip-rule="evenodd" d="M58.0274 33.5131C58.0674 32.6331 59.4714 32.3278 59.422 33.5158C59.374 34.7025 58.4594 35.5918 58.4594 35.5918C58.3474 34.9158 57.9887 34.3958 58.0274 33.5131Z" fill="#231F20"/>
<path fill-rule="evenodd" clip-rule="evenodd" d="M52.7982 43.2006C52.8382 42.3179 54.2422 42.0126 54.1928 43.2006C54.1448 44.3886 53.2315 45.2779 53.2315 45.2779C53.1195 44.6019 52.7595 44.0806 52.7982 43.2006Z" fill="#231F20"/>
<path fill-rule="evenodd" clip-rule="evenodd" d="M60.7448 26.5028C59.9822 26.0908 60.4022 24.6641 61.3355 25.2108C62.2715 25.7574 63.0088 26.9814 63.0088 26.9814C62.3608 26.8001 61.5075 26.9148 60.7448 26.5028Z" fill="#231F20"/>
<path fill-rule="evenodd" clip-rule="evenodd" d="M55.5495 35.948C54.7855 35.536 55.2055 34.1066 56.1402 34.6533C57.0748 35.2 57.8122 36.424 57.8122 36.424C57.1668 36.2426 56.3122 36.3586 55.5495 35.948Z" fill="#231F20"/>
<path fill-rule="evenodd" clip-rule="evenodd" d="M61.2605 29.8126C60.6325 30.3033 59.6338 29.3966 60.4378 28.814C61.2418 28.2313 62.5191 28.0753 62.5191 28.0753C62.1218 28.5553 61.8898 29.3233 61.2605 29.8126Z" fill="#231F20"/>
<path fill-rule="evenodd" clip-rule="evenodd" d="M56.0639 39.2566C55.4359 39.7473 54.4386 38.8406 55.2426 38.2579C56.0453 37.6739 57.3239 37.5193 57.3239 37.5193C56.9279 37.9993 56.6933 38.7673 56.0639 39.2566Z" fill="#231F20"/>
<path fill-rule="evenodd" clip-rule="evenodd" d="M62.7096 29.0274L63.6456 27.4994C63.6456 27.4994 65.2123 29.2007 64.9389 30.9741C64.6656 32.7501 64.0789 32.8887 63.5696 32.4861C63.0603 32.0834 63.4443 31.4114 63.8349 31.3287C64.2269 31.2447 63.9603 30.3954 63.6096 29.8727C63.2576 29.3487 62.7096 29.0274 62.7096 29.0274Z" fill="#231F20"/>
<path fill-rule="evenodd" clip-rule="evenodd" d="M57.5143 38.4714L58.4503 36.9434C58.4503 36.9434 60.0156 38.6434 59.7423 40.418C59.4689 42.1927 58.8823 42.3327 58.3743 41.93C57.8663 41.526 58.2476 40.8554 58.6409 40.7714C59.0303 40.6874 58.7649 39.838 58.4116 39.3154C58.0609 38.7927 57.5143 38.4714 57.5143 38.4714Z" fill="#231F20"/>
<path fill-rule="evenodd" clip-rule="evenodd" d="M64.8412 25.8438L63.8079 27.3104C63.8079 27.3104 66.0639 27.6464 67.3519 26.7811C68.6439 25.9171 68.6385 24.8998 68.0799 24.5691C67.5265 24.2398 66.9385 24.8224 67.1332 25.2878C67.3252 25.7531 66.6199 26.1224 66.0039 26.0958C65.3892 26.0678 64.8412 25.8438 64.8412 25.8438Z" fill="#231F20"/>
<path fill-rule="evenodd" clip-rule="evenodd" d="M59.6446 35.2891L58.6139 36.7544C58.6139 36.7544 60.8659 37.0904 62.1552 36.2251C63.4472 35.3597 63.4419 34.3424 62.8846 34.0131C62.3299 33.6824 61.7419 34.2651 61.9366 34.7317C62.1299 35.1971 61.4232 35.5651 60.8086 35.5397C60.1939 35.5117 59.6446 35.2891 59.6446 35.2891Z" fill="#231F20"/>
<path fill-rule="evenodd" clip-rule="evenodd" d="M54.4153 44.9741L53.3846 46.4394C53.3846 46.4394 55.6366 46.7767 56.9286 45.9114C58.218 45.0461 58.214 44.0287 57.6566 43.6981C57.1006 43.3687 56.514 43.9527 56.7073 44.4167C56.9006 44.8834 56.194 45.2501 55.578 45.2247C54.966 45.1981 54.4153 44.9741 54.4153 44.9741Z" fill="#231F20"/>
<path fill-rule="evenodd" clip-rule="evenodd" d="M88.5534 54.6746C88.5534 54.6746 88.8974 54.4372 89.6214 54.4372C90.3414 54.4372 90.9894 54.7812 90.928 54.6746C90.864 54.5692 90.74 54.2786 90.136 54.0399C90.08 54.0186 90.0267 53.9999 89.9827 53.9839C89.9947 53.9812 90.004 53.9786 90.016 53.9746C90.728 53.7239 90.8747 53.4172 90.9507 53.3052C91.024 53.1959 90.2587 53.5572 89.4067 53.5572C88.5534 53.5572 88.1454 53.3052 88.1454 53.3052C88.4 53.8492 88.6734 53.9746 89.2027 53.9746C89.3174 53.9799 89.3627 54.0132 89.4067 54.0412C88.984 54.0492 88.7614 54.1772 88.5534 54.6746ZM85.4667 51.3439C85.4667 51.3439 86.3507 51.6559 87.0094 51.3852C87.4147 51.2172 88.3547 50.3772 88.8374 51.0106C89.2854 51.5932 89.4867 51.3439 89.4867 51.3439C89.4867 51.3439 89.648 50.9252 90.2187 50.8426C90.788 50.7572 91.0307 51.0106 91.2747 51.0519C91.52 51.0932 91.952 51.2812 92.3294 50.9252C92.5734 50.6972 92.636 51.1146 92.716 51.5052C92.7974 51.8959 92.9 52.2626 92.9 52.2626C92.9 52.2626 92.7667 52.1612 92.168 52.0532C91.4787 51.9266 91.3974 52.1799 90.828 52.3879C90.2587 52.5959 89.6494 53.1386 88.6747 52.6799C87.7 52.2199 86.1974 52.5532 85.3427 53.2212C85.4227 52.7212 85.3814 52.2199 85.4667 51.3439ZM96.5014 37.8199C96.928 37.7999 97.4094 37.7812 97.7227 38.1039C97.7227 38.1039 96.2227 39.5319 96.28 39.0186C96.3347 38.5052 96.5014 37.8199 96.5014 37.8199V37.8199ZM93.7267 37.8759H94.092C94.0454 38.3626 94.3054 38.7892 94.6694 38.7892C95.4467 38.7892 95.4467 37.8759 95.4467 37.8759C95.4467 37.8759 96.1014 37.6172 95.8894 38.3332C95.68 39.0492 95.5574 39.5319 94.6694 39.5319C93.7827 39.5319 93.7267 37.8759 93.7267 37.8759ZM93.06 37.9332C93.004 38.6172 93.504 39.3039 93.504 39.3039C93.504 39.3039 93.2814 39.3612 92.7814 39.1332C92.2827 38.9039 91.8374 38.2186 91.8374 38.2186L93.06 37.9332ZM92.0587 36.5052C92.3934 36.4492 93.06 35.5932 95.0014 35.8212C96.9454 36.0492 97.1134 36.9066 97.168 36.9066C97.2227 36.9066 96.2227 36.7359 94.8374 36.6786C93.4467 36.6199 92.0587 37.0212 92.0587 37.0212V36.5052ZM92.5587 35.5359C92.824 34.8159 94.448 34.1092 96.1134 34.6226C97.78 35.1372 97.556 35.3079 97.556 35.3079C97.556 35.3079 97.9454 36.3932 97.168 35.8786C96.7147 35.2706 93.9054 34.8306 92.5587 35.5359V35.5359ZM97.556 33.1959C97.556 33.1959 93.8934 32.9692 92.836 33.9946C91.7814 35.0239 91.06 36.7919 91.2267 38.7319C91.3947 40.6719 92.2827 46.0386 92.2827 46.0386C92.2827 46.0386 90.8894 47.0772 90.7827 47.4666C90.6707 47.8652 90.6707 48.4919 91.2827 47.9799C91.892 47.4666 92.9454 46.5106 92.892 46.2666L91.6707 40.5026L92.116 40.3879L92.7267 40.9586L93.004 40.7306L92.1707 39.9879V39.3039C92.1707 39.3039 93.4467 40.2159 95.2814 39.9879C97.1134 39.7599 97.5014 38.9039 97.5014 38.9039L97.556 33.1959ZM85.6747 45.9812C85.6747 45.9812 85.7854 47.8652 86.62 47.7506C87.4507 47.6372 88.5254 46.5546 89.06 46.6092C89.596 46.6639 90.1147 46.7799 90.0054 47.2946C89.8947 47.8106 89.06 47.9799 88.34 48.0932C87.616 48.2079 86.5854 48.6852 86.0614 48.2652C85.54 47.8452 85.1187 47.2946 85.6747 45.9812ZM83.12 37.5346C83.12 37.5346 82.7307 38.5319 83.4534 39.0186C84.176 39.5039 84.7867 39.1906 85.0627 38.9612C85.34 38.7319 85.856 38.1159 85.4534 37.7599C85.1814 37.5239 85.2307 38.6199 84.3974 38.6759C83.564 38.7319 83.12 37.5346 83.12 37.5346ZM82.5667 37.7039C81.9534 37.7599 81.628 37.8399 81.232 38.2759C80.8347 38.7106 83.3027 39.1279 82.7867 38.6759C82.3974 38.3332 82.5667 37.7039 82.5667 37.7039V37.7039ZM85.2867 35.4799C81.516 35.3332 80.344 37.1359 80.344 37.1359C80.344 37.1359 80.8427 37.3052 81.8987 36.9066C82.4254 36.7052 83.1467 36.5066 83.8067 36.5212C84.4667 36.5346 85.0627 36.7626 85.564 36.7359C86.5614 36.6786 87.1734 35.8786 87.1734 35.8786L87.0627 36.6199C87.0627 36.6199 86.34 37.0786 86.84 37.8759C87.34 38.6759 87.544 37.9532 87.064 39.1906C86.5814 40.4252 85.8214 41.0732 85.1734 41.2452C85.8587 40.0452 86.6387 39.2399 84.7294 39.5892C82.2014 40.0519 80.788 38.5039 80.788 38.5039H78.1787V37.8199C78.1787 37.8199 78.844 37.5906 80.5107 36.1066C82.176 34.6226 84.8787 35.0972 85.2867 35.4799V35.4799ZM88.564 34.6692C89.24 34.6692 87.196 32.3106 84.324 32.6239C81.9494 32.8826 81.4667 33.5132 79.8227 34.4919C81.42 34.1172 84.1374 33.7706 86.3854 34.0359C87.5614 34.1772 88.3814 34.6692 88.564 34.6692" fill="#034EA1"/>
<path fill-rule="evenodd" clip-rule="evenodd" d="M75.1705 21.6705L60.3692 49.0185L61.8465 49.9972L77.5505 21.6705H75.1705Z" fill="#EC1C24"/>
<path d="M75.1705 21.6706L60.3692 49.0186" stroke="#034EA1" stroke-width="1.512" stroke-miterlimit="2.613"/>
<path fill-rule="evenodd" clip-rule="evenodd" d="M63.0847 60.0248L89.066 83.6542L94.0954 63.3048L99.2674 61.3115L96.3394 57.9062L92.902 56.6328C85.6701 60.5115 76.6807 53.4675 72.094 44.0075L63.0847 60.0248Z" fill="#CE482C"/>
<path fill-rule="evenodd" clip-rule="evenodd" d="M97.7005 32.2916C98.8019 38.4222 101.903 57.4716 100.661 62.5076C98.6179 61.4596 94.1272 57.2636 92.9019 56.6329C96.5019 53.6876 97.0712 45.7422 97.7005 32.2916" fill="#034EA1"/>
<path fill-rule="evenodd" clip-rule="evenodd" d="M66.7604 52.444C66.6084 52.8747 66.4551 53.2134 66.3018 53.644C71.2884 55.4147 77.8351 56.984 82.9124 56.7307C81.8444 55.984 80.7751 55.24 79.7058 54.4934C75.8484 55.024 70.6178 53.3307 66.7604 52.444Z" fill="#034EA1"/>
<path d="M76.8424 51.7853C76.8424 51.7853 76.8424 54.0226 77.3011 55.2013" stroke="#034EA1" stroke-width="0.945333" stroke-miterlimit="2.613"/>
<path d="M74.7812 49.0768C74.7812 49.0768 75.0106 53.3155 75.5839 54.9635" stroke="#034EA1" stroke-width="0.945333" stroke-miterlimit="2.613"/>
<path d="M72.2383 44.7905L73.6369 55.2012" stroke="#034EA1" stroke-width="0.945333" stroke-miterlimit="2.613"/>
<path d="M70.7266 46.1303L72.0319 54.2583" stroke="#034EA1" stroke-width="0.945333" stroke-miterlimit="2.613"/>
<path d="M69.3751 47.9675L70.5671 54.1635" stroke="#034EA1" stroke-width="0.945333" stroke-miterlimit="2.613"/>
<path d="M65.1315 55.1693C70.3195 58.9947 88.7448 61.7787 94.4075 57.7493" stroke="#00A551" stroke-width="0.945333" stroke-miterlimit="2.613"/>
<path d="M72.3191 64.1901L89.2204 80.2341L93.0071 65.1408C93.0071 65.1408 89.5644 65.7168 84.8791 65.6168C80.9978 65.5368 76.4204 64.9635 72.3191 64.1901Z" stroke="#00A551" stroke-width="0.945333" stroke-miterlimit="2.613"/>
<path fill-rule="evenodd" clip-rule="evenodd" d="M65.1042 60.2578C63.8295 59.8125 63.1135 59.5098 63.1135 59.5098L61.7988 58.5205L62.5788 56.4138L66.0322 57.7525L65.1042 60.2578ZM66.6522 60.7738C67.2748 60.9738 67.9708 61.1845 68.7335 61.4005L69.6335 58.8925L67.4735 58.2165L66.6522 60.7738ZM70.5362 61.8858C71.2055 62.0578 71.9095 62.2272 72.6495 62.3912L73.2988 59.8832L71.0868 59.4165L70.5362 61.8858ZM74.5642 62.7858C75.2482 62.9165 75.9562 63.0418 76.6815 63.1592L77.0228 60.3965L74.8655 60.1725L74.5642 62.7858ZM78.4135 63.4072C79.2162 63.5125 80.0362 63.6045 80.8735 63.6765L80.9948 60.7752L78.7468 60.5512L78.4135 63.4072ZM82.4815 63.7992C83.2322 63.8432 83.9562 63.8698 84.6548 63.8818L84.5682 60.8818L82.5842 60.8018L82.4815 63.7992ZM86.1975 63.8805C87.0002 63.8672 87.7628 63.8338 88.4922 63.7845L88.2922 60.5845L86.2268 60.6458L86.1975 63.8805ZM90.2682 63.6232C91.0708 63.5352 91.8215 63.4272 92.5215 63.3072L91.9028 60.0272L89.8548 60.2885L90.2682 63.6232ZM94.1242 62.9978C94.9588 62.8192 95.6988 62.6285 96.3482 62.4458L95.3988 60.0152L94.6455 59.3712L93.1428 59.9298L94.1242 62.9978Z" fill="#231F20"/>
<path d="M78.2435 67.3738H90.9381L88.5021 76.9391L78.2435 67.3738Z" stroke="#00A551" stroke-width="0.945333" stroke-miterlimit="2.613"/>
<path d="M82.1082 67.3738H88.4455L86.3028 69.2365L82.1082 67.3738Z" stroke="#00A551" stroke-width="0.945333" stroke-miterlimit="2.613"/>
<path d="M90.935 67.3738L86.5643 70.7164L79.007 68.0124" stroke="#00A551" stroke-width="0.945333" stroke-miterlimit="2.613"/>
<path d="M90.3164 69.8763L87.1858 72.0909L81.5364 70.4163" stroke="#00A551" stroke-width="0.945333" stroke-miterlimit="2.613"/>
<path d="M89.8867 71.9845L87.5667 73.7578L83.9694 72.6231" stroke="#00A551" stroke-width="0.945333" stroke-miterlimit="2.613"/>
<path d="M89.22 73.8984C87.992 75.2051 87.5947 75.4198 85.972 74.5864" stroke="#00A551" stroke-width="0.945333" stroke-miterlimit="2.613"/>
<path fill-rule="evenodd" clip-rule="evenodd" d="M36.0899 73.806C36.0899 73.806 37.0219 77.1327 40.2766 78.01C43.5299 78.8887 45.2899 81.57 44.7633 83.414C43.8926 83.4873 43.6233 83.4407 43.0419 83.4913C43.0419 83.4913 41.2686 80.526 39.4713 80.1673C37.5179 79.778 35.8819 77.6767 35.1446 76.498C34.4059 75.318 34.1873 74.042 34.1873 74.042L36.0899 73.806Z" fill="#CE482C"/>
<path fill-rule="evenodd" clip-rule="evenodd" d="M37.4935 80.4713C37.4935 80.4713 39.4308 80.1713 40.9775 81.6647C42.5268 83.1567 42.2362 83.5393 41.8495 83.5553C41.4628 83.5727 41.0922 83.722 41.0268 83.5047C40.9268 83.1727 39.9628 83.4713 39.8642 83.058C39.7588 82.614 39.4055 82.8287 38.6535 82.6927C37.9055 82.5567 37.4122 81.078 37.4935 80.4713Z" fill="#CE482C"/>
<path fill-rule="evenodd" clip-rule="evenodd" d="M46.2774 74.5729C46.2774 74.5729 46.7907 74.7503 47.2147 75.3649C47.876 76.3236 48.2947 78.6983 47.964 80.3356C47.4294 82.9916 47.3467 82.5343 46.9907 82.9663C46.6347 83.3983 45.34 84.0649 45.176 81.5343C45.3707 78.2369 46.2774 74.5729 46.2774 74.5729Z" fill="#CE482C"/>
<path fill-rule="evenodd" clip-rule="evenodd" d="M59.1601 80.2031L55.7255 82.9191L52.6415 81.5618L54.2281 84.4578L52.1161 88.0804L55.7255 85.2738L59.0748 87.6271L57.1361 84.0964L59.1601 80.2031Z" fill="#034EA1"/>
<path fill-rule="evenodd" clip-rule="evenodd" d="M43.8334 97.1354L40.3987 99.4901L37.228 97.5888L39.3427 100.849L37.404 104.559L40.6614 102.207L43.9227 103.655L41.8974 100.758L43.8334 97.1354Z" fill="#034EA1"/>
<path fill-rule="evenodd" clip-rule="evenodd" d="M47.5806 92.4531C46.3793 92.8678 45.41 92.8584 46.0673 93.4398C46.434 93.7624 45.914 94.3984 45.0393 94.7918L44.1606 95.8384L47.5286 93.9611L51.0033 96.0344L48.7673 92.6998L51.346 89.1091L47.6286 90.5384C48.3193 91.1198 48.4553 93.4251 47.5806 92.4531Z" fill="#034EA1"/>
<path fill-rule="evenodd" clip-rule="evenodd" d="M55.776 89.7109C56.2893 89.7109 56.7067 89.2843 56.7067 88.7603C56.7067 88.2376 56.2893 87.8083 55.776 87.8083C55.2613 87.8083 54.8453 88.2376 54.8453 88.7603C54.8453 89.2843 55.2613 89.7109 55.776 89.7109Z" fill="#034EA1"/>
<path fill-rule="evenodd" clip-rule="evenodd" d="M40.7123 106.284C41.227 106.284 41.643 105.855 41.643 105.331C41.643 104.808 41.227 104.377 40.7123 104.377C40.199 104.377 39.783 104.808 39.783 105.331C39.783 105.855 40.199 106.284 40.7123 106.284Z" fill="#034EA1"/>
<path fill-rule="evenodd" clip-rule="evenodd" d="M50.8438 85.6367C51.3558 85.6367 51.7718 85.2101 51.7718 84.6847C51.7718 84.1621 51.3558 83.7341 50.8438 83.7341C50.3291 83.7341 49.9131 84.1621 49.9131 84.6847C49.9131 85.2101 50.3291 85.6367 50.8438 85.6367Z" fill="#034EA1"/>
<path fill-rule="evenodd" clip-rule="evenodd" d="M35.6927 102.389C36.2047 102.389 36.6207 101.961 36.6207 101.437C36.6207 100.915 36.2047 100.487 35.6927 100.487C35.178 100.487 34.7593 100.915 34.7593 101.437C34.7593 101.961 35.178 102.389 35.6927 102.389Z" fill="#034EA1"/>
<path fill-rule="evenodd" clip-rule="evenodd" d="M47.0547 98.224C47.568 98.224 47.984 97.7973 47.984 97.2707C47.984 96.748 47.568 96.32 47.0547 96.32C46.5427 96.32 46.1254 96.748 46.1254 97.2707C46.1254 97.7973 46.5427 98.224 47.0547 98.224Z" fill="#034EA1"/>
<path d="M48.9557 87.6694C49.1851 87.6694 49.8051 89.1814 49.1971 90.1801C48.5864 91.1801 48.4771 92.3361 46.8971 93.9894C45.6571 95.2881 38.8237 95.6307 38.3317 94.5174C37.8411 92.5107 37.9744 86.8147 39.6064 85.2654C40.0171 84.8774 39.8624 84.2267 40.1904 84.1507C44.5304 83.1361 51.4277 85.1454 48.9557 87.6694Z" stroke="#034EA1" stroke-width="0.945333" stroke-miterlimit="2.613"/>
<path d="M48.9505 87.6107C48.0825 87.912 45.0879 87.8107 43.5399 86.7174" stroke="#034EA1" stroke-width="0.945333" stroke-miterlimit="2.613"/>
<path d="M49.3372 89.8959C48.5652 90.2959 45.2799 90.7919 43.1532 89.8959" stroke="#034EA1" stroke-width="0.945333" stroke-miterlimit="2.613"/>
<path d="M47.9845 92.5781C47.2125 92.9768 44.2178 92.9768 41.7045 92.2795" stroke="#034EA1" stroke-width="0.945333" stroke-miterlimit="2.613"/>
<path fill-rule="evenodd" clip-rule="evenodd" d="M69.5183 97.1017H68.2543L61.1249 90.363L61.5503 89.9657L69.5183 97.1017Z" fill="#CE482C"/>
<path fill-rule="evenodd" clip-rule="evenodd" d="M69.5183 97.1017H71.3596L62.6196 88.8284L61.5503 89.9657L69.5183 97.1017Z" fill="#231F20"/>
<path fill-rule="evenodd" clip-rule="evenodd" d="M74.5782 97.1017H71.3595L62.6195 88.8284L63.5062 86.775L74.5782 97.1017Z" fill="#CE482C"/>
<path fill-rule="evenodd" clip-rule="evenodd" d="M74.5782 97.1017H75.7288L63.7688 85.7537L63.5062 86.775L74.5782 97.1017Z" fill="#00A551"/>
<path fill-rule="evenodd" clip-rule="evenodd" d="M77.3372 97.1017H75.7292L63.7679 85.7537L64.0826 84.2937L77.3372 97.1017Z" fill="#231F20"/>
<path fill-rule="evenodd" clip-rule="evenodd" d="M77.3372 97.1017H81.1345L66.8745 83.2724C65.4812 82.4244 64.2412 81.9737 64.0825 84.2937L77.3372 97.1017Z" fill="#CE482C"/>
<path d="M81.1342 97.1017L66.8755 83.2724C65.4822 82.4244 64.2408 81.9737 64.0822 84.2937" stroke="#00A551" stroke-width="0.945333" stroke-miterlimit="2.613"/>
<path d="M53.3697 61.474L51.0071 64.478" stroke="#034EA1" stroke-width="0.945333" stroke-miterlimit="2.613"/>
<path fill-rule="evenodd" clip-rule="evenodd" d="M53.5508 63.25L53.1455 62.9527L52.4908 63.8914L52.8961 64.1874L53.5508 63.25Z" fill="#D44C2D"/>
<path fill-rule="evenodd" clip-rule="evenodd" d="M58.974 68.5052L58.5687 68.2079L57.914 69.1452L58.3207 69.4426L58.974 68.5052Z" fill="#D44C2D"/>
<path fill-rule="evenodd" clip-rule="evenodd" d="M61.9206 71.2241L61.5299 70.9094L60.5153 71.9361L60.9059 72.2521L61.9206 71.2241Z" fill="#D44C2D"/>
<path fill-rule="evenodd" clip-rule="evenodd" d="M67.2188 76.1589L66.8268 75.8442L65.4401 77.5109L65.8308 77.8269L67.2188 76.1589Z" fill="#D44C2D"/>
<path fill-rule="evenodd" clip-rule="evenodd" d="M72.862 81.3829L72.462 81.0616L71.0474 82.7629L71.446 83.0856L72.862 81.3829Z" fill="#D44C2D"/>
<path fill-rule="evenodd" clip-rule="evenodd" d="M78.7213 86.7005L78.3213 86.3805L76.9067 88.0805L77.304 88.4032L78.7213 86.7005Z" fill="#D44C2D"/>
<path fill-rule="evenodd" clip-rule="evenodd" d="M84.4544 92.1484L84.0558 91.8257L82.6411 93.5271L83.0371 93.8497L84.4544 92.1484Z" fill="#D44C2D"/>
<path fill-rule="evenodd" clip-rule="evenodd" d="M67.9506 80.737C67.8332 80.6597 67.6946 80.6144 67.5439 80.6144C67.1346 80.6144 66.7972 80.9584 66.7972 81.3797C66.7972 81.8024 67.1346 82.1464 67.5439 82.1464C67.9572 82.1464 68.2919 81.8024 68.2919 81.3797C68.2919 81.301 68.2812 81.2237 68.2586 81.1517L70.0866 78.977L69.6959 78.661L67.9506 80.737Z" fill="#D44C2D"/>
<path fill-rule="evenodd" clip-rule="evenodd" d="M73.8112 86.0547C73.6939 85.9787 73.5539 85.9347 73.4032 85.9347C72.9926 85.9347 72.6566 86.2773 72.6566 86.6973C72.6566 87.12 72.9926 87.464 73.4032 87.464C73.8166 87.464 74.1512 87.12 74.1512 86.6973C74.1512 86.62 74.1406 86.5413 74.1179 86.4693L75.9459 84.296L75.5539 83.9787L73.8112 86.0547Z" fill="#D44C2D"/>
<path fill-rule="evenodd" clip-rule="evenodd" d="M79.4818 91.3737C79.3644 91.2964 79.2258 91.2524 79.0751 91.2524C78.6658 91.2524 78.3284 91.5964 78.3284 92.0151C78.3284 92.4377 78.6658 92.7817 79.0751 92.7817C79.4898 92.7817 79.8244 92.4377 79.8244 92.0151C79.8244 91.9377 79.8124 91.8617 79.7911 91.7897L81.6178 89.6151L81.2271 89.2964L79.4818 91.3737Z" fill="#D44C2D"/>
<path fill-rule="evenodd" clip-rule="evenodd" d="M64.414 73.6602L64.0207 73.3442L63.0714 74.4988L63.4634 74.8148L64.414 73.6602Z" fill="#D44C2D"/>
<path fill-rule="evenodd" clip-rule="evenodd" d="M63.3203 72.3959L62.7056 71.9199L61.5549 73.1119L62.1709 73.5906L63.3203 72.3959Z" fill="#D44C2D"/>
<path fill-rule="evenodd" clip-rule="evenodd" d="M55.3268 64.5287L54.6508 64.0447L53.8615 65.1741L54.5375 65.6581L55.3268 64.5287Z" fill="#D44C2D"/>
<path fill-rule="evenodd" clip-rule="evenodd" d="M57.8607 67.211L57.266 66.6257L56.3154 67.6177L56.9087 68.203L57.8607 67.211Z" fill="#D44C2D"/>
<path fill-rule="evenodd" clip-rule="evenodd" d="M56.6134 65.9102L56.0827 65.5048L55.132 66.5915L55.664 66.9968L56.6134 65.9102Z" fill="#D44C2D"/>
<path fill-rule="evenodd" clip-rule="evenodd" d="M60.7891 70.0469L60.0718 69.4709L59.1211 70.5656L59.8398 71.1376L60.7891 70.0469Z" fill="#D44C2D"/>
<path fill-rule="evenodd" clip-rule="evenodd" d="M66.2227 75.1979L65.5174 74.4339L63.9654 76.2686C63.38 76.8779 63.4027 77.4513 63.4934 77.9246C63.4934 77.9246 64.1174 79.5113 65.1147 79.7819C66.1107 80.0539 66.9214 79.4926 67.1347 79.3566L67.14 79.3646L67.1614 79.3379C67.1667 79.3366 67.1694 79.3339 67.1694 79.3339L67.168 79.3313L68.7134 77.5033L68.0107 76.8673L66.4054 78.6819C66.0974 78.8366 65.4947 79.2033 64.8027 78.7566C64.1107 78.3113 64.348 77.3713 64.6467 77.0579L66.2227 75.1979Z" fill="#D44C2D"/>
<path fill-rule="evenodd" clip-rule="evenodd" d="M71.8424 80.4037L71.1264 79.6223L69.5424 81.4943C68.9437 82.117 68.9664 82.7037 69.0611 83.185C69.0611 83.185 69.6971 84.8037 70.7131 85.081C71.7304 85.357 72.5571 84.7823 72.7731 84.6463L72.7824 84.6543L72.8011 84.6303C72.8091 84.625 72.8117 84.6223 72.8117 84.6223V84.6197L74.3864 82.7557L73.6691 82.1063L72.0317 83.9583C71.7197 84.1143 71.0997 84.489 70.3944 84.0343C69.6904 83.5797 69.9331 82.6197 70.2371 82.2997L71.8424 80.4037Z" fill="#D44C2D"/>
<path fill-rule="evenodd" clip-rule="evenodd" d="M77.7031 85.7214L76.9844 84.9414L75.4018 86.8121C74.8031 87.4347 74.8258 88.0214 74.9178 88.5027C74.9178 88.5027 75.5551 90.1214 76.5738 90.3987C77.5898 90.6761 78.4151 90.1014 78.6324 89.9667L78.6391 89.9721L78.6631 89.9481L78.6711 89.9401L78.6684 89.9374L80.2471 88.0747L79.5298 87.4241L77.8898 89.2774C77.5778 89.4321 76.9591 89.8067 76.2538 89.3521C75.5484 88.8987 75.7924 87.9374 76.0978 87.6174L77.7031 85.7214Z" fill="#D44C2D"/>
<path fill-rule="evenodd" clip-rule="evenodd" d="M83.4375 91.1667L82.7202 90.388L81.1362 92.2587C80.5388 92.8827 80.5615 93.468 80.6548 93.9494C80.6548 93.9494 81.2908 95.568 82.3082 95.8454C83.3255 96.1227 84.1522 95.5467 84.3668 95.412L84.3762 95.4187L84.3962 95.3934C84.4028 95.3894 84.4068 95.388 84.4068 95.388L84.4055 95.384L85.9802 93.5214L85.2628 92.872L83.6268 94.724C83.3135 94.88 82.6948 95.2547 81.9908 94.8C81.2842 94.344 81.5268 93.3854 81.8322 93.0654L83.4375 91.1667Z" fill="#D44C2D"/>
<path fill-rule="evenodd" clip-rule="evenodd" d="M27.3099 77.4713L23.8112 76.0033V131.002L34.4072 140.731L41.4766 113.094L25.3246 101.563C28.2779 100.777 29.8032 94.6767 32.5779 92.242L28.6952 88.8047L30.6206 85.3647C31.3006 84.3833 31.6232 84.318 27.3099 77.4713Z" fill="#EC1C24"/>
<path d="M23.8112 131.003L34.9552 141.297" stroke="#034EA1" stroke-width="0.945333" stroke-miterlimit="2.613"/>
<path fill-rule="evenodd" clip-rule="evenodd" d="M30.8033 105.544C31.162 107.014 35.2753 123.123 31.6087 123.854C34.1073 124.586 34.2247 127.886 31.966 129.719C33.394 130.82 33.0367 134.851 33.0367 134.851L30.5407 155.568L33.2153 161.071L29.8273 166.935L27.6873 161.071C27.6873 161.071 29.1127 158.135 30.0033 156.302C30.8953 154.468 30.1833 153.552 30.1833 153.552C30.1833 153.552 28.618 137.087 27.8647 133.752C27.102 130.375 29.2153 130.922 28.7567 129.535C26.2593 126.968 28.2113 125.046 29.1127 124.036C27.1087 122.82 27.8647 119.086 27.8647 119.086L29.65 104.775L30.8033 105.544Z" fill="#CE482C"/>
<path fill-rule="evenodd" clip-rule="evenodd" d="M32.681 157.013C33.8596 157.013 34.8196 156.03 34.8196 154.824C34.8196 153.618 33.8596 152.636 32.681 152.636C31.501 152.636 30.541 153.618 30.541 154.824C30.541 156.03 31.501 157.013 32.681 157.013Z" fill="#CE482C"/>
<path fill-rule="evenodd" clip-rule="evenodd" d="M28.4531 157.013C29.6318 157.013 30.5918 156.03 30.5918 154.824C30.5918 153.618 29.6318 152.636 28.4531 152.636C27.2731 152.636 26.3131 153.618 26.3131 154.824C26.3131 156.03 27.2731 157.013 28.4531 157.013Z" fill="#CE482C"/>
<path d="M30.1836 131.185C30.1836 131.185 29.2916 132.104 29.4689 134.669C29.6503 137.236 30.5409 148.138 30.5409 146.218" stroke="#00A551" stroke-width="0.945333" stroke-miterlimit="2.613"/>
<path d="M30.5404 122.753C30.5404 122.753 29.2911 122.021 29.4684 119.453C29.6497 116.887 30.5404 106.619 30.5404 107.903" stroke="#00A551" stroke-width="0.945333" stroke-miterlimit="2.613"/>
<path d="M30.6133 129.901C32.2427 129.901 33.572 128.544 33.572 126.877C33.572 125.21 32.2427 123.854 30.6133 123.854C28.984 123.854 27.6547 125.21 27.6547 126.877C27.6547 128.544 28.984 129.901 30.6133 129.901Z" stroke="#00A551" stroke-width="0.945333" stroke-miterlimit="2.613"/>
<path fill-rule="evenodd" clip-rule="evenodd" d="M29.9479 125.357H30.6559C30.6559 125.357 29.7612 126.034 29.7599 127.05C29.7599 128.065 30.5612 128.762 30.5612 128.762H29.8212C29.8212 128.762 28.9599 128.154 29.0999 126.906C29.2439 125.657 29.9479 125.357 29.9479 125.357Z" fill="#00A551"/>
<path fill-rule="evenodd" clip-rule="evenodd" d="M30.4167 158.171L31.706 160.917L30.258 163.923L29.222 160.788L30.4167 158.171Z" fill="#EB008B"/>
<path d="M30.4167 158.171L31.706 160.917L30.258 163.923L29.222 160.788L30.4167 158.171Z" stroke="#00A551" stroke-width="0.945333" stroke-miterlimit="2.613"/>
<path fill-rule="evenodd" clip-rule="evenodd" d="M39.0183 116.288L39.285 115.156C39.225 115.15 39.169 115.149 39.1103 115.149C37.7596 115.149 36.6543 116.276 36.6543 117.66C36.6543 118.696 37.2716 119.589 38.153 119.972L38.4223 118.82C37.957 118.562 37.653 118.138 37.653 117.664C37.653 117.005 38.233 116.448 39.0183 116.288Z" fill="#D44C2D"/>
<path fill-rule="evenodd" clip-rule="evenodd" d="M37.1706 123.937L37.4212 122.864C37.3652 122.86 37.3119 122.856 37.2559 122.856C35.9746 122.856 34.9319 123.927 34.9319 125.237C34.9319 126.219 35.5172 127.064 36.3492 127.427L36.6052 126.336C36.1639 126.091 35.8759 125.689 35.8759 125.24C35.8759 124.617 36.4266 124.088 37.1706 123.937" fill="#D44C2D"/>
<path fill-rule="evenodd" clip-rule="evenodd" d="M39.6954 113.992C39.67 113.584 39.0527 112.629 38.6167 112.629C38.1927 112.629 37.8487 112.976 37.8487 113.399C37.8487 113.823 38.1927 114.169 38.6167 114.169C39.2234 113.828 39.71 114.263 39.6954 113.992Z" fill="#D44C2D"/>
<path fill-rule="evenodd" clip-rule="evenodd" d="M37.8307 121.651C37.8094 121.244 37.1907 120.288 36.752 120.288C36.3307 120.288 35.9854 120.635 35.9854 121.059C35.9854 121.482 36.3307 121.828 36.752 121.828C37.3587 121.487 37.8494 121.923 37.8307 121.651Z" fill="#D44C2D"/>
<path fill-rule="evenodd" clip-rule="evenodd" d="M35.1979 128.284C34.7753 128.284 34.4299 128.631 34.4299 129.055C34.4299 129.479 34.7753 129.824 35.1979 129.824C35.8033 129.481 36.2606 128.66 35.1979 128.284Z" fill="#D44C2D"/>
<path fill-rule="evenodd" clip-rule="evenodd" d="M34.961 130.917C34.6676 130.917 34.4316 131.157 34.4316 131.449C34.4316 131.742 34.6676 131.982 34.961 131.982C35.3796 131.745 35.6956 131.177 34.961 130.917Z" fill="#D44C2D"/>
<path d="M51.681 21.5443C52.913 24.1243 56.0796 37.0096 52.2463 46.439L62.1396 50.0003" stroke="#034EA1" stroke-width="1.512" stroke-miterlimit="2.613"/>
<path fill-rule="evenodd" clip-rule="evenodd" d="M26.9219 77.6681L37.8432 83.1001C37.8432 83.1001 35.2885 87.9894 35.3779 89.9814C35.4659 91.9734 36.1712 95.7761 36.1712 95.7761L26.8352 100.576C26.8352 100.576 28.0645 95.3241 30.9725 92.6081C31.3272 91.8827 29.1232 91.3414 27.6259 88.8054C28.5059 87.2654 29.7405 86.0881 30.6205 85.3641C30.0925 84.1881 27.1859 80.2027 26.9219 77.6681Z" fill="#CE482C"/>
<path d="M26.8347 100.576C26.8347 100.576 28.0654 95.3249 30.9734 92.6076C31.3267 91.8822 29.1241 91.3409 27.6267 88.8049C28.5067 87.2662 29.7414 86.0889 30.6214 85.3649C30.0921 84.1876 27.1867 80.2036 26.9214 77.6676" stroke="#00A551" stroke-width="0.944" stroke-miterlimit="2.613"/>
<path fill-rule="evenodd" clip-rule="evenodd" d="M29.741 79.1536L32.2783 80.3589C32.3103 82.1629 33.4836 84.9376 34.6196 85.9736C35.189 86.4923 35.3596 86.5416 35.205 86.9269C35.0503 87.3123 34.7663 87.9296 34.425 88.1816C33.741 88.6816 32.473 89.1829 32.473 89.1829C32.8343 90.0643 33.0983 90.5416 34.0436 91.1203C33.813 91.8789 33.9716 92.6376 34.133 93.4976C33.1236 94.7989 32.6023 96.1043 32.3756 97.4083L29.9356 98.7123C30.4236 96.6389 31.0743 94.5683 32.473 92.4936C31.5943 91.3909 30.717 90.1869 30.1303 88.8829C31.1063 87.9136 31.789 87.2443 32.9596 86.7763C31.205 84.4709 30.3916 81.7296 29.741 79.1536Z" fill="#231F20"/>
<path d="M36.1706 95.776L26.8346 100.576M24.0626 76.0547L37.8439 83.1L24.0626 76.0547Z" stroke="#034EA1" stroke-width="0.945333" stroke-miterlimit="2.613"/>
<path d="M98.0325 21.5443L97.6445 37.7003C97.6445 37.7003 98.5379 58.239 88.8765 58.0096C79.2139 57.7776 72.6472 46.2896 71.9739 43.5203" stroke="#034EA1" stroke-width="1.13333" stroke-miterlimit="2.613"/>
<path fill-rule="evenodd" clip-rule="evenodd" d="M49.8151 65.7865L51.0071 64.4785C51.0071 64.4785 64.3417 75.8411 64.3417 81.1611C64.3417 86.4838 62.9764 88.7398 60.6017 91.0678C59.0404 92.5998 56.0377 94.5918 53.2924 97.5678C48.7217 102.526 43.2737 109.398 41.4764 113.093L25.3244 101.564L27.6711 99.9371L41.0444 109.398C41.0444 109.398 49.3377 97.7705 51.4964 95.8491C53.6537 93.9265 61.5764 89.1198 62.0404 84.2651C62.5084 79.4131 59.0871 74.8091 58.8777 74.9531C55.7137 72.0438 52.9817 68.6958 49.8151 65.7865Z" fill="#CE482C"/>
<path fill-rule="evenodd" clip-rule="evenodd" d="M84.4505 21.6706L63.0852 60.0252L89.0665 83.6532L94.0945 63.3052L99.4879 61.6266L100.66 62.5079C101.12 63.0906 101.639 63.6492 101.843 64.3172L95.2559 91.2479L93.6692 89.3692L90.4852 95.1826L89.6212 95.3492L88.1825 95.5026L86.6399 92.4346L53.3692 61.4746L61.8465 49.9972L77.5505 21.6706H84.4505Z" fill="#231F20"/>
<path fill-rule="evenodd" clip-rule="evenodd" d="M59.7864 64.741C59.7864 64.741 62.1171 63.4583 60.6917 62.437C59.2664 61.4156 57.9584 63.6063 58.5357 64.9796C59.1131 66.3516 61.1731 67.533 61.1731 67.533L62.5397 67.681C62.4717 67.6743 62.1691 69.3663 63.9517 70.2703C65.7331 71.177 66.7811 69.513 66.0997 68.789C65.4224 68.0663 64.7277 68.693 64.4171 69.2236C64.1051 69.7556 63.3131 67.9996 64.2904 67.2943C65.2677 66.909 67.0691 66.6823 68.0437 68.453C69.0211 70.2223 68.1531 71.9356 67.4411 71.1223C66.7344 70.3103 65.1477 71.313 66.0611 72.2796C66.9744 73.2476 67.6691 72.7636 67.6691 72.7636C67.6691 72.7636 67.3891 74.357 68.6411 74.497C69.8917 74.6383 70.4104 73.2116 69.4984 72.7263C68.5864 72.2423 70.0651 70.9143 71.7024 71.797C73.3411 72.677 72.9157 74.6036 72.8757 74.8823C72.8371 75.161 72.3704 75.9303 71.5464 74.4063C70.7264 72.8796 68.7584 74.8516 70.0931 76.1383C71.4291 77.425 72.6717 76.5543 72.6717 76.5543C72.6717 76.5543 73.1144 79.2396 74.8357 80.8183C76.5584 82.3956 78.7211 81.2756 78.7211 79.5996C78.7184 78.5543 78.1331 78.2703 77.3157 78.321C76.5024 78.3703 76.4797 79.109 76.9571 79.8796C76.6771 80.7676 75.1171 79.109 74.8011 78.1823C74.4851 77.2583 74.5864 75.765 74.8944 75.6063C75.2051 75.4463 77.2717 76.673 76.6811 74.1036C76.4544 73.109 75.0277 73.3876 74.6384 73.5463C74.5637 73.5463 74.2531 69.7663 70.2064 69.917C70.1264 68.433 69.9651 66.1796 65.7144 65.5623C65.7424 62.6303 62.5224 63.3983 63.1357 65.529C62.4331 67.2636 60.0064 65.9223 59.7864 64.741Z" fill="#CE482C"/>
<path fill-rule="evenodd" clip-rule="evenodd" d="M80.1862 82.0079C80.1862 82.0079 81.5022 82.3626 81.6888 81.4292C81.8795 80.4999 80.9342 79.8199 80.0982 80.1586C79.2608 80.4999 78.4115 81.2999 78.6008 82.9972C78.7915 84.6946 79.7795 85.5906 81.2742 86.5266C82.7715 87.4652 83.3555 87.1906 83.6502 87.0386C83.9435 86.8879 83.3208 88.5706 84.4662 89.3706C85.6102 90.1719 86.3902 90.2186 86.0528 88.9679C85.7142 87.7186 84.7542 86.8532 85.5675 86.1012C86.3822 85.3519 87.3582 86.0586 87.4782 85.9506L88.5102 85.0039C87.9342 84.2999 87.2262 83.8799 86.3395 83.8986C86.0435 83.6666 86.2768 82.4719 85.1395 82.1532C84.0022 81.8359 83.1222 82.8679 83.5022 83.7106C83.8808 84.5559 84.9368 85.3279 83.7755 85.4746C82.7662 85.6692 79.8502 85.1319 80.1862 82.0079Z" fill="#CE482C"/>
<path fill-rule="evenodd" clip-rule="evenodd" d="M90.0183 91.0807C90.717 91.0807 91.2877 90.4967 91.2877 89.7807C91.2877 89.0647 90.717 88.482 90.0183 88.482C89.3183 88.482 88.745 89.0647 88.745 89.7807C88.745 90.4967 89.3183 91.0807 90.0183 91.0807Z" fill="#CE482C"/>
<path fill-rule="evenodd" clip-rule="evenodd" d="M90.0183 93.9336C90.717 93.9336 91.2877 93.2843 91.2877 92.4856C91.2877 91.6869 90.717 91.0376 90.0183 91.0376C89.3183 91.0376 88.745 91.6869 88.745 92.4856C88.745 93.2843 89.3183 93.9336 90.0183 93.9336Z" fill="#CE482C"/>
<path fill-rule="evenodd" clip-rule="evenodd" d="M96.9167 65.3841C96.9167 65.3841 98.1473 66.8601 98.97 66.1228C99.79 65.3841 99.4793 64.1201 98.6606 63.6975C97.8393 63.2761 96.2007 63.3815 95.278 64.2241C94.354 65.0681 93.806 68.3468 95.4833 69.2855C96.6113 69.9161 93.534 69.1801 92.8153 71.1828C92.0993 73.1855 94.0473 73.5001 94.4553 73.5001C94.8673 73.5001 96.2007 73.0788 95.174 71.8148C94.1473 70.5495 96.814 70.8655 96.6113 72.8681C96.4033 74.8708 94.798 76.2081 94.2513 75.6095C93.706 75.0108 93.738 73.7121 92.714 74.4495C91.6887 75.1881 93.1233 76.3828 92.5087 76.7681C91.8913 77.1561 91.79 77.4361 91.79 78.3521C92.166 79.1588 92.8487 78.9121 93.3287 78.5615C93.8073 78.2095 94.4567 78.2455 94.662 79.1935C94.8673 80.1428 95.07 82.2495 93.6367 82.5681C92.202 82.8828 92.714 81.9348 92.714 81.9348C92.714 81.9348 94.3007 80.6508 92.918 79.8255C92.078 79.3255 90.558 79.9321 90.6607 81.5135C90.7647 83.0935 91.3793 83.1988 91.3793 83.1988C91.3793 83.1988 89.738 84.3588 90.8673 85.2028C91.9953 86.0468 92.918 84.6041 92.714 85.0961C92.5087 85.5895 95.5553 86.4895 94.662 83.9375C94.2767 82.8388 95.8913 83.0935 95.994 80.8801C96.098 78.6668 95.5833 78.1375 95.278 77.4015C95.8913 77.0855 97.722 75.5055 98.046 72.3415C97.2433 69.5988 97.7407 70.3388 97.8393 70.3388C97.942 70.3388 99.3793 67.9135 96.714 67.9135C95.994 68.1268 95.8913 65.2788 96.9167 65.3841Z" fill="#CE482C"/>
<path fill-rule="evenodd" clip-rule="evenodd" d="M89.694 95.125L88.682 96.6556C87.186 95.885 86.1087 93.8023 86.1087 91.3663C86.1087 88.2756 87.8394 85.757 89.962 85.757C91.5874 85.757 93.0367 87.341 93.602 89.4196L92.306 91.2996C92.3074 91.2663 92.3074 91.2343 92.3074 91.201C92.3074 88.9943 91.198 87.129 89.8794 87.129C88.5567 87.129 87.4807 88.9276 87.4807 91.133C87.4807 93.2356 88.4607 94.969 89.694 95.125Z" fill="#CE482C"/>
<path fill-rule="evenodd" clip-rule="evenodd" d="M97.8268 151.925C97.9628 150.102 98.3735 146.173 99.7388 144.487H94.3735C94.3735 144.487 96.9748 150.242 95.8841 152.909C95.2401 154.247 95.0161 153.29 94.7495 151.954C94.0161 147.381 87.2948 147.561 86.1335 151.622C84.9695 155.682 87.1148 159.361 90.8815 164.122C94.6481 168.882 96.4081 172.731 97.1815 175.083C97.9668 170.771 104.024 163.151 106.641 159.01C109.256 154.871 108.275 150.179 105.288 148.897C102.303 147.611 99.2415 150.055 98.9255 152.519C98.6721 154.498 97.7615 152.79 97.8268 151.925Z" fill="#231F20"/>
<path fill-rule="evenodd" clip-rule="evenodd" d="M85.5782 137.599L101.685 122.52C101.685 122.52 100.389 118.824 97.8022 118.678C95.2155 118.528 96.0768 117.051 92.4808 117.051C88.8835 117.051 87.3022 118.972 87.3022 118.972L76.5155 128.434L85.5782 137.599Z" fill="#034EA1"/>
<path fill-rule="evenodd" clip-rule="evenodd" d="M82.0248 141.913L84.3875 138.909C79.9235 135.264 75.9368 131.325 73.0061 126.734C71.7021 124.724 70.5741 121.945 71.1648 119.642L55.1821 106.404H47.2475L45.6995 108.428L82.0248 141.913Z" fill="#EC1C24"/>
<path fill-rule="evenodd" clip-rule="evenodd" d="M81.6277 106.286H67.141L74.2703 113.024L81.6277 106.286Z" fill="#034EA1"/>
<path d="M39.621 181.842C39.4264 180.002 38.8837 178.532 37.165 178.284" stroke="#034EA1" stroke-width="1.13333" stroke-miterlimit="2.613"/>
<path d="M40.9727 181.842C40.7754 180.002 39.9994 177.305 37.642 176.73" stroke="#034EA1" stroke-width="1.13333" stroke-miterlimit="2.613"/>
<path d="M48.7982 181.842C49.3128 179.593 50.6075 176.242 53.8768 177.098" stroke="#034EA1" stroke-width="1.13333" stroke-miterlimit="2.613"/>
<path d="M42.2826 181.842C42.1653 179.838 40.7119 175.997 37.7213 175.26" stroke="#034EA1" stroke-width="1.13333" stroke-miterlimit="2.613"/>
<path d="M47.6875 181.842C47.8035 179.838 49.5355 174.609 54.8288 175.381" stroke="#034EA1" stroke-width="1.13333" stroke-miterlimit="2.613"/>
<path d="M43.8724 181.842C43.7564 179.838 42.1417 174.038 37.7617 173.217" stroke="#034EA1" stroke-width="1.13333" stroke-miterlimit="2.613"/>
<path d="M46.3347 181.842C46.4134 179.146 48.464 172.893 55.7854 173.79" stroke="#034EA1" stroke-width="1.13333" stroke-miterlimit="2.613"/>
<path fill-rule="evenodd" clip-rule="evenodd" d="M83.7123 181.842C82.4816 179.262 79.3149 166.377 83.1483 156.948L73.2536 153.386L58.2976 181.842H83.7123Z" fill="#CE482C"/>
<path d="M45.1028 181.842C44.9855 179.838 44.2882 173.546 37.6802 171.666" stroke="#034EA1" stroke-width="1.13333" stroke-miterlimit="2.613"/>
<path d="M45.1028 181.842C45.2188 176.734 48.3028 170.933 57.1334 172.484" stroke="#034EA1" stroke-width="1.13333" stroke-miterlimit="2.613"/>
<path d="M63.7917 181.853C63.7917 181.853 63.7917 175.685 69.9091 175.212C69.0997 171.77 69.3304 166.789 75.2144 165.604C73.8317 160.112 75.6411 158.136 79.9477 155.878" stroke="#231F20" stroke-width="1.13333" stroke-miterlimit="2.613"/>
<path fill-rule="evenodd" clip-rule="evenodd" d="M67.9024 174.488C67.5264 174.488 67.2238 174.178 67.2238 173.794C67.2238 173.411 67.5264 173.102 67.9024 173.102C68.2758 173.102 68.5798 173.411 68.5798 173.794C68.5798 174.178 68.2758 174.488 67.9024 174.488Z" fill="#231F20"/>
<path fill-rule="evenodd" clip-rule="evenodd" d="M66.1706 181.529C65.6706 181.529 65.2653 181.117 65.2653 180.605C65.2653 180.097 65.6706 179.682 66.1706 179.682C66.6679 179.682 67.0746 180.097 67.0746 180.605C67.0746 181.117 66.6679 181.529 66.1706 181.529Z" fill="#231F20"/>
<path fill-rule="evenodd" clip-rule="evenodd" d="M69.4063 180.37C68.9903 180.37 68.6556 180.023 68.6556 179.598C68.6556 179.172 68.9903 178.828 69.4063 178.828C69.8223 178.828 70.1583 179.172 70.1583 179.598C70.1583 180.023 69.8223 180.37 69.4063 180.37Z" fill="#231F20"/>
<path fill-rule="evenodd" clip-rule="evenodd" d="M74.6042 170.925C74.1868 170.925 73.8508 170.581 73.8508 170.157C73.8508 169.73 74.1868 169.386 74.6042 169.386C75.0188 169.386 75.3548 169.73 75.3548 170.157C75.3548 170.581 75.0188 170.925 74.6042 170.925Z" fill="#231F20"/>
<path fill-rule="evenodd" clip-rule="evenodd" d="M79.832 161.24C79.416 161.24 79.08 160.894 79.08 160.47C79.08 160.045 79.416 159.7 79.832 159.7C80.248 159.7 80.5854 160.045 80.5854 160.47C80.5854 160.894 80.248 161.24 79.832 161.24Z" fill="#231F20"/>
<path fill-rule="evenodd" clip-rule="evenodd" d="M73.5482 173.092C73.1335 173.092 72.7975 172.747 72.7975 172.322C72.7975 171.898 73.1335 171.552 73.5482 171.552C73.9655 171.552 74.3002 171.898 74.3002 172.322C74.3002 172.747 73.9655 173.092 73.5482 173.092Z" fill="#231F20"/>
<path fill-rule="evenodd" clip-rule="evenodd" d="M78.7448 163.648C78.3275 163.648 77.9928 163.304 77.9928 162.878C77.9928 162.454 78.3275 162.107 78.7448 162.107C79.1621 162.107 79.4968 162.454 79.4968 162.878C79.4968 163.304 79.1621 163.648 78.7448 163.648Z" fill="#231F20"/>
<path fill-rule="evenodd" clip-rule="evenodd" d="M73.1732 164.888C72.7986 164.888 72.4946 164.579 72.4946 164.195C72.4946 163.812 72.7986 163.503 73.1732 163.503C73.5479 163.503 73.8506 163.812 73.8506 164.195C73.8506 164.579 73.5479 164.888 73.1732 164.888Z" fill="#231F20"/>
<path fill-rule="evenodd" clip-rule="evenodd" d="M72.1706 179.315C72.1306 180.198 70.7279 180.503 70.7746 179.315C70.8239 178.127 71.7386 177.239 71.7386 177.239C71.8492 177.914 72.2119 178.434 72.1706 179.315Z" fill="#231F20"/>
<path fill-rule="evenodd" clip-rule="evenodd" d="M77.3659 169.872C77.3286 170.754 75.9246 171.058 75.9712 169.872C76.0192 168.684 76.9352 167.794 76.9352 167.794C77.0446 168.471 77.4072 168.991 77.3659 169.872Z" fill="#231F20"/>
<path fill-rule="evenodd" clip-rule="evenodd" d="M82.5951 160.186C82.5564 161.07 81.1524 161.374 81.2004 160.185C81.2484 159 82.1631 158.109 82.1631 158.109C82.2751 158.785 82.6351 159.305 82.5951 160.186Z" fill="#231F20"/>
<path fill-rule="evenodd" clip-rule="evenodd" d="M74.6497 176.883C75.4137 177.295 74.9951 178.723 74.0577 178.178C73.1231 177.628 72.3857 176.407 72.3857 176.407C73.0311 176.588 73.8857 176.471 74.6497 176.883Z" fill="#231F20"/>
<path fill-rule="evenodd" clip-rule="evenodd" d="M79.8464 167.44C80.6091 167.851 80.1891 169.281 79.2544 168.732C78.3184 168.185 77.5811 166.961 77.5811 166.961C78.2264 167.143 79.0811 167.028 79.8464 167.44Z" fill="#231F20"/>
<path fill-rule="evenodd" clip-rule="evenodd" d="M74.1342 173.573C74.7622 173.082 75.7608 173.989 74.9555 174.573C74.1515 175.157 72.8755 175.31 72.8755 175.31C73.2728 174.83 73.5075 174.065 74.1342 173.573Z" fill="#231F20"/>
<path fill-rule="evenodd" clip-rule="evenodd" d="M79.3295 164.13C79.9575 163.638 80.9548 164.548 80.1521 165.128C79.3468 165.712 78.0721 165.868 78.0721 165.868C78.4681 165.388 78.7015 164.62 79.3295 164.13Z" fill="#231F20"/>
<path fill-rule="evenodd" clip-rule="evenodd" d="M72.685 174.358L71.7463 175.888C71.7463 175.888 70.1836 174.188 70.4556 172.412C70.7303 170.638 71.317 170.5 71.8263 170.901C72.333 171.302 71.9503 171.974 71.5596 172.057C71.1676 172.144 71.4343 172.993 71.785 173.513C72.1383 174.04 72.685 174.358 72.685 174.358Z" fill="#231F20"/>
<path fill-rule="evenodd" clip-rule="evenodd" d="M77.8815 164.914L76.9428 166.443C76.9428 166.443 75.3775 164.742 75.6508 162.969C75.9241 161.194 76.5135 161.055 77.0201 161.457C77.5281 161.859 77.1455 162.531 76.7548 162.614C76.3628 162.698 76.6295 163.547 76.9815 164.07C77.3348 164.594 77.8815 164.914 77.8815 164.914Z" fill="#231F20"/>
<path fill-rule="evenodd" clip-rule="evenodd" d="M70.556 177.542L71.5853 176.076C71.5853 176.076 69.3333 175.739 68.0427 176.606C66.7507 177.471 66.7573 178.487 67.3133 178.818C67.868 179.148 68.4547 178.563 68.26 178.098C68.068 177.634 68.7733 177.266 69.3893 177.291C70.0067 177.318 70.556 177.542 70.556 177.542Z" fill="#231F20"/>
<path fill-rule="evenodd" clip-rule="evenodd" d="M75.75 168.099L76.7807 166.634C76.7807 166.634 74.5287 166.296 73.238 167.162C71.9473 168.026 71.9527 169.044 72.5073 169.372C73.0647 169.703 73.6527 169.12 73.4553 168.655C73.2647 168.19 73.97 167.822 74.586 167.847C75.202 167.875 75.75 168.099 75.75 168.099Z" fill="#231F20"/>
<path fill-rule="evenodd" clip-rule="evenodd" d="M80.9793 158.413L82.0086 156.947C82.0086 156.947 79.7579 156.611 78.4673 157.477C77.1766 158.341 77.1819 159.357 77.7366 159.689C78.2939 160.018 78.8806 159.434 78.6859 158.969C78.4926 158.503 79.1993 158.135 79.8153 158.162C80.4313 158.19 80.9793 158.413 80.9793 158.413Z" fill="#231F20"/>
<path fill-rule="evenodd" clip-rule="evenodd" d="M46.8424 148.711C46.8424 148.711 46.4957 148.948 45.7744 148.948C45.0504 148.948 44.4037 148.604 44.4664 148.711C44.5304 148.818 44.6544 149.11 45.2584 149.346C45.3157 149.368 45.3677 149.386 45.4117 149.402C45.4024 149.404 45.3891 149.408 45.3784 149.411C44.6677 149.662 44.5197 149.97 44.4437 150.08C44.3704 150.192 45.1357 149.831 45.9877 149.831C46.8424 149.831 47.2477 150.08 47.2477 150.08C46.9944 149.536 46.7224 149.411 46.1931 149.411C46.0797 149.406 46.0344 149.375 45.9877 149.344C46.4104 149.338 46.6331 149.211 46.8424 148.711ZM49.9277 152.043C49.9277 152.043 49.0437 151.732 48.3851 152.002C47.9797 152.17 47.0371 153.008 46.5557 152.378C46.1104 151.794 45.9064 152.043 45.9064 152.043C45.9064 152.043 45.7451 152.462 45.1757 152.544C44.6064 152.628 44.3637 152.378 44.1197 152.334C43.8757 152.294 43.4411 152.104 43.0637 152.462C42.8184 152.69 42.7584 152.272 42.6784 151.88C42.5957 151.491 42.4944 151.126 42.4944 151.126C42.4944 151.126 42.6264 151.226 43.2264 151.334C43.9171 151.459 43.9957 151.208 44.5664 150.999C45.1357 150.79 45.7451 150.247 46.7197 150.707C47.6957 151.167 49.1997 150.834 50.0504 150.164C49.9717 150.667 50.0117 151.167 49.9277 152.043ZM38.8917 165.568C38.4651 165.586 37.9851 165.604 37.6704 165.282C37.6704 165.282 39.1691 163.854 39.1144 164.37C39.0584 164.883 38.8917 165.568 38.8917 165.568ZM41.6704 165.511H41.3011C41.3491 165.023 41.0864 164.596 40.7237 164.596C39.9477 164.596 39.9477 165.511 39.9477 165.511C39.9477 165.511 39.2904 165.771 39.5024 165.052C39.7117 164.336 39.8344 163.854 40.7237 163.854C41.6131 163.854 41.6704 165.511 41.6704 165.511V165.511ZM42.3357 165.454C42.3904 164.768 41.8904 164.083 41.8904 164.083C41.8904 164.083 42.1131 164.026 42.6131 164.255C43.1117 164.483 43.5557 165.167 43.5557 165.167L42.3357 165.454ZM43.3357 166.88C43.0011 166.938 42.3357 167.794 40.3917 167.566C38.4464 167.339 38.2797 166.479 38.2264 166.479C38.1691 166.479 39.1691 166.651 40.5571 166.708C41.9464 166.766 43.3357 166.367 43.3357 166.367V166.88ZM42.8344 167.85C42.5704 168.571 40.9477 169.279 39.2824 168.763C37.6144 168.25 37.8357 168.079 37.8357 168.079C37.8357 168.079 37.4477 166.995 38.2264 167.508C38.6797 168.116 41.4904 168.558 42.8344 167.85V167.85ZM37.8357 170.19C37.8357 170.19 41.5011 170.418 42.5584 169.391C43.6104 168.364 44.3344 166.594 44.1677 164.654C44.0011 162.714 43.1117 157.35 43.1117 157.35C43.1117 157.35 44.5037 156.308 44.6117 155.922C44.7237 155.52 44.7237 154.894 44.1131 155.406C43.5011 155.922 42.4517 156.875 42.5011 157.12L43.7237 162.884L43.2784 162.998L42.6677 162.427L42.3904 162.656L43.2237 163.399V164.083C43.2237 164.083 41.9464 163.17 40.1144 163.399C38.2797 163.626 37.8944 164.483 37.8944 164.483L37.8357 170.19ZM49.7197 157.406C49.7197 157.406 49.6077 155.52 48.7757 155.635C47.9424 155.747 46.8677 156.832 46.3331 156.776C45.7971 156.722 45.2797 156.607 45.3891 156.091C45.4997 155.578 46.3331 155.406 47.0544 155.294C47.7771 155.18 48.8091 154.702 49.3304 155.123C49.8557 155.542 50.2744 156.091 49.7197 157.406V157.406ZM52.2744 165.854C52.2744 165.854 52.6664 164.854 51.9397 164.37C51.2171 163.883 50.6091 164.198 50.3304 164.426C50.0531 164.654 49.5371 165.271 49.9437 165.624C50.2144 165.862 50.1651 164.768 50.9957 164.711C51.8291 164.654 52.2744 165.854 52.2744 165.854V165.854ZM52.8304 165.683C53.4397 165.624 53.7637 165.546 54.1637 165.112C54.5584 164.675 52.0931 164.259 52.6064 164.711C52.9957 165.052 52.8304 165.683 52.8304 165.683V165.683ZM50.1091 167.908C53.8757 168.054 55.0504 166.252 55.0504 166.252C55.0504 166.252 54.5504 166.08 53.4957 166.479C52.9704 166.68 52.2464 166.88 51.5891 166.864C50.9277 166.851 50.3304 166.623 49.8331 166.651C48.8317 166.708 48.2224 167.508 48.2224 167.508L48.3331 166.766C48.3331 166.766 49.0544 166.31 48.5531 165.511C48.0531 164.711 47.8517 165.434 48.3331 164.198C48.8144 162.962 49.5717 162.315 50.2184 162.143C49.5357 163.342 48.7544 164.148 50.6637 163.796C53.1931 163.336 54.6064 164.883 54.6064 164.883H57.2171V165.568C57.2171 165.568 56.5504 165.795 54.8837 167.279C53.2171 168.766 50.5171 168.29 50.1091 167.908V167.908ZM46.8331 168.716C46.1571 168.716 48.1984 171.076 51.0717 170.763C53.4451 170.504 53.9264 169.872 55.5717 168.896C53.9731 169.271 51.2571 169.615 49.0104 169.35C47.8304 169.21 47.0131 168.716 46.8331 168.716" fill="#034EA1"/>
<path fill-rule="evenodd" clip-rule="evenodd" d="M60.224 181.716L75.0253 154.368L73.548 153.39L57.844 181.716H60.224Z" fill="#EC1C24"/>
<path d="M60.224 181.716L75.0253 154.368" stroke="#034EA1" stroke-width="1.512" stroke-miterlimit="2.613"/>
<path fill-rule="evenodd" clip-rule="evenodd" d="M72.3125 143.361L46.3285 119.733L41.3005 140.083L36.1299 141.999L42.4925 146.753C49.7259 142.874 58.7125 149.919 63.3005 159.378L72.3125 143.361Z" fill="#CE482C"/>
<path fill-rule="evenodd" clip-rule="evenodd" d="M37.6927 171.095C36.594 164.964 33.494 145.916 34.7327 140.878C36.7753 141.927 41.2673 146.124 42.4927 146.752C38.8927 149.7 38.322 157.644 37.6927 171.095Z" fill="#034EA1"/>
<path fill-rule="evenodd" clip-rule="evenodd" d="M68.6342 150.943C68.7875 150.511 68.9395 150.173 69.0928 149.743C64.1062 147.971 57.5608 146.401 52.4795 146.656C53.5502 147.401 54.6182 148.147 55.6875 148.893C59.5475 148.364 64.7795 150.056 68.6342 150.943Z" fill="#034EA1"/>
<path d="M58.5522 151.602C58.5522 151.602 58.5522 149.363 58.0922 148.187" stroke="#034EA1" stroke-width="0.945333" stroke-miterlimit="2.613"/>
<path d="M60.6146 154.31C60.6146 154.31 60.3839 150.07 59.8119 148.422" stroke="#034EA1" stroke-width="0.945333" stroke-miterlimit="2.613"/>
<path d="M63.1563 158.596L61.7603 148.187" stroke="#034EA1" stroke-width="0.945333" stroke-miterlimit="2.613"/>
<path d="M64.6706 157.255L63.3639 149.129" stroke="#034EA1" stroke-width="0.945333" stroke-miterlimit="2.613"/>
<path d="M66.0208 155.419L64.8262 149.225" stroke="#034EA1" stroke-width="0.945333" stroke-miterlimit="2.613"/>
<path d="M70.2617 148.216C70.2617 148.216 61.7284 144.44 55.2097 144.159C49.9151 143.93 43.3737 144.758 40.4017 145.23" stroke="#00A551" stroke-width="0.945333" stroke-miterlimit="2.613"/>
<path d="M63.0742 139.197L46.1742 123.154L42.3889 138.247C42.3889 138.247 45.8289 137.669 50.5169 137.769C54.3956 137.85 58.9742 138.422 63.0742 139.197Z" stroke="#00A551" stroke-width="0.945333" stroke-miterlimit="2.613"/>
<path fill-rule="evenodd" clip-rule="evenodd" d="M70.2904 143.128C71.5677 143.573 72.2811 143.876 72.2811 143.876L73.5971 144.865L72.8144 146.974L69.3611 145.633L70.2904 143.128ZM68.7437 142.612C68.1171 142.414 67.4224 142.201 66.6611 141.986L65.7597 144.494L67.9211 145.17L68.7437 142.612ZM64.8597 141.5C64.1891 141.329 63.4837 141.158 62.7437 140.997L62.0957 143.505L64.3091 143.97L64.8597 141.5ZM60.8317 140.601C60.1464 140.469 59.4397 140.344 58.7131 140.229L58.3704 142.99L60.5277 143.216L60.8317 140.601ZM56.9824 139.98C56.1797 139.876 55.3571 139.781 54.5197 139.709L54.3984 142.612L56.6491 142.836L56.9824 139.98ZM52.9117 139.589C52.1624 139.544 51.4397 139.517 50.7411 139.505L50.8264 142.504L52.8117 142.584L52.9117 139.589ZM49.1971 139.505C48.3971 139.52 47.6317 139.552 46.9037 139.602L47.1024 142.802L49.1664 142.742L49.1971 139.505ZM45.1277 139.762C44.3237 139.852 43.5717 139.96 42.8731 140.08L43.4917 143.36L45.5411 143.097L45.1277 139.762ZM41.2677 140.388C40.4371 140.568 39.6957 140.758 39.0477 140.94L39.9984 143.37L40.7491 144.016L42.2517 143.458L41.2677 140.388Z" fill="#231F20"/>
<path d="M57.1511 136.012H44.4564L46.8924 126.448L57.1511 136.012Z" stroke="#00A551" stroke-width="0.945333" stroke-miterlimit="2.613"/>
<path d="M53.2852 136.012H46.9492L49.0932 134.149L53.2852 136.012Z" stroke="#00A551" stroke-width="0.945333" stroke-miterlimit="2.613"/>
<path d="M44.4584 136.012L48.8291 132.669L56.3864 135.374" stroke="#00A551" stroke-width="0.945333" stroke-miterlimit="2.613"/>
<path d="M45.0781 133.51L48.2088 131.296L53.8581 132.97" stroke="#00A551" stroke-width="0.945333" stroke-miterlimit="2.613"/>
<path d="M45.5091 131.401L47.8264 129.629L51.4264 130.762" stroke="#00A551" stroke-width="0.945333" stroke-miterlimit="2.613"/>
<path d="M46.1758 129.49C47.3998 128.182 47.7998 127.968 49.4211 128.802" stroke="#00A551" stroke-width="0.945333" stroke-miterlimit="2.613"/>
<path fill-rule="evenodd" clip-rule="evenodd" d="M99.3033 129.579C99.3033 129.579 98.3753 126.253 95.118 125.377C91.8633 124.499 90.106 121.817 90.6313 119.971C91.5033 119.898 91.7713 119.946 92.3527 119.894C92.3527 119.894 94.1247 122.861 95.9247 123.218C97.8753 123.607 99.5127 125.709 100.251 126.887C100.99 128.067 101.209 129.343 101.209 129.343L99.3033 129.579Z" fill="#CE482C"/>
<path fill-rule="evenodd" clip-rule="evenodd" d="M89.1146 128.813C89.1146 128.813 88.6052 128.638 88.1812 128.023C87.5172 127.062 87.1026 124.687 87.4306 123.053C87.9679 120.394 88.0466 120.854 88.4026 120.421C88.7599 119.987 90.0572 119.321 90.2172 121.851C90.0239 125.15 89.1146 128.813 89.1146 128.813Z" fill="#CE482C"/>
<path fill-rule="evenodd" clip-rule="evenodd" d="M76.2331 123.182L79.6678 120.469L82.7518 121.825L81.1651 118.928L83.2798 115.308L79.6678 118.113L76.3211 115.758L78.2598 119.29L76.2331 123.182Z" fill="#034EA1"/>
<path fill-rule="evenodd" clip-rule="evenodd" d="M91.5599 106.25L94.9959 103.895L98.1679 105.798L96.0532 102.538L97.9905 98.826L94.7305 101.179L91.4732 99.7313L93.4972 102.63L91.5599 106.25Z" fill="#034EA1"/>
<path fill-rule="evenodd" clip-rule="evenodd" d="M87.8165 110.934C89.0125 110.518 89.9858 110.528 89.3271 109.947C88.9591 109.623 89.4778 108.988 90.3551 108.596L91.2338 107.548L87.8671 109.424L84.3911 107.352L86.6271 110.687L84.0485 114.276L87.7658 112.848C87.0751 112.268 86.9405 109.962 87.8165 110.934Z" fill="#034EA1"/>
<path fill-rule="evenodd" clip-rule="evenodd" d="M79.6185 115.578C79.1052 115.578 78.6892 115.151 78.6892 114.625C78.6892 114.099 79.1052 113.673 79.6185 113.673C80.1332 113.673 80.5492 114.099 80.5492 114.625C80.5492 115.151 80.1332 115.578 79.6185 115.578Z" fill="#034EA1"/>
<path fill-rule="evenodd" clip-rule="evenodd" d="M94.6836 99.0066C94.1676 99.0066 93.7516 98.5813 93.7516 98.0546C93.7516 97.5306 94.1676 97.1039 94.6836 97.1039C95.1969 97.1039 95.6129 97.5306 95.6129 98.0546C95.6129 98.5813 95.1969 99.0066 94.6836 99.0066Z" fill="#034EA1"/>
<path fill-rule="evenodd" clip-rule="evenodd" d="M84.5521 119.654C84.0375 119.654 83.6215 119.227 83.6215 118.7C83.6215 118.175 84.0375 117.75 84.5521 117.75C85.0668 117.75 85.4815 118.175 85.4815 118.7C85.4815 119.227 85.0668 119.654 84.5521 119.654Z" fill="#034EA1"/>
<path fill-rule="evenodd" clip-rule="evenodd" d="M99.7044 102.901C99.1884 102.901 98.7724 102.474 98.7724 101.948C98.7724 101.425 99.1884 100.997 99.7044 100.997C100.216 100.997 100.634 101.425 100.634 101.948C100.634 102.474 100.216 102.901 99.7044 102.901Z" fill="#034EA1"/>
<path fill-rule="evenodd" clip-rule="evenodd" d="M88.3399 107.065C87.8239 107.065 87.4079 106.641 87.4079 106.114C87.4079 105.589 87.8239 105.164 88.3399 105.164C88.8532 105.164 89.2692 105.589 89.2692 106.114C89.2692 106.641 88.8532 107.065 88.3399 107.065Z" fill="#034EA1"/>
<path d="M86.4375 115.716C86.2082 115.716 85.5895 114.204 86.2002 113.206C86.8068 112.206 86.9175 111.052 88.4988 109.398C89.7388 108.099 96.5708 107.756 97.0628 108.87C97.5548 110.878 97.4215 116.572 95.7868 118.123C95.3802 118.51 95.5295 119.159 95.2042 119.236C90.8642 120.25 83.9655 118.24 86.4375 115.716Z" stroke="#034EA1" stroke-width="0.945333" stroke-miterlimit="2.613"/>
<path d="M86.4427 115.776C87.3134 115.475 90.308 115.576 91.856 116.669" stroke="#034EA1" stroke-width="0.945333" stroke-miterlimit="2.613"/>
<path d="M86.056 113.49C86.8294 113.091 90.1147 112.596 92.2414 113.49" stroke="#034EA1" stroke-width="0.945333" stroke-miterlimit="2.613"/>
<path d="M87.4088 110.809C88.1821 110.41 91.1781 110.411 93.6915 111.107" stroke="#034EA1" stroke-width="0.945333" stroke-miterlimit="2.613"/>
<path fill-rule="evenodd" clip-rule="evenodd" d="M65.8751 106.286H67.1405L74.2711 113.024L73.8445 113.42L65.8751 106.286Z" fill="#CE482C"/>
<path fill-rule="evenodd" clip-rule="evenodd" d="M65.8751 106.286H64.0364L72.7764 114.56L73.8444 113.42L65.8751 106.286Z" fill="#231F20"/>
<path fill-rule="evenodd" clip-rule="evenodd" d="M60.8151 106.286H64.0364L72.7764 114.56L71.8897 116.612L60.8151 106.286Z" fill="#CE482C"/>
<path fill-rule="evenodd" clip-rule="evenodd" d="M60.8151 106.287H59.6671L71.6258 117.633L71.8898 116.612L60.8151 106.287Z" fill="#00A551"/>
<path fill-rule="evenodd" clip-rule="evenodd" d="M58.0574 106.286H59.6667L71.6267 117.633L71.3134 119.093L58.0574 106.286Z" fill="#231F20"/>
<path fill-rule="evenodd" clip-rule="evenodd" d="M58.0574 106.286H54.2627L68.5214 120.114C69.9147 120.961 71.1507 121.412 71.3134 119.093L58.0574 106.286Z" fill="#CE482C"/>
<path d="M54.2631 106.286L68.5204 120.114C69.9137 120.961 71.1511 121.412 71.3137 119.093" stroke="#00A551" stroke-width="0.945333" stroke-miterlimit="2.613"/>
<path fill-rule="evenodd" clip-rule="evenodd" d="M81.8438 140.137L82.2491 140.433L82.9051 139.495L82.4971 139.198L81.8438 140.137Z" fill="#D44C2D"/>
<path fill-rule="evenodd" clip-rule="evenodd" d="M76.4194 134.883L76.826 135.177L77.4807 134.24L77.0754 133.945L76.4194 134.883Z" fill="#D44C2D"/>
<path fill-rule="evenodd" clip-rule="evenodd" d="M73.474 132.161L73.866 132.476L74.8807 131.451L74.4887 131.133L73.474 132.161Z" fill="#D44C2D"/>
<path fill-rule="evenodd" clip-rule="evenodd" d="M68.1758 127.228L68.5664 127.544L69.9544 125.875L69.5624 125.56L68.1758 127.228Z" fill="#D44C2D"/>
<path fill-rule="evenodd" clip-rule="evenodd" d="M62.5326 122.003L62.9326 122.325L64.3473 120.624L63.9499 120.303L62.5326 122.003Z" fill="#D44C2D"/>
<path fill-rule="evenodd" clip-rule="evenodd" d="M56.6746 116.685L57.0732 117.005L58.4892 115.308L58.0892 114.984L56.6746 116.685Z" fill="#D44C2D"/>
<path fill-rule="evenodd" clip-rule="evenodd" d="M50.9388 111.238L51.3388 111.56L52.7535 109.86L52.3548 109.537L50.9388 111.238Z" fill="#D44C2D"/>
<path fill-rule="evenodd" clip-rule="evenodd" d="M67.444 122.648C67.5614 122.727 67.7 122.771 67.8494 122.771C68.26 122.771 68.5974 122.427 68.5974 122.007C68.5974 121.586 68.26 121.242 67.8494 121.242C67.436 121.242 67.1027 121.586 67.1027 122.007C67.1027 122.086 67.1134 122.162 67.1374 122.234L65.308 124.408L65.6987 124.724L67.444 122.648Z" fill="#D44C2D"/>
<path fill-rule="evenodd" clip-rule="evenodd" d="M61.5847 117.331C61.7021 117.407 61.8407 117.453 61.9901 117.453C62.4007 117.453 62.7367 117.111 62.7367 116.689C62.7367 116.265 62.4007 115.921 61.9901 115.921C61.5767 115.921 61.2407 116.265 61.2407 116.689C61.2407 116.768 61.2554 116.844 61.2767 116.916L59.4487 119.091L59.8394 119.407L61.5847 117.331Z" fill="#D44C2D"/>
<path fill-rule="evenodd" clip-rule="evenodd" d="M55.9129 112.013C56.0289 112.09 56.1675 112.136 56.3182 112.136C56.7289 112.136 57.0649 111.792 57.0649 111.37C57.0649 110.949 56.7289 110.604 56.3182 110.604C55.9049 110.604 55.5689 110.949 55.5689 111.37C55.5689 111.449 55.5795 111.526 55.6035 111.598L53.7769 113.77L54.1662 114.089L55.9129 112.013Z" fill="#D44C2D"/>
<path fill-rule="evenodd" clip-rule="evenodd" d="M70.9818 129.727L71.3724 130.041L72.3231 128.887L71.9311 128.571L70.9818 129.727Z" fill="#D44C2D"/>
<path fill-rule="evenodd" clip-rule="evenodd" d="M72.0743 130.99L72.6903 131.468L73.8369 130.275L73.2236 129.796L72.0743 130.99Z" fill="#D44C2D"/>
<path fill-rule="evenodd" clip-rule="evenodd" d="M80.0664 138.859L80.7437 139.343L81.5331 138.214L80.8571 137.727L80.0664 138.859Z" fill="#D44C2D"/>
<path fill-rule="evenodd" clip-rule="evenodd" d="M77.5352 136.177L78.1299 136.761L79.0792 135.769L78.4832 135.182L77.5352 136.177Z" fill="#D44C2D"/>
<path fill-rule="evenodd" clip-rule="evenodd" d="M78.7812 137.477L79.3132 137.881L80.2639 136.794L79.7319 136.39L78.7812 137.477Z" fill="#D44C2D"/>
<path fill-rule="evenodd" clip-rule="evenodd" d="M74.6055 133.341L75.3241 133.915L76.2748 132.821L75.5548 132.248L74.6055 133.341Z" fill="#D44C2D"/>
<path fill-rule="evenodd" clip-rule="evenodd" d="M69.1733 128.189L69.8759 128.953L71.4293 127.119C72.0159 126.51 71.9946 125.933 71.9013 125.462C71.9013 125.462 71.2786 123.875 70.2813 123.605C69.2853 123.331 68.4733 123.895 68.2599 124.029L68.2546 124.023L68.2333 124.047C68.2266 124.05 68.2226 124.051 68.2226 124.051L68.2239 124.054L66.6799 125.883L67.3813 126.518L68.9879 124.703C69.2959 124.55 69.9026 124.185 70.5919 124.63C71.2839 125.075 71.0453 126.015 70.7479 126.327L69.1733 128.189Z" fill="#D44C2D"/>
<path fill-rule="evenodd" clip-rule="evenodd" d="M63.5522 122.985L64.2695 123.763L65.8535 121.891C66.4495 121.27 66.4255 120.683 66.3348 120.203C66.3348 120.203 65.6975 118.583 64.6828 118.306C63.6642 118.029 62.8375 118.605 62.6215 118.739L62.6135 118.733L62.5935 118.758C62.5868 118.761 62.5842 118.763 62.5842 118.763V118.766L61.0082 120.63L61.7242 121.281L63.3642 119.427C63.6762 119.271 64.2962 118.897 65.0002 119.353C65.7042 119.807 65.4615 120.767 65.1575 121.086L63.5522 122.985Z" fill="#D44C2D"/>
<path fill-rule="evenodd" clip-rule="evenodd" d="M57.6915 117.664L58.4075 118.445L59.9915 116.573C60.5901 115.951 60.5688 115.364 60.4741 114.885C60.4741 114.885 59.8381 113.265 58.8221 112.988C57.8035 112.711 56.9781 113.287 56.7595 113.421L56.7541 113.413L56.7328 113.44C56.7261 113.443 56.7221 113.445 56.7221 113.445L56.7248 113.449L55.1488 115.312L55.8675 115.961L57.5021 114.109C57.8155 113.953 58.4341 113.579 59.1395 114.033C59.8435 114.489 59.6035 115.448 59.2968 115.768L57.6915 117.664Z" fill="#D44C2D"/>
<path fill-rule="evenodd" clip-rule="evenodd" d="M51.9571 112.219L52.6744 112.998L54.2598 111.127C54.8558 110.506 54.8318 109.918 54.7398 109.438C54.7398 109.438 54.1024 107.818 53.0878 107.542C52.0718 107.264 51.2438 107.839 51.0264 107.974L51.0184 107.968L50.9958 107.992C50.9904 107.998 50.9864 107.999 50.9864 107.999L50.9891 108.003L49.4144 109.866L50.1304 110.516L51.7691 108.663C52.0824 108.508 52.7024 108.132 53.4038 108.587C54.1091 109.042 53.8678 110.002 53.5638 110.32L51.9571 112.219Z" fill="#D44C2D"/>
<path fill-rule="evenodd" clip-rule="evenodd" d="M108.085 125.917L110.939 127.383V72.3834L101.842 64.3181L95.2567 91.2474L110.071 101.823C107.115 102.61 105.593 108.711 102.817 111.146L106.697 114.581L104.773 118.021C104.095 119.005 103.771 119.067 108.085 125.917Z" fill="#EC1C24"/>
<path d="M110.939 72.3828L101.843 64.3175" stroke="#034EA1" stroke-width="0.945333" stroke-miterlimit="2.613"/>
<path fill-rule="evenodd" clip-rule="evenodd" d="M104.589 97.8413C104.231 96.3746 100.117 80.2626 103.783 79.5346C101.287 78.7999 101.17 75.5026 103.427 73.6666C102.003 72.5679 102.357 68.5346 102.357 68.5346L104.855 47.8173L102.178 42.3173L105.567 36.4506L107.706 42.3173C107.706 42.3173 106.282 45.2506 105.389 47.0839C104.497 48.9173 105.213 49.8333 105.213 49.8333C105.213 49.8333 106.775 66.2999 107.529 69.6346C108.293 73.0106 106.181 72.4653 106.637 73.8506C109.134 76.4173 107.185 78.3413 106.282 79.3506C108.283 80.5653 107.529 84.2999 107.529 84.2999L105.746 98.6106L104.589 97.8413Z" fill="#CE482C"/>
<path fill-rule="evenodd" clip-rule="evenodd" d="M102.715 50.75C101.532 50.75 100.575 49.7713 100.575 48.562C100.575 47.354 101.532 46.3753 102.715 46.3753C103.896 46.3753 104.855 47.354 104.855 48.562C104.855 49.7713 103.896 50.75 102.715 50.75Z" fill="#CE482C"/>
<path fill-rule="evenodd" clip-rule="evenodd" d="M106.941 50.75C105.76 50.75 104.803 49.7713 104.803 48.562C104.803 47.354 105.76 46.3753 106.941 46.3753C108.124 46.3753 109.08 47.354 109.08 48.562C109.08 49.7713 108.124 50.75 106.941 50.75Z" fill="#CE482C"/>
<path d="M105.212 72.2006C105.212 72.2006 106.103 71.2832 105.924 68.7179C105.746 66.1512 104.855 55.0886 104.855 57.1672" stroke="#00A551" stroke-width="0.945333" stroke-miterlimit="2.613"/>
<path d="M104.855 80.6328C104.855 80.6328 106.103 81.3675 105.925 83.9328C105.746 86.4995 104.855 96.7662 104.855 95.4835" stroke="#00A551" stroke-width="0.945333" stroke-miterlimit="2.613"/>
<path d="M104.781 79.5339C103.145 79.5339 101.82 78.1793 101.82 76.5073C101.82 74.8393 103.145 73.4846 104.781 73.4846C106.415 73.4846 107.739 74.8393 107.739 76.5073C107.739 78.1793 106.415 79.5339 104.781 79.5339Z" stroke="#00A551" stroke-width="0.945333" stroke-miterlimit="2.613"/>
<path fill-rule="evenodd" clip-rule="evenodd" d="M105.445 78.0287H104.739C104.739 78.0287 105.636 77.3514 105.636 76.3354C105.637 75.3207 104.836 74.6234 104.836 74.6234H105.575C105.575 74.6234 106.437 75.2327 106.295 76.482C106.148 77.7287 105.445 78.0287 105.445 78.0287Z" fill="#00A551"/>
<path fill-rule="evenodd" clip-rule="evenodd" d="M104.979 45.2162L103.689 42.4682L105.134 39.4642L106.174 42.5989L104.979 45.2162Z" fill="#EB008B"/>
<path d="M104.979 45.2162L103.689 42.4682L105.134 39.4642L106.174 42.5989L104.979 45.2162Z" stroke="#00A551" stroke-width="0.945333" stroke-miterlimit="2.613"/>
<path fill-rule="evenodd" clip-rule="evenodd" d="M97.4544 86.9193L97.1891 88.054C97.2464 88.058 97.3051 88.0607 97.3638 88.0607C98.7144 88.0607 99.8198 86.9327 99.8198 85.55C99.8198 84.5127 99.2024 83.6193 98.3211 83.2367L98.0518 84.3887C98.5158 84.646 98.8198 85.0687 98.8198 85.546C98.8198 86.2033 98.2398 86.7607 97.4544 86.9193Z" fill="#D44C2D"/>
<path fill-rule="evenodd" clip-rule="evenodd" d="M99.3034 79.2708L99.0527 80.3455C99.1061 80.3495 99.1607 80.3508 99.2181 80.3508C100.498 80.3508 101.545 79.2815 101.545 77.9708C101.545 76.9922 100.955 76.1455 100.123 75.7828L99.8687 76.8722C100.31 77.1175 100.597 77.5188 100.597 77.9682C100.597 78.5935 100.047 79.1202 99.3034 79.2708Z" fill="#D44C2D"/>
<path fill-rule="evenodd" clip-rule="evenodd" d="M96.7787 89.2162C96.8027 89.6255 97.4214 90.5802 97.8574 90.5802C98.2814 90.5802 98.6254 90.2349 98.6254 89.8095C98.6254 89.3855 98.2814 89.0389 97.8574 89.0389C97.2507 89.3815 96.7614 88.9455 96.7787 89.2162Z" fill="#D44C2D"/>
<path fill-rule="evenodd" clip-rule="evenodd" d="M98.6419 81.5574C98.6659 81.9654 99.2833 82.9214 99.7219 82.9214C100.143 82.9214 100.489 82.5761 100.489 82.1507C100.489 81.7267 100.143 81.3801 99.7219 81.3801C99.1153 81.7214 98.6246 81.2854 98.6419 81.5574Z" fill="#D44C2D"/>
<path fill-rule="evenodd" clip-rule="evenodd" d="M101.276 74.9246C101.699 74.9246 102.043 74.5779 102.043 74.1552C102.043 73.7312 101.699 73.3859 101.276 73.3859C100.671 73.7272 100.215 74.5499 101.276 74.9246Z" fill="#D44C2D"/>
<path fill-rule="evenodd" clip-rule="evenodd" d="M101.512 72.2916C101.805 72.2916 102.042 72.0516 102.042 71.761C102.042 71.4663 101.805 71.2263 101.512 71.2263C101.094 71.4636 100.778 72.0316 101.512 72.2916Z" fill="#D44C2D"/>
<path fill-rule="evenodd" clip-rule="evenodd" d="M83.3476 104.688H47.981L54.4303 97.1022H88.9436L83.3476 104.688Z" fill="#231F20"/>
<path fill-rule="evenodd" clip-rule="evenodd" d="M58.7448 101.969C58.4261 102.433 57.8955 102.737 57.3021 102.737C56.3275 102.737 55.5355 101.926 55.5355 100.931C55.5355 99.9381 56.3275 99.1248 57.3021 99.1248C57.8955 99.1248 58.4261 99.4301 58.7448 99.8915C59.1021 99.2341 59.7901 98.7848 60.5781 98.7848C61.3328 98.7848 61.9955 99.1955 62.3661 99.8101C62.7368 98.8928 63.6221 98.2448 64.6528 98.2448C65.4368 98.2448 66.1368 98.6221 66.5901 99.2088C67.0688 98.6088 67.7981 98.2248 68.6101 98.2248C69.4755 98.2248 70.2421 98.6568 70.7181 99.3208C71.1675 98.8235 71.8128 98.5101 72.5261 98.5101C73.5555 98.5101 74.4395 99.1595 74.8115 100.075C75.1808 99.4608 75.8435 99.0501 76.5995 99.0501C77.3861 99.0501 78.0755 99.4968 78.4328 100.157C78.7528 99.6928 79.2795 99.3875 79.8768 99.3875C80.8475 99.3875 81.6408 100.201 81.6408 101.195C81.6408 102.19 80.8475 102.999 79.8768 102.999C79.2795 102.999 78.7528 102.695 78.4328 102.231C78.0755 102.893 77.3861 103.341 76.5995 103.341C75.7875 103.341 75.0821 102.866 74.7328 102.174C74.3248 102.997 73.4901 103.563 72.5261 103.563C71.7501 103.563 71.0541 103.195 70.6048 102.619C70.1221 103.197 69.4061 103.563 68.6101 103.563C67.7421 103.563 66.9701 103.125 66.4941 102.453C66.0421 102.971 65.3835 103.299 64.6528 103.299C63.6875 103.299 62.8528 102.733 62.4448 101.909C62.0955 102.602 61.3875 103.075 60.5781 103.075C59.7901 103.075 59.1035 102.627 58.7448 101.969Z" fill="#D44C2D"/>
<path d="M83.7123 181.842C82.4817 179.262 79.315 166.377 83.1483 156.948L73.2537 153.386" stroke="#034EA1" stroke-width="1.512" stroke-miterlimit="2.613"/>
<path fill-rule="evenodd" clip-rule="evenodd" d="M108.473 125.719L97.5513 120.287C97.5513 120.287 100.106 115.398 100.015 113.404C99.9287 111.412 99.2233 107.61 99.2233 107.61L108.561 102.81C108.561 102.81 107.327 108.063 104.421 110.779C104.067 111.503 106.27 112.046 107.769 114.58C106.886 116.122 105.655 117.299 104.773 118.022C105.301 119.199 108.21 123.183 108.473 125.719Z" fill="#CE482C"/>
<path fill-rule="evenodd" clip-rule="evenodd" d="M108.473 125.719L97.5513 120.287C97.5513 120.287 100.106 115.398 100.015 113.404C99.9287 111.412 99.2233 107.61 99.2233 107.61L108.561 102.81C108.561 102.81 107.327 108.063 104.421 110.779C104.067 111.503 106.27 112.046 107.769 114.58C106.886 116.122 105.655 117.299 104.773 118.022C105.301 119.199 108.21 123.183 108.473 125.719Z" fill="#CE482C"/>
<path d="M108.561 102.81C108.561 102.81 107.327 108.062 104.421 110.779C104.068 111.503 106.269 112.046 107.768 114.581C106.885 116.121 105.655 117.298 104.772 118.021C105.301 119.199 108.209 123.182 108.473 125.719" stroke="#00A551" stroke-width="0.944" stroke-miterlimit="2.613"/>
<path fill-rule="evenodd" clip-rule="evenodd" d="M105.655 124.232L103.116 123.029C103.084 121.224 101.914 118.448 100.776 117.412C100.206 116.893 100.035 116.844 100.19 116.46C100.346 116.076 100.63 115.456 100.97 115.205C101.652 114.704 102.922 114.204 102.922 114.204C102.56 113.322 102.296 112.844 101.35 112.268C101.582 111.508 101.423 110.749 101.264 109.89C102.272 108.586 102.792 107.281 103.019 105.98L105.458 104.673C104.97 106.748 104.322 108.82 102.922 110.893C103.799 111.994 104.679 113.198 105.264 114.502C104.288 115.472 103.606 116.142 102.434 116.609C104.191 118.917 105.004 121.658 105.655 124.232Z" fill="#231F20"/>
<path d="M99.2237 107.609L108.561 102.81M110.62 127.122L97.5504 120.286L110.62 127.122Z" stroke="#034EA1" stroke-width="0.945333" stroke-miterlimit="2.613"/>
<path d="M37.3621 181.842L37.7487 165.686C37.7487 165.686 36.8567 145.148 46.5194 145.38C56.1807 145.609 62.7461 157.096 63.4194 159.865" stroke="#034EA1" stroke-width="1.13333" stroke-miterlimit="2.613"/>
<path fill-rule="evenodd" clip-rule="evenodd" d="M85.5782 137.599L84.4288 138.93C84.4288 138.93 71.0502 127.547 71.0502 122.224C71.0502 116.903 72.4195 114.648 74.7915 112.32C76.3542 110.787 79.3582 108.794 82.1008 105.819C84.2435 103.495 86.5448 100.68 88.5688 97.9603C88.7048 97.779 88.8368 97.599 88.9702 97.419C91.0888 94.5363 92.9262 91.6803 93.8248 89.831L95.1862 91.0016L110.072 101.823L107.725 103.45L94.1902 93.6603C94.1902 93.6603 86.0542 105.618 83.8995 107.539C81.7422 109.46 73.8195 114.268 73.3528 119.12C72.8862 123.972 76.3062 128.578 76.5155 128.434C79.6808 131.342 82.4128 134.692 85.5782 137.599Z" fill="#CE482C"/>
<path fill-rule="evenodd" clip-rule="evenodd" d="M50.944 181.716L72.312 143.36L46.328 119.734L41.3014 140.083L36.424 141.999L34.408 140.732L41.0867 114.894L41.404 113.428L41.7347 114.068L46.044 108.427L47.1334 108.979L47.2987 109.596L82.0254 141.912L73.548 153.39L57.844 181.716H50.944Z" fill="#231F20"/>
<path fill-rule="evenodd" clip-rule="evenodd" d="M75.6068 138.646C75.6068 138.646 73.2788 139.927 74.7001 140.951C76.1281 141.97 77.4375 139.779 76.8588 138.406C76.2801 137.034 74.2188 135.853 74.2188 135.853L72.8561 135.706C72.9241 135.714 73.2255 134.021 71.4428 133.115C69.6588 132.211 68.6135 133.875 69.2935 134.598C69.9721 135.321 70.6681 134.695 70.9788 134.163C71.2908 133.63 72.0815 135.389 71.1041 136.093C70.1268 136.477 68.3268 136.705 67.3521 134.935C66.3735 133.165 67.2428 131.451 67.9508 132.263C68.6601 133.078 70.2468 132.075 69.3348 131.106C68.4215 130.139 67.7268 130.622 67.7268 130.622C67.7268 130.622 68.0068 129.029 66.7535 128.889C65.5028 128.749 64.9855 130.175 65.8975 130.659C66.8081 131.145 65.3295 132.471 63.6908 131.59C62.0548 130.709 62.4801 128.782 62.5188 128.505C62.5588 128.225 63.0255 127.455 63.8481 128.982C64.6708 130.507 66.6348 128.534 65.3001 127.247C63.9655 125.961 62.7215 126.833 62.7215 126.833C62.7215 126.833 62.2788 124.146 60.5561 122.567C58.8348 120.99 56.6735 122.11 56.6748 123.787C56.6748 124.831 57.2641 125.115 58.0788 125.065C58.8908 125.015 58.9148 124.279 58.4375 123.507C58.7188 122.618 60.2788 124.279 60.5935 125.203C60.9095 126.129 60.8068 127.622 60.4988 127.782C60.1895 127.941 58.1241 126.714 58.7121 129.282C58.9401 130.278 60.3668 129.998 60.7535 129.839C60.8321 129.841 61.1441 133.619 65.1855 133.471C65.2681 134.955 65.4321 137.207 69.6788 137.826C69.6521 140.755 72.8721 139.989 72.2601 137.857C72.9641 136.125 75.3881 137.463 75.6068 138.646Z" fill="#CE482C"/>
<path fill-rule="evenodd" clip-rule="evenodd" d="M55.2071 121.378C55.2071 121.378 53.8924 121.026 53.7031 121.956C53.5151 122.887 54.4591 123.567 55.2964 123.227C56.1324 122.887 56.9844 122.086 56.7937 120.391C56.6057 118.692 55.6164 117.798 54.1191 116.859C52.6231 115.922 52.0377 116.195 51.7431 116.347C51.4511 116.498 52.0751 114.816 50.9284 114.016C49.7844 113.214 49.0044 113.168 49.3431 114.419C49.6791 115.67 50.6417 116.532 49.8284 117.284C49.0124 118.036 48.0364 117.328 47.9164 117.436L46.8844 118.383C47.4604 119.086 48.1684 119.507 49.0551 119.487C49.3524 119.72 49.1177 120.916 50.2551 121.235C51.3937 121.551 52.2697 120.52 51.8897 119.675C51.5124 118.83 50.4591 118.058 51.6164 117.912C52.6257 117.718 55.5444 118.255 55.2071 121.378Z" fill="#CE482C"/>
<path fill-rule="evenodd" clip-rule="evenodd" d="M45.3776 115.07C44.6749 115.07 44.1056 114.489 44.1056 113.77C44.1056 113.054 44.6749 112.472 45.3776 112.472C46.0789 112.472 46.6483 113.054 46.6483 113.77C46.6483 114.489 46.0789 115.07 45.3776 115.07Z" fill="#CE482C"/>
<path fill-rule="evenodd" clip-rule="evenodd" d="M45.3776 112.516C44.6749 112.516 44.1056 111.868 44.1056 111.068C44.1056 110.268 44.6749 109.62 45.3776 109.62C46.0789 109.62 46.6483 110.268 46.6483 111.068C46.6483 111.868 46.0789 112.516 45.3776 112.516Z" fill="#CE482C"/>
<path fill-rule="evenodd" clip-rule="evenodd" d="M38.4766 138.003C38.4766 138.003 37.2459 136.527 36.4272 137.265C35.6046 138.003 35.9126 139.267 36.7312 139.688C37.5552 140.109 39.1939 140.005 40.1179 139.161C41.0406 138.319 41.5872 135.041 39.9126 134.101C38.7832 133.471 41.8606 134.205 42.5792 132.203C43.2952 130.2 41.3472 129.885 40.9392 129.885C40.5272 129.885 39.1939 130.308 40.2206 131.572C41.2459 132.836 38.5806 132.521 38.7832 130.519C38.9912 128.516 40.5966 127.18 41.1432 127.776C41.6899 128.375 41.6566 129.675 42.6819 128.937C43.7059 128.197 42.2726 127.003 42.8872 126.617C43.5019 126.231 43.6046 125.951 43.6046 125.036C43.2272 124.229 42.5446 124.475 42.0646 124.825C41.5872 125.176 40.9379 125.141 40.7312 124.193C40.5272 123.245 40.3232 121.136 41.7592 120.82C43.1926 120.503 42.6819 121.452 42.6819 121.452C42.6819 121.452 41.0939 122.737 42.4752 123.56C43.3179 124.06 44.8366 123.456 44.7312 121.872C44.6286 120.292 44.0139 120.188 44.0139 120.188C44.0139 120.188 45.6552 119.028 44.5272 118.184C43.3979 117.341 42.4752 118.781 42.6819 118.289C42.8872 117.799 39.8379 116.897 40.7312 119.448C41.1179 120.547 39.5019 120.292 39.3992 122.505C39.2952 124.719 39.8099 125.248 40.1179 125.985C39.5019 126.3 37.6726 127.88 37.3486 131.044C38.1512 133.787 37.6552 133.047 37.5552 133.047C37.4526 133.047 36.0152 135.472 38.6819 135.472C39.3992 135.26 39.5019 138.107 38.4766 138.003Z" fill="#CE482C"/>
<path d="M47.0573 106.323L41.9587 114.204L47.248 106.287H81.284" stroke="#034EA1" stroke-width="0.945333" stroke-miterlimit="2.613"/>
<path fill-rule="evenodd" clip-rule="evenodd" d="M45.6992 108.427L46.7139 106.899C48.2086 107.668 49.2846 109.75 49.2846 112.187C49.2846 115.276 47.5566 117.796 45.4312 117.796C43.8072 117.796 42.4126 116.32 41.8459 114.242L43.1206 112.32V112.419C43.1206 114.624 44.1966 116.424 45.5166 116.424C46.8379 116.424 47.9152 114.624 47.9152 112.419C47.9152 110.318 46.9366 108.584 45.6992 108.427Z" fill="#CE482C"/>
<path d="M72.2812 143.875C72.2812 143.875 64.0199 140.386 53.5559 139.63C43.0919 138.875 37.3092 141.612 35.9332 141.895" stroke="#00A551" stroke-width="0.945333" stroke-miterlimit="2.613"/>
<path d="M63.1133 59.5105C63.1133 59.5105 71.3733 63.0025 81.8373 63.7572C92.3027 64.5105 98.084 61.7758 99.46 61.4918" stroke="#00A551" stroke-width="0.945333" stroke-miterlimit="2.613"/>
<path d="M93.8307 89.4245L88.5773 97.1019H54.1107" stroke="#034EA1" stroke-width="0.945333" stroke-miterlimit="2.613"/>
<path d="M82.0248 141.913L84.3874 138.909" stroke="#034EA1" stroke-width="0.945333" stroke-miterlimit="2.613"/>
<path fill-rule="evenodd" clip-rule="evenodd" d="M97.9011 122.917C97.9011 122.917 95.9665 123.214 94.4171 121.722C92.8691 120.229 93.1598 119.849 93.5425 119.831C93.9305 119.814 94.3038 119.666 94.3691 119.881C94.4705 120.214 95.4305 119.914 95.5305 120.329C95.6345 120.771 95.9905 120.558 96.7398 120.693C97.4905 120.83 97.9811 122.31 97.9011 122.917Z" fill="#CE482C"/>
<path fill-rule="evenodd" clip-rule="evenodd" d="M97.5508 120.286C97.5508 120.286 100.105 115.397 100.016 113.404C99.9282 111.412 99.2242 107.609 99.2242 107.609C98.1162 106.606 96.5708 106.862 97.0628 108.869C97.5548 110.877 97.4215 116.572 95.7868 118.122C94.1535 119.672 96.3522 121.153 97.5508 120.286Z" fill="#CE482C"/>
<path fill-rule="evenodd" clip-rule="evenodd" d="M37.8438 83.1003C37.8438 83.1003 35.2891 87.9896 35.3771 89.9816C35.4664 91.9736 36.1704 95.7763 36.1704 95.7763C37.2784 96.7816 38.8238 96.5229 38.3318 94.5176C37.8411 92.5109 37.9744 86.8149 39.6064 85.2656C41.2424 83.7136 39.0438 82.2336 37.8438 83.1003Z" fill="#CE482C"/>
<path fill-rule="evenodd" clip-rule="evenodd" d="M29.991 63.0913L33.3536 65.0126L38.8963 63.2206L38.6483 70.9006L39.3309 73.3979L35.2096 72.2446L32.6683 72.6953L29.9283 73.8459L30.4883 67.5726L29.991 63.0913Z" fill="#EC1C24"/>
<path d="M30.5066 66.9167L29.9252 62.9101L33.0092 64.7634" stroke="#034EA1" stroke-width="0.945333" stroke-miterlimit="2.613"/>
<path d="M30.5066 70.5976L29.9252 73.9483L32.9506 72.4536" stroke="#034EA1" stroke-width="0.945333" stroke-miterlimit="2.613"/>
<path d="M36.2877 64.224L39.0851 63.224L38.6944 66.964" stroke="#034EA1" stroke-width="0.945333" stroke-miterlimit="2.613"/>
<path d="M38.5194 70.3126L39.4328 73.3939L36.6968 72.6313" stroke="#034EA1" stroke-width="0.945333" stroke-miterlimit="2.613"/>
<path fill-rule="evenodd" clip-rule="evenodd" d="M34.8542 67.276C35.4875 67.276 36.0048 67.8654 36.0048 68.5907C36.0048 69.3147 35.4875 69.9067 34.8542 69.9067C34.2222 69.9067 33.7075 69.3147 33.7075 68.5907C33.7075 67.8654 34.2222 67.276 34.8542 67.276ZM36.4888 67.7947C36.8022 67.412 37.3035 67.164 37.8675 67.164C38.8168 67.164 39.5915 67.872 39.5915 68.7414C39.5915 69.6094 38.8168 70.316 37.8675 70.316C37.2422 70.316 36.6955 70.0134 36.3915 69.5574C36.5688 69.2774 36.6715 68.9454 36.6715 68.5907C36.6715 68.3054 36.6048 68.0334 36.4888 67.7947V67.7947ZM34.0075 66.9867C33.4888 66.7027 33.1235 66.0934 33.1235 65.392C33.1235 64.42 33.8182 63.628 34.6648 63.628C35.5142 63.628 36.2075 64.42 36.2075 65.392C36.2075 66.0214 35.9155 66.576 35.4808 66.888C35.2848 66.8174 35.0742 66.7774 34.8542 66.7774C34.5502 66.7774 34.2635 66.8547 34.0075 66.9867V66.9867ZM33.2288 69.3987C32.9528 70.0467 32.2835 70.5027 31.5035 70.5027C30.4808 70.5027 29.6448 69.7107 29.6448 68.7414C29.6448 67.768 30.4808 66.976 31.5035 66.976C32.2248 66.976 32.8528 67.3667 33.1595 67.9374C33.0808 68.14 33.0382 68.36 33.0382 68.5907C33.0382 68.88 33.1075 69.156 33.2288 69.3987ZM35.1782 70.3747C35.9102 70.5654 36.4542 71.26 36.4542 72.088C36.4542 73.06 35.7035 73.852 34.7822 73.852C33.8622 73.852 33.1102 73.06 33.1102 72.088C33.1102 71.236 33.6888 70.5214 34.4528 70.36C34.5822 70.388 34.7168 70.404 34.8542 70.404C34.9662 70.404 35.0742 70.3934 35.1782 70.3747V70.3747ZM29.0142 68.7414C29.0142 70.0414 30.1328 71.1014 31.5035 71.1014C32.0902 71.1014 32.6288 70.9107 33.0555 70.5867C32.7368 70.996 32.5435 71.52 32.5435 72.088C32.5435 73.3907 33.5488 74.4507 34.7822 74.4507C36.0155 74.4507 37.0222 73.3907 37.0222 72.088C37.0222 71.2627 36.1315 70.224 36.1595 70.2C36.7835 70.7214 37.3075 70.852 37.8675 70.852C39.1368 70.852 40.1755 69.904 40.1755 68.7414C40.1755 67.5787 39.1368 66.6307 37.8675 66.6307C37.1875 66.6307 36.5528 66.8987 36.1288 67.3254C36.0408 67.036 36.7302 66.108 36.7302 65.392C36.7302 64.0894 35.8035 63.028 34.6648 63.028C33.5302 63.028 32.6022 64.0894 32.6022 65.392C32.6022 65.976 32.7888 66.5134 33.0995 66.9267C32.6662 66.5854 32.1102 66.3774 31.5035 66.3774C30.1328 66.3774 29.0142 67.44 29.0142 68.7414" fill="#00A551"/>
<path d="M34.8542 67.276C35.4875 67.276 36.0048 67.8654 36.0048 68.5907C36.0048 69.3147 35.4875 69.9067 34.8542 69.9067C34.2222 69.9067 33.7075 69.3147 33.7075 68.5907C33.7075 67.8654 34.2222 67.276 34.8542 67.276ZM36.4888 67.7947C36.8022 67.412 37.3035 67.164 37.8675 67.164C38.8168 67.164 39.5915 67.872 39.5915 68.7414C39.5915 69.6094 38.8168 70.316 37.8675 70.316C37.2422 70.316 36.6955 70.0134 36.3915 69.5574C36.5688 69.2774 36.6715 68.9454 36.6715 68.5907C36.6715 68.3054 36.6048 68.0334 36.4888 67.7947V67.7947ZM34.0075 66.9867C33.4888 66.7027 33.1235 66.0934 33.1235 65.392C33.1235 64.42 33.8182 63.628 34.6648 63.628C35.5142 63.628 36.2075 64.42 36.2075 65.392C36.2075 66.0214 35.9155 66.576 35.4808 66.888C35.2848 66.8174 35.0742 66.7774 34.8542 66.7774C34.5502 66.7774 34.2635 66.8547 34.0075 66.9867V66.9867ZM33.2288 69.3987C32.9528 70.0467 32.2835 70.5027 31.5035 70.5027C30.4808 70.5027 29.6448 69.7107 29.6448 68.7414C29.6448 67.768 30.4808 66.976 31.5035 66.976C32.2248 66.976 32.8528 67.3667 33.1595 67.9374C33.0808 68.14 33.0382 68.36 33.0382 68.5907C33.0382 68.88 33.1075 69.156 33.2288 69.3987V69.3987ZM35.1782 70.3747C35.9102 70.5654 36.4542 71.26 36.4542 72.088C36.4542 73.06 35.7035 73.852 34.7822 73.852C33.8622 73.852 33.1102 73.06 33.1102 72.088C33.1102 71.236 33.6888 70.5214 34.4528 70.36C34.5822 70.388 34.7168 70.404 34.8542 70.404C34.9662 70.404 35.0742 70.3934 35.1782 70.3747V70.3747ZM29.0142 68.7414C29.0142 70.0414 30.1328 71.1014 31.5035 71.1014C32.0902 71.1014 32.6288 70.9107 33.0555 70.5867C32.7368 70.996 32.5435 71.52 32.5435 72.088C32.5435 73.3907 33.5488 74.4507 34.7822 74.4507C36.0155 74.4507 37.0222 73.3907 37.0222 72.088C37.0222 71.2627 36.1315 70.224 36.1595 70.2C36.7835 70.7214 37.3075 70.852 37.8675 70.852C39.1368 70.852 40.1755 69.904 40.1755 68.7414C40.1755 67.5787 39.1368 66.6307 37.8675 66.6307C37.1875 66.6307 36.5528 66.8987 36.1288 67.3254C36.0408 67.036 36.7302 66.108 36.7302 65.392C36.7302 64.0894 35.8035 63.028 34.6648 63.028C33.5302 63.028 32.6022 64.0894 32.6022 65.392C32.6022 65.976 32.7888 66.5134 33.0995 66.9267C32.6662 66.5854 32.1102 66.3774 31.5035 66.3774C30.1328 66.3774 29.0142 67.44 29.0142 68.7414V68.7414Z" stroke="#00A551" stroke-width="0.00533333" stroke-miterlimit="2.613"/>
<path fill-rule="evenodd" clip-rule="evenodd" d="M34.6654 67.1562C35.5147 67.1562 36.2067 66.3643 36.2067 65.3923C36.2067 64.4203 35.5147 63.6283 34.6654 63.6283C33.8174 63.6283 33.124 64.4203 33.124 65.3923C33.124 66.3643 33.8174 67.1562 34.6654 67.1562Z" fill="#CE482C"/>
<path fill-rule="evenodd" clip-rule="evenodd" d="M39.5912 68.741C39.5912 69.6103 38.8192 70.317 37.8659 70.317C36.9126 70.317 36.1392 69.6103 36.1392 68.741C36.1392 67.8703 36.9126 67.1636 37.8659 67.1636C38.8192 67.1636 39.5912 67.8703 39.5912 68.741Z" fill="#CE482C"/>
<path fill-rule="evenodd" clip-rule="evenodd" d="M29.6445 68.741C29.6445 69.713 30.4779 70.5023 31.5045 70.5023C32.5325 70.5023 33.3645 69.713 33.3645 68.741C33.3645 67.7677 32.5325 66.977 31.5045 66.977C30.4779 66.977 29.6445 67.7677 29.6445 68.741Z" fill="#CE482C"/>
<path fill-rule="evenodd" clip-rule="evenodd" d="M34.7826 73.8528C33.8599 73.8528 33.1106 73.0621 33.1106 72.0888C33.1106 71.1141 33.8599 70.3248 34.7826 70.3248C35.7053 70.3248 36.4546 71.1141 36.4546 72.0888C36.4546 73.0621 35.7053 73.8528 34.7826 73.8528Z" fill="#CE482C"/>
<path fill-rule="evenodd" clip-rule="evenodd" d="M34.8542 67.2761C35.4875 67.2761 36.0049 67.8654 36.0049 68.5907C36.0049 69.3147 35.4875 69.9067 34.8542 69.9067C34.2222 69.9067 33.7075 69.3147 33.7075 68.5907C33.7075 67.8654 34.2222 67.2761 34.8542 67.2761Z" fill="#CE482C"/>
<path d="M34.7527 64.5833V67.0367" stroke="#00A551" stroke-width="0.945333" stroke-miterlimit="2.613"/>
<path d="M38.7306 68.6511H36.3333" stroke="#00A551" stroke-width="0.945333" stroke-miterlimit="2.613"/>
<path d="M34.7527 70.2656V72.7163" stroke="#00A551" stroke-width="0.945333" stroke-miterlimit="2.613"/>
<path d="M33.1746 68.6511H30.7772" stroke="#00A551" stroke-width="0.945333" stroke-miterlimit="2.613"/>
<path d="M104.888 136.469L105.471 140.475L102.387 138.622" stroke="#00ADEE" stroke-width="0.945333" stroke-miterlimit="2.613"/>
<path d="M104.888 132.789L105.471 129.44L102.444 130.934" stroke="#00ADEE" stroke-width="0.945333" stroke-miterlimit="2.613"/>
<path d="M99.1055 139.161L96.3082 140.161L96.7015 136.421" stroke="#00ADEE" stroke-width="0.945333" stroke-miterlimit="2.613"/>
<path d="M96.8776 133.076L95.9616 129.992L98.6976 130.756" stroke="#00ADEE" stroke-width="0.945333" stroke-miterlimit="2.613"/>
<path fill-rule="evenodd" clip-rule="evenodd" d="M105.404 140.294L102.042 138.376L96.4983 140.166L96.7476 132.485L96.061 129.988L100.186 131.141L102.726 130.693L105.465 129.54L104.906 135.816L105.404 140.294Z" fill="#EC1C24"/>
<path d="M105.404 140.294L102.042 138.376L96.4983 140.166L96.7476 132.485L96.061 129.988L100.186 131.141L102.726 130.693L105.465 129.54L104.906 135.816L105.404 140.294Z" stroke="#034EA1" stroke-width="0.756" stroke-miterlimit="2.613"/>
<path fill-rule="evenodd" clip-rule="evenodd" d="M100.539 136.112C99.9044 136.112 99.3898 135.521 99.3898 134.797C99.3898 134.071 99.9044 133.479 100.539 133.479C101.172 133.479 101.688 134.071 101.688 134.797C101.688 135.521 101.172 136.112 100.539 136.112ZM98.9071 135.591C98.5924 135.973 98.0911 136.223 97.5298 136.223C96.5778 136.223 95.8031 135.515 95.8031 134.645C95.8031 133.777 96.5778 133.071 97.5298 133.071C98.1524 133.071 98.6991 133.373 99.0044 133.829C98.8258 134.109 98.7218 134.44 98.7218 134.797C98.7218 135.081 98.7884 135.352 98.9071 135.591V135.591ZM101.386 136.399C101.907 136.683 102.27 137.292 102.27 137.995C102.27 138.967 101.578 139.757 100.728 139.757C99.8791 139.757 99.1858 138.967 99.1858 137.995C99.1858 137.364 99.4764 136.809 99.9151 136.497C100.108 136.571 100.32 136.608 100.539 136.608C100.844 136.608 101.131 136.533 101.386 136.399V136.399ZM102.164 133.987C102.44 133.341 103.11 132.883 103.89 132.883C104.914 132.883 105.748 133.675 105.748 134.645C105.748 135.617 104.914 136.409 103.89 136.409C103.171 136.409 102.542 136.019 102.234 135.449C102.311 135.245 102.355 135.027 102.355 134.797C102.355 134.505 102.287 134.231 102.164 133.987ZM100.215 133.011C99.4831 132.823 98.9418 132.125 98.9418 131.297C98.9418 130.325 99.6911 129.533 100.614 129.533C101.532 129.533 102.284 130.325 102.284 131.297C102.284 132.151 101.706 132.865 100.942 133.028C100.81 132.997 100.678 132.981 100.539 132.981C100.428 132.981 100.32 132.992 100.215 133.011V133.011ZM106.38 134.645C106.38 133.344 105.262 132.284 103.89 132.284C103.304 132.284 102.766 132.476 102.34 132.8C102.66 132.391 102.852 131.867 102.852 131.297C102.852 129.996 101.844 128.935 100.614 128.935C99.3791 128.935 98.3738 129.996 98.3738 131.297C98.3738 132.124 99.2631 133.161 99.2351 133.185C98.6111 132.664 98.0858 132.533 97.5298 132.533C96.2551 132.533 95.2191 133.483 95.2191 134.645C95.2191 135.809 96.2551 136.757 97.5298 136.757C98.2084 136.757 98.8431 136.489 99.2658 136.063C99.3538 136.351 98.6631 137.279 98.6631 137.995C98.6631 139.297 99.5924 140.357 100.728 140.357C101.866 140.357 102.792 139.297 102.792 137.995C102.792 137.409 102.606 136.872 102.295 136.461C102.728 136.803 103.284 137.008 103.89 137.008C105.262 137.008 106.38 135.945 106.38 134.645" fill="#00A551"/>
<path d="M100.539 136.112C99.9044 136.112 99.3898 135.521 99.3898 134.797C99.3898 134.071 99.9044 133.479 100.539 133.479C101.172 133.479 101.688 134.071 101.688 134.797C101.688 135.521 101.172 136.112 100.539 136.112ZM98.9071 135.591C98.5924 135.973 98.0911 136.223 97.5298 136.223C96.5778 136.223 95.8031 135.515 95.8031 134.645C95.8031 133.777 96.5778 133.071 97.5298 133.071C98.1524 133.071 98.6991 133.373 99.0044 133.829C98.8258 134.109 98.7218 134.44 98.7218 134.797C98.7218 135.081 98.7884 135.352 98.9071 135.591V135.591ZM101.386 136.399C101.907 136.683 102.27 137.292 102.27 137.995C102.27 138.967 101.578 139.757 100.728 139.757C99.8791 139.757 99.1858 138.967 99.1858 137.995C99.1858 137.364 99.4764 136.809 99.9151 136.497C100.108 136.571 100.32 136.608 100.539 136.608C100.844 136.608 101.131 136.533 101.386 136.399V136.399ZM102.164 133.987C102.44 133.341 103.11 132.883 103.89 132.883C104.914 132.883 105.748 133.675 105.748 134.645C105.748 135.617 104.914 136.409 103.89 136.409C103.171 136.409 102.542 136.019 102.234 135.449C102.311 135.245 102.355 135.027 102.355 134.797C102.355 134.505 102.287 134.231 102.164 133.987V133.987ZM100.215 133.011C99.4831 132.823 98.9418 132.125 98.9418 131.297C98.9418 130.325 99.6911 129.533 100.614 129.533C101.532 129.533 102.284 130.325 102.284 131.297C102.284 132.151 101.706 132.865 100.942 133.028C100.81 132.997 100.678 132.981 100.539 132.981C100.428 132.981 100.32 132.992 100.215 133.011V133.011ZM106.38 134.645C106.38 133.344 105.262 132.284 103.89 132.284C103.304 132.284 102.766 132.476 102.34 132.8C102.66 132.391 102.852 131.867 102.852 131.297C102.852 129.996 101.844 128.935 100.614 128.935C99.3791 128.935 98.3738 129.996 98.3738 131.297C98.3738 132.124 99.2631 133.161 99.2351 133.185C98.6111 132.664 98.0858 132.533 97.5298 132.533C96.2551 132.533 95.2191 133.483 95.2191 134.645C95.2191 135.809 96.2551 136.757 97.5298 136.757C98.2084 136.757 98.8431 136.489 99.2658 136.063C99.3538 136.351 98.6631 137.279 98.6631 137.995C98.6631 139.297 99.5924 140.357 100.728 140.357C101.866 140.357 102.792 139.297 102.792 137.995C102.792 137.409 102.606 136.872 102.295 136.461C102.728 136.803 103.284 137.008 103.89 137.008C105.262 137.008 106.38 135.945 106.38 134.645V134.645Z" stroke="#00A551" stroke-width="0.288" stroke-miterlimit="2.613"/>
<path fill-rule="evenodd" clip-rule="evenodd" d="M100.728 139.758C99.8759 139.758 99.1865 138.969 99.1865 137.995C99.1865 137.021 99.8759 136.23 100.728 136.23C101.58 136.23 102.269 137.021 102.269 137.995C102.269 138.969 101.58 139.758 100.728 139.758Z" fill="#CE482C"/>
<path fill-rule="evenodd" clip-rule="evenodd" d="M95.8033 134.646C95.8033 133.775 96.5753 133.07 97.53 133.07C98.4833 133.07 99.254 133.775 99.254 134.646C99.254 135.515 98.4833 136.223 97.53 136.223C96.5753 136.223 95.8033 135.515 95.8033 134.646Z" fill="#CE482C"/>
<path fill-rule="evenodd" clip-rule="evenodd" d="M105.749 134.646C105.749 133.673 104.917 132.883 103.887 132.883C102.862 132.883 102.029 133.673 102.029 134.646C102.029 135.619 102.862 136.409 103.887 136.409C104.917 136.409 105.749 135.619 105.749 134.646Z" fill="#CE482C"/>
<path fill-rule="evenodd" clip-rule="evenodd" d="M100.613 129.533C101.536 129.533 102.284 130.323 102.284 131.297C102.284 132.271 101.536 133.062 100.613 133.062C99.6893 133.062 98.9413 132.271 98.9413 131.297C98.9413 130.323 99.6893 129.533 100.613 129.533Z" fill="#CE482C"/>
<path fill-rule="evenodd" clip-rule="evenodd" d="M100.539 136.112C99.9044 136.112 99.3898 135.521 99.3898 134.797C99.3898 134.071 99.9044 133.479 100.539 133.479C101.172 133.479 101.688 134.071 101.688 134.797C101.688 135.521 101.172 136.112 100.539 136.112Z" fill="#CE482C"/>
<path d="M100.641 138.802V136.349" stroke="#00A551" stroke-width="0.945333" stroke-miterlimit="2.613"/>
<path d="M96.6667 134.734H99.064" stroke="#00A551" stroke-width="0.945333" stroke-miterlimit="2.613"/>
<path d="M100.641 133.121V130.669" stroke="#00A551" stroke-width="0.945333" stroke-miterlimit="2.613"/>
<path d="M102.22 134.734H104.619" stroke="#00A551" stroke-width="0.945333" stroke-miterlimit="2.613"/>
<path d="M133.481 195.557C133.481 199.401 130.367 202.516 126.523 202.516" stroke="#231F20" stroke-width="0.666667" stroke-miterlimit="2.613"/>
<path d="M126.524 202.516H8.2262" stroke="#231F20" stroke-width="0.666667" stroke-miterlimit="2.613"/>
<path d="M8.22654 202.516C4.38254 202.516 1.26654 199.401 1.26654 195.557" stroke="#231F20" stroke-width="0.666667" stroke-miterlimit="2.613"/>
<path d="M1.26697 195.557V7.67471" stroke="#231F20" stroke-width="0.666667" stroke-miterlimit="2.613"/>
<path d="M1.26697 7.67456C1.26697 3.83056 4.38297 0.715894 8.22697 0.715894" stroke="#231F20" stroke-width="0.666667" stroke-miterlimit="2.613"/>
<path d="M8.22656 0.716187H126.524" stroke="#231F20" stroke-width="0.666667" stroke-miterlimit="2.613"/>
<path d="M126.523 0.716139C130.367 0.716139 133.481 3.83081 133.481 7.6748" stroke="#231F20" stroke-width="0.666667" stroke-miterlimit="2.613"/>
<path d="M133.481 7.67453V195.557" stroke="#231F20" stroke-width="0.666667" stroke-miterlimit="2.613"/>
<path fill-rule="evenodd" clip-rule="evenodd" d="M14.8828 12.5547C13.0455 12.5547 11.5548 13.992 11.5548 15.7694V21.7027C11.8908 21.7934 12.2295 21.9014 12.5722 22.028C15.4415 23.104 17.1122 25.1747 18.2082 26.7427V15.7694C18.2082 13.992 16.7202 12.5547 14.8828 12.5547ZM14.8828 30.672C15.7535 30.672 16.5415 30.3467 17.1335 29.8147C16.3655 28.752 15.8882 27.7107 14.9588 26.7427C13.7495 25.4867 12.6335 24.848 11.5548 24.4427V27.456C11.5548 29.232 13.0455 30.672 14.8828 30.672V30.672ZM21.7442 32.388C21.7442 32.388 20.1988 32.62 18.7522 31.6147C17.7175 32.536 16.3522 33.0974 14.8522 33.0974C11.6308 33.0974 9.02016 30.5134 9.02016 27.3227V23.864C8.24682 23.8254 7.53082 23.8454 7.53082 23.8454V21.2947C7.53082 21.2947 8.11882 21.2294 9.02016 21.276V15.7654C9.02016 12.576 11.6308 9.99202 14.8522 9.99202C18.0722 9.99202 20.6842 12.576 20.6842 15.7654V27.3227C20.6842 28.0814 20.5335 28.8027 20.2682 29.464C20.7148 29.8227 21.1895 30.0494 21.7442 30.1307V32.388Z" fill="#231F20"/>
<path fill-rule="evenodd" clip-rule="evenodd" d="M119.867 190.675C121.705 190.675 123.197 189.236 123.197 187.46V181.524C122.861 181.435 122.519 181.328 122.178 181.201C119.309 180.125 117.637 178.055 116.542 176.487V187.46C116.542 189.236 118.031 190.675 119.867 190.675ZM119.867 172.559C118.997 172.559 118.207 172.885 117.617 173.415C118.386 174.477 118.862 175.519 119.791 176.487C120.998 177.745 122.118 178.38 123.197 178.787V175.773C123.197 174 121.705 172.559 119.867 172.559ZM113.007 170.841C113.007 170.841 114.554 170.611 116.001 171.615C117.031 170.695 118.399 170.133 119.901 170.133C123.119 170.133 125.731 172.716 125.731 175.907V179.365C126.502 179.404 127.221 179.383 127.221 179.383V181.935C127.221 181.935 126.631 182 125.731 181.951V187.464C125.731 190.651 123.119 193.237 119.901 193.237C116.677 193.237 114.066 190.651 114.066 187.464V175.907C114.066 175.149 114.217 174.429 114.483 173.767C114.035 173.407 113.559 173.18 113.007 173.099V170.841Z" fill="#231F20"/>
<path d="M24.6576 181.214V22.0163H110.091V181.214H24.6576ZM23.983 182.566H111.447V20.667H23.303V182.566H23.983Z" fill="#034EA1"/>
<path d="M12.638 53.9506C13.846 52.7226 14.046 50.3559 14.11 49.7839C14.1753 49.2119 14.0233 49.0866 13.9113 49.0666C13.802 49.0439 13.6806 49.2399 13.626 49.5106C13.3646 50.8199 12.402 51.3719 11.9353 51.4546C9.76063 51.8359 9.04197 50.4146 8.83797 50.0359C7.71797 47.9666 10.222 44.7426 10.6406 44.2452C12.9846 41.4372 14.6366 38.4092 14.6366 38.4092C14.6366 38.4092 16.2913 41.4372 18.6366 44.2452C19.0526 44.7426 21.5553 47.9666 20.4366 50.0359C20.2326 50.4146 19.5126 51.8359 17.3366 51.4546C16.874 51.3719 15.91 50.8199 15.6473 49.5106C15.5953 49.2399 15.47 49.0439 15.3606 49.0666C15.2513 49.0866 15.098 49.2119 15.1633 49.7839C15.2286 50.3559 15.4286 52.7226 16.6353 53.9506H12.638Z" fill="#231F20"/>
<path d="M122.113 149.284C120.905 150.509 120.707 152.877 120.641 153.448C120.575 154.021 120.728 154.147 120.837 154.167C120.947 154.188 121.071 153.992 121.125 153.724C121.388 152.413 122.349 151.86 122.815 151.777C124.991 151.397 125.709 152.817 125.912 153.196C127.031 155.267 124.528 158.489 124.112 158.988C121.765 161.795 120.116 164.824 120.116 164.824C120.116 164.824 118.464 161.795 116.117 158.988C115.699 158.489 113.196 155.267 114.313 153.196C114.519 152.817 115.239 151.397 117.412 151.777C117.88 151.86 118.841 152.413 119.104 153.724C119.157 153.992 119.279 154.188 119.389 154.167C119.499 154.147 119.653 154.021 119.585 153.448C119.523 152.877 119.323 150.509 118.115 149.284H122.113Z" fill="#231F20"/>
</svg>
